<?xml version="1.0" encoding="UTF-8" standalone="no"?>
<svg
   xmlns:dc="http://purl.org/dc/elements/1.1/"
   xmlns:cc="http://creativecommons.org/ns#"
   xmlns:rdf="http://www.w3.org/1999/02/22-rdf-syntax-ns#"
   xmlns:svg="http://www.w3.org/2000/svg"
   xmlns="http://www.w3.org/2000/svg"
   xmlns:sodipodi="http://sodipodi.sourceforge.net/DTD/sodipodi-0.dtd"
   xmlns:inkscape="http://www.inkscape.org/namespaces/inkscape"
   version="1.1"
   viewBox="0 0 50 50"
   id="svg12"
   sodipodi:docname="icon-check.svg"
   inkscape:version="0.92.3 (2405546, 2018-03-11)">
  <metadata
     id="metadata18">
    <rdf:RDF>
      <cc:Work
         rdf:about="">
        <dc:format>image/svg+xml</dc:format>
        <dc:type
           rdf:resource="http://purl.org/dc/dcmitype/StillImage" />
        <dc:title></dc:title>
      </cc:Work>
    </rdf:RDF>
  </metadata>
  <defs
     id="defs16" />
  <sodipodi:namedview
     pagecolor="#ffffff"
     bordercolor="#666666"
     borderopacity="1"
     objecttolerance="10"
     gridtolerance="10"
     guidetolerance="10"
     inkscape:pageopacity="0"
     inkscape:pageshadow="2"
     inkscape:window-width="943"
     inkscape:window-height="594"
     id="namedview14"
     showgrid="false"
     inkscape:zoom="4.72"
     inkscape:cx="25"
     inkscape:cy="25"
     inkscape:window-x="194"
     inkscape:window-y="77"
     inkscape:window-maximized="0"
     inkscape:current-layer="svg12" />
  <path
     d="M 25,1.2 C 11.888,1.2 1.219,11.867 1.219,24.979 1.2190149,38.091 11.888,48.76 25,48.76 38.112,48.76 48.781,38.091 48.781,24.979 48.780985,11.867 38.112,1.2 25,1.2 Z m 0,3.6114 c 11.16,0 20.168,9.0078 20.168,20.168 -1.3e-5,11.16 -9.0078,20.17 -20.168,20.17 C 13.84,45.1495 4.832,36.1397 4.832,24.9794 4.8320127,13.8194 13.8398,4.8114 25,4.8114 Z"
     style="color:#000000;text-indent:0;text-decoration:none;text-decoration-line:none;text-decoration-style:solid;text-decoration-color:#000000;text-transform:none;white-space:normal;isolation:auto;mix-blend-mode:normal;solid-color:#000000;fill:#1d1d1b;color-rendering:auto;image-rendering:auto;shape-rendering:auto;fill-opacity:1;stroke:#1d1d1b;stroke-opacity:1;stroke-width:2;stroke-miterlimit:4;stroke-dasharray:none;stroke-linejoin:round"
     id="path2"
     inkscape:connector-curvature="0" />
  <g
     style="fill:#1d1d1b;fill-opacity:1;stroke-width:3.26567934;stroke-miterlimit:4;stroke-dasharray:none;stroke:#1d1d1b;stroke-opacity:1;stroke-linejoin:round"
     transform="matrix(0.61243,0,0,0.61243,7.0239,-596.95)"
     id="g6">
    <path
       transform="matrix(0.91761,0,0,0.91761,2.0598,1003)"
       d="m 10.641,5.4531 c -0.59364,0 -1.1877,0.22872 -1.6426,0.68359 l -2.8613,2.8613 c -0.90975,0.90975 -0.90975,2.3735 0,3.2832 l 12.719,12.719 6.1445,6.1445 6.1445,-6.1445 22.204,-22.204 c 0.90975,-0.90975 0.90975,-2.3735 0,-3.2832 l -2.8613,-2.8613 c -0.90975,-0.90975 -2.3735,-0.90975 -3.2832,0 l -22.204,22.204 -12.719,-12.719 C 11.82673,5.68182 11.2346,5.4531 10.641,5.4531 Z"
       id="path4"
       inkscape:connector-curvature="0"
       style="fill:#1d1d1b;fill-opacity:1;stroke-width:3.55889685;stroke-miterlimit:4;stroke-dasharray:none;stroke:#1d1d1b;stroke-opacity:1;stroke-linejoin:round" />
  </g>
</svg>
