<svg xmlns="http://www.w3.org/2000/svg" xmlns:xlink="http://www.w3.org/1999/xlink" width="1920" height="1080" viewBox="0 0 1920 1080"><defs><style>.a,.b,.r{fill:#fff;}.b,.f{stroke:#a2a2a2;}.c,.f{fill:none;}.d{clip-path:url(#i);}.e{fill:#e3e3e3;}.g,.p,.t{fill:#707070;}.g{font-size:20px;}.g,.p,.r,.t{font-family:SegoeUI, Segoe UI;}.h,.l{fill:#009b3a;}.i{fill:#fedf00;}.j{fill:#002776;}.k{clip-path:url(#a);}.l,.m{fill-rule:evenodd;}.n{clip-path:url(#b);}.o,.x{fill:#346e93;}.o{font-size:72px;font-family:SegoeUIBlack, Segoe UI;}.p{font-size:36px;}.q{fill:#ba2027;}.r{font-size:32px;}.s{clip-path:url(#c);}.t{font-size:16px;}.u{clip-path:url(#d);}.v{clip-path:url(#e);}.w{clip-path:url(#f);}.y{fill:url(#g);}.z{stroke:none;}</style><clipPath id="a"><circle cx="4.512" cy="4.512" r="4.512" transform="translate(0)"/></clipPath><clipPath id="b"><path d="M0,.43V0H.387V.43ZM.193.141V.215H.387V.141Z"/></clipPath><clipPath id="c"><rect class="c" width="1920" height="52"/></clipPath><clipPath id="d"><rect class="b" width="48" height="32" rx="16" transform="translate(1625 10.217)"/></clipPath><clipPath id="e"><ellipse cx="8.4" cy="8.4" rx="8.4" ry="8.4"/></clipPath><clipPath id="f"><rect class="c" width="73" height="73"/></clipPath><pattern id="g" preserveAspectRatio="none" width="100%" height="100%" viewBox="0 0 700 523"><image width="700" height="523" xlink:href="Experimente%201%20-%202-image9.jpg"/></pattern><clipPath id="i"><rect width="1920" height="1080"/></clipPath></defs><g id="h" class="d"><rect class="a" width="1920" height="1080"/><g transform="translate(-3823 -6792)"><rect class="e" width="1920" height="52"/><g class="f" transform="translate(1625 10.217)"><rect class="z" width="48" height="32" rx="14"/><rect class="c" x="0.5" y="0.5" width="47" height="31" rx="13.5"/></g><g class="f" transform="translate(1498 10.217)"><rect class="z" width="116" height="31.566" rx="14"/><rect class="c" x="0.5" y="0.5" width="115" height="30.566" rx="13.5"/></g><text class="g" transform="translate(1532 34)"><tspan x="0" y="0">Entrar</tspan></text><g transform="translate(2430.588 2225.5)"><g transform="translate(1305.96 -738.273)"><rect class="h" width="24" height="18.046" transform="translate(-2100 -1470)"/><path class="i" d="M-1743-1106.168l9.809,6.832,9.809-6.832-9.809-6.832Z" transform="translate(-354.809 -354.809)"/><circle class="j" cx="4.512" cy="4.512" r="4.512" transform="translate(-2092.511 -1465.488)"/><g class="k" transform="translate(-2092.511 -1465.488)"><path class="a" d="M-2205-304.043A10.957,10.957,0,0,1-2194.043-315a10.957,10.957,0,0,1,10.957,10.957h-.645a10.312,10.312,0,0,0-10.312-10.312,10.312,10.312,0,0,0-10.312,10.312Z" transform="translate(2195.977 317.578)"/></g><g transform="translate(-2092.104 -1462.805)"><path class="l" d="M.193.43A.2.2,0,0,0,.387.215.2.2,0,0,0,.193,0,.2.2,0,0,0,0,.215.2.2,0,0,0,.193.43m0-.08A.126.126,0,0,0,.307.215.126.126,0,0,0,.193.08.126.126,0,0,0,.08.215.126.126,0,0,0,.193.35" transform="translate(0 0.106) rotate(-7)"/><g transform="translate(0.564 0.042) rotate(-4)"><path class="m" d="M0,.43H.08V.27H.252a.135.135,0,1,0,0-.27H.006ZM.08.19H.246a.055.055,0,1,0,0-.11H.08Z"/><path d="M.209.2c0-.061,0-.2-.092-.2H0C.135,0,.135.135.135.2" transform="translate(0.157 0.233)"/></g><path class="l" d="M0,.43H.2A.184.184,0,0,0,.387.246V.184A.184.184,0,0,0,.2,0H0ZM.08.35H.2A.117.117,0,0,0,.313.233V.2A.117.117,0,0,0,.2.08H.08Z" transform="translate(1.131 0.007) rotate(-1)"/><path class="h" d="M0,.43H.387V.35H.074V.239H.319V.166H.074V.08H.368V0H0Z" transform="translate(1.7 0.002) rotate(2)"/><path class="h" d="M0,.43H.074V.135L.16.43H.227L.313.135V.43H.387V0H.279L.193.295.107,0H0Z" transform="translate(2.267 0.026) rotate(5)"/><path class="h" d="M0,.387H.322V.313H.074v-.1h.2V.141h-.2V.074H.315V0H0Z" transform="translate(3.185 0.173) rotate(9.75)"/><path class="l" d="M0,.43H.08V.27H.252a.135.135,0,1,0,0-.27H.006ZM.08.19H.246a.055.055,0,1,0,0-.11H.08Z" transform="matrix(0.968, 0.25, -0.25, 0.968, 4.043, 0.299)"/><g transform="translate(4.592 0.446) rotate(17.5)"><path class="m" d="M0,.43H.08V.27H.252a.135.135,0,1,0,0-.27H.006ZM.08.19H.246a.055.055,0,1,0,0-.11H.08Z" transform="translate(0 0)"/><path d="M.209.2c0-.061,0-.2-.092-.2H0C.135,0,.135.135.135.2" transform="translate(0.157 0.233)"/></g><path class="l" d="M.193.43A.2.2,0,0,0,.387.215.2.2,0,0,0,.193,0,.2.2,0,0,0,0,.215.2.2,0,0,0,.193.43m0-.08A.126.126,0,0,0,.307.215.126.126,0,0,0,.193.08.126.126,0,0,0,.08.215.126.126,0,0,0,.193.35" transform="translate(5.133 0.621) rotate(20.5)"/><g transform="translate(5.663 0.824) rotate(23.5)"><g class="n"><path class="m" d="M.193.43A.2.2,0,0,0,.387.215.2.2,0,0,0,.193,0,.2.2,0,0,0,0,.215.2.2,0,0,0,.193.43m0-.08A.126.126,0,0,0,.307.215.126.126,0,0,0,.193.08.126.126,0,0,0,.08.215.126.126,0,0,0,.193.35" transform="translate(0 0)"/></g><rect width="0.163" height="0.061" transform="translate(0.224 0.215)"/><rect width="0.061" height="0.215" transform="translate(0.325 0.215)"/></g><g transform="translate(6.182 1.055) rotate(26.5)"><path class="m" d="M0,.43H.08V.27H.252a.135.135,0,1,0,0-.27H.006ZM.08.19H.246a.055.055,0,1,0,0-.11H.08Z" transform="translate(0 0)"/><path d="M.209.2c0-.061,0-.2-.092-.2H0C.135,0,.135.135.135.2" transform="translate(0.157 0.233)"/></g><path class="h" d="M0,.43H.387V.35H.074V.239H.319V.166H.074V.08H.368V0H0Z" transform="translate(6.688 1.313) rotate(29.5)"/><path class="h" d="M.1.295C.1.338.138.359.2.359S.29.339.29.312C.29.224,0,.279,0,.126.006-.006.157,0,.212,0S.371.025.37.13H.276C.276.084.233.068.184.068S.1.075.1.12C.1.192.387.144.387.3.387.408.276.43.193.43S0,.4,0,.295Z" transform="translate(7.18 1.597) rotate(32.5)"/><path class="h" d="M.1.295C.1.338.138.359.2.359S.29.339.29.312C.29.224,0,.279,0,.126.006-.006.157,0,.212,0S.371.025.37.13H.276C.276.084.233.068.184.068S.1.075.1.12C.1.192.387.144.387.3.387.408.276.43.193.43S0,.4,0,.295Z" transform="matrix(0.814, 0.581, -0.581, 0.814, 7.657, 1.906)"/><path class="l" d="M.193.43A.2.2,0,0,0,.387.215.2.2,0,0,0,.193,0,.2.2,0,0,0,0,.215.2.2,0,0,0,.193.43m0-.08A.126.126,0,0,0,.307.215.126.126,0,0,0,.193.08.126.126,0,0,0,.08.215.126.126,0,0,0,.193.35" transform="translate(8.117 2.24) rotate(38.5)"/></g></g><g transform="translate(-18900 -4158)"><path class="a" d="M0-31.5V0H15.75" transform="translate(-9.734 -1.542) rotate(18)"/><path class="a" d="M0,31.5V0H15.75" transform="translate(9.734 -1.542) rotate(162)"/><g transform="rotate(72)"><path class="a" d="M0-31.5V0H15.75" transform="translate(-9.734 -1.542) rotate(18)"/><path class="a" d="M0,31.5V0H15.75" transform="translate(9.734 -1.542) rotate(162)"/></g><g transform="rotate(-72)"><path class="a" d="M0-31.5V0H15.75" transform="translate(-9.734 -1.542) rotate(18)"/><path class="a" d="M0,31.5V0H15.75" transform="translate(9.734 -1.542) rotate(162)"/></g><g transform="matrix(-0.809, 0.588, -0.588, -0.809, 0, 0)"><path class="a" d="M0-31.5V0H15.75" transform="translate(-9.734 -1.542) rotate(18)"/><path class="a" d="M0,31.5V0H15.75" transform="translate(9.734 -1.542) rotate(162)"/></g><g transform="matrix(-0.809, -0.588, 0.588, -0.809, 0, 0)"><path class="a" d="M0-31.5V0H15.75" transform="translate(-9.734 -1.542) rotate(18)"/><path class="a" d="M0,31.5V0H15.75" transform="translate(9.734 -1.542) rotate(162)"/></g></g><g transform="translate(-16852.5 5575.5)"><path class="a" d="M0-31.5V0H15.75" transform="translate(-9.734 -1.542) rotate(18)"/><path class="a" d="M0,31.5V0H15.75" transform="translate(9.734 -1.542) rotate(162)"/><g transform="rotate(72)"><path class="a" d="M0-31.5V0H15.75" transform="translate(-9.734 -1.542) rotate(18)"/><path class="a" d="M0,31.5V0H15.75" transform="translate(9.734 -1.542) rotate(162)"/></g><g transform="rotate(-72)"><path class="a" d="M0-31.5V0H15.75" transform="translate(-9.734 -1.542) rotate(18)"/><path class="a" d="M0,31.5V0H15.75" transform="translate(9.734 -1.542) rotate(162)"/></g><g transform="matrix(-0.809, 0.588, -0.588, -0.809, 0, 0)"><path class="a" d="M0-31.5V0H15.75" transform="translate(-9.734 -1.542) rotate(18)"/><path class="a" d="M0,31.5V0H15.75" transform="translate(9.734 -1.542) rotate(162)"/></g><g transform="matrix(-0.809, -0.588, 0.588, -0.809, 0, 0)"><path class="a" d="M0-31.5V0H15.75" transform="translate(-9.734 -1.542) rotate(18)"/><path class="a" d="M0,31.5V0H15.75" transform="translate(9.734 -1.542) rotate(162)"/></g></g><g transform="translate(-16406.25 6378.75)"><path class="a" d="M0-26.25V0H13.125" transform="translate(-8.112 -1.285) rotate(18)"/><path class="a" d="M0,26.25V0H13.125" transform="translate(8.112 -1.285) rotate(162)"/><g transform="rotate(72)"><path class="a" d="M0-26.25V0H13.125" transform="translate(-8.112 -1.285) rotate(18)"/><path class="a" d="M0,26.25V0H13.125" transform="translate(8.112 -1.285) rotate(162)"/></g><g transform="rotate(-72)"><path class="a" d="M0-26.25V0H13.125" transform="translate(-8.112 -1.285) rotate(18)"/><path class="a" d="M0,26.25V0H13.125" transform="translate(8.112 -1.285) rotate(162)"/></g><g transform="matrix(-0.809, 0.588, -0.588, -0.809, 0, 0)"><path class="a" d="M0-26.25V0H13.125" transform="translate(-8.112 -1.285) rotate(18)"/><path class="a" d="M0,26.25V0H13.125" transform="translate(8.112 -1.285) rotate(162)"/></g><g transform="matrix(-0.809, -0.588, 0.588, -0.809, 0, 0)"><path class="a" d="M0-26.25V0H13.125" transform="translate(-8.112 -1.285) rotate(18)"/><path class="a" d="M0,26.25V0H13.125" transform="translate(8.112 -1.285) rotate(162)"/></g></g><g transform="translate(-6945 1980)"><path class="a" d="M0-15V0H7.5" transform="translate(-4.635 -0.734) rotate(18)"/><path class="a" d="M0,15V0H7.5" transform="translate(4.635 -0.734) rotate(162)"/><g transform="rotate(72)"><path class="a" d="M0-15V0H7.5" transform="translate(-4.635 -0.734) rotate(18)"/><path class="a" d="M0,15V0H7.5" transform="translate(4.635 -0.734) rotate(162)"/></g><g transform="rotate(-72)"><path class="a" d="M0-15V0H7.5" transform="translate(-4.635 -0.734) rotate(18)"/><path class="a" d="M0,15V0H7.5" transform="translate(4.635 -0.734) rotate(162)"/></g><g transform="matrix(-0.809, 0.588, -0.588, -0.809, 0, 0)"><path class="a" d="M0-15V0H7.5" transform="translate(-4.635 -0.734) rotate(18)"/><path class="a" d="M0,15V0H7.5" transform="translate(4.635 -0.734) rotate(162)"/></g><g transform="matrix(-0.809, -0.588, 0.588, -0.809, 0, 0)"><path class="a" d="M0-15V0H7.5" transform="translate(-4.635 -0.734) rotate(18)"/><path class="a" d="M0,15V0H7.5" transform="translate(4.635 -0.734) rotate(162)"/></g></g><g transform="translate(-10027.5 6562.5)"><path class="a" d="M0-26.25V0H13.125" transform="translate(-8.112 -1.285) rotate(18)"/><path class="a" d="M0,26.25V0H13.125" transform="translate(8.112 -1.285) rotate(162)"/><g transform="rotate(72)"><path class="a" d="M0-26.25V0H13.125" transform="translate(-8.112 -1.285) rotate(18)"/><path class="a" d="M0,26.25V0H13.125" transform="translate(8.112 -1.285) rotate(162)"/></g><g transform="rotate(-72)"><path class="a" d="M0-26.25V0H13.125" transform="translate(-8.112 -1.285) rotate(18)"/><path class="a" d="M0,26.25V0H13.125" transform="translate(8.112 -1.285) rotate(162)"/></g><g transform="matrix(-0.809, 0.588, -0.588, -0.809, 0, 0)"><path class="a" d="M0-26.25V0H13.125" transform="translate(-8.112 -1.285) rotate(18)"/><path class="a" d="M0,26.25V0H13.125" transform="translate(8.112 -1.285) rotate(162)"/></g><g transform="matrix(-0.809, -0.588, 0.588, -0.809, 0, 0)"><path class="a" d="M0-26.25V0H13.125" transform="translate(-8.112 -1.285) rotate(18)"/><path class="a" d="M0,26.25V0H13.125" transform="translate(8.112 -1.285) rotate(162)"/></g></g><g transform="translate(-8484 6783)"><path class="a" d="M0-21V0H10.5" transform="translate(-6.489 -1.028) rotate(18)"/><path class="a" d="M0,21V0H10.5" transform="translate(6.489 -1.028) rotate(162)"/><g transform="rotate(72)"><path class="a" d="M0-21V0H10.5" transform="translate(-6.489 -1.028) rotate(18)"/><path class="a" d="M0,21V0H10.5" transform="translate(6.489 -1.028) rotate(162)"/></g><g transform="rotate(-72)"><path class="a" d="M0-21V0H10.5" transform="translate(-6.489 -1.028) rotate(18)"/><path class="a" d="M0,21V0H10.5" transform="translate(6.489 -1.028) rotate(162)"/></g><g transform="matrix(-0.809, 0.588, -0.588, -0.809, 0, 0)"><path class="a" d="M0-21V0H10.5" transform="translate(-6.489 -1.028) rotate(18)"/><path class="a" d="M0,21V0H10.5" transform="translate(6.489 -1.028) rotate(162)"/></g><g transform="matrix(-0.809, -0.588, 0.588, -0.809, 0, 0)"><path class="a" d="M0-21V0H10.5" transform="translate(-6.489 -1.028) rotate(18)"/><path class="a" d="M0,21V0H10.5" transform="translate(6.489 -1.028) rotate(162)"/></g></g><g transform="translate(7182 -7182)"><path class="a" d="M0-31.5V0H15.75" transform="translate(-9.734 -1.542) rotate(18)"/><path class="a" d="M0,31.5V0H15.75" transform="translate(9.734 -1.542) rotate(162)"/><g transform="rotate(72)"><path class="a" d="M0-31.5V0H15.75" transform="translate(-9.734 -1.542) rotate(18)"/><path class="a" d="M0,31.5V0H15.75" transform="translate(9.734 -1.542) rotate(162)"/></g><g transform="rotate(-72)"><path class="a" d="M0-31.5V0H15.75" transform="translate(-9.734 -1.542) rotate(18)"/><path class="a" d="M0,31.5V0H15.75" transform="translate(9.734 -1.542) rotate(162)"/></g><g transform="matrix(-0.809, 0.588, -0.588, -0.809, 0, 0)"><path class="a" d="M0-31.5V0H15.75" transform="translate(-9.734 -1.542) rotate(18)"/><path class="a" d="M0,31.5V0H15.75" transform="translate(9.734 -1.542) rotate(162)"/></g><g transform="matrix(-0.809, -0.588, 0.588, -0.809, 0, 0)"><path class="a" d="M0-31.5V0H15.75" transform="translate(-9.734 -1.542) rotate(18)"/><path class="a" d="M0,31.5V0H15.75" transform="translate(9.734 -1.542) rotate(162)"/></g></g><g transform="translate(16222.5 8127)"><path class="a" d="M0-31.5V0H15.75" transform="translate(-9.734 -1.542) rotate(18)"/><path class="a" d="M0,31.5V0H15.75" transform="translate(9.734 -1.542) rotate(162)"/><g transform="rotate(72)"><path class="a" d="M0-31.5V0H15.75" transform="translate(-9.734 -1.542) rotate(18)"/><path class="a" d="M0,31.5V0H15.75" transform="translate(9.734 -1.542) rotate(162)"/></g><g transform="rotate(-72)"><path class="a" d="M0-31.5V0H15.75" transform="translate(-9.734 -1.542) rotate(18)"/><path class="a" d="M0,31.5V0H15.75" transform="translate(9.734 -1.542) rotate(162)"/></g><g transform="matrix(-0.809, 0.588, -0.588, -0.809, 0, 0)"><path class="a" d="M0-31.5V0H15.75" transform="translate(-9.734 -1.542) rotate(18)"/><path class="a" d="M0,31.5V0H15.75" transform="translate(9.734 -1.542) rotate(162)"/></g><g transform="matrix(-0.809, -0.588, 0.588, -0.809, 0, 0)"><path class="a" d="M0-31.5V0H15.75" transform="translate(-9.734 -1.542) rotate(18)"/><path class="a" d="M0,31.5V0H15.75" transform="translate(9.734 -1.542) rotate(162)"/></g></g><g transform="translate(12957 5565)"><path class="a" d="M0-21V0H10.5" transform="translate(-6.489 -1.028) rotate(18)"/><path class="a" d="M0,21V0H10.5" transform="translate(6.489 -1.028) rotate(162)"/><g transform="rotate(72)"><path class="a" d="M0-21V0H10.5" transform="translate(-6.489 -1.028) rotate(18)"/><path class="a" d="M0,21V0H10.5" transform="translate(6.489 -1.028) rotate(162)"/></g><g transform="rotate(-72)"><path class="a" d="M0-21V0H10.5" transform="translate(-6.489 -1.028) rotate(18)"/><path class="a" d="M0,21V0H10.5" transform="translate(6.489 -1.028) rotate(162)"/></g><g transform="matrix(-0.809, 0.588, -0.588, -0.809, 0, 0)"><path class="a" d="M0-21V0H10.5" transform="translate(-6.489 -1.028) rotate(18)"/><path class="a" d="M0,21V0H10.5" transform="translate(6.489 -1.028) rotate(162)"/></g><g transform="matrix(-0.809, -0.588, 0.588, -0.809, 0, 0)"><path class="a" d="M0-21V0H10.5" transform="translate(-6.489 -1.028) rotate(18)"/><path class="a" d="M0,21V0H10.5" transform="translate(6.489 -1.028) rotate(162)"/></g></g><g transform="translate(14306.25 8478.75)"><path class="a" d="M0-26.25V0H13.125" transform="translate(-8.112 -1.285) rotate(18)"/><path class="a" d="M0,26.25V0H13.125" transform="translate(8.112 -1.285) rotate(162)"/><g transform="rotate(72)"><path class="a" d="M0-26.25V0H13.125" transform="translate(-8.112 -1.285) rotate(18)"/><path class="a" d="M0,26.25V0H13.125" transform="translate(8.112 -1.285) rotate(162)"/></g><g transform="rotate(-72)"><path class="a" d="M0-26.25V0H13.125" transform="translate(-8.112 -1.285) rotate(18)"/><path class="a" d="M0,26.25V0H13.125" transform="translate(8.112 -1.285) rotate(162)"/></g><g transform="matrix(-0.809, 0.588, -0.588, -0.809, 0, 0)"><path class="a" d="M0-26.25V0H13.125" transform="translate(-8.112 -1.285) rotate(18)"/><path class="a" d="M0,26.25V0H13.125" transform="translate(8.112 -1.285) rotate(162)"/></g><g transform="matrix(-0.809, -0.588, 0.588, -0.809, 0, 0)"><path class="a" d="M0-26.25V0H13.125" transform="translate(-8.112 -1.285) rotate(18)"/><path class="a" d="M0,26.25V0H13.125" transform="translate(8.112 -1.285) rotate(162)"/></g></g><g transform="translate(9660 12521.25)"><path class="a" d="M0-26.25V0H13.125" transform="translate(-8.112 -1.285) rotate(18)"/><path class="a" d="M0,26.25V0H13.125" transform="translate(8.112 -1.285) rotate(162)"/><g transform="rotate(72)"><path class="a" d="M0-26.25V0H13.125" transform="translate(-8.112 -1.285) rotate(18)"/><path class="a" d="M0,26.25V0H13.125" transform="translate(8.112 -1.285) rotate(162)"/></g><g transform="rotate(-72)"><path class="a" d="M0-26.25V0H13.125" transform="translate(-8.112 -1.285) rotate(18)"/><path class="a" d="M0,26.25V0H13.125" transform="translate(8.112 -1.285) rotate(162)"/></g><g transform="matrix(-0.809, 0.588, -0.588, -0.809, 0, 0)"><path class="a" d="M0-26.25V0H13.125" transform="translate(-8.112 -1.285) rotate(18)"/><path class="a" d="M0,26.25V0H13.125" transform="translate(8.112 -1.285) rotate(162)"/></g><g transform="matrix(-0.809, -0.588, 0.588, -0.809, 0, 0)"><path class="a" d="M0-26.25V0H13.125" transform="translate(-8.112 -1.285) rotate(18)"/><path class="a" d="M0,26.25V0H13.125" transform="translate(8.112 -1.285) rotate(162)"/></g></g><g transform="translate(7707 11571)"><path class="a" d="M0-21V0H10.5" transform="translate(-6.489 -1.028) rotate(18)"/><path class="a" d="M0,21V0H10.5" transform="translate(6.489 -1.028) rotate(162)"/><g transform="rotate(72)"><path class="a" d="M0-21V0H10.5" transform="translate(-6.489 -1.028) rotate(18)"/><path class="a" d="M0,21V0H10.5" transform="translate(6.489 -1.028) rotate(162)"/></g><g transform="rotate(-72)"><path class="a" d="M0-21V0H10.5" transform="translate(-6.489 -1.028) rotate(18)"/><path class="a" d="M0,21V0H10.5" transform="translate(6.489 -1.028) rotate(162)"/></g><g transform="matrix(-0.809, 0.588, -0.588, -0.809, 0, 0)"><path class="a" d="M0-21V0H10.5" transform="translate(-6.489 -1.028) rotate(18)"/><path class="a" d="M0,21V0H10.5" transform="translate(6.489 -1.028) rotate(162)"/></g><g transform="matrix(-0.809, -0.588, 0.588, -0.809, 0, 0)"><path class="a" d="M0-21V0H10.5" transform="translate(-6.489 -1.028) rotate(18)"/><path class="a" d="M0,21V0H10.5" transform="translate(6.489 -1.028) rotate(162)"/></g></g><g transform="translate(9261 8799)"><path class="a" d="M0-21V0H10.5" transform="translate(-6.489 -1.028) rotate(18)"/><path class="a" d="M0,21V0H10.5" transform="translate(6.489 -1.028) rotate(162)"/><g transform="rotate(72)"><path class="a" d="M0-21V0H10.5" transform="translate(-6.489 -1.028) rotate(18)"/><path class="a" d="M0,21V0H10.5" transform="translate(6.489 -1.028) rotate(162)"/></g><g transform="rotate(-72)"><path class="a" d="M0-21V0H10.5" transform="translate(-6.489 -1.028) rotate(18)"/><path class="a" d="M0,21V0H10.5" transform="translate(6.489 -1.028) rotate(162)"/></g><g transform="matrix(-0.809, 0.588, -0.588, -0.809, 0, 0)"><path class="a" d="M0-21V0H10.5" transform="translate(-6.489 -1.028) rotate(18)"/><path class="a" d="M0,21V0H10.5" transform="translate(6.489 -1.028) rotate(162)"/></g><g transform="matrix(-0.809, -0.588, 0.588, -0.809, 0, 0)"><path class="a" d="M0-21V0H10.5" transform="translate(-6.489 -1.028) rotate(18)"/><path class="a" d="M0,21V0H10.5" transform="translate(6.489 -1.028) rotate(162)"/></g></g><g transform="translate(13125 10027.5)"><path class="a" d="M0-26.25V0H13.125" transform="translate(-8.112 -1.285) rotate(18)"/><path class="a" d="M0,26.25V0H13.125" transform="translate(8.112 -1.285) rotate(162)"/><g transform="rotate(72)"><path class="a" d="M0-26.25V0H13.125" transform="translate(-8.112 -1.285) rotate(18)"/><path class="a" d="M0,26.25V0H13.125" transform="translate(8.112 -1.285) rotate(162)"/></g><g transform="rotate(-72)"><path class="a" d="M0-26.25V0H13.125" transform="translate(-8.112 -1.285) rotate(18)"/><path class="a" d="M0,26.25V0H13.125" transform="translate(8.112 -1.285) rotate(162)"/></g><g transform="matrix(-0.809, 0.588, -0.588, -0.809, 0, 0)"><path class="a" d="M0-26.25V0H13.125" transform="translate(-8.112 -1.285) rotate(18)"/><path class="a" d="M0,26.25V0H13.125" transform="translate(8.112 -1.285) rotate(162)"/></g><g transform="matrix(-0.809, -0.588, 0.588, -0.809, 0, 0)"><path class="a" d="M0-26.25V0H13.125" transform="translate(-8.112 -1.285) rotate(18)"/><path class="a" d="M0,26.25V0H13.125" transform="translate(8.112 -1.285) rotate(162)"/></g></g><g transform="translate(7665 8505)"><path class="a" d="M0-21V0H10.5" transform="translate(-6.489 -1.028) rotate(18)"/><path class="a" d="M0,21V0H10.5" transform="translate(6.489 -1.028) rotate(162)"/><g transform="rotate(72)"><path class="a" d="M0-21V0H10.5" transform="translate(-6.489 -1.028) rotate(18)"/><path class="a" d="M0,21V0H10.5" transform="translate(6.489 -1.028) rotate(162)"/></g><g transform="rotate(-72)"><path class="a" d="M0-21V0H10.5" transform="translate(-6.489 -1.028) rotate(18)"/><path class="a" d="M0,21V0H10.5" transform="translate(6.489 -1.028) rotate(162)"/></g><g transform="matrix(-0.809, 0.588, -0.588, -0.809, 0, 0)"><path class="a" d="M0-21V0H10.5" transform="translate(-6.489 -1.028) rotate(18)"/><path class="a" d="M0,21V0H10.5" transform="translate(6.489 -1.028) rotate(162)"/></g><g transform="matrix(-0.809, -0.588, 0.588, -0.809, 0, 0)"><path class="a" d="M0-21V0H10.5" transform="translate(-6.489 -1.028) rotate(18)"/><path class="a" d="M0,21V0H10.5" transform="translate(6.489 -1.028) rotate(162)"/></g></g><g transform="translate(-7350 787.5)"><path class="a" d="M0-26.25V0H13.125" transform="translate(-8.112 -1.285) rotate(18)"/><path class="a" d="M0,26.25V0H13.125" transform="translate(8.112 -1.285) rotate(162)"/><g transform="rotate(72)"><path class="a" d="M0-26.25V0H13.125" transform="translate(-8.112 -1.285) rotate(18)"/><path class="a" d="M0,26.25V0H13.125" transform="translate(8.112 -1.285) rotate(162)"/></g><g transform="rotate(-72)"><path class="a" d="M0-26.25V0H13.125" transform="translate(-8.112 -1.285) rotate(18)"/><path class="a" d="M0,26.25V0H13.125" transform="translate(8.112 -1.285) rotate(162)"/></g><g transform="matrix(-0.809, 0.588, -0.588, -0.809, 0, 0)"><path class="a" d="M0-26.25V0H13.125" transform="translate(-8.112 -1.285) rotate(18)"/><path class="a" d="M0,26.25V0H13.125" transform="translate(8.112 -1.285) rotate(162)"/></g><g transform="matrix(-0.809, -0.588, 0.588, -0.809, 0, 0)"><path class="a" d="M0-26.25V0H13.125" transform="translate(-8.112 -1.285) rotate(18)"/><path class="a" d="M0,26.25V0H13.125" transform="translate(8.112 -1.285) rotate(162)"/></g></g><g transform="translate(4200 -777)"><path class="a" d="M0-21V0H10.5" transform="translate(-6.489 -1.028) rotate(18)"/><path class="a" d="M0,21V0H10.5" transform="translate(6.489 -1.028) rotate(162)"/><g transform="rotate(72)"><path class="a" d="M0-21V0H10.5" transform="translate(-6.489 -1.028) rotate(18)"/><path class="a" d="M0,21V0H10.5" transform="translate(6.489 -1.028) rotate(162)"/></g><g transform="rotate(-72)"><path class="a" d="M0-21V0H10.5" transform="translate(-6.489 -1.028) rotate(18)"/><path class="a" d="M0,21V0H10.5" transform="translate(6.489 -1.028) rotate(162)"/></g><g transform="matrix(-0.809, 0.588, -0.588, -0.809, 0, 0)"><path class="a" d="M0-21V0H10.5" transform="translate(-6.489 -1.028) rotate(18)"/><path class="a" d="M0,21V0H10.5" transform="translate(6.489 -1.028) rotate(162)"/></g><g transform="matrix(-0.809, -0.588, 0.588, -0.809, 0, 0)"><path class="a" d="M0-21V0H10.5" transform="translate(-6.489 -1.028) rotate(18)"/><path class="a" d="M0,21V0H10.5" transform="translate(6.489 -1.028) rotate(162)"/></g></g><g transform="translate(0 10395)"><path class="a" d="M0-31.5V0H15.75" transform="translate(-9.734 -1.542) rotate(18)"/><path class="a" d="M0,31.5V0H15.75" transform="translate(9.734 -1.542) rotate(162)"/><g transform="rotate(72)"><path class="a" d="M0-31.5V0H15.75" transform="translate(-9.734 -1.542) rotate(18)"/><path class="a" d="M0,31.5V0H15.75" transform="translate(9.734 -1.542) rotate(162)"/></g><g transform="rotate(-72)"><path class="a" d="M0-31.5V0H15.75" transform="translate(-9.734 -1.542) rotate(18)"/><path class="a" d="M0,31.5V0H15.75" transform="translate(9.734 -1.542) rotate(162)"/></g><g transform="matrix(-0.809, 0.588, -0.588, -0.809, 0, 0)"><path class="a" d="M0-31.5V0H15.75" transform="translate(-9.734 -1.542) rotate(18)"/><path class="a" d="M0,31.5V0H15.75" transform="translate(9.734 -1.542) rotate(162)"/></g><g transform="matrix(-0.809, -0.588, 0.588, -0.809, 0, 0)"><path class="a" d="M0-31.5V0H15.75" transform="translate(-9.734 -1.542) rotate(18)"/><path class="a" d="M0,31.5V0H15.75" transform="translate(9.734 -1.542) rotate(162)"/></g></g><g transform="translate(2231.25 4830)"><path class="a" d="M0-26.25V0H13.125" transform="translate(-8.112 -1.285) rotate(18)"/><path class="a" d="M0,26.25V0H13.125" transform="translate(8.112 -1.285) rotate(162)"/><g transform="rotate(72)"><path class="a" d="M0-26.25V0H13.125" transform="translate(-8.112 -1.285) rotate(18)"/><path class="a" d="M0,26.25V0H13.125" transform="translate(8.112 -1.285) rotate(162)"/></g><g transform="rotate(-72)"><path class="a" d="M0-26.25V0H13.125" transform="translate(-8.112 -1.285) rotate(18)"/><path class="a" d="M0,26.25V0H13.125" transform="translate(8.112 -1.285) rotate(162)"/></g><g transform="matrix(-0.809, 0.588, -0.588, -0.809, 0, 0)"><path class="a" d="M0-26.25V0H13.125" transform="translate(-8.112 -1.285) rotate(18)"/><path class="a" d="M0,26.25V0H13.125" transform="translate(8.112 -1.285) rotate(162)"/></g><g transform="matrix(-0.809, -0.588, 0.588, -0.809, 0, 0)"><path class="a" d="M0-26.25V0H13.125" transform="translate(-8.112 -1.285) rotate(18)"/><path class="a" d="M0,26.25V0H13.125" transform="translate(8.112 -1.285) rotate(162)"/></g></g><g transform="translate(0 3097.5)"><path class="a" d="M0-26.25V0H13.125" transform="translate(-8.112 -1.285) rotate(18)"/><path class="a" d="M0,26.25V0H13.125" transform="translate(8.112 -1.285) rotate(162)"/><g transform="rotate(72)"><path class="a" d="M0-26.25V0H13.125" transform="translate(-8.112 -1.285) rotate(18)"/><path class="a" d="M0,26.25V0H13.125" transform="translate(8.112 -1.285) rotate(162)"/></g><g transform="rotate(-72)"><path class="a" d="M0-26.25V0H13.125" transform="translate(-8.112 -1.285) rotate(18)"/><path class="a" d="M0,26.25V0H13.125" transform="translate(8.112 -1.285) rotate(162)"/></g><g transform="matrix(-0.809, 0.588, -0.588, -0.809, 0, 0)"><path class="a" d="M0-26.25V0H13.125" transform="translate(-8.112 -1.285) rotate(18)"/><path class="a" d="M0,26.25V0H13.125" transform="translate(8.112 -1.285) rotate(162)"/></g><g transform="matrix(-0.809, -0.588, 0.588, -0.809, 0, 0)"><path class="a" d="M0-26.25V0H13.125" transform="translate(-8.112 -1.285) rotate(18)"/><path class="a" d="M0,26.25V0H13.125" transform="translate(8.112 -1.285) rotate(162)"/></g></g><g transform="translate(-1554 3864)"><path class="a" d="M0-21V0H10.5" transform="translate(-6.489 -1.028) rotate(18)"/><path class="a" d="M0,21V0H10.5" transform="translate(6.489 -1.028) rotate(162)"/><g transform="rotate(72)"><path class="a" d="M0-21V0H10.5" transform="translate(-6.489 -1.028) rotate(18)"/><path class="a" d="M0,21V0H10.5" transform="translate(6.489 -1.028) rotate(162)"/></g><g transform="rotate(-72)"><path class="a" d="M0-21V0H10.5" transform="translate(-6.489 -1.028) rotate(18)"/><path class="a" d="M0,21V0H10.5" transform="translate(6.489 -1.028) rotate(162)"/></g><g transform="matrix(-0.809, 0.588, -0.588, -0.809, 0, 0)"><path class="a" d="M0-21V0H10.5" transform="translate(-6.489 -1.028) rotate(18)"/><path class="a" d="M0,21V0H10.5" transform="translate(6.489 -1.028) rotate(162)"/></g><g transform="matrix(-0.809, -0.588, 0.588, -0.809, 0, 0)"><path class="a" d="M0-21V0H10.5" transform="translate(-6.489 -1.028) rotate(18)"/><path class="a" d="M0,21V0H10.5" transform="translate(6.489 -1.028) rotate(162)"/></g></g><g transform="translate(-555 3525)"><path class="a" d="M0-15V0H7.5" transform="translate(-4.635 -0.734) rotate(18)"/><path class="a" d="M0,15V0H7.5" transform="translate(4.635 -0.734) rotate(162)"/><g transform="rotate(72)"><path class="a" d="M0-15V0H7.5" transform="translate(-4.635 -0.734) rotate(18)"/><path class="a" d="M0,15V0H7.5" transform="translate(4.635 -0.734) rotate(162)"/></g><g transform="rotate(-72)"><path class="a" d="M0-15V0H7.5" transform="translate(-4.635 -0.734) rotate(18)"/><path class="a" d="M0,15V0H7.5" transform="translate(4.635 -0.734) rotate(162)"/></g><g transform="matrix(-0.809, 0.588, -0.588, -0.809, 0, 0)"><path class="a" d="M0-15V0H7.5" transform="translate(-4.635 -0.734) rotate(18)"/><path class="a" d="M0,15V0H7.5" transform="translate(4.635 -0.734) rotate(162)"/></g><g transform="matrix(-0.809, -0.588, 0.588, -0.809, 0, 0)"><path class="a" d="M0-15V0H7.5" transform="translate(-4.635 -0.734) rotate(18)"/><path class="a" d="M0,15V0H7.5" transform="translate(4.635 -0.734) rotate(162)"/></g></g><g transform="translate(5775 12993.75)"><path class="a" d="M0-26.25V0H13.125" transform="translate(-8.112 -1.285) rotate(18)"/><path class="a" d="M0,26.25V0H13.125" transform="translate(8.112 -1.285) rotate(162)"/><g transform="rotate(72)"><path class="a" d="M0-26.25V0H13.125" transform="translate(-8.112 -1.285) rotate(18)"/><path class="a" d="M0,26.25V0H13.125" transform="translate(8.112 -1.285) rotate(162)"/></g><g transform="rotate(-72)"><path class="a" d="M0-26.25V0H13.125" transform="translate(-8.112 -1.285) rotate(18)"/><path class="a" d="M0,26.25V0H13.125" transform="translate(8.112 -1.285) rotate(162)"/></g><g transform="matrix(-0.809, 0.588, -0.588, -0.809, 0, 0)"><path class="a" d="M0-26.25V0H13.125" transform="translate(-8.112 -1.285) rotate(18)"/><path class="a" d="M0,26.25V0H13.125" transform="translate(8.112 -1.285) rotate(162)"/></g><g transform="matrix(-0.809, -0.588, 0.588, -0.809, 0, 0)"><path class="a" d="M0-26.25V0H13.125" transform="translate(-8.112 -1.285) rotate(18)"/><path class="a" d="M0,26.25V0H13.125" transform="translate(8.112 -1.285) rotate(162)"/></g></g><g transform="translate(5943 9030)"><path class="a" d="M0-21V0H10.5" transform="translate(-6.489 -1.028) rotate(18)"/><path class="a" d="M0,21V0H10.5" transform="translate(6.489 -1.028) rotate(162)"/><g transform="rotate(72)"><path class="a" d="M0-21V0H10.5" transform="translate(-6.489 -1.028) rotate(18)"/><path class="a" d="M0,21V0H10.5" transform="translate(6.489 -1.028) rotate(162)"/></g><g transform="rotate(-72)"><path class="a" d="M0-21V0H10.5" transform="translate(-6.489 -1.028) rotate(18)"/><path class="a" d="M0,21V0H10.5" transform="translate(6.489 -1.028) rotate(162)"/></g><g transform="matrix(-0.809, 0.588, -0.588, -0.809, 0, 0)"><path class="a" d="M0-21V0H10.5" transform="translate(-6.489 -1.028) rotate(18)"/><path class="a" d="M0,21V0H10.5" transform="translate(6.489 -1.028) rotate(162)"/></g><g transform="matrix(-0.809, -0.588, 0.588, -0.809, 0, 0)"><path class="a" d="M0-21V0H10.5" transform="translate(-6.489 -1.028) rotate(18)"/><path class="a" d="M0,21V0H10.5" transform="translate(6.489 -1.028) rotate(162)"/></g></g><g transform="translate(3402 8652)"><path class="a" d="M0-21V0H10.5" transform="translate(-6.489 -1.028) rotate(18)"/><path class="a" d="M0,21V0H10.5" transform="translate(6.489 -1.028) rotate(162)"/><g transform="rotate(72)"><path class="a" d="M0-21V0H10.5" transform="translate(-6.489 -1.028) rotate(18)"/><path class="a" d="M0,21V0H10.5" transform="translate(6.489 -1.028) rotate(162)"/></g><g transform="rotate(-72)"><path class="a" d="M0-21V0H10.5" transform="translate(-6.489 -1.028) rotate(18)"/><path class="a" d="M0,21V0H10.5" transform="translate(6.489 -1.028) rotate(162)"/></g><g transform="matrix(-0.809, 0.588, -0.588, -0.809, 0, 0)"><path class="a" d="M0-21V0H10.5" transform="translate(-6.489 -1.028) rotate(18)"/><path class="a" d="M0,21V0H10.5" transform="translate(6.489 -1.028) rotate(162)"/></g><g transform="matrix(-0.809, -0.588, 0.588, -0.809, 0, 0)"><path class="a" d="M0-21V0H10.5" transform="translate(-6.489 -1.028) rotate(18)"/><path class="a" d="M0,21V0H10.5" transform="translate(6.489 -1.028) rotate(162)"/></g></g><g transform="translate(-9292.5 12285)"><path class="a" d="M0-31.5V0H15.75" transform="translate(-9.734 -1.542) rotate(18)"/><path class="a" d="M0,31.5V0H15.75" transform="translate(9.734 -1.542) rotate(162)"/><g transform="rotate(72)"><path class="a" d="M0-31.5V0H15.75" transform="translate(-9.734 -1.542) rotate(18)"/><path class="a" d="M0,31.5V0H15.75" transform="translate(9.734 -1.542) rotate(162)"/></g><g transform="rotate(-72)"><path class="a" d="M0-31.5V0H15.75" transform="translate(-9.734 -1.542) rotate(18)"/><path class="a" d="M0,31.5V0H15.75" transform="translate(9.734 -1.542) rotate(162)"/></g><g transform="matrix(-0.809, 0.588, -0.588, -0.809, 0, 0)"><path class="a" d="M0-31.5V0H15.75" transform="translate(-9.734 -1.542) rotate(18)"/><path class="a" d="M0,31.5V0H15.75" transform="translate(9.734 -1.542) rotate(162)"/></g><g transform="matrix(-0.809, -0.588, 0.588, -0.809, 0, 0)"><path class="a" d="M0-31.5V0H15.75" transform="translate(-9.734 -1.542) rotate(18)"/><path class="a" d="M0,31.5V0H15.75" transform="translate(9.734 -1.542) rotate(162)"/></g></g><g transform="translate(0 6037.5)"><path class="a" d="M0-10.5V0H5.25" transform="translate(-3.245 -0.514) rotate(18)"/><path class="a" d="M0,10.5V0H5.25" transform="translate(3.245 -0.514) rotate(162)"/><g transform="rotate(72)"><path class="a" d="M0-10.5V0H5.25" transform="translate(-3.245 -0.514) rotate(18)"/><path class="a" d="M0,10.5V0H5.25" transform="translate(3.245 -0.514) rotate(162)"/></g><g transform="rotate(-72)"><path class="a" d="M0-10.5V0H5.25" transform="translate(-3.245 -0.514) rotate(18)"/><path class="a" d="M0,10.5V0H5.25" transform="translate(3.245 -0.514) rotate(162)"/></g><g transform="matrix(-0.809, 0.588, -0.588, -0.809, 0, 0)"><path class="a" d="M0-10.5V0H5.25" transform="translate(-3.245 -0.514) rotate(18)"/><path class="a" d="M0,10.5V0H5.25" transform="translate(3.245 -0.514) rotate(162)"/></g><g transform="matrix(-0.809, -0.588, 0.588, -0.809, 0, 0)"><path class="a" d="M0-10.5V0H5.25" transform="translate(-3.245 -0.514) rotate(18)"/><path class="a" d="M0,10.5V0H5.25" transform="translate(3.245 -0.514) rotate(162)"/></g></g></g></g><text class="o" transform="translate(556 239)"><tspan x="0" y="0">Envie sua foto</tspan></text><text class="p" transform="translate(556 296)"><tspan x="0" y="0">Fulano, envie uma imagem que te represente. </tspan></text><rect class="q" width="396" height="117" rx="58.5" transform="translate(762 819)"/><text class="r" transform="translate(787.5 891)"><tspan x="0" y="0">Pronto! Quero começar. </tspan></text><g class="s"><rect class="e" width="1920" height="50"/><g class="f" transform="translate(1518 10)"><rect class="z" width="92" height="31.566" rx="15.783"/><rect class="c" x="0.5" y="0.5" width="91" height="30.566" rx="15.283"/></g><text class="t" transform="translate(1543 31)"><tspan x="0" y="0">Entrar</tspan></text><g class="u"><g transform="translate(21699.588 8140.558)"><rect class="h" width="48.001" height="33.6" transform="translate(-20074.588 -8131.483)"/><path class="i" d="M-1743-1100.28l19.921,12.72,19.92-12.72-19.92-12.72Z" transform="translate(-18327.506 -7014.403)"/><ellipse class="j" cx="8.4" cy="8.4" rx="8.4" ry="8.4" transform="translate(-20058.783 -8123.083)"/><g class="v" transform="translate(-20058.783 -8123.083)"><path class="a" d="M-2205-294.6a20.4,20.4,0,0,1,20.4-20.4,20.4,20.4,0,0,1,20.4,20.4h-1.2a19.2,19.2,0,0,0-19.2-19.2,19.2,19.2,0,0,0-19.2,19.2Z" transform="translate(2188.2 319.8)"/></g></g></g><g class="f" transform="translate(1625 10.217)"><rect class="z" width="48" height="32" rx="14"/><rect class="c" x="0.5" y="0.5" width="47" height="31" rx="13.5"/></g></g><g class="w" transform="translate(473.5 100)"><circle class="x" cx="36.5" cy="36.5" r="36.5"/><path class="a" d="M863.02,182.135H832.728a.519.519,0,0,1-.367-.887l6.732-6.732a.519.519,0,0,0,0-.734l-4.641-4.641a.519.519,0,0,0-.734,0l-12.995,12.995h-.054v.054L817.26,185.6a.52.52,0,0,0,0,.735l16.457,16.457a.519.519,0,0,0,.734,0l4.641-4.641a.519.519,0,0,0,0-.734l-6.788-6.788a.519.519,0,0,1,.367-.887H863.02a.519.519,0,0,0,.519-.519v-6.564A.519.519,0,0,0,863.02,182.135Z" transform="translate(-804.108 -148.988)"/></g><rect class="y" width="509" height="379.5" transform="translate(705.5 372)"/></g></svg>