<svg xmlns="http://www.w3.org/2000/svg" xmlns:xlink="http://www.w3.org/1999/xlink" width="1920" height="1534" viewBox="0 0 1920 1534"><defs><style>.a,.aa,.ah,.n,.y{fill:#fff;}.a,.d{stroke:#a2a2a2;}.ae,.ai,.b,.d{fill:none;}.c{fill:#9a1c26;}.e{clip-path:url(#p);}.f{clip-path:url(#a);}.g{fill:#e3e3e3;}.h,.q,.w{fill:#707070;}.h{font-size:16px;}.ah,.h,.q,.w,.y{font-family:SegoeUI, Segoe UI;}.i{clip-path:url(#b);}.j,.s{fill:#009b3a;}.k{fill:#fedf00;}.l{fill:#002776;}.m{clip-path:url(#c);}.o{clip-path:url(#d);}.ad,.an,.p,.v,.z{fill:#346e93;}.ah,.q{font-size:20px;}.r{clip-path:url(#e);}.s,.t{fill-rule:evenodd;}.u{clip-path:url(#f);}.v{font-size:72px;font-family:SegoeUIBlack, Segoe UI;}.w{font-size:36px;}.x{fill:#ba2027;}.y{font-size:32px;}.aa,.ad{font-size:30px;font-family:SegoeUI-Bold, Segoe UI;font-weight:700;}.ab{clip-path:url(#g);}.ac{fill:url(#h);}.ae{stroke:#346e93;stroke-width:5px;}.af{fill:url(#k);}.ag{fill:url(#m);}.ai{stroke:#fff;}.aj{clip-path:url(#n);}.ak{fill:#b22234;}.al{fill:#3c3b6e;}.am,.an{stroke:none;}</style><clipPath id="a"><rect class="b" width="1920" height="52"/></clipPath><clipPath id="b"><rect class="a" width="48" height="32" rx="16" transform="translate(1625 10.217)"/></clipPath><clipPath id="c"><ellipse cx="8.4" cy="8.4" rx="8.4" ry="8.4"/></clipPath><clipPath id="d"><rect class="b" width="73" height="73"/></clipPath><clipPath id="e"><circle cx="4.512" cy="4.512" r="4.512" transform="translate(0)"/></clipPath><clipPath id="f"><path d="M0,.43V0H.387V.43ZM.193.141V.215H.387V.141Z"/></clipPath><clipPath id="g"><rect class="c" width="189.59" height="189.59" rx="42" transform="translate(556 410.142)"/></clipPath><pattern id="h" preserveAspectRatio="none" width="100%" height="100%" viewBox="0 0 539 912"><image width="539" height="912" xlink:href="Experimente%201%20-%204-image.png"/></pattern><pattern id="k" preserveAspectRatio="none" width="100%" height="100%" viewBox="0 0 565 911"><image width="565" height="911" xlink:href="Experimente%201%20-%204-image3.png"/></pattern><pattern id="m" preserveAspectRatio="none" width="100%" height="100%" viewBox="0 0 981 912"><image width="981" height="912" xlink:href="Experimente%201%20-%204-image4.png"/></pattern><clipPath id="n"><rect class="d" width="48" height="32" rx="14" transform="translate(13937 -52.783)"/></clipPath><clipPath id="p"><rect width="1920" height="1534"/></clipPath></defs><g id="o" class="e"><rect class="n" width="1920" height="1534"/><g class="f"><rect class="g" width="1920" height="50"/><g class="d" transform="translate(1518 10)"><rect class="am" width="92" height="31.566" rx="15.783"/><rect class="b" x="0.5" y="0.5" width="91" height="30.566" rx="15.283"/></g><text class="h" transform="translate(1543 31)"><tspan x="0" y="0">Fulano</tspan></text><g class="i"><g transform="translate(21699.588 8140.558)"><rect class="j" width="48.001" height="33.6" transform="translate(-20074.588 -8131.483)"/><path class="k" d="M-1743-1100.28l19.921,12.72,19.92-12.72-19.92-12.72Z" transform="translate(-18327.506 -7014.403)"/><ellipse class="l" cx="8.4" cy="8.4" rx="8.4" ry="8.4" transform="translate(-20058.783 -8123.083)"/><g class="m" transform="translate(-20058.783 -8123.083)"><path class="n" d="M-2205-294.6a20.4,20.4,0,0,1,20.4-20.4,20.4,20.4,0,0,1,20.4,20.4h-1.2a19.2,19.2,0,0,0-19.2-19.2,19.2,19.2,0,0,0-19.2,19.2Z" transform="translate(2188.2 319.8)"/></g></g></g><g class="d" transform="translate(1625 10.217)"><rect class="am" width="48" height="32" rx="14"/><rect class="b" x="0.5" y="0.5" width="47" height="31" rx="13.5"/></g></g><g class="o" transform="translate(473.5 100)"><circle class="p" cx="36.5" cy="36.5" r="36.5"/><path class="n" d="M863.02,182.135H832.728a.519.519,0,0,1-.367-.887l6.732-6.732a.519.519,0,0,0,0-.734l-4.641-4.641a.519.519,0,0,0-.734,0l-12.995,12.995h-.054v.054L817.26,185.6a.52.52,0,0,0,0,.735l16.457,16.457a.519.519,0,0,0,.734,0l4.641-4.641a.519.519,0,0,0,0-.734l-6.788-6.788a.519.519,0,0,1,.367-.887H863.02a.519.519,0,0,0,.519-.519v-6.564A.519.519,0,0,0,863.02,182.135Z" transform="translate(-804.108 -148.988)"/></g><g transform="translate(-3823 -6792)"><rect class="g" width="1920" height="52"/><g class="d" transform="translate(1625 10.217)"><rect class="am" width="48" height="32" rx="14"/><rect class="b" x="0.5" y="0.5" width="47" height="31" rx="13.5"/></g><g class="d" transform="translate(1498 10.217)"><rect class="am" width="116" height="31.566" rx="14"/><rect class="b" x="0.5" y="0.5" width="115" height="30.566" rx="13.5"/></g><text class="q" transform="translate(1532 34)"><tspan x="0" y="0">Entrar</tspan></text><g transform="translate(2430.588 2225.5)"><g transform="translate(1305.96 -738.273)"><rect class="j" width="24" height="18.046" transform="translate(-2100 -1470)"/><path class="k" d="M-1743-1106.168l9.809,6.832,9.809-6.832-9.809-6.832Z" transform="translate(-354.809 -354.809)"/><circle class="l" cx="4.512" cy="4.512" r="4.512" transform="translate(-2092.511 -1465.488)"/><g class="r" transform="translate(-2092.511 -1465.488)"><path class="n" d="M-2205-304.043A10.957,10.957,0,0,1-2194.043-315a10.957,10.957,0,0,1,10.957,10.957h-.645a10.312,10.312,0,0,0-10.312-10.312,10.312,10.312,0,0,0-10.312,10.312Z" transform="translate(2195.977 317.578)"/></g><g transform="translate(-2092.104 -1462.805)"><path class="s" d="M.193.43A.2.2,0,0,0,.387.215.2.2,0,0,0,.193,0,.2.2,0,0,0,0,.215.2.2,0,0,0,.193.43m0-.08A.126.126,0,0,0,.307.215.126.126,0,0,0,.193.08.126.126,0,0,0,.08.215.126.126,0,0,0,.193.35" transform="translate(0 0.106) rotate(-7)"/><g transform="translate(0.564 0.042) rotate(-4)"><path class="t" d="M0,.43H.08V.27H.252a.135.135,0,1,0,0-.27H.006ZM.08.19H.246a.055.055,0,1,0,0-.11H.08Z"/><path d="M.209.2c0-.061,0-.2-.092-.2H0C.135,0,.135.135.135.2" transform="translate(0.157 0.233)"/></g><path class="s" d="M0,.43H.2A.184.184,0,0,0,.387.246V.184A.184.184,0,0,0,.2,0H0ZM.08.35H.2A.117.117,0,0,0,.313.233V.2A.117.117,0,0,0,.2.08H.08Z" transform="translate(1.131 0.007) rotate(-1)"/><path class="j" d="M0,.43H.387V.35H.074V.239H.319V.166H.074V.08H.368V0H0Z" transform="translate(1.7 0.002) rotate(2)"/><path class="j" d="M0,.43H.074V.135L.16.43H.227L.313.135V.43H.387V0H.279L.193.295.107,0H0Z" transform="translate(2.267 0.026) rotate(5)"/><path class="j" d="M0,.387H.322V.313H.074v-.1h.2V.141h-.2V.074H.315V0H0Z" transform="translate(3.185 0.173) rotate(9.75)"/><path class="s" d="M0,.43H.08V.27H.252a.135.135,0,1,0,0-.27H.006ZM.08.19H.246a.055.055,0,1,0,0-.11H.08Z" transform="matrix(0.968, 0.25, -0.25, 0.968, 4.043, 0.299)"/><g transform="translate(4.592 0.446) rotate(17.5)"><path class="t" d="M0,.43H.08V.27H.252a.135.135,0,1,0,0-.27H.006ZM.08.19H.246a.055.055,0,1,0,0-.11H.08Z" transform="translate(0 0)"/><path d="M.209.2c0-.061,0-.2-.092-.2H0C.135,0,.135.135.135.2" transform="translate(0.157 0.233)"/></g><path class="s" d="M.193.43A.2.2,0,0,0,.387.215.2.2,0,0,0,.193,0,.2.2,0,0,0,0,.215.2.2,0,0,0,.193.43m0-.08A.126.126,0,0,0,.307.215.126.126,0,0,0,.193.08.126.126,0,0,0,.08.215.126.126,0,0,0,.193.35" transform="translate(5.133 0.621) rotate(20.5)"/><g transform="translate(5.663 0.824) rotate(23.5)"><g class="u"><path class="t" d="M.193.43A.2.2,0,0,0,.387.215.2.2,0,0,0,.193,0,.2.2,0,0,0,0,.215.2.2,0,0,0,.193.43m0-.08A.126.126,0,0,0,.307.215.126.126,0,0,0,.193.08.126.126,0,0,0,.08.215.126.126,0,0,0,.193.35" transform="translate(0 0)"/></g><rect width="0.163" height="0.061" transform="translate(0.224 0.215)"/><rect width="0.061" height="0.215" transform="translate(0.325 0.215)"/></g><g transform="translate(6.182 1.055) rotate(26.5)"><path class="t" d="M0,.43H.08V.27H.252a.135.135,0,1,0,0-.27H.006ZM.08.19H.246a.055.055,0,1,0,0-.11H.08Z" transform="translate(0 0)"/><path d="M.209.2c0-.061,0-.2-.092-.2H0C.135,0,.135.135.135.2" transform="translate(0.157 0.233)"/></g><path class="j" d="M0,.43H.387V.35H.074V.239H.319V.166H.074V.08H.368V0H0Z" transform="translate(6.688 1.313) rotate(29.5)"/><path class="j" d="M.1.295C.1.338.138.359.2.359S.29.339.29.312C.29.224,0,.279,0,.126.006-.006.157,0,.212,0S.371.025.37.13H.276C.276.084.233.068.184.068S.1.075.1.12C.1.192.387.144.387.3.387.408.276.43.193.43S0,.4,0,.295Z" transform="translate(7.18 1.597) rotate(32.5)"/><path class="j" d="M.1.295C.1.338.138.359.2.359S.29.339.29.312C.29.224,0,.279,0,.126.006-.006.157,0,.212,0S.371.025.37.13H.276C.276.084.233.068.184.068S.1.075.1.12C.1.192.387.144.387.3.387.408.276.43.193.43S0,.4,0,.295Z" transform="matrix(0.814, 0.581, -0.581, 0.814, 7.657, 1.906)"/><path class="s" d="M.193.43A.2.2,0,0,0,.387.215.2.2,0,0,0,.193,0,.2.2,0,0,0,0,.215.2.2,0,0,0,.193.43m0-.08A.126.126,0,0,0,.307.215.126.126,0,0,0,.193.08.126.126,0,0,0,.08.215.126.126,0,0,0,.193.35" transform="translate(8.117 2.24) rotate(38.5)"/></g></g><g transform="translate(-18900 -4158)"><path class="n" d="M0-31.5V0H15.75" transform="translate(-9.734 -1.542) rotate(18)"/><path class="n" d="M0,31.5V0H15.75" transform="translate(9.734 -1.542) rotate(162)"/><g transform="rotate(72)"><path class="n" d="M0-31.5V0H15.75" transform="translate(-9.734 -1.542) rotate(18)"/><path class="n" d="M0,31.5V0H15.75" transform="translate(9.734 -1.542) rotate(162)"/></g><g transform="rotate(-72)"><path class="n" d="M0-31.5V0H15.75" transform="translate(-9.734 -1.542) rotate(18)"/><path class="n" d="M0,31.5V0H15.75" transform="translate(9.734 -1.542) rotate(162)"/></g><g transform="matrix(-0.809, 0.588, -0.588, -0.809, 0, 0)"><path class="n" d="M0-31.5V0H15.75" transform="translate(-9.734 -1.542) rotate(18)"/><path class="n" d="M0,31.5V0H15.75" transform="translate(9.734 -1.542) rotate(162)"/></g><g transform="matrix(-0.809, -0.588, 0.588, -0.809, 0, 0)"><path class="n" d="M0-31.5V0H15.75" transform="translate(-9.734 -1.542) rotate(18)"/><path class="n" d="M0,31.5V0H15.75" transform="translate(9.734 -1.542) rotate(162)"/></g></g><g transform="translate(-16852.5 5575.5)"><path class="n" d="M0-31.5V0H15.75" transform="translate(-9.734 -1.542) rotate(18)"/><path class="n" d="M0,31.5V0H15.75" transform="translate(9.734 -1.542) rotate(162)"/><g transform="rotate(72)"><path class="n" d="M0-31.5V0H15.75" transform="translate(-9.734 -1.542) rotate(18)"/><path class="n" d="M0,31.5V0H15.75" transform="translate(9.734 -1.542) rotate(162)"/></g><g transform="rotate(-72)"><path class="n" d="M0-31.5V0H15.75" transform="translate(-9.734 -1.542) rotate(18)"/><path class="n" d="M0,31.5V0H15.75" transform="translate(9.734 -1.542) rotate(162)"/></g><g transform="matrix(-0.809, 0.588, -0.588, -0.809, 0, 0)"><path class="n" d="M0-31.5V0H15.75" transform="translate(-9.734 -1.542) rotate(18)"/><path class="n" d="M0,31.5V0H15.75" transform="translate(9.734 -1.542) rotate(162)"/></g><g transform="matrix(-0.809, -0.588, 0.588, -0.809, 0, 0)"><path class="n" d="M0-31.5V0H15.75" transform="translate(-9.734 -1.542) rotate(18)"/><path class="n" d="M0,31.5V0H15.75" transform="translate(9.734 -1.542) rotate(162)"/></g></g><g transform="translate(-16406.25 6378.75)"><path class="n" d="M0-26.25V0H13.125" transform="translate(-8.112 -1.285) rotate(18)"/><path class="n" d="M0,26.25V0H13.125" transform="translate(8.112 -1.285) rotate(162)"/><g transform="rotate(72)"><path class="n" d="M0-26.25V0H13.125" transform="translate(-8.112 -1.285) rotate(18)"/><path class="n" d="M0,26.25V0H13.125" transform="translate(8.112 -1.285) rotate(162)"/></g><g transform="rotate(-72)"><path class="n" d="M0-26.25V0H13.125" transform="translate(-8.112 -1.285) rotate(18)"/><path class="n" d="M0,26.25V0H13.125" transform="translate(8.112 -1.285) rotate(162)"/></g><g transform="matrix(-0.809, 0.588, -0.588, -0.809, 0, 0)"><path class="n" d="M0-26.25V0H13.125" transform="translate(-8.112 -1.285) rotate(18)"/><path class="n" d="M0,26.25V0H13.125" transform="translate(8.112 -1.285) rotate(162)"/></g><g transform="matrix(-0.809, -0.588, 0.588, -0.809, 0, 0)"><path class="n" d="M0-26.25V0H13.125" transform="translate(-8.112 -1.285) rotate(18)"/><path class="n" d="M0,26.25V0H13.125" transform="translate(8.112 -1.285) rotate(162)"/></g></g><g transform="translate(-6945 1980)"><path class="n" d="M0-15V0H7.5" transform="translate(-4.635 -0.734) rotate(18)"/><path class="n" d="M0,15V0H7.5" transform="translate(4.635 -0.734) rotate(162)"/><g transform="rotate(72)"><path class="n" d="M0-15V0H7.5" transform="translate(-4.635 -0.734) rotate(18)"/><path class="n" d="M0,15V0H7.5" transform="translate(4.635 -0.734) rotate(162)"/></g><g transform="rotate(-72)"><path class="n" d="M0-15V0H7.5" transform="translate(-4.635 -0.734) rotate(18)"/><path class="n" d="M0,15V0H7.5" transform="translate(4.635 -0.734) rotate(162)"/></g><g transform="matrix(-0.809, 0.588, -0.588, -0.809, 0, 0)"><path class="n" d="M0-15V0H7.5" transform="translate(-4.635 -0.734) rotate(18)"/><path class="n" d="M0,15V0H7.5" transform="translate(4.635 -0.734) rotate(162)"/></g><g transform="matrix(-0.809, -0.588, 0.588, -0.809, 0, 0)"><path class="n" d="M0-15V0H7.5" transform="translate(-4.635 -0.734) rotate(18)"/><path class="n" d="M0,15V0H7.5" transform="translate(4.635 -0.734) rotate(162)"/></g></g><g transform="translate(-10027.5 6562.5)"><path class="n" d="M0-26.25V0H13.125" transform="translate(-8.112 -1.285) rotate(18)"/><path class="n" d="M0,26.25V0H13.125" transform="translate(8.112 -1.285) rotate(162)"/><g transform="rotate(72)"><path class="n" d="M0-26.25V0H13.125" transform="translate(-8.112 -1.285) rotate(18)"/><path class="n" d="M0,26.25V0H13.125" transform="translate(8.112 -1.285) rotate(162)"/></g><g transform="rotate(-72)"><path class="n" d="M0-26.25V0H13.125" transform="translate(-8.112 -1.285) rotate(18)"/><path class="n" d="M0,26.25V0H13.125" transform="translate(8.112 -1.285) rotate(162)"/></g><g transform="matrix(-0.809, 0.588, -0.588, -0.809, 0, 0)"><path class="n" d="M0-26.25V0H13.125" transform="translate(-8.112 -1.285) rotate(18)"/><path class="n" d="M0,26.25V0H13.125" transform="translate(8.112 -1.285) rotate(162)"/></g><g transform="matrix(-0.809, -0.588, 0.588, -0.809, 0, 0)"><path class="n" d="M0-26.25V0H13.125" transform="translate(-8.112 -1.285) rotate(18)"/><path class="n" d="M0,26.25V0H13.125" transform="translate(8.112 -1.285) rotate(162)"/></g></g><g transform="translate(-8484 6783)"><path class="n" d="M0-21V0H10.5" transform="translate(-6.489 -1.028) rotate(18)"/><path class="n" d="M0,21V0H10.5" transform="translate(6.489 -1.028) rotate(162)"/><g transform="rotate(72)"><path class="n" d="M0-21V0H10.5" transform="translate(-6.489 -1.028) rotate(18)"/><path class="n" d="M0,21V0H10.5" transform="translate(6.489 -1.028) rotate(162)"/></g><g transform="rotate(-72)"><path class="n" d="M0-21V0H10.5" transform="translate(-6.489 -1.028) rotate(18)"/><path class="n" d="M0,21V0H10.5" transform="translate(6.489 -1.028) rotate(162)"/></g><g transform="matrix(-0.809, 0.588, -0.588, -0.809, 0, 0)"><path class="n" d="M0-21V0H10.5" transform="translate(-6.489 -1.028) rotate(18)"/><path class="n" d="M0,21V0H10.5" transform="translate(6.489 -1.028) rotate(162)"/></g><g transform="matrix(-0.809, -0.588, 0.588, -0.809, 0, 0)"><path class="n" d="M0-21V0H10.5" transform="translate(-6.489 -1.028) rotate(18)"/><path class="n" d="M0,21V0H10.5" transform="translate(6.489 -1.028) rotate(162)"/></g></g><g transform="translate(7182 -7182)"><path class="n" d="M0-31.5V0H15.75" transform="translate(-9.734 -1.542) rotate(18)"/><path class="n" d="M0,31.5V0H15.75" transform="translate(9.734 -1.542) rotate(162)"/><g transform="rotate(72)"><path class="n" d="M0-31.5V0H15.75" transform="translate(-9.734 -1.542) rotate(18)"/><path class="n" d="M0,31.5V0H15.75" transform="translate(9.734 -1.542) rotate(162)"/></g><g transform="rotate(-72)"><path class="n" d="M0-31.5V0H15.75" transform="translate(-9.734 -1.542) rotate(18)"/><path class="n" d="M0,31.5V0H15.75" transform="translate(9.734 -1.542) rotate(162)"/></g><g transform="matrix(-0.809, 0.588, -0.588, -0.809, 0, 0)"><path class="n" d="M0-31.5V0H15.75" transform="translate(-9.734 -1.542) rotate(18)"/><path class="n" d="M0,31.5V0H15.75" transform="translate(9.734 -1.542) rotate(162)"/></g><g transform="matrix(-0.809, -0.588, 0.588, -0.809, 0, 0)"><path class="n" d="M0-31.5V0H15.75" transform="translate(-9.734 -1.542) rotate(18)"/><path class="n" d="M0,31.5V0H15.75" transform="translate(9.734 -1.542) rotate(162)"/></g></g><g transform="translate(16222.5 8127)"><path class="n" d="M0-31.5V0H15.75" transform="translate(-9.734 -1.542) rotate(18)"/><path class="n" d="M0,31.5V0H15.75" transform="translate(9.734 -1.542) rotate(162)"/><g transform="rotate(72)"><path class="n" d="M0-31.5V0H15.75" transform="translate(-9.734 -1.542) rotate(18)"/><path class="n" d="M0,31.5V0H15.75" transform="translate(9.734 -1.542) rotate(162)"/></g><g transform="rotate(-72)"><path class="n" d="M0-31.5V0H15.75" transform="translate(-9.734 -1.542) rotate(18)"/><path class="n" d="M0,31.5V0H15.75" transform="translate(9.734 -1.542) rotate(162)"/></g><g transform="matrix(-0.809, 0.588, -0.588, -0.809, 0, 0)"><path class="n" d="M0-31.5V0H15.75" transform="translate(-9.734 -1.542) rotate(18)"/><path class="n" d="M0,31.5V0H15.75" transform="translate(9.734 -1.542) rotate(162)"/></g><g transform="matrix(-0.809, -0.588, 0.588, -0.809, 0, 0)"><path class="n" d="M0-31.5V0H15.75" transform="translate(-9.734 -1.542) rotate(18)"/><path class="n" d="M0,31.5V0H15.75" transform="translate(9.734 -1.542) rotate(162)"/></g></g><g transform="translate(12957 5565)"><path class="n" d="M0-21V0H10.5" transform="translate(-6.489 -1.028) rotate(18)"/><path class="n" d="M0,21V0H10.5" transform="translate(6.489 -1.028) rotate(162)"/><g transform="rotate(72)"><path class="n" d="M0-21V0H10.5" transform="translate(-6.489 -1.028) rotate(18)"/><path class="n" d="M0,21V0H10.5" transform="translate(6.489 -1.028) rotate(162)"/></g><g transform="rotate(-72)"><path class="n" d="M0-21V0H10.5" transform="translate(-6.489 -1.028) rotate(18)"/><path class="n" d="M0,21V0H10.5" transform="translate(6.489 -1.028) rotate(162)"/></g><g transform="matrix(-0.809, 0.588, -0.588, -0.809, 0, 0)"><path class="n" d="M0-21V0H10.5" transform="translate(-6.489 -1.028) rotate(18)"/><path class="n" d="M0,21V0H10.5" transform="translate(6.489 -1.028) rotate(162)"/></g><g transform="matrix(-0.809, -0.588, 0.588, -0.809, 0, 0)"><path class="n" d="M0-21V0H10.5" transform="translate(-6.489 -1.028) rotate(18)"/><path class="n" d="M0,21V0H10.5" transform="translate(6.489 -1.028) rotate(162)"/></g></g><g transform="translate(14306.25 8478.75)"><path class="n" d="M0-26.25V0H13.125" transform="translate(-8.112 -1.285) rotate(18)"/><path class="n" d="M0,26.25V0H13.125" transform="translate(8.112 -1.285) rotate(162)"/><g transform="rotate(72)"><path class="n" d="M0-26.25V0H13.125" transform="translate(-8.112 -1.285) rotate(18)"/><path class="n" d="M0,26.25V0H13.125" transform="translate(8.112 -1.285) rotate(162)"/></g><g transform="rotate(-72)"><path class="n" d="M0-26.25V0H13.125" transform="translate(-8.112 -1.285) rotate(18)"/><path class="n" d="M0,26.25V0H13.125" transform="translate(8.112 -1.285) rotate(162)"/></g><g transform="matrix(-0.809, 0.588, -0.588, -0.809, 0, 0)"><path class="n" d="M0-26.25V0H13.125" transform="translate(-8.112 -1.285) rotate(18)"/><path class="n" d="M0,26.25V0H13.125" transform="translate(8.112 -1.285) rotate(162)"/></g><g transform="matrix(-0.809, -0.588, 0.588, -0.809, 0, 0)"><path class="n" d="M0-26.25V0H13.125" transform="translate(-8.112 -1.285) rotate(18)"/><path class="n" d="M0,26.25V0H13.125" transform="translate(8.112 -1.285) rotate(162)"/></g></g><g transform="translate(9660 12521.25)"><path class="n" d="M0-26.25V0H13.125" transform="translate(-8.112 -1.285) rotate(18)"/><path class="n" d="M0,26.25V0H13.125" transform="translate(8.112 -1.285) rotate(162)"/><g transform="rotate(72)"><path class="n" d="M0-26.25V0H13.125" transform="translate(-8.112 -1.285) rotate(18)"/><path class="n" d="M0,26.25V0H13.125" transform="translate(8.112 -1.285) rotate(162)"/></g><g transform="rotate(-72)"><path class="n" d="M0-26.25V0H13.125" transform="translate(-8.112 -1.285) rotate(18)"/><path class="n" d="M0,26.25V0H13.125" transform="translate(8.112 -1.285) rotate(162)"/></g><g transform="matrix(-0.809, 0.588, -0.588, -0.809, 0, 0)"><path class="n" d="M0-26.25V0H13.125" transform="translate(-8.112 -1.285) rotate(18)"/><path class="n" d="M0,26.25V0H13.125" transform="translate(8.112 -1.285) rotate(162)"/></g><g transform="matrix(-0.809, -0.588, 0.588, -0.809, 0, 0)"><path class="n" d="M0-26.25V0H13.125" transform="translate(-8.112 -1.285) rotate(18)"/><path class="n" d="M0,26.25V0H13.125" transform="translate(8.112 -1.285) rotate(162)"/></g></g><g transform="translate(7707 11571)"><path class="n" d="M0-21V0H10.5" transform="translate(-6.489 -1.028) rotate(18)"/><path class="n" d="M0,21V0H10.5" transform="translate(6.489 -1.028) rotate(162)"/><g transform="rotate(72)"><path class="n" d="M0-21V0H10.5" transform="translate(-6.489 -1.028) rotate(18)"/><path class="n" d="M0,21V0H10.5" transform="translate(6.489 -1.028) rotate(162)"/></g><g transform="rotate(-72)"><path class="n" d="M0-21V0H10.5" transform="translate(-6.489 -1.028) rotate(18)"/><path class="n" d="M0,21V0H10.5" transform="translate(6.489 -1.028) rotate(162)"/></g><g transform="matrix(-0.809, 0.588, -0.588, -0.809, 0, 0)"><path class="n" d="M0-21V0H10.5" transform="translate(-6.489 -1.028) rotate(18)"/><path class="n" d="M0,21V0H10.5" transform="translate(6.489 -1.028) rotate(162)"/></g><g transform="matrix(-0.809, -0.588, 0.588, -0.809, 0, 0)"><path class="n" d="M0-21V0H10.5" transform="translate(-6.489 -1.028) rotate(18)"/><path class="n" d="M0,21V0H10.5" transform="translate(6.489 -1.028) rotate(162)"/></g></g><g transform="translate(9261 8799)"><path class="n" d="M0-21V0H10.5" transform="translate(-6.489 -1.028) rotate(18)"/><path class="n" d="M0,21V0H10.5" transform="translate(6.489 -1.028) rotate(162)"/><g transform="rotate(72)"><path class="n" d="M0-21V0H10.5" transform="translate(-6.489 -1.028) rotate(18)"/><path class="n" d="M0,21V0H10.5" transform="translate(6.489 -1.028) rotate(162)"/></g><g transform="rotate(-72)"><path class="n" d="M0-21V0H10.5" transform="translate(-6.489 -1.028) rotate(18)"/><path class="n" d="M0,21V0H10.5" transform="translate(6.489 -1.028) rotate(162)"/></g><g transform="matrix(-0.809, 0.588, -0.588, -0.809, 0, 0)"><path class="n" d="M0-21V0H10.5" transform="translate(-6.489 -1.028) rotate(18)"/><path class="n" d="M0,21V0H10.5" transform="translate(6.489 -1.028) rotate(162)"/></g><g transform="matrix(-0.809, -0.588, 0.588, -0.809, 0, 0)"><path class="n" d="M0-21V0H10.5" transform="translate(-6.489 -1.028) rotate(18)"/><path class="n" d="M0,21V0H10.5" transform="translate(6.489 -1.028) rotate(162)"/></g></g><g transform="translate(13125 10027.5)"><path class="n" d="M0-26.25V0H13.125" transform="translate(-8.112 -1.285) rotate(18)"/><path class="n" d="M0,26.25V0H13.125" transform="translate(8.112 -1.285) rotate(162)"/><g transform="rotate(72)"><path class="n" d="M0-26.25V0H13.125" transform="translate(-8.112 -1.285) rotate(18)"/><path class="n" d="M0,26.25V0H13.125" transform="translate(8.112 -1.285) rotate(162)"/></g><g transform="rotate(-72)"><path class="n" d="M0-26.25V0H13.125" transform="translate(-8.112 -1.285) rotate(18)"/><path class="n" d="M0,26.25V0H13.125" transform="translate(8.112 -1.285) rotate(162)"/></g><g transform="matrix(-0.809, 0.588, -0.588, -0.809, 0, 0)"><path class="n" d="M0-26.25V0H13.125" transform="translate(-8.112 -1.285) rotate(18)"/><path class="n" d="M0,26.25V0H13.125" transform="translate(8.112 -1.285) rotate(162)"/></g><g transform="matrix(-0.809, -0.588, 0.588, -0.809, 0, 0)"><path class="n" d="M0-26.25V0H13.125" transform="translate(-8.112 -1.285) rotate(18)"/><path class="n" d="M0,26.25V0H13.125" transform="translate(8.112 -1.285) rotate(162)"/></g></g><g transform="translate(7665 8505)"><path class="n" d="M0-21V0H10.5" transform="translate(-6.489 -1.028) rotate(18)"/><path class="n" d="M0,21V0H10.5" transform="translate(6.489 -1.028) rotate(162)"/><g transform="rotate(72)"><path class="n" d="M0-21V0H10.5" transform="translate(-6.489 -1.028) rotate(18)"/><path class="n" d="M0,21V0H10.5" transform="translate(6.489 -1.028) rotate(162)"/></g><g transform="rotate(-72)"><path class="n" d="M0-21V0H10.5" transform="translate(-6.489 -1.028) rotate(18)"/><path class="n" d="M0,21V0H10.5" transform="translate(6.489 -1.028) rotate(162)"/></g><g transform="matrix(-0.809, 0.588, -0.588, -0.809, 0, 0)"><path class="n" d="M0-21V0H10.5" transform="translate(-6.489 -1.028) rotate(18)"/><path class="n" d="M0,21V0H10.5" transform="translate(6.489 -1.028) rotate(162)"/></g><g transform="matrix(-0.809, -0.588, 0.588, -0.809, 0, 0)"><path class="n" d="M0-21V0H10.5" transform="translate(-6.489 -1.028) rotate(18)"/><path class="n" d="M0,21V0H10.5" transform="translate(6.489 -1.028) rotate(162)"/></g></g><g transform="translate(-7350 787.5)"><path class="n" d="M0-26.25V0H13.125" transform="translate(-8.112 -1.285) rotate(18)"/><path class="n" d="M0,26.25V0H13.125" transform="translate(8.112 -1.285) rotate(162)"/><g transform="rotate(72)"><path class="n" d="M0-26.25V0H13.125" transform="translate(-8.112 -1.285) rotate(18)"/><path class="n" d="M0,26.25V0H13.125" transform="translate(8.112 -1.285) rotate(162)"/></g><g transform="rotate(-72)"><path class="n" d="M0-26.25V0H13.125" transform="translate(-8.112 -1.285) rotate(18)"/><path class="n" d="M0,26.25V0H13.125" transform="translate(8.112 -1.285) rotate(162)"/></g><g transform="matrix(-0.809, 0.588, -0.588, -0.809, 0, 0)"><path class="n" d="M0-26.25V0H13.125" transform="translate(-8.112 -1.285) rotate(18)"/><path class="n" d="M0,26.25V0H13.125" transform="translate(8.112 -1.285) rotate(162)"/></g><g transform="matrix(-0.809, -0.588, 0.588, -0.809, 0, 0)"><path class="n" d="M0-26.25V0H13.125" transform="translate(-8.112 -1.285) rotate(18)"/><path class="n" d="M0,26.25V0H13.125" transform="translate(8.112 -1.285) rotate(162)"/></g></g><g transform="translate(4200 -777)"><path class="n" d="M0-21V0H10.5" transform="translate(-6.489 -1.028) rotate(18)"/><path class="n" d="M0,21V0H10.5" transform="translate(6.489 -1.028) rotate(162)"/><g transform="rotate(72)"><path class="n" d="M0-21V0H10.5" transform="translate(-6.489 -1.028) rotate(18)"/><path class="n" d="M0,21V0H10.5" transform="translate(6.489 -1.028) rotate(162)"/></g><g transform="rotate(-72)"><path class="n" d="M0-21V0H10.5" transform="translate(-6.489 -1.028) rotate(18)"/><path class="n" d="M0,21V0H10.5" transform="translate(6.489 -1.028) rotate(162)"/></g><g transform="matrix(-0.809, 0.588, -0.588, -0.809, 0, 0)"><path class="n" d="M0-21V0H10.5" transform="translate(-6.489 -1.028) rotate(18)"/><path class="n" d="M0,21V0H10.5" transform="translate(6.489 -1.028) rotate(162)"/></g><g transform="matrix(-0.809, -0.588, 0.588, -0.809, 0, 0)"><path class="n" d="M0-21V0H10.5" transform="translate(-6.489 -1.028) rotate(18)"/><path class="n" d="M0,21V0H10.5" transform="translate(6.489 -1.028) rotate(162)"/></g></g><g transform="translate(0 10395)"><path class="n" d="M0-31.5V0H15.75" transform="translate(-9.734 -1.542) rotate(18)"/><path class="n" d="M0,31.5V0H15.75" transform="translate(9.734 -1.542) rotate(162)"/><g transform="rotate(72)"><path class="n" d="M0-31.5V0H15.75" transform="translate(-9.734 -1.542) rotate(18)"/><path class="n" d="M0,31.5V0H15.75" transform="translate(9.734 -1.542) rotate(162)"/></g><g transform="rotate(-72)"><path class="n" d="M0-31.5V0H15.75" transform="translate(-9.734 -1.542) rotate(18)"/><path class="n" d="M0,31.5V0H15.75" transform="translate(9.734 -1.542) rotate(162)"/></g><g transform="matrix(-0.809, 0.588, -0.588, -0.809, 0, 0)"><path class="n" d="M0-31.5V0H15.75" transform="translate(-9.734 -1.542) rotate(18)"/><path class="n" d="M0,31.5V0H15.75" transform="translate(9.734 -1.542) rotate(162)"/></g><g transform="matrix(-0.809, -0.588, 0.588, -0.809, 0, 0)"><path class="n" d="M0-31.5V0H15.75" transform="translate(-9.734 -1.542) rotate(18)"/><path class="n" d="M0,31.5V0H15.75" transform="translate(9.734 -1.542) rotate(162)"/></g></g><g transform="translate(2231.25 4830)"><path class="n" d="M0-26.25V0H13.125" transform="translate(-8.112 -1.285) rotate(18)"/><path class="n" d="M0,26.25V0H13.125" transform="translate(8.112 -1.285) rotate(162)"/><g transform="rotate(72)"><path class="n" d="M0-26.25V0H13.125" transform="translate(-8.112 -1.285) rotate(18)"/><path class="n" d="M0,26.25V0H13.125" transform="translate(8.112 -1.285) rotate(162)"/></g><g transform="rotate(-72)"><path class="n" d="M0-26.25V0H13.125" transform="translate(-8.112 -1.285) rotate(18)"/><path class="n" d="M0,26.25V0H13.125" transform="translate(8.112 -1.285) rotate(162)"/></g><g transform="matrix(-0.809, 0.588, -0.588, -0.809, 0, 0)"><path class="n" d="M0-26.25V0H13.125" transform="translate(-8.112 -1.285) rotate(18)"/><path class="n" d="M0,26.25V0H13.125" transform="translate(8.112 -1.285) rotate(162)"/></g><g transform="matrix(-0.809, -0.588, 0.588, -0.809, 0, 0)"><path class="n" d="M0-26.25V0H13.125" transform="translate(-8.112 -1.285) rotate(18)"/><path class="n" d="M0,26.25V0H13.125" transform="translate(8.112 -1.285) rotate(162)"/></g></g><g transform="translate(0 3097.5)"><path class="n" d="M0-26.25V0H13.125" transform="translate(-8.112 -1.285) rotate(18)"/><path class="n" d="M0,26.25V0H13.125" transform="translate(8.112 -1.285) rotate(162)"/><g transform="rotate(72)"><path class="n" d="M0-26.25V0H13.125" transform="translate(-8.112 -1.285) rotate(18)"/><path class="n" d="M0,26.25V0H13.125" transform="translate(8.112 -1.285) rotate(162)"/></g><g transform="rotate(-72)"><path class="n" d="M0-26.25V0H13.125" transform="translate(-8.112 -1.285) rotate(18)"/><path class="n" d="M0,26.25V0H13.125" transform="translate(8.112 -1.285) rotate(162)"/></g><g transform="matrix(-0.809, 0.588, -0.588, -0.809, 0, 0)"><path class="n" d="M0-26.25V0H13.125" transform="translate(-8.112 -1.285) rotate(18)"/><path class="n" d="M0,26.25V0H13.125" transform="translate(8.112 -1.285) rotate(162)"/></g><g transform="matrix(-0.809, -0.588, 0.588, -0.809, 0, 0)"><path class="n" d="M0-26.25V0H13.125" transform="translate(-8.112 -1.285) rotate(18)"/><path class="n" d="M0,26.25V0H13.125" transform="translate(8.112 -1.285) rotate(162)"/></g></g><g transform="translate(-1554 3864)"><path class="n" d="M0-21V0H10.5" transform="translate(-6.489 -1.028) rotate(18)"/><path class="n" d="M0,21V0H10.5" transform="translate(6.489 -1.028) rotate(162)"/><g transform="rotate(72)"><path class="n" d="M0-21V0H10.5" transform="translate(-6.489 -1.028) rotate(18)"/><path class="n" d="M0,21V0H10.5" transform="translate(6.489 -1.028) rotate(162)"/></g><g transform="rotate(-72)"><path class="n" d="M0-21V0H10.5" transform="translate(-6.489 -1.028) rotate(18)"/><path class="n" d="M0,21V0H10.5" transform="translate(6.489 -1.028) rotate(162)"/></g><g transform="matrix(-0.809, 0.588, -0.588, -0.809, 0, 0)"><path class="n" d="M0-21V0H10.5" transform="translate(-6.489 -1.028) rotate(18)"/><path class="n" d="M0,21V0H10.5" transform="translate(6.489 -1.028) rotate(162)"/></g><g transform="matrix(-0.809, -0.588, 0.588, -0.809, 0, 0)"><path class="n" d="M0-21V0H10.5" transform="translate(-6.489 -1.028) rotate(18)"/><path class="n" d="M0,21V0H10.5" transform="translate(6.489 -1.028) rotate(162)"/></g></g><g transform="translate(-555 3525)"><path class="n" d="M0-15V0H7.5" transform="translate(-4.635 -0.734) rotate(18)"/><path class="n" d="M0,15V0H7.5" transform="translate(4.635 -0.734) rotate(162)"/><g transform="rotate(72)"><path class="n" d="M0-15V0H7.5" transform="translate(-4.635 -0.734) rotate(18)"/><path class="n" d="M0,15V0H7.5" transform="translate(4.635 -0.734) rotate(162)"/></g><g transform="rotate(-72)"><path class="n" d="M0-15V0H7.5" transform="translate(-4.635 -0.734) rotate(18)"/><path class="n" d="M0,15V0H7.5" transform="translate(4.635 -0.734) rotate(162)"/></g><g transform="matrix(-0.809, 0.588, -0.588, -0.809, 0, 0)"><path class="n" d="M0-15V0H7.5" transform="translate(-4.635 -0.734) rotate(18)"/><path class="n" d="M0,15V0H7.5" transform="translate(4.635 -0.734) rotate(162)"/></g><g transform="matrix(-0.809, -0.588, 0.588, -0.809, 0, 0)"><path class="n" d="M0-15V0H7.5" transform="translate(-4.635 -0.734) rotate(18)"/><path class="n" d="M0,15V0H7.5" transform="translate(4.635 -0.734) rotate(162)"/></g></g><g transform="translate(5775 12993.75)"><path class="n" d="M0-26.25V0H13.125" transform="translate(-8.112 -1.285) rotate(18)"/><path class="n" d="M0,26.25V0H13.125" transform="translate(8.112 -1.285) rotate(162)"/><g transform="rotate(72)"><path class="n" d="M0-26.25V0H13.125" transform="translate(-8.112 -1.285) rotate(18)"/><path class="n" d="M0,26.25V0H13.125" transform="translate(8.112 -1.285) rotate(162)"/></g><g transform="rotate(-72)"><path class="n" d="M0-26.25V0H13.125" transform="translate(-8.112 -1.285) rotate(18)"/><path class="n" d="M0,26.25V0H13.125" transform="translate(8.112 -1.285) rotate(162)"/></g><g transform="matrix(-0.809, 0.588, -0.588, -0.809, 0, 0)"><path class="n" d="M0-26.25V0H13.125" transform="translate(-8.112 -1.285) rotate(18)"/><path class="n" d="M0,26.25V0H13.125" transform="translate(8.112 -1.285) rotate(162)"/></g><g transform="matrix(-0.809, -0.588, 0.588, -0.809, 0, 0)"><path class="n" d="M0-26.25V0H13.125" transform="translate(-8.112 -1.285) rotate(18)"/><path class="n" d="M0,26.25V0H13.125" transform="translate(8.112 -1.285) rotate(162)"/></g></g><g transform="translate(5943 9030)"><path class="n" d="M0-21V0H10.5" transform="translate(-6.489 -1.028) rotate(18)"/><path class="n" d="M0,21V0H10.5" transform="translate(6.489 -1.028) rotate(162)"/><g transform="rotate(72)"><path class="n" d="M0-21V0H10.5" transform="translate(-6.489 -1.028) rotate(18)"/><path class="n" d="M0,21V0H10.5" transform="translate(6.489 -1.028) rotate(162)"/></g><g transform="rotate(-72)"><path class="n" d="M0-21V0H10.5" transform="translate(-6.489 -1.028) rotate(18)"/><path class="n" d="M0,21V0H10.5" transform="translate(6.489 -1.028) rotate(162)"/></g><g transform="matrix(-0.809, 0.588, -0.588, -0.809, 0, 0)"><path class="n" d="M0-21V0H10.5" transform="translate(-6.489 -1.028) rotate(18)"/><path class="n" d="M0,21V0H10.5" transform="translate(6.489 -1.028) rotate(162)"/></g><g transform="matrix(-0.809, -0.588, 0.588, -0.809, 0, 0)"><path class="n" d="M0-21V0H10.5" transform="translate(-6.489 -1.028) rotate(18)"/><path class="n" d="M0,21V0H10.5" transform="translate(6.489 -1.028) rotate(162)"/></g></g><g transform="translate(3402 8652)"><path class="n" d="M0-21V0H10.5" transform="translate(-6.489 -1.028) rotate(18)"/><path class="n" d="M0,21V0H10.5" transform="translate(6.489 -1.028) rotate(162)"/><g transform="rotate(72)"><path class="n" d="M0-21V0H10.5" transform="translate(-6.489 -1.028) rotate(18)"/><path class="n" d="M0,21V0H10.5" transform="translate(6.489 -1.028) rotate(162)"/></g><g transform="rotate(-72)"><path class="n" d="M0-21V0H10.5" transform="translate(-6.489 -1.028) rotate(18)"/><path class="n" d="M0,21V0H10.5" transform="translate(6.489 -1.028) rotate(162)"/></g><g transform="matrix(-0.809, 0.588, -0.588, -0.809, 0, 0)"><path class="n" d="M0-21V0H10.5" transform="translate(-6.489 -1.028) rotate(18)"/><path class="n" d="M0,21V0H10.5" transform="translate(6.489 -1.028) rotate(162)"/></g><g transform="matrix(-0.809, -0.588, 0.588, -0.809, 0, 0)"><path class="n" d="M0-21V0H10.5" transform="translate(-6.489 -1.028) rotate(18)"/><path class="n" d="M0,21V0H10.5" transform="translate(6.489 -1.028) rotate(162)"/></g></g><g transform="translate(-9292.5 12285)"><path class="n" d="M0-31.5V0H15.75" transform="translate(-9.734 -1.542) rotate(18)"/><path class="n" d="M0,31.5V0H15.75" transform="translate(9.734 -1.542) rotate(162)"/><g transform="rotate(72)"><path class="n" d="M0-31.5V0H15.75" transform="translate(-9.734 -1.542) rotate(18)"/><path class="n" d="M0,31.5V0H15.75" transform="translate(9.734 -1.542) rotate(162)"/></g><g transform="rotate(-72)"><path class="n" d="M0-31.5V0H15.75" transform="translate(-9.734 -1.542) rotate(18)"/><path class="n" d="M0,31.5V0H15.75" transform="translate(9.734 -1.542) rotate(162)"/></g><g transform="matrix(-0.809, 0.588, -0.588, -0.809, 0, 0)"><path class="n" d="M0-31.5V0H15.75" transform="translate(-9.734 -1.542) rotate(18)"/><path class="n" d="M0,31.5V0H15.75" transform="translate(9.734 -1.542) rotate(162)"/></g><g transform="matrix(-0.809, -0.588, 0.588, -0.809, 0, 0)"><path class="n" d="M0-31.5V0H15.75" transform="translate(-9.734 -1.542) rotate(18)"/><path class="n" d="M0,31.5V0H15.75" transform="translate(9.734 -1.542) rotate(162)"/></g></g><g transform="translate(0 6037.5)"><path class="n" d="M0-10.5V0H5.25" transform="translate(-3.245 -0.514) rotate(18)"/><path class="n" d="M0,10.5V0H5.25" transform="translate(3.245 -0.514) rotate(162)"/><g transform="rotate(72)"><path class="n" d="M0-10.5V0H5.25" transform="translate(-3.245 -0.514) rotate(18)"/><path class="n" d="M0,10.5V0H5.25" transform="translate(3.245 -0.514) rotate(162)"/></g><g transform="rotate(-72)"><path class="n" d="M0-10.5V0H5.25" transform="translate(-3.245 -0.514) rotate(18)"/><path class="n" d="M0,10.5V0H5.25" transform="translate(3.245 -0.514) rotate(162)"/></g><g transform="matrix(-0.809, 0.588, -0.588, -0.809, 0, 0)"><path class="n" d="M0-10.5V0H5.25" transform="translate(-3.245 -0.514) rotate(18)"/><path class="n" d="M0,10.5V0H5.25" transform="translate(3.245 -0.514) rotate(162)"/></g><g transform="matrix(-0.809, -0.588, 0.588, -0.809, 0, 0)"><path class="n" d="M0-10.5V0H5.25" transform="translate(-3.245 -0.514) rotate(18)"/><path class="n" d="M0,10.5V0H5.25" transform="translate(3.245 -0.514) rotate(162)"/></g></g></g></g><text class="v" transform="translate(556 239)"><tspan x="0" y="0">Our cases</tspan></text><text class="w" transform="translate(556 257)"><tspan x="0" y="39">Essa é a lista de casos que temos até o momento para </tspan><tspan x="0" y="87">você. Resolva estes e desbloqueie novos desafios. </tspan></text><rect class="x" width="396" height="117" rx="58.5" transform="translate(762 1290)"/><text class="y" transform="translate(843.5 1362)"><tspan x="0" y="0">Done! Start now. </tspan></text><g transform="translate(0 -25)"><g class="z" transform="translate(556 410.142)"><path class="am" d="M 869 187.0900573730469 L 42 187.0900573730469 C 36.66646957397461 187.0900573730469 31.49376487731934 186.0460510253906 26.62564659118652 183.9869995117188 C 21.9222354888916 181.9975891113281 17.6977653503418 179.1491088867188 14.06929397583008 175.5207672119141 C 10.44094085693359 171.8922882080078 7.592470645904541 167.6678161621094 5.603058815002441 162.9644165039063 C 3.543999910354614 158.0962982177734 2.5 152.923583984375 2.5 147.5900573730469 L 2.5 42.00005722045898 C 2.5 36.66652679443359 3.543999910354614 31.49382209777832 5.603058815002441 26.62558555603027 C 7.592470645904541 21.92229270935059 10.44094085693359 17.69770431518555 14.06929397583008 14.06935119628906 C 17.6977653503418 10.44088077545166 21.9222354888916 7.592527389526367 26.62564659118652 5.603116035461426 C 31.49376487731934 3.54405689239502 36.66646957397461 2.500056982040405 42 2.500056982040405 L 869 2.500056982040405 C 874.3335571289063 2.500056982040405 879.5062255859375 3.54405689239502 884.3743286132813 5.603116035461426 C 889.0777587890625 7.592527389526367 893.30224609375 10.44088077545166 896.9307250976563 14.06935119628906 C 900.55908203125 17.69770431518555 903.4075317382813 21.92229270935059 905.3969116210938 26.62558555603027 C 907.4559936523438 31.49382209777832 908.5 36.66652679443359 908.5 42.00005722045898 L 908.5 147.5900573730469 C 908.5 152.923583984375 907.4559936523438 158.0962982177734 905.3969116210938 162.9644165039063 C 903.4075317382813 167.6678161621094 900.55908203125 171.8922882080078 896.9307250976563 175.5207672119141 C 893.30224609375 179.1491088867188 889.0777587890625 181.9975891113281 884.3743286132813 183.9869995117188 C 879.5062255859375 186.0460510253906 874.3335571289063 187.0900573730469 869 187.0900573730469 Z"/><path class="an" d="M 42 4.99993896484375 C 37.0028076171875 4.99993896484375 32.15777587890625 5.977462768554688 27.59942626953125 7.905593872070313 C 23.194091796875 9.768875122070313 19.2366943359375 12.43734741210938 15.8370361328125 15.83700561523438 C 12.43743896484375 19.23664855957031 9.7689208984375 23.19406127929688 7.905517578125 27.59947204589844 C 5.9775390625 32.15769958496094 5 37.00276184082031 5 41.99993896484375 L 5 147.5899353027344 C 5 152.5871124267578 5.9775390625 157.4321746826172 7.905517578125 161.9905242919922 C 9.7689208984375 166.3958282470703 12.43743896484375 170.3532409667969 15.8370361328125 173.7528839111328 C 19.2366943359375 177.1525268554688 23.194091796875 179.8209991455078 27.59942626953125 181.6844177246094 C 32.15777587890625 183.6124114990234 37.0028076171875 184.5899353027344 42 184.5899353027344 L 869 184.5899353027344 C 873.9971923828125 184.5899353027344 878.8422241210938 183.6124114990234 883.4004516601563 181.6844177246094 C 887.805908203125 179.8209991455078 891.7633056640625 177.1525268554688 895.1629638671875 173.7528839111328 C 898.5625610351563 170.3532409667969 901.2310791015625 166.3958282470703 903.0943603515625 161.9905242919922 C 905.0224609375 157.4321746826172 906 152.5871124267578 906 147.5899353027344 L 906 41.99993896484375 C 906 37.00276184082031 905.0224609375 32.15782165527344 903.0943603515625 27.59947204589844 C 901.2310791015625 23.19406127929688 898.5625610351563 19.23664855957031 895.1629638671875 15.83700561523438 C 891.7633056640625 12.43734741210938 887.805908203125 9.768875122070313 883.4004516601563 7.905593872070313 C 878.8421020507813 5.977462768554688 873.9971923828125 4.99993896484375 869 4.99993896484375 L 42 4.99993896484375 M 42 -6.103515625e-05 L 869 -6.103515625e-05 C 892.1958618164063 -6.103515625e-05 911 18.80406188964844 911 41.99993896484375 L 911 147.5899353027344 C 911 170.7859344482422 892.1958618164063 189.5899353027344 869 189.5899353027344 L 42 189.5899353027344 C 18.80401611328125 189.5899353027344 0 170.7859344482422 0 147.5899353027344 L 0 41.99993896484375 C 0 18.80406188964844 18.80401611328125 -6.103515625e-05 42 -6.103515625e-05 Z"/></g><rect class="c" width="189.59" height="189.59" rx="42" transform="translate(556 410.142)"/><text class="aa" transform="translate(763 484)"><tspan x="0" y="32">Case 1</tspan></text><g class="ab"><rect class="ac" width="148" height="251" transform="translate(568 381.5)"/></g></g><g transform="translate(206 190)"><rect class="c" width="189.59" height="189.59" rx="42" transform="translate(556 410.142)"/><text class="ad" transform="translate(781 484)"><tspan x="0" y="32">Case 2</tspan></text><g class="ae" transform="translate(556 410.142)"><rect class="am" width="395.59" height="189.59" rx="42"/><rect class="b" x="2.5" y="2.5" width="390.59" height="184.59" rx="39.5"/></g><g class="ab"><image width="174" height="203" transform="translate(564 407)" xlink:href="Experimente%201%20-%204-image2.png"/></g></g><path class="c" d="M42,0H147.59a42,42,0,0,1,42,42V147.59a42,42,0,0,1-42,42H42c-11.528,0-.755-10.576,0-96.007C41.245,12.8,30.332,0,42,0Z" transform="translate(1277 385.142)"/><g transform="translate(206.41 405)"><rect class="c" width="189.59" height="189.59" rx="42" transform="translate(556 410.142)"/><text class="ad" transform="translate(781 484)"><tspan x="0" y="32">Case 3</tspan></text><g class="ae" transform="translate(556 410.142)"><rect class="am" width="395.59" height="189.59" rx="42"/><rect class="b" x="2.5" y="2.5" width="390.59" height="184.59" rx="39.5"/></g><g class="ab"><rect class="af" width="171" height="277" transform="translate(565 359)"/></g></g><g transform="translate(206 620)"><rect class="c" width="189.59" height="189.59" rx="42" transform="translate(556 410.142)"/><text class="ad" transform="translate(781 484)"><tspan x="0" y="32">Case 4</tspan></text><g class="ae" transform="translate(556 410.142)"><rect class="am" width="395.59" height="189.59" rx="42"/><rect class="b" x="2.5" y="2.5" width="390.59" height="184.59" rx="39.5"/></g><g class="ab"><rect class="ag" width="177" height="164" transform="translate(569 423)"/></g></g><text class="ah" transform="translate(897 454)"><tspan x="0" y="22">Man, 51 years old, present to an emergency </tspan><tspan x="0" y="49">department complaining of chest pain.</tspan></text><path class="ai" d="M0,0V112" transform="translate(874.5 420.5)"/><text class="aa" transform="translate(1334 459)"><tspan x="31.666" y="32">Go</tspan></text><g transform="translate(-12312 63)"><g class="aj"><g transform="translate(12757.771 -673.173)"><g transform="translate(1180.229 621.173)"><rect class="ak" width="59.312" height="31.217"/></g><g transform="translate(1180.229 623.623)"><path class="n" d="M1239.542,649.753h-59.312v-2.305h59.313Zm0-4.8h-59.312v-2.3h59.313Zm0-4.8h-59.312v-2.3h59.313Zm0-4.8h-59.312v-2.305h59.313Zm0-4.8h-59.312v-2.306h59.313Zm0-4.8h-59.312v-2.306h59.313Z" transform="translate(-1180.229 -623.435)"/></g><g transform="translate(1180.229 621.173)"><rect class="al" width="23.725" height="16.809"/></g><g transform="translate(1181.292 621.894)"><path class="n" d="M1182.125,621.839l.564,1.737-1.478-1.074h1.827l-1.477,1.074Z" transform="translate(-1181.211 -621.839)"/><g transform="translate(0 3.361)"><path class="n" d="M1182.125,624.943l.564,1.737-1.478-1.073h1.827l-1.477,1.073Z" transform="translate(-1181.211 -624.943)"/></g><g transform="translate(0 6.723)"><path class="n" d="M1182.125,628.047l.564,1.738-1.478-1.074h1.827l-1.477,1.074Z" transform="translate(-1181.211 -628.047)"/></g><g transform="translate(0 10.085)"><path class="n" d="M1182.125,631.152l.564,1.737-1.478-1.073h1.827l-1.477,1.073Z" transform="translate(-1181.211 -631.152)"/></g><g transform="translate(0 13.447)"><path class="n" d="M1182.125,634.256l.564,1.738-1.478-1.074h1.827l-1.477,1.074Z" transform="translate(-1181.211 -634.256)"/></g><g transform="translate(1.977 1.681)"><path class="n" d="M1183.951,623.391l.564,1.737-1.478-1.073h1.827l-1.478,1.073Z" transform="translate(-1183.037 -623.391)"/><g transform="translate(0 3.361)"><path class="n" d="M1183.951,626.495l.564,1.738-1.478-1.074h1.827l-1.478,1.074Z" transform="translate(-1183.037 -626.495)"/></g><g transform="translate(0 6.724)"><path class="n" d="M1183.951,629.6l.564,1.737-1.478-1.074h1.827l-1.478,1.074Z" transform="translate(-1183.037 -629.6)"/></g><g transform="translate(0 10.085)"><path class="n" d="M1183.951,632.7l.564,1.738-1.478-1.074h1.827l-1.478,1.074Z" transform="translate(-1183.037 -632.704)"/></g></g><g transform="translate(3.955)"><path class="n" d="M1185.776,621.839l.565,1.737-1.478-1.074h1.827l-1.478,1.074Z" transform="translate(-1184.863 -621.839)"/><g transform="translate(0 3.361)"><path class="n" d="M1185.776,624.943l.565,1.737-1.478-1.073h1.827l-1.478,1.073Z" transform="translate(-1184.863 -624.943)"/></g><g transform="translate(0 6.723)"><path class="n" d="M1185.776,628.047l.565,1.738-1.478-1.074h1.827l-1.478,1.074Z" transform="translate(-1184.863 -628.047)"/></g><g transform="translate(0 10.085)"><path class="n" d="M1185.776,631.152l.565,1.737-1.478-1.073h1.827l-1.478,1.073Z" transform="translate(-1184.863 -631.152)"/></g><g transform="translate(0 13.447)"><path class="n" d="M1185.776,634.256l.565,1.738-1.478-1.074h1.827l-1.478,1.074Z" transform="translate(-1184.863 -634.256)"/></g><g transform="translate(1.976 1.681)"><path class="n" d="M1187.6,623.391l.564,1.737-1.478-1.073h1.828l-1.478,1.073Z" transform="translate(-1186.688 -623.391)"/><g transform="translate(0 3.361)"><path class="n" d="M1187.6,626.495l.564,1.738-1.478-1.074h1.828l-1.478,1.074Z" transform="translate(-1186.688 -626.495)"/></g><g transform="translate(0 6.724)"><path class="n" d="M1187.6,629.6l.564,1.737-1.478-1.074h1.828l-1.478,1.074Z" transform="translate(-1186.688 -629.6)"/></g><g transform="translate(0 10.085)"><path class="n" d="M1187.6,632.7l.564,1.738-1.478-1.074h1.828l-1.478,1.074Z" transform="translate(-1186.688 -632.704)"/></g></g></g><g transform="translate(7.909)"><path class="n" d="M1189.428,621.839l.564,1.737-1.478-1.074h1.827l-1.478,1.074Z" transform="translate(-1188.514 -621.839)"/><g transform="translate(0 3.361)"><path class="n" d="M1189.428,624.943l.564,1.737-1.478-1.073h1.827l-1.478,1.073Z" transform="translate(-1188.514 -624.943)"/></g><g transform="translate(0 6.723)"><path class="n" d="M1189.428,628.047l.564,1.738-1.478-1.074h1.827l-1.478,1.074Z" transform="translate(-1188.514 -628.047)"/></g><g transform="translate(0 10.085)"><path class="n" d="M1189.428,631.152l.564,1.737-1.478-1.073h1.827l-1.478,1.073Z" transform="translate(-1188.514 -631.152)"/></g><g transform="translate(0 13.447)"><path class="n" d="M1189.428,634.256l.564,1.738-1.478-1.074h1.827l-1.478,1.074Z" transform="translate(-1188.514 -634.256)"/></g><g transform="translate(1.977 1.681)"><path class="n" d="M1191.253,623.391l.565,1.737-1.478-1.073h1.827l-1.478,1.073Z" transform="translate(-1190.34 -623.391)"/><g transform="translate(0 3.361)"><path class="n" d="M1191.253,626.495l.565,1.738-1.478-1.074h1.827l-1.478,1.074Z" transform="translate(-1190.34 -626.495)"/></g><g transform="translate(0 6.724)"><path class="n" d="M1191.253,629.6l.565,1.737-1.478-1.074h1.827l-1.478,1.074Z" transform="translate(-1190.34 -629.6)"/></g><g transform="translate(0 10.085)"><path class="n" d="M1191.253,632.7l.565,1.738-1.478-1.074h1.827l-1.478,1.074Z" transform="translate(-1190.34 -632.704)"/></g></g><g transform="translate(3.955)"><path class="n" d="M1193.079,621.839l.564,1.737-1.477-1.074h1.827l-1.478,1.074Z" transform="translate(-1192.166 -621.839)"/><g transform="translate(0 3.361)"><path class="n" d="M1193.079,624.943l.564,1.737-1.477-1.073h1.827l-1.478,1.073Z" transform="translate(-1192.166 -624.943)"/></g><g transform="translate(0 6.723)"><path class="n" d="M1193.079,628.047l.564,1.738-1.477-1.074h1.827l-1.478,1.074Z" transform="translate(-1192.166 -628.047)"/></g><g transform="translate(0 10.085)"><path class="n" d="M1193.079,631.152l.564,1.737-1.477-1.073h1.827l-1.478,1.073Z" transform="translate(-1192.166 -631.152)"/></g><g transform="translate(0 13.447)"><path class="n" d="M1193.079,634.256l.564,1.738-1.477-1.074h1.827l-1.478,1.074Z" transform="translate(-1192.166 -634.256)"/></g><g transform="translate(1.976 1.681)"><path class="n" d="M1194.905,623.391l.564,1.737-1.478-1.073h1.827l-1.478,1.073Z" transform="translate(-1193.991 -623.391)"/><g transform="translate(0 3.361)"><path class="n" d="M1194.905,626.495l.564,1.738-1.478-1.074h1.827l-1.478,1.074Z" transform="translate(-1193.991 -626.495)"/></g><g transform="translate(0 6.724)"><path class="n" d="M1194.905,629.6l.564,1.737-1.478-1.074h1.827l-1.478,1.074Z" transform="translate(-1193.991 -629.6)"/></g><g transform="translate(0 10.085)"><path class="n" d="M1194.905,632.7l.564,1.738-1.478-1.074h1.827l-1.478,1.074Z" transform="translate(-1193.991 -632.704)"/></g></g></g></g><g transform="translate(15.817)"><path class="n" d="M1196.73,621.839l.565,1.737-1.478-1.074h1.827l-1.478,1.074Z" transform="translate(-1195.817 -621.839)"/><g transform="translate(0 3.361)"><path class="n" d="M1196.73,624.943l.565,1.737-1.478-1.073h1.827l-1.478,1.073Z" transform="translate(-1195.817 -624.943)"/></g><g transform="translate(0 6.723)"><path class="n" d="M1196.73,628.047l.565,1.738-1.478-1.074h1.827l-1.478,1.074Z" transform="translate(-1195.817 -628.047)"/></g><g transform="translate(0 10.085)"><path class="n" d="M1196.73,631.152l.565,1.737-1.478-1.073h1.827l-1.478,1.073Z" transform="translate(-1195.817 -631.152)"/></g><g transform="translate(0 13.447)"><path class="n" d="M1196.73,634.256l.565,1.738-1.478-1.074h1.827l-1.478,1.074Z" transform="translate(-1195.817 -634.256)"/></g><g transform="translate(1.977 1.681)"><path class="n" d="M1198.556,623.391l.565,1.737-1.478-1.073h1.827l-1.478,1.073Z" transform="translate(-1197.643 -623.391)"/><g transform="translate(0 3.361)"><path class="n" d="M1198.556,626.495l.565,1.738-1.478-1.074h1.827l-1.478,1.074Z" transform="translate(-1197.643 -626.495)"/></g><g transform="translate(0 6.724)"><path class="n" d="M1198.556,629.6l.565,1.737-1.478-1.074h1.827l-1.478,1.074Z" transform="translate(-1197.643 -629.6)"/></g><g transform="translate(0 10.085)"><path class="n" d="M1198.556,632.7l.565,1.738-1.478-1.074h1.827l-1.478,1.074Z" transform="translate(-1197.643 -632.704)"/></g></g></g><g transform="translate(19.771)"><path class="n" d="M1200.382,621.839l.564,1.737-1.478-1.074h1.827l-1.477,1.074Z" transform="translate(-1199.468 -621.839)"/><g transform="translate(0 3.361)"><path class="n" d="M1200.382,624.943l.564,1.737-1.478-1.073h1.827l-1.477,1.073Z" transform="translate(-1199.468 -624.943)"/></g><g transform="translate(0 6.723)"><path class="n" d="M1200.382,628.047l.564,1.738-1.478-1.074h1.827l-1.477,1.074Z" transform="translate(-1199.468 -628.047)"/></g><g transform="translate(0 10.085)"><path class="n" d="M1200.382,631.152l.564,1.737-1.478-1.073h1.827l-1.477,1.073Z" transform="translate(-1199.468 -631.152)"/></g><g transform="translate(0 13.447)"><path class="n" d="M1200.382,634.256l.564,1.738-1.478-1.074h1.827l-1.477,1.074Z" transform="translate(-1199.468 -634.256)"/></g></g></g></g></g><g class="d" transform="translate(13937 -52.783)"><rect class="am" width="48" height="32" rx="14"/><rect class="b" x="0.5" y="0.5" width="47" height="31" rx="13.5"/></g></g></g></svg>