<svg xmlns="http://www.w3.org/2000/svg" xmlns:xlink="http://www.w3.org/1999/xlink" width="1920" height="1080" viewBox="0 0 1920 1080"><defs><style>.a,.n,.v,.x,.y{fill:#fff;}.a,.c{stroke:#a2a2a2;}.b,.c{fill:none;}.d{clip-path:url(#h);}.e{fill:#004270;}.f{clip-path:url(#a);}.g{fill:#e3e3e3;}.h,.u{fill:#707070;}.h{font-size:16px;}.ac,.h,.x,.y{font-family:SegoeUI, Segoe UI;}.i{clip-path:url(#b);}.j{fill:#009b3a;}.k{fill:#fedf00;}.l{fill:#002776;}.m{clip-path:url(#c);}.o{clip-path:url(#d);}.p{fill:#346e93;}.q{clip-path:url(#e);}.r{fill:#b22234;}.s{fill:#3c3b6e;}.t{clip-path:url(#f);}.v{font-size:30px;font-family:SegoeUI-Bold, Segoe UI;font-weight:700;}.w{fill:#ba2027;}.x{font-size:20px;}.y{font-size:18px;}.z{fill:#fee611;}.aa{fill:#d6d6d6;}.ab{fill:#0d7114;}.ac{fill:#545454;font-size:12px;}.ad{stroke:none;}</style><clipPath id="a"><rect class="b" width="1920" height="52"/></clipPath><clipPath id="b"><rect class="a" width="48" height="32" rx="16" transform="translate(1625 10.217)"/></clipPath><clipPath id="c"><ellipse cx="8.4" cy="8.4" rx="8.4" ry="8.4"/></clipPath><clipPath id="d"><rect class="b" width="73" height="73"/></clipPath><clipPath id="e"><rect class="c" width="48" height="32" rx="14" transform="translate(13937 -52.783)"/></clipPath><clipPath id="f"><rect class="b" width="36" height="32"/></clipPath><clipPath id="h"><rect width="1920" height="1080"/></clipPath></defs><g id="g" class="d"><rect class="n" width="1920" height="1080"/><rect class="e" width="1267" height="666" rx="20" transform="translate(390 276)"/><g class="f"><rect class="g" width="1920" height="50"/><g class="c" transform="translate(1518 10)"><rect class="ad" width="92" height="31.566" rx="15.783"/><rect class="b" x="0.5" y="0.5" width="91" height="30.566" rx="15.283"/></g><text class="h" transform="translate(1543 31)"><tspan x="0" y="0">Fulano</tspan></text><g class="i"><g transform="translate(21699.588 8140.558)"><rect class="j" width="48.001" height="33.6" transform="translate(-20074.588 -8131.483)"/><path class="k" d="M-1743-1100.28l19.921,12.72,19.92-12.72-19.92-12.72Z" transform="translate(-18327.506 -7014.403)"/><ellipse class="l" cx="8.4" cy="8.4" rx="8.4" ry="8.4" transform="translate(-20058.783 -8123.083)"/><g class="m" transform="translate(-20058.783 -8123.083)"><path class="n" d="M-2205-294.6a20.4,20.4,0,0,1,20.4-20.4,20.4,20.4,0,0,1,20.4,20.4h-1.2a19.2,19.2,0,0,0-19.2-19.2,19.2,19.2,0,0,0-19.2,19.2Z" transform="translate(2188.2 319.8)"/></g></g></g><g class="c" transform="translate(1625 10.217)"><rect class="ad" width="48" height="32" rx="14"/><rect class="b" x="0.5" y="0.5" width="47" height="31" rx="13.5"/></g></g><g class="o" transform="translate(473.5 100)"><circle class="p" cx="36.5" cy="36.5" r="36.5"/><path class="n" d="M863.02,182.135H832.728a.519.519,0,0,1-.367-.887l6.732-6.732a.519.519,0,0,0,0-.734l-4.641-4.641a.519.519,0,0,0-.734,0l-12.995,12.995h-.054v.054L817.26,185.6a.52.52,0,0,0,0,.735l16.457,16.457a.519.519,0,0,0,.734,0l4.641-4.641a.519.519,0,0,0,0-.734l-6.788-6.788a.519.519,0,0,1,.367-.887H863.02a.519.519,0,0,0,.519-.519v-6.564A.519.519,0,0,0,863.02,182.135Z" transform="translate(-804.108 -148.988)"/></g><g transform="translate(-12312 63)"><g class="q"><g transform="translate(12757.771 -673.173)"><g transform="translate(1180.229 621.173)"><rect class="r" width="59.312" height="31.217"/></g><g transform="translate(1180.229 623.623)"><path class="n" d="M1239.542,649.753h-59.312v-2.305h59.313Zm0-4.8h-59.312v-2.3h59.313Zm0-4.8h-59.312v-2.3h59.313Zm0-4.8h-59.312v-2.305h59.313Zm0-4.8h-59.312v-2.306h59.313Zm0-4.8h-59.312v-2.306h59.313Z" transform="translate(-1180.229 -623.435)"/></g><g transform="translate(1180.229 621.173)"><rect class="s" width="23.725" height="16.809"/></g><g transform="translate(1181.292 621.894)"><path class="n" d="M1182.125,621.839l.564,1.737-1.478-1.074h1.827l-1.477,1.074Z" transform="translate(-1181.211 -621.839)"/><g transform="translate(0 3.361)"><path class="n" d="M1182.125,624.943l.564,1.737-1.478-1.073h1.827l-1.477,1.073Z" transform="translate(-1181.211 -624.943)"/></g><g transform="translate(0 6.723)"><path class="n" d="M1182.125,628.047l.564,1.738-1.478-1.074h1.827l-1.477,1.074Z" transform="translate(-1181.211 -628.047)"/></g><g transform="translate(0 10.085)"><path class="n" d="M1182.125,631.152l.564,1.737-1.478-1.073h1.827l-1.477,1.073Z" transform="translate(-1181.211 -631.152)"/></g><g transform="translate(0 13.447)"><path class="n" d="M1182.125,634.256l.564,1.738-1.478-1.074h1.827l-1.477,1.074Z" transform="translate(-1181.211 -634.256)"/></g><g transform="translate(1.977 1.681)"><path class="n" d="M1183.951,623.391l.564,1.737-1.478-1.073h1.827l-1.478,1.073Z" transform="translate(-1183.037 -623.391)"/><g transform="translate(0 3.361)"><path class="n" d="M1183.951,626.495l.564,1.738-1.478-1.074h1.827l-1.478,1.074Z" transform="translate(-1183.037 -626.495)"/></g><g transform="translate(0 6.724)"><path class="n" d="M1183.951,629.6l.564,1.737-1.478-1.074h1.827l-1.478,1.074Z" transform="translate(-1183.037 -629.6)"/></g><g transform="translate(0 10.085)"><path class="n" d="M1183.951,632.7l.564,1.738-1.478-1.074h1.827l-1.478,1.074Z" transform="translate(-1183.037 -632.704)"/></g></g><g transform="translate(3.955)"><path class="n" d="M1185.776,621.839l.565,1.737-1.478-1.074h1.827l-1.478,1.074Z" transform="translate(-1184.863 -621.839)"/><g transform="translate(0 3.361)"><path class="n" d="M1185.776,624.943l.565,1.737-1.478-1.073h1.827l-1.478,1.073Z" transform="translate(-1184.863 -624.943)"/></g><g transform="translate(0 6.723)"><path class="n" d="M1185.776,628.047l.565,1.738-1.478-1.074h1.827l-1.478,1.074Z" transform="translate(-1184.863 -628.047)"/></g><g transform="translate(0 10.085)"><path class="n" d="M1185.776,631.152l.565,1.737-1.478-1.073h1.827l-1.478,1.073Z" transform="translate(-1184.863 -631.152)"/></g><g transform="translate(0 13.447)"><path class="n" d="M1185.776,634.256l.565,1.738-1.478-1.074h1.827l-1.478,1.074Z" transform="translate(-1184.863 -634.256)"/></g><g transform="translate(1.976 1.681)"><path class="n" d="M1187.6,623.391l.564,1.737-1.478-1.073h1.828l-1.478,1.073Z" transform="translate(-1186.688 -623.391)"/><g transform="translate(0 3.361)"><path class="n" d="M1187.6,626.495l.564,1.738-1.478-1.074h1.828l-1.478,1.074Z" transform="translate(-1186.688 -626.495)"/></g><g transform="translate(0 6.724)"><path class="n" d="M1187.6,629.6l.564,1.737-1.478-1.074h1.828l-1.478,1.074Z" transform="translate(-1186.688 -629.6)"/></g><g transform="translate(0 10.085)"><path class="n" d="M1187.6,632.7l.564,1.738-1.478-1.074h1.828l-1.478,1.074Z" transform="translate(-1186.688 -632.704)"/></g></g></g><g transform="translate(7.909)"><path class="n" d="M1189.428,621.839l.564,1.737-1.478-1.074h1.827l-1.478,1.074Z" transform="translate(-1188.514 -621.839)"/><g transform="translate(0 3.361)"><path class="n" d="M1189.428,624.943l.564,1.737-1.478-1.073h1.827l-1.478,1.073Z" transform="translate(-1188.514 -624.943)"/></g><g transform="translate(0 6.723)"><path class="n" d="M1189.428,628.047l.564,1.738-1.478-1.074h1.827l-1.478,1.074Z" transform="translate(-1188.514 -628.047)"/></g><g transform="translate(0 10.085)"><path class="n" d="M1189.428,631.152l.564,1.737-1.478-1.073h1.827l-1.478,1.073Z" transform="translate(-1188.514 -631.152)"/></g><g transform="translate(0 13.447)"><path class="n" d="M1189.428,634.256l.564,1.738-1.478-1.074h1.827l-1.478,1.074Z" transform="translate(-1188.514 -634.256)"/></g><g transform="translate(1.977 1.681)"><path class="n" d="M1191.253,623.391l.565,1.737-1.478-1.073h1.827l-1.478,1.073Z" transform="translate(-1190.34 -623.391)"/><g transform="translate(0 3.361)"><path class="n" d="M1191.253,626.495l.565,1.738-1.478-1.074h1.827l-1.478,1.074Z" transform="translate(-1190.34 -626.495)"/></g><g transform="translate(0 6.724)"><path class="n" d="M1191.253,629.6l.565,1.737-1.478-1.074h1.827l-1.478,1.074Z" transform="translate(-1190.34 -629.6)"/></g><g transform="translate(0 10.085)"><path class="n" d="M1191.253,632.7l.565,1.738-1.478-1.074h1.827l-1.478,1.074Z" transform="translate(-1190.34 -632.704)"/></g></g><g transform="translate(3.955)"><path class="n" d="M1193.079,621.839l.564,1.737-1.477-1.074h1.827l-1.478,1.074Z" transform="translate(-1192.166 -621.839)"/><g transform="translate(0 3.361)"><path class="n" d="M1193.079,624.943l.564,1.737-1.477-1.073h1.827l-1.478,1.073Z" transform="translate(-1192.166 -624.943)"/></g><g transform="translate(0 6.723)"><path class="n" d="M1193.079,628.047l.564,1.738-1.477-1.074h1.827l-1.478,1.074Z" transform="translate(-1192.166 -628.047)"/></g><g transform="translate(0 10.085)"><path class="n" d="M1193.079,631.152l.564,1.737-1.477-1.073h1.827l-1.478,1.073Z" transform="translate(-1192.166 -631.152)"/></g><g transform="translate(0 13.447)"><path class="n" d="M1193.079,634.256l.564,1.738-1.477-1.074h1.827l-1.478,1.074Z" transform="translate(-1192.166 -634.256)"/></g><g transform="translate(1.976 1.681)"><path class="n" d="M1194.905,623.391l.564,1.737-1.478-1.073h1.827l-1.478,1.073Z" transform="translate(-1193.991 -623.391)"/><g transform="translate(0 3.361)"><path class="n" d="M1194.905,626.495l.564,1.738-1.478-1.074h1.827l-1.478,1.074Z" transform="translate(-1193.991 -626.495)"/></g><g transform="translate(0 6.724)"><path class="n" d="M1194.905,629.6l.564,1.737-1.478-1.074h1.827l-1.478,1.074Z" transform="translate(-1193.991 -629.6)"/></g><g transform="translate(0 10.085)"><path class="n" d="M1194.905,632.7l.564,1.738-1.478-1.074h1.827l-1.478,1.074Z" transform="translate(-1193.991 -632.704)"/></g></g></g></g><g transform="translate(15.817)"><path class="n" d="M1196.73,621.839l.565,1.737-1.478-1.074h1.827l-1.478,1.074Z" transform="translate(-1195.817 -621.839)"/><g transform="translate(0 3.361)"><path class="n" d="M1196.73,624.943l.565,1.737-1.478-1.073h1.827l-1.478,1.073Z" transform="translate(-1195.817 -624.943)"/></g><g transform="translate(0 6.723)"><path class="n" d="M1196.73,628.047l.565,1.738-1.478-1.074h1.827l-1.478,1.074Z" transform="translate(-1195.817 -628.047)"/></g><g transform="translate(0 10.085)"><path class="n" d="M1196.73,631.152l.565,1.737-1.478-1.073h1.827l-1.478,1.073Z" transform="translate(-1195.817 -631.152)"/></g><g transform="translate(0 13.447)"><path class="n" d="M1196.73,634.256l.565,1.738-1.478-1.074h1.827l-1.478,1.074Z" transform="translate(-1195.817 -634.256)"/></g><g transform="translate(1.977 1.681)"><path class="n" d="M1198.556,623.391l.565,1.737-1.478-1.073h1.827l-1.478,1.073Z" transform="translate(-1197.643 -623.391)"/><g transform="translate(0 3.361)"><path class="n" d="M1198.556,626.495l.565,1.738-1.478-1.074h1.827l-1.478,1.074Z" transform="translate(-1197.643 -626.495)"/></g><g transform="translate(0 6.724)"><path class="n" d="M1198.556,629.6l.565,1.737-1.478-1.074h1.827l-1.478,1.074Z" transform="translate(-1197.643 -629.6)"/></g><g transform="translate(0 10.085)"><path class="n" d="M1198.556,632.7l.565,1.738-1.478-1.074h1.827l-1.478,1.074Z" transform="translate(-1197.643 -632.704)"/></g></g></g><g transform="translate(19.771)"><path class="n" d="M1200.382,621.839l.564,1.737-1.478-1.074h1.827l-1.477,1.074Z" transform="translate(-1199.468 -621.839)"/><g transform="translate(0 3.361)"><path class="n" d="M1200.382,624.943l.564,1.737-1.478-1.073h1.827l-1.477,1.073Z" transform="translate(-1199.468 -624.943)"/></g><g transform="translate(0 6.723)"><path class="n" d="M1200.382,628.047l.564,1.738-1.478-1.074h1.827l-1.477,1.074Z" transform="translate(-1199.468 -628.047)"/></g><g transform="translate(0 10.085)"><path class="n" d="M1200.382,631.152l.564,1.737-1.478-1.073h1.827l-1.477,1.073Z" transform="translate(-1199.468 -631.152)"/></g><g transform="translate(0 13.447)"><path class="n" d="M1200.382,634.256l.564,1.738-1.478-1.074h1.827l-1.477,1.074Z" transform="translate(-1199.468 -634.256)"/></g></g></g></g></g><g class="c" transform="translate(13937 -52.783)"><rect class="ad" width="48" height="32" rx="14"/><rect class="b" x="0.5" y="0.5" width="47" height="31" rx="13.5"/></g></g><g class="t" transform="translate(1452 10.217)"><g transform="translate(455.303 386.855)"><g transform="translate(-448.001 -380.006)"><path class="u" d="M73.45,120.939l-7.738,6.38a.183.183,0,0,1-.007.04.184.184,0,0,0-.007.04v6.46a.874.874,0,0,0,.861.862h5.168v-5.168h3.446v5.168h5.168a.875.875,0,0,0,.862-.862V127.4a.19.19,0,0,0-.014-.08Z" transform="translate(-62.601 -117.453)"/><path class="u" d="M21.548,55.406,18.6,52.956V47.465a.415.415,0,0,0-.431-.431H15.586a.414.414,0,0,0-.431.431V50.09l-3.284-2.746a1.67,1.67,0,0,0-2.045,0L.149,55.406A.391.391,0,0,0,0,55.695a.436.436,0,0,0,.094.316l.834,1a.459.459,0,0,0,.283.148.5.5,0,0,0,.323-.094L10.848,49.3l9.313,7.766a.415.415,0,0,0,.283.094h.04a.46.46,0,0,0,.283-.148l.834-1a.436.436,0,0,0,.094-.317A.392.392,0,0,0,21.548,55.406Z" transform="translate(0.001 -46.994)"/></g></g><g class="c"><rect class="ad" width="36" height="32" rx="14"/><rect class="b" x="0.5" y="0.5" width="35" height="31" rx="13.5"/></g></g><text class="v" transform="translate(455 360)"><tspan x="0" y="32">feedback</tspan></text><rect class="w" width="293" height="59" rx="29.5" transform="translate(456 792)"/><text class="x" transform="translate(519 830)"><tspan x="0" y="0">Study another case</tspan></text><text class="y" transform="translate(453 463)"><tspan x="0" y="19">Parabéns, você conquistou três estrelas neste desafio! </tspan><tspan x="0" y="38"></tspan><tspan x="0" y="57">Lorem ipsum dolor sit amet, consectetur adipiscing elit, sed do </tspan><tspan x="0" y="76">eiusmod tempor incididunt ut labore et dolore magna aliqua. </tspan><tspan x="0" y="95">Enim blandit volutpat maecenas volutpat blandit aliquam. Sit </tspan><tspan x="0" y="114">amet consectetur adipiscing elit ut. Id interdum velit laoreet id </tspan><tspan x="0" y="133">donec. Nam aliquam sem et tortor consequat id porta nibh. Ac </tspan><tspan x="0" y="152">feugiat sed lectus vestibulum mattis ullamcorper. Platea </tspan><tspan x="0" y="171">dictumst vestibulum rhoncus est pellentesque elit ullamcorper. </tspan><tspan x="0" y="190">Eleifend mi in nulla posuere sollicitudin aliquam ultrices </tspan><tspan x="0" y="209">sagittis. Nibh sit amet commodo nulla facilisi nullam vehicula. </tspan><tspan x="0" y="228">Quis varius quam quisque id diam vel quam. Non blandit </tspan><tspan x="0" y="247">massa enim nec. Et leo duis ut diam quam nulla porttitor </tspan><tspan x="0" y="266">massa. </tspan></text><path class="z" d="M406.671,1142.677c-.687-.487-1.343-.95-2-1.415q-4.8-3.412-9.6-6.83a.462.462,0,0,0-.646.005q-5.229,3.736-10.472,7.452l-1.146.813c.259-.792.491-1.506.726-2.219q1.812-5.5,3.626-10.99c.208-.629.213-.63-.327-1.018q-5.545-3.971-11.092-7.94l-.5-.352c.147-.012.222-.023.3-.023q7.1,0,14.191.01a.518.518,0,0,0,.6-.426c1.449-4.483,2.916-8.961,4.4-13.494a1.969,1.969,0,0,1,.138.262q1.584,4.858,3.164,9.717c.39,1.2.8,2.388,1.173,3.589a.437.437,0,0,0,.508.352q7.131-.012,14.262-.008h.308l-.944.678q-5.458,3.909-10.922,7.812a.4.4,0,0,0-.161.558q2.206,6.658,4.4,13.32A1.067,1.067,0,0,1,406.671,1142.677Z" transform="translate(77.755 -691.91)"/><path class="z" d="M406.671,1142.677c-.687-.487-1.343-.95-2-1.415q-4.8-3.412-9.6-6.83a.462.462,0,0,0-.646.005q-5.229,3.736-10.472,7.452l-1.146.813c.259-.792.491-1.506.726-2.219q1.812-5.5,3.626-10.99c.208-.629.213-.63-.327-1.018q-5.545-3.971-11.092-7.94l-.5-.352c.147-.012.222-.023.3-.023q7.1,0,14.191.01a.518.518,0,0,0,.6-.426c1.449-4.483,2.916-8.961,4.4-13.494a1.969,1.969,0,0,1,.138.262q1.584,4.858,3.164,9.717c.39,1.2.8,2.388,1.173,3.589a.437.437,0,0,0,.508.352q7.131-.012,14.262-.008h.308l-.944.678q-5.458,3.909-10.922,7.812a.4.4,0,0,0-.161.558q2.206,6.658,4.4,13.32A1.067,1.067,0,0,1,406.671,1142.677Z" transform="translate(120.755 -691.91)"/><path class="z" d="M406.671,1142.677c-.687-.487-1.343-.95-2-1.415q-4.8-3.412-9.6-6.83a.462.462,0,0,0-.646.005q-5.229,3.736-10.472,7.452l-1.146.813c.259-.792.491-1.506.726-2.219q1.812-5.5,3.626-10.99c.208-.629.213-.63-.327-1.018q-5.545-3.971-11.092-7.94l-.5-.352c.147-.012.222-.023.3-.023q7.1,0,14.191.01a.518.518,0,0,0,.6-.426c1.449-4.483,2.916-8.961,4.4-13.494a1.969,1.969,0,0,1,.138.262q1.584,4.858,3.164,9.717c.39,1.2.8,2.388,1.173,3.589a.437.437,0,0,0,.508.352q7.131-.012,14.262-.008h.308l-.944.678q-5.458,3.909-10.922,7.812a.4.4,0,0,0-.161.558q2.206,6.658,4.4,13.32A1.067,1.067,0,0,1,406.671,1142.677Z" transform="translate(163.755 -691.91)"/><rect class="aa" width="212" height="15" rx="7.5" transform="translate(396 229)"/><rect class="ab" width="212" height="15" rx="7.5" transform="translate(396 229)"/><text class="ac" transform="translate(396 223)"><tspan x="0" y="0">Challenge progress</tspan></text></g></svg>