<svg xmlns="http://www.w3.org/2000/svg" xmlns:xlink="http://www.w3.org/1999/xlink" width="1920" height="5876" viewBox="0 0 1920 5876"><defs><style>.a,.aa,.e,.f,.l,.m{fill:#fff;}.a,.t{stroke:#a2a2a2;}.ab,.b,.j,.t{fill:none;}.c{clip-path:url(#e);}.d,.n{fill:#346e93;}.e,.n{font-size:72px;font-family:SegoeUIBlack, Segoe UI;}.f,.h,.o{font-size:36px;}.f,.i,.l,.m,.o,.p,.u{font-family:SegoeUI, Segoe UI;}.g{fill:#e3e3e3;}.h{fill:#666;font-family:SegoeUI-Bold, Segoe UI;font-weight:700;}.i{font-size:24px;font-weight:400;}.j{stroke:#346e93;}.k{fill:#ba2027;}.l,.p{font-size:20px;}.m{font-size:32px;}.o,.p,.u{fill:#707070;}.q{fill:#bf2027;}.r{fill:#96cdef;}.s{clip-path:url(#a);}.u{font-size:16px;}.v{clip-path:url(#b);}.w{fill:#009b3a;}.x{fill:#fedf00;}.y{fill:#002776;}.z{clip-path:url(#c);}.ab{stroke:#707070;}.ac{stroke:none;}</style><clipPath id="a"><rect class="b" width="1920" height="52"/></clipPath><clipPath id="b"><rect class="a" width="48" height="32" rx="16" transform="translate(1625 10.217)"/></clipPath><clipPath id="c"><ellipse cx="8.4" cy="8.4" rx="8.4" ry="8.4"/></clipPath><clipPath id="e"><rect width="1920" height="5876"/></clipPath></defs><g id="d" class="c"><rect class="aa" width="1920" height="5876"/><path class="d" d="M0,0H1920V1142H0Z" transform="translate(0 1016)"/><text class="e" transform="translate(1174 1481)"><tspan x="0" y="0">+ 10 casos </tspan></text><text class="f" transform="translate(1174 1499)"><tspan x="0" y="39">com desafios disgnósticos e </tspan><tspan x="0" y="87">interpretação de exames</tspan></text><image width="619" height="746" transform="translate(350 1223)" xlink:href="Home-image.png"/><path class="g" d="M0,0H1920V484H0Z" transform="translate(0 5396)"/><text class="h" transform="translate(762 5549)"><tspan x="0" y="39">Fale com o Jacinto</tspan><tspan class="i"><tspan x="0" y="74">jacintobemelhor@gmail.com</tspan></tspan></text><text class="h" transform="translate(144 5549)"><tspan x="0" y="39">Equipe</tspan><tspan class="i"><tspan x="0" y="74">Fulano da Silva Sauro Reis</tspan><tspan x="0" y="106">Ciclano da Mendonça Reis</tspan><tspan x="0" y="138">Beltrano de Almeida Barros</tspan><tspan x="0" y="170"></tspan></tspan></text><text class="h" transform="translate(1380 5549)"><tspan x="0" y="39">Siga o Jacinto</tspan><tspan class="i"><tspan x="0" y="74">Facebook | Instagram</tspan></tspan></text><rect class="d" width="293" height="54" rx="27" transform="translate(453 823)"/><g class="j" transform="translate(247 831)"><rect class="ac" width="293" height="38" rx="19"/><rect class="b" x="0.5" y="0.5" width="292" height="37" rx="18.5"/></g><rect class="k" width="499" height="76" rx="38" transform="translate(247 527)"/><text class="l" transform="translate(492 857)"><tspan x="0" y="0">Continue de onde parou</tspan></text><text class="m" transform="translate(409 579)"><tspan x="0" y="0">Experimente</tspan></text><text class="n" transform="translate(247 366)"><tspan x="0" y="0">Jacinto Bemelhor Game</tspan></text><text class="o" transform="translate(247 423)"><tspan x="0" y="0">Aventure-se nesta incrível jornada médica.</tspan></text><text class="p" transform="translate(282 859)"><tspan x="0" y="0">Já tem cadastro?</tspan></text><image width="870" height="930" transform="translate(992 101)" xlink:href="Home-image2.png"/><path class="q" d="M0,0H1920V1079H0Z" transform="translate(0 2158)"/><text class="e" transform="translate(244 2675)"><tspan x="0" y="0">Raciocínio evoluído</tspan></text><text class="f" transform="translate(244 2693)"><tspan x="0" y="39">Exercite seu raciocínio clínico com </tspan><tspan x="0" y="87">atividades empolgantes e divertidas. </tspan></text><image width="617" height="634" transform="translate(1072 2400)" xlink:href="Home-image3.png"/><path class="r" d="M0,0H1920V1079H0Z" transform="translate(0 3237)"/><text class="e" transform="translate(1072 3773)"><tspan x="0" y="0">IA + tutores reais</tspan></text><text class="f" transform="translate(1072 3791)"><tspan x="0" y="39">Aprenda utilizando inteligência </tspan><tspan x="0" y="87">artificial e tutores reais. </tspan></text><image width="665" height="656" transform="translate(295 3444)" xlink:href="Home-image4.png"/><rect class="d" width="293" height="54" rx="27" transform="translate(453 5167)"/><g class="j" transform="translate(247 5175)"><rect class="ac" width="293" height="38" rx="19"/><rect class="b" x="0.5" y="0.5" width="292" height="37" rx="18.5"/></g><rect class="k" width="499" height="76" rx="38" transform="translate(247 4871)"/><text class="l" transform="translate(492 5201)"><tspan x="0" y="0">Continue de onde parou</tspan></text><text class="m" transform="translate(350 4923)"><tspan x="0" y="0">Quero ver esse jogo</tspan></text><text class="n" transform="translate(247 4710)"><tspan x="0" y="0">Comece agora mesmo</tspan></text><text class="o" transform="translate(247 4767)"><tspan x="0" y="0">Você vai adorar aprender com esse jogo. </tspan></text><text class="p" transform="translate(282 5203)"><tspan x="0" y="0">Já tem cadastro?</tspan></text><image width="713" height="657" transform="translate(1128 4510)" xlink:href="Home-image5.png"/><g class="s"><rect class="g" width="1920" height="50"/><g class="t" transform="translate(1518 10)"><rect class="ac" width="92" height="31.566" rx="15.783"/><rect class="b" x="0.5" y="0.5" width="91" height="30.566" rx="15.283"/></g><text class="u" transform="translate(1543 31)"><tspan x="0" y="0">Entrar</tspan></text><g class="v"><g transform="translate(21699.588 8140.558)"><rect class="w" width="48.001" height="33.6" transform="translate(-20074.588 -8131.483)"/><path class="x" d="M-1743-1100.28l19.921,12.72,19.92-12.72-19.92-12.72Z" transform="translate(-18327.506 -7014.403)"/><ellipse class="y" cx="8.4" cy="8.4" rx="8.4" ry="8.4" transform="translate(-20058.783 -8123.083)"/><g class="z" transform="translate(-20058.783 -8123.083)"><path class="aa" d="M-2205-294.6a20.4,20.4,0,0,1,20.4-20.4,20.4,20.4,0,0,1,20.4,20.4h-1.2a19.2,19.2,0,0,0-19.2-19.2,19.2,19.2,0,0,0-19.2,19.2Z" transform="translate(2188.2 319.8)"/></g></g></g><g class="t" transform="translate(1625 10.217)"><rect class="ac" width="48" height="32" rx="14"/><rect class="b" x="0.5" y="0.5" width="47" height="31" rx="13.5"/></g></g><g transform="translate(114 194)"><circle class="d" cx="7.5" cy="7.5" r="7.5" transform="translate(51 285)"/><g class="ab" transform="translate(51 385)"><circle class="ac" cx="7.5" cy="7.5" r="7.5"/><circle class="b" cx="7.5" cy="7.5" r="7"/></g><g class="ab" transform="translate(51 335)"><circle class="ac" cx="7.5" cy="7.5" r="7.5"/><circle class="b" cx="7.5" cy="7.5" r="7"/></g><g class="ab" transform="translate(51 310)"><circle class="ac" cx="7.5" cy="7.5" r="7.5"/><circle class="b" cx="7.5" cy="7.5" r="7"/></g><g class="ab" transform="translate(51 360)"><circle class="ac" cx="7.5" cy="7.5" r="7.5"/><circle class="b" cx="7.5" cy="7.5" r="7"/></g></g><g class="t" transform="translate(1389 10.217)"><rect class="ac" width="95" height="31.566" rx="14"/><rect class="b" x="0.5" y="0.5" width="94" height="30.566" rx="13.5"/></g><text class="p" transform="translate(1418 34)"><tspan x="0" y="0">App</tspan></text></g></svg>