<svg xmlns="http://www.w3.org/2000/svg" xmlns:xlink="http://www.w3.org/1999/xlink" width="1920" height="1080" viewBox="0 0 1920 1080"><defs><style>.a{clip-path:url(#b);}.b,.e,.g{fill:#fff;}.b{stroke:#707070;opacity:0.95;}.c,.f{fill:#346e93;}.c{font-size:28px;font-family:SegoeUI-Bold, Segoe UI;font-weight:700;}.d{fill:#ba2027;}.e{font-size:20px;font-family:SegoeUI, Segoe UI;}.h{stroke:none;}.i{fill:none;}</style><clipPath id="b"><rect width="1920" height="1080"/></clipPath></defs><g id="a" class="a"><g transform="translate(-87 -215)"><g class="b" transform="translate(437 293)"><rect class="h" width="1220" height="937.4" rx="12"/><rect class="i" x="0.5" y="0.5" width="1219" height="936.4" rx="11.5"/></g><text class="c" transform="translate(473 324)"><tspan x="0" y="30">EKG</tspan></text><image width="1220" height="777" transform="translate(437 381)" xlink:href="Segunda%20parte%20-%203-image.png"/><rect class="d" width="139" height="59" rx="29.5" transform="translate(464 1196.4)"/><text class="e" transform="translate(502 1234.4)"><tspan x="0" y="0">Return</tspan></text></g><path class="f" d="M718.094,273.854a25,25,0,1,0,25,25A25,25,0,0,0,718.094,273.854Zm16.512,35.335a1.861,1.861,0,0,1,0,2.624l-3.553,3.554a1.861,1.861,0,0,1-2.624,0l-10.335-10.335-10.335,10.335a1.861,1.861,0,0,1-2.624,0l-3.553-3.554a1.861,1.861,0,0,1,0-2.624l10.335-10.335-10.335-10.335a1.861,1.861,0,0,1,0-2.624l3.553-3.554a1.861,1.861,0,0,1,2.624,0l10.335,10.335,10.335-10.335a1.861,1.861,0,0,1,2.624,0l3.553,3.554a1.861,1.861,0,0,1,0,2.624l-10.335,10.335Z" transform="translate(810.906 -172.854)"/><rect class="g" width="87" height="936" transform="translate(144 78)"/></g></svg>