<svg xmlns="http://www.w3.org/2000/svg" xmlns:xlink="http://www.w3.org/1999/xlink" width="1920" height="1080" viewBox="0 0 1920 1080"><defs><style>.a,.m,.u,.v,.y{fill:#fff;}.a,.c{stroke:#a2a2a2;}.b,.c{fill:none;}.d{clip-path:url(#h);}.e{clip-path:url(#a);}.f{fill:#e3e3e3;}.g,.t{fill:#707070;}.g{font-size:16px;}.ab,.g,.w,.y{font-family:SegoeUI, Segoe UI;}.h{clip-path:url(#b);}.i{fill:#009b3a;}.j{fill:#fedf00;}.k{fill:#002776;}.l{clip-path:url(#c);}.n{clip-path:url(#d);}.o,.w{fill:#346e93;}.p{clip-path:url(#e);}.q{fill:#b22234;}.r{fill:#3c3b6e;}.s{clip-path:url(#f);}.u{font-size:30px;font-family:SegoeUI-Bold, Segoe UI;font-weight:700;}.v{stroke:#ba2027;stroke-width:2px;}.w,.y{font-size:20px;}.x{fill:#ba2027;}.z{fill:#d6d6d6;}.aa{fill:#0d7114;}.ab{fill:#545454;font-size:12px;}.ac{stroke:none;}</style><clipPath id="a"><rect class="b" width="1920" height="52"/></clipPath><clipPath id="b"><rect class="a" width="48" height="32" rx="16" transform="translate(1625 10.217)"/></clipPath><clipPath id="c"><ellipse cx="8.4" cy="8.4" rx="8.4" ry="8.4"/></clipPath><clipPath id="d"><rect class="b" width="73" height="73"/></clipPath><clipPath id="e"><rect class="c" width="48" height="32" rx="14" transform="translate(13937 -52.783)"/></clipPath><clipPath id="f"><rect class="b" width="36" height="32"/></clipPath><clipPath id="h"><rect width="1920" height="1080"/></clipPath></defs><g id="g" class="d"><rect class="m" width="1920" height="1080"/><image width="1435" height="797.923" transform="translate(305 210)" xlink:href="Experimente%201%20-%2017-image.png"/><g class="e"><rect class="f" width="1920" height="50"/><g class="c" transform="translate(1518 10)"><rect class="ac" width="92" height="31.566" rx="15.783"/><rect class="b" x="0.5" y="0.5" width="91" height="30.566" rx="15.283"/></g><text class="g" transform="translate(1543 31)"><tspan x="0" y="0">Fulano</tspan></text><g class="h"><g transform="translate(21699.588 8140.558)"><rect class="i" width="48.001" height="33.6" transform="translate(-20074.588 -8131.483)"/><path class="j" d="M-1743-1100.28l19.921,12.72,19.92-12.72-19.92-12.72Z" transform="translate(-18327.506 -7014.403)"/><ellipse class="k" cx="8.4" cy="8.4" rx="8.4" ry="8.4" transform="translate(-20058.783 -8123.083)"/><g class="l" transform="translate(-20058.783 -8123.083)"><path class="m" d="M-2205-294.6a20.4,20.4,0,0,1,20.4-20.4,20.4,20.4,0,0,1,20.4,20.4h-1.2a19.2,19.2,0,0,0-19.2-19.2,19.2,19.2,0,0,0-19.2,19.2Z" transform="translate(2188.2 319.8)"/></g></g></g><g class="c" transform="translate(1625 10.217)"><rect class="ac" width="48" height="32" rx="14"/><rect class="b" x="0.5" y="0.5" width="47" height="31" rx="13.5"/></g></g><g class="n" transform="translate(473.5 100)"><circle class="o" cx="36.5" cy="36.5" r="36.5"/><path class="m" d="M863.02,182.135H832.728a.519.519,0,0,1-.367-.887l6.732-6.732a.519.519,0,0,0,0-.734l-4.641-4.641a.519.519,0,0,0-.734,0l-12.995,12.995h-.054v.054L817.26,185.6a.52.52,0,0,0,0,.735l16.457,16.457a.519.519,0,0,0,.734,0l4.641-4.641a.519.519,0,0,0,0-.734l-6.788-6.788a.519.519,0,0,1,.367-.887H863.02a.519.519,0,0,0,.519-.519v-6.564A.519.519,0,0,0,863.02,182.135Z" transform="translate(-804.108 -148.988)"/></g><g transform="translate(-12312 63)"><g class="p"><g transform="translate(12757.771 -673.173)"><g transform="translate(1180.229 621.173)"><rect class="q" width="59.312" height="31.217"/></g><g transform="translate(1180.229 623.623)"><path class="m" d="M1239.542,649.753h-59.312v-2.305h59.313Zm0-4.8h-59.312v-2.3h59.313Zm0-4.8h-59.312v-2.3h59.313Zm0-4.8h-59.312v-2.305h59.313Zm0-4.8h-59.312v-2.306h59.313Zm0-4.8h-59.312v-2.306h59.313Z" transform="translate(-1180.229 -623.435)"/></g><g transform="translate(1180.229 621.173)"><rect class="r" width="23.725" height="16.809"/></g><g transform="translate(1181.292 621.894)"><path class="m" d="M1182.125,621.839l.564,1.737-1.478-1.074h1.827l-1.477,1.074Z" transform="translate(-1181.211 -621.839)"/><g transform="translate(0 3.361)"><path class="m" d="M1182.125,624.943l.564,1.737-1.478-1.073h1.827l-1.477,1.073Z" transform="translate(-1181.211 -624.943)"/></g><g transform="translate(0 6.723)"><path class="m" d="M1182.125,628.047l.564,1.738-1.478-1.074h1.827l-1.477,1.074Z" transform="translate(-1181.211 -628.047)"/></g><g transform="translate(0 10.085)"><path class="m" d="M1182.125,631.152l.564,1.737-1.478-1.073h1.827l-1.477,1.073Z" transform="translate(-1181.211 -631.152)"/></g><g transform="translate(0 13.447)"><path class="m" d="M1182.125,634.256l.564,1.738-1.478-1.074h1.827l-1.477,1.074Z" transform="translate(-1181.211 -634.256)"/></g><g transform="translate(1.977 1.681)"><path class="m" d="M1183.951,623.391l.564,1.737-1.478-1.073h1.827l-1.478,1.073Z" transform="translate(-1183.037 -623.391)"/><g transform="translate(0 3.361)"><path class="m" d="M1183.951,626.495l.564,1.738-1.478-1.074h1.827l-1.478,1.074Z" transform="translate(-1183.037 -626.495)"/></g><g transform="translate(0 6.724)"><path class="m" d="M1183.951,629.6l.564,1.737-1.478-1.074h1.827l-1.478,1.074Z" transform="translate(-1183.037 -629.6)"/></g><g transform="translate(0 10.085)"><path class="m" d="M1183.951,632.7l.564,1.738-1.478-1.074h1.827l-1.478,1.074Z" transform="translate(-1183.037 -632.704)"/></g></g><g transform="translate(3.955)"><path class="m" d="M1185.776,621.839l.565,1.737-1.478-1.074h1.827l-1.478,1.074Z" transform="translate(-1184.863 -621.839)"/><g transform="translate(0 3.361)"><path class="m" d="M1185.776,624.943l.565,1.737-1.478-1.073h1.827l-1.478,1.073Z" transform="translate(-1184.863 -624.943)"/></g><g transform="translate(0 6.723)"><path class="m" d="M1185.776,628.047l.565,1.738-1.478-1.074h1.827l-1.478,1.074Z" transform="translate(-1184.863 -628.047)"/></g><g transform="translate(0 10.085)"><path class="m" d="M1185.776,631.152l.565,1.737-1.478-1.073h1.827l-1.478,1.073Z" transform="translate(-1184.863 -631.152)"/></g><g transform="translate(0 13.447)"><path class="m" d="M1185.776,634.256l.565,1.738-1.478-1.074h1.827l-1.478,1.074Z" transform="translate(-1184.863 -634.256)"/></g><g transform="translate(1.976 1.681)"><path class="m" d="M1187.6,623.391l.564,1.737-1.478-1.073h1.828l-1.478,1.073Z" transform="translate(-1186.688 -623.391)"/><g transform="translate(0 3.361)"><path class="m" d="M1187.6,626.495l.564,1.738-1.478-1.074h1.828l-1.478,1.074Z" transform="translate(-1186.688 -626.495)"/></g><g transform="translate(0 6.724)"><path class="m" d="M1187.6,629.6l.564,1.737-1.478-1.074h1.828l-1.478,1.074Z" transform="translate(-1186.688 -629.6)"/></g><g transform="translate(0 10.085)"><path class="m" d="M1187.6,632.7l.564,1.738-1.478-1.074h1.828l-1.478,1.074Z" transform="translate(-1186.688 -632.704)"/></g></g></g><g transform="translate(7.909)"><path class="m" d="M1189.428,621.839l.564,1.737-1.478-1.074h1.827l-1.478,1.074Z" transform="translate(-1188.514 -621.839)"/><g transform="translate(0 3.361)"><path class="m" d="M1189.428,624.943l.564,1.737-1.478-1.073h1.827l-1.478,1.073Z" transform="translate(-1188.514 -624.943)"/></g><g transform="translate(0 6.723)"><path class="m" d="M1189.428,628.047l.564,1.738-1.478-1.074h1.827l-1.478,1.074Z" transform="translate(-1188.514 -628.047)"/></g><g transform="translate(0 10.085)"><path class="m" d="M1189.428,631.152l.564,1.737-1.478-1.073h1.827l-1.478,1.073Z" transform="translate(-1188.514 -631.152)"/></g><g transform="translate(0 13.447)"><path class="m" d="M1189.428,634.256l.564,1.738-1.478-1.074h1.827l-1.478,1.074Z" transform="translate(-1188.514 -634.256)"/></g><g transform="translate(1.977 1.681)"><path class="m" d="M1191.253,623.391l.565,1.737-1.478-1.073h1.827l-1.478,1.073Z" transform="translate(-1190.34 -623.391)"/><g transform="translate(0 3.361)"><path class="m" d="M1191.253,626.495l.565,1.738-1.478-1.074h1.827l-1.478,1.074Z" transform="translate(-1190.34 -626.495)"/></g><g transform="translate(0 6.724)"><path class="m" d="M1191.253,629.6l.565,1.737-1.478-1.074h1.827l-1.478,1.074Z" transform="translate(-1190.34 -629.6)"/></g><g transform="translate(0 10.085)"><path class="m" d="M1191.253,632.7l.565,1.738-1.478-1.074h1.827l-1.478,1.074Z" transform="translate(-1190.34 -632.704)"/></g></g><g transform="translate(3.955)"><path class="m" d="M1193.079,621.839l.564,1.737-1.477-1.074h1.827l-1.478,1.074Z" transform="translate(-1192.166 -621.839)"/><g transform="translate(0 3.361)"><path class="m" d="M1193.079,624.943l.564,1.737-1.477-1.073h1.827l-1.478,1.073Z" transform="translate(-1192.166 -624.943)"/></g><g transform="translate(0 6.723)"><path class="m" d="M1193.079,628.047l.564,1.738-1.477-1.074h1.827l-1.478,1.074Z" transform="translate(-1192.166 -628.047)"/></g><g transform="translate(0 10.085)"><path class="m" d="M1193.079,631.152l.564,1.737-1.477-1.073h1.827l-1.478,1.073Z" transform="translate(-1192.166 -631.152)"/></g><g transform="translate(0 13.447)"><path class="m" d="M1193.079,634.256l.564,1.738-1.477-1.074h1.827l-1.478,1.074Z" transform="translate(-1192.166 -634.256)"/></g><g transform="translate(1.976 1.681)"><path class="m" d="M1194.905,623.391l.564,1.737-1.478-1.073h1.827l-1.478,1.073Z" transform="translate(-1193.991 -623.391)"/><g transform="translate(0 3.361)"><path class="m" d="M1194.905,626.495l.564,1.738-1.478-1.074h1.827l-1.478,1.074Z" transform="translate(-1193.991 -626.495)"/></g><g transform="translate(0 6.724)"><path class="m" d="M1194.905,629.6l.564,1.737-1.478-1.074h1.827l-1.478,1.074Z" transform="translate(-1193.991 -629.6)"/></g><g transform="translate(0 10.085)"><path class="m" d="M1194.905,632.7l.564,1.738-1.478-1.074h1.827l-1.478,1.074Z" transform="translate(-1193.991 -632.704)"/></g></g></g></g><g transform="translate(15.817)"><path class="m" d="M1196.73,621.839l.565,1.737-1.478-1.074h1.827l-1.478,1.074Z" transform="translate(-1195.817 -621.839)"/><g transform="translate(0 3.361)"><path class="m" d="M1196.73,624.943l.565,1.737-1.478-1.073h1.827l-1.478,1.073Z" transform="translate(-1195.817 -624.943)"/></g><g transform="translate(0 6.723)"><path class="m" d="M1196.73,628.047l.565,1.738-1.478-1.074h1.827l-1.478,1.074Z" transform="translate(-1195.817 -628.047)"/></g><g transform="translate(0 10.085)"><path class="m" d="M1196.73,631.152l.565,1.737-1.478-1.073h1.827l-1.478,1.073Z" transform="translate(-1195.817 -631.152)"/></g><g transform="translate(0 13.447)"><path class="m" d="M1196.73,634.256l.565,1.738-1.478-1.074h1.827l-1.478,1.074Z" transform="translate(-1195.817 -634.256)"/></g><g transform="translate(1.977 1.681)"><path class="m" d="M1198.556,623.391l.565,1.737-1.478-1.073h1.827l-1.478,1.073Z" transform="translate(-1197.643 -623.391)"/><g transform="translate(0 3.361)"><path class="m" d="M1198.556,626.495l.565,1.738-1.478-1.074h1.827l-1.478,1.074Z" transform="translate(-1197.643 -626.495)"/></g><g transform="translate(0 6.724)"><path class="m" d="M1198.556,629.6l.565,1.737-1.478-1.074h1.827l-1.478,1.074Z" transform="translate(-1197.643 -629.6)"/></g><g transform="translate(0 10.085)"><path class="m" d="M1198.556,632.7l.565,1.738-1.478-1.074h1.827l-1.478,1.074Z" transform="translate(-1197.643 -632.704)"/></g></g></g><g transform="translate(19.771)"><path class="m" d="M1200.382,621.839l.564,1.737-1.478-1.074h1.827l-1.477,1.074Z" transform="translate(-1199.468 -621.839)"/><g transform="translate(0 3.361)"><path class="m" d="M1200.382,624.943l.564,1.737-1.478-1.073h1.827l-1.477,1.073Z" transform="translate(-1199.468 -624.943)"/></g><g transform="translate(0 6.723)"><path class="m" d="M1200.382,628.047l.564,1.738-1.478-1.074h1.827l-1.477,1.074Z" transform="translate(-1199.468 -628.047)"/></g><g transform="translate(0 10.085)"><path class="m" d="M1200.382,631.152l.564,1.737-1.478-1.073h1.827l-1.477,1.073Z" transform="translate(-1199.468 -631.152)"/></g><g transform="translate(0 13.447)"><path class="m" d="M1200.382,634.256l.564,1.738-1.478-1.074h1.827l-1.477,1.074Z" transform="translate(-1199.468 -634.256)"/></g></g></g></g></g><g class="c" transform="translate(13937 -52.783)"><rect class="ac" width="48" height="32" rx="14"/><rect class="b" x="0.5" y="0.5" width="47" height="31" rx="13.5"/></g></g><g class="s" transform="translate(1452 10.217)"><g transform="translate(455.303 386.855)"><g transform="translate(-448.001 -380.006)"><path class="t" d="M73.45,120.939l-7.738,6.38a.183.183,0,0,1-.007.04.184.184,0,0,0-.007.04v6.46a.874.874,0,0,0,.861.862h5.168v-5.168h3.446v5.168h5.168a.875.875,0,0,0,.862-.862V127.4a.19.19,0,0,0-.014-.08Z" transform="translate(-62.601 -117.453)"/><path class="t" d="M21.548,55.406,18.6,52.956V47.465a.415.415,0,0,0-.431-.431H15.586a.414.414,0,0,0-.431.431V50.09l-3.284-2.746a1.67,1.67,0,0,0-2.045,0L.149,55.406A.391.391,0,0,0,0,55.695a.436.436,0,0,0,.094.316l.834,1a.459.459,0,0,0,.283.148.5.5,0,0,0,.323-.094L10.848,49.3l9.313,7.766a.415.415,0,0,0,.283.094h.04a.46.46,0,0,0,.283-.148l.834-1a.436.436,0,0,0,.094-.317A.392.392,0,0,0,21.548,55.406Z" transform="translate(0.001 -46.994)"/></g></g><g class="c"><rect class="ac" width="36" height="32" rx="14"/><rect class="b" x="0.5" y="0.5" width="35" height="31" rx="13.5"/></g></g><text class="u" transform="translate(500 410)"><tspan x="0" y="32">coronary artery disease</tspan></text><g class="v" transform="translate(498 471)"><rect class="ac" width="605" height="89" rx="12"/><rect class="b" x="1" y="1" width="603" height="87" rx="11"/></g><text class="w" transform="translate(531 500)"><tspan x="0" y="22">Ok. We computed your hypothesis.</tspan></text><rect class="x" width="293" height="59" rx="29.5" transform="translate(501 594)"/><text class="y" transform="translate(589 632)"><tspan x="0" y="0">See feedback</tspan></text><rect class="z" width="212" height="15" rx="7.5" transform="translate(396 229)"/><rect class="aa" width="144" height="15" rx="7.5" transform="translate(396 229)"/><text class="ab" transform="translate(396 223)"><tspan x="0" y="0">Challenge progress</tspan></text></g></svg>