<svg xmlns="http://www.w3.org/2000/svg" xmlns:xlink="http://www.w3.org/1999/xlink" width="1920" height="1309" viewBox="0 0 1920 1309"><defs><style>.a,.aa,.n{fill:#fff;}.a,.d{stroke:#a2a2a2;}.ab,.ah,.b,.d{fill:none;}.c{fill:#9a1c26;}.e{clip-path:url(#u);}.f{clip-path:url(#a);}.g{fill:#e3e3e3;}.h,.q,.w{fill:#707070;font-family:SegoeUI, Segoe UI;}.h{font-size:16px;}.i{clip-path:url(#b);}.j,.s{fill:#009b3a;}.k{fill:#fedf00;}.l{fill:#002776;}.m{clip-path:url(#c);}.o{clip-path:url(#d);}.ae,.as,.p,.v,.x{fill:#346e93;}.q{font-size:20px;}.r{clip-path:url(#e);}.s,.t{fill-rule:evenodd;}.u{clip-path:url(#f);}.v{font-size:60px;font-family:SegoeUIBlack, Segoe UI;}.w{font-size:36px;}.y{clip-path:url(#i);}.z{fill:url(#j);}.aa,.ae{font-size:30px;font-family:SegoeUI-Bold, Segoe UI;font-weight:700;}.ac{clip-path:url(#k);}.ad{fill:url(#l);}.af{clip-path:url(#m);}.ag{fill:url(#n);}.ah{stroke:#346e93;}.ah,.ai{stroke-width:5px;}.ai{fill:#ebebeb;stroke:#6e6e6e;}.aj{clip-path:url(#o);}.ak{fill:url(#p);}.al{clip-path:url(#s);}.am{fill:#b22234;}.an{fill:#3c3b6e;}.ao{fill:#6e6e6e;}.ap{fill:#fee611;}.aq,.ar,.as{stroke:none;}.ar{fill:#ba2027;}</style><clipPath id="a"><rect class="b" width="1920" height="52"/></clipPath><clipPath id="b"><rect class="a" width="48" height="32" rx="16" transform="translate(1625 10.217)"/></clipPath><clipPath id="c"><ellipse cx="8.4" cy="8.4" rx="8.4" ry="8.4"/></clipPath><clipPath id="d"><rect class="b" width="73" height="73"/></clipPath><clipPath id="e"><circle cx="4.512" cy="4.512" r="4.512" transform="translate(0)"/></clipPath><clipPath id="f"><path d="M0,.43V0H.387V.43ZM.193.141V.215H.387V.141Z"/></clipPath><clipPath id="i"><rect class="c" width="189.59" height="189.59" rx="42" transform="translate(246 388)"/></clipPath><pattern id="j" preserveAspectRatio="none" width="100%" height="100%" viewBox="0 0 523 700"><image width="523" height="700" xlink:href="Experimente%201%20-%2023-image.jpg"/></pattern><clipPath id="k"><rect class="c" width="189.59" height="189.59" rx="42" transform="translate(556 410.142)"/></clipPath><pattern id="l" preserveAspectRatio="none" width="100%" height="100%" viewBox="0 0 700 523"><image width="700" height="523" xlink:href="Experimente%201%20-%2023-image3.jpg"/></pattern><clipPath id="m"><rect class="c" width="189.59" height="189.59" rx="42" transform="translate(329 1133.142)"/></clipPath><pattern id="n" width="1" height="1" viewBox="-9 0 282 210.5"><image preserveAspectRatio="none" width="282" height="210.5" xlink:href="Experimente%201%20-%2023-image4.jpg"/></pattern><clipPath id="o"><rect class="c" width="189.59" height="189.59" rx="42" transform="translate(659.41 956.142)"/></clipPath><pattern id="p" preserveAspectRatio="none" width="100%" height="100%" viewBox="0 0 700 523"><image width="700" height="523" xlink:href="Experimente%201%20-%2023-image6.jpg"/></pattern><clipPath id="s"><rect class="d" width="48" height="32" rx="14" transform="translate(13937 -52.783)"/></clipPath><clipPath id="u"><rect width="1920" height="1309"/></clipPath></defs><g id="t" class="e"><rect class="n" width="1920" height="1309"/><g class="f"><rect class="g" width="1920" height="50"/><g class="d" transform="translate(1518 10)"><rect class="aq" width="92" height="31.566" rx="15.783"/><rect class="b" x="0.5" y="0.5" width="91" height="30.566" rx="15.283"/></g><text class="h" transform="translate(1543 31)"><tspan x="0" y="0">Fulano</tspan></text><g class="i"><g transform="translate(21699.588 8140.558)"><rect class="j" width="48.001" height="33.6" transform="translate(-20074.588 -8131.483)"/><path class="k" d="M-1743-1100.28l19.921,12.72,19.92-12.72-19.92-12.72Z" transform="translate(-18327.506 -7014.403)"/><ellipse class="l" cx="8.4" cy="8.4" rx="8.4" ry="8.4" transform="translate(-20058.783 -8123.083)"/><g class="m" transform="translate(-20058.783 -8123.083)"><path class="n" d="M-2205-294.6a20.4,20.4,0,0,1,20.4-20.4,20.4,20.4,0,0,1,20.4,20.4h-1.2a19.2,19.2,0,0,0-19.2-19.2,19.2,19.2,0,0,0-19.2,19.2Z" transform="translate(2188.2 319.8)"/></g></g></g><g class="d" transform="translate(1625 10.217)"><rect class="aq" width="48" height="32" rx="14"/><rect class="b" x="0.5" y="0.5" width="47" height="31" rx="13.5"/></g></g><g class="o" transform="translate(473.5 100)"><circle class="p" cx="36.5" cy="36.5" r="36.5"/><path class="n" d="M863.02,182.135H832.728a.519.519,0,0,1-.367-.887l6.732-6.732a.519.519,0,0,0,0-.734l-4.641-4.641a.519.519,0,0,0-.734,0l-12.995,12.995h-.054v.054L817.26,185.6a.52.52,0,0,0,0,.735l16.457,16.457a.519.519,0,0,0,.734,0l4.641-4.641a.519.519,0,0,0,0-.734l-6.788-6.788a.519.519,0,0,1,.367-.887H863.02a.519.519,0,0,0,.519-.519v-6.564A.519.519,0,0,0,863.02,182.135Z" transform="translate(-804.108 -148.988)"/></g><g transform="translate(-3927 -6764)"><rect class="g" width="1920" height="52"/><g class="d" transform="translate(1625 10.217)"><rect class="aq" width="48" height="32" rx="14"/><rect class="b" x="0.5" y="0.5" width="47" height="31" rx="13.5"/></g><g class="d" transform="translate(1498 10.217)"><rect class="aq" width="116" height="31.566" rx="14"/><rect class="b" x="0.5" y="0.5" width="115" height="30.566" rx="13.5"/></g><text class="q" transform="translate(1532 34)"><tspan x="0" y="0">Entrar</tspan></text><g transform="translate(2430.588 2225.5)"><g transform="translate(1305.96 -738.273)"><rect class="j" width="24" height="18.046" transform="translate(-2100 -1470)"/><path class="k" d="M-1743-1106.168l9.809,6.832,9.809-6.832-9.809-6.832Z" transform="translate(-354.809 -354.809)"/><circle class="l" cx="4.512" cy="4.512" r="4.512" transform="translate(-2092.511 -1465.488)"/><g class="r" transform="translate(-2092.511 -1465.488)"><path class="n" d="M-2205-304.043A10.957,10.957,0,0,1-2194.043-315a10.957,10.957,0,0,1,10.957,10.957h-.645a10.312,10.312,0,0,0-10.312-10.312,10.312,10.312,0,0,0-10.312,10.312Z" transform="translate(2195.977 317.578)"/></g><g transform="translate(-2092.104 -1462.805)"><path class="s" d="M.193.43A.2.2,0,0,0,.387.215.2.2,0,0,0,.193,0,.2.2,0,0,0,0,.215.2.2,0,0,0,.193.43m0-.08A.126.126,0,0,0,.307.215.126.126,0,0,0,.193.08.126.126,0,0,0,.08.215.126.126,0,0,0,.193.35" transform="translate(0 0.106) rotate(-7)"/><g transform="translate(0.564 0.042) rotate(-4)"><path class="t" d="M0,.43H.08V.27H.252a.135.135,0,1,0,0-.27H.006ZM.08.19H.246a.055.055,0,1,0,0-.11H.08Z"/><path d="M.209.2c0-.061,0-.2-.092-.2H0C.135,0,.135.135.135.2" transform="translate(0.157 0.233)"/></g><path class="s" d="M0,.43H.2A.184.184,0,0,0,.387.246V.184A.184.184,0,0,0,.2,0H0ZM.08.35H.2A.117.117,0,0,0,.313.233V.2A.117.117,0,0,0,.2.08H.08Z" transform="translate(1.131 0.007) rotate(-1)"/><path class="j" d="M0,.43H.387V.35H.074V.239H.319V.166H.074V.08H.368V0H0Z" transform="translate(1.7 0.002) rotate(2)"/><path class="j" d="M0,.43H.074V.135L.16.43H.227L.313.135V.43H.387V0H.279L.193.295.107,0H0Z" transform="translate(2.267 0.026) rotate(5)"/><path class="j" d="M0,.387H.322V.313H.074v-.1h.2V.141h-.2V.074H.315V0H0Z" transform="translate(3.185 0.173) rotate(9.75)"/><path class="s" d="M0,.43H.08V.27H.252a.135.135,0,1,0,0-.27H.006ZM.08.19H.246a.055.055,0,1,0,0-.11H.08Z" transform="matrix(0.968, 0.25, -0.25, 0.968, 4.043, 0.299)"/><g transform="translate(4.592 0.446) rotate(17.5)"><path class="t" d="M0,.43H.08V.27H.252a.135.135,0,1,0,0-.27H.006ZM.08.19H.246a.055.055,0,1,0,0-.11H.08Z" transform="translate(0 0)"/><path d="M.209.2c0-.061,0-.2-.092-.2H0C.135,0,.135.135.135.2" transform="translate(0.157 0.233)"/></g><path class="s" d="M.193.43A.2.2,0,0,0,.387.215.2.2,0,0,0,.193,0,.2.2,0,0,0,0,.215.2.2,0,0,0,.193.43m0-.08A.126.126,0,0,0,.307.215.126.126,0,0,0,.193.08.126.126,0,0,0,.08.215.126.126,0,0,0,.193.35" transform="translate(5.133 0.621) rotate(20.5)"/><g transform="translate(5.663 0.824) rotate(23.5)"><g class="u"><path class="t" d="M.193.43A.2.2,0,0,0,.387.215.2.2,0,0,0,.193,0,.2.2,0,0,0,0,.215.2.2,0,0,0,.193.43m0-.08A.126.126,0,0,0,.307.215.126.126,0,0,0,.193.08.126.126,0,0,0,.08.215.126.126,0,0,0,.193.35" transform="translate(0 0)"/></g><rect width="0.163" height="0.061" transform="translate(0.224 0.215)"/><rect width="0.061" height="0.215" transform="translate(0.325 0.215)"/></g><g transform="translate(6.182 1.055) rotate(26.5)"><path class="t" d="M0,.43H.08V.27H.252a.135.135,0,1,0,0-.27H.006ZM.08.19H.246a.055.055,0,1,0,0-.11H.08Z" transform="translate(0 0)"/><path d="M.209.2c0-.061,0-.2-.092-.2H0C.135,0,.135.135.135.2" transform="translate(0.157 0.233)"/></g><path class="j" d="M0,.43H.387V.35H.074V.239H.319V.166H.074V.08H.368V0H0Z" transform="translate(6.688 1.313) rotate(29.5)"/><path class="j" d="M.1.295C.1.338.138.359.2.359S.29.339.29.312C.29.224,0,.279,0,.126.006-.006.157,0,.212,0S.371.025.37.13H.276C.276.084.233.068.184.068S.1.075.1.12C.1.192.387.144.387.3.387.408.276.43.193.43S0,.4,0,.295Z" transform="translate(7.18 1.597) rotate(32.5)"/><path class="j" d="M.1.295C.1.338.138.359.2.359S.29.339.29.312C.29.224,0,.279,0,.126.006-.006.157,0,.212,0S.371.025.37.13H.276C.276.084.233.068.184.068S.1.075.1.12C.1.192.387.144.387.3.387.408.276.43.193.43S0,.4,0,.295Z" transform="matrix(0.814, 0.581, -0.581, 0.814, 7.657, 1.906)"/><path class="s" d="M.193.43A.2.2,0,0,0,.387.215.2.2,0,0,0,.193,0,.2.2,0,0,0,0,.215.2.2,0,0,0,.193.43m0-.08A.126.126,0,0,0,.307.215.126.126,0,0,0,.193.08.126.126,0,0,0,.08.215.126.126,0,0,0,.193.35" transform="translate(8.117 2.24) rotate(38.5)"/></g></g><g transform="translate(-18900 -4158)"><path class="n" d="M0-31.5V0H15.75" transform="translate(-9.734 -1.542) rotate(18)"/><path class="n" d="M0,31.5V0H15.75" transform="translate(9.734 -1.542) rotate(162)"/><g transform="rotate(72)"><path class="n" d="M0-31.5V0H15.75" transform="translate(-9.734 -1.542) rotate(18)"/><path class="n" d="M0,31.5V0H15.75" transform="translate(9.734 -1.542) rotate(162)"/></g><g transform="rotate(-72)"><path class="n" d="M0-31.5V0H15.75" transform="translate(-9.734 -1.542) rotate(18)"/><path class="n" d="M0,31.5V0H15.75" transform="translate(9.734 -1.542) rotate(162)"/></g><g transform="matrix(-0.809, 0.588, -0.588, -0.809, 0, 0)"><path class="n" d="M0-31.5V0H15.75" transform="translate(-9.734 -1.542) rotate(18)"/><path class="n" d="M0,31.5V0H15.75" transform="translate(9.734 -1.542) rotate(162)"/></g><g transform="matrix(-0.809, -0.588, 0.588, -0.809, 0, 0)"><path class="n" d="M0-31.5V0H15.75" transform="translate(-9.734 -1.542) rotate(18)"/><path class="n" d="M0,31.5V0H15.75" transform="translate(9.734 -1.542) rotate(162)"/></g></g><g transform="translate(-16852.5 5575.5)"><path class="n" d="M0-31.5V0H15.75" transform="translate(-9.734 -1.542) rotate(18)"/><path class="n" d="M0,31.5V0H15.75" transform="translate(9.734 -1.542) rotate(162)"/><g transform="rotate(72)"><path class="n" d="M0-31.5V0H15.75" transform="translate(-9.734 -1.542) rotate(18)"/><path class="n" d="M0,31.5V0H15.75" transform="translate(9.734 -1.542) rotate(162)"/></g><g transform="rotate(-72)"><path class="n" d="M0-31.5V0H15.75" transform="translate(-9.734 -1.542) rotate(18)"/><path class="n" d="M0,31.5V0H15.75" transform="translate(9.734 -1.542) rotate(162)"/></g><g transform="matrix(-0.809, 0.588, -0.588, -0.809, 0, 0)"><path class="n" d="M0-31.5V0H15.75" transform="translate(-9.734 -1.542) rotate(18)"/><path class="n" d="M0,31.5V0H15.75" transform="translate(9.734 -1.542) rotate(162)"/></g><g transform="matrix(-0.809, -0.588, 0.588, -0.809, 0, 0)"><path class="n" d="M0-31.5V0H15.75" transform="translate(-9.734 -1.542) rotate(18)"/><path class="n" d="M0,31.5V0H15.75" transform="translate(9.734 -1.542) rotate(162)"/></g></g><g transform="translate(-16406.25 6378.75)"><path class="n" d="M0-26.25V0H13.125" transform="translate(-8.112 -1.285) rotate(18)"/><path class="n" d="M0,26.25V0H13.125" transform="translate(8.112 -1.285) rotate(162)"/><g transform="rotate(72)"><path class="n" d="M0-26.25V0H13.125" transform="translate(-8.112 -1.285) rotate(18)"/><path class="n" d="M0,26.25V0H13.125" transform="translate(8.112 -1.285) rotate(162)"/></g><g transform="rotate(-72)"><path class="n" d="M0-26.25V0H13.125" transform="translate(-8.112 -1.285) rotate(18)"/><path class="n" d="M0,26.25V0H13.125" transform="translate(8.112 -1.285) rotate(162)"/></g><g transform="matrix(-0.809, 0.588, -0.588, -0.809, 0, 0)"><path class="n" d="M0-26.25V0H13.125" transform="translate(-8.112 -1.285) rotate(18)"/><path class="n" d="M0,26.25V0H13.125" transform="translate(8.112 -1.285) rotate(162)"/></g><g transform="matrix(-0.809, -0.588, 0.588, -0.809, 0, 0)"><path class="n" d="M0-26.25V0H13.125" transform="translate(-8.112 -1.285) rotate(18)"/><path class="n" d="M0,26.25V0H13.125" transform="translate(8.112 -1.285) rotate(162)"/></g></g><g transform="translate(-6945 1980)"><path class="n" d="M0-15V0H7.5" transform="translate(-4.635 -0.734) rotate(18)"/><path class="n" d="M0,15V0H7.5" transform="translate(4.635 -0.734) rotate(162)"/><g transform="rotate(72)"><path class="n" d="M0-15V0H7.5" transform="translate(-4.635 -0.734) rotate(18)"/><path class="n" d="M0,15V0H7.5" transform="translate(4.635 -0.734) rotate(162)"/></g><g transform="rotate(-72)"><path class="n" d="M0-15V0H7.5" transform="translate(-4.635 -0.734) rotate(18)"/><path class="n" d="M0,15V0H7.5" transform="translate(4.635 -0.734) rotate(162)"/></g><g transform="matrix(-0.809, 0.588, -0.588, -0.809, 0, 0)"><path class="n" d="M0-15V0H7.5" transform="translate(-4.635 -0.734) rotate(18)"/><path class="n" d="M0,15V0H7.5" transform="translate(4.635 -0.734) rotate(162)"/></g><g transform="matrix(-0.809, -0.588, 0.588, -0.809, 0, 0)"><path class="n" d="M0-15V0H7.5" transform="translate(-4.635 -0.734) rotate(18)"/><path class="n" d="M0,15V0H7.5" transform="translate(4.635 -0.734) rotate(162)"/></g></g><g transform="translate(-10027.5 6562.5)"><path class="n" d="M0-26.25V0H13.125" transform="translate(-8.112 -1.285) rotate(18)"/><path class="n" d="M0,26.25V0H13.125" transform="translate(8.112 -1.285) rotate(162)"/><g transform="rotate(72)"><path class="n" d="M0-26.25V0H13.125" transform="translate(-8.112 -1.285) rotate(18)"/><path class="n" d="M0,26.25V0H13.125" transform="translate(8.112 -1.285) rotate(162)"/></g><g transform="rotate(-72)"><path class="n" d="M0-26.25V0H13.125" transform="translate(-8.112 -1.285) rotate(18)"/><path class="n" d="M0,26.25V0H13.125" transform="translate(8.112 -1.285) rotate(162)"/></g><g transform="matrix(-0.809, 0.588, -0.588, -0.809, 0, 0)"><path class="n" d="M0-26.25V0H13.125" transform="translate(-8.112 -1.285) rotate(18)"/><path class="n" d="M0,26.25V0H13.125" transform="translate(8.112 -1.285) rotate(162)"/></g><g transform="matrix(-0.809, -0.588, 0.588, -0.809, 0, 0)"><path class="n" d="M0-26.25V0H13.125" transform="translate(-8.112 -1.285) rotate(18)"/><path class="n" d="M0,26.25V0H13.125" transform="translate(8.112 -1.285) rotate(162)"/></g></g><g transform="translate(-8484 6783)"><path class="n" d="M0-21V0H10.5" transform="translate(-6.489 -1.028) rotate(18)"/><path class="n" d="M0,21V0H10.5" transform="translate(6.489 -1.028) rotate(162)"/><g transform="rotate(72)"><path class="n" d="M0-21V0H10.5" transform="translate(-6.489 -1.028) rotate(18)"/><path class="n" d="M0,21V0H10.5" transform="translate(6.489 -1.028) rotate(162)"/></g><g transform="rotate(-72)"><path class="n" d="M0-21V0H10.5" transform="translate(-6.489 -1.028) rotate(18)"/><path class="n" d="M0,21V0H10.5" transform="translate(6.489 -1.028) rotate(162)"/></g><g transform="matrix(-0.809, 0.588, -0.588, -0.809, 0, 0)"><path class="n" d="M0-21V0H10.5" transform="translate(-6.489 -1.028) rotate(18)"/><path class="n" d="M0,21V0H10.5" transform="translate(6.489 -1.028) rotate(162)"/></g><g transform="matrix(-0.809, -0.588, 0.588, -0.809, 0, 0)"><path class="n" d="M0-21V0H10.5" transform="translate(-6.489 -1.028) rotate(18)"/><path class="n" d="M0,21V0H10.5" transform="translate(6.489 -1.028) rotate(162)"/></g></g><g transform="translate(7182 -7182)"><path class="n" d="M0-31.5V0H15.75" transform="translate(-9.734 -1.542) rotate(18)"/><path class="n" d="M0,31.5V0H15.75" transform="translate(9.734 -1.542) rotate(162)"/><g transform="rotate(72)"><path class="n" d="M0-31.5V0H15.75" transform="translate(-9.734 -1.542) rotate(18)"/><path class="n" d="M0,31.5V0H15.75" transform="translate(9.734 -1.542) rotate(162)"/></g><g transform="rotate(-72)"><path class="n" d="M0-31.5V0H15.75" transform="translate(-9.734 -1.542) rotate(18)"/><path class="n" d="M0,31.5V0H15.75" transform="translate(9.734 -1.542) rotate(162)"/></g><g transform="matrix(-0.809, 0.588, -0.588, -0.809, 0, 0)"><path class="n" d="M0-31.5V0H15.75" transform="translate(-9.734 -1.542) rotate(18)"/><path class="n" d="M0,31.5V0H15.75" transform="translate(9.734 -1.542) rotate(162)"/></g><g transform="matrix(-0.809, -0.588, 0.588, -0.809, 0, 0)"><path class="n" d="M0-31.5V0H15.75" transform="translate(-9.734 -1.542) rotate(18)"/><path class="n" d="M0,31.5V0H15.75" transform="translate(9.734 -1.542) rotate(162)"/></g></g><g transform="translate(16222.5 8127)"><path class="n" d="M0-31.5V0H15.75" transform="translate(-9.734 -1.542) rotate(18)"/><path class="n" d="M0,31.5V0H15.75" transform="translate(9.734 -1.542) rotate(162)"/><g transform="rotate(72)"><path class="n" d="M0-31.5V0H15.75" transform="translate(-9.734 -1.542) rotate(18)"/><path class="n" d="M0,31.5V0H15.75" transform="translate(9.734 -1.542) rotate(162)"/></g><g transform="rotate(-72)"><path class="n" d="M0-31.5V0H15.75" transform="translate(-9.734 -1.542) rotate(18)"/><path class="n" d="M0,31.5V0H15.75" transform="translate(9.734 -1.542) rotate(162)"/></g><g transform="matrix(-0.809, 0.588, -0.588, -0.809, 0, 0)"><path class="n" d="M0-31.5V0H15.75" transform="translate(-9.734 -1.542) rotate(18)"/><path class="n" d="M0,31.5V0H15.75" transform="translate(9.734 -1.542) rotate(162)"/></g><g transform="matrix(-0.809, -0.588, 0.588, -0.809, 0, 0)"><path class="n" d="M0-31.5V0H15.75" transform="translate(-9.734 -1.542) rotate(18)"/><path class="n" d="M0,31.5V0H15.75" transform="translate(9.734 -1.542) rotate(162)"/></g></g><g transform="translate(12957 5565)"><path class="n" d="M0-21V0H10.5" transform="translate(-6.489 -1.028) rotate(18)"/><path class="n" d="M0,21V0H10.5" transform="translate(6.489 -1.028) rotate(162)"/><g transform="rotate(72)"><path class="n" d="M0-21V0H10.5" transform="translate(-6.489 -1.028) rotate(18)"/><path class="n" d="M0,21V0H10.5" transform="translate(6.489 -1.028) rotate(162)"/></g><g transform="rotate(-72)"><path class="n" d="M0-21V0H10.5" transform="translate(-6.489 -1.028) rotate(18)"/><path class="n" d="M0,21V0H10.5" transform="translate(6.489 -1.028) rotate(162)"/></g><g transform="matrix(-0.809, 0.588, -0.588, -0.809, 0, 0)"><path class="n" d="M0-21V0H10.5" transform="translate(-6.489 -1.028) rotate(18)"/><path class="n" d="M0,21V0H10.5" transform="translate(6.489 -1.028) rotate(162)"/></g><g transform="matrix(-0.809, -0.588, 0.588, -0.809, 0, 0)"><path class="n" d="M0-21V0H10.5" transform="translate(-6.489 -1.028) rotate(18)"/><path class="n" d="M0,21V0H10.5" transform="translate(6.489 -1.028) rotate(162)"/></g></g><g transform="translate(14306.25 8478.75)"><path class="n" d="M0-26.25V0H13.125" transform="translate(-8.112 -1.285) rotate(18)"/><path class="n" d="M0,26.25V0H13.125" transform="translate(8.112 -1.285) rotate(162)"/><g transform="rotate(72)"><path class="n" d="M0-26.25V0H13.125" transform="translate(-8.112 -1.285) rotate(18)"/><path class="n" d="M0,26.25V0H13.125" transform="translate(8.112 -1.285) rotate(162)"/></g><g transform="rotate(-72)"><path class="n" d="M0-26.25V0H13.125" transform="translate(-8.112 -1.285) rotate(18)"/><path class="n" d="M0,26.25V0H13.125" transform="translate(8.112 -1.285) rotate(162)"/></g><g transform="matrix(-0.809, 0.588, -0.588, -0.809, 0, 0)"><path class="n" d="M0-26.25V0H13.125" transform="translate(-8.112 -1.285) rotate(18)"/><path class="n" d="M0,26.25V0H13.125" transform="translate(8.112 -1.285) rotate(162)"/></g><g transform="matrix(-0.809, -0.588, 0.588, -0.809, 0, 0)"><path class="n" d="M0-26.25V0H13.125" transform="translate(-8.112 -1.285) rotate(18)"/><path class="n" d="M0,26.25V0H13.125" transform="translate(8.112 -1.285) rotate(162)"/></g></g><g transform="translate(9660 12521.25)"><path class="n" d="M0-26.25V0H13.125" transform="translate(-8.112 -1.285) rotate(18)"/><path class="n" d="M0,26.25V0H13.125" transform="translate(8.112 -1.285) rotate(162)"/><g transform="rotate(72)"><path class="n" d="M0-26.25V0H13.125" transform="translate(-8.112 -1.285) rotate(18)"/><path class="n" d="M0,26.25V0H13.125" transform="translate(8.112 -1.285) rotate(162)"/></g><g transform="rotate(-72)"><path class="n" d="M0-26.25V0H13.125" transform="translate(-8.112 -1.285) rotate(18)"/><path class="n" d="M0,26.25V0H13.125" transform="translate(8.112 -1.285) rotate(162)"/></g><g transform="matrix(-0.809, 0.588, -0.588, -0.809, 0, 0)"><path class="n" d="M0-26.25V0H13.125" transform="translate(-8.112 -1.285) rotate(18)"/><path class="n" d="M0,26.25V0H13.125" transform="translate(8.112 -1.285) rotate(162)"/></g><g transform="matrix(-0.809, -0.588, 0.588, -0.809, 0, 0)"><path class="n" d="M0-26.25V0H13.125" transform="translate(-8.112 -1.285) rotate(18)"/><path class="n" d="M0,26.25V0H13.125" transform="translate(8.112 -1.285) rotate(162)"/></g></g><g transform="translate(7707 11571)"><path class="n" d="M0-21V0H10.5" transform="translate(-6.489 -1.028) rotate(18)"/><path class="n" d="M0,21V0H10.5" transform="translate(6.489 -1.028) rotate(162)"/><g transform="rotate(72)"><path class="n" d="M0-21V0H10.5" transform="translate(-6.489 -1.028) rotate(18)"/><path class="n" d="M0,21V0H10.5" transform="translate(6.489 -1.028) rotate(162)"/></g><g transform="rotate(-72)"><path class="n" d="M0-21V0H10.5" transform="translate(-6.489 -1.028) rotate(18)"/><path class="n" d="M0,21V0H10.5" transform="translate(6.489 -1.028) rotate(162)"/></g><g transform="matrix(-0.809, 0.588, -0.588, -0.809, 0, 0)"><path class="n" d="M0-21V0H10.5" transform="translate(-6.489 -1.028) rotate(18)"/><path class="n" d="M0,21V0H10.5" transform="translate(6.489 -1.028) rotate(162)"/></g><g transform="matrix(-0.809, -0.588, 0.588, -0.809, 0, 0)"><path class="n" d="M0-21V0H10.5" transform="translate(-6.489 -1.028) rotate(18)"/><path class="n" d="M0,21V0H10.5" transform="translate(6.489 -1.028) rotate(162)"/></g></g><g transform="translate(9261 8799)"><path class="n" d="M0-21V0H10.5" transform="translate(-6.489 -1.028) rotate(18)"/><path class="n" d="M0,21V0H10.5" transform="translate(6.489 -1.028) rotate(162)"/><g transform="rotate(72)"><path class="n" d="M0-21V0H10.5" transform="translate(-6.489 -1.028) rotate(18)"/><path class="n" d="M0,21V0H10.5" transform="translate(6.489 -1.028) rotate(162)"/></g><g transform="rotate(-72)"><path class="n" d="M0-21V0H10.5" transform="translate(-6.489 -1.028) rotate(18)"/><path class="n" d="M0,21V0H10.5" transform="translate(6.489 -1.028) rotate(162)"/></g><g transform="matrix(-0.809, 0.588, -0.588, -0.809, 0, 0)"><path class="n" d="M0-21V0H10.5" transform="translate(-6.489 -1.028) rotate(18)"/><path class="n" d="M0,21V0H10.5" transform="translate(6.489 -1.028) rotate(162)"/></g><g transform="matrix(-0.809, -0.588, 0.588, -0.809, 0, 0)"><path class="n" d="M0-21V0H10.5" transform="translate(-6.489 -1.028) rotate(18)"/><path class="n" d="M0,21V0H10.5" transform="translate(6.489 -1.028) rotate(162)"/></g></g><g transform="translate(13125 10027.5)"><path class="n" d="M0-26.25V0H13.125" transform="translate(-8.112 -1.285) rotate(18)"/><path class="n" d="M0,26.25V0H13.125" transform="translate(8.112 -1.285) rotate(162)"/><g transform="rotate(72)"><path class="n" d="M0-26.25V0H13.125" transform="translate(-8.112 -1.285) rotate(18)"/><path class="n" d="M0,26.25V0H13.125" transform="translate(8.112 -1.285) rotate(162)"/></g><g transform="rotate(-72)"><path class="n" d="M0-26.25V0H13.125" transform="translate(-8.112 -1.285) rotate(18)"/><path class="n" d="M0,26.25V0H13.125" transform="translate(8.112 -1.285) rotate(162)"/></g><g transform="matrix(-0.809, 0.588, -0.588, -0.809, 0, 0)"><path class="n" d="M0-26.25V0H13.125" transform="translate(-8.112 -1.285) rotate(18)"/><path class="n" d="M0,26.25V0H13.125" transform="translate(8.112 -1.285) rotate(162)"/></g><g transform="matrix(-0.809, -0.588, 0.588, -0.809, 0, 0)"><path class="n" d="M0-26.25V0H13.125" transform="translate(-8.112 -1.285) rotate(18)"/><path class="n" d="M0,26.25V0H13.125" transform="translate(8.112 -1.285) rotate(162)"/></g></g><g transform="translate(7665 8505)"><path class="n" d="M0-21V0H10.5" transform="translate(-6.489 -1.028) rotate(18)"/><path class="n" d="M0,21V0H10.5" transform="translate(6.489 -1.028) rotate(162)"/><g transform="rotate(72)"><path class="n" d="M0-21V0H10.5" transform="translate(-6.489 -1.028) rotate(18)"/><path class="n" d="M0,21V0H10.5" transform="translate(6.489 -1.028) rotate(162)"/></g><g transform="rotate(-72)"><path class="n" d="M0-21V0H10.5" transform="translate(-6.489 -1.028) rotate(18)"/><path class="n" d="M0,21V0H10.5" transform="translate(6.489 -1.028) rotate(162)"/></g><g transform="matrix(-0.809, 0.588, -0.588, -0.809, 0, 0)"><path class="n" d="M0-21V0H10.5" transform="translate(-6.489 -1.028) rotate(18)"/><path class="n" d="M0,21V0H10.5" transform="translate(6.489 -1.028) rotate(162)"/></g><g transform="matrix(-0.809, -0.588, 0.588, -0.809, 0, 0)"><path class="n" d="M0-21V0H10.5" transform="translate(-6.489 -1.028) rotate(18)"/><path class="n" d="M0,21V0H10.5" transform="translate(6.489 -1.028) rotate(162)"/></g></g><g transform="translate(-7350 787.5)"><path class="n" d="M0-26.25V0H13.125" transform="translate(-8.112 -1.285) rotate(18)"/><path class="n" d="M0,26.25V0H13.125" transform="translate(8.112 -1.285) rotate(162)"/><g transform="rotate(72)"><path class="n" d="M0-26.25V0H13.125" transform="translate(-8.112 -1.285) rotate(18)"/><path class="n" d="M0,26.25V0H13.125" transform="translate(8.112 -1.285) rotate(162)"/></g><g transform="rotate(-72)"><path class="n" d="M0-26.25V0H13.125" transform="translate(-8.112 -1.285) rotate(18)"/><path class="n" d="M0,26.25V0H13.125" transform="translate(8.112 -1.285) rotate(162)"/></g><g transform="matrix(-0.809, 0.588, -0.588, -0.809, 0, 0)"><path class="n" d="M0-26.25V0H13.125" transform="translate(-8.112 -1.285) rotate(18)"/><path class="n" d="M0,26.25V0H13.125" transform="translate(8.112 -1.285) rotate(162)"/></g><g transform="matrix(-0.809, -0.588, 0.588, -0.809, 0, 0)"><path class="n" d="M0-26.25V0H13.125" transform="translate(-8.112 -1.285) rotate(18)"/><path class="n" d="M0,26.25V0H13.125" transform="translate(8.112 -1.285) rotate(162)"/></g></g><g transform="translate(4200 -777)"><path class="n" d="M0-21V0H10.5" transform="translate(-6.489 -1.028) rotate(18)"/><path class="n" d="M0,21V0H10.5" transform="translate(6.489 -1.028) rotate(162)"/><g transform="rotate(72)"><path class="n" d="M0-21V0H10.5" transform="translate(-6.489 -1.028) rotate(18)"/><path class="n" d="M0,21V0H10.5" transform="translate(6.489 -1.028) rotate(162)"/></g><g transform="rotate(-72)"><path class="n" d="M0-21V0H10.5" transform="translate(-6.489 -1.028) rotate(18)"/><path class="n" d="M0,21V0H10.5" transform="translate(6.489 -1.028) rotate(162)"/></g><g transform="matrix(-0.809, 0.588, -0.588, -0.809, 0, 0)"><path class="n" d="M0-21V0H10.5" transform="translate(-6.489 -1.028) rotate(18)"/><path class="n" d="M0,21V0H10.5" transform="translate(6.489 -1.028) rotate(162)"/></g><g transform="matrix(-0.809, -0.588, 0.588, -0.809, 0, 0)"><path class="n" d="M0-21V0H10.5" transform="translate(-6.489 -1.028) rotate(18)"/><path class="n" d="M0,21V0H10.5" transform="translate(6.489 -1.028) rotate(162)"/></g></g><g transform="translate(0 10395)"><path class="n" d="M0-31.5V0H15.75" transform="translate(-9.734 -1.542) rotate(18)"/><path class="n" d="M0,31.5V0H15.75" transform="translate(9.734 -1.542) rotate(162)"/><g transform="rotate(72)"><path class="n" d="M0-31.5V0H15.75" transform="translate(-9.734 -1.542) rotate(18)"/><path class="n" d="M0,31.5V0H15.75" transform="translate(9.734 -1.542) rotate(162)"/></g><g transform="rotate(-72)"><path class="n" d="M0-31.5V0H15.75" transform="translate(-9.734 -1.542) rotate(18)"/><path class="n" d="M0,31.5V0H15.75" transform="translate(9.734 -1.542) rotate(162)"/></g><g transform="matrix(-0.809, 0.588, -0.588, -0.809, 0, 0)"><path class="n" d="M0-31.5V0H15.75" transform="translate(-9.734 -1.542) rotate(18)"/><path class="n" d="M0,31.5V0H15.75" transform="translate(9.734 -1.542) rotate(162)"/></g><g transform="matrix(-0.809, -0.588, 0.588, -0.809, 0, 0)"><path class="n" d="M0-31.5V0H15.75" transform="translate(-9.734 -1.542) rotate(18)"/><path class="n" d="M0,31.5V0H15.75" transform="translate(9.734 -1.542) rotate(162)"/></g></g><g transform="translate(2231.25 4830)"><path class="n" d="M0-26.25V0H13.125" transform="translate(-8.112 -1.285) rotate(18)"/><path class="n" d="M0,26.25V0H13.125" transform="translate(8.112 -1.285) rotate(162)"/><g transform="rotate(72)"><path class="n" d="M0-26.25V0H13.125" transform="translate(-8.112 -1.285) rotate(18)"/><path class="n" d="M0,26.25V0H13.125" transform="translate(8.112 -1.285) rotate(162)"/></g><g transform="rotate(-72)"><path class="n" d="M0-26.25V0H13.125" transform="translate(-8.112 -1.285) rotate(18)"/><path class="n" d="M0,26.25V0H13.125" transform="translate(8.112 -1.285) rotate(162)"/></g><g transform="matrix(-0.809, 0.588, -0.588, -0.809, 0, 0)"><path class="n" d="M0-26.25V0H13.125" transform="translate(-8.112 -1.285) rotate(18)"/><path class="n" d="M0,26.25V0H13.125" transform="translate(8.112 -1.285) rotate(162)"/></g><g transform="matrix(-0.809, -0.588, 0.588, -0.809, 0, 0)"><path class="n" d="M0-26.25V0H13.125" transform="translate(-8.112 -1.285) rotate(18)"/><path class="n" d="M0,26.25V0H13.125" transform="translate(8.112 -1.285) rotate(162)"/></g></g><g transform="translate(0 3097.5)"><path class="n" d="M0-26.25V0H13.125" transform="translate(-8.112 -1.285) rotate(18)"/><path class="n" d="M0,26.25V0H13.125" transform="translate(8.112 -1.285) rotate(162)"/><g transform="rotate(72)"><path class="n" d="M0-26.25V0H13.125" transform="translate(-8.112 -1.285) rotate(18)"/><path class="n" d="M0,26.25V0H13.125" transform="translate(8.112 -1.285) rotate(162)"/></g><g transform="rotate(-72)"><path class="n" d="M0-26.25V0H13.125" transform="translate(-8.112 -1.285) rotate(18)"/><path class="n" d="M0,26.25V0H13.125" transform="translate(8.112 -1.285) rotate(162)"/></g><g transform="matrix(-0.809, 0.588, -0.588, -0.809, 0, 0)"><path class="n" d="M0-26.25V0H13.125" transform="translate(-8.112 -1.285) rotate(18)"/><path class="n" d="M0,26.25V0H13.125" transform="translate(8.112 -1.285) rotate(162)"/></g><g transform="matrix(-0.809, -0.588, 0.588, -0.809, 0, 0)"><path class="n" d="M0-26.25V0H13.125" transform="translate(-8.112 -1.285) rotate(18)"/><path class="n" d="M0,26.25V0H13.125" transform="translate(8.112 -1.285) rotate(162)"/></g></g><g transform="translate(-1554 3864)"><path class="n" d="M0-21V0H10.5" transform="translate(-6.489 -1.028) rotate(18)"/><path class="n" d="M0,21V0H10.5" transform="translate(6.489 -1.028) rotate(162)"/><g transform="rotate(72)"><path class="n" d="M0-21V0H10.5" transform="translate(-6.489 -1.028) rotate(18)"/><path class="n" d="M0,21V0H10.5" transform="translate(6.489 -1.028) rotate(162)"/></g><g transform="rotate(-72)"><path class="n" d="M0-21V0H10.5" transform="translate(-6.489 -1.028) rotate(18)"/><path class="n" d="M0,21V0H10.5" transform="translate(6.489 -1.028) rotate(162)"/></g><g transform="matrix(-0.809, 0.588, -0.588, -0.809, 0, 0)"><path class="n" d="M0-21V0H10.5" transform="translate(-6.489 -1.028) rotate(18)"/><path class="n" d="M0,21V0H10.5" transform="translate(6.489 -1.028) rotate(162)"/></g><g transform="matrix(-0.809, -0.588, 0.588, -0.809, 0, 0)"><path class="n" d="M0-21V0H10.5" transform="translate(-6.489 -1.028) rotate(18)"/><path class="n" d="M0,21V0H10.5" transform="translate(6.489 -1.028) rotate(162)"/></g></g><g transform="translate(-555 3525)"><path class="n" d="M0-15V0H7.5" transform="translate(-4.635 -0.734) rotate(18)"/><path class="n" d="M0,15V0H7.5" transform="translate(4.635 -0.734) rotate(162)"/><g transform="rotate(72)"><path class="n" d="M0-15V0H7.5" transform="translate(-4.635 -0.734) rotate(18)"/><path class="n" d="M0,15V0H7.5" transform="translate(4.635 -0.734) rotate(162)"/></g><g transform="rotate(-72)"><path class="n" d="M0-15V0H7.5" transform="translate(-4.635 -0.734) rotate(18)"/><path class="n" d="M0,15V0H7.5" transform="translate(4.635 -0.734) rotate(162)"/></g><g transform="matrix(-0.809, 0.588, -0.588, -0.809, 0, 0)"><path class="n" d="M0-15V0H7.5" transform="translate(-4.635 -0.734) rotate(18)"/><path class="n" d="M0,15V0H7.5" transform="translate(4.635 -0.734) rotate(162)"/></g><g transform="matrix(-0.809, -0.588, 0.588, -0.809, 0, 0)"><path class="n" d="M0-15V0H7.5" transform="translate(-4.635 -0.734) rotate(18)"/><path class="n" d="M0,15V0H7.5" transform="translate(4.635 -0.734) rotate(162)"/></g></g><g transform="translate(5775 12993.75)"><path class="n" d="M0-26.25V0H13.125" transform="translate(-8.112 -1.285) rotate(18)"/><path class="n" d="M0,26.25V0H13.125" transform="translate(8.112 -1.285) rotate(162)"/><g transform="rotate(72)"><path class="n" d="M0-26.25V0H13.125" transform="translate(-8.112 -1.285) rotate(18)"/><path class="n" d="M0,26.25V0H13.125" transform="translate(8.112 -1.285) rotate(162)"/></g><g transform="rotate(-72)"><path class="n" d="M0-26.25V0H13.125" transform="translate(-8.112 -1.285) rotate(18)"/><path class="n" d="M0,26.25V0H13.125" transform="translate(8.112 -1.285) rotate(162)"/></g><g transform="matrix(-0.809, 0.588, -0.588, -0.809, 0, 0)"><path class="n" d="M0-26.25V0H13.125" transform="translate(-8.112 -1.285) rotate(18)"/><path class="n" d="M0,26.25V0H13.125" transform="translate(8.112 -1.285) rotate(162)"/></g><g transform="matrix(-0.809, -0.588, 0.588, -0.809, 0, 0)"><path class="n" d="M0-26.25V0H13.125" transform="translate(-8.112 -1.285) rotate(18)"/><path class="n" d="M0,26.25V0H13.125" transform="translate(8.112 -1.285) rotate(162)"/></g></g><g transform="translate(5943 9030)"><path class="n" d="M0-21V0H10.5" transform="translate(-6.489 -1.028) rotate(18)"/><path class="n" d="M0,21V0H10.5" transform="translate(6.489 -1.028) rotate(162)"/><g transform="rotate(72)"><path class="n" d="M0-21V0H10.5" transform="translate(-6.489 -1.028) rotate(18)"/><path class="n" d="M0,21V0H10.5" transform="translate(6.489 -1.028) rotate(162)"/></g><g transform="rotate(-72)"><path class="n" d="M0-21V0H10.5" transform="translate(-6.489 -1.028) rotate(18)"/><path class="n" d="M0,21V0H10.5" transform="translate(6.489 -1.028) rotate(162)"/></g><g transform="matrix(-0.809, 0.588, -0.588, -0.809, 0, 0)"><path class="n" d="M0-21V0H10.5" transform="translate(-6.489 -1.028) rotate(18)"/><path class="n" d="M0,21V0H10.5" transform="translate(6.489 -1.028) rotate(162)"/></g><g transform="matrix(-0.809, -0.588, 0.588, -0.809, 0, 0)"><path class="n" d="M0-21V0H10.5" transform="translate(-6.489 -1.028) rotate(18)"/><path class="n" d="M0,21V0H10.5" transform="translate(6.489 -1.028) rotate(162)"/></g></g><g transform="translate(3402 8652)"><path class="n" d="M0-21V0H10.5" transform="translate(-6.489 -1.028) rotate(18)"/><path class="n" d="M0,21V0H10.5" transform="translate(6.489 -1.028) rotate(162)"/><g transform="rotate(72)"><path class="n" d="M0-21V0H10.5" transform="translate(-6.489 -1.028) rotate(18)"/><path class="n" d="M0,21V0H10.5" transform="translate(6.489 -1.028) rotate(162)"/></g><g transform="rotate(-72)"><path class="n" d="M0-21V0H10.5" transform="translate(-6.489 -1.028) rotate(18)"/><path class="n" d="M0,21V0H10.5" transform="translate(6.489 -1.028) rotate(162)"/></g><g transform="matrix(-0.809, 0.588, -0.588, -0.809, 0, 0)"><path class="n" d="M0-21V0H10.5" transform="translate(-6.489 -1.028) rotate(18)"/><path class="n" d="M0,21V0H10.5" transform="translate(6.489 -1.028) rotate(162)"/></g><g transform="matrix(-0.809, -0.588, 0.588, -0.809, 0, 0)"><path class="n" d="M0-21V0H10.5" transform="translate(-6.489 -1.028) rotate(18)"/><path class="n" d="M0,21V0H10.5" transform="translate(6.489 -1.028) rotate(162)"/></g></g><g transform="translate(-9292.5 12285)"><path class="n" d="M0-31.5V0H15.75" transform="translate(-9.734 -1.542) rotate(18)"/><path class="n" d="M0,31.5V0H15.75" transform="translate(9.734 -1.542) rotate(162)"/><g transform="rotate(72)"><path class="n" d="M0-31.5V0H15.75" transform="translate(-9.734 -1.542) rotate(18)"/><path class="n" d="M0,31.5V0H15.75" transform="translate(9.734 -1.542) rotate(162)"/></g><g transform="rotate(-72)"><path class="n" d="M0-31.5V0H15.75" transform="translate(-9.734 -1.542) rotate(18)"/><path class="n" d="M0,31.5V0H15.75" transform="translate(9.734 -1.542) rotate(162)"/></g><g transform="matrix(-0.809, 0.588, -0.588, -0.809, 0, 0)"><path class="n" d="M0-31.5V0H15.75" transform="translate(-9.734 -1.542) rotate(18)"/><path class="n" d="M0,31.5V0H15.75" transform="translate(9.734 -1.542) rotate(162)"/></g><g transform="matrix(-0.809, -0.588, 0.588, -0.809, 0, 0)"><path class="n" d="M0-31.5V0H15.75" transform="translate(-9.734 -1.542) rotate(18)"/><path class="n" d="M0,31.5V0H15.75" transform="translate(9.734 -1.542) rotate(162)"/></g></g><g transform="translate(0 6037.5)"><path class="n" d="M0-10.5V0H5.25" transform="translate(-3.245 -0.514) rotate(18)"/><path class="n" d="M0,10.5V0H5.25" transform="translate(3.245 -0.514) rotate(162)"/><g transform="rotate(72)"><path class="n" d="M0-10.5V0H5.25" transform="translate(-3.245 -0.514) rotate(18)"/><path class="n" d="M0,10.5V0H5.25" transform="translate(3.245 -0.514) rotate(162)"/></g><g transform="rotate(-72)"><path class="n" d="M0-10.5V0H5.25" transform="translate(-3.245 -0.514) rotate(18)"/><path class="n" d="M0,10.5V0H5.25" transform="translate(3.245 -0.514) rotate(162)"/></g><g transform="matrix(-0.809, 0.588, -0.588, -0.809, 0, 0)"><path class="n" d="M0-10.5V0H5.25" transform="translate(-3.245 -0.514) rotate(18)"/><path class="n" d="M0,10.5V0H5.25" transform="translate(3.245 -0.514) rotate(162)"/></g><g transform="matrix(-0.809, -0.588, 0.588, -0.809, 0, 0)"><path class="n" d="M0-10.5V0H5.25" transform="translate(-3.245 -0.514) rotate(18)"/><path class="n" d="M0,10.5V0H5.25" transform="translate(3.245 -0.514) rotate(162)"/></g></g></g></g><g transform="translate(-3927 -6196)"><rect class="g" width="1920" height="52"/><g class="d" transform="translate(1625 10.217)"><rect class="aq" width="48" height="32" rx="14"/><rect class="b" x="0.5" y="0.5" width="47" height="31" rx="13.5"/></g><g class="d" transform="translate(1498 10.217)"><rect class="aq" width="116" height="31.566" rx="14"/><rect class="b" x="0.5" y="0.5" width="115" height="30.566" rx="13.5"/></g><text class="q" transform="translate(1532 34)"><tspan x="0" y="0">Entrar</tspan></text><g transform="translate(2430.588 2225.5)"><g transform="translate(1305.96 -738.273)"><rect class="j" width="24" height="18.046" transform="translate(-2100 -1470)"/><path class="k" d="M-1743-1106.168l9.809,6.832,9.809-6.832-9.809-6.832Z" transform="translate(-354.809 -354.809)"/><circle class="l" cx="4.512" cy="4.512" r="4.512" transform="translate(-2092.511 -1465.488)"/><g class="r" transform="translate(-2092.511 -1465.488)"><path class="n" d="M-2205-304.043A10.957,10.957,0,0,1-2194.043-315a10.957,10.957,0,0,1,10.957,10.957h-.645a10.312,10.312,0,0,0-10.312-10.312,10.312,10.312,0,0,0-10.312,10.312Z" transform="translate(2195.977 317.578)"/></g><g transform="translate(-2092.104 -1462.805)"><path class="s" d="M.193.43A.2.2,0,0,0,.387.215.2.2,0,0,0,.193,0,.2.2,0,0,0,0,.215.2.2,0,0,0,.193.43m0-.08A.126.126,0,0,0,.307.215.126.126,0,0,0,.193.08.126.126,0,0,0,.08.215.126.126,0,0,0,.193.35" transform="translate(0 0.106) rotate(-7)"/><g transform="translate(0.564 0.042) rotate(-4)"><path class="t" d="M0,.43H.08V.27H.252a.135.135,0,1,0,0-.27H.006ZM.08.19H.246a.055.055,0,1,0,0-.11H.08Z"/><path d="M.209.2c0-.061,0-.2-.092-.2H0C.135,0,.135.135.135.2" transform="translate(0.157 0.233)"/></g><path class="s" d="M0,.43H.2A.184.184,0,0,0,.387.246V.184A.184.184,0,0,0,.2,0H0ZM.08.35H.2A.117.117,0,0,0,.313.233V.2A.117.117,0,0,0,.2.08H.08Z" transform="translate(1.131 0.007) rotate(-1)"/><path class="j" d="M0,.43H.387V.35H.074V.239H.319V.166H.074V.08H.368V0H0Z" transform="translate(1.7 0.002) rotate(2)"/><path class="j" d="M0,.43H.074V.135L.16.43H.227L.313.135V.43H.387V0H.279L.193.295.107,0H0Z" transform="translate(2.267 0.026) rotate(5)"/><path class="j" d="M0,.387H.322V.313H.074v-.1h.2V.141h-.2V.074H.315V0H0Z" transform="translate(3.185 0.173) rotate(9.75)"/><path class="s" d="M0,.43H.08V.27H.252a.135.135,0,1,0,0-.27H.006ZM.08.19H.246a.055.055,0,1,0,0-.11H.08Z" transform="matrix(0.968, 0.25, -0.25, 0.968, 4.043, 0.299)"/><g transform="translate(4.592 0.446) rotate(17.5)"><path class="t" d="M0,.43H.08V.27H.252a.135.135,0,1,0,0-.27H.006ZM.08.19H.246a.055.055,0,1,0,0-.11H.08Z" transform="translate(0 0)"/><path d="M.209.2c0-.061,0-.2-.092-.2H0C.135,0,.135.135.135.2" transform="translate(0.157 0.233)"/></g><path class="s" d="M.193.43A.2.2,0,0,0,.387.215.2.2,0,0,0,.193,0,.2.2,0,0,0,0,.215.2.2,0,0,0,.193.43m0-.08A.126.126,0,0,0,.307.215.126.126,0,0,0,.193.08.126.126,0,0,0,.08.215.126.126,0,0,0,.193.35" transform="translate(5.133 0.621) rotate(20.5)"/><g transform="translate(5.663 0.824) rotate(23.5)"><g class="u"><path class="t" d="M.193.43A.2.2,0,0,0,.387.215.2.2,0,0,0,.193,0,.2.2,0,0,0,0,.215.2.2,0,0,0,.193.43m0-.08A.126.126,0,0,0,.307.215.126.126,0,0,0,.193.08.126.126,0,0,0,.08.215.126.126,0,0,0,.193.35" transform="translate(0 0)"/></g><rect width="0.163" height="0.061" transform="translate(0.224 0.215)"/><rect width="0.061" height="0.215" transform="translate(0.325 0.215)"/></g><g transform="translate(6.182 1.055) rotate(26.5)"><path class="t" d="M0,.43H.08V.27H.252a.135.135,0,1,0,0-.27H.006ZM.08.19H.246a.055.055,0,1,0,0-.11H.08Z" transform="translate(0 0)"/><path d="M.209.2c0-.061,0-.2-.092-.2H0C.135,0,.135.135.135.2" transform="translate(0.157 0.233)"/></g><path class="j" d="M0,.43H.387V.35H.074V.239H.319V.166H.074V.08H.368V0H0Z" transform="translate(6.688 1.313) rotate(29.5)"/><path class="j" d="M.1.295C.1.338.138.359.2.359S.29.339.29.312C.29.224,0,.279,0,.126.006-.006.157,0,.212,0S.371.025.37.13H.276C.276.084.233.068.184.068S.1.075.1.12C.1.192.387.144.387.3.387.408.276.43.193.43S0,.4,0,.295Z" transform="translate(7.18 1.597) rotate(32.5)"/><path class="j" d="M.1.295C.1.338.138.359.2.359S.29.339.29.312C.29.224,0,.279,0,.126.006-.006.157,0,.212,0S.371.025.37.13H.276C.276.084.233.068.184.068S.1.075.1.12C.1.192.387.144.387.3.387.408.276.43.193.43S0,.4,0,.295Z" transform="matrix(0.814, 0.581, -0.581, 0.814, 7.657, 1.906)"/><path class="s" d="M.193.43A.2.2,0,0,0,.387.215.2.2,0,0,0,.193,0,.2.2,0,0,0,0,.215.2.2,0,0,0,.193.43m0-.08A.126.126,0,0,0,.307.215.126.126,0,0,0,.193.08.126.126,0,0,0,.08.215.126.126,0,0,0,.193.35" transform="translate(8.117 2.24) rotate(38.5)"/></g></g><g transform="translate(-18900 -4158)"><path class="n" d="M0-31.5V0H15.75" transform="translate(-9.734 -1.542) rotate(18)"/><path class="n" d="M0,31.5V0H15.75" transform="translate(9.734 -1.542) rotate(162)"/><g transform="rotate(72)"><path class="n" d="M0-31.5V0H15.75" transform="translate(-9.734 -1.542) rotate(18)"/><path class="n" d="M0,31.5V0H15.75" transform="translate(9.734 -1.542) rotate(162)"/></g><g transform="rotate(-72)"><path class="n" d="M0-31.5V0H15.75" transform="translate(-9.734 -1.542) rotate(18)"/><path class="n" d="M0,31.5V0H15.75" transform="translate(9.734 -1.542) rotate(162)"/></g><g transform="matrix(-0.809, 0.588, -0.588, -0.809, 0, 0)"><path class="n" d="M0-31.5V0H15.75" transform="translate(-9.734 -1.542) rotate(18)"/><path class="n" d="M0,31.5V0H15.75" transform="translate(9.734 -1.542) rotate(162)"/></g><g transform="matrix(-0.809, -0.588, 0.588, -0.809, 0, 0)"><path class="n" d="M0-31.5V0H15.75" transform="translate(-9.734 -1.542) rotate(18)"/><path class="n" d="M0,31.5V0H15.75" transform="translate(9.734 -1.542) rotate(162)"/></g></g><g transform="translate(-16852.5 5575.5)"><path class="n" d="M0-31.5V0H15.75" transform="translate(-9.734 -1.542) rotate(18)"/><path class="n" d="M0,31.5V0H15.75" transform="translate(9.734 -1.542) rotate(162)"/><g transform="rotate(72)"><path class="n" d="M0-31.5V0H15.75" transform="translate(-9.734 -1.542) rotate(18)"/><path class="n" d="M0,31.5V0H15.75" transform="translate(9.734 -1.542) rotate(162)"/></g><g transform="rotate(-72)"><path class="n" d="M0-31.5V0H15.75" transform="translate(-9.734 -1.542) rotate(18)"/><path class="n" d="M0,31.5V0H15.75" transform="translate(9.734 -1.542) rotate(162)"/></g><g transform="matrix(-0.809, 0.588, -0.588, -0.809, 0, 0)"><path class="n" d="M0-31.5V0H15.75" transform="translate(-9.734 -1.542) rotate(18)"/><path class="n" d="M0,31.5V0H15.75" transform="translate(9.734 -1.542) rotate(162)"/></g><g transform="matrix(-0.809, -0.588, 0.588, -0.809, 0, 0)"><path class="n" d="M0-31.5V0H15.75" transform="translate(-9.734 -1.542) rotate(18)"/><path class="n" d="M0,31.5V0H15.75" transform="translate(9.734 -1.542) rotate(162)"/></g></g><g transform="translate(-16406.25 6378.75)"><path class="n" d="M0-26.25V0H13.125" transform="translate(-8.112 -1.285) rotate(18)"/><path class="n" d="M0,26.25V0H13.125" transform="translate(8.112 -1.285) rotate(162)"/><g transform="rotate(72)"><path class="n" d="M0-26.25V0H13.125" transform="translate(-8.112 -1.285) rotate(18)"/><path class="n" d="M0,26.25V0H13.125" transform="translate(8.112 -1.285) rotate(162)"/></g><g transform="rotate(-72)"><path class="n" d="M0-26.25V0H13.125" transform="translate(-8.112 -1.285) rotate(18)"/><path class="n" d="M0,26.25V0H13.125" transform="translate(8.112 -1.285) rotate(162)"/></g><g transform="matrix(-0.809, 0.588, -0.588, -0.809, 0, 0)"><path class="n" d="M0-26.25V0H13.125" transform="translate(-8.112 -1.285) rotate(18)"/><path class="n" d="M0,26.25V0H13.125" transform="translate(8.112 -1.285) rotate(162)"/></g><g transform="matrix(-0.809, -0.588, 0.588, -0.809, 0, 0)"><path class="n" d="M0-26.25V0H13.125" transform="translate(-8.112 -1.285) rotate(18)"/><path class="n" d="M0,26.25V0H13.125" transform="translate(8.112 -1.285) rotate(162)"/></g></g><g transform="translate(-6945 1980)"><path class="n" d="M0-15V0H7.5" transform="translate(-4.635 -0.734) rotate(18)"/><path class="n" d="M0,15V0H7.5" transform="translate(4.635 -0.734) rotate(162)"/><g transform="rotate(72)"><path class="n" d="M0-15V0H7.5" transform="translate(-4.635 -0.734) rotate(18)"/><path class="n" d="M0,15V0H7.5" transform="translate(4.635 -0.734) rotate(162)"/></g><g transform="rotate(-72)"><path class="n" d="M0-15V0H7.5" transform="translate(-4.635 -0.734) rotate(18)"/><path class="n" d="M0,15V0H7.5" transform="translate(4.635 -0.734) rotate(162)"/></g><g transform="matrix(-0.809, 0.588, -0.588, -0.809, 0, 0)"><path class="n" d="M0-15V0H7.5" transform="translate(-4.635 -0.734) rotate(18)"/><path class="n" d="M0,15V0H7.5" transform="translate(4.635 -0.734) rotate(162)"/></g><g transform="matrix(-0.809, -0.588, 0.588, -0.809, 0, 0)"><path class="n" d="M0-15V0H7.5" transform="translate(-4.635 -0.734) rotate(18)"/><path class="n" d="M0,15V0H7.5" transform="translate(4.635 -0.734) rotate(162)"/></g></g><g transform="translate(-10027.5 6562.5)"><path class="n" d="M0-26.25V0H13.125" transform="translate(-8.112 -1.285) rotate(18)"/><path class="n" d="M0,26.25V0H13.125" transform="translate(8.112 -1.285) rotate(162)"/><g transform="rotate(72)"><path class="n" d="M0-26.25V0H13.125" transform="translate(-8.112 -1.285) rotate(18)"/><path class="n" d="M0,26.25V0H13.125" transform="translate(8.112 -1.285) rotate(162)"/></g><g transform="rotate(-72)"><path class="n" d="M0-26.25V0H13.125" transform="translate(-8.112 -1.285) rotate(18)"/><path class="n" d="M0,26.25V0H13.125" transform="translate(8.112 -1.285) rotate(162)"/></g><g transform="matrix(-0.809, 0.588, -0.588, -0.809, 0, 0)"><path class="n" d="M0-26.25V0H13.125" transform="translate(-8.112 -1.285) rotate(18)"/><path class="n" d="M0,26.25V0H13.125" transform="translate(8.112 -1.285) rotate(162)"/></g><g transform="matrix(-0.809, -0.588, 0.588, -0.809, 0, 0)"><path class="n" d="M0-26.25V0H13.125" transform="translate(-8.112 -1.285) rotate(18)"/><path class="n" d="M0,26.25V0H13.125" transform="translate(8.112 -1.285) rotate(162)"/></g></g><g transform="translate(-8484 6783)"><path class="n" d="M0-21V0H10.5" transform="translate(-6.489 -1.028) rotate(18)"/><path class="n" d="M0,21V0H10.5" transform="translate(6.489 -1.028) rotate(162)"/><g transform="rotate(72)"><path class="n" d="M0-21V0H10.5" transform="translate(-6.489 -1.028) rotate(18)"/><path class="n" d="M0,21V0H10.5" transform="translate(6.489 -1.028) rotate(162)"/></g><g transform="rotate(-72)"><path class="n" d="M0-21V0H10.5" transform="translate(-6.489 -1.028) rotate(18)"/><path class="n" d="M0,21V0H10.5" transform="translate(6.489 -1.028) rotate(162)"/></g><g transform="matrix(-0.809, 0.588, -0.588, -0.809, 0, 0)"><path class="n" d="M0-21V0H10.5" transform="translate(-6.489 -1.028) rotate(18)"/><path class="n" d="M0,21V0H10.5" transform="translate(6.489 -1.028) rotate(162)"/></g><g transform="matrix(-0.809, -0.588, 0.588, -0.809, 0, 0)"><path class="n" d="M0-21V0H10.5" transform="translate(-6.489 -1.028) rotate(18)"/><path class="n" d="M0,21V0H10.5" transform="translate(6.489 -1.028) rotate(162)"/></g></g><g transform="translate(7182 -7182)"><path class="n" d="M0-31.5V0H15.75" transform="translate(-9.734 -1.542) rotate(18)"/><path class="n" d="M0,31.5V0H15.75" transform="translate(9.734 -1.542) rotate(162)"/><g transform="rotate(72)"><path class="n" d="M0-31.5V0H15.75" transform="translate(-9.734 -1.542) rotate(18)"/><path class="n" d="M0,31.5V0H15.75" transform="translate(9.734 -1.542) rotate(162)"/></g><g transform="rotate(-72)"><path class="n" d="M0-31.5V0H15.75" transform="translate(-9.734 -1.542) rotate(18)"/><path class="n" d="M0,31.5V0H15.75" transform="translate(9.734 -1.542) rotate(162)"/></g><g transform="matrix(-0.809, 0.588, -0.588, -0.809, 0, 0)"><path class="n" d="M0-31.5V0H15.75" transform="translate(-9.734 -1.542) rotate(18)"/><path class="n" d="M0,31.5V0H15.75" transform="translate(9.734 -1.542) rotate(162)"/></g><g transform="matrix(-0.809, -0.588, 0.588, -0.809, 0, 0)"><path class="n" d="M0-31.5V0H15.75" transform="translate(-9.734 -1.542) rotate(18)"/><path class="n" d="M0,31.5V0H15.75" transform="translate(9.734 -1.542) rotate(162)"/></g></g><g transform="translate(16222.5 8127)"><path class="n" d="M0-31.5V0H15.75" transform="translate(-9.734 -1.542) rotate(18)"/><path class="n" d="M0,31.5V0H15.75" transform="translate(9.734 -1.542) rotate(162)"/><g transform="rotate(72)"><path class="n" d="M0-31.5V0H15.75" transform="translate(-9.734 -1.542) rotate(18)"/><path class="n" d="M0,31.5V0H15.75" transform="translate(9.734 -1.542) rotate(162)"/></g><g transform="rotate(-72)"><path class="n" d="M0-31.5V0H15.75" transform="translate(-9.734 -1.542) rotate(18)"/><path class="n" d="M0,31.5V0H15.75" transform="translate(9.734 -1.542) rotate(162)"/></g><g transform="matrix(-0.809, 0.588, -0.588, -0.809, 0, 0)"><path class="n" d="M0-31.5V0H15.75" transform="translate(-9.734 -1.542) rotate(18)"/><path class="n" d="M0,31.5V0H15.75" transform="translate(9.734 -1.542) rotate(162)"/></g><g transform="matrix(-0.809, -0.588, 0.588, -0.809, 0, 0)"><path class="n" d="M0-31.5V0H15.75" transform="translate(-9.734 -1.542) rotate(18)"/><path class="n" d="M0,31.5V0H15.75" transform="translate(9.734 -1.542) rotate(162)"/></g></g><g transform="translate(12957 5565)"><path class="n" d="M0-21V0H10.5" transform="translate(-6.489 -1.028) rotate(18)"/><path class="n" d="M0,21V0H10.5" transform="translate(6.489 -1.028) rotate(162)"/><g transform="rotate(72)"><path class="n" d="M0-21V0H10.5" transform="translate(-6.489 -1.028) rotate(18)"/><path class="n" d="M0,21V0H10.5" transform="translate(6.489 -1.028) rotate(162)"/></g><g transform="rotate(-72)"><path class="n" d="M0-21V0H10.5" transform="translate(-6.489 -1.028) rotate(18)"/><path class="n" d="M0,21V0H10.5" transform="translate(6.489 -1.028) rotate(162)"/></g><g transform="matrix(-0.809, 0.588, -0.588, -0.809, 0, 0)"><path class="n" d="M0-21V0H10.5" transform="translate(-6.489 -1.028) rotate(18)"/><path class="n" d="M0,21V0H10.5" transform="translate(6.489 -1.028) rotate(162)"/></g><g transform="matrix(-0.809, -0.588, 0.588, -0.809, 0, 0)"><path class="n" d="M0-21V0H10.5" transform="translate(-6.489 -1.028) rotate(18)"/><path class="n" d="M0,21V0H10.5" transform="translate(6.489 -1.028) rotate(162)"/></g></g><g transform="translate(14306.25 8478.75)"><path class="n" d="M0-26.25V0H13.125" transform="translate(-8.112 -1.285) rotate(18)"/><path class="n" d="M0,26.25V0H13.125" transform="translate(8.112 -1.285) rotate(162)"/><g transform="rotate(72)"><path class="n" d="M0-26.25V0H13.125" transform="translate(-8.112 -1.285) rotate(18)"/><path class="n" d="M0,26.25V0H13.125" transform="translate(8.112 -1.285) rotate(162)"/></g><g transform="rotate(-72)"><path class="n" d="M0-26.25V0H13.125" transform="translate(-8.112 -1.285) rotate(18)"/><path class="n" d="M0,26.25V0H13.125" transform="translate(8.112 -1.285) rotate(162)"/></g><g transform="matrix(-0.809, 0.588, -0.588, -0.809, 0, 0)"><path class="n" d="M0-26.25V0H13.125" transform="translate(-8.112 -1.285) rotate(18)"/><path class="n" d="M0,26.25V0H13.125" transform="translate(8.112 -1.285) rotate(162)"/></g><g transform="matrix(-0.809, -0.588, 0.588, -0.809, 0, 0)"><path class="n" d="M0-26.25V0H13.125" transform="translate(-8.112 -1.285) rotate(18)"/><path class="n" d="M0,26.25V0H13.125" transform="translate(8.112 -1.285) rotate(162)"/></g></g><g transform="translate(9660 12521.25)"><path class="n" d="M0-26.25V0H13.125" transform="translate(-8.112 -1.285) rotate(18)"/><path class="n" d="M0,26.25V0H13.125" transform="translate(8.112 -1.285) rotate(162)"/><g transform="rotate(72)"><path class="n" d="M0-26.25V0H13.125" transform="translate(-8.112 -1.285) rotate(18)"/><path class="n" d="M0,26.25V0H13.125" transform="translate(8.112 -1.285) rotate(162)"/></g><g transform="rotate(-72)"><path class="n" d="M0-26.25V0H13.125" transform="translate(-8.112 -1.285) rotate(18)"/><path class="n" d="M0,26.25V0H13.125" transform="translate(8.112 -1.285) rotate(162)"/></g><g transform="matrix(-0.809, 0.588, -0.588, -0.809, 0, 0)"><path class="n" d="M0-26.25V0H13.125" transform="translate(-8.112 -1.285) rotate(18)"/><path class="n" d="M0,26.25V0H13.125" transform="translate(8.112 -1.285) rotate(162)"/></g><g transform="matrix(-0.809, -0.588, 0.588, -0.809, 0, 0)"><path class="n" d="M0-26.25V0H13.125" transform="translate(-8.112 -1.285) rotate(18)"/><path class="n" d="M0,26.25V0H13.125" transform="translate(8.112 -1.285) rotate(162)"/></g></g><g transform="translate(7707 11571)"><path class="n" d="M0-21V0H10.5" transform="translate(-6.489 -1.028) rotate(18)"/><path class="n" d="M0,21V0H10.5" transform="translate(6.489 -1.028) rotate(162)"/><g transform="rotate(72)"><path class="n" d="M0-21V0H10.5" transform="translate(-6.489 -1.028) rotate(18)"/><path class="n" d="M0,21V0H10.5" transform="translate(6.489 -1.028) rotate(162)"/></g><g transform="rotate(-72)"><path class="n" d="M0-21V0H10.5" transform="translate(-6.489 -1.028) rotate(18)"/><path class="n" d="M0,21V0H10.5" transform="translate(6.489 -1.028) rotate(162)"/></g><g transform="matrix(-0.809, 0.588, -0.588, -0.809, 0, 0)"><path class="n" d="M0-21V0H10.5" transform="translate(-6.489 -1.028) rotate(18)"/><path class="n" d="M0,21V0H10.5" transform="translate(6.489 -1.028) rotate(162)"/></g><g transform="matrix(-0.809, -0.588, 0.588, -0.809, 0, 0)"><path class="n" d="M0-21V0H10.5" transform="translate(-6.489 -1.028) rotate(18)"/><path class="n" d="M0,21V0H10.5" transform="translate(6.489 -1.028) rotate(162)"/></g></g><g transform="translate(9261 8799)"><path class="n" d="M0-21V0H10.5" transform="translate(-6.489 -1.028) rotate(18)"/><path class="n" d="M0,21V0H10.5" transform="translate(6.489 -1.028) rotate(162)"/><g transform="rotate(72)"><path class="n" d="M0-21V0H10.5" transform="translate(-6.489 -1.028) rotate(18)"/><path class="n" d="M0,21V0H10.5" transform="translate(6.489 -1.028) rotate(162)"/></g><g transform="rotate(-72)"><path class="n" d="M0-21V0H10.5" transform="translate(-6.489 -1.028) rotate(18)"/><path class="n" d="M0,21V0H10.5" transform="translate(6.489 -1.028) rotate(162)"/></g><g transform="matrix(-0.809, 0.588, -0.588, -0.809, 0, 0)"><path class="n" d="M0-21V0H10.5" transform="translate(-6.489 -1.028) rotate(18)"/><path class="n" d="M0,21V0H10.5" transform="translate(6.489 -1.028) rotate(162)"/></g><g transform="matrix(-0.809, -0.588, 0.588, -0.809, 0, 0)"><path class="n" d="M0-21V0H10.5" transform="translate(-6.489 -1.028) rotate(18)"/><path class="n" d="M0,21V0H10.5" transform="translate(6.489 -1.028) rotate(162)"/></g></g><g transform="translate(13125 10027.5)"><path class="n" d="M0-26.25V0H13.125" transform="translate(-8.112 -1.285) rotate(18)"/><path class="n" d="M0,26.25V0H13.125" transform="translate(8.112 -1.285) rotate(162)"/><g transform="rotate(72)"><path class="n" d="M0-26.25V0H13.125" transform="translate(-8.112 -1.285) rotate(18)"/><path class="n" d="M0,26.25V0H13.125" transform="translate(8.112 -1.285) rotate(162)"/></g><g transform="rotate(-72)"><path class="n" d="M0-26.25V0H13.125" transform="translate(-8.112 -1.285) rotate(18)"/><path class="n" d="M0,26.25V0H13.125" transform="translate(8.112 -1.285) rotate(162)"/></g><g transform="matrix(-0.809, 0.588, -0.588, -0.809, 0, 0)"><path class="n" d="M0-26.25V0H13.125" transform="translate(-8.112 -1.285) rotate(18)"/><path class="n" d="M0,26.25V0H13.125" transform="translate(8.112 -1.285) rotate(162)"/></g><g transform="matrix(-0.809, -0.588, 0.588, -0.809, 0, 0)"><path class="n" d="M0-26.25V0H13.125" transform="translate(-8.112 -1.285) rotate(18)"/><path class="n" d="M0,26.25V0H13.125" transform="translate(8.112 -1.285) rotate(162)"/></g></g><g transform="translate(7665 8505)"><path class="n" d="M0-21V0H10.5" transform="translate(-6.489 -1.028) rotate(18)"/><path class="n" d="M0,21V0H10.5" transform="translate(6.489 -1.028) rotate(162)"/><g transform="rotate(72)"><path class="n" d="M0-21V0H10.5" transform="translate(-6.489 -1.028) rotate(18)"/><path class="n" d="M0,21V0H10.5" transform="translate(6.489 -1.028) rotate(162)"/></g><g transform="rotate(-72)"><path class="n" d="M0-21V0H10.5" transform="translate(-6.489 -1.028) rotate(18)"/><path class="n" d="M0,21V0H10.5" transform="translate(6.489 -1.028) rotate(162)"/></g><g transform="matrix(-0.809, 0.588, -0.588, -0.809, 0, 0)"><path class="n" d="M0-21V0H10.5" transform="translate(-6.489 -1.028) rotate(18)"/><path class="n" d="M0,21V0H10.5" transform="translate(6.489 -1.028) rotate(162)"/></g><g transform="matrix(-0.809, -0.588, 0.588, -0.809, 0, 0)"><path class="n" d="M0-21V0H10.5" transform="translate(-6.489 -1.028) rotate(18)"/><path class="n" d="M0,21V0H10.5" transform="translate(6.489 -1.028) rotate(162)"/></g></g><g transform="translate(-7350 787.5)"><path class="n" d="M0-26.25V0H13.125" transform="translate(-8.112 -1.285) rotate(18)"/><path class="n" d="M0,26.25V0H13.125" transform="translate(8.112 -1.285) rotate(162)"/><g transform="rotate(72)"><path class="n" d="M0-26.25V0H13.125" transform="translate(-8.112 -1.285) rotate(18)"/><path class="n" d="M0,26.25V0H13.125" transform="translate(8.112 -1.285) rotate(162)"/></g><g transform="rotate(-72)"><path class="n" d="M0-26.25V0H13.125" transform="translate(-8.112 -1.285) rotate(18)"/><path class="n" d="M0,26.25V0H13.125" transform="translate(8.112 -1.285) rotate(162)"/></g><g transform="matrix(-0.809, 0.588, -0.588, -0.809, 0, 0)"><path class="n" d="M0-26.25V0H13.125" transform="translate(-8.112 -1.285) rotate(18)"/><path class="n" d="M0,26.25V0H13.125" transform="translate(8.112 -1.285) rotate(162)"/></g><g transform="matrix(-0.809, -0.588, 0.588, -0.809, 0, 0)"><path class="n" d="M0-26.25V0H13.125" transform="translate(-8.112 -1.285) rotate(18)"/><path class="n" d="M0,26.25V0H13.125" transform="translate(8.112 -1.285) rotate(162)"/></g></g><g transform="translate(4200 -777)"><path class="n" d="M0-21V0H10.5" transform="translate(-6.489 -1.028) rotate(18)"/><path class="n" d="M0,21V0H10.5" transform="translate(6.489 -1.028) rotate(162)"/><g transform="rotate(72)"><path class="n" d="M0-21V0H10.5" transform="translate(-6.489 -1.028) rotate(18)"/><path class="n" d="M0,21V0H10.5" transform="translate(6.489 -1.028) rotate(162)"/></g><g transform="rotate(-72)"><path class="n" d="M0-21V0H10.5" transform="translate(-6.489 -1.028) rotate(18)"/><path class="n" d="M0,21V0H10.5" transform="translate(6.489 -1.028) rotate(162)"/></g><g transform="matrix(-0.809, 0.588, -0.588, -0.809, 0, 0)"><path class="n" d="M0-21V0H10.5" transform="translate(-6.489 -1.028) rotate(18)"/><path class="n" d="M0,21V0H10.5" transform="translate(6.489 -1.028) rotate(162)"/></g><g transform="matrix(-0.809, -0.588, 0.588, -0.809, 0, 0)"><path class="n" d="M0-21V0H10.5" transform="translate(-6.489 -1.028) rotate(18)"/><path class="n" d="M0,21V0H10.5" transform="translate(6.489 -1.028) rotate(162)"/></g></g><g transform="translate(0 10395)"><path class="n" d="M0-31.5V0H15.75" transform="translate(-9.734 -1.542) rotate(18)"/><path class="n" d="M0,31.5V0H15.75" transform="translate(9.734 -1.542) rotate(162)"/><g transform="rotate(72)"><path class="n" d="M0-31.5V0H15.75" transform="translate(-9.734 -1.542) rotate(18)"/><path class="n" d="M0,31.5V0H15.75" transform="translate(9.734 -1.542) rotate(162)"/></g><g transform="rotate(-72)"><path class="n" d="M0-31.5V0H15.75" transform="translate(-9.734 -1.542) rotate(18)"/><path class="n" d="M0,31.5V0H15.75" transform="translate(9.734 -1.542) rotate(162)"/></g><g transform="matrix(-0.809, 0.588, -0.588, -0.809, 0, 0)"><path class="n" d="M0-31.5V0H15.75" transform="translate(-9.734 -1.542) rotate(18)"/><path class="n" d="M0,31.5V0H15.75" transform="translate(9.734 -1.542) rotate(162)"/></g><g transform="matrix(-0.809, -0.588, 0.588, -0.809, 0, 0)"><path class="n" d="M0-31.5V0H15.75" transform="translate(-9.734 -1.542) rotate(18)"/><path class="n" d="M0,31.5V0H15.75" transform="translate(9.734 -1.542) rotate(162)"/></g></g><g transform="translate(2231.25 4830)"><path class="n" d="M0-26.25V0H13.125" transform="translate(-8.112 -1.285) rotate(18)"/><path class="n" d="M0,26.25V0H13.125" transform="translate(8.112 -1.285) rotate(162)"/><g transform="rotate(72)"><path class="n" d="M0-26.25V0H13.125" transform="translate(-8.112 -1.285) rotate(18)"/><path class="n" d="M0,26.25V0H13.125" transform="translate(8.112 -1.285) rotate(162)"/></g><g transform="rotate(-72)"><path class="n" d="M0-26.25V0H13.125" transform="translate(-8.112 -1.285) rotate(18)"/><path class="n" d="M0,26.25V0H13.125" transform="translate(8.112 -1.285) rotate(162)"/></g><g transform="matrix(-0.809, 0.588, -0.588, -0.809, 0, 0)"><path class="n" d="M0-26.25V0H13.125" transform="translate(-8.112 -1.285) rotate(18)"/><path class="n" d="M0,26.25V0H13.125" transform="translate(8.112 -1.285) rotate(162)"/></g><g transform="matrix(-0.809, -0.588, 0.588, -0.809, 0, 0)"><path class="n" d="M0-26.25V0H13.125" transform="translate(-8.112 -1.285) rotate(18)"/><path class="n" d="M0,26.25V0H13.125" transform="translate(8.112 -1.285) rotate(162)"/></g></g><g transform="translate(0 3097.5)"><path class="n" d="M0-26.25V0H13.125" transform="translate(-8.112 -1.285) rotate(18)"/><path class="n" d="M0,26.25V0H13.125" transform="translate(8.112 -1.285) rotate(162)"/><g transform="rotate(72)"><path class="n" d="M0-26.25V0H13.125" transform="translate(-8.112 -1.285) rotate(18)"/><path class="n" d="M0,26.25V0H13.125" transform="translate(8.112 -1.285) rotate(162)"/></g><g transform="rotate(-72)"><path class="n" d="M0-26.25V0H13.125" transform="translate(-8.112 -1.285) rotate(18)"/><path class="n" d="M0,26.25V0H13.125" transform="translate(8.112 -1.285) rotate(162)"/></g><g transform="matrix(-0.809, 0.588, -0.588, -0.809, 0, 0)"><path class="n" d="M0-26.25V0H13.125" transform="translate(-8.112 -1.285) rotate(18)"/><path class="n" d="M0,26.25V0H13.125" transform="translate(8.112 -1.285) rotate(162)"/></g><g transform="matrix(-0.809, -0.588, 0.588, -0.809, 0, 0)"><path class="n" d="M0-26.25V0H13.125" transform="translate(-8.112 -1.285) rotate(18)"/><path class="n" d="M0,26.25V0H13.125" transform="translate(8.112 -1.285) rotate(162)"/></g></g><g transform="translate(-1554 3864)"><path class="n" d="M0-21V0H10.5" transform="translate(-6.489 -1.028) rotate(18)"/><path class="n" d="M0,21V0H10.5" transform="translate(6.489 -1.028) rotate(162)"/><g transform="rotate(72)"><path class="n" d="M0-21V0H10.5" transform="translate(-6.489 -1.028) rotate(18)"/><path class="n" d="M0,21V0H10.5" transform="translate(6.489 -1.028) rotate(162)"/></g><g transform="rotate(-72)"><path class="n" d="M0-21V0H10.5" transform="translate(-6.489 -1.028) rotate(18)"/><path class="n" d="M0,21V0H10.5" transform="translate(6.489 -1.028) rotate(162)"/></g><g transform="matrix(-0.809, 0.588, -0.588, -0.809, 0, 0)"><path class="n" d="M0-21V0H10.5" transform="translate(-6.489 -1.028) rotate(18)"/><path class="n" d="M0,21V0H10.5" transform="translate(6.489 -1.028) rotate(162)"/></g><g transform="matrix(-0.809, -0.588, 0.588, -0.809, 0, 0)"><path class="n" d="M0-21V0H10.5" transform="translate(-6.489 -1.028) rotate(18)"/><path class="n" d="M0,21V0H10.5" transform="translate(6.489 -1.028) rotate(162)"/></g></g><g transform="translate(-555 3525)"><path class="n" d="M0-15V0H7.5" transform="translate(-4.635 -0.734) rotate(18)"/><path class="n" d="M0,15V0H7.5" transform="translate(4.635 -0.734) rotate(162)"/><g transform="rotate(72)"><path class="n" d="M0-15V0H7.5" transform="translate(-4.635 -0.734) rotate(18)"/><path class="n" d="M0,15V0H7.5" transform="translate(4.635 -0.734) rotate(162)"/></g><g transform="rotate(-72)"><path class="n" d="M0-15V0H7.5" transform="translate(-4.635 -0.734) rotate(18)"/><path class="n" d="M0,15V0H7.5" transform="translate(4.635 -0.734) rotate(162)"/></g><g transform="matrix(-0.809, 0.588, -0.588, -0.809, 0, 0)"><path class="n" d="M0-15V0H7.5" transform="translate(-4.635 -0.734) rotate(18)"/><path class="n" d="M0,15V0H7.5" transform="translate(4.635 -0.734) rotate(162)"/></g><g transform="matrix(-0.809, -0.588, 0.588, -0.809, 0, 0)"><path class="n" d="M0-15V0H7.5" transform="translate(-4.635 -0.734) rotate(18)"/><path class="n" d="M0,15V0H7.5" transform="translate(4.635 -0.734) rotate(162)"/></g></g><g transform="translate(5775 12993.75)"><path class="n" d="M0-26.25V0H13.125" transform="translate(-8.112 -1.285) rotate(18)"/><path class="n" d="M0,26.25V0H13.125" transform="translate(8.112 -1.285) rotate(162)"/><g transform="rotate(72)"><path class="n" d="M0-26.25V0H13.125" transform="translate(-8.112 -1.285) rotate(18)"/><path class="n" d="M0,26.25V0H13.125" transform="translate(8.112 -1.285) rotate(162)"/></g><g transform="rotate(-72)"><path class="n" d="M0-26.25V0H13.125" transform="translate(-8.112 -1.285) rotate(18)"/><path class="n" d="M0,26.25V0H13.125" transform="translate(8.112 -1.285) rotate(162)"/></g><g transform="matrix(-0.809, 0.588, -0.588, -0.809, 0, 0)"><path class="n" d="M0-26.25V0H13.125" transform="translate(-8.112 -1.285) rotate(18)"/><path class="n" d="M0,26.25V0H13.125" transform="translate(8.112 -1.285) rotate(162)"/></g><g transform="matrix(-0.809, -0.588, 0.588, -0.809, 0, 0)"><path class="n" d="M0-26.25V0H13.125" transform="translate(-8.112 -1.285) rotate(18)"/><path class="n" d="M0,26.25V0H13.125" transform="translate(8.112 -1.285) rotate(162)"/></g></g><g transform="translate(5943 9030)"><path class="n" d="M0-21V0H10.5" transform="translate(-6.489 -1.028) rotate(18)"/><path class="n" d="M0,21V0H10.5" transform="translate(6.489 -1.028) rotate(162)"/><g transform="rotate(72)"><path class="n" d="M0-21V0H10.5" transform="translate(-6.489 -1.028) rotate(18)"/><path class="n" d="M0,21V0H10.5" transform="translate(6.489 -1.028) rotate(162)"/></g><g transform="rotate(-72)"><path class="n" d="M0-21V0H10.5" transform="translate(-6.489 -1.028) rotate(18)"/><path class="n" d="M0,21V0H10.5" transform="translate(6.489 -1.028) rotate(162)"/></g><g transform="matrix(-0.809, 0.588, -0.588, -0.809, 0, 0)"><path class="n" d="M0-21V0H10.5" transform="translate(-6.489 -1.028) rotate(18)"/><path class="n" d="M0,21V0H10.5" transform="translate(6.489 -1.028) rotate(162)"/></g><g transform="matrix(-0.809, -0.588, 0.588, -0.809, 0, 0)"><path class="n" d="M0-21V0H10.5" transform="translate(-6.489 -1.028) rotate(18)"/><path class="n" d="M0,21V0H10.5" transform="translate(6.489 -1.028) rotate(162)"/></g></g><g transform="translate(3402 8652)"><path class="n" d="M0-21V0H10.5" transform="translate(-6.489 -1.028) rotate(18)"/><path class="n" d="M0,21V0H10.5" transform="translate(6.489 -1.028) rotate(162)"/><g transform="rotate(72)"><path class="n" d="M0-21V0H10.5" transform="translate(-6.489 -1.028) rotate(18)"/><path class="n" d="M0,21V0H10.5" transform="translate(6.489 -1.028) rotate(162)"/></g><g transform="rotate(-72)"><path class="n" d="M0-21V0H10.5" transform="translate(-6.489 -1.028) rotate(18)"/><path class="n" d="M0,21V0H10.5" transform="translate(6.489 -1.028) rotate(162)"/></g><g transform="matrix(-0.809, 0.588, -0.588, -0.809, 0, 0)"><path class="n" d="M0-21V0H10.5" transform="translate(-6.489 -1.028) rotate(18)"/><path class="n" d="M0,21V0H10.5" transform="translate(6.489 -1.028) rotate(162)"/></g><g transform="matrix(-0.809, -0.588, 0.588, -0.809, 0, 0)"><path class="n" d="M0-21V0H10.5" transform="translate(-6.489 -1.028) rotate(18)"/><path class="n" d="M0,21V0H10.5" transform="translate(6.489 -1.028) rotate(162)"/></g></g><g transform="translate(-9292.5 12285)"><path class="n" d="M0-31.5V0H15.75" transform="translate(-9.734 -1.542) rotate(18)"/><path class="n" d="M0,31.5V0H15.75" transform="translate(9.734 -1.542) rotate(162)"/><g transform="rotate(72)"><path class="n" d="M0-31.5V0H15.75" transform="translate(-9.734 -1.542) rotate(18)"/><path class="n" d="M0,31.5V0H15.75" transform="translate(9.734 -1.542) rotate(162)"/></g><g transform="rotate(-72)"><path class="n" d="M0-31.5V0H15.75" transform="translate(-9.734 -1.542) rotate(18)"/><path class="n" d="M0,31.5V0H15.75" transform="translate(9.734 -1.542) rotate(162)"/></g><g transform="matrix(-0.809, 0.588, -0.588, -0.809, 0, 0)"><path class="n" d="M0-31.5V0H15.75" transform="translate(-9.734 -1.542) rotate(18)"/><path class="n" d="M0,31.5V0H15.75" transform="translate(9.734 -1.542) rotate(162)"/></g><g transform="matrix(-0.809, -0.588, 0.588, -0.809, 0, 0)"><path class="n" d="M0-31.5V0H15.75" transform="translate(-9.734 -1.542) rotate(18)"/><path class="n" d="M0,31.5V0H15.75" transform="translate(9.734 -1.542) rotate(162)"/></g></g><g transform="translate(0 6037.5)"><path class="n" d="M0-10.5V0H5.25" transform="translate(-3.245 -0.514) rotate(18)"/><path class="n" d="M0,10.5V0H5.25" transform="translate(3.245 -0.514) rotate(162)"/><g transform="rotate(72)"><path class="n" d="M0-10.5V0H5.25" transform="translate(-3.245 -0.514) rotate(18)"/><path class="n" d="M0,10.5V0H5.25" transform="translate(3.245 -0.514) rotate(162)"/></g><g transform="rotate(-72)"><path class="n" d="M0-10.5V0H5.25" transform="translate(-3.245 -0.514) rotate(18)"/><path class="n" d="M0,10.5V0H5.25" transform="translate(3.245 -0.514) rotate(162)"/></g><g transform="matrix(-0.809, 0.588, -0.588, -0.809, 0, 0)"><path class="n" d="M0-10.5V0H5.25" transform="translate(-3.245 -0.514) rotate(18)"/><path class="n" d="M0,10.5V0H5.25" transform="translate(3.245 -0.514) rotate(162)"/></g><g transform="matrix(-0.809, -0.588, 0.588, -0.809, 0, 0)"><path class="n" d="M0-10.5V0H5.25" transform="translate(-3.245 -0.514) rotate(18)"/><path class="n" d="M0,10.5V0H5.25" transform="translate(3.245 -0.514) rotate(162)"/></g></g></g></g><text class="v" transform="translate(556 202)"><tspan x="158.17" y="65">Go with the flow</tspan></text><text class="v" transform="translate(556 770)"><tspan x="84.811" y="65">You&apos;ve got the power</tspan></text><text class="w" transform="translate(556 285)"><tspan x="81.907" y="39">Let the Phil choose your next challenges. </tspan></text><text class="w" transform="translate(556 853)"><tspan x="158.979" y="39">You choose the next challenge.</tspan></text><g transform="translate(-310 -22.142)"><rect class="c" width="189.59" height="189.59" rx="42" transform="translate(556 410.142)"/><g class="x" transform="translate(556 410.142)"><path class="aq" d="M 354 187.0899963378906 L 42 187.0899963378906 C 36.66641998291016 187.0899963378906 31.49373626708984 186.0459442138672 26.62557983398438 183.9868927001953 C 21.92226409912109 181.9975738525391 17.69768333435059 179.1491546630859 14.06926345825195 175.5207366943359 C 10.44084167480469 171.8923187255859 7.592421054840088 167.6677398681641 5.603105068206787 162.9644165039063 C 3.544052600860596 158.0962677001953 2.5 152.923583984375 2.5 147.5899963378906 L 2.5 42 C 2.5 36.66641998291016 3.544052600860596 31.49373435974121 5.603105068206787 26.62557792663574 C 7.592421054840088 21.92226219177246 10.44084167480469 17.69768142700195 14.06926345825195 14.06926155090332 C 17.69768333435059 10.44084072113037 21.92226409912109 7.592419147491455 26.62557983398438 5.603103637695313 C 31.49373626708984 3.544050693511963 36.66641998291016 2.499998092651367 42 2.499998092651367 L 354 2.499998092651367 C 359.3335876464844 2.499998092651367 364.5062561035156 3.544050693511963 369.3744201660156 5.603103637695313 C 374.0777282714844 7.592419147491455 378.3023071289063 10.44084072113037 381.9307250976563 14.06926155090332 C 385.5591430664063 17.69768142700195 388.4075927734375 21.92226219177246 390.3968811035156 26.62557792663574 C 392.4559326171875 31.49373435974121 393.5 36.66641998291016 393.5 42 L 393.5 147.5899963378906 C 393.5 152.923583984375 392.4559326171875 158.0962677001953 390.3968811035156 162.9644165039063 C 388.4075927734375 167.6677398681641 385.5591430664063 171.8923187255859 381.9307250976563 175.5207366943359 C 378.3023071289063 179.1491546630859 374.0777282714844 181.9975738525391 369.3744201660156 183.9868927001953 C 364.5062561035156 186.0459442138672 359.3335876464844 187.0899963378906 354 187.0899963378906 Z"/><path class="ar" d="M 42 5 C 37.00283813476563 5 32.15777587890625 5.977569580078125 27.5994873046875 7.90557861328125 C 23.19415283203125 9.768890380859375 19.2366943359375 12.43742370605469 15.83706665039063 15.83705139160156 C 12.43740844726563 19.23667907714844 9.768890380859375 23.19415283203125 7.90557861328125 27.59947204589844 C 5.977569580078125 32.15779113769531 5 37.00283813476563 5 42 L 5 147.5899963378906 C 5 152.587158203125 5.977569580078125 157.4322052001953 7.90557861328125 161.9905242919922 C 9.768890380859375 166.3958435058594 12.43740844726563 170.3533172607422 15.83706665039063 173.7529449462891 C 19.2366943359375 177.1525726318359 23.19415283203125 179.8211059570313 27.5994873046875 181.6844177246094 C 32.15777587890625 183.6124267578125 37.00283813476563 184.5899963378906 42 184.5899963378906 L 354 184.5899963378906 C 358.9971618652344 184.5899963378906 363.8422241210938 183.6124267578125 368.4005126953125 181.6844177246094 C 372.8058471679688 179.8211059570313 376.7633056640625 177.1525726318359 380.1629333496094 173.7529449462891 C 383.5625915527344 170.3533172607422 386.2311096191406 166.3958435058594 388.0944213867188 161.9905242919922 C 390.0224304199219 157.4322052001953 391 152.587158203125 391 147.5899963378906 L 391 42 C 391 37.00283813476563 390.0224304199219 32.15779113769531 388.0944213867188 27.59947204589844 C 386.2311096191406 23.19415283203125 383.5625915527344 19.23667907714844 380.1629333496094 15.83705139160156 C 376.7633056640625 12.43742370605469 372.8058471679688 9.768890380859375 368.4005126953125 7.90557861328125 C 363.8422241210938 5.977569580078125 358.9971618652344 5 354 5 L 42 5 M 42 0 L 354 0 C 377.1958923339844 0 396 18.80404663085938 396 42 L 396 147.5899963378906 C 396 170.7859497070313 377.1958923339844 189.5899963378906 354 189.5899963378906 L 42 189.5899963378906 C 18.80404663085938 189.5899963378906 0 170.7859497070313 0 147.5899963378906 L 0 42 C 0 18.80404663085938 18.80404663085938 0 42 0 Z"/></g><g class="y" transform="translate(310 22.142)"><rect class="z" width="215.5" height="288" transform="translate(235 376)"/></g><text class="aa" transform="translate(763 484)"><tspan x="0" y="32">Challenge 1</tspan></text><g class="ab" transform="translate(556 410.142)"><path class="aq" d="M42,0H354a42,42,0,0,1,42,42V147.59a42,42,0,0,1-42,42H42a42,42,0,0,1-42-42V42A42,42,0,0,1,42,0Z"/><path class="ar" d="M 42 5 C 37.00283813476563 5 32.15777587890625 5.977569580078125 27.5994873046875 7.90557861328125 C 23.19415283203125 9.768890380859375 19.2366943359375 12.43742370605469 15.83706665039063 15.83705139160156 C 12.43740844726563 19.23667907714844 9.768890380859375 23.19415283203125 7.90557861328125 27.59947204589844 C 5.977569580078125 32.15779113769531 5 37.00283813476563 5 42 L 5 147.5899963378906 C 5 152.587158203125 5.977569580078125 157.4322052001953 7.90557861328125 161.9905242919922 C 9.768890380859375 166.3958435058594 12.43740844726563 170.3533172607422 15.83706665039063 173.7529449462891 C 19.2366943359375 177.1525726318359 23.19415283203125 179.8211059570313 27.5994873046875 181.6844177246094 C 32.15777587890625 183.6124267578125 37.00283813476563 184.5899963378906 42 184.5899963378906 L 354 184.5899963378906 C 358.9971618652344 184.5899963378906 363.8422241210938 183.6124267578125 368.4005126953125 181.6844177246094 C 372.8058471679688 179.8211059570313 376.7633056640625 177.1525726318359 380.1629333496094 173.7529449462891 C 383.5625915527344 170.3533172607422 386.2311096191406 166.3958435058594 388.0944213867188 161.9905242919922 C 390.0224304199219 157.4322052001953 391 152.587158203125 391 147.5899963378906 L 391 42 C 391 37.00283813476563 390.0224304199219 32.15779113769531 388.0944213867188 27.59947204589844 C 386.2311096191406 23.19415283203125 383.5625915527344 19.23667907714844 380.1629333496094 15.83705139160156 C 376.7633056640625 12.43742370605469 372.8058471679688 9.768890380859375 368.4005126953125 7.90557861328125 C 363.8422241210938 5.977569580078125 358.9971618652344 5 354 5 L 42 5 M 42 0 L 354 0 C 377.1958923339844 0 396 18.80404663085938 396 42 L 396 147.5899963378906 C 396 170.7859497070313 377.1958923339844 189.5899963378906 354 189.5899963378906 L 42 189.5899963378906 C 18.80404663085938 189.5899963378906 0 170.7859497070313 0 147.5899963378906 L 0 42 C 0 18.80404663085938 18.80404663085938 0 42 0 Z"/></g></g><g transform="translate(103 -22.142)"><rect class="c" width="189.59" height="189.59" rx="42" transform="translate(556 410.142)"/><g class="ac" transform="translate(0.41 0.142)"><rect class="ad" width="254" height="189.5" transform="translate(555.59 410)"/></g><text class="ae" transform="translate(763 484)"><tspan x="0" y="32">Challenge 2</tspan></text><g class="ab" transform="translate(556 410.142)"><path class="aq" d="M42,0H354a42,42,0,0,1,42,42V147.59a42,42,0,0,1-42,42H42a42,42,0,0,1-42-42V42A42,42,0,0,1,42,0Z"/><path class="as" d="M 42 5 C 37.00283813476563 5 32.15777587890625 5.977569580078125 27.5994873046875 7.90557861328125 C 23.19415283203125 9.768890380859375 19.2366943359375 12.43742370605469 15.83706665039063 15.83705139160156 C 12.43740844726563 19.23667907714844 9.768890380859375 23.19415283203125 7.90557861328125 27.59947204589844 C 5.977569580078125 32.15779113769531 5 37.00283813476563 5 42 L 5 147.5899963378906 C 5 152.587158203125 5.977569580078125 157.4322052001953 7.90557861328125 161.9905242919922 C 9.768890380859375 166.3958435058594 12.43740844726563 170.3533172607422 15.83706665039063 173.7529449462891 C 19.2366943359375 177.1525726318359 23.19415283203125 179.8211059570313 27.5994873046875 181.6844177246094 C 32.15777587890625 183.6124267578125 37.00283813476563 184.5899963378906 42 184.5899963378906 L 354 184.5899963378906 C 358.9971618652344 184.5899963378906 363.8422241210938 183.6124267578125 368.4005126953125 181.6844177246094 C 372.8058471679688 179.8211059570313 376.7633056640625 177.1525726318359 380.1629333496094 173.7529449462891 C 383.5625915527344 170.3533172607422 386.2311096191406 166.3958435058594 388.0944213867188 161.9905242919922 C 390.0224304199219 157.4322052001953 391 152.587158203125 391 147.5899963378906 L 391 42 C 391 37.00283813476563 390.0224304199219 32.15779113769531 388.0944213867188 27.59947204589844 C 386.2311096191406 23.19415283203125 383.5625915527344 19.23667907714844 380.1629333496094 15.83705139160156 C 376.7633056640625 12.43742370605469 372.8058471679688 9.768890380859375 368.4005126953125 7.90557861328125 C 363.8422241210938 5.977569580078125 358.9971618652344 5 354 5 L 42 5 M 42 0 L 354 0 C 377.1958923339844 0 396 18.80404663085938 396 42 L 396 147.5899963378906 C 396 170.7859497070313 377.1958923339844 189.5899963378906 354 189.5899963378906 L 42 189.5899963378906 C 18.80404663085938 189.5899963378906 0 170.7859497070313 0 147.5899963378906 L 0 42 C 0 18.80404663085938 18.80404663085938 0 42 0 Z"/></g></g><g transform="translate(-309 546)"><rect class="c" width="189.59" height="189.59" rx="42" transform="translate(556 410.142)"/><text class="ae" transform="translate(781 484)"><tspan x="0" y="32">Case 1</tspan></text><g class="af" transform="translate(227 -723)"><rect class="ag" width="282" height="210.5" rx="96" transform="translate(283 1123)"/></g><g class="ah" transform="translate(556 410.142)"><rect class="aq" width="395.59" height="189.59" rx="42"/><rect class="b" x="2.5" y="2.5" width="390.59" height="184.59" rx="39.5"/></g></g><g transform="translate(514 -22.142)"><g class="ai" transform="translate(556 410.142)"><rect class="aq" width="189.795" height="189.751" rx="42"/><rect class="b" x="2.5" y="2.5" width="184.795" height="184.751" rx="39.5"/></g></g><g transform="translate(720 -22.142)"><g class="ai" transform="translate(556 410.142)"><rect class="aq" width="189.795" height="189.751" rx="42"/><rect class="b" x="2.5" y="2.5" width="184.795" height="184.751" rx="39.5"/></g></g><g transform="translate(926.205 -22.142)"><g class="ai" transform="translate(556 410.142)"><rect class="aq" width="189.795" height="189.751" rx="42"/><rect class="b" x="2.5" y="2.5" width="184.795" height="184.751" rx="39.5"/></g></g><g transform="translate(103.41 546)"><rect class="c" width="189.59" height="189.59" rx="42" transform="translate(556 410.142)"/><text class="ae" transform="translate(781 484)"><tspan x="0" y="32">Case 2</tspan></text><g class="aj" transform="translate(-103.41 -546)"><rect class="ak" width="253" height="189.5" transform="translate(636 956)"/></g><g class="ah" transform="translate(556 410.142)"><rect class="aq" width="395.59" height="189.59" rx="42"/><rect class="b" x="2.5" y="2.5" width="390.59" height="184.59" rx="39.5"/></g></g><g transform="translate(515.41 546)"><rect class="c" width="189.59" height="189.59" rx="42" transform="translate(556 410.142)"/><text class="ae" transform="translate(781 484)"><tspan x="0" y="32">Case 3</tspan></text><g class="ac"><rect class="ad" width="254" height="189.5" transform="translate(555.59 410)"/></g><g class="ah" transform="translate(556 410.142)"><rect class="aq" width="395.59" height="189.59" rx="42"/><rect class="b" x="2.5" y="2.5" width="390.59" height="184.59" rx="39.5"/></g></g><g transform="translate(927 546)"><text class="ae" transform="translate(606 484)"><tspan x="0" y="32">More...</tspan></text><g class="ah" transform="translate(556 410.142)"><rect class="aq" width="189.59" height="189.59" rx="42"/><rect class="b" x="2.5" y="2.5" width="184.59" height="184.59" rx="39.5"/></g></g><g transform="translate(-12312 63)"><g class="al"><g transform="translate(12757.771 -673.173)"><g transform="translate(1180.229 621.173)"><rect class="am" width="59.312" height="31.217"/></g><g transform="translate(1180.229 623.623)"><path class="n" d="M1239.542,649.753h-59.312v-2.305h59.313Zm0-4.8h-59.312v-2.3h59.313Zm0-4.8h-59.312v-2.3h59.313Zm0-4.8h-59.312v-2.305h59.313Zm0-4.8h-59.312v-2.306h59.313Zm0-4.8h-59.312v-2.306h59.313Z" transform="translate(-1180.229 -623.435)"/></g><g transform="translate(1180.229 621.173)"><rect class="an" width="23.725" height="16.809"/></g><g transform="translate(1181.292 621.894)"><path class="n" d="M1182.125,621.839l.564,1.737-1.478-1.074h1.827l-1.477,1.074Z" transform="translate(-1181.211 -621.839)"/><g transform="translate(0 3.361)"><path class="n" d="M1182.125,624.943l.564,1.737-1.478-1.073h1.827l-1.477,1.073Z" transform="translate(-1181.211 -624.943)"/></g><g transform="translate(0 6.723)"><path class="n" d="M1182.125,628.047l.564,1.738-1.478-1.074h1.827l-1.477,1.074Z" transform="translate(-1181.211 -628.047)"/></g><g transform="translate(0 10.085)"><path class="n" d="M1182.125,631.152l.564,1.737-1.478-1.073h1.827l-1.477,1.073Z" transform="translate(-1181.211 -631.152)"/></g><g transform="translate(0 13.447)"><path class="n" d="M1182.125,634.256l.564,1.738-1.478-1.074h1.827l-1.477,1.074Z" transform="translate(-1181.211 -634.256)"/></g><g transform="translate(1.977 1.681)"><path class="n" d="M1183.951,623.391l.564,1.737-1.478-1.073h1.827l-1.478,1.073Z" transform="translate(-1183.037 -623.391)"/><g transform="translate(0 3.361)"><path class="n" d="M1183.951,626.495l.564,1.738-1.478-1.074h1.827l-1.478,1.074Z" transform="translate(-1183.037 -626.495)"/></g><g transform="translate(0 6.724)"><path class="n" d="M1183.951,629.6l.564,1.737-1.478-1.074h1.827l-1.478,1.074Z" transform="translate(-1183.037 -629.6)"/></g><g transform="translate(0 10.085)"><path class="n" d="M1183.951,632.7l.564,1.738-1.478-1.074h1.827l-1.478,1.074Z" transform="translate(-1183.037 -632.704)"/></g></g><g transform="translate(3.955)"><path class="n" d="M1185.776,621.839l.565,1.737-1.478-1.074h1.827l-1.478,1.074Z" transform="translate(-1184.863 -621.839)"/><g transform="translate(0 3.361)"><path class="n" d="M1185.776,624.943l.565,1.737-1.478-1.073h1.827l-1.478,1.073Z" transform="translate(-1184.863 -624.943)"/></g><g transform="translate(0 6.723)"><path class="n" d="M1185.776,628.047l.565,1.738-1.478-1.074h1.827l-1.478,1.074Z" transform="translate(-1184.863 -628.047)"/></g><g transform="translate(0 10.085)"><path class="n" d="M1185.776,631.152l.565,1.737-1.478-1.073h1.827l-1.478,1.073Z" transform="translate(-1184.863 -631.152)"/></g><g transform="translate(0 13.447)"><path class="n" d="M1185.776,634.256l.565,1.738-1.478-1.074h1.827l-1.478,1.074Z" transform="translate(-1184.863 -634.256)"/></g><g transform="translate(1.976 1.681)"><path class="n" d="M1187.6,623.391l.564,1.737-1.478-1.073h1.828l-1.478,1.073Z" transform="translate(-1186.688 -623.391)"/><g transform="translate(0 3.361)"><path class="n" d="M1187.6,626.495l.564,1.738-1.478-1.074h1.828l-1.478,1.074Z" transform="translate(-1186.688 -626.495)"/></g><g transform="translate(0 6.724)"><path class="n" d="M1187.6,629.6l.564,1.737-1.478-1.074h1.828l-1.478,1.074Z" transform="translate(-1186.688 -629.6)"/></g><g transform="translate(0 10.085)"><path class="n" d="M1187.6,632.7l.564,1.738-1.478-1.074h1.828l-1.478,1.074Z" transform="translate(-1186.688 -632.704)"/></g></g></g><g transform="translate(7.909)"><path class="n" d="M1189.428,621.839l.564,1.737-1.478-1.074h1.827l-1.478,1.074Z" transform="translate(-1188.514 -621.839)"/><g transform="translate(0 3.361)"><path class="n" d="M1189.428,624.943l.564,1.737-1.478-1.073h1.827l-1.478,1.073Z" transform="translate(-1188.514 -624.943)"/></g><g transform="translate(0 6.723)"><path class="n" d="M1189.428,628.047l.564,1.738-1.478-1.074h1.827l-1.478,1.074Z" transform="translate(-1188.514 -628.047)"/></g><g transform="translate(0 10.085)"><path class="n" d="M1189.428,631.152l.564,1.737-1.478-1.073h1.827l-1.478,1.073Z" transform="translate(-1188.514 -631.152)"/></g><g transform="translate(0 13.447)"><path class="n" d="M1189.428,634.256l.564,1.738-1.478-1.074h1.827l-1.478,1.074Z" transform="translate(-1188.514 -634.256)"/></g><g transform="translate(1.977 1.681)"><path class="n" d="M1191.253,623.391l.565,1.737-1.478-1.073h1.827l-1.478,1.073Z" transform="translate(-1190.34 -623.391)"/><g transform="translate(0 3.361)"><path class="n" d="M1191.253,626.495l.565,1.738-1.478-1.074h1.827l-1.478,1.074Z" transform="translate(-1190.34 -626.495)"/></g><g transform="translate(0 6.724)"><path class="n" d="M1191.253,629.6l.565,1.737-1.478-1.074h1.827l-1.478,1.074Z" transform="translate(-1190.34 -629.6)"/></g><g transform="translate(0 10.085)"><path class="n" d="M1191.253,632.7l.565,1.738-1.478-1.074h1.827l-1.478,1.074Z" transform="translate(-1190.34 -632.704)"/></g></g><g transform="translate(3.955)"><path class="n" d="M1193.079,621.839l.564,1.737-1.477-1.074h1.827l-1.478,1.074Z" transform="translate(-1192.166 -621.839)"/><g transform="translate(0 3.361)"><path class="n" d="M1193.079,624.943l.564,1.737-1.477-1.073h1.827l-1.478,1.073Z" transform="translate(-1192.166 -624.943)"/></g><g transform="translate(0 6.723)"><path class="n" d="M1193.079,628.047l.564,1.738-1.477-1.074h1.827l-1.478,1.074Z" transform="translate(-1192.166 -628.047)"/></g><g transform="translate(0 10.085)"><path class="n" d="M1193.079,631.152l.564,1.737-1.477-1.073h1.827l-1.478,1.073Z" transform="translate(-1192.166 -631.152)"/></g><g transform="translate(0 13.447)"><path class="n" d="M1193.079,634.256l.564,1.738-1.477-1.074h1.827l-1.478,1.074Z" transform="translate(-1192.166 -634.256)"/></g><g transform="translate(1.976 1.681)"><path class="n" d="M1194.905,623.391l.564,1.737-1.478-1.073h1.827l-1.478,1.073Z" transform="translate(-1193.991 -623.391)"/><g transform="translate(0 3.361)"><path class="n" d="M1194.905,626.495l.564,1.738-1.478-1.074h1.827l-1.478,1.074Z" transform="translate(-1193.991 -626.495)"/></g><g transform="translate(0 6.724)"><path class="n" d="M1194.905,629.6l.564,1.737-1.478-1.074h1.827l-1.478,1.074Z" transform="translate(-1193.991 -629.6)"/></g><g transform="translate(0 10.085)"><path class="n" d="M1194.905,632.7l.564,1.738-1.478-1.074h1.827l-1.478,1.074Z" transform="translate(-1193.991 -632.704)"/></g></g></g></g><g transform="translate(15.817)"><path class="n" d="M1196.73,621.839l.565,1.737-1.478-1.074h1.827l-1.478,1.074Z" transform="translate(-1195.817 -621.839)"/><g transform="translate(0 3.361)"><path class="n" d="M1196.73,624.943l.565,1.737-1.478-1.073h1.827l-1.478,1.073Z" transform="translate(-1195.817 -624.943)"/></g><g transform="translate(0 6.723)"><path class="n" d="M1196.73,628.047l.565,1.738-1.478-1.074h1.827l-1.478,1.074Z" transform="translate(-1195.817 -628.047)"/></g><g transform="translate(0 10.085)"><path class="n" d="M1196.73,631.152l.565,1.737-1.478-1.073h1.827l-1.478,1.073Z" transform="translate(-1195.817 -631.152)"/></g><g transform="translate(0 13.447)"><path class="n" d="M1196.73,634.256l.565,1.738-1.478-1.074h1.827l-1.478,1.074Z" transform="translate(-1195.817 -634.256)"/></g><g transform="translate(1.977 1.681)"><path class="n" d="M1198.556,623.391l.565,1.737-1.478-1.073h1.827l-1.478,1.073Z" transform="translate(-1197.643 -623.391)"/><g transform="translate(0 3.361)"><path class="n" d="M1198.556,626.495l.565,1.738-1.478-1.074h1.827l-1.478,1.074Z" transform="translate(-1197.643 -626.495)"/></g><g transform="translate(0 6.724)"><path class="n" d="M1198.556,629.6l.565,1.737-1.478-1.074h1.827l-1.478,1.074Z" transform="translate(-1197.643 -629.6)"/></g><g transform="translate(0 10.085)"><path class="n" d="M1198.556,632.7l.565,1.738-1.478-1.074h1.827l-1.478,1.074Z" transform="translate(-1197.643 -632.704)"/></g></g></g><g transform="translate(19.771)"><path class="n" d="M1200.382,621.839l.564,1.737-1.478-1.074h1.827l-1.477,1.074Z" transform="translate(-1199.468 -621.839)"/><g transform="translate(0 3.361)"><path class="n" d="M1200.382,624.943l.564,1.737-1.478-1.073h1.827l-1.477,1.073Z" transform="translate(-1199.468 -624.943)"/></g><g transform="translate(0 6.723)"><path class="n" d="M1200.382,628.047l.564,1.738-1.478-1.074h1.827l-1.477,1.074Z" transform="translate(-1199.468 -628.047)"/></g><g transform="translate(0 10.085)"><path class="n" d="M1200.382,631.152l.564,1.737-1.478-1.073h1.827l-1.477,1.073Z" transform="translate(-1199.468 -631.152)"/></g><g transform="translate(0 13.447)"><path class="n" d="M1200.382,634.256l.564,1.738-1.478-1.074h1.827l-1.477,1.074Z" transform="translate(-1199.468 -634.256)"/></g></g></g></g></g><g class="d" transform="translate(13937 -52.783)"><rect class="aq" width="48" height="32" rx="14"/><rect class="b" x="0.5" y="0.5" width="47" height="31" rx="13.5"/></g></g><path class="ao" d="M1970.876-36.281c.244,0,.479,0,.714,0,.928.009,1.861-.029,2.785.04,1.087.082,1.507.579,1.56,1.677.01.208.011.417.011.625q0,11.83,0,23.66a7.036,7.036,0,0,1-.063,1.019,1.279,1.279,0,0,1-1.192,1.179,4.47,4.47,0,0,1-.651.052q-17.319,0-34.638,0a3.718,3.718,0,0,1-.453-.028,1.415,1.415,0,0,1-1.447-1.562c-.018-.34-.012-.682-.012-1.024q0-11.56,0-23.12a8.281,8.281,0,0,1,.045-1.134,1.35,1.35,0,0,1,1.37-1.333c.991-.077,1.987-.088,2.981-.121.3-.01.6,0,.946,0,0-.162,0-.272,0-.381,0-2.36-.053-4.722.025-7.08a13.827,13.827,0,0,1,5.611-10.973,12.342,12.342,0,0,1,5.8-2.307,15.278,15.278,0,0,1,8.093.895,13.961,13.961,0,0,1,8.094,9.507,16.416,16.416,0,0,1,.213,3.17c.055,2.359.122,4.718.185,7.077A1.515,1.515,0,0,0,1970.876-36.281Zm-22.3-.086h16.808a.8.8,0,0,0,.02-.125c-.029-2.718.009-5.44-.107-8.154a7.177,7.177,0,0,0-3.765-6.115,9.168,9.168,0,0,0-6.945-.966,7.092,7.092,0,0,0-5.577,5.026,12.489,12.489,0,0,0-.473,3.595c-.021,1.7.024,3.41.038,5.115C1948.578-37.454,1948.574-36.917,1948.574-36.367Zm12.274,21.791c-.027-.139-.047-.25-.069-.359q-.8-3.879-1.61-7.758a.406.406,0,0,1,.131-.422,3.448,3.448,0,0,0,1.047-2.387,3.579,3.579,0,0,0-2.56-3.557,3.581,3.581,0,0,0-4.082,1.6,3.537,3.537,0,0,0,.539,4.341.433.433,0,0,1,.13.449q-.675,3.224-1.342,6.45c-.112.542-.22,1.085-.333,1.646Z" transform="translate(-791.311 515.223)"/><path class="ao" d="M1970.876-36.281c.244,0,.479,0,.714,0,.928.009,1.861-.029,2.785.04,1.087.082,1.507.579,1.56,1.677.01.208.011.417.011.625q0,11.83,0,23.66a7.036,7.036,0,0,1-.063,1.019,1.279,1.279,0,0,1-1.192,1.179,4.47,4.47,0,0,1-.651.052q-17.319,0-34.638,0a3.718,3.718,0,0,1-.453-.028,1.415,1.415,0,0,1-1.447-1.562c-.018-.34-.012-.682-.012-1.024q0-11.56,0-23.12a8.281,8.281,0,0,1,.045-1.134,1.35,1.35,0,0,1,1.37-1.333c.991-.077,1.987-.088,2.981-.121.3-.01.6,0,.946,0,0-.162,0-.272,0-.381,0-2.36-.053-4.722.025-7.08a13.827,13.827,0,0,1,5.611-10.973,12.342,12.342,0,0,1,5.8-2.307,15.278,15.278,0,0,1,8.093.895,13.961,13.961,0,0,1,8.094,9.507,16.416,16.416,0,0,1,.213,3.17c.055,2.359.122,4.718.185,7.077A1.515,1.515,0,0,0,1970.876-36.281Zm-22.3-.086h16.808a.8.8,0,0,0,.02-.125c-.029-2.718.009-5.44-.107-8.154a7.177,7.177,0,0,0-3.765-6.115,9.168,9.168,0,0,0-6.945-.966,7.092,7.092,0,0,0-5.577,5.026,12.489,12.489,0,0,0-.473,3.595c-.021,1.7.024,3.41.038,5.115C1948.578-37.454,1948.574-36.917,1948.574-36.367Zm12.274,21.791c-.027-.139-.047-.25-.069-.359q-.8-3.879-1.61-7.758a.406.406,0,0,1,.131-.422,3.448,3.448,0,0,0,1.047-2.387,3.579,3.579,0,0,0-2.56-3.557,3.581,3.581,0,0,0-4.082,1.6,3.537,3.537,0,0,0,.539,4.341.433.433,0,0,1,.13.449q-.675,3.224-1.342,6.45c-.112.542-.22,1.085-.333,1.646Z" transform="translate(-585.311 515.223)"/><path class="ao" d="M1970.876-36.281c.244,0,.479,0,.714,0,.928.009,1.861-.029,2.785.04,1.087.082,1.507.579,1.56,1.677.01.208.011.417.011.625q0,11.83,0,23.66a7.036,7.036,0,0,1-.063,1.019,1.279,1.279,0,0,1-1.192,1.179,4.47,4.47,0,0,1-.651.052q-17.319,0-34.638,0a3.718,3.718,0,0,1-.453-.028,1.415,1.415,0,0,1-1.447-1.562c-.018-.34-.012-.682-.012-1.024q0-11.56,0-23.12a8.281,8.281,0,0,1,.045-1.134,1.35,1.35,0,0,1,1.37-1.333c.991-.077,1.987-.088,2.981-.121.3-.01.6,0,.946,0,0-.162,0-.272,0-.381,0-2.36-.053-4.722.025-7.08a13.827,13.827,0,0,1,5.611-10.973,12.342,12.342,0,0,1,5.8-2.307,15.278,15.278,0,0,1,8.093.895,13.961,13.961,0,0,1,8.094,9.507,16.416,16.416,0,0,1,.213,3.17c.055,2.359.122,4.718.185,7.077A1.515,1.515,0,0,0,1970.876-36.281Zm-22.3-.086h16.808a.8.8,0,0,0,.02-.125c-.029-2.718.009-5.44-.107-8.154a7.177,7.177,0,0,0-3.765-6.115,9.168,9.168,0,0,0-6.945-.966,7.092,7.092,0,0,0-5.577,5.026,12.489,12.489,0,0,0-.473,3.595c-.021,1.7.024,3.41.038,5.115C1948.578-37.454,1948.574-36.917,1948.574-36.367Zm12.274,21.791c-.027-.139-.047-.25-.069-.359q-.8-3.879-1.61-7.758a.406.406,0,0,1,.131-.422,3.448,3.448,0,0,0,1.047-2.387,3.579,3.579,0,0,0-2.56-3.557,3.581,3.581,0,0,0-4.082,1.6,3.537,3.537,0,0,0,.539,4.341.433.433,0,0,1,.13.449q-.675,3.224-1.342,6.45c-.112.542-.22,1.085-.333,1.646Z" transform="translate(-379.105 515.223)"/><path class="ap" d="M394.216,1128.239l-1.206-.854q-2.9-2.06-5.8-4.123a.279.279,0,0,0-.39,0q-3.157,2.255-6.322,4.5l-.692.49c.156-.478.3-.909.438-1.339q1.094-3.317,2.189-6.634c.125-.38.129-.381-.2-.614l-6.7-4.793-.3-.213c.089-.007.134-.014.179-.014q4.283,0,8.566.006a.313.313,0,0,0,.362-.257c.875-2.706,1.76-5.409,2.654-8.146a1.2,1.2,0,0,1,.083.158q.956,2.933,1.91,5.866c.235.722.481,1.441.708,2.166a.264.264,0,0,0,.307.213q4.3-.008,8.609,0h.186l-.57.409q-3.295,2.36-6.593,4.716a.244.244,0,0,0-.1.337q1.331,4.019,2.654,8.041A.637.637,0,0,1,394.216,1128.239Z" transform="translate(121.776 -681.463)"/><path class="ap" d="M394.216,1128.239l-1.206-.854q-2.9-2.06-5.8-4.123a.279.279,0,0,0-.39,0q-3.157,2.255-6.322,4.5l-.692.49c.156-.478.3-.909.438-1.339q1.094-3.317,2.189-6.634c.125-.38.129-.381-.2-.614l-6.7-4.793-.3-.213c.089-.007.134-.014.179-.014q4.283,0,8.566.006a.313.313,0,0,0,.362-.257c.875-2.706,1.76-5.409,2.654-8.146a1.2,1.2,0,0,1,.083.158q.956,2.933,1.91,5.866c.235.722.481,1.441.708,2.166a.264.264,0,0,0,.307.213q4.3-.008,8.609,0h.186l-.57.409q-3.295,2.36-6.593,4.716a.244.244,0,0,0-.1.337q1.331,4.019,2.654,8.041A.637.637,0,0,1,394.216,1128.239Z" transform="translate(147.733 -681.463)"/><path class="ap" d="M394.216,1128.239l-1.206-.854q-2.9-2.06-5.8-4.123a.279.279,0,0,0-.39,0q-3.157,2.255-6.322,4.5l-.692.49c.156-.478.3-.909.438-1.339q1.094-3.317,2.189-6.634c.125-.38.129-.381-.2-.614l-6.7-4.793-.3-.213c.089-.007.134-.014.179-.014q4.283,0,8.566.006a.313.313,0,0,0,.362-.257c.875-2.706,1.76-5.409,2.654-8.146a1.2,1.2,0,0,1,.083.158q.956,2.933,1.91,5.866c.235.722.481,1.441.708,2.166a.264.264,0,0,0,.307.213q4.3-.008,8.609,0h.186l-.57.409q-3.295,2.36-6.593,4.716a.244.244,0,0,0-.1.337q1.331,4.019,2.654,8.041A.637.637,0,0,1,394.216,1128.239Z" transform="translate(173.69 -681.463)"/></g></svg>