<svg xmlns="http://www.w3.org/2000/svg" xmlns:xlink="http://www.w3.org/1999/xlink" width="414" height="856" viewBox="0 0 414 856"><defs><style>.a,.b,.l,.u{fill:#fff;}.a,.e{stroke:#a2a2a2;}.b{stroke:#707070;}.c{clip-path:url(#e);}.d{fill:#e3e3e3;}.e,.p,.x{fill:none;}.f,.r{fill:#707070;}.f{font-size:11px;}.f,.n,.r,.u{font-family:SegoeUI, Segoe UI;}.g{clip-path:url(#a);}.h{fill:#009b3a;}.i{fill:#fedf00;}.j{fill:#002776;}.k{clip-path:url(#b);}.m,.o{fill:#666;font-family:SegoeUI-Bold, Segoe UI;font-weight:700;}.m{font-size:13px;}.n{font-weight:400;}.o,.q{font-size:20px;}.p{stroke:#346e93;}.q,.v{fill:#346e93;}.q{font-family:SegoeUIBlack, Segoe UI;}.r,.u{font-size:15px;}.s{clip-path:url(#c);}.t{fill:#ba2027;}.w{stroke:none;}</style><clipPath id="a"><rect class="a" width="28.143" height="18.762" rx="9.381"/></clipPath><clipPath id="b"><ellipse cx="4.925" cy="4.925" rx="4.925" ry="4.925"/></clipPath><clipPath id="c"><rect class="b" width="213.811" height="40.353" transform="translate(534 680)"/></clipPath><clipPath id="e"><rect width="414" height="856"/></clipPath></defs><g id="d" class="c"><rect class="l" width="414" height="856"/><rect class="d" width="414" height="40"/><g class="e" transform="translate(281.394 11.455)"><rect class="w" width="68.013" height="18.508" rx="9.254"/><rect class="x" x="0.5" y="0.5" width="67.013" height="17.508" rx="8.754"/></g><text class="f" transform="translate(301.328 24.5)"><tspan x="0" y="0">Entrar</tspan></text><g class="g" transform="translate(355.856 11.455)"><g transform="translate(0 -0.67)"><rect class="h" width="28.144" height="19.701"/><path class="i" d="M-1743-1105.542l11.68,7.458,11.68-7.458-11.68-7.458Z" transform="translate(1745.393 1115.392)"/><ellipse class="j" cx="4.925" cy="4.925" rx="4.925" ry="4.925" transform="translate(9.267 4.925)"/><g class="k" transform="translate(9.267 4.925)"><path class="l" d="M-2205-303.039A11.961,11.961,0,0,1-2193.039-315a11.961,11.961,0,0,1,11.961,11.961h-.7a11.258,11.258,0,0,0-11.258-11.258,11.258,11.258,0,0,0-11.257,11.258Z" transform="translate(2195.15 317.814)"/></g></g></g><g transform="translate(0 -4753)"><path class="d" d="M0,0H414V103.379H0Z" transform="translate(0 5396)"/><path class="d" d="M0,0H414V51.763H0Z" transform="translate(0 5588.834)"/><text class="m" transform="translate(212 5408)"><tspan x="0" y="14">Fale com o Jacinto</tspan><tspan class="n"><tspan x="0" y="31">jacintobemelhor@gmail.com</tspan></tspan></text><text class="m" transform="translate(36 5408)"><tspan x="0" y="14">Equipe</tspan><tspan class="n"><tspan x="0" y="31">Fulano da Silva Sauro Reis</tspan><tspan x="0" y="48">Ciclano da Mendonça Reis</tspan><tspan x="0" y="65">Beltrano de Almeida Barros</tspan></tspan></text><text class="o" transform="translate(36 5515)"><tspan x="105.956" y="22">Siga o Jacinto</tspan><tspan class="n"><tspan x="76.977" y="49">Facebook | Instagram</tspan></tspan></text></g><g class="p" transform="translate(35.5 390)"><rect class="w" width="342.5" height="45" rx="22.5"/><rect class="x" x="0.5" y="0.5" width="341.5" height="44" rx="22"/></g><text class="q" transform="translate(87 72.189)"><tspan x="0" y="22">Consegue resolver </tspan><tspan x="0" y="49">este desafio?</tspan></text><text class="r" transform="translate(87 144.063)"><tspan x="0" y="0">Veja um caso completo, do início ao fim. </tspan></text><g class="p" transform="translate(35.5 212)"><rect class="w" width="342.5" height="45" rx="22.5"/><rect class="x" x="0.5" y="0.5" width="341.5" height="44" rx="22"/></g><g class="p" transform="translate(35.5 301)"><rect class="w" width="342.5" height="45" rx="22.5"/><rect class="x" x="0.5" y="0.5" width="341.5" height="44" rx="22"/></g><text class="r" transform="translate(36 203)"><tspan x="0" y="0">Seu nome</tspan></text><text class="r" transform="translate(36 292)"><tspan x="0" y="0">Seu e-mail</tspan></text><text class="r" transform="translate(36 381)"><tspan x="0" y="0">Sua idade</tspan></text><text class="r" transform="translate(35.5 454)"><tspan x="0" y="16">Como você está hoje?</tspan></text><g class="s" transform="translate(-434 -203)"><image width="218.744" height="76.15" transform="translate(528.024 670.237)" xlink:href="iPhone%206-7-8%20Plus%20-%202-image.png"/></g><rect class="t" width="166" height="38" rx="19" transform="translate(124 561)"/><text class="u" transform="translate(163 586)"><tspan x="0" y="0">Quero tentar!</tspan></text><g transform="translate(-154 17.607)"><circle class="v" cx="16.196" cy="16.196" r="16.196" transform="translate(190 66)"/><path class="l" d="M837.481,174.822H824.039a.23.23,0,0,1-.163-.393l2.987-2.987a.23.23,0,0,0,0-.326l-2.06-2.06a.231.231,0,0,0-.326,0l-5.766,5.766h-.024v.024l-1.512,1.512a.231.231,0,0,0,0,.326l7.3,7.3a.23.23,0,0,0,.326,0l2.06-2.059a.23.23,0,0,0,0-.326l-3.012-3.012a.23.23,0,0,1,.163-.393h13.466a.23.23,0,0,0,.23-.23v-2.913A.23.23,0,0,0,837.481,174.822Z" transform="translate(-621.34 -94.114)"/></g></g></svg>