<svg xmlns="http://www.w3.org/2000/svg" xmlns:xlink="http://www.w3.org/1999/xlink" width="414" height="736" viewBox="0 0 414 736"><defs><style>.a,.b,.c{fill:#fff;}.a,.f{stroke:#a2a2a2;}.c{stroke:#707070;}.d{clip-path:url(#l);}.e{fill:#e3e3e3;}.f,.t,.y{fill:none;}.g,.q{fill:#707070;}.g{font-size:11px;}.g,.n,.q,.w{font-family:SegoeUI, Segoe UI;}.h{clip-path:url(#a);}.i{fill:#009b3a;}.j{fill:#fedf00;}.k{fill:#002776;}.l{clip-path:url(#b);}.m,.o,.w{fill:#666;}.m{font-size:13px;}.m,.o{font-family:SegoeUI-Bold, Segoe UI;font-weight:700;}.n{font-weight:400;}.o,.p{font-size:20px;}.p,.r{fill:#346e93;}.p{font-family:SegoeUIBlack, Segoe UI;}.q,.w{font-size:15px;}.s{clip-path:url(#c);}.t{stroke:#346e93;stroke-width:5px;}.u{clip-path:url(#d);}.v{clip-path:url(#e);}.x{stroke:none;}</style><clipPath id="a"><rect class="a" width="28.143" height="18.762" rx="9.381"/></clipPath><clipPath id="b"><ellipse cx="4.925" cy="4.925" rx="4.925" ry="4.925"/></clipPath><clipPath id="c"><rect class="b" width="77.85" height="77.85" rx="38.925"/></clipPath><clipPath id="d"><rect class="b" width="77.851" height="77.851" rx="38.926" transform="translate(0 0)"/></clipPath><clipPath id="e"><rect class="c" width="77.851" height="77.851" rx="38.926" transform="translate(0 0)"/></clipPath><clipPath id="l"><rect width="414" height="736"/></clipPath></defs><g id="k" class="d"><rect class="b" width="414" height="736"/><rect class="e" width="414" height="40"/><g class="f" transform="translate(281.394 11.455)"><rect class="x" width="68.013" height="18.508" rx="9.254"/><rect class="y" x="0.5" y="0.5" width="67.013" height="17.508" rx="8.754"/></g><text class="g" transform="translate(301.328 24.5)"><tspan x="0" y="0">Entrar</tspan></text><g class="h" transform="translate(355.856 11.455)"><g transform="translate(0 -0.67)"><rect class="i" width="28.144" height="19.701"/><path class="j" d="M-1743-1105.542l11.68,7.458,11.68-7.458-11.68-7.458Z" transform="translate(1745.393 1115.392)"/><ellipse class="k" cx="4.925" cy="4.925" rx="4.925" ry="4.925" transform="translate(9.267 4.925)"/><g class="l" transform="translate(9.267 4.925)"><path class="b" d="M-2205-303.039A11.961,11.961,0,0,1-2193.039-315a11.961,11.961,0,0,1,11.961,11.961h-.7a11.258,11.258,0,0,0-11.258-11.258,11.258,11.258,0,0,0-11.257,11.258Z" transform="translate(2195.15 317.814)"/></g></g></g><g transform="translate(0 -4879)"><path class="e" d="M0,0H414V103.379H0Z" transform="translate(0 5396)"/><path class="e" d="M0,0H414V51.763H0Z" transform="translate(0 5588.834)"/><text class="m" transform="translate(212 5408)"><tspan x="0" y="14">Fale com o Jacinto</tspan><tspan class="n"><tspan x="0" y="31">jacintobemelhor@gmail.com</tspan></tspan></text><text class="m" transform="translate(36 5408)"><tspan x="0" y="14">Equipe</tspan><tspan class="n"><tspan x="0" y="31">Fulano da Silva Sauro Reis</tspan><tspan x="0" y="48">Ciclano da Mendonça Reis</tspan><tspan x="0" y="65">Beltrano de Almeida Barros</tspan></tspan></text><text class="o" transform="translate(36 5515)"><tspan x="105.956" y="22">Siga o Jacinto</tspan><tspan class="n"><tspan x="76.977" y="49">Facebook | Instagram</tspan></tspan></text></g><text class="p" transform="translate(88 73.189)"><tspan x="0" y="22">Escolha um avatar</tspan></text><text class="q" transform="translate(88 100.063)"><tspan x="0" y="16">Fulano, escolha uma imagem </tspan><tspan x="0" y="36">que te representa.</tspan></text><g transform="translate(-154 17.607)"><circle class="r" cx="16.196" cy="16.196" r="16.196" transform="translate(190 66)"/><path class="b" d="M837.481,174.822H824.039a.23.23,0,0,1-.163-.393l2.987-2.987a.23.23,0,0,0,0-.326l-2.06-2.06a.231.231,0,0,0-.326,0l-5.766,5.766h-.024v.024l-1.512,1.512a.231.231,0,0,0,0,.326l7.3,7.3a.23.23,0,0,0,.326,0l2.06-2.059a.23.23,0,0,0,0-.326l-3.012-3.012a.23.23,0,0,1,.163-.393h13.466a.23.23,0,0,0,.23-.23v-2.913A.23.23,0,0,0,837.481,174.822Z" transform="translate(-621.34 -94.114)"/></g><g transform="translate(0 17.858)"><g class="s" transform="translate(36 172.142)"><image width="150.012" height="138.333" transform="translate(-50.004 -5.09)" xlink:href="iPhone%206-7-8%20Plus%20-%203-image.png"/></g><g class="t" transform="translate(36 172.142)"><rect class="x" width="77.85" height="77.85" rx="38.925"/><rect class="y" x="2.5" y="2.5" width="72.85" height="72.85" rx="36.425"/></g></g><g transform="translate(0 17.858)"><g class="u" transform="translate(124.148 172.192)"><image width="251.989" height="218.04" transform="translate(-116.7 -31.258)" xlink:href="iPhone%206-7-8%20Plus%20-%203-image2.png"/></g><g class="t" transform="translate(124.148 172.142)"><rect class="x" width="77.85" height="77.85" rx="38.925"/><rect class="y" x="2.5" y="2.5" width="72.85" height="72.85" rx="36.425"/></g></g><g transform="translate(0 17.7)"><g class="v" transform="translate(212 172.35)"><image width="142.34" height="151.122" transform="translate(-64.405 1.862)" xlink:href="iPhone%206-7-8%20Plus%20-%203-image3.png"/></g><g class="t" transform="translate(212 172.3)"><rect class="x" width="77.85" height="77.85" rx="38.925"/><rect class="y" x="2.5" y="2.5" width="72.85" height="72.85" rx="36.425"/></g></g><g transform="translate(-0.148 17.7)"><g class="v" transform="translate(300.148 172.35)"><image width="129.46" height="156.588" transform="translate(-18.561 3.505)" xlink:href="iPhone%206-7-8%20Plus%20-%203-image4.png"/></g><g class="t" transform="translate(300.148 172.3)"><rect class="x" width="77.85" height="77.85" rx="38.925"/><rect class="y" x="2.5" y="2.5" width="72.85" height="72.85" rx="36.425"/></g></g><g transform="translate(0 17.809)"><g class="u" transform="translate(36 256.242)"><image width="143.414" height="295.588" transform="translate(-23.185 -10.457)" xlink:href="iPhone%206-7-8%20Plus%20-%203-image5.png"/></g><g class="t" transform="translate(36 256.191)"><rect class="x" width="77.85" height="77.85" rx="38.925"/><rect class="y" x="2.5" y="2.5" width="72.85" height="72.85" rx="36.425"/></g></g><g transform="translate(0 17.651)"><g class="v" transform="translate(212 256.4)"><image width="134.716" height="168.766" transform="translate(-28.653 -0.871)" xlink:href="iPhone%206-7-8%20Plus%20-%203-image6.png"/></g><g class="t" transform="translate(212 256.349)"><rect class="x" width="77.85" height="77.85" rx="38.925"/><rect class="y" x="2.5" y="2.5" width="72.85" height="72.85" rx="36.425"/></g></g><g transform="translate(3.561 17.809)"><g class="u" transform="translate(120.588 256.242)"><image width="147.17" height="145.101" transform="translate(-17.246 -0.05)" xlink:href="iPhone%206-7-8%20Plus%20-%203-image7.png"/></g><g class="t" transform="translate(120.588 256.191)"><rect class="x" width="77.85" height="77.85" rx="38.925"/><rect class="y" x="2.5" y="2.5" width="72.85" height="72.85" rx="36.425"/></g></g><g transform="translate(3.412 17.651)"><g class="v" transform="translate(296.588 256.4)"><image width="171.854" height="212.372" transform="translate(-45.055 -2.244)" xlink:href="iPhone%206-7-8%20Plus%20-%203-image8.png"/></g><g class="t" transform="translate(296.588 256.349)"><rect class="x" width="77.85" height="77.85" rx="38.925"/><rect class="y" x="2.5" y="2.5" width="72.85" height="72.85" rx="36.425"/></g></g><rect class="e" width="206" height="33.182" rx="16.591" transform="translate(104 413.818)"/><text class="w" transform="translate(126 435.414)"><tspan x="0" y="0">Escolha um personagem</tspan></text></g></svg>