<svg xmlns="http://www.w3.org/2000/svg" xmlns:xlink="http://www.w3.org/1999/xlink" width="1920" height="1080" viewBox="0 0 1920 1080"><defs><style>.a,.c,.g,.i{fill:#fff;}.a,.c{stroke:#707070;}.b{clip-path:url(#c);}.c{opacity:0.95;}.d{clip-path:url(#a);}.e,.h{fill:#346e93;}.e{font-size:28px;font-family:SegoeUI-Bold, Segoe UI;font-weight:700;}.f{fill:#ba2027;}.g{font-size:20px;font-family:SegoeUI, Segoe UI;}.j{stroke:none;}.k{fill:none;}</style><clipPath id="a"><rect class="a" width="1220" height="772.102" transform="translate(355 244)"/></clipPath><clipPath id="c"><rect width="1920" height="1080"/></clipPath></defs><g id="b" class="b"><g transform="translate(-87 -215)"><g class="c" transform="translate(437 293)"><rect class="j" width="1220" height="937.4" rx="12"/><rect class="k" x="0.5" y="0.5" width="1219" height="936.4" rx="11.5"/></g><g class="d" transform="translate(82 153.632)"><image width="1377.545" height="1033.81" transform="translate(282.086 109.891)" xlink:href="Segunda%20parte%20-%204-image.png"/></g><text class="e" transform="translate(473 324)"><tspan x="0" y="30">EKG</tspan></text><rect class="f" width="139" height="59" rx="29.5" transform="translate(464 1196.4)"/><text class="g" transform="translate(502 1234.4)"><tspan x="0" y="0">Return</tspan></text></g><path class="h" d="M718.094,273.854a25,25,0,1,0,25,25A25,25,0,0,0,718.094,273.854Zm16.512,35.335a1.861,1.861,0,0,1,0,2.624l-3.553,3.554a1.861,1.861,0,0,1-2.624,0l-10.335-10.335-10.335,10.335a1.861,1.861,0,0,1-2.624,0l-3.553-3.554a1.861,1.861,0,0,1,0-2.624l10.335-10.335-10.335-10.335a1.861,1.861,0,0,1,0-2.624l3.553-3.554a1.861,1.861,0,0,1,2.624,0l10.335,10.335,10.335-10.335a1.861,1.861,0,0,1,2.624,0l3.553,3.554a1.861,1.861,0,0,1,0,2.624l-10.335,10.335Z" transform="translate(810.906 -172.854)"/><rect class="i" width="87" height="936" transform="translate(144 78)"/></g></svg>