<svg id="Capa_1" enable-background="new 0 0 512 512" height="512" viewBox="0 0 512 512" width="512" xmlns="http://www.w3.org/2000/svg"><g><g><path d="m485.079 315.875h-89.955v38.832h89.955c10.723 0 19.416-8.693 19.416-19.416 0-10.723-8.693-19.416-19.416-19.416z" fill="#365e7d"/><path d="m504.497 335.29c0 10.73-8.698 19.418-19.417 19.418h-89.956v-17.246h89.956c7.618 0 14.22-4.398 17.397-10.794 1.296 2.593 2.02 5.521 2.02 8.622z" fill="#2b4d66"/><path d="m447.406 78.719v170.306c0 73.433-59.529 132.962-132.962 132.962h-306.942v-37.657c0-24.48 13.013-47.115 34.168-59.434l58.263-33.926c37.906-22.076 65.373-57.377 77.93-98.136 9.563-31.033 36.814-53.293 69.155-56.189l78.675-7.034z" fill="#e04b66"/><path d="m325.692 89.611c-81.603 7.294-146.253 72.019-153.471 153.644l-12.264 138.732h-152.455v-37.657c0-24.48 13.013-47.115 34.168-59.434l58.263-33.926c37.906-22.076 65.373-57.377 77.93-98.136 9.563-31.033 36.814-53.293 69.155-56.189z" fill="#de1d49"/><path d="m353.619 390.947-71.739-41.418 71.739-41.418c7.752-4.476 10.409-14.389 5.932-22.141-4.476-7.754-14.39-10.408-22.141-5.932l-71.739 41.418v-82.836c0-8.951-7.257-16.208-16.208-16.208s-16.208 7.257-16.208 16.208v82.836l-71.739-41.418c-7.753-4.477-17.666-1.82-22.141 5.932-4.476 7.752-1.819 17.665 5.932 22.141l71.739 41.418-71.739 41.418c-7.753 4.476-10.409 14.389-5.932 22.141 3.002 5.2 8.45 8.107 14.051 8.107 2.75 0 5.537-.701 8.089-2.174l71.739-41.418v82.836c0 8.951 7.257 16.208 16.208 16.208s16.208-7.257 16.208-16.208v-82.836l71.739 41.418c2.553 1.474 5.339 2.174 8.089 2.174 5.601 0 11.049-2.907 14.051-8.107 4.478-7.752 1.822-17.665-5.93-22.141z" fill="#e7a52e"/><circle cx="249.464" cy="349.529" fill="#ffc250" r="32.462"/><path d="m249.459 203.76c-80.501 0-145.756 65.266-145.756 145.767s65.255 145.766 145.756 145.766c80.512 0 145.766-65.265 145.766-145.766s-65.254-145.767-145.766-145.767zm0 245.945c-55.324 0-100.167-44.854-100.167-100.178s44.843-100.167 100.167-100.167 100.178 44.843 100.178 100.167-44.853 100.178-100.178 100.178z" fill="#ffc250"/><g fill="#e7a52e"><path d="m260.701 449.074c3.691.413 7.441.632 11.242.632 55.324 0 100.178-44.854 100.178-100.178s-44.854-100.167-100.178-100.167c-3.801 0-7.551.219-11.242.632 50.032 5.587 88.936 48.013 88.936 99.536 0 51.521-38.904 93.955-88.936 99.545z"/><path d="m126.187 349.527c0-76.719 59.267-139.599 134.515-145.339-3.71-.283-7.46-.427-11.243-.427-80.501 0-145.756 65.266-145.756 145.767s65.255 145.766 145.756 145.766c3.783 0 7.532-.145 11.243-.427-75.248-5.741-134.515-68.621-134.515-145.34z"/></g><path d="m449.995 264.158h-10.013c-42.27 0-76.537-34.267-76.537-76.537 0-42.27 34.267-76.537 76.537-76.537h10.013c10.903 0 19.741 8.838 19.741 19.741v113.591c0 10.904-8.838 19.742-19.741 19.742z" fill="#ffc250"/><path d="m454.125 263.725c-1.329.281-2.712.432-4.128.432h-10.006c-42.271 0-76.546-34.264-76.546-76.535 0-21.136 8.569-40.272 22.421-54.114 13.853-13.853 32.989-22.421 54.125-22.421h10.006c1.416 0 2.798.151 4.128.432-17.883 1.891-33.94 9.941-45.978 21.989-13.853 13.842-22.421 32.978-22.421 54.114 0 39.526 29.953 72.04 68.399 76.103z" fill="#e7a52e"/><g><path d="m48.417 16.707v6.599c0 23.828 19.317 43.145 43.145 43.145v6.599c0 23.828 19.317 43.145 43.145 43.145v6.599c0 23.828 19.317 43.145 43.145 43.145h59.213v-59.329c0-49.652-40.251-89.904-89.904-89.904h-98.744z" fill="#ffc250"/><path d="m216.295 165.94h-38.442c-23.829 0-43.141-19.322-43.141-43.15v-6.597c-23.829 0-43.15-19.322-43.15-43.141v-6.607c-23.829 0-43.141-19.312-43.141-43.141v-6.597h38.442v6.597c0 23.828 19.312 43.141 43.141 43.141v6.607c0 23.819 19.322 43.141 43.141 43.141v6.597c-.001 23.828 19.321 43.15 43.15 43.15z" fill="#e7a52e"/></g></g><g><path d="m504.109 316.26c-5.082-5.083-11.839-7.881-19.027-7.881h-43.372c5.461-11.669 9.332-24.091 11.406-36.905 13.555-1.554 24.12-13.092 24.12-27.057v-113.591c0-13.342-9.645-24.467-22.326-26.789v-25.317c0-2.105-.885-4.114-2.438-5.535-1.553-1.42-3.635-2.124-5.729-1.936l-200.392 17.932c-1.104.1-2.203.227-3.299.368-4.59-25.891-19.506-49.042-41.834-63.964-3.443-2.303-8.102-1.376-10.402 2.068-2.302 3.444-1.376 8.102 2.068 10.403 22.966 15.349 36.677 40.977 36.677 68.555v51.83h-51.71c-19.348 0-35.133-15.505-35.617-34.744h45.851c4.143 0 7.5-3.358 7.5-7.5s-3.357-7.5-7.5-7.5h-53.258c-.039 0-.077-.006-.116-.006-19.349 0-35.135-15.503-35.617-34.738h73.684c4.143 0 7.5-3.358 7.5-7.5s-3.357-7.5-7.5-7.5h-81.179c-.01 0-.019-.001-.029-.001-19.356 0-35.159-15.502-35.64-34.74h91.229c7.062 0 14.059.891 20.798 2.647 4.004 1.046 8.104-1.357 9.149-5.365s-1.357-8.104-5.366-9.149c-7.973-2.079-16.243-3.133-24.581-3.133h-98.739c-4.143 0-7.5 3.358-7.5 7.5v6.6c0 25.377 18.765 46.454 43.151 50.086.171 25.22 18.872 46.121 43.14 49.74.152 22.544 15.107 41.638 35.608 48.025-14.129 30.541-37.528 56.365-66.653 73.328l-58.27 33.93c-23.375 13.607-37.896 38.863-37.896 65.909v37.66c0 4.142 3.357 7.5 7.5 7.5h93.996c17.624 65.191 77.277 113.3 147.964 113.3 31.236 0 61.285-9.335 86.897-26.996 3.41-2.351 4.268-7.022 1.917-10.432-2.352-3.41-7.022-4.269-10.433-1.917-23.097 15.926-50.201 24.344-78.382 24.344-76.236 0-138.26-62.023-138.26-138.26 0-76.242 62.023-138.27 138.26-138.27 76.242 0 138.271 62.028 138.271 138.27 0 35.732-13.582 69.634-38.244 95.46-2.861 2.996-2.752 7.743.244 10.604 2.997 2.861 7.745 2.75 10.604-.245 24.406-25.558 39.012-58.249 41.869-93.147h82.879c14.843 0 26.918-12.07 26.918-26.907 0-7.201-2.806-13.964-7.891-19.034zm-41.873-107.464c-8.148-3.052-13.975-10.896-13.975-20.096s5.827-17.044 13.975-20.096zm0-77.97v22.178c-16.526 3.468-28.975 18.154-28.975 35.695 0 17.542 12.448 32.228 28.975 35.696v20.022c0 6.75-5.491 12.241-12.241 12.241h-10.013c-38.067 0-69.037-30.97-69.037-69.037s30.97-69.037 69.037-69.037h10.013c6.75 0 12.241 5.492 12.241 12.242zm-212.776 65.434c-84.508 0-153.26 68.757-153.26 153.27 0 8.499.707 16.834 2.043 24.96h-83.243v-30.16c0-21.727 11.665-42.015 30.444-52.949l58.271-33.93c33.044-19.245 59.333-48.943 74.516-84.011h58.829c4.143 0 7.5-3.358 7.5-7.5v-59.33c0-.709-.018-1.417-.033-2.124 1.053-.141 2.11-.269 3.172-.366l192.211-17.199v16.665c-46.305.039-83.965 37.721-83.965 84.035 0 45.63 36.562 82.855 81.925 83.983-4.645 25.34-17.16 48.837-35.538 66.931-5.655-79.4-72.055-142.275-152.872-142.275zm235.622 150.943h-70.224c7.085-7.266 13.348-15.265 18.693-23.824h51.531c3.182 0 6.172 1.238 8.429 3.496 2.25 2.243 3.489 5.234 3.489 8.422 0 6.564-5.347 11.906-11.918 11.906z"/><path d="m249.459 241.86c-59.368 0-107.667 48.299-107.667 107.667 0 59.374 48.299 107.678 107.667 107.678 59.374 0 107.679-48.304 107.679-107.678 0-59.368-48.305-107.667-107.679-107.667zm92.679 107.667c0 8.393-1.128 16.526-3.229 24.263l-42.031-24.263 42.03-24.263c2.101 7.737 3.23 15.87 3.23 24.263zm-185.346 0c0-8.393 1.128-16.526 3.229-24.263l42.022 24.262-42.022 24.263c-2.101-7.736-3.229-15.869-3.229-24.262zm54.539-11.958-46.115-26.625c2.442-5.311 5.369-10.355 8.729-15.071l46.116 26.627c-3.931 4.272-6.947 9.399-8.73 15.069zm-.001 23.917c1.782 5.67 4.797 10.796 8.728 15.07l-46.119 26.625c-3.359-4.715-6.284-9.759-8.725-15.069zm13.171-11.957c0-13.764 11.198-24.962 24.963-24.962 13.764 0 24.962 11.198 24.962 24.962s-11.198 24.962-24.962 24.962c-13.765.001-24.963-11.198-24.963-24.962zm63.093-11.964c-1.783-5.67-4.8-10.797-8.732-15.07l46.117-26.627c3.362 4.717 6.29 9.762 8.733 15.075zm.002 23.924 46.118 26.623c-2.442 5.312-5.368 10.356-8.729 15.072l-46.12-26.625c3.932-4.273 6.948-9.4 8.731-15.07zm27.553-77.266-41.982 24.24v-48.526c16.131 4.272 30.551 12.791 41.982 24.286zm-56.982-26.951v53.261c-2.804-.625-5.714-.966-8.703-.966-2.993 0-5.906.341-8.713.968v-53.263c2.868-.269 5.771-.412 8.708-.412s5.84.143 8.708.412zm-32.416 2.667v48.525l-41.977-24.237c11.43-11.497 25.848-20.017 41.977-24.288zm-41.985 154.888 41.985-24.238v48.537c-16.133-4.273-30.553-12.797-41.985-24.299zm56.985 26.966v-53.27c2.807.627 5.72.968 8.713.968 2.99 0 5.899-.34 8.703-.966v53.267c-2.868.269-5.771.412-8.708.412s-5.84-.142-8.708-.411zm32.416-2.666v-48.538l41.99 24.241c-11.433 11.501-25.855 20.024-41.99 24.297z"/><path d="m436.871 136.093c-27.201 1.627-48.51 24.261-48.51 51.528s21.309 49.9 48.51 51.528c.153.009.305.013.455.013 3.938 0 7.241-3.07 7.479-7.052.248-4.135-2.903-7.687-7.038-7.935-19.293-1.154-34.406-17.21-34.406-36.554s15.113-35.401 34.406-36.555c4.135-.248 7.286-3.8 7.038-7.935-.246-4.133-3.778-7.279-7.934-7.038z"/></g></g></svg>