<svg id="Capa_1" enable-background="new 0 0 511.999 511.999" height="512" viewBox="0 0 511.999 511.999" width="512" xmlns="http://www.w3.org/2000/svg"><g><g><circle cx="100.931" cy="483.33" fill="#ffc250" r="21.169"/><circle cx="187.024" cy="483.33" fill="#ffc250" r="21.169"/><circle cx="273.117" cy="483.33" fill="#ffc250" r="21.169"/><circle cx="359.21" cy="483.33" fill="#ffc250" r="21.169"/><path d="m108.872 502.96c-2.45.99-5.13 1.54-7.94 1.54-11.69 0-21.17-9.48-21.17-21.17s9.48-21.17 21.17-21.17c2.81 0 5.49.55 7.94 1.54-7.76 3.14-13.23 10.75-13.23 19.63s5.47 16.49 13.23 19.63z" fill="#e7a52e"/><path d="m194.971 502.96c-2.45.99-5.13 1.54-7.94 1.54-11.69 0-21.17-9.48-21.17-21.17s9.48-21.17 21.17-21.17c2.81 0 5.49.55 7.94 1.54-7.76 3.14-13.24 10.74-13.24 19.63s5.48 16.49 13.24 19.63z" fill="#e7a52e"/><path d="m281.061 502.96c-2.45.99-5.13 1.54-7.94 1.54-11.69 0-21.17-9.48-21.17-21.17s9.48-21.17 21.17-21.17c2.81 0 5.49.55 7.94 1.54-7.76 3.14-13.23 10.75-13.23 19.63s5.47 16.49 13.23 19.63z" fill="#e7a52e"/><path d="m367.151 502.96c-2.45.99-5.13 1.54-7.94 1.54-11.69 0-21.17-9.48-21.17-21.17s9.48-21.17 21.17-21.17c2.81 0 5.49.55 7.94 1.54-7.76 3.14-13.23 10.75-13.23 19.63s5.47 16.49 13.23 19.63z" fill="#e7a52e"/><path d="m87.078 304.039h-63.35l2.508-2.508c21.073-21.073 32.912-49.655 32.912-79.457v-41.744c0-14.19 5.75-27.03 15.05-36.32 9.29-9.3 22.13-15.05 36.32-15.05 27.46 0 49.89 21.54 51.3 48.64" fill="#9d6b6b"/><path d="m127.528 131.84c-7.36 2.57-13.95 6.77-19.34 12.17-9.3 9.29-15.05 22.13-15.05 36.32v41.74c0 29.81-11.84 58.39-32.91 79.46l-2.51 2.51h-33.99l2.51-2.51c21.07-21.07 32.91-49.65 32.91-79.46v-41.74c0-14.19 5.75-27.03 15.05-36.32 9.29-9.3 22.13-15.05 36.32-15.05 5.96 0 11.69 1.01 17.01 2.88z" fill="#8b5e5e"/><path d="m488.267 119.78v80.06c0 18.15-14.72 32.87-32.87 32.87-6.3 0-12.33-1.8-17.46-5.02-5.14-3.23-9.38-7.87-12.13-13.54l-5.77-11.91h-20.09c-4.51 0-8.9-.53-13.1-1.53v52.84c0 22.42-7.63 43.06-20.44 59.46v113.37h-50.87v-79.5c-8.1 2.2-16.61 3.38-25.4 3.38h-117.55c-12.15 10.89-27.57 18.21-44.61 20.31v55.81h-40.9v-157.32c0-51.53 41.78-93.31 93.31-93.31h77.28v-14c0-85.19 69.06-154.25 154.25-154.25h48.05v61.86c16.97 10.37 28.3 29.07 28.3 50.42z" fill="#9d6b6b"/><g fill="#8b5e5e"><path d="m453.207 7.5c-85.19 0-154.25 69.06-154.25 154.25v14h-41.29v-14c0-85.19 69.06-154.25 154.25-154.25z"/><path d="m342.467 329.479v96.9h-26.93v-79.5z"/><path d="m244.148 175.752c-51.53 0-93.31 41.78-93.31 93.31v95.22c-7.15 3.14-14.82 5.3-22.86 6.29v55.81h-40.9v-157.32c0-51.53 41.78-93.31 93.31-93.31z"/><path d="m412.197 60.73 47.77-53.23v61.86"/><path d="m470.529 229.019c-4.409 2.297-9.395 3.618-14.692 3.687-12.936.169-24.696-7.532-30.328-19.178l-5.46-11.289h-20.1c-31.116 0-56.34-25.224-56.34-56.34v-16.59h13.66c9.162 0 16.59 7.427 16.59 16.59 0 31.116 25.224 56.34 56.34 56.34h8.012c7.387 0 14.124 4.222 17.345 10.87l.504 1.04c2.74 5.67 6.99 10.31 12.12 13.54.759.479 1.549.93 2.349 1.33z"/></g><path d="m380.439 462.161h-300.082c-9.881 0-17.892-8.01-17.892-17.892 0-9.881 8.01-17.892 17.892-17.892h300.082c9.881 0 17.892 8.01 17.892 17.892 0 9.882-8.011 17.892-17.892 17.892z" fill="#ffc250"/><path d="m112.275 462.159h-31.92c-9.88 0-17.89-8.01-17.89-17.89 0-4.94 2-9.42 5.24-12.66s7.71-5.24 12.65-5.24h31.92c-4.94 0-9.41 2-12.65 5.24s-5.24 7.72-5.24 12.66c0 9.88 8.01 17.89 17.89 17.89z" fill="#e7a52e"/></g><g><path d="m467.467 65.365v-57.865c0-3.107-1.916-5.893-4.818-7.004-.875-.335-1.782-.477-2.682-.477v-.019h-48.05c-89.189 0-161.75 72.561-161.75 161.75v6.498h-69.775c-4.095 0-8.131.252-12.099.729-5.295-27.221-29.245-47.516-57.774-47.516-15.731 0-30.514 6.126-41.619 17.242-6.872 6.861-11.974 15.377-14.754 24.63-1.192 3.967 1.058 8.149 5.024 9.341 3.969 1.192 8.149-1.058 9.341-5.024 2.067-6.881 5.867-13.22 10.994-18.338 8.278-8.287 19.292-12.85 31.014-12.85 21.266 0 39.118 15.127 43.056 35.414-42.613 11.772-73.998 50.881-73.998 97.187v27.479h-38.842c16.797-21.108 25.914-47.088 25.914-74.47v-26.74c0-4.142-3.358-7.5-7.5-7.5s-7.5 3.358-7.5 7.5v26.74c0 28.015-10.907 54.351-30.713 74.157l-2.51 2.51c-2.145 2.145-2.787 5.371-1.626 8.173 1.161 2.803 3.896 4.63 6.929 4.63h55.849v107.357c-13.642.414-24.613 11.632-24.613 25.372 0 12.501 9.083 22.914 20.995 25.003-2.35 4.157-3.698 8.951-3.698 14.058 0 15.808 12.861 28.669 28.669 28.669s28.669-12.863 28.669-28.671c0-4.946-1.259-9.604-3.474-13.669h35.703c-2.214 4.065-3.474 8.723-3.474 13.669 0 15.808 12.861 28.669 28.669 28.669s28.669-12.861 28.669-28.669c0-4.946-1.259-9.604-3.474-13.669h35.703c-2.214 4.065-3.474 8.723-3.474 13.669 0 15.808 12.861 28.669 28.669 28.669s28.669-12.861 28.669-28.669c0-4.946-1.259-9.604-3.474-13.669h35.703c-2.214 4.065-3.474 8.723-3.474 13.669 0 15.808 12.861 28.669 28.669 28.669s28.669-12.861 28.669-28.669c0-5.063-1.325-9.821-3.638-13.955 12.204-1.84 21.59-12.397 21.59-25.106 0-14.001-11.391-25.392-25.392-25.392h-6.53v-103.34c2.925-3.946 5.566-8.091 7.868-12.352 1.969-3.644.611-8.195-3.033-10.164-3.645-1.97-8.195-.611-10.164 3.033-2.315 4.284-5.034 8.435-8.083 12.339-1.03 1.318-1.589 2.943-1.589 4.616v105.868h-35.87v-71.997c0-2.336-1.089-4.539-2.944-5.958-1.855-1.418-4.269-1.892-6.521-1.28-7.616 2.069-15.5 3.118-23.434 3.118h-100.608c11.195-14.987 17.779-33.539 17.779-53.451 0-4.142-3.358-7.5-7.5-7.5s-7.5 3.358-7.5 7.5c0 37.518-28.048 69.252-65.242 73.816-3.761.461-6.586 3.655-6.586 7.444v48.309h-25.904v-149.816c0-47.318 38.496-85.814 85.814-85.814h77.275c4.142 0 7.5-3.358 7.5-7.5v-13.998c0-75.007 56.568-137.041 129.28-145.705l-35.608 39.674c-2.767 3.083-2.511 7.825.572 10.591s7.824 2.51 10.591-.572l34.692-38.653v33.642c0 4.142 3.358 7.5 7.5 7.5h17.027c28.424 0 51.548 23.125 51.548 51.549v80.06c0 13.99-11.382 25.372-25.372 25.372-9.665 0-18.63-5.621-22.839-14.321l-5.764-11.913c-1.253-2.589-3.875-4.233-6.751-4.233h-20.093c-26.931 0-48.841-21.91-48.841-48.841v-16.586c0-4.142-3.358-7.5-7.5-7.5s-7.5 3.358-7.5 7.5v16.586c0 27.994 18.12 51.821 43.241 60.411v47.24c0 5.536-.509 11.06-1.512 16.42-.762 4.071 1.921 7.99 5.992 8.752.466.087.93.129 1.388.129 3.539 0 6.689-2.517 7.364-6.122 1.173-6.268 1.768-12.721 1.768-19.18v-44.07c1.847.162 3.712.26 5.601.26h15.391l3.716 7.68c6.698 13.843 20.963 22.788 36.341 22.788 22.261 0 40.372-18.111 40.372-40.372v-80.06c-.001-22.468-11.203-42.356-28.304-54.411zm-352.867 417.965c0 7.537-6.132 13.669-13.669 13.669s-13.669-6.132-13.669-13.669 6.132-13.669 13.669-13.669 13.669 6.132 13.669 13.669zm86.093 0c0 7.537-6.132 13.669-13.669 13.669s-13.669-6.132-13.669-13.669 6.132-13.669 13.669-13.669c7.538 0 13.669 6.132 13.669 13.669zm86.093 0c0 7.537-6.132 13.669-13.669 13.669s-13.669-6.132-13.669-13.669 6.132-13.669 13.669-13.669 13.669 6.132 13.669 13.669zm72.424 13.669c-7.537 0-13.669-6.132-13.669-13.669s6.132-13.669 13.669-13.669 13.669 6.132 13.669 13.669-6.132 13.669-13.669 13.669zm-223.729-120.044c15.059-2.998 28.657-9.759 39.878-19.195h114.78c6.013 0 12.003-.517 17.9-1.54v62.658h-172.558zm244.958 56.922c5.73 0 10.392 4.662 10.392 10.392s-4.662 10.392-10.392 10.392h-300.082c-5.73 0-10.392-4.662-10.392-10.392s4.662-10.392 10.392-10.392zm62.72-418.877-23.465 26.147v-26.147zm-14.15 38.227 23.459-26.14v30.338c-7.241-2.708-15.071-4.198-23.246-4.198z"/><path d="m461.61 152.229c1.919 0 3.839-.732 5.303-2.197 2.929-2.929 2.929-7.678 0-10.606l-14.814-14.814c-2.929-2.929-7.678-2.929-10.606 0-2.929 2.929-2.929 7.678 0 10.606l14.814 14.814c1.464 1.465 3.384 2.197 5.303 2.197z"/></g></g></svg>