<?xml version="1.0"?>
<svg width="512" height="512" xmlns="http://www.w3.org/2000/svg" xmlns:svg="http://www.w3.org/2000/svg">

 <g class="layer">
  <title>Layer 1</title>
  <g id="svg_1">
   <g id="svg_2">
    <path d="m111.538,466.771c-22.774,0 -41.235,-18.462 -41.235,-41.235l0,-41.235l82.47,0l0,41.235c0,22.773 -18.462,41.235 -41.235,41.235z" fill="#ffc250" id="svg_3"/>
    <path d="m126.008,464.161c-4.5,1.69 -9.38,2.61 -14.47,2.61c-22.77,0 -41.23,-18.46 -41.23,-41.23l0,-41.24l28.93,0l0,41.24c0,17.68 11.13,32.76 26.77,38.62z" fill="#e7a52e" id="svg_4"/>
    <g id="svg_5">
     <g id="svg_6">
      <g id="svg_7">
       <g id="svg_8">
        <circle cx="91.952" cy="134.893" fill="#698ed5" id="svg_9" r="17.458"/>
        <path d="m99.434,150.672c-2.27,1.08 -4.8,1.68 -7.48,1.68c-9.64,0 -17.46,-7.81 -17.46,-17.46c0,-9.64 7.82,-17.45 17.46,-17.45c2.68,0 5.21,0.6 7.48,1.68c-5.9,2.79 -9.98,8.8 -9.98,15.77s4.08,12.991 9.98,15.78z" fill="#4073c8" id="svg_10"/>
       </g>
      </g>
      <g id="svg_11">
       <circle cx="109.411" cy="104.299" fill="#698ed5" id="svg_12" r="17.458"/>
       <path d="m116.892,120.079c-2.27,1.08 -4.8,1.68 -7.48,1.68c-9.64,0 -17.46,-7.81 -17.46,-17.46c0,-9.64 7.82,-17.45 17.46,-17.45c2.68,0 5.21,0.6 7.48,1.68c-5.9,2.79 -9.98,8.8 -9.98,15.77s4.08,12.99 9.98,15.78z" fill="#4073c8" id="svg_13"/>
      </g>
     </g>
     <g id="svg_14">
      <g fill="#b3e59f" id="svg_15">
       <path d="m445.375,14.594l-1.535,-7.094l-7.094,1.535c-23.546,5.095 -38.504,28.313 -33.409,51.859l1.535,7.094l7.094,-1.535c23.547,-5.095 38.505,-28.313 33.409,-51.859z" id="svg_16"/>
       <path d="m463.826,99.862l1.535,7.094l-7.094,1.535c-23.546,5.095 -46.764,-9.862 -51.859,-33.409l-1.535,-7.094l7.094,-1.535c23.546,-5.095 46.764,9.863 51.859,33.409z" id="svg_17"/>
      </g>
     </g>
     <path d="m400.516,280.628c26.722,0 48.385,-21.663 48.385,-48.385c0,-8.743 -2.331,-16.936 -6.387,-24.014c11.545,-8.843 18.997,-22.762 18.997,-38.428c0,-22.92 -15.943,-42.105 -37.34,-47.103c4.689,-7.453 7.411,-16.268 7.411,-25.723c0,-26.722 -21.663,-48.385 -48.385,-48.385c-5.018,0 -9.857,0.764 -14.408,2.182c-2.554,-24.318 -23.118,-43.272 -48.113,-43.272c-20.943,0 -38.773,13.307 -45.509,31.926c-6.735,-18.619 -24.566,-31.926 -45.509,-31.926c-24.995,0 -45.56,18.954 -48.114,43.272c-4.551,-1.418 -9.39,-2.182 -14.408,-2.182c-26.722,0 -48.385,21.663 -48.385,48.385c0,9.455 2.722,18.27 7.411,25.723c-21.397,4.999 -37.34,24.183 -37.34,47.103c0,15.666 7.452,29.585 18.997,38.428c-4.056,7.078 -6.387,15.271 -6.387,24.014c0,26.722 21.663,48.385 48.385,48.385" fill="#e04b66" id="svg_18"/>
     <path d="m272.383,33.172c-2.85,5.35 -4.73,11.29 -5.39,17.6c-4.55,-1.42 -9.39,-2.18 -14.41,-2.18c-26.72,0 -48.39,21.66 -48.39,48.39c0,9.45 2.73,18.27 7.42,25.72c-21.4,5 -37.34,24.18 -37.34,47.1c0,15.67 7.45,29.59 18.99,38.43c-4.05,7.08 -6.38,15.27 -6.38,24.01c0,26.73 21.66,48.39 48.38,48.39l-85.44,0c-26.72,0 -48.38,-21.66 -48.38,-48.39c0,-8.74 2.33,-16.93 6.38,-24.01c-11.54,-8.84 -19,-22.76 -19,-38.43c0,-22.92 15.95,-42.1 37.34,-47.1c-4.68,-7.45 -7.41,-16.27 -7.41,-25.72c0,-26.73 21.67,-48.39 48.39,-48.39c5.02,0 9.85,0.76 14.41,2.18c2.55,-24.32 23.12,-43.27 48.11,-43.27c18.51,0 34.59,10.399 42.72,25.67z" fill="#de1d49" id="svg_19"/>
     <path d="m402.517,504.5l-64.8,0l-42.12,-12.42l-91.75,12.42l-56.03,0c20.56,-34.75 54.92,-60.36 95.56,-69.26c0.23,-0.05 0.47,-0.1 0.7,-0.15l0,-53.89l62.19,0l0,53.89c0.24,0.05 0.48,0.1 0.71,0.16c7.62,1.67 15.01,3.92 22.14,6.72c3.76,1.47 -2.54,13.09 1.06,14.85c3.22,1.58 16.37,-6.71 19.46,-4.91c21.79,12.73 40.03,30.87 52.88,52.59z" fill="#e2c3b1" id="svg_20"/>
     <path d="m306.267,381.2l0,25.55c-7.06,1.44 -14.37,2.2 -21.86,2.2l-18.47,0c-7.49,0 -14.8,-0.76 -21.86,-2.2l0,-25.55l62.19,0z" fill="#331809" id="svg_21" transform="matrix(1, 0, 0, 1, 0, 0)"/>
     <path d="m352.338,453.52l0,0.01l-14.62,50.97l-133.87,0l125.4,-62.48c8.07,3.17 15.79,7.03 23.09,11.5z" fill="#ede6e3" id="svg_22"/>
     <path d="m257.759,381.2l0,53.89c-22.93,8.76 -42.33,34.46 -53.91,69.41l-56.03,0c20.68,-34.95 55.32,-60.65 96.26,-69.41l0,-53.89l13.68,0z" fill="#331809" id="svg_23" transform="matrix(1, 0, 0, 1, 0, 0)"/>
     <g fill="#ffcbbe" id="svg_24" transform="matrix(1, 0, 0, 1, 0, 0)">
      <circle cx="137.66" cy="272.406" fill="#331809" id="svg_25" r="39.61"/>
      <circle cx="412.681" cy="272.406" fill="#331809" id="svg_26" r="39.61"/>
     </g>
     <path d="m392.842,195.987l0,79.593c0,59.885 -48.546,108.431 -108.431,108.431l-18.478,0c-59.885,0 -108.441,-48.546 -108.441,-108.431l0,-79.593c0,-0.32 0,-0.65 0.01,-0.97c0.29,-36.927 40.256,-59.605 72.564,-41.696c13.359,7.399 28.738,11.619 45.106,11.619c36.617,0 68.314,-21.118 83.523,-51.846c21.108,21.258 34.147,50.545 34.147,82.893z" fill="#e2c3b1" id="svg_27" transform="matrix(1, 0, 0, 1, 0, 0)"/>
     <path d="m310.423,380.859c-8.329,2.06 -17.039,3.15 -26.008,3.15l-18.479,0c-59.885,0 -108.441,-48.546 -108.441,-108.431l0,-79.593c0,-0.32 0,-0.65 0.01,-0.97c0.29,-36.927 40.257,-59.605 72.564,-41.696c4.42,2.45 9.059,4.55 13.889,6.259c-9.559,8.519 -15.848,20.868 -15.959,35.437c-0.01,0.32 -0.01,0.65 -0.01,0.97l0,79.593c0.001,50.915 35.108,93.642 82.434,105.281z" fill="#331809" id="svg_28"/>
     <g id="svg_29">
      <g fill="#b3e59f" id="svg_30">
       <path d="m130.286,78.229l-6.102,-3.931l-3.931,6.102c-13.047,20.252 -7.206,47.247 13.047,60.294l6.102,3.931l3.931,-6.102c13.046,-20.252 7.205,-47.247 -13.047,-60.294z" id="svg_31"/>
       <path d="m166.876,21.431l-6.102,-3.931l-3.931,6.102c-13.047,20.252 -7.206,47.247 13.047,60.294l6.102,3.931l3.931,-6.102c13.046,-20.252 7.205,-47.247 -13.047,-60.294z" id="svg_32"/>
       <path d="m203.626,125.476l6.102,3.931l-3.931,6.102c-13.047,20.252 -40.041,26.094 -60.294,13.047l-6.102,-3.931l3.931,-6.102c13.047,-20.252 40.042,-26.094 60.294,-13.047z" id="svg_33"/>
       <path d="m240.216,68.678l6.102,3.931l-3.931,6.102c-13.047,20.252 -40.041,26.094 -60.294,13.047l-6.102,-3.931l3.931,-6.102c13.047,-20.252 40.042,-26.094 60.294,-13.047z" id="svg_34"/>
      </g>
     </g>
     <g id="svg_35">
      <g id="svg_36">
       <g id="svg_37">
        <circle cx="355.814" cy="61.389" fill="#698ed5" id="svg_38" r="17.458"/>
        <path d="m363.296,77.169c-2.27,1.08 -4.8,1.68 -7.48,1.68c-9.64,0 -17.46,-7.81 -17.46,-17.46c0,-9.64 7.82,-17.45 17.46,-17.45c2.68,0 5.21,0.6 7.48,1.68c-5.9,2.79 -9.98,8.8 -9.98,15.77s4.08,12.99 9.98,15.78z" fill="#4073c8" id="svg_39"/>
       </g>
       <g id="svg_40">
        <circle cx="390.731" cy="61.389" fill="#698ed5" id="svg_41" r="17.458"/>
        <path d="m398.213,77.169c-2.27,1.08 -4.8,1.68 -7.48,1.68c-9.64,0 -17.46,-7.81 -17.46,-17.46c0,-9.64 7.82,-17.45 17.46,-17.45c2.68,0 5.21,0.6 7.48,1.68c-5.9,2.79 -9.98,8.8 -9.98,15.77s4.08,12.99 9.98,15.78z" fill="#4073c8" id="svg_42"/>
       </g>
      </g>
      <g id="svg_43">
       <circle cx="373.273" cy="30.795" fill="#698ed5" id="svg_44" r="17.458"/>
       <path d="m380.754,46.575c-2.27,1.08 -4.8,1.68 -7.48,1.68c-9.64,0 -17.46,-7.81 -17.46,-17.46c0,-9.64 7.82,-17.45 17.46,-17.45c2.68,0 5.21,0.6 7.48,1.68c-5.9,2.79 -9.98,8.8 -9.98,15.77c0.001,6.97 4.08,12.99 9.98,15.78z" fill="#4073c8" id="svg_45"/>
      </g>
     </g>
    </g>
    <path d="m74.174,431.22l-5.106,0c-12.385,0 -22.425,10.04 -22.425,22.425l0,18.398c0,12.385 10.04,22.425 22.425,22.425l5.106,0c12.385,0 22.425,-10.04 22.425,-22.425l0,-18.398c0,-12.384 -10.04,-22.425 -22.425,-22.425z" fill="#e2c3b1" id="svg_46" transform="matrix(1, 0, 0, 1, 0, 0)"/>
    <path d="m82.092,493.023c-2.46,0.93 -5.13,1.44 -7.92,1.44l-5.11,0c-12.38,0 -22.42,-10.04 -22.42,-22.42l0,-18.4c0,-12.38 10.04,-22.42 22.42,-22.42l5.11,0c2.79,0 5.46,0.51 7.92,1.44c-8.47,3.2 -14.5,11.39 -14.5,20.98l0,18.4c0,9.591 6.03,17.781 14.5,20.98z" fill="#331809" id="svg_47"/>
   </g>
   <g id="svg_48">
    <path d="m448.946,116.997c3.628,0 7.278,-0.39 10.903,-1.176l7.09,-1.53c4.048,-0.874 6.622,-4.863 5.75,-8.911l-1.531,-7.108c-3.859,-17.818 -16.709,-31.719 -33.091,-37.452c12.57,-11.959 18.513,-29.882 14.635,-47.823l-1.54,-7.09c-0.422,-1.944 -1.599,-3.64 -3.272,-4.716s-3.705,-1.443 -5.648,-1.021l-7.081,1.538c-17.29,3.733 -31.182,16.247 -37.144,32.315c0.137,-1.058 0.216,-2.134 0.216,-3.229c0,-13.762 -11.196,-24.958 -24.958,-24.958c-6.641,0 -12.68,2.612 -17.157,6.857c-9.922,-8.145 -22.422,-12.693 -35.446,-12.693c-18.3,0 -35.179,9.02 -45.507,23.461c-10.324,-14.44 -27.206,-23.461 -45.513,-23.461c-19.418,0 -36.887,9.857 -46.973,25.566c-3.271,-3.969 -7.193,-7.509 -11.741,-10.439l-6.102,-3.931c-3.481,-2.243 -8.123,-1.24 -10.367,2.243l-3.93,6.102c-5.335,8.281 -8.098,17.704 -8.147,27.322c-9.983,4.925 -18.28,12.735 -23.826,22.482c-0.247,0.28 -5.89,9.08 -6.472,10.141c-0.887,-0.095 -1.783,-0.146 -2.686,-0.146c-13.757,0 -24.95,11.197 -24.95,24.96c0,2.259 0.307,4.447 0.872,6.53c-10.555,2.911 -18.332,12.592 -18.332,24.06c0,10.447 6.454,19.41 15.581,23.125c-0.817,3.819 -1.251,7.763 -1.251,11.785c0,15.431 6.191,29.811 17.178,40.316c-3.001,6.965 -4.568,14.506 -4.568,22.124c0,5.849 0.909,11.574 2.677,17.078c-3.855,6.827 -6.067,14.7 -6.067,23.085c0,25.977 21.133,47.11 47.11,47.11c6.78,0 13.335,-1.424 19.367,-4.154c12.965,35.38 42.711,62.734 79.548,72.382l0,41.409c-10.455,2.675 -20.605,6.438 -30.251,11.221c-3.711,1.84 -5.228,6.34 -3.388,10.051c1.309,2.64 3.965,4.17 6.725,4.17c1.119,0 2.255,-0.252 3.326,-0.782c10.343,-5.128 21.331,-8.959 32.659,-11.386c3.458,-0.741 5.929,-3.797 5.929,-7.333l0,-44.469c4.706,0.584 9.498,0.889 14.36,0.889l18.48,0c4.858,0 9.647,-0.305 14.35,-0.888l0,44.468c0,3.537 2.472,6.594 5.93,7.334c1.581,0.338 3.151,0.713 4.715,1.106l-107.324,53.469l-40.36,0c7.708,-10.573 16.839,-19.996 27.257,-28.114c3.268,-2.546 3.852,-7.259 1.306,-10.526s-7.257,-3.852 -10.526,-1.306c-15.492,12.072 -28.41,26.75 -38.396,43.627c-1.372,2.318 -1.395,5.194 -0.06,7.534s3.821,3.785 6.515,3.785l254.7,0c2.694,0 5.181,-1.445 6.515,-3.785s1.312,-5.216 -0.061,-7.534c-21.038,-35.554 -55.501,-61.364 -95.215,-71.531l0,-41.407c36.838,-9.647 66.586,-37.003 79.55,-72.388c6.038,2.732 12.593,4.157 19.366,4.157c25.977,0 47.11,-21.133 47.11,-47.11c0,-8.385 -2.212,-16.258 -6.068,-23.086c1.768,-5.504 2.677,-11.229 2.677,-17.077c0,-7.618 -1.567,-15.159 -4.568,-22.124c10.987,-10.504 17.178,-24.885 17.178,-40.316c0,-22.896 -13.652,-42.925 -34.151,-51.501c0.41,-0.991 0.782,-1.997 1.134,-3.009c4.24,1.129 8.583,1.708 12.959,1.708zm-119.399,333.257c4.784,2.016 9.448,4.291 13.966,6.817l-11.447,39.929l-96.345,0l93.826,-46.746zm59.061,46.746l-40.938,0l9.046,-31.552c12.167,8.698 22.967,19.335 31.892,31.552zm67.837,-395.79c-5.874,1.234 -11.828,0.996 -17.486,-0.661c0.076,-1.186 0.128,-2.375 0.128,-3.569c0,-7.444 -1.492,-14.681 -4.252,-21.349c10.676,4.361 18.963,13.73 21.61,25.579zm-18.351,-84.788c3.277,15.674 -4.022,31.295 -17.654,38.896c-2.397,-2.145 -4.992,-4.097 -7.77,-5.822c-0.684,-1.256 -1.477,-2.442 -2.358,-3.557c2.312,-14.415 13.345,-26.296 27.782,-29.517zm-82.28,35.008c5.491,0 9.958,4.467 9.958,9.958s-4.467,9.958 -9.958,9.958s-9.958,-4.467 -9.958,-9.958c0,-5.49 4.467,-9.958 9.958,-9.958zm34.917,0c5.491,0 9.958,4.467 9.958,9.958s-4.467,9.958 -9.958,9.958s-9.958,-4.467 -9.958,-9.958c0,-5.49 4.467,-9.958 9.958,-9.958zm-17.458,-30.593c5.491,0 9.958,4.467 9.958,9.958s-4.467,9.958 -9.958,9.958s-9.958,-4.467 -9.958,-9.958c-0.001,-5.491 4.466,-9.958 9.958,-9.958zm-164.32,49.208c9.352,-2.024 18.927,-0.316 26.997,4.808c-10.792,16.51 -32.939,21.301 -49.59,10.731c5.228,-8.001 13.243,-13.516 22.593,-15.539zm-59.184,72.336c10.793,-16.51 32.939,-21.302 49.591,-10.731c-10.791,16.51 -32.937,21.303 -49.591,10.731zm-23.341,-57.714c8.001,5.229 13.515,13.243 15.538,22.594s0.316,18.928 -4.808,26.997c-16.51,-10.793 -21.302,-32.939 -10.73,-49.591zm36.59,-56.799c16.51,10.792 21.302,32.938 10.73,49.59c-8,-5.229 -13.515,-13.243 -15.538,-22.594c-2.023,-9.35 -0.316,-18.927 4.808,-26.996zm-18.219,34.856c3.556,11.248 10.824,20.83 20.829,27.341l-9.01,13.987c-2.867,-13.206 -10.66,-24.52 -21.956,-31.913c2.826,-3.7 6.253,-6.882 10.137,-9.415zm-38.136,32.01c-1.172,6.388 -1.097,12.893 0.141,19.169c-4.227,-1.149 -7.348,-5.013 -7.348,-9.603c0.001,-4.539 3.052,-8.37 7.207,-9.566zm-24.666,40.156c0,-5.492 4.468,-9.96 9.96,-9.96c3.019,0 5.771,1.355 7.615,3.548c-4.854,4.407 -8.878,9.617 -11.897,15.391c-3.352,-1.606 -5.678,-5.021 -5.678,-8.979zm14.33,34.91c0,-14.529 7.593,-27.695 19.773,-35.007c3.481,4.629 7.814,8.733 12.939,12.069l-15.392,23.892c-2.243,3.482 -1.239,8.124 2.244,10.367c1.256,0.81 2.663,1.196 4.055,1.196c2.464,0 4.878,-1.214 6.312,-3.439l15.391,-23.891c6.018,3.837 12.545,6.25 19.184,7.333c-6.859,9.24 -10.721,20.517 -10.829,32.562c-0.01,0.367 -0.011,0.742 -0.011,1.108l0,30.946c-4.004,-1.084 -8.152,-1.644 -12.335,-1.644c-10.757,0 -20.677,3.632 -28.617,9.724c-0.062,-0.921 -0.103,-1.845 -0.103,-2.776c0,-7.107 1.864,-14.121 5.39,-20.286c1.864,-3.259 1.031,-7.395 -1.949,-9.678c-10.202,-7.814 -16.052,-19.651 -16.052,-32.476zm41.33,134.712c-17.706,0 -32.11,-14.404 -32.11,-32.11s14.404,-32.11 32.11,-32.11c4.249,0 8.445,0.842 12.335,2.456l0,16.765c-3.002,-1.223 -6.315,-2.034 -9.92,-2.397c-7.453,-0.749 -13.555,0.675 -14.227,0.839c-4.009,0.984 -6.451,5.018 -5.487,9.032c0.965,4.014 5.009,6.49 9.028,5.544c0.044,-0.01 4.473,-1.032 9.544,-0.452c5.07,0.58 8.715,2.453 11.09,5.704c0.148,7.867 1.083,15.544 2.73,22.958c-4.613,2.472 -9.748,3.771 -15.093,3.771zm275.02,0c-5.335,0 -10.47,-1.301 -15.093,-3.774c1.646,-7.409 2.581,-15.081 2.729,-22.943c2.375,-3.258 6.021,-5.135 11.097,-5.715c4.993,-0.572 9.366,0.411 9.539,0.451c4.013,0.968 8.057,-1.49 9.042,-5.503c0.987,-4.023 -1.473,-8.084 -5.496,-9.072c-0.671,-0.165 -6.774,-1.588 -14.227,-0.839c-3.609,0.362 -6.924,1.175 -9.928,2.4l0,-16.764c3.891,-1.617 8.087,-2.461 12.335,-2.461c17.706,0 32.11,14.405 32.11,32.11s-14.402,32.11 -32.108,32.11zm41.33,-134.712c0,12.825 -5.85,24.662 -16.051,32.476c-2.98,2.283 -3.813,6.419 -1.949,9.678c3.526,6.165 5.39,13.18 5.39,20.286c0,0.93 -0.042,1.854 -0.104,2.775c-7.939,-6.091 -17.859,-9.723 -28.616,-9.723c-4.182,0 -8.331,0.561 -12.335,1.646l0,-30.948c0,-13.666 -2.187,-27.106 -6.5,-39.948c-1.319,-3.927 -5.571,-6.042 -9.498,-4.722c-3.926,1.319 -6.041,5.571 -4.722,9.498c3.795,11.3 5.72,23.133 5.72,35.172l0,79.59c0,55.653 -45.277,100.93 -100.93,100.93l-18.48,0c-55.659,0 -100.94,-45.277 -100.94,-100.93l0,-79.59c0,-0.245 -0.001,-0.497 0.006,-0.741c0.001,-0.057 0.003,-0.115 0.003,-0.172c0.109,-14.371 7.54,-27.253 19.899,-34.6c3.251,-1.052 6.396,-2.44 9.396,-4.131c10.771,-3.238 22.155,-1.998 32.132,3.535c14.833,8.216 31.689,12.559 48.744,12.559c34.926,0 66.585,-17.611 84.952,-46.609c2.604,3.148 5.021,6.425 7.232,9.805c2.268,3.467 6.916,4.438 10.382,2.171c3.467,-2.267 4.438,-6.916 2.171,-10.382c-4.572,-6.99 -9.918,-13.589 -15.889,-19.614c-1.706,-1.721 -4.141,-2.512 -6.527,-2.124c-2.391,0.387 -4.448,1.906 -5.522,4.076c-14.556,29.408 -43.983,47.677 -76.798,47.677c-14.519,0 -28.861,-3.693 -41.473,-10.679c-6.883,-3.817 -14.268,-6.131 -21.794,-6.906c0.064,-0.097 0.134,-0.187 0.197,-0.285l3.931,-6.102c2.243,-3.482 1.239,-8.123 -2.243,-10.367l-6.102,-3.931c-11.844,-7.63 -25.686,-9.733 -38.477,-6.969l9.027,-14.013c8.492,5.414 17.995,8.005 27.398,8.004c16.812,0 33.294,-8.268 43.056,-23.421l3.931,-6.102c2.243,-3.482 1.239,-8.124 -2.244,-10.367l-6.102,-3.931c-15.502,-9.987 -34.426,-10.502 -49.935,-3.032c0.139,-6.161 -0.844,-12.293 -2.863,-18.091c6.024,-15.795 21.064,-26.248 38.172,-26.248c17.169,0 32.624,10.842 38.457,26.979c1.073,2.97 3.893,4.95 7.051,4.951l0.002,0c3.158,0 5.978,-1.978 7.052,-4.947c5.842,-16.139 21.297,-26.983 38.458,-26.983c10.495,0 20.522,4.04 28.076,11.187c-0.28,1.495 -0.434,3.033 -0.434,4.608c0,2.261 0.308,4.451 0.874,6.535c-10.555,2.911 -18.332,12.591 -18.332,24.058c0,13.762 11.196,24.958 24.958,24.958c6.791,0 12.954,-2.73 17.458,-7.145c4.504,4.416 10.667,7.145 17.458,7.145c10.66,0 19.776,-6.72 23.346,-16.144c6.345,7.328 10.01,16.797 10.01,26.777c0,7.699 -2.167,15.212 -6.267,21.724c-1.292,2.052 -1.512,4.602 -0.59,6.845c0.921,2.243 2.87,3.902 5.231,4.454c18.574,4.341 31.547,20.706 31.547,39.798z" id="svg_49"/>
    <ellipse cx="224.28" cy="245.62" id="svg_50" rx="13.122" ry="17.977"/>
    <ellipse cx="326.061" cy="245.62" id="svg_51" rx="13.122" ry="17.977"/>
    <path d="m342.796,198.954c-8.414,0 -15.26,-6.846 -15.26,-15.26c0,-4.142 -3.358,-7.5 -7.5,-7.5s-7.5,3.358 -7.5,7.5c0,16.686 13.575,30.26 30.26,30.26c4.142,0 7.5,-3.358 7.5,-7.5s-3.358,-7.5 -7.5,-7.5z" id="svg_52"/>
    <path d="m231.435,176.194c-4.142,0 -7.5,3.358 -7.5,7.5c0,8.414 -6.846,15.26 -15.26,15.26c-4.142,0 -7.5,3.358 -7.5,7.5s3.358,7.5 7.5,7.5c16.685,0 30.26,-13.574 30.26,-30.26c0,-4.142 -3.358,-7.5 -7.5,-7.5z" id="svg_53"/>
    <path d="m300.47,270.235c-3.973,-1.178 -8.146,1.084 -9.325,5.055c-2.078,7 -8.649,11.888 -15.978,11.888c-7.321,0 -13.893,-4.892 -15.981,-11.897c-1.185,-3.969 -5.36,-6.228 -9.331,-5.044c-3.969,1.183 -6.228,5.361 -5.044,9.33c3.969,13.313 16.452,22.611 30.356,22.611c13.92,0 26.403,-9.301 30.358,-22.619c1.179,-3.97 -1.084,-8.145 -5.055,-9.324z" id="svg_54"/>
    <path d="m126.169,497l-7.132,0l0,-23.31c23.326,-3.619 41.237,-23.832 41.237,-48.151l0,-41.24c0,-4.142 -3.358,-7.5 -7.5,-7.5l-82.47,0c-4.142,0 -7.5,3.358 -7.5,7.5l0,40.086c-13.504,2.887 -23.663,14.908 -23.663,29.261l0,18.398c0,16.501 13.424,29.925 29.925,29.925l5.106,0c15.885,0 28.913,-12.442 29.864,-28.092l0,23.123l-7.131,0c-4.142,0 -7.5,3.358 -7.5,7.5s3.358,7.5 7.5,7.5l29.263,0c4.142,0 7.5,-3.358 7.5,-7.5s-3.357,-7.5 -7.499,-7.5zm19.106,-105.201l0,33.74c0,18.599 -15.136,33.73 -33.74,33.73c-2.525,0 -5.011,-0.281 -7.436,-0.826l0,-4.797c0,-15.271 -11.501,-27.899 -26.294,-29.697l0,-32.15l67.47,0zm-56.176,80.244c0,8.23 -6.695,14.925 -14.925,14.925l-5.106,0c-8.23,0 -14.925,-6.696 -14.925,-14.925l0,-18.398c0,-8.23 6.695,-14.925 14.925,-14.925l5.106,0c8.23,0 14.925,6.696 14.925,14.925l0,18.398z" id="svg_55"/>
   </g>
  </g>
 </g>
</svg>