<?xml version="1.0" encoding="UTF-8"?>
<svg xmlns="http://www.w3.org/2000/svg" xmlns:xlink="http://www.w3.org/1999/xlink" xmlns:svgjs="http://svgjs.com/svgjs" version="1.1" width="512" height="512" x="0" y="0" viewBox="0 0 511 511.99898" style="enable-background:new 0 0 512 512" xml:space="preserve" class="">
  <g>
    <path xmlns="http://www.w3.org/2000/svg" d="m112.25 309.765625 81.808594-18.109375v145.484375l-116.261719-47.175781c-4.230469-23.296875 21.144531-32.878906 21.144531-32.878906-6.757812-18.269532-2.789062-38.570313 13.308594-47.320313zm0 0" fill="#14110b" data-original="#eaad34" style="" class=""/>
    <path xmlns="http://www.w3.org/2000/svg" d="m328.511719 389.964844-108.570313 39.332031v-143.375l11.878906-2.628906 62.230469 26.472656c16.109375 8.75 20.078125 29.050781 13.304688 47.320313 0 0 25.386719 9.582031 21.15625 32.878906zm0 0" fill="#3a3834" data-original="#ffc84d" style="" class=""/>
    <path xmlns="http://www.w3.org/2000/svg" d="m98.582031 289.355469c-3.960937 1.410156-8.191406 2.171875-12.597656 2.171875-22.28125 0-40.335937-19.417969-40.335937-43.382813 0-12.363281 4.820312-23.519531 12.535156-31.414062-10.425782-7.847657-17.246094-20.851563-17.246094-35.578125 0-15.570313 7.625-29.222656 19.074219-36.875-4.558594-7.023438-7.238281-15.5625-7.238281-24.777344 0-18.199219 10.414062-33.761719 25.183593-40.207031-.609375-2.972657-.925781-6.046875-.925781-9.207031 0-23.953126 18.058594-43.378907 40.339844-43.378907 4.109375 0 8.078125.667969 11.8125 1.894531 7.066406-12.574218 19.894531-20.988281 34.550781-20.988281 19.335937 0 35.488281 14.636719 39.414063 34.164063 3.929687-19.527344 20.078124-34.164063 39.414062-34.164063 14.65625 0 27.488281 8.414063 34.550781 20.988281 3.738281-1.226562 7.707031-1.894531 11.816407-1.894531 22.28125 0 40.335937 19.425781 40.335937 43.378907 0 3.160156-.3125 6.234374-.921875 9.207031 14.769531 6.445312 25.183594 22.007812 25.183594 40.207031 0 9.214844-2.679688 17.753906-7.238282 24.777344 11.449219 7.652344 19.070313 21.304687 19.070313 36.875 0 14.726562-6.820313 27.730468-17.242187 35.578125 7.710937 7.894531 12.535156 19.050781 12.535156 31.414062 0 23.964844-18.058594 43.382813-40.339844 43.382813-4.394531 0-8.625-.761719-12.585938-2.152344zm0 0" fill="#3a3834" data-original="#ffc84d" style="" class=""/>
    <path xmlns="http://www.w3.org/2000/svg" d="m202.46875 38.957031c-2.882812-.710937-5.886719-1.085937-8.972656-1.085937-22.28125 0-40.335938 19.425781-40.335938 43.382812 0 3.15625.3125 6.230469.921875 9.207032-14.769531 6.445312-25.183593 22.003906-25.183593 40.203124 0 9.21875 2.679687 17.753907 7.238281 24.777344-11.449219 7.652344-19.070313 21.304688-19.070313 36.875 0 14.730469 6.820313 27.730469 17.242188 35.578125-7.710938 7.894531-12.535156 19.050781-12.535156 31.414063 0 11.664062 4.285156 22.25 11.238281 30.046875h-34.429688c-3.960937 1.410156-8.191406 2.171875-12.597656 2.171875-22.28125 0-40.335937-19.417969-40.335937-43.382813 0-12.363281 4.820312-23.519531 12.535156-31.414062-10.425782-7.847657-17.246094-20.851563-17.246094-35.578125 0-15.570313 7.625-29.222656 19.074219-36.875-4.558594-7.023438-7.238281-15.5625-7.238281-24.777344 0-18.199219 10.414062-33.761719 25.183593-40.207031-.609375-2.972657-.925781-6.046875-.925781-9.207031 0-23.953126 18.058594-43.378907 40.339844-43.378907 4.109375 0 8.078125.667969 11.8125 1.894531 7.066406-12.574218 19.894531-20.988281 34.550781-20.988281 18.394531 0 33.902344 13.246094 38.734375 31.34375zm0 0" fill="#14110b" data-original="#eaad34" style="" class=""/>
    <path xmlns="http://www.w3.org/2000/svg" d="m377.382812 504.382812h-348.460937l17.398437-88.527343c2.953126-15.042969 16.136719-25.894531 31.476563-25.894531h250.710937c7.664063 0 14.796876 2.710937 20.382813 7.308593 5.582031 4.585938 9.609375 11.0625 11.09375 18.585938zm0 0" fill="#854112" data-original="#ed9254" style="" class=""/>
    <path xmlns="http://www.w3.org/2000/svg" d="m377.382812 504.382812h-296.359374l17.398437-88.527343c2.953125-15.042969 16.136719-25.894531 31.476563-25.894531h198.609374c7.664063 0 14.796876 2.710937 20.382813 7.308593 5.582031 4.585938 9.609375 11.0625 11.09375 18.585938zm0 0" fill="#a76736" data-original="#ffb176" style="" class=""/>
    <path xmlns="http://www.w3.org/2000/svg" d="m233.136719 323.476562v67.011719l-29.984375 23.996094-2.394532-1.929687-4.246093-3.390626-23.34375-18.675781v-67.011719zm0 0" fill="#854112" data-original="#ed9254" style="" class=""/>
    <path xmlns="http://www.w3.org/2000/svg" d="m233.136719 377.296875v13.195313l-29.980469 23.996093-2.398438-1.929687-4.242187-3.390625v-27.722657c1.878906.132813 3.765625.195313 5.675781.214844.324219.011719.636719.011719.964844.011719 10.421875 0 20.480469-1.523437 29.980469-4.375zm0 0" fill="#a76736" data-original="#ffb176" style="" class=""/>
    <path xmlns="http://www.w3.org/2000/svg" d="m98.582031 272.96875c-17.347656 0-31.40625-12.589844-31.40625-28.117188 0-15.527343 14.0625-28.113281 31.40625-28.113281h209.136719c17.347656 0 31.40625 12.585938 31.40625 28.113281 0 15.527344-14.058594 28.117188-31.40625 28.117188" fill="#854112" data-original="#ed9254" style="" class=""/>
    <path xmlns="http://www.w3.org/2000/svg" d="m307.722656 162.222656v95.816406c0 57.757813-46.824218 104.570313-104.566406 104.570313-.328125 0-.640625 0-.964844-.011719-28.492187-.253906-54.273437-11.90625-72.980468-30.613281-18.929688-18.917969-30.632813-45.066406-30.632813-73.945313v-95.816406c18.785156 3.46875 34.304687 2.394532 47.085937-1.472656 47.9375-14.503906 57.492188-68.242188 57.492188-68.242188s15.304688 86.21875 104.566406 69.714844zm0 0" fill="#a76736" data-original="#ffb176" style="" class=""/>
    <path xmlns="http://www.w3.org/2000/svg" d="m202.191406 362.597656c-28.492187-.253906-54.273437-11.90625-72.980468-30.613281-18.929688-18.917969-30.632813-45.066406-30.632813-73.945313v-95.816406c18.785156 3.46875 34.304687 2.394532 47.085937-1.472656v97.289062c0 28.878907 6.425782 55.015626 16.828126 73.945313 10.203124 18.535156 24.199218 30.148437 39.699218 30.613281zm0 0" fill="#854112" data-original="#ed9254" style="" class=""/>
    <g xmlns="http://www.w3.org/2000/svg" fill="#63a358">
      <path d="m103.617188 52.894531c-1.519532 9.515625 2.292968 19.507813 10.710937 25.425781 8.417969 5.914063 19.113281 6.117188 27.550781 1.464844 1.519532-9.515625-2.292968-19.511718-10.710937-25.425781s-19.109375-6.121094-27.550781-1.464844zm0 0" fill="#63a358" data-original="#63a358" style="" class=""/>
      <path d="m38.101562 98.90625c3.710938 8.898438 12.207032 15.394531 22.476563 16.003906s19.476563-4.835937 24.210937-13.230468c-3.707031-8.894532-12.207031-15.390626-22.472656-16.003907-10.269531-.609375-19.476562 4.835938-24.214844 13.230469zm0 0" fill="#63a358" data-original="#63a358" style="" class=""/>
      <path d="m86.042969 20.710938c-9.515625-1.519532-19.507813 2.296874-25.425781 10.710937-5.914063 8.417969-6.121094 19.113281-1.464844 27.550781 9.515625 1.523438 19.507812-2.292968 25.425781-10.710937 5.914063-8.414063 6.121094-19.109375 1.464844-27.550781zm0 0" fill="#63a358" data-original="#63a358" style="" class=""/>
      <path d="m18.914062 61.074219c-7.804687 5.65625-12.171874 15.417969-10.402343 25.554687 1.765625 10.132813 9.183593 17.839844 18.441406 20.515625 7.804687-5.652343 12.175781-15.417969 10.40625-25.550781-1.769531-10.136719-9.1875-17.84375-18.445313-20.519531zm0 0" fill="#63a358" data-original="#63a358" style="" class=""/>
      <path d="m302.6875 52.894531c1.519531 9.515625-2.296875 19.507813-10.714844 25.425781-8.414062 5.914063-19.109375 6.117188-27.550781 1.464844-1.519531-9.515625 2.296875-19.511718 10.714844-25.425781 8.414062-5.914063 19.109375-6.121094 27.550781-1.464844zm0 0" fill="#63a358" data-original="#63a358" style="" class=""/>
      <path d="m368.199219 98.90625c-3.707031 8.898438-12.207031 15.394531-22.476563 16.003906-10.265625.609375-19.476562-4.835937-24.210937-13.230468 3.710937-8.894532 12.207031-15.390626 22.476562-16.003907 10.269531-.609375 19.476563 4.835938 24.210938 13.230469zm0 0" fill="#63a358" data-original="#63a358" style="" class=""/>
      <path d="m320.257812 20.710938c9.519532-1.519532 19.511719 2.296874 25.425782 10.710937 5.914062 8.417969 6.121094 19.113281 1.46875 27.550781-9.519532 1.523438-19.511719-2.292968-25.425782-10.710937-5.917968-8.414063-6.121093-19.109375-1.46875-27.550781zm0 0" fill="#63a358" data-original="#63a358" style="" class=""/>
      <path d="m387.386719 61.074219c7.804687 5.65625 12.175781 15.417969 10.40625 25.554687-1.769531 10.132813-9.1875 17.839844-18.445313 20.515625-7.804687-5.652343-12.171875-15.417969-10.40625-25.550781 1.769532-10.136719 9.1875-17.84375 18.445313-20.519531zm0 0" fill="#63a358" data-original="#63a358" style="" class=""/>
    </g>
    <path xmlns="http://www.w3.org/2000/svg" d="m169.101562 277.914062c-2.972656 2.972657-2.972656 7.792969 0 10.765626 9.390626 9.386718 21.71875 14.082031 34.050782 14.082031 12.328125 0 24.660156-4.695313 34.046875-14.082031 2.972656-2.972657 2.972656-7.792969 0-10.765626-2.972657-2.972656-7.792969-2.972656-10.765625 0-12.835938 12.839844-33.726563 12.839844-46.566406 0-2.96875-2.972656-7.789063-2.972656-10.765626 0zm0 0" fill="#000000" data-original="#000000" style="" class=""/>
    <path xmlns="http://www.w3.org/2000/svg" d="m249.453125 248.492188c4.203125 0 7.613281-3.40625 7.613281-7.613282v-23.621094c0-4.203124-3.410156-7.613281-7.613281-7.613281-4.207031 0-7.613281 3.410157-7.613281 7.613281v23.621094c0 4.207032 3.40625 7.613282 7.613281 7.613282zm0 0" fill="#000000" data-original="#000000" style="" class=""/>
    <path xmlns="http://www.w3.org/2000/svg" d="m156.851562 209.644531c-4.207031 0-7.613281 3.410157-7.613281 7.613281v23.621094c0 4.207032 3.40625 7.613282 7.613281 7.613282 4.203126 0 7.613282-3.40625 7.613282-7.613282v-23.621094c0-4.203124-3.410156-7.613281-7.613282-7.613281zm0 0" fill="#000000" data-original="#000000" style="" class=""/>
    <path xmlns="http://www.w3.org/2000/svg" d="m391.855469 54.910156c-1.898438-1.378906-4.324219-1.800781-6.582031-1.148437-9.933594 2.871093-17.734376 9.910156-21.628907 19.097656-3.078125-3.566406-6.488281-6.789063-10.148437-9.699219.109375-.167968.222656-.332031.320312-.507812 6.269532-11.371094 5.539063-25.015625-1.90625-35.605469-7.441406-10.59375-20.035156-15.898437-32.851562-13.851563-2.316406.371094-4.335938 1.785157-5.46875 3.839844-1.332032 2.417969-2.328125 4.941406-3.03125 7.515625-6.613282-3.5625-13.96875-5.457031-21.625-5.457031-2.816406 0-5.621094.261719-8.382813.78125-9.011719-12.386719-23.101562-19.875-37.984375-19.875-16.015625 0-30.640625 8.613281-39.410156 22.015625-8.773438-13.402344-23.394531-22.015625-39.414062-22.015625-14.878907 0-28.972657 7.488281-37.984376 19.875-2.761718-.519531-5.566406-.78125-8.382812-.78125-7.660156 0-15.015625 1.894531-21.628906 5.457031-.703125-2.570312-1.703125-5.097656-3.035156-7.515625-1.132813-2.054687-3.148438-3.46875-5.464844-3.839844-12.824219-2.046874-25.410156 3.257813-32.855469 13.851563-7.445313 10.589844-8.175781 24.234375-1.90625 35.605469.097656.175781.210937.339844.320313.507812-3.660157 2.910156-7.070313 6.132813-10.148438 9.699219-3.894531-9.1875-11.695312-16.226563-21.628906-19.097656-2.253906-.652344-4.679688-.230469-6.578125 1.148437-10.515625 7.617188-15.664063 20.273438-13.4375 33.027344 2.222656 12.753906 11.355469 22.914062 23.828125 26.523438.585937.167968 1.1875.25 1.785156.273437-.476562 14.246094 2.8125 30.105469 9.894531 47.472656.035157.085938.085938.164063.125.246094-2.15625 5.851563-3.3125 12.171875-3.3125 18.699219 0 13.746094 5.246094 26.835937 14.320313 36.351562-6.242188 8.777344-9.609375 19.40625-9.609375 30.640625 0 28.117188 21.507812 50.992188 47.949219 50.992188 4.105468 0 8.15625-.558594 12.078124-1.648438 1.261719 3.359375 2.683594 6.65625 4.261719 9.878907-12.214843 10.261718-17.035156 27.621093-12.5625 45.757812-8.976562 5.308594-19.285156 15.371094-20.011719 30.058594-15.363281 3.191406-27.785156 15.335937-30.902343 31.203125l-17.398438 88.53125c-.441406 2.234375.144531 4.546875 1.589844 6.304687 1.445313 1.757813 3.601563 2.777344 5.878906 2.777344h348.460938c2.273437 0 4.433593-1.019531 5.878906-2.777344 1.445313-1.757812 2.027344-4.070312 1.589844-6.304687l-7.988281-40.613281c-.8125-4.125-4.816407-6.8125-8.941407-6s-6.8125 4.8125-6 8.9375l6.203125 31.53125h-329.949218l15.613281-79.449219c2.246093-11.445313 12.34375-19.75 24.003906-19.75h95.375c4.203125 0 7.613281-3.40625 7.613281-7.613281v-21.96875c6.929688 1.394531 14.042969 2.148437 21.261719 2.214843.371094.011719.734375.011719 1.109375.011719 7.65625 0 15.136719-.773438 22.371094-2.242188v21.984376c0 4.207031 3.40625 7.613281 7.609375 7.613281h95.375c5.660156 0 11.179687 1.980469 15.546875 5.578125 4.359375 3.582031 7.363281 8.617187 8.457031 14.171875l4.617187 23.496093c.714844 3.628907 3.898438 6.148438 7.464844 6.148438.484375 0 .980469-.046875 1.476563-.144531 4.125-.8125 6.8125-4.8125 6-8.9375l-4.621094-23.5c-1.773437-9.011719-6.648437-17.179688-13.722656-22.992188-4.988281-4.109375-10.910157-6.910156-17.183594-8.210937-.726563-14.6875-11.035156-24.75-20.015625-30.058594 4.484375-18.164062-.359375-35.550781-12.617188-45.804688 1.570313-3.199218 2.992188-6.484374 4.257813-9.84375 3.960937 1.097657 8.03125 1.660157 12.144531 1.660157 26.441406 0 47.953125-22.875 47.953125-50.992188 0-11.234375-3.371093-21.863281-9.613281-30.640625 9.074219-9.515625 14.320312-22.601562 14.320312-36.351562 0-6.53125-1.15625-12.851563-3.3125-18.703125.035157-.082031.082032-.15625.117188-.242188 7.082031-17.367187 10.375-33.222656 9.894531-47.46875.601563-.027343 1.199219-.109375 1.785157-.277343 12.472656-3.605469 21.605468-13.769532 23.832031-26.523438 2.226562-12.753906-2.921875-25.410156-13.4375-33.027344zm-55.195313 20.113282c.148438-1.632813.222656-3.285157.222656-4.9375 0-.003907 0-.011719 0-.019532 3.828126 2.367188 7.421876 5.03125 10.671876 8.027344-1.324219-.078125-2.664063-.097656-4.015626-.015625-.71875.042969-1.429687.117187-2.132812.203125-1.527344-1.183594-3.105469-2.277344-4.746094-3.257812zm-41.277344-16.996094c-.285156 5.589844-3.082031 10.757812-7.789062 14.0625-4.703125 3.304687-10.507812 4.1875-15.867188 2.5625.28125-5.589844 3.078126-10.757813 7.785157-14.0625 4.703125-3.308594 10.515625-4.191406 15.871093-2.5625zm49.054688 35.25c5.734375-.34375 11.148438 1.960937 14.851562 6.160156-3.179687 4.605469-8.277343 7.53125-14.015624 7.875-5.738282.339844-11.148438-1.960938-14.851563-6.160156 3.183594-4.609375 8.277344-7.535156 14.015625-7.875zm-19.046875-65.261719c5.589844.285156 10.761719 3.082031 14.066406 7.785156 3.304688 4.703125 4.1875 10.515625 2.558594 15.871094-4.085937-.207031-7.941406-1.765625-11.015625-4.421875-.0625-.054688-.125-.109375-.1875-.160156-1.058594-.9375-2.019531-2.007813-2.859375-3.203125-1.25-1.78125-2.152344-3.71875-2.707031-5.730469-.023438-.109375-.050782-.21875-.082032-.328125-.8125-3.210937-.75-6.59375.226563-9.8125zm-190.8125 46.636719c-5.355469 1.625-11.167969.746094-15.871094-2.5625-4.707031-3.304688-7.503906-8.472656-7.785156-14.0625 5.351563-1.625 11.164063-.746094 15.871094 2.5625 4.699219 3.304687 7.5 8.472656 7.785156 14.0625zm-64.929687.371094c-1.640626.980468-3.21875 2.074218-4.742188 3.257812-.707031-.085938-1.421875-.160156-2.140625-.203125-1.351563-.082031-2.6875-.0625-4.011719.015625 3.25-2.996094 6.84375-5.660156 10.671875-8.027344v.019532c0 1.652343.074219 3.304687.222657 4.9375zm-13.839844 31.210937c-.035156-.011719-.074219-.027344-.109375-.042969-3.507813-1.296875-6.535157-3.640625-8.683594-6.753906 3.699219-4.199219 9.101563-6.503906 14.847656-6.160156 5.738281.339844 10.835938 3.269531 14.015625 7.875-3.703125 4.199218-9.117187 6.5-14.847656 6.160156-1.820312-.109375-3.574219-.476562-5.222656-1.078125zm11.039062-70.433594c3.304688-4.703125 8.472656-7.5 14.0625-7.785156.992188 3.261719 1.046875 6.691406.195313 9.941406-.007813.027344-.015625.054688-.023438.082031-.546875 2.050782-1.457031 4.03125-2.730469 5.847657-.855468 1.214843-1.835937 2.300781-2.914062 3.25-.015625.011719-.03125.027343-.050781.042969-3.085938 2.699218-6.976563 4.28125-11.101563 4.492187-1.625-5.355469-.746094-11.167969 2.5625-15.871094zm-50.835937 49.515625c-.992188-5.664062.683593-11.292968 4.4375-15.449218 4.933593 2.640624 8.421875 7.371093 9.410156 13.035156.988281 5.664062-.6875 11.296875-4.4375 15.449218-4.9375-2.636718-8.421875-7.367187-9.410156-13.035156zm25.851562 30.476563c1.0625.804687 2.171875 1.546875 3.328125 2.21875-.015625.496093-.027344.988281-.027344 1.488281 0 7.988281 1.730469 15.746094 5.050782 22.785156-1.226563 1.105469-2.386719 2.273438-3.492188 3.492188-3.484375-10.898438-5.105468-20.90625-4.859375-29.984375zm49.277344 148.53125c-9.484375-2.699219-16.351563-10.40625-16.351563-19.472657 0-9.007812 6.78125-16.671874 16.175782-19.417968v32.605468c0 2.105469.0625 4.199219.175781 6.285157zm74.417969 118.027343h-80.453125c.589843-4.28125 2.75-8.136718 6.515625-11.664062 4.652344-4.367188 9.988281-6.464844 10.011718-6.472656 3.914063-1.480469 5.902344-5.84375 4.449219-9.769532-4.054687-10.949218-4.015625-24.953124 4.085938-33.585937 3.976562 5.859375 8.539062 11.390625 13.65625 16.507813 11.972656 11.972656 26.207031 20.90625 41.734375 26.414062zm134.660156-27.90625c-1.453125 3.925782.535156 8.289063 4.453125 9.765626.6875.261718 14.738281 5.726562 16.496094 18.136718h-80.414063v-18.617187c22.691406-8.09375 42.039063-23.300781 55.335938-42.925781 8.144531 8.632812 8.191406 22.671874 4.128906 33.640624zm15.117188-129.011718c9.394531 2.742187 16.179687 10.410156 16.179687 19.417968 0 9.070313-6.871094 16.777344-16.359375 19.472657.113281-2.078125.179688-4.171875.179688-6.28125zm27.339843-3.386719c6.683594 6.847656 10.367188 16.113281 10.367188 26.097656 0 19.722657-14.679688 35.769531-32.722657 35.769531-2.628906 0-5.226562-.347656-7.765624-1.019531.203124-.886719.394531-1.773437.574218-2.664062 18.964844-2.417969 33.613282-17.359375 33.613282-35.378907 0-17.3125-13.523438-31.785156-31.40625-35.039062v-47.589844c0-2.261718-1.003907-4.40625-2.742188-5.851562-1.738281-1.445313-4.027344-2.046875-6.253906-1.636719-24.753906 4.578125-45.636719 1.152344-62.0625-10.1875-27.046875-18.667969-33.566406-53.039063-33.625-53.367187-.644532-3.628907-3.796875-6.269532-7.480469-6.277344-.007813 0-.011719 0-.019531 0-3.675782 0-6.828125 2.640625-7.488282 6.257812-.039062.214844-4.054687 21.550782-18.890624 39.679688-2.660157 3.253906-2.183594 8.050781 1.070312 10.710937 3.253906 2.664063 8.050781 2.1875 10.714844-1.070312 6.527344-7.972657 11.234375-16.367188 14.585937-23.808594 5.832031 12.96875 15.804688 28.84375 32.351563 40.3125 17.804687 12.34375 39.507812 17.066406 64.613281 14.089844v45.640625.019531.019531 41.285156c0 53.460938-43.492187 96.953126-96.953125 96.953126-.246094 0-.484375.003906-.726562-.003907-.058594-.003906-.113282-.003906-.171876-.003906-25.558593-.226563-49.585937-10.308594-67.664062-28.386719-18.316406-18.304687-28.402344-42.652344-28.402344-68.558594v-41.203124c0-.035157.003906-.066407.003906-.097657 0-.035156-.003906-.066406-.003906-.101562v-45.5625c15.125 1.78125 29.113282.765625 41.675782-3.039063 6.296874-1.902344 12.316406-4.535156 17.898437-7.820312 3.621094-2.136719 4.828125-6.804688 2.691406-10.425782-2.132812-3.621093-6.800781-4.828124-10.421875-2.691406-4.535156 2.671875-9.441406 4.8125-14.578125 6.367188-12.667969 3.835937-27.304687 4.261718-43.496093 1.273437-2.222657-.414062-4.515626.1875-6.253907 1.632813-1.738281 1.445312-2.742187 3.589844-2.742187 5.851562v47.589844c-17.878906 3.257812-31.402344 17.726562-31.402344 35.042969 0 18.007812 14.632812 32.941406 33.582031 35.371093.179688.894532.367188 1.785157.570313 2.675782-2.511719.667968-5.097656 1.011718-7.722656 1.011718-18.042969 0-32.726563-16.046874-32.726563-35.769531 0-9.980469 3.683594-19.25 10.371094-26.09375 1.527343-1.566406 2.308593-3.714843 2.144531-5.898437-.167969-2.179688-1.265625-4.1875-3.011719-5.503906-8.898437-6.695313-14.210937-17.722657-14.210937-29.496094 0-12.558594 5.863281-23.976563 15.691406-30.546875 3.460938-2.3125 4.417969-6.976563 2.152344-10.472657-3.394532-5.234374-5.402344-11.269531-5.886719-17.609374.554687.027343 1.105469.046874 1.65625.046874 12.132813 0 23.207031-6.4375 29.25-17.148437 1.152344-2.042969 1.296875-4.503906.394531-6.667969-2.175781-5.226562-5.519531-9.675781-9.671875-13.101562 2.566407-1.683594 3.910157-4.796875 3.277344-7.886719-.511719-2.488281-.769531-5.070313-.769531-7.675781 0-2.695313.277344-5.339844.808594-7.914063 3.382812-1.320312 6.820312-2.480469 10.246093-3.507812.46875 10.277343 5.589844 19.796875 14.246094 25.878906 5.804687 4.082031 12.523437 6.144531 19.285156 6.144531 5.574219 0 11.179688-1.40625 16.320313-4.238281 2.050781-1.132813 3.46875-3.148437 3.839844-5.464844 1.773437-11.113281-1.984376-22.046875-9.910157-29.613281 3.804688-.203125 6.261719-.214844 6.828125-.214844h.113282c4.207031.074219 7.644531-3.332031 7.691406-7.535156.042968-4.207031-3.332032-7.648438-7.535156-7.691406-1.746094-.019532-24.730469-.101563-50.140626 6.667968 5.871094-5.363281 13.195313-8.28125 20.929688-8.28125 3.199219 0 6.375.507813 9.4375 1.515626 3.457031 1.136718 7.234375-.332032 9.015625-3.503907 6.015625-10.710937 16.453125-17.105469 27.914063-17.105469 15.242187 0 28.679687 11.796876 31.949218 28.054688.714844 3.554688 3.835938 6.109375 7.464844 6.109375 3.625 0 6.746094-2.554687 7.460938-6.109375 3.269531-16.257812 16.707031-28.054688 31.949218-28.054688 11.464844 0 21.898438 6.394532 27.914063 17.105469 1.785156 3.171875 5.558593 4.640625 9.015625 3.503907 3.0625-1.007813 6.238281-1.519532 9.4375-1.519532 7.738281 0 15.058594 2.921875 20.933594 8.285156-25.417969-6.773437-48.410157-6.691406-50.148438-6.667968-4.203125.039062-7.574219 3.480468-7.53125 7.683594.039062 4.179687 3.441406 7.539062 7.613281 7.539062h.070313c.132812 0 2.699218-.007812 6.945312.21875-7.925781 7.5625-11.6875 18.496094-9.910156 29.609375.371094 2.316406 1.785156 4.332031 3.839844 5.464844 5.140625 2.835937 10.742187 4.238281 16.320312 4.238281 6.757813 0 13.480469-2.0625 19.285156-6.144531 8.65625-6.082031 13.777344-15.605469 14.242188-25.882813 3.429688 1.023438 6.867188 2.1875 10.253906 3.507813.535156 2.578125.808594 5.222656.808594 7.917969 0 2.605468-.257812 5.1875-.769531 7.675781-.632813 3.09375.710937 6.199219 3.273437 7.886719-4.152344 3.425781-7.496094 7.875-9.675781 13.101562-.902344 2.164062-.753906 4.625.398437 6.667969 6.039063 10.710937 17.113282 17.152343 29.246094 17.152343.554688 0 1.109375-.023437 1.664063-.050781-.484375 6.339844-2.492188 12.375-5.886719 17.609375-2.265625 3.492188-1.304688 8.160156 2.15625 10.472656 9.824219 6.566407 15.691406 17.988282 15.691406 30.546876 0 11.773437-5.3125 22.796874-14.210937 29.496093-1.75 1.316407-2.847657 3.320313-3.011719 5.503907-.167969 2.183593.613281 4.332031 2.144531 5.898437zm13.421875-79.761719c3.316406-7.039062 5.046875-14.796875 5.046875-22.785156 0-.5-.011719-.996094-.023437-1.492188 1.152344-.671874 2.257812-1.414062 3.320312-2.214843.242188 9.078125-1.375 19.082031-4.859375 29.976562-1.105469-1.214843-2.261719-2.382812-3.484375-3.484375zm34.195313-56.964844c-.988281 5.664063-4.472657 10.394532-9.410157 13.03125-3.75-4.152343-5.429687-9.785156-4.441406-15.449218.992188-5.664063 4.476563-10.394532 9.410156-13.035156 3.753907 4.15625 5.429688 9.789062 4.441407 15.453124zm0 0" fill="#000000" data-original="#000000" style="" class=""/>
    <path xmlns="http://www.w3.org/2000/svg" d="m207.191406 313.453125h-8.082031c-4.207031 0-7.613281 3.40625-7.613281 7.609375 0 4.207031 3.40625 7.613281 7.613281 7.613281h8.082031c4.207032 0 7.613282-3.40625 7.613282-7.613281 0-4.203125-3.410157-7.609375-7.613282-7.609375zm0 0" fill="#000000" data-original="#000000" style="" class=""/>
  </g>
</svg>
