<svg id="eVAkwzWRGlQ1" xmlns="http://www.w3.org/2000/svg" xmlns:xlink="http://www.w3.org/1999/xlink" viewBox="0 0 511 511.99898" shape-rendering="geometricPrecision" text-rendering="geometricPrecision"><g id="eVAkwzWRGlQ2" transform="matrix(1 0 0 1 52.347654 -0.00102)"><path id="eVAkwzWRGlQ3" d="M112.25,309.765625L194.058594,291.65625L194.058594,437.140625L77.796875,389.964844C73.566406,366.667969,98.941406,357.085938,98.941406,357.085938C92.183594,338.816406,96.152344,318.515625,112.25,309.765625ZM112.25,309.765625" transform="matrix(1 0 0 1 0 0.000001)" fill="rgb(20,17,11)" stroke="none" stroke-width="1"/><path id="eVAkwzWRGlQ4" d="M328.511719,389.964844L219.941406,429.296875L219.941406,285.921875L231.820312,283.292969L294.050781,309.765625C310.160156,318.515625,314.128906,338.816406,307.355469,357.085938C307.355469,357.085938,332.742188,366.667969,328.511719,389.964844ZM328.511719,389.964844" fill="rgb(58,56,52)" stroke="none" stroke-width="1"/><path id="eVAkwzWRGlQ5" d="M98.582031,289.355469C94.621094,290.765625,90.390625,291.527344,85.984375,291.527344C63.703125,291.527344,45.648438,272.109375,45.648438,248.144531C45.648438,235.78125,50.46875,224.625,58.183594,216.730469C47.757812,208.882812,40.9375,195.878906,40.9375,181.152344C40.9375,165.582031,48.5625,151.929688,60.011719,144.277344C55.453125,137.253906,52.773438,128.714844,52.773438,119.5C52.773438,101.300781,63.1875,85.738281,77.957031,79.292969C77.347656,76.320312,77.03125,73.246094,77.03125,70.085938C77.03125,46.132812,95.089844,26.707031,117.371094,26.707031C121.480469,26.707031,125.449219,27.375,129.183594,28.601562C136.25,16.027344,149.078125,7.613281,163.734375,7.613281C183.070312,7.613281,199.222656,22.25,203.148438,41.777344C207.078125,22.25,223.226562,7.613281,242.5625,7.613281C257.21875,7.613281,270.050781,16.027344,277.113281,28.601562C280.851562,27.375,284.820312,26.707031,288.929688,26.707031C311.210938,26.707031,329.265625,46.132812,329.265625,70.085938C329.265625,73.246094,328.953125,76.320312,328.34375,79.292969C343.113281,85.738281,353.527344,101.300781,353.527344,119.5C353.527344,128.714844,350.847656,137.253906,346.289062,144.277344C357.738281,151.929688,365.359375,165.582031,365.359375,181.152344C365.359375,195.878906,358.539062,208.882812,348.117188,216.730469C355.828125,224.625,360.652344,235.78125,360.652344,248.144531C360.652344,272.109375,342.59375,291.527344,320.3125,291.527344C315.917969,291.527344,311.6875,290.765625,307.726562,289.375ZM98.582031,289.355469" transform="matrix(1 0 0 1 0.000001 0.000001)" fill="rgb(58,56,52)" stroke="none" stroke-width="1"/><path id="eVAkwzWRGlQ6" d="M202.46875,38.957031C199.585938,38.246094,196.582031,37.871094,193.496094,37.871094C171.214844,37.871094,153.160156,57.296875,153.160156,81.253906C153.160156,84.410156,153.472656,87.484375,154.082031,90.460938C139.3125,96.90625,128.898438,112.464844,128.898438,130.664062C128.898438,139.882812,131.578125,148.417969,136.136719,155.441406C124.6875,163.09375,117.066406,176.746094,117.066406,192.316406C117.066406,207.046875,123.886719,220.046875,134.308594,227.894531C126.597656,235.789062,121.773438,246.945312,121.773438,259.308594C121.773438,270.972656,126.058594,281.558594,133.011719,289.355469L98.582031,289.355469C94.621094,290.765625,90.390625,291.527344,85.984375,291.527344C63.703125,291.527344,45.648438,272.109375,45.648438,248.144531C45.648438,235.78125,50.46875,224.625,58.183594,216.730469C47.757812,208.882812,40.9375,195.878906,40.9375,181.152344C40.9375,165.582031,48.5625,151.929688,60.011719,144.277344C55.453125,137.253906,52.773438,128.714844,52.773438,119.5C52.773438,101.300781,63.1875,85.738281,77.957031,79.292969C77.347656,76.320312,77.03125,73.246094,77.03125,70.085938C77.03125,46.132812,95.089844,26.707031,117.371094,26.707031C121.480469,26.707031,125.449219,27.375,129.183594,28.601562C136.25,16.027344,149.078125,7.613281,163.734375,7.613281C182.128906,7.613281,197.636719,20.859375,202.46875,38.957031ZM202.46875,38.957031" transform="matrix(1 0 0 1 0 0.000001)" fill="rgb(20,17,11)" stroke="none" stroke-width="1"/><path id="eVAkwzWRGlQ7" d="M377.382812,504.382812L28.921875,504.382812L46.320312,415.855469C49.273438,400.8125,62.457031,389.960938,77.796875,389.960938L328.507812,389.960938C336.171875,389.960938,343.304688,392.671875,348.890625,397.269531C354.472656,401.855469,358.5,408.332031,359.984375,415.855469ZM377.382812,504.382812" fill="rgb(133,65,18)" stroke="none" stroke-width="1"/><path id="eVAkwzWRGlQ8" d="M377.382812,504.382812L81.023438,504.382812L98.421875,415.855469C101.375,400.8125,114.558594,389.960938,129.898438,389.960938L328.507812,389.960938C336.171875,389.960938,343.304688,392.671875,348.890625,397.269531C354.472656,401.855469,358.5,408.332031,359.984375,415.855469ZM377.382812,504.382812" fill="rgb(167,103,54)" stroke="none" stroke-width="1"/><path id="eVAkwzWRGlQ9" d="M233.136719,323.476562L233.136719,390.488281L203.152344,414.484375L200.757812,412.554688L196.511719,409.164062L173.167969,390.488281L173.167969,323.476562ZM233.136719,323.476562" fill="rgb(133,65,18)" stroke="none" stroke-width="1"/><path id="eVAkwzWRGlQ10" d="M233.136719,377.296875L233.136719,390.492188L203.15625,414.488281L200.757812,412.558594L196.515625,409.167969L196.515625,381.445312C198.394531,381.578125,200.28125,381.640625,202.191406,381.660156C202.515625,381.671875,202.828125,381.671875,203.15625,381.671875C213.578125,381.671875,223.636719,380.148438,233.136719,377.296875ZM233.136719,377.296875" fill="rgb(167,103,54)" stroke="none" stroke-width="1"/><path id="eVAkwzWRGlQ11" d="M98.582031,272.96875C81.234375,272.96875,67.175781,260.378906,67.175781,244.851562C67.175781,229.324219,81.238281,216.738281,98.582031,216.738281L307.71875,216.738281C325.066406,216.738281,339.125,229.324219,339.125,244.851562C339.125,260.378906,325.066406,272.96875,307.71875,272.96875" fill="rgb(133,65,18)" stroke="none" stroke-width="1"/><path id="eVAkwzWRGlQ12" d="M307.722656,162.222656L307.722656,258.039062C307.722656,315.796875,260.898438,362.609375,203.15625,362.609375C202.828125,362.609375,202.515625,362.609375,202.191406,362.597656C173.699219,362.34375,147.917969,350.691406,129.210938,331.984375C110.28125,313.066406,98.578125,286.917969,98.578125,258.039062L98.578125,162.222656C117.363281,165.691406,132.882812,164.617188,145.664062,160.75C193.601562,146.246094,203.15625,92.507812,203.15625,92.507812C203.15625,92.507812,218.460938,178.726562,307.722656,162.222656ZM307.722656,162.222656" fill="rgb(167,103,54)" stroke="none" stroke-width="1"/><path id="eVAkwzWRGlQ13" d="M202.191406,362.597656C173.699219,362.34375,147.917969,350.691406,129.210938,331.984375C110.28125,313.066406,98.578125,286.917969,98.578125,258.039062L98.578125,162.222656C117.363281,165.691406,132.882812,164.617188,145.664062,160.75L145.664062,258.039062C145.664062,286.917969,152.089844,313.054688,162.492188,331.984375C172.695312,350.519531,186.691406,362.132812,202.191406,362.597656ZM202.191406,362.597656" fill="rgb(133,65,18)" stroke="none" stroke-width="1"/><g id="eVAkwzWRGlQ14"><path id="eVAkwzWRGlQ15" d="M103.617188,52.894531C102.097656,62.410156,105.910156,72.402344,114.328125,78.320312C122.746094,84.234375,133.441406,84.4375,141.878906,79.785156C143.398438,70.269531,139.585938,60.273438,131.167969,54.359375C122.75,48.445312,112.058594,48.238281,103.617188,52.894531ZM103.617188,52.894531" fill="rgb(99,163,88)" stroke="none" stroke-width="1"/><path id="eVAkwzWRGlQ16" d="M38.101562,98.90625C41.8125,107.804688,50.308594,114.300781,60.578125,114.910156C70.847656,115.519531,80.054688,110.074219,84.789062,101.679688C81.082031,92.785156,72.582031,86.289062,62.316406,85.675781C52.046875,85.066406,42.839844,90.511719,38.101562,98.90625ZM38.101562,98.90625" transform="matrix(1 0 0 1 0.000001 0)" fill="rgb(99,163,88)" stroke="none" stroke-width="1"/><path id="eVAkwzWRGlQ17" d="M86.042969,20.710938C76.527344,19.191406,66.535156,23.007812,60.617188,31.421875C54.703125,39.839844,54.496094,50.535156,59.152344,58.972656C68.667969,60.496094,78.660156,56.679688,84.578125,48.261719C90.492188,39.847656,90.699219,29.152344,86.042969,20.710938ZM86.042969,20.710938" fill="rgb(99,163,88)" stroke="none" stroke-width="1"/><path id="eVAkwzWRGlQ18" d="M18.914062,61.074219C11.109375,66.730469,6.742188,76.492188,8.511719,86.628906C10.277344,96.761719,17.695312,104.46875,26.953125,107.144531C34.757812,101.492188,39.128906,91.726562,37.359375,81.59375C35.589844,71.457031,28.171875,63.75,18.914062,61.074219ZM18.914062,61.074219" fill="rgb(99,163,88)" stroke="none" stroke-width="1"/><path id="eVAkwzWRGlQ19" d="M302.6875,52.894531C304.207031,62.410156,300.390625,72.402344,291.972656,78.320312C283.558594,84.234375,272.863281,84.4375,264.421875,79.785156C262.902344,70.269531,266.71875,60.273438,275.136719,54.359375C283.550781,48.445312,294.246094,48.238281,302.6875,52.894531ZM302.6875,52.894531" transform="matrix(1 0 0 1 0.000001 0)" fill="rgb(99,163,88)" stroke="none" stroke-width="1"/><path id="eVAkwzWRGlQ20" d="M368.199219,98.90625C364.492188,107.804688,355.992188,114.300781,345.722656,114.910156C335.457031,115.519531,326.246094,110.074219,321.511719,101.679688C325.222656,92.785156,333.71875,86.289062,343.988281,85.675781C354.257812,85.066406,363.464844,90.511719,368.199219,98.90625ZM368.199219,98.90625" fill="rgb(99,163,88)" stroke="none" stroke-width="1"/><path id="eVAkwzWRGlQ21" d="M320.257812,20.710938C329.777344,19.191406,339.769531,23.007812,345.683594,31.421875C351.597656,39.839844,351.804688,50.535156,347.152344,58.972656C337.632812,60.496094,327.640625,56.679688,321.726562,48.261719C315.808594,39.847656,315.605469,29.152344,320.257812,20.710938ZM320.257812,20.710938" fill="rgb(99,163,88)" stroke="none" stroke-width="1"/><path id="eVAkwzWRGlQ22" d="M387.386719,61.074219C395.191406,66.730469,399.5625,76.492188,397.792969,86.628906C396.023438,96.761719,388.605469,104.46875,379.347656,107.144531C371.542969,101.492188,367.175781,91.726562,368.941406,81.59375C370.710938,71.457031,378.128906,63.75,387.386719,61.074219ZM387.386719,61.074219" fill="rgb(99,163,88)" stroke="none" stroke-width="1"/></g><path id="eVAkwzWRGlQ23" d="M169.101562,277.914062C166.128906,280.886719,166.128906,285.707031,169.101562,288.679688C178.492188,298.066406,190.820312,302.761719,203.152344,302.761719C215.480469,302.761719,227.8125,298.066406,237.199219,288.679688C240.171875,285.707031,240.171875,280.886719,237.199219,277.914062C234.226562,274.941406,229.40625,274.941406,226.433594,277.914062C213.597656,290.753906,192.707031,290.753906,179.867188,277.914062C176.898438,274.941406,172.078125,274.941406,169.101562,277.914062ZM169.101562,277.914062" fill="rgb(0,0,0)" stroke="none" stroke-width="1"/><path id="eVAkwzWRGlQ24" d="M249.453125,248.492188C253.65625,248.492188,257.066406,245.085938,257.066406,240.878906L257.066406,217.257812C257.066406,213.054688,253.65625,209.644531,249.453125,209.644531C245.246094,209.644531,241.839844,213.054688,241.839844,217.257812L241.839844,240.878906C241.839844,245.085938,245.246094,248.492188,249.453125,248.492188ZM249.453125,248.492188" fill="rgb(0,0,0)" stroke="none" stroke-width="1"/><path id="eVAkwzWRGlQ25" d="M156.851562,209.644531C152.644531,209.644531,149.238281,213.054688,149.238281,217.257812L149.238281,240.878906C149.238281,245.085938,152.644531,248.492188,156.851562,248.492188C161.054688,248.492188,164.464844,245.085938,164.464844,240.878906L164.464844,217.257812C164.464844,213.054688,161.054688,209.644531,156.851562,209.644531ZM156.851562,209.644531" transform="matrix(1 0 0 1 0.000001 0)" fill="rgb(0,0,0)" stroke="none" stroke-width="1"/><path id="eVAkwzWRGlQ26" d="M391.855469,54.910156C389.957031,53.53125,387.53125,53.109375,385.273438,53.761719C375.339844,56.632812,367.539062,63.671875,363.644531,72.859375C360.566406,69.292969,357.15625,66.070312,353.496094,63.160156C353.605469,62.992188,353.71875,62.828125,353.816406,62.652344C360.085938,51.28125,359.355469,37.636719,351.910156,27.046875C344.46875,16.453125,331.875,11.148438,319.058594,13.195312C316.742188,13.566406,314.722656,14.980469,313.589844,17.035156C312.257812,19.453125,311.261719,21.976562,310.558594,24.550781C303.945312,20.988281,296.589844,19.09375,288.933594,19.09375C286.117188,19.09375,283.3125,19.355469,280.550781,19.875C271.539062,7.488281,257.449219,0,242.566406,0C226.550781,0,211.925781,8.613281,203.15625,22.015625C194.382812,8.613281,179.761719,0,163.742188,0C148.863281,0,134.769531,7.488281,125.757812,19.875C122.996094,19.355469,120.191406,19.09375,117.375,19.09375C109.714844,19.09375,102.359375,20.988281,95.746094,24.550781C95.042969,21.980469,94.042969,19.453125,92.710938,17.035156C91.578125,14.980469,89.5625,13.566406,87.246094,13.195312C74.421875,11.148438,61.835938,16.453125,54.390625,27.046875C46.945312,37.636719,46.214844,51.28125,52.484375,62.652344C52.582031,62.828125,52.695312,62.992188,52.804688,63.160156C49.144531,66.070312,45.734375,69.292969,42.65625,72.859375C38.761719,63.671875,30.960938,56.632812,21.027344,53.761719C18.773438,53.109375,16.347656,53.53125,14.449219,54.910156C3.933594,62.527344,-1.214844,75.183594,1.011719,87.9375C3.234375,100.691406,12.367188,110.851562,24.839844,114.460938C25.425781,114.628906,26.027344,114.710938,26.625,114.734375C26.148438,128.980469,29.4375,144.839844,36.519531,162.207031C36.554688,162.292969,36.605469,162.371094,36.644531,162.453125C34.488281,168.304688,33.332031,174.625,33.332031,181.152344C33.332031,194.898438,38.578125,207.988281,47.652344,217.503906C41.410156,226.28125,38.042969,236.910156,38.042969,248.144531C38.042969,276.261719,59.550781,299.136719,85.992188,299.136719C90.097656,299.136719,94.148438,298.578125,98.070312,297.488281C99.332031,300.847656,100.753906,304.144531,102.332031,307.367188C90.117188,317.628906,85.296875,334.988281,89.769531,353.125C80.792969,358.433594,70.484375,368.496094,69.757812,383.183594C54.394531,386.375,41.972656,398.519531,38.855469,414.386719L21.457031,502.917969C21.015625,505.152344,21.601562,507.464844,23.046875,509.222656C24.492188,510.980469,26.648438,512,28.925781,512L377.386719,512C379.660156,512,381.820312,510.980469,383.265625,509.222656C384.710938,507.464844,385.292969,505.152344,384.855469,502.917969L376.867188,462.304688C376.054688,458.179688,372.050781,455.492188,367.925781,456.304688C363.800781,457.117188,361.113281,461.117188,361.925781,465.242188L368.128906,496.773438L38.179688,496.773438L53.792969,417.324219C56.039062,405.878906,66.136719,397.574219,77.796875,397.574219L173.171875,397.574219C177.375,397.574219,180.785156,394.167969,180.785156,389.960938L180.785156,367.992188C187.714844,369.386719,194.828125,370.140625,202.046875,370.207031C202.417969,370.21875,202.78125,370.21875,203.15625,370.21875C210.8125,370.21875,218.292969,369.445312,225.527344,367.976562L225.527344,389.960938C225.527344,394.167969,228.933594,397.574219,233.136719,397.574219L328.511719,397.574219C334.171875,397.574219,339.691406,399.554688,344.058594,403.152344C348.417969,406.734375,351.421875,411.769531,352.515625,417.324219L357.132812,440.820312C357.847656,444.449219,361.03125,446.96875,364.597656,446.96875C365.082031,446.96875,365.578125,446.921875,366.074219,446.824219C370.199219,446.011719,372.886719,442.011719,372.074219,437.886719L367.453125,414.386719C365.679688,405.375,360.804688,397.207031,353.730469,391.394531C348.742188,387.285156,342.820312,384.484375,336.546875,383.183594C335.820312,368.496094,325.511719,358.433594,316.53125,353.125C321.015625,334.960938,316.171875,317.574219,303.914062,307.320312C305.484375,304.121094,306.90625,300.835938,308.171875,297.476562C312.132812,298.574219,316.203125,299.136719,320.316406,299.136719C346.757812,299.136719,368.269531,276.261719,368.269531,248.144531C368.269531,236.910156,364.898438,226.28125,358.65625,217.503906C367.730469,207.988281,372.976562,194.902344,372.976562,181.152344C372.976562,174.621094,371.820312,168.300781,369.664062,162.449219C369.699219,162.367188,369.746094,162.292969,369.78125,162.207031C376.863281,144.839844,380.15625,128.984375,379.675781,114.738281C380.277344,114.710938,380.875,114.628906,381.460938,114.460938C393.933594,110.855469,403.066406,100.691406,405.292969,87.9375C407.519531,75.183594,402.371094,62.527344,391.855469,54.910156ZM336.660156,75.023438C336.808594,73.390625,336.882812,71.738281,336.882812,70.085938C336.882812,70.082031,336.882812,70.074219,336.882812,70.066406C340.710938,72.433594,344.304688,75.097656,347.554688,78.09375C346.230469,78.015625,344.890625,77.996094,343.539062,78.078125C342.820312,78.121094,342.109375,78.195312,341.40625,78.28125C339.878906,77.097656,338.300781,76.003906,336.660156,75.023438ZM295.382812,58.027344C295.097656,63.617188,292.300781,68.785156,287.59375,72.089844C282.890625,75.394531,277.085938,76.277344,271.726562,74.652344C272.007812,69.0625,274.804688,63.894531,279.511719,60.589844C284.214844,57.28125,290.027344,56.398438,295.382812,58.027344ZM344.4375,93.277344C350.171875,92.933594,355.585938,95.238281,359.289062,99.4375C356.109375,104.042969,351.011719,106.96875,345.273438,107.3125C339.535156,107.652344,334.125,105.351562,330.421875,101.152344C333.605469,96.542969,338.699219,93.617188,344.4375,93.277344ZM325.390625,28.015625C330.980469,28.300781,336.152344,31.097656,339.457031,35.800781C342.761719,40.503906,343.644531,46.316406,342.015625,51.671875C337.929688,51.464844,334.074219,49.90625,331,47.25C330.9375,47.195312,330.875,47.140625,330.8125,47.089844C329.753906,46.152344,328.792969,45.082031,327.953125,43.886719C326.703125,42.105469,325.800781,40.167969,325.246094,38.15625C325.222656,38.046875,325.195312,37.9375,325.164062,37.828125C324.351562,34.617188,324.414062,31.234375,325.390625,28.015625ZM134.578125,74.652344C129.222656,76.277344,123.410156,75.398438,118.707031,72.089844C114,68.785156,111.203125,63.617188,110.921875,58.027344C116.273438,56.402344,122.085938,57.28125,126.792969,60.589844C131.492188,63.894531,134.292969,69.0625,134.578125,74.652344ZM69.648438,75.023438C68.007812,76.003906,66.429688,77.097656,64.90625,78.28125C64.199219,78.195312,63.484375,78.121094,62.765625,78.078125C61.414062,77.996094,60.078125,78.015625,58.753906,78.09375C62.003906,75.097656,65.597656,72.433594,69.425781,70.066406L69.425781,70.085938C69.425781,71.738281,69.5,73.390625,69.648438,75.023438ZM55.808594,106.234375C55.773438,106.222656,55.734375,106.207031,55.699219,106.191406C52.191406,104.894531,49.164062,102.550781,47.015625,99.4375C50.714844,95.238281,56.117188,92.933594,61.863281,93.277344C67.601562,93.617188,72.699219,96.546875,75.878906,101.152344C72.175781,105.351562,66.761719,107.652344,61.03125,107.3125C59.210938,107.203125,57.457031,106.835938,55.808594,106.234375ZM66.847656,35.800781C70.152344,31.097656,75.320312,28.300781,80.910156,28.015625C81.902344,31.277344,81.957031,34.707031,81.105469,37.957031C81.097656,37.984375,81.089844,38.011719,81.082031,38.039062C80.535156,40.089844,79.625,42.070312,78.351562,43.886719C77.496094,45.101562,76.515625,46.1875,75.4375,47.136719C75.421875,47.148438,75.40625,47.164062,75.386719,47.179688C72.300781,49.878906,68.410156,51.460938,64.285156,51.671875C62.660156,46.316406,63.539062,40.503906,66.847656,35.800781ZM16.011719,85.316406C15.019531,79.652344,16.695312,74.023438,20.449219,69.867188C25.382812,72.507812,28.871094,77.238281,29.859375,82.902344C30.847656,88.566406,29.171875,94.199219,25.421875,98.351562C20.484375,95.714844,17,90.984375,16.011719,85.316406ZM41.863281,115.792969C42.925781,116.597656,44.035156,117.339844,45.191406,118.011719C45.175781,118.507812,45.164062,119,45.164062,119.5C45.164062,127.488281,46.894531,135.246094,50.214844,142.285156C48.988281,143.390625,47.828125,144.558594,46.722656,145.777344C43.238281,134.878906,41.617188,124.871094,41.863281,115.792969ZM91.140625,264.324219C81.65625,261.625,74.789062,253.917969,74.789062,244.851562C74.789062,235.84375,81.570312,228.179688,90.964844,225.433594L90.964844,258.039062C90.964844,260.144531,91.027344,262.238281,91.140625,264.324219ZM165.558594,382.351562L85.105469,382.351562C85.695312,378.070312,87.855469,374.214844,91.621094,370.6875C96.273438,366.320312,101.609375,364.222656,101.632812,364.214844C105.546875,362.734375,107.535156,358.371094,106.082031,354.445312C102.027344,343.496094,102.066406,329.492188,110.167969,320.859375C114.144531,326.71875,118.707031,332.25,123.824219,337.367188C135.796875,349.339844,150.03125,358.273438,165.558594,363.78125ZM300.21875,354.445312C298.765625,358.371094,300.753906,362.734375,304.671875,364.210938C305.359375,364.472656,319.410156,369.9375,321.167969,382.347656L240.753906,382.347656L240.753906,363.730469C263.445312,355.636719,282.792969,340.429688,296.089844,320.804688C304.234375,329.4375,304.28125,343.476562,300.21875,354.445312ZM315.335938,225.433594C324.730469,228.175781,331.515625,235.84375,331.515625,244.851562C331.515625,253.921875,324.644531,261.628906,315.15625,264.324219C315.269531,262.246094,315.335938,260.152344,315.335938,258.042969ZM342.675781,222.046875C349.359375,228.894531,353.042969,238.160156,353.042969,248.144531C353.042969,267.867188,338.363281,283.914062,320.320312,283.914062C317.691406,283.914062,315.09375,283.566406,312.554688,282.894531C312.757812,282.007812,312.949219,281.121094,313.128906,280.230469C332.09375,277.8125,346.742188,262.871094,346.742188,244.851562C346.742188,227.539062,333.21875,213.066406,315.335938,209.8125L315.335938,162.222656C315.335938,159.960938,314.332031,157.816406,312.59375,156.371094C310.855469,154.925781,308.566406,154.324219,306.339844,154.734375C281.585938,159.3125,260.703125,155.886719,244.277344,144.546875C217.230469,125.878906,210.710938,91.507812,210.652344,91.179688C210.007812,87.550781,206.855469,84.910156,203.171875,84.902344C203.164062,84.902344,203.160156,84.902344,203.152344,84.902344C199.476562,84.902344,196.324219,87.542969,195.664062,91.160156C195.625,91.375,191.609375,112.710938,176.773438,130.839844C174.113281,134.09375,174.589844,138.890625,177.84375,141.550781C181.097656,144.214844,185.894531,143.738281,188.558594,140.480469C195.085938,132.507812,199.792969,124.113281,203.144531,116.671875C208.976562,129.640625,218.949219,145.515625,235.496094,156.984375C253.300781,169.328125,275.003906,174.050781,300.109375,171.074219L300.109375,216.714844L300.109375,216.734375L300.109375,216.753906L300.109375,258.039062C300.109375,311.5,256.617188,354.992188,203.15625,354.992188C202.910156,354.992188,202.671875,354.996094,202.429688,354.988281C202.371094,354.984375,202.316406,354.984375,202.257812,354.984375C176.699219,354.757812,152.671875,344.675781,134.59375,326.597656C116.277344,308.292969,106.191406,283.945312,106.191406,258.039062L106.191406,216.835938C106.191406,216.800781,106.195312,216.769531,106.195312,216.738281C106.195312,216.703125,106.191406,216.671875,106.191406,216.636719L106.191406,171.074219C121.316406,172.855469,135.304688,171.839844,147.867188,168.035156C154.164062,166.132812,160.183594,163.5,165.765625,160.214844C169.386719,158.078125,170.59375,153.410156,168.457031,149.789062C166.324219,146.167969,161.65625,144.960938,158.035156,147.097656C153.5,149.769531,148.59375,151.910156,143.457031,153.464844C130.789062,157.300781,116.152344,157.726562,99.960938,154.738281C97.738281,154.324219,95.445312,154.925781,93.707031,156.371094C91.96875,157.816406,90.964844,159.960938,90.964844,162.222656L90.964844,209.8125C73.085938,213.070312,59.5625,227.539062,59.5625,244.855469C59.5625,262.863281,74.195312,277.796875,93.144531,280.226562C93.324219,281.121094,93.511719,282.011719,93.714844,282.902344C91.203125,283.570312,88.617188,283.914062,85.992188,283.914062C67.949219,283.914062,53.265625,267.867188,53.265625,248.144531C53.265625,238.164062,56.949219,228.894531,63.636719,222.050781C65.164062,220.484375,65.945312,218.335938,65.78125,216.152344C65.613281,213.972656,64.515625,211.964844,62.769531,210.648438C53.871094,203.953125,48.558594,192.925781,48.558594,181.152344C48.558594,168.59375,54.421875,157.175781,64.25,150.605469C67.710938,148.292969,68.667969,143.628906,66.402344,140.132812C63.007812,134.898438,61,128.863281,60.515625,122.523438C61.070312,122.550781,61.621094,122.570312,62.171875,122.570312C74.304688,122.570312,85.378906,116.132812,91.421875,105.421875C92.574219,103.378906,92.71875,100.917969,91.816406,98.753906C89.640625,93.527344,86.296875,89.078125,82.144531,85.652344C84.710938,83.96875,86.054688,80.855469,85.421875,77.765625C84.910156,75.277344,84.652344,72.695312,84.652344,70.089844C84.652344,67.394531,84.929688,64.75,85.460938,62.175781C88.84375,60.855469,92.28125,59.695312,95.707031,58.667969C96.175781,68.945312,101.296875,78.464844,109.953125,84.546875C115.757812,88.628906,122.476562,90.691406,129.238281,90.691406C134.8125,90.691406,140.417969,89.285156,145.558594,86.453125C147.609375,85.320312,149.027344,83.304688,149.398438,80.988281C151.171875,69.875,147.414062,58.941406,139.488281,51.375C143.292969,51.171875,145.75,51.160156,146.316406,51.160156L146.429688,51.160156C150.636719,51.234375,154.074219,47.828125,154.121094,43.625C154.164062,39.417969,150.789062,35.976562,146.585938,35.933594C144.839844,35.914062,121.855469,35.832031,96.445312,42.601562C102.316406,37.238281,109.640625,34.320312,117.375,34.320312C120.574219,34.320312,123.75,34.828125,126.8125,35.835938C130.269531,36.972656,134.046875,35.503906,135.828125,32.332031C141.84375,21.621094,152.28125,15.226562,163.742188,15.226562C178.984375,15.226562,192.421875,27.023438,195.691406,43.28125C196.40625,46.835938,199.527344,49.390625,203.15625,49.390625C206.78125,49.390625,209.902344,46.835938,210.617188,43.28125C213.886719,27.023438,227.324219,15.226562,242.566406,15.226562C254.03125,15.226562,264.464844,21.621094,270.480469,32.332031C272.265625,35.503906,276.039062,36.972656,279.496094,35.835938C282.558594,34.828125,285.734375,34.316406,288.933594,34.316406C296.671875,34.316406,303.992188,37.238281,309.867188,42.601562C284.449219,35.828125,261.457031,35.910156,259.71875,35.933594C255.515625,35.972656,252.144531,39.414062,252.1875,43.617188C252.226562,47.796875,255.628906,51.15625,259.800781,51.15625L259.871094,51.15625C260.003906,51.15625,262.570312,51.148438,266.816406,51.375C258.890625,58.9375,255.128906,69.871094,256.90625,80.984375C257.277344,83.300781,258.691406,85.316406,260.746094,86.449219C265.886719,89.285156,271.488281,90.6875,277.066406,90.6875C283.824219,90.6875,290.546875,88.625,296.351562,84.542969C305.007812,78.460938,310.128906,68.9375,310.59375,58.660156C314.023438,59.683594,317.460938,60.847656,320.847656,62.167969C321.382812,64.746094,321.65625,67.390625,321.65625,70.085938C321.65625,72.691406,321.398438,75.273438,320.886719,77.761719C320.253906,80.855469,321.597656,83.960938,324.160156,85.648438C320.007812,89.074219,316.664062,93.523438,314.484375,98.75C313.582031,100.914062,313.730469,103.375,314.882812,105.417969C320.921875,116.128906,331.996094,122.570312,344.128906,122.570312C344.683594,122.570312,345.238281,122.546875,345.792969,122.519531C345.308594,128.859375,343.300781,134.894531,339.90625,140.128906C337.640625,143.621094,338.601562,148.289062,342.0625,150.601562C351.886719,157.167969,357.753906,168.589844,357.753906,181.148438C357.753906,192.921875,352.441406,203.945312,343.542969,210.644531C341.792969,211.960938,340.695312,213.964844,340.53125,216.148438C340.363281,218.332031,341.144531,220.480469,342.675781,222.046875ZM356.097656,142.285156C359.414062,135.246094,361.144531,127.488281,361.144531,119.5C361.144531,119,361.132812,118.503906,361.121094,118.007812C362.273438,117.335938,363.378906,116.59375,364.441406,115.792969C364.683594,124.871094,363.066406,134.875,359.582031,145.769531C358.476562,144.554688,357.320312,143.386719,356.097656,142.285156ZM390.292969,85.320312C389.304688,90.984375,385.820312,95.714844,380.882812,98.351562C377.132812,94.199219,375.453125,88.566406,376.441406,82.902344C377.433594,77.238281,380.917969,72.507812,385.851562,69.867188C389.605469,74.023438,391.28125,79.65625,390.292969,85.320312ZM390.292969,85.320312" fill="rgb(0,0,0)" stroke="none" stroke-width="1"/><path id="eVAkwzWRGlQ27" d="M207.191406,313.453125L199.109375,313.453125C194.902344,313.453125,191.496094,316.859375,191.496094,321.0625C191.496094,325.269531,194.902344,328.675781,199.109375,328.675781L207.191406,328.675781C211.398438,328.675781,214.804688,325.269531,214.804688,321.0625C214.804688,316.859375,211.394531,313.453125,207.191406,313.453125ZM207.191406,313.453125" fill="rgb(0,0,0)" stroke="none" stroke-width="1"/></g></svg>