<svg id="Capa_1" enable-background="new 0 0 511.99 511.99" height="512" viewBox="0 0 511.99 511.99" width="512" xmlns="http://www.w3.org/2000/svg"><g><g><path d="m414.288 303.75h-316.587c-11.012 0-19.938-8.926-19.938-19.938s8.926-19.938 19.938-19.938h316.587c11.012 0 19.938 8.926 19.938 19.938s-8.926 19.938-19.938 19.938z" fill="#9d6b6b"/><path d="m434.226 283.812c0 11.005-8.932 19.938-19.938 19.938h-316.591c-11.016 0-19.938-8.933-19.938-19.938 0-2.831.588-5.523 1.655-7.955 3.07 7.048 10.099 11.972 18.283 11.972h316.591c8.175 0 15.213-4.925 18.283-11.972 1.067 2.432 1.655 5.124 1.655 7.955z" fill="#8b5e5e"/><path d="m303.081 504.488h-94.172c-96.351 0-174.739-78.388-174.739-174.739 0-46.676 18.177-90.556 51.181-123.559l34.823-34.822c18.958-18.959-21.692-35.099-42.227-35.099s-37.182-16.647-37.182-37.182c0-25.081 9.941-48.488 27.99-65.907 18.045-17.414 41.805-26.51 66.902-25.619 49.501 1.761 88.278 42.536 88.278 92.831 0 46.673-18.176 90.553-51.178 123.558l-34.824 34.823c-18.959 18.959-29.399 44.164-29.399 70.976 0 55.347 45.029 100.375 100.375 100.375h94.172c55.347 0 100.375-45.029 100.375-100.375 0-26.812-10.44-52.017-29.399-70.975l-34.823-34.824c-33.004-33.005-51.18-76.885-51.18-123.558 0-50.295 38.777-91.071 88.281-92.831 25.082-.89 48.853 8.206 66.899 25.621 18.05 17.419 27.99 40.825 27.99 65.906 0 20.535-16.647 37.182-37.182 37.182s-61.185 16.14-42.227 35.099l34.822 34.823c33.004 33.003 51.181 76.882 51.181 123.558.002 96.35-78.386 174.738-174.737 174.738z" fill="#ffc250"/><g fill="#e7a52e"><path d="m442.63 329.734c0 55.355-45.018 100.373-100.373 100.373h-39.178c55.354 0 100.373-45.019 100.373-100.373 0-26.814-10.446-52.01-29.391-70.954l-34.819-34.847c-33.01-32.982-51.187-76.877-51.187-123.54 0-50.31 38.767-91.079 88.282-92.834 7.814-.274 15.518.411 22.92 2.056-41.482 8.993-72.024 46.115-72.024 90.777 0 46.664 18.177 90.558 51.187 123.54l34.819 34.847c18.945 18.945 29.391 44.141 29.391 70.955z"/><path d="m274.549 504.5h-65.636c-96.343 0-174.727-78.385-174.727-174.755 0-46.664 18.177-90.558 51.16-123.54l34.847-34.82c18.945-18.972-21.714-35.121-42.249-35.121s-37.177-16.642-37.177-37.177c0-25.087 9.952-48.473 27.992-65.91 18.04-17.41 41.811-26.512 66.897-25.608 10.391.357 20.316 2.468 29.501 6.004-11.323 4.304-21.742 10.912-30.762 19.603-18.04 17.437-27.992 40.823-27.992 65.91 0 20.535 16.998 33.448 37.205 37.177 59.522 11.049 7.402 69.94 7.402 69.94-33.01 32.982-68.085 76.877-68.085 123.54-.002 96.372 95.281 174.757 191.624 174.757z"/></g></g><path d="m431.938 200.887-34.819-34.82c-3.453-3.453-2.756-5.136-2.421-5.945 3.102-7.488 24.43-16.352 39.347-16.352 24.637 0 44.681-20.043 44.681-44.68 0-21.592-6.766-42.047-19.565-59.153-2.479-3.315-7.181-3.994-10.498-1.512-3.316 2.481-3.993 7.182-1.512 10.498 10.844 14.492 16.575 31.839 16.575 50.167 0 16.366-13.314 29.68-29.681 29.68-8.651 0-20.06 2.481-29.773 6.477-8.525 3.506-19.512 9.672-23.431 19.135-1.818 4.389-3.499 13.121 5.671 22.292l34.82 34.821c31.588 31.577 48.983 73.574 48.983 118.256 0 92.217-75.02 167.24-167.23 167.24h-94.18c-92.211 0-167.23-75.023-167.23-167.24 0-44.682 17.396-86.679 48.984-118.257l34.819-34.82c9.17-9.17 7.489-17.902 5.671-22.292-3.919-9.463-14.905-15.629-23.431-19.135-9.714-3.995-21.122-6.477-29.773-6.477-16.366 0-29.681-13.314-29.681-29.68 0-23.029 9.127-44.52 25.697-60.512 16.573-15.985 38.375-24.334 61.427-23.523 45.447 1.616 81.047 39.099 81.047 85.335 0 44.671-17.396 86.669-48.984 118.257l-34.819 34.82c-20.375 20.375-31.597 47.467-31.597 76.283 0 10.542 1.53 20.972 4.548 31.001 1.193 3.966 5.376 6.214 9.343 5.021 3.967-1.194 6.214-5.376 5.021-9.343-2.595-8.626-3.911-17.602-3.911-26.679 0-6.284.625-12.471 1.836-18.495h67.534v108.333c-21.609-5.661-40.733-19.022-53.569-38.078-2.315-3.436-6.977-4.344-10.411-2.03-3.436 2.314-4.344 6.975-2.03 10.411 20.134 29.887 53.596 47.729 89.511 47.729h94.18c59.479 0 107.87-48.39 107.87-107.87 0-28.816-11.222-55.908-31.597-76.283l-34.819-34.82c-31.588-31.588-48.984-73.585-48.984-118.257 0-46.236 35.6-83.719 81.046-85.335 18.334-.647 35.889 4.46 50.771 14.778 3.404 2.358 8.077 1.513 10.437-1.89 2.36-3.404 1.515-8.077-1.89-10.437-17.565-12.177-38.256-18.206-59.853-17.441-53.559 1.904-95.514 45.972-95.514 100.325 0 48.678 18.956 94.442 53.377 128.863l27.125 27.126h-34.482v-17.009c0-4.142-3.357-7.5-7.5-7.5s-7.5 3.358-7.5 7.5v17.009h-27.061v-17.009c0-4.142-3.357-7.5-7.5-7.5s-7.5 3.358-7.5 7.5v17.009h-27.05v-17.009c0-4.142-3.357-7.5-7.5-7.5s-7.5 3.358-7.5 7.5v17.009h-27.06v-17.009c0-4.142-3.357-7.5-7.5-7.5s-7.5 3.358-7.5 7.5v17.009h-34.472l27.125-27.126c34.421-34.421 53.377-80.186 53.377-128.863 0-54.353-41.955-98.421-95.515-100.325-27.131-.965-52.841 8.88-72.371 27.718-19.529 18.847-30.282 44.17-30.282 71.307 0 24.637 20.044 44.68 44.681 44.68 14.917 0 36.245 8.864 39.347 16.352.335.809 1.032 2.492-2.421 5.945l-34.818 34.819c-34.421 34.41-53.378 80.175-53.378 128.864 0 100.488 81.748 182.24 182.23 182.24h94.18c100.482 0 182.23-81.752 182.23-182.24-.001-48.689-18.958-94.454-53.378-128.863zm-231.533 221.342v-110.974h27.06v111.365h-18.56c-2.854 0-5.689-.133-8.5-.391zm42.06-110.974h27.05v111.365h-27.05zm42.05 111.365v-111.365h27.061v110.973c-2.797.255-5.628.392-8.49.392zm42.06-3.012v-108.353h67.544c1.211 6.024 1.836 12.211 1.836 18.495 0 43.096-29.508 79.427-69.38 89.858zm48.745-148.229c6.129 7.557 10.959 15.941 14.409 24.875h-63.154v-24.875zm-63.745 0v24.875h-27.061v-24.875zm-42.06 0v24.875h-27.05v-24.875zm-42.05 0v24.875h-27.06v-24.875zm-42.06 24.876h-63.144c3.45-8.935 8.28-17.318 14.409-24.875h48.735z"/></g></svg>