<?xml version="1.0"?>
<svg width="512" height="512" xmlns="http://www.w3.org/2000/svg" xmlns:svg="http://www.w3.org/2000/svg">

 <g class="layer">
  <title>Layer 1</title>
  <g id="svg_1">
   <g id="svg_2">
    <path d="m383.35,504.5l-254.7,0c13.04,-22.05 31.64,-40.41 53.87,-53.16l146.96,0c22.23,12.75 40.83,31.11 53.87,53.16z" fill="#ede6e3" id="svg_3"/>
    <path d="m202.84,466.32c-7.2,10.77 -13.36,23.68 -18.16,38.18l-56.03,0c13.04,-22.05 31.64,-40.41 53.87,-53.16l2.72,2.72c5.54,4.73 11.44,8.83 17.6,12.26z" fill="#d8cec9" id="svg_4"/>
    <path d="m329.475,451.337l-2.72,2.72c-35.21,30.08 -84.8,34.17 -123.92,12.26c-6.16,-3.43 -12.06,-7.53 -17.6,-12.26l-2.72,-2.72c13.01,-7.47 27.27,-13.02 42.39,-16.25l0,-53.89l62.19,0l0,53.89c15.11,3.23 29.37,8.78 42.38,16.25z" fill="#dbb972" id="svg_5"/>
    <path d="m238.585,381.197l0,53.89c-13.42,5.13 -25.62,16.05 -35.75,31.23c-6.16,-3.43 -12.06,-7.53 -17.6,-12.26l-2.72,-2.72c13.01,-7.47 27.27,-13.02 42.39,-16.25l0,-53.89l13.68,0z" fill="#c4a15c" id="svg_6" transform="matrix(1, 0, 0, 1, 0, 0)"/>
    <path d="m319.176,7.5c-24.581,0 -46.868,9.809 -63.172,25.721c-16.305,-15.912 -38.591,-25.721 -63.173,-25.721c-49.961,0 -90.462,40.501 -90.462,90.462l0,194.963c0,49.961 40.501,90.462 90.462,90.462c24.581,0 46.868,-9.809 63.172,-25.721c16.304,15.912 38.591,25.721 63.172,25.721c49.961,0 90.462,-40.501 90.462,-90.462l0,-194.963c0.001,-49.961 -40.5,-90.462 -90.461,-90.462z" fill="#9d6b6b" id="svg_7"/>
    <path d="m235.39,372.762c-2.55,1.37 -5.18,2.61 -7.87,3.73c-10.68,4.45 -22.4,6.9 -34.69,6.9c-49.96,0 -90.46,-40.51 -90.46,-90.47l0,-194.96c0,-24.98 10.13,-47.59 26.49,-63.97c16.38,-16.36 38.99,-26.49 63.97,-26.49c15.39,0 29.88,3.85 42.57,10.63c-7.91,4.21 -15.12,9.58 -21.4,15.86c-16.38,16.38 -26.5,38.99 -26.5,63.97l0,194.96c0,34.57 19.39,64.61 47.89,79.84z" fill="#8b5e5e" id="svg_8"/>
    <path d="m287.1,381.2l0,24.61c-7.05,1.43 -14.34,2.18 -21.81,2.18l-18.57,0c-7.47,0 -14.76,-0.75 -21.81,-2.18l0,-24.61l62.19,0z" fill="#c4a15c" id="svg_9" transform="matrix(1, 0, 0, 1, 0, 0)"/>
    <g fill="#ffcbbe" id="svg_10" transform="matrix(1, 0, 0, 1, 0, 0)">
     <circle cx="117.778" cy="271.2" fill="#c4a15c" id="svg_11" r="39.816" transform="matrix(1, 0, 0, 1, 0, 0)"/>
     <circle cx="394.229" cy="271.2" fill="#c4a15c" id="svg_12" r="39.816"/>
    </g>
    <path d="m374.289,164.743l-115.544,-50.134l-121.027,50.134l0,109.645c0,60.198 48.8,108.998 108.998,108.998l18.576,0c60.198,0 108.998,-48.8 108.998,-108.998l0,-109.645l-0.001,0z" fill="#dbb972" id="svg_13" transform="matrix(1, 0, 0, 1, 0, 0)"/>
    <path d="m293.248,379.759c-8.92,2.37 -18.29,3.63 -27.96,3.63l-18.57,0c-60.2,0 -109,-48.8 -109,-109l0,-109.649l74.49,-50.131l0,159.78c0,50.53 34.39,93.03 81.04,105.37z" fill="#c4a15c" id="svg_14" transform="matrix(1, 0, 0, 1, 0, 0)"/>
    <path d="m374.29,114.61l0,50.13c-60.52,-19.66 -124.71,-23.85 -186.79,-12.55c-16.79,3.05 -33.42,7.23 -49.78,12.55l0,-50.13c16.36,-5.32 32.99,-9.5 49.78,-12.55c62.08,-11.3 126.27,-7.11 186.79,12.55z" fill="#ffc250" id="svg_15"/>
    <path d="m187.5,102.06l0,50.13c-16.79,3.05 -33.42,7.23 -49.78,12.55l0,-50.13c16.36,-5.32 32.99,-9.5 49.78,-12.55z" fill="#e7a52e" id="svg_16"/>
    <path d="m347.546,81.276l0,34.992c0,9.917 -8.04,17.957 -17.957,17.957c-9.834,0 -17.812,-7.908 -17.945,-17.711c-3.18,2.857 -7.372,4.611 -11.984,4.611c-9.917,0 -17.957,-8.04 -17.957,-17.957l0,-2.967c0,-14.873 -12.057,-26.931 -26.931,-26.931l-1.668,0" fill="#9d6b6b" id="svg_17"/>
    <path d="m307.29,119.405c-2.31,1.1 -4.89,1.72 -7.63,1.72c-4.95,0 -9.44,-2.01 -12.69,-5.26s-5.26,-7.74 -5.26,-12.7l0,-2.97c0,-12.89 -9.06,-23.66 -21.15,-26.3l20.59,1.75c9.35,4.23 15.85,13.63 15.85,24.55l0,2.97c0,4.96 2.01,9.45 5.26,12.7c1.45,1.45 3.15,2.66 5.03,3.54z" fill="#8b5e5e" id="svg_18"/>
    <g id="svg_19">
     <g id="svg_20">
      <circle cx="330.76" cy="454.054" fill="#ffc250" id="svg_21" r="23.831"/>
      <path d="m340.688,475.734c-3.02,1.39 -6.38,2.16 -9.92,2.16c-13.17,0 -23.84,-10.67 -23.84,-23.84c0,-13.16 10.67,-23.83 23.84,-23.83c3.54,0 6.9,0.77 9.92,2.16c-8.21,3.75 -13.92,12.05 -13.92,21.67c0,9.63 5.71,17.92 13.92,21.68z" fill="#e7a52e" id="svg_22"/>
     </g>
     <g id="svg_23">
      <circle cx="181.24" cy="454.054" fill="#ffc250" id="svg_24" r="23.831"/>
      <path d="m191.168,475.734c-3.02,1.39 -6.38,2.16 -9.92,2.16c-13.17,0 -23.84,-10.67 -23.84,-23.84c0,-13.16 10.67,-23.83 23.84,-23.83c3.54,0 6.9,0.77 9.92,2.16c-8.21,3.75 -13.92,12.05 -13.92,21.67c0,9.63 5.71,17.92 13.92,21.68z" fill="#e7a52e" id="svg_25"/>
     </g>
    </g>
   </g>
   <g id="svg_26">
    <path d="m441.54,271.197c0,-17.779 -9.862,-33.292 -24.397,-41.376l0,-131.861c0,-54.015 -43.945,-97.96 -97.96,-97.96c-23.338,0 -45.513,8.151 -63.179,23.091c-17.657,-14.939 -39.83,-23.091 -63.171,-23.091c-26.166,0 -50.768,10.191 -69.273,28.697c-18.5,18.499 -28.687,43.097 -28.687,69.263l0,131.852c-14.544,8.081 -24.413,23.599 -24.413,41.384c0,18.68 10.883,34.862 26.64,42.55c9.689,44.94 49.309,77.143 95.732,77.143c8.345,0 16.596,-1.049 24.577,-3.117l0,41.375c-4.358,1.115 -8.674,2.434 -12.923,3.925c-5.738,-6.352 -14.034,-10.351 -23.247,-10.351c-17.276,0 -31.332,14.055 -31.332,31.331c0,3.671 0.64,7.194 1.805,10.47c-11.619,10.523 -21.536,22.66 -29.519,36.158c-1.371,2.318 -1.394,5.194 -0.059,7.534c1.334,2.34 3.821,3.784 6.515,3.784l254.7,0c2.693,0 5.18,-1.444 6.515,-3.784c1.334,-2.34 1.312,-5.215 -0.059,-7.534c-7.983,-13.498 -17.9,-25.635 -29.519,-36.158c1.165,-3.276 1.805,-6.799 1.805,-10.47c0,-17.276 -14.055,-31.331 -31.332,-31.331c-9.213,0 -17.509,3.999 -23.247,10.35c-4.245,-1.49 -8.558,-2.809 -12.913,-3.923l0,-41.379c7.991,2.069 16.244,3.119 24.583,3.119c20.531,0 40.198,-6.292 56.877,-18.195c3.372,-2.406 4.154,-7.09 1.748,-10.462c-2.405,-3.371 -7.089,-4.154 -10.461,-1.748c-13.211,9.429 -28.64,14.697 -44.813,15.337c23.94,-13.563 42.635,-35.351 52.206,-61.502c6.075,2.755 12.671,4.192 19.486,4.192c1.337,0 2.657,-0.07 3.967,-0.179c-2.589,8.091 -6.42,15.712 -11.452,22.758c-2.407,3.371 -1.626,8.055 1.745,10.462c1.321,0.944 2.844,1.397 4.353,1.397c2.34,0 4.646,-1.092 6.11,-3.142c7.812,-10.939 13.168,-23.058 15.97,-36.07c15.746,-7.688 26.622,-23.866 26.622,-42.539zm-331.667,-173.237c0,-22.159 8.627,-42.991 24.293,-58.656c15.672,-15.673 36.507,-24.304 58.667,-24.304c21.774,0 42.348,8.377 57.931,23.587c2.913,2.843 7.562,2.844 10.476,0.001c15.593,-15.211 36.172,-23.588 57.943,-23.588c45.744,0 82.96,37.216 82.96,82.96l0,126.596c-2.577,-0.436 -5.219,-0.675 -7.918,-0.675c-4.217,0 -8.399,0.569 -12.435,1.667l0.003,-110.938c0,-3.25 -2.093,-6.13 -5.184,-7.133c-7.169,-2.328 -14.396,-4.438 -21.562,-6.315l0,-19.886c0,-4.142 -3.358,-7.5 -7.5,-7.5s-7.5,3.358 -7.5,7.5l0,34.992c0,5.766 -4.691,10.457 -10.457,10.457c-5.682,0 -10.368,-4.626 -10.445,-10.313c-0.04,-2.942 -1.797,-5.589 -4.492,-6.769c-2.694,-1.18 -5.832,-0.675 -8.02,1.292c-1.93,1.734 -4.406,2.69 -6.971,2.69c-5.766,0 -10.458,-4.691 -10.458,-10.457l0,-2.967c0,-18.985 -15.445,-34.43 -34.431,-34.43l-1.667,0c-4.142,0 -7.5,3.358 -7.5,7.5s3.358,7.5 7.5,7.5l1.667,0c6.391,0 12.054,3.115 15.597,7.892c-45.843,-1.713 -91.19,4.59 -134.964,18.815c-3.09,1.004 -5.182,3.884 -5.182,7.133l-0.005,110.938c-4.038,-1.098 -8.222,-1.667 -12.442,-1.667c-2.694,0 -5.331,0.238 -7.903,0.673l0,-126.595l-0.001,0zm-24.413,173.237c0,-17.819 14.497,-32.316 32.316,-32.316c4.287,0 8.52,0.852 12.442,2.485l0,16.936c-3.029,-1.241 -6.375,-2.065 -10.019,-2.431c-7.486,-0.752 -13.614,0.677 -14.287,0.843c-4.009,0.984 -6.452,5.019 -5.487,9.032s5.009,6.488 9.028,5.543c0.044,-0.01 4.5,-1.039 9.605,-0.455c5.117,0.585 8.794,2.479 11.187,5.767c0.148,7.916 1.091,15.641 2.75,23.1c-4.651,2.497 -9.829,3.811 -15.22,3.811c-17.818,0 -32.315,-14.497 -32.315,-32.315zm28.367,47.138c1.304,0.108 2.618,0.177 3.949,0.177c6.825,0 13.424,-1.437 19.493,-4.191c9.569,26.146 28.259,47.93 52.193,61.494c-35.146,-1.4 -65.148,-24.585 -75.635,-57.48zm67.413,119.388c9.005,0 16.332,7.326 16.332,16.331s-7.326,16.332 -16.332,16.332s-16.332,-7.326 -16.332,-16.332s7.326,-16.331 16.332,-16.331zm188.205,59.277l-226.89,0c5.209,-7.141 11.087,-13.762 17.568,-19.822c5.574,5.095 12.988,8.208 21.117,8.208c9.009,0 17.137,-3.828 22.858,-9.936c16.281,8.108 34.089,12.173 51.901,12.173c17.813,0 35.621,-4.066 51.902,-12.173c5.721,6.108 13.849,9.936 22.858,9.936c8.129,0 15.543,-3.113 21.117,-8.208c6.482,6.06 12.36,12.681 17.569,19.822zm-38.685,-59.277c9.005,0 16.332,7.326 16.332,16.331s-7.326,16.332 -16.332,16.332s-16.332,-7.326 -16.332,-16.332s7.326,-16.331 16.332,-16.331zm-30.4,8.752c-0.606,2.428 -0.932,4.966 -0.932,7.579c0,2.876 0.397,5.659 1.126,8.306c-28.006,13.693 -61.103,13.692 -89.109,0c0.729,-2.647 1.126,-5.43 1.126,-8.306c0,-2.613 -0.326,-5.151 -0.932,-7.579c4.874,-1.621 9.84,-2.982 14.839,-4.051c3.459,-0.74 5.932,-3.796 5.932,-7.334l0,-45.083c4.69,0.577 9.463,0.879 14.306,0.879l18.576,0c4.844,0 9.618,-0.302 14.308,-0.879l0,45.083c0,3.537 2.471,6.593 5.93,7.334c4.997,1.07 9.959,2.431 14.83,4.051zm-35.068,-70.589l-18.576,0c-55.966,0 -101.498,-45.532 -101.498,-101.498l0,-104.13c9.601,-2.966 19.393,-5.591 29.207,-7.778c4.043,-0.901 6.59,-4.909 5.688,-8.952s-4.908,-6.592 -8.952,-5.689c-8.693,1.938 -17.382,4.19 -25.938,6.721l0,-34.46c41.889,-12.955 85.222,-18.406 128.997,-16.261c0.358,13.727 11.628,24.786 25.44,24.786c2.445,0 4.854,-0.353 7.162,-1.032c4.193,8.36 12.858,14.132 22.767,14.132c13.897,0 25.222,-11.195 25.446,-25.04c3.913,1.07 7.838,2.206 11.757,3.416l0,34.462c-53.426,-15.785 -110.424,-20.01 -165.533,-12.199c-4.101,0.581 -6.955,4.377 -6.373,8.478s4.373,6.955 8.479,6.373c54.451,-7.718 110.832,-3.213 163.424,13.016l0,104.157c0.001,55.967 -45.531,101.498 -101.497,101.498zm128.933,-72.374c-5.378,0 -10.555,-1.314 -15.213,-3.811c1.659,-7.459 2.601,-15.184 2.75,-23.1c2.394,-3.288 6.07,-5.182 11.187,-5.767c5.043,-0.577 9.457,0.421 9.602,0.454c4.015,0.967 8.056,-1.491 9.041,-5.504c0.987,-4.023 -1.473,-8.084 -5.496,-9.072c-0.674,-0.166 -6.801,-1.594 -14.287,-0.843c-3.644,0.366 -6.989,1.19 -10.019,2.431l0,-16.935c3.921,-1.633 8.152,-2.486 12.435,-2.486c17.819,0 32.315,14.497 32.315,32.316s-14.497,32.317 -32.315,32.317z" id="svg_27"/>
    <path d="m199.823,231.231c-7.272,0 -13.189,8.106 -13.189,18.07s5.917,18.07 13.189,18.07s13.189,-8.106 13.189,-18.07s-5.917,-18.07 -13.189,-18.07z" fill="black" id="svg_28"/>
    <path d="m312.185,231.231c-7.272,0 -13.189,8.106 -13.189,18.07s5.917,18.07 13.189,18.07s13.189,-8.106 13.189,-18.07s-5.917,-18.07 -13.189,-18.07z" fill="black" id="svg_29"/>
    <path d="m179.121,199.662c-2.929,2.929 -2.929,7.677 0,10.606s7.678,2.929 10.606,0c5.997,-5.997 15.753,-5.996 21.749,0c1.464,1.465 3.384,2.197 5.303,2.197s3.839,-0.732 5.303,-2.197c2.929,-2.929 2.929,-7.677 0,-10.606c-11.844,-11.845 -31.116,-11.845 -42.961,0z" id="svg_30"/>
    <path d="m312.542,190.764c-8.114,0 -15.743,3.16 -21.48,8.898c-2.929,2.929 -2.929,7.677 0,10.606c1.464,1.465 3.384,2.197 5.303,2.197s3.839,-0.732 5.303,-2.197c2.905,-2.905 6.767,-4.504 10.874,-4.504c4.108,0 7.969,1.6 10.874,4.504c2.929,2.929 7.678,2.928 10.606,0c2.929,-2.929 2.929,-7.678 0,-10.607c-5.737,-5.737 -13.366,-8.897 -21.48,-8.897z" id="svg_31"/>
    <path d="m281.307,282.967c-3.971,-1.179 -8.146,1.084 -9.325,5.055c-2.078,7 -8.649,11.888 -15.979,11.888c-7.321,0 -13.892,-4.892 -15.98,-11.896c-1.184,-3.97 -5.363,-6.229 -9.331,-5.044c-3.969,1.183 -6.228,5.361 -5.044,9.33c3.969,13.313 16.452,22.611 30.355,22.611c13.92,0 26.404,-9.301 30.358,-22.619c1.18,-3.971 -1.084,-8.146 -5.054,-9.325z" id="svg_32"/>
   </g>
  </g>
 </g>
</svg>