<svg id="Capa_1" enable-background="new 0 0 512 512" height="512" viewBox="0 0 512 512" width="512" xmlns="http://www.w3.org/2000/svg"><g><g><path d="m382.025 443.029c14.168 0 25.652-11.485 25.652-25.652s-11.484-25.652-25.652-25.652c-20.656 0-37.46-16.805-37.46-37.46v-107.23c0-34.61-28.157-62.767-62.767-62.767h-25.668c-14.168 0-25.652 11.485-25.652 25.652s11.484 25.652 25.652 25.652h25.668c6.321 0 11.463 5.142 11.463 11.463v107.23c.001 48.945 39.82 88.764 88.764 88.764z" fill="#95d6a4"/><path d="m433.329 443.029c14.168 0 25.652-11.485 25.652-25.652s-11.484-25.652-25.652-25.652c-20.656 0-37.46-16.805-37.46-37.46v-107.23c0-34.61-28.157-62.767-62.767-62.767h-25.668c-14.168 0-25.652 11.485-25.652 25.652s11.484 25.652 25.652 25.652h25.668c6.321 0 11.463 5.142 11.463 11.463v107.23c.001 48.945 39.82 88.764 88.764 88.764z" fill="#b3e59f"/><path d="m441.499 441.698c-2.565.872-5.315 1.334-8.168 1.334-48.944 0-88.766-39.822-88.766-88.766v-107.225c0-6.321-5.141-11.461-11.461-11.461h23.538c6.321 0 11.471 5.141 11.471 11.461v107.225c.001 43.7 31.737 80.126 73.386 87.432z" fill="#95d6a4"/><path d="m449.095 348.327c14.168 0 25.652-11.485 25.652-25.652s-11.484-25.652-25.652-25.652c-11.602 0-21.042-9.439-21.042-21.042v-123.648c0-34.609-28.157-62.766-62.767-62.766h-25.668c-14.168 0-25.652 11.485-25.652 25.652s11.484 25.652 25.652 25.652h25.668c6.321 0 11.463 5.142 11.463 11.463v123.649c.001 39.89 32.455 72.344 72.346 72.344z" fill="#b3e59f"/><path d="m456.709 347.188c-2.411.739-4.966 1.139-7.614 1.139-39.883 0-72.338-32.455-72.338-72.349v-123.652c0-6.33-5.131-11.461-11.461-11.461h-25.095c-14.385 0-26.501-11.772-26.224-26.155.268-13.938 11.645-25.149 25.647-25.149h25.672c.115 0 .23 0 .345.001 17.366.094 31.302 14.422 31.356 31.788.151 48.218.231 154.628.231 154.628 0 35.503 25.702 65.115 59.481 71.21z" fill="#95d6a4"/><path d="m129.975 443.029c-14.168 0-25.652-11.485-25.652-25.652s11.484-25.652 25.652-25.652c20.656 0 37.46-16.805 37.46-37.46v-107.23c0-34.61 28.157-62.767 62.767-62.767h25.668c14.168 0 25.652 11.485 25.652 25.652s-11.484 25.652-25.652 25.652h-25.668c-6.321 0-11.463 5.142-11.463 11.463v107.23c-.001 48.945-39.82 88.764-88.764 88.764z" fill="#95d6a4"/><path d="m78.671 443.029c-14.168 0-25.652-11.485-25.652-25.652s11.484-25.652 25.652-25.652c20.656 0 37.46-16.805 37.46-37.46v-107.23c0-34.61 28.157-62.767 62.767-62.767h25.668c14.168 0 25.652 11.485 25.652 25.652s-11.484 25.652-25.652 25.652h-25.668c-6.321 0-11.463 5.142-11.463 11.463v107.23c-.001 48.945-39.82 88.764-88.764 88.764z" fill="#b3e59f"/><path d="m203.473 184.274c-34.61 0-62.765 28.156-62.765 62.765v107.225c0 20.655-16.807 37.462-37.462 37.462-14.17 0-25.652 11.482-25.652 25.652 0 11.184 7.152 20.696 17.135 24.195-5.202.954-10.579 1.457-16.058 1.457-14.16 0-25.652-11.482-25.652-25.652s11.492-25.652 25.652-25.652c20.665 0 37.462-16.807 37.462-37.462v-107.225c0-34.609 28.155-62.765 62.765-62.765z" fill="#95d6a4"/><path d="m62.905 348.327c-14.168 0-25.652-11.485-25.652-25.652s11.484-25.652 25.652-25.652c11.602 0 21.042-9.439 21.042-21.042v-123.648c0-34.609 28.157-62.766 62.767-62.766h25.668c14.168 0 25.652 11.485 25.652 25.652s-11.484 25.652-25.652 25.652h-25.668c-6.321 0-11.463 5.142-11.463 11.463v123.649c-.001 39.89-32.455 72.344-72.346 72.344z" fill="#b3e59f"/><path d="m172.715 89.572c-34.322.328-62.149 28.35-62.149 62.755v123.652c0 11.605-9.44 21.045-21.045 21.045-14.17 0-25.652 11.482-25.652 25.652 0 10.671 6.516 19.824 15.791 23.692-5.377 1.283-10.989 1.96-16.756 1.96-14.17 0-25.652-11.492-25.652-25.652 0-14.17 11.482-25.652 25.652-25.652 11.605 0 21.045-9.44 21.045-21.045v-123.653c0-34.609 28.156-62.765 62.765-62.765h25.672c.114 0 .216 0 .329.011z" fill="#95d6a4"/><path d="m376.834 67.074v105.778h-241.579v-105.778c0-7.942 3.212-15.124 8.414-20.326s12.385-8.414 20.316-8.414c12.631 0 23.343 8.137 27.191 19.454.37 1.077.677 2.186.913 3.314v-21.64c0-8.835 3.581-16.817 9.358-22.604 5.787-5.787 13.78-9.358 22.604-9.358 3.735 0 7.316.636 10.651 1.826 12.405 4.381 21.301 16.212 21.301 30.136h.072c0-8.835 3.581-16.817 9.358-22.604 5.787-5.787 13.78-9.358 22.604-9.358 17.649 0 31.963 14.304 31.963 31.962v21.589c1.17-5.52 3.94-10.456 7.778-14.304 5.202-5.202 12.395-8.414 20.327-8.414 15.872 0 28.729 12.868 28.729 28.741z" fill="#b3e59f"/><g fill="#95d6a4"><path d="m163.989 38.334c5.079 0 9.85 1.324 13.996 3.632-2.329 1.293-4.453 2.904-6.331 4.782-5.202 5.202-8.414 12.385-8.414 20.326v105.778h-27.981v-105.778c0-7.942 3.212-15.124 8.414-20.326s12.385-8.414 20.316-8.414z"/><path d="m348.104 38.333c5.079 0 9.85 1.324 13.996 3.632-2.329 1.293-4.453 2.904-6.331 4.782-5.202 5.202-8.414 12.385-8.414 20.326v105.778h-27.981v-105.777c0-7.942 3.212-15.124 8.414-20.326s12.384-8.415 20.316-8.415z"/><path d="m234.702 9.326c-2.032 1.231-3.889 2.699-5.562 4.381-5.428 5.428-8.783 12.918-8.783 21.199v110.334h-28.268v-105.778c0-8.835 3.581-16.817 9.358-22.604 5.787-5.787 13.78-9.358 22.604-9.358 3.735 0 7.316.636 10.651 1.826z"/><path d="m298.688 9.326c-2.032 1.231-3.889 2.699-5.561 4.381-5.428 5.428-8.783 12.918-8.783 21.199v110.334h-28.268v-105.778c0-8.835 3.581-16.817 9.358-22.604 5.787-5.787 13.78-9.358 22.604-9.358 3.734 0 7.315.636 10.65 1.826z"/></g><path d="m386.005 504.5h-260.005c21.107-35.678 56.474-61.919 98.259-70.86v-55.013h63.487v55.013c41.786 8.941 77.152 35.182 98.259 70.86z" fill="#ffddce"/><path d="m287.752 378.627v22.758c-7.193 1.457-14.642 2.227-22.266 2.227h-18.962c-7.624 0-15.073-.77-22.266-2.227v-22.758z" fill="#ffcbbe"/><path d="m242.592 378.622v55.018c-17.659 8.937-32.598 35.184-41.515 70.86h-75.077c21.106-35.676 56.475-61.923 98.256-70.86v-55.018z" fill="#ffcbbe"/><g fill="#ffcbbe"><circle cx="114.898" cy="266.335" r="40.646"/><circle cx="397.114" cy="266.335" r="40.646"/></g><path d="m376.756 152.333v117.259c0 61.451-49.816 111.267-111.267 111.267h-18.962c-61.451 0-111.277-49.816-111.277-111.267v-117.259c4.463 1.498 9.245 2.319 14.211 2.319 21.127 0 38.796-14.775 43.259-34.548 7.429 5.613 16.684 8.947 26.708 8.947 15.186 0 28.576-7.634 36.579-19.259 7.993 11.625 21.383 19.259 36.569 19.259 10.025 0 19.28-3.335 26.709-8.947 4.464 19.772 22.132 34.548 43.259 34.548 4.967 0 9.748-.821 14.212-2.319z" fill="#ffddce"/><path d="m289.365 378.283c-7.685 1.693-15.678 2.575-23.877 2.575h-18.962c-61.451 0-111.277-49.816-111.277-111.267v-117.258c4.463 1.498 9.245 2.319 14.211 2.319 21.127 0 38.796-14.775 43.259-34.548 2.832 2.134 5.941 3.95 9.245 5.366v144.121c.001 53.254 37.422 97.775 87.401 108.692z" fill="#ffcbbe"/></g><g><path d="m493.379 347.444h-12.178l-5.297-5.297c3.983-5.471 6.342-12.197 6.342-19.467 0-18.28-14.872-33.152-33.151-33.152-3.068 0-5.981-1.061-8.336-2.911 2.879-6.169 4.497-13.041 4.497-20.286 0-10.859-3.617-20.887-9.705-28.951v-70.05c0-4.142-3.357-7.5-7.5-7.5s-7.5 3.358-7.5 7.5v56.969c-6.942-3.887-14.934-6.113-23.44-6.113-4.361 0-8.685.604-12.854 1.757l.078-119.486c17.076 6.273 30.245 20.717 34.649 38.761.837 3.427 3.903 5.724 7.28 5.724.589 0 1.188-.07 1.784-.216 4.024-.982 6.49-5.041 5.508-9.064-6.037-24.732-25.021-44.144-49.222-50.956v-17.632c0-9.678-3.769-18.777-10.61-25.619-6.843-6.843-15.941-10.611-25.62-10.611-7.579 0-14.738 2.399-20.661 6.522-.507-9.751-4.542-18.847-11.497-25.801-7.459-7.458-17.37-11.565-27.909-11.565-13.157 0-24.823 6.479-31.997 16.407-7.172-9.928-18.834-16.407-31.988-16.407-10.539 0-20.45 4.107-27.907 11.564-6.957 6.956-10.992 16.053-11.499 25.805-5.922-4.126-13.08-6.526-20.661-6.526-9.679 0-18.777 3.768-25.62 10.611-6.842 6.842-10.61 15.941-10.61 25.619v17.594c-30.075 8.393-51.304 35.912-51.304 67.663v85.055c-6.086 8.063-9.701 18.089-9.701 28.946 0 7.244 1.618 14.114 4.496 20.283-2.356 1.852-5.27 2.914-8.34 2.914-18.279 0-33.151 14.872-33.151 33.152 0 7.27 2.358 13.996 6.342 19.467l-5.297 5.297h-12.179c-4.143 0-7.5 3.358-7.5 7.5s3.357 7.5 7.5 7.5h7.785v7.785c0 4.142 3.357 7.5 7.5 7.5s7.5-3.358 7.5-7.5v-12.178l6.052-6.052c4.616 2.442 9.872 3.832 15.448 3.832 16.735 0 32.592-5.215 45.724-14.396v12.825c0 16.52-13.44 29.96-29.96 29.96-18.284 0-33.16 14.875-33.16 33.16 0 7.644 2.608 14.686 6.972 20.299l-9.831 9.831h-12.178c-4.143 0-7.5 3.358-7.5 7.5s3.357 7.5 7.5 7.5h7.785v7.785c0 4.142 3.357 7.5 7.5 7.5s7.5-3.358 7.5-7.5v-12.178l10.925-10.925c4.38 2.136 9.295 3.337 14.487 3.337 11.327 0 22.361-1.973 32.703-5.708 5.46 3.703 11.912 5.706 18.598 5.706 37.545 0 71.025-21.751 86.791-54.65v31.818c-40.539 10.34-75.731 36.677-97.221 72.984-1.372 2.318-1.396 5.195-.062 7.535 1.335 2.34 3.821 3.785 6.516 3.785h260.005c2.693 0 5.181-1.445 6.515-3.785 1.335-2.34 1.312-5.216-.06-7.534-21.479-36.306-56.668-62.645-97.211-72.985v-31.805c15.769 32.892 49.245 54.637 86.785 54.637 6.693 0 13.151-2.007 18.615-5.718 10.211 3.697 21.218 5.718 32.688 5.718 5.19 0 10.104-1.202 14.483-3.337l10.926 10.926v12.178c0 4.142 3.357 7.5 7.5 7.5s7.5-3.358 7.5-7.5v-7.785h7.785c4.143 0 7.5-3.358 7.5-7.5s-3.357-7.5-7.5-7.5h-12.178l-9.834-9.834c4.363-5.614 6.97-12.656 6.97-20.3 0-18.28-14.872-33.152-33.152-33.152-16.521 0-29.962-13.441-29.962-29.962v-12.827c13.132 9.181 28.989 14.396 45.723 14.396 5.576 0 10.831-1.39 15.448-3.832l6.052 6.052v12.178c0 4.142 3.357 7.5 7.5 7.5s7.5-3.358 7.5-7.5v-7.785h7.785c4.143 0 7.5-3.358 7.5-7.5s-3.357-7.499-7.499-7.499zm-96.27-114.258c18.276 0 33.146 14.869 33.146 33.146s-14.869 33.146-33.146 33.146c-5.558 0-10.904-1.371-15.709-3.97 1.709-7.651 2.678-15.578 2.828-23.702 2.469-3.425 6.269-5.397 11.569-6.001 5.177-.592 9.708.436 9.848.468 4.012.967 8.057-1.491 9.042-5.503.987-4.022-1.474-8.084-5.496-9.071-.686-.168-6.917-1.622-14.532-.856-3.793.381-7.266 1.25-10.402 2.563v-17.626c4.049-1.702 8.423-2.594 12.852-2.594zm-131.62 140.173h-18.962c-57.223 0-103.777-46.55-103.777-103.767l.005-107.871c2.217.287 4.456.431 6.706.431 20.953 0 39.244-12.24 47.399-30.751 6.98 3.389 14.636 5.15 22.568 5.15 13.825 0 26.938-5.519 36.576-15.102 9.634 9.583 22.744 15.102 36.572 15.102 7.934 0 15.587-1.761 22.567-5.15 8.156 18.51 26.448 30.751 47.4 30.751 2.252 0 4.492-.145 6.711-.432v107.872c.002 57.217-46.548 103.767-103.765 103.767zm-183.739-107.027c0-18.277 14.869-33.146 33.146-33.146 4.431 0 8.805.891 12.854 2.591v17.626c-3.134-1.311-6.606-2.18-10.396-2.56-7.622-.765-13.847.688-14.533.856-4.009.984-6.452 5.019-5.486 9.033.965 4.014 5.006 6.489 9.029 5.542.045-.01 4.617-1.066 9.851-.469 5.295.604 9.093 2.572 11.563 5.991.149 8.129 1.118 16.059 2.829 23.714-4.796 2.597-10.142 3.967-15.711 3.967-18.277.001-33.146-14.869-33.146-33.145zm266.354-220.488c5.672 0 11.004 2.208 15.013 6.217 4.01 4.009 6.218 9.341 6.218 15.013v79.447c-2.233.414-4.501.631-6.789.631-16.502 0-31.174-11.277-35.528-27.048h.483v-58.117c2.304-9.389 10.855-16.143 20.603-16.143zm-84.529-6.382c0-13.489 10.974-24.462 24.462-24.462 6.532 0 12.677 2.547 17.302 7.172 4.618 4.618 7.161 10.758 7.161 17.291v76.236c-5.938 3.835-12.77 5.853-19.923 5.853-11.394 0-22.102-5.275-29.073-14.214v-67.876zm-56.824-17.291c4.624-4.624 10.769-7.171 17.301-7.171 13.483 0 24.452 10.974 24.452 24.462v67.882c-6.98 8.935-17.688 14.207-29.075 14.207-7.12 0-13.921-1.997-19.84-5.797v-76.292c0-6.532 2.543-12.672 7.162-17.291zm-57.778 29.89c4.009-4.009 9.341-6.217 15.013-6.217 9.755 0 18.307 6.771 20.604 16.181v58.079h.398c-4.352 15.771-19.024 27.048-35.526 27.048-2.26 0-4.5-.211-6.706-.615v-79.463c-.001-5.672 2.207-11.004 6.217-15.013zm-21.218 48.361-.005 119.518c-4.168-1.152-8.492-1.755-12.854-1.755-8.508 0-16.501 2.227-23.444 6.115v-71.97c-.001-23.523 14.816-44.083 36.303-51.908zm-83 222.258c0-10.009 8.143-18.152 18.151-18.152 6.104 0 11.937-1.957 16.742-5.446 8.797 9.461 21.339 15.396 35.247 15.396.059 0 .118-.003.178-.003-12.064 16.357-31.277 26.357-52.167 26.357-10.009 0-18.151-8.144-18.151-18.152zm85.522 112.841c8.759-5.587 16.671-12.63 23.388-20.981 2.596-3.228 2.083-7.949-1.145-10.544-3.229-2.596-7.947-2.083-10.545 1.144-15.533 19.313-38.607 30.39-63.306 30.39-3.671 0-7.085-1.102-9.945-2.981-.08-.088-.155-.18-.24-.265-.563-.562-1.193-1.015-1.864-1.361-3.739-3.327-6.111-8.157-6.111-13.542 0-10.013 8.146-18.16 18.16-18.16 24.791 0 44.96-20.169 44.96-44.96v-26.449c4.457-5.226 8.282-11.071 11.331-17.449 5.557 15.157 14.126 28.871 24.969 40.426v3.471c0 9.259-1.548 18.337-4.602 26.983-1.379 3.906.669 8.19 4.575 9.569.825.292 1.668.43 2.497.43 3.09 0 5.984-1.925 7.072-5.004 2.552-7.226 4.197-14.706 4.958-22.329 9.655 7.397 20.472 13.347 32.128 17.524-11.365 32.081-41.771 53.959-76.28 54.088zm241.828 61.479h-232.212c20.731-28.504 51.405-48.642 85.938-56.026 3.46-.74 5.932-3.796 5.932-7.334v-46.198c4.839.603 9.766.917 14.766.917h18.962c4.996 0 9.919-.314 14.755-.916v46.197c0 3.538 2.472 6.594 5.932 7.334 34.534 7.385 65.205 27.523 85.927 56.026zm-66.663-115.563c11.648-4.174 22.458-10.118 32.109-17.507 3.014 30.084 19.937 56.128 44.224 71.592-34.529-.107-64.959-21.99-76.333-54.085zm127.891 17.787c10.009 0 18.152 8.143 18.152 18.152 0 5.39-2.375 10.224-6.117 13.551-.667.346-1.294.797-1.854 1.356-.083.083-.155.172-.233.258-2.86 1.883-6.276 2.987-9.948 2.987-44.81 0-81.266-36.456-81.266-81.266v-3.461c10.846-11.556 19.417-25.272 24.976-40.431 3.049 6.375 6.873 12.218 11.328 17.442v26.45c0 24.792 20.17 44.962 44.962 44.962zm-36.406-84.75c.061 0 .122.004.183.004 13.907 0 26.448-5.933 35.245-15.394 4.805 3.488 10.636 5.444 16.74 5.444 10.009 0 18.151 8.143 18.151 18.152s-8.143 18.152-18.151 18.152c-20.891 0-40.104-10-52.168-26.358z"/><path d="m433.894 424.877h.513c4.143 0 7.5-3.358 7.5-7.5s-3.357-7.5-7.5-7.5h-.513c-4.143 0-7.5 3.358-7.5 7.5s3.357 7.5 7.5 7.5z"/><path d="m448.131 315.175h-.513c-4.143 0-7.5 3.358-7.5 7.5s3.357 7.5 7.5 7.5h.513c4.143 0 7.5-3.358 7.5-7.5s-3.358-7.5-7.5-7.5z"/><path d="m198.653 230.666c-2.973 0-5.715 1.343-7.944 3.588l-5.066-3.604c-3.377-2.402-8.058-1.611-10.459 1.764s-1.611 8.058 1.764 10.459l8.259 5.875c-.002.122-.013.24-.013.363 0 10.17 6.038 18.444 13.461 18.444s13.462-8.274 13.462-18.444-6.041-18.445-13.464-18.445z"/><path d="m326.37 230.65-5.067 3.604c-2.23-2.245-4.972-3.588-7.945-3.588-7.423 0-13.461 8.274-13.461 18.444s6.038 18.444 13.461 18.444 13.462-8.274 13.462-18.444c0-.123-.012-.241-.013-.363l8.259-5.875c3.375-2.401 4.165-7.083 1.764-10.459-2.401-3.374-7.084-4.165-10.46-1.763z"/><path d="m332.9 192.632c0-4.142-3.357-7.5-7.5-7.5s-7.5 3.358-7.5 7.5c0 8.743-7.112 15.855-15.854 15.855-4.143 0-7.5 3.358-7.5 7.5s3.357 7.5 7.5 7.5c17.014.001 30.854-13.841 30.854-30.855z"/><path d="m211.127 208.488c-8.743 0-15.855-7.113-15.855-15.855 0-4.142-3.357-7.5-7.5-7.5s-7.5 3.358-7.5 7.5c0 17.014 13.842 30.855 30.855 30.855 4.143 0 7.5-3.358 7.5-7.5s-3.357-7.5-7.5-7.5z"/><path d="m281.792 275.761c-3.969-1.178-8.145 1.084-9.324 5.055-2.142 7.212-8.911 12.249-16.462 12.249-7.542 0-14.312-5.04-16.464-12.257-1.185-3.969-5.36-6.229-9.331-5.044-3.969 1.184-6.228 5.361-5.044 9.331 4.033 13.525 16.715 22.971 30.839 22.971 14.142 0 26.823-9.449 30.841-22.979 1.179-3.972-1.084-8.147-5.055-9.326z"/><path d="m78.106 409.877h-.513c-4.143 0-7.5 3.358-7.5 7.5s3.357 7.5 7.5 7.5h.513c4.143 0 7.5-3.358 7.5-7.5s-3.357-7.5-7.5-7.5z"/><path d="m64.382 315.175h-.513c-4.143 0-7.5 3.358-7.5 7.5s3.357 7.5 7.5 7.5h.513c4.143 0 7.5-3.358 7.5-7.5s-3.358-7.5-7.5-7.5z"/></g></g></svg>