<?xml version="1.0" encoding="UTF-8"?>
<svg xmlns="http://www.w3.org/2000/svg" xmlns:xlink="http://www.w3.org/1999/xlink" xmlns:svgjs="http://svgjs.com/svgjs" version="1.1" width="512" height="512" x="0" y="0" viewBox="0 0 512 512" style="enable-background:new 0 0 512 512" xml:space="preserve" class="">
  <g>
    <path xmlns="http://www.w3.org/2000/svg" d="m221.914062 289.085938c-3.953124 1.40625-8.183593 2.167968-12.585937 2.167968-22.257813 0-40.296875-19.398437-40.296875-43.339844 0-12.351562 4.816406-23.496093 12.523438-31.386718-10.414063-7.839844-17.230469-20.828125-17.230469-35.542969 0-15.558594 7.617187-29.195313 19.054687-36.84375-4.554687-7.015625-7.230468-15.542969-7.230468-24.753906 0-18.179688 10.40625-33.726563 25.160156-40.167969-.609375-2.96875-.921875-6.042969-.921875-9.195312 0-23.933594 18.039062-43.34375 40.296875-43.34375 4.109375 0 8.074218.671874 11.804687 1.898437 7.058594-12.566406 19.875-20.972656 34.519531-20.972656 19.320313 0 35.453126 14.625 39.378907 34.132812 3.921875-19.507812 20.058593-34.132812 39.375-34.132812 14.644531 0 27.460937 8.40625 34.519531 20.972656 3.730469-1.226563 7.695312-1.898437 11.804688-1.898437 22.257812 0 40.300781 19.410156 40.300781 43.34375 0 3.152343-.316407 6.226562-.925781 9.195312 14.757812 6.441406 25.160156 21.988281 25.160156 40.167969 0 9.210937-2.675782 17.738281-7.230469 24.753906 11.4375 7.648437 19.054687 21.285156 19.054687 36.84375 0 14.714844-6.8125 27.703125-17.230468 35.542969 7.707031 7.890625 12.523437 19.035156 12.523437 31.386718 0 23.941407-18.039062 43.339844-40.296875 43.339844-4.390625 0-8.621094-.761718-12.574218-2.148437zm0 0" fill="#c9cad5" data-original="#585968" style="" class=""/>
    <path xmlns="http://www.w3.org/2000/svg" d="m325.707031 38.921875c-2.882812-.710937-5.882812-1.085937-8.964843-1.085937-22.261719 0-40.300782 19.410156-40.300782 43.339843 0 3.15625.316406 6.226563.921875 9.199219-14.753906 6.4375-25.160156 21.984375-25.160156 40.167969 0 9.207031 2.679687 17.734375 7.230469 24.753906-11.4375 7.644531-19.054688 21.285156-19.054688 36.839844 0 14.714843 6.816406 27.707031 17.230469 35.546875-7.707031 7.886718-12.523437 19.03125-12.523437 31.382812 0 11.652344 4.28125 22.230469 11.226562 30.019532h-34.398438c-3.953124 1.40625-8.183593 2.167968-12.585937 2.167968-22.257813 0-40.296875-19.398437-40.296875-43.339844 0-12.351562 4.816406-23.496093 12.523438-31.386718-10.414063-7.839844-17.230469-20.828125-17.230469-35.542969 0-15.558594 7.617187-29.195313 19.054687-36.84375-4.554687-7.015625-7.230468-15.542969-7.230468-24.753906 0-18.179688 10.40625-33.726563 25.160156-40.167969-.609375-2.96875-.921875-6.042969-.921875-9.195312 0-23.933594 18.039062-43.34375 40.296875-43.34375 4.109375 0 8.074218.671874 11.804687 1.898437 7.058594-12.566406 19.875-20.972656 34.519531-20.972656 18.375 0 33.871094 13.234375 38.699219 31.316406zm0 0" fill="#b9bbcf" data-original="#424351" style="" class=""/>
    <path xmlns="http://www.w3.org/2000/svg" d="m326.386719 41.738281c-.195313-.953125-.417969-1.894531-.671875-2.816406.417968.101563.84375.210937 1.257812.332031-.222656.824219-.414062 1.644532-.585937 2.484375zm0 0" fill="#b9bbcf" data-original="#424351" style="" class=""/>
    <path xmlns="http://www.w3.org/2000/svg" d="m104.402344 422.527344 35.394531 81.867187h-61.859375" fill="#ffb176" data-original="#ffb176" style="" class=""/>
    <path xmlns="http://www.w3.org/2000/svg" d="m89.347656 238.3125v266.082031h-22.855468v-266.082031" fill="#c9cad5" data-original="#585968" style="" class=""/>
    <path xmlns="http://www.w3.org/2000/svg" d="m221.917969 247.679688c-17.332031 0-31.378907-12.574219-31.378907-28.089844 0-15.511719 14.050782-28.085938 31.378907-28.085938h208.945312c17.328125 0 31.375 12.574219 31.375 28.085938 0 15.515625-14.046875 28.089844-31.375 28.089844" fill="#ed9254" data-original="#ed9254" style="" class=""/>
    <path xmlns="http://www.w3.org/2000/svg" d="m382.0625 402.648438h68.976562c15.253907 0 28.355469 10.789062 31.296876 25.75l14.9375 75.992187h-341.765626l14.925782-75.992187c2.941406-14.960938 16.0625-25.75 31.304687-25.75h68.988281" fill="#ffb176" data-original="#ffb176" style="" class=""/>
    <path xmlns="http://www.w3.org/2000/svg" d="m497.273438 504.390625h-216.488282c0-18.148437 32.402344-30.777344 69.445313-42.984375l47.480469-15.679688c32.417968-11.5 59.070312-24.398437 59.699218-42.429687 12.410156 2.515625 22.398438 12.273437 24.925782 25.101563zm0 0" fill="#70d7ef" data-original="#e6e6e6" style="" class=""/>
    <path xmlns="http://www.w3.org/2000/svg" d="m254.21875 402.652344c-15.242188 0-28.363281 10.789062-31.300781 25.746094l-14.929688 75.992187h-52.480469l14.925782-75.992187c2.9375-14.957032 16.058594-25.746094 31.300781-25.746094zm0 0" fill="#ed9254" data-original="#ed9254" style="" class=""/>
    <path xmlns="http://www.w3.org/2000/svg" d="m412.152344 472.449219c0 17.640625-14.300782 31.941406-31.941406 31.941406-17.640626 0-31.941407-14.300781-31.941407-31.941406s14.300781-31.941407 31.941407-31.941407c17.640624 0 31.941406 14.300782 31.941406 31.941407zm0 0" fill="#f41ce7" data-original="#f43a1c" style="" class=""/>
    <path xmlns="http://www.w3.org/2000/svg" d="m435.820312 121.152344 55.515626-55.519532-95.0625 20.535157-18.253907-51.714844-51.632812 44.109375-51.636719-44.109375-18.253906 51.714844-95.0625-20.535157 55.515625 55.519532c70.386719-27.390625 148.484375-27.390625 218.871093 0zm0 0" fill="#f41ce7" data-original="#f43a1c" style="" class=""/>
    <path xmlns="http://www.w3.org/2000/svg" d="m89.347656 238.3125c0-23.488281 36.421875-53.597656 53.8125-66.636719 4.917969-3.683593 6.46875-10.328125 3.769532-15.847656-23.007813-47.101563-13.015626-122.066406-13.015626-122.066406s-33.136718 14.855469-22.851562 116.558593c0 0-3.429688 26.285157-33.140625 44.566407-29.710937-18.28125-33.140625-44.566407-33.140625-44.566407 10.285156-101.703124-22.855469-116.558593-22.855469-116.558593s9.996094 74.964843-13.011719 122.0625c-2.699218 5.523437-1.148437 12.167969 3.769532 15.851562 17.390625 13.039063 53.808594 43.148438 53.808594 66.632813" fill="#f41ce7" data-original="#f43a1c" style="" class=""/>
    <path xmlns="http://www.w3.org/2000/svg" d="m104.402344 390.734375v12.523437h-23.675782c-8.539062 0-15.464843-6.925781-15.464843-15.464843 0-4.269531 1.730469-8.132813 4.53125-10.929688 2.796875-2.800781 6.664062-4.535156 10.933593-4.535156h7.542969c9.105469 1.195313 16.132813 8.984375 16.132813 18.40625zm0 0" fill="#ffb176" data-original="#ffb176" style="" class=""/>
    <path xmlns="http://www.w3.org/2000/svg" d="m85.828125 452.777344h-22.175781c-10.257813 0-18.570313-8.3125-18.570313-18.570313v-43.46875c0-10.257812 8.3125-18.574219 18.570313-18.574219h22.175781c10.257813 0 18.574219 8.316407 18.574219 18.574219v43.46875c0 10.257813-8.316406 18.570313-18.574219 18.570313zm0 0" fill="#ffb176" data-original="#ffb176" style="" class=""/>
    <path xmlns="http://www.w3.org/2000/svg" d="m430.855469 154.902344v80.660156c0 74.433594-46.769531 134.78125-104.46875 134.78125-28.851563 0-54.976563-15.089844-73.878907-39.480469-18.902343-24.386719-30.59375-58.085937-30.59375-95.300781v-80.660156s33.140626 14.601562 45.503907-13.488282c0 0 32.285156 26.679688 58.96875 0 26.679687 26.679688 58.976562 0 58.976562 0 12.351563 28.089844 45.492188 13.488282 45.492188 13.488282zm0 0" fill="#ffb176" data-original="#ffb176" style="" class=""/>
    <path xmlns="http://www.w3.org/2000/svg" d="m325.644531 370.34375c-28.554687-.195312-54.386719-11.855469-73.136719-30.597656-18.902343-18.910156-30.59375-45.023438-30.59375-73.875v-110.96875s32.097657 14.144531 44.902344-12.191406c.722656 8.0625 1.429688 13.882812 2.132813 13.75v109.410156c0 28.851562 6.425781 54.964844 16.820312 73.875 10.234375 18.609375 24.308594 30.230468 39.875 30.597656zm0 0" fill="#ed9254" data-original="#ed9254" style="" class=""/>
    <path xmlns="http://www.w3.org/2000/svg" d="m221.917969 211.40625 15.304687 20.609375c6.203125 8.347656 9.550782 18.472656 9.550782 28.871094 0 13.351562 13.84375 22.207031 25.964843 16.605469l1.128907-.523438c33.320312-15.398438 71.722656-15.398438 105.046874 0l1.125.523438c12.121094 5.601562 25.964844-3.253907 25.964844-16.605469 0-10.398438 3.351563-20.523438 9.550782-28.871094l15.308593-20.609375v95.109375c0 57.699219-46.777343 104.476563-104.472656 104.476563-57.699219 0-104.472656-46.777344-104.472656-104.476563v-58.835937" fill="#c9cad5" data-original="#585968" style="" class=""/>
    <g xmlns="http://www.w3.org/2000/svg" fill="#424351">
      <path d="m294.085938 380.390625c14.238281 14.238281 32.574218 24.390625 53.089843 28.527344-6.714843 1.359375-13.671875 2.070312-20.789062 2.070312-28.851563 0-54.972657-11.695312-73.875-30.597656-18.902344-18.902344-30.597657-45.023437-30.597657-73.875v-95.109375l24.855469 33.464844v16.011718c0 9.988282 7.75 17.460938 16.722657 18.242188v27.390625c0 28.851563 11.695312 54.972656 30.59375 73.875zm0 0" fill="#b9bbcf" data-original="#424351" style="" class=""/>
      <path d="m293.820312 192.140625h-27.378906c-7.003906 0-12.675781 5.671875-12.675781 12.675781 0 7 5.671875 12.675782 12.675781 12.675782h27.378906c7 0 12.675782-5.675782 12.675782-12.675782 0-7.003906-5.675782-12.675781-12.675782-12.675781zm0 0" fill="#b9bbcf" data-original="#424351" style="" class=""/>
      <path d="m386.335938 192.140625h-27.378907c-7 0-12.675781 5.671875-12.675781 12.675781 0 7 5.675781 12.675782 12.675781 12.675782h27.378907c7 0 12.675781-5.675782 12.675781-12.675782 0-7.003906-5.675781-12.675781-12.675781-12.675781zm0 0" fill="#b9bbcf" data-original="#424351" style="" class=""/>
    </g>
    <path xmlns="http://www.w3.org/2000/svg" d="m504.730469 502.925781-14.9375-75.992187c-3.089844-15.726563-15.363281-27.777344-30.554688-31.019532-.097656-.023437-.199219-.039062-.296875-.058593-2.5625-.527344-5.207031-.808594-7.90625-.808594h-55.917968c9.257812-7.1875 17.457031-15.871094 24.207031-25.859375 2.347656-3.480469 1.433593-8.210938-2.046875-10.5625-3.480469-2.351562-8.210938-1.433594-10.558594 2.046875-18.070312 26.742187-48.097656 42.710937-80.328125 42.710937-53.414063 0-96.867187-43.453124-96.867187-96.867187v-58.816406c0-.007813 0-.011719 0-.019531 0-.003907 0-.011719 0-.019532v-13.257812l1.59375 2.148437c5.191406 6.988281 8.050781 15.628907 8.050781 24.335938 0 8.878906 4.464843 17.035156 11.945312 21.816406 7.480469 4.785156 16.757813 5.414063 24.816407 1.691406l1.128906-.519531c31.351562-14.492188 67.3125-14.492188 98.664062 0l1.128906.519531c8.054688 3.722657 17.335938 3.09375 24.816407-1.691406 7.480469-4.78125 11.945312-12.9375 11.945312-21.816406 0-8.707031 2.855469-17.347657 8.046875-24.335938l1.589844-2.144531v13.273438c0 .039062.007812.078124.007812.117187v58.71875c0 9.828125-1.464843 19.519531-4.355468 28.808594-1.246094 4.011719.992187 8.273437 5.003906 9.523437 4.019531 1.246094 8.273438-.996094 9.523438-5.003906 3.34375-10.753906 5.039062-21.96875 5.039062-33.328125v-7.9375c1.648438.183594 3.308594.28125 4.972656.28125 26.414063 0 47.90625-22.855469 47.90625-50.945313 0-11.222656-3.367187-21.84375-9.601562-30.613281 9.066406-9.503906 14.304687-22.582031 14.304687-36.316406 0-15.167969-6.199219-29.222656-16.867187-38.832031 3.316406-7.035156 5.042968-14.785156 5.042968-22.765625 0-10.015625-2.765624-19.734375-7.882812-28l20.375-20.375c2.386719-2.382813 2.914062-6.054688 1.296875-9.019531-1.613281-2.960938-4.984375-4.5-8.28125-3.792969l-30.007813 6.484375c-2.519531-25.59375-22.921874-45.609375-47.640624-45.609375-2.816407 0-5.617188.261719-8.375.785156-9.007813-12.378906-23.082032-19.859375-37.949219-19.859375-16.003907 0-30.613281 8.601562-39.375 21.992188-8.765625-13.390626-23.375-21.992188-39.378907-21.992188-14.863281 0-28.941406 7.480469-37.945312 19.855469-2.761719-.519531-5.5625-.78125-8.378906-.78125-24.71875 0-45.121094 20.015625-47.640625 45.605469l-30.003907-6.480469c-3.300781-.710938-6.671874.835937-8.285156 3.792969-1.613281 2.964843-1.085937 6.636718 1.300782 9.019531l20.371093 20.375c-5.113281 8.265625-7.882812 17.984375-7.882812 28 0 7.980469 1.730469 15.730469 5.042969 22.765625-10.667969 9.609375-16.867188 23.667968-16.867188 38.832031 0 13.734375 5.242188 26.8125 14.308594 36.316406-6.234375 8.769531-9.601563 19.390625-9.601563 30.613281 0 28.089844 21.488281 50.945313 47.902344 50.945313 1.671875 0 3.332031-.101563 4.980469-.28125v7.9375c0 35.957031 17.023437 68.007813 43.429687 88.53125h-56.003906c-18.832031 0-35.136719 13.410156-38.769531 31.886719l-13.71875 69.851562h-4.453125l-32.785157-75.835937v-30.214844c0-10.457031-6.167968-19.5-15.058593-23.691406v-128.644531c0-.027344.003906-.058594.003906-.085938 0-14.082031 18.980469-36.71875 50.769531-60.550781 7.796875-5.847657 10.339844-16.476563 6.042969-25.273438-21.714844-44.449219-12.40625-116.996093-12.3125-117.722656.367187-2.734375-.777344-5.453125-2.988281-7.101563-2.210938-1.648437-5.144532-1.972656-7.660156-.84375-3.894532 1.746094-37.621094 19.984376-27.414063 123.234376-.773437 3.925781-5.261719 21.558593-25.46875 35.734374-20.257813-14.210937-24.71875-31.894531-25.472656-35.726562 10.207031-103.25-23.519531-121.496094-27.410157-123.242188-2.519531-1.128906-5.449218-.804687-7.660156.84375-2.210937 1.648438-3.355468 4.367188-2.992187 7.101563.097656.726563 9.441406 73.199219-12.308594 117.722656-4.296875 8.796875-1.757813 19.425781 6.042969 25.273438 31.789062 23.832031 50.765625 46.46875 50.765625 60.550781 0 .023438.003906.042969.003906.066406v65.304688c0 4.203125 3.40625 7.605468 7.605469 7.605468 4.199218 0 7.605468-3.402343 7.605468-7.605468v-57.765625h7.636719v118.640625h-7.636719v-30.449219c0-4.199219-3.40625-7.605469-7.605468-7.605469-4.199219 0-7.605469 3.40625-7.605469 7.605469v30.890625c-12.167969 2.246094-21.417969 12.929688-21.417969 25.738281v43.46875c0 12.804688 9.25 23.488281 21.417969 25.734375v44.449219c0 4.203125 3.40625 7.605469 7.605469 7.605469l430.769531.003906c2.273437 0 4.429687-1.015625 5.875-2.773438 1.445313-1.757812 2.027344-4.066406 1.589844-6.300781zm-290.421875-263.933593c-9.386719-2.742188-16.164063-10.398438-16.164063-19.402344 0-9 6.777344-16.660156 16.164063-19.402344zm195.140625-11.511719c-7.125 9.589843-11.050781 21.457031-11.050781 33.40625 0 3.71875-1.792969 7-4.925782 9.003906-3.132812 2.003906-6.867187 2.253906-10.242187.695313l-1.128907-.519532c-35.40625-16.363281-76.019531-16.363281-111.425781 0l-1.128906.519532c-3.375 1.558593-7.109375 1.308593-10.242187-.695313-3.132813-2.003906-4.925782-5.285156-4.925782-9.003906 0-11.949219-3.925781-23.816407-11.050781-33.40625l-13.808594-18.59375v-17.335938c0-.015625 0-.03125 0-.046875 0-.019531 0-.035156 0-.050781v-26.34375c2.933594.609375 6.292969 1.085937 9.847657 1.175781 12.984374.335938 23.589843-4.605468 30.550781-14.035156 3.824219 2.230469 8.9375 4.742188 14.84375 6.46875 15.382812 4.5 29.636719 2.003906 41.621093-7.195312 11.984376 9.199218 26.242188 11.691406 41.628907 7.195312 5.910156-1.726562 11.023437-4.238281 14.851562-6.472656 6.738281 9.140625 16.871094 14.054687 29.308594 14.054687.226563 0 .453125 0 .675781-.003906 3.761719-.054687 7.316406-.546875 10.402344-1.1875v43.789063zm29.011719-27.292969c9.390624 2.738281 16.171874 10.398438 16.171874 19.402344s-6.777343 16.664062-16.164062 19.402344zm4.980468 83.460938c-1.671875 0-3.332031-.140626-4.972656-.417969v-28.632813c15.628906-2.839844 27.914062-14.265625 30.746094-28.660156 4.492187 6.242188 6.921875 13.871094 6.921875 21.972656-.003907 19.707032-14.667969 35.738282-32.695313 35.738282zm-202.757812-249.363282c3.199218 0 6.371094.511719 9.429687 1.515625 3.453125 1.136719 7.226563-.332031 9.007813-3.5 6.011718-10.699219 16.4375-17.089843 27.886718-17.089843 15.230469 0 28.65625 11.789062 31.921876 28.027343.714843 3.550781 3.832031 6.105469 7.457031 6.105469 3.621093 0 6.742187-2.554688 7.457031-6.105469 3.265625-16.238281 16.691406-28.027343 31.917969-28.027343 11.449219 0 21.875 6.390624 27.886719 17.089843 1.78125 3.167969 5.550781 4.636719 9.007812 3.5 3.058594-1.003906 6.230469-1.515625 9.429688-1.515625 17.382812 0 31.632812 14.90625 32.632812 33.636719l-43.503906 9.398437-16.023438-45.398437c-.832031-2.363281-2.777344-4.164063-5.199218-4.816406-2.417969-.648438-5.007813-.0625-6.910157 1.5625l-46.695312 39.890625-46.695313-39.890625c-1.910156-1.628907-4.496094-2.210938-6.914062-1.5625-2.421875.652343-4.367188 2.453125-5.199219 4.816406l-16.023437 45.398437-43.5-9.398437c.996093-18.730469 15.246093-33.636719 32.628906-33.636719zm14.207031 59.316406c3.742187.808594 7.503906-1.289062 8.777344-4.902343l14.566406-41.265625 43.210937 36.914062c2.84375 2.429688 7.035157 2.429688 9.878907 0l43.210937-36.914062 14.5625 41.265625c1.277344 3.613281 5.042969 5.710937 8.777344 4.902343l69.816406-15.078124-33.773437 33.769531c-34.769531-12.894531-71.152344-19.347657-107.535157-19.347657-36.382812 0-72.765624 6.449219-107.535156 19.347657l-33.773437-33.769531zm-67.285156 56.863282c3.457031-2.3125 4.417969-6.972656 2.15625-10.464844-3.929688-6.054688-6.007813-13.183594-6.007813-20.613281 0-5.925781 1.34375-11.683594 3.855469-16.820313l23.960937 23.960938c2.136719 2.136718 5.328126 2.804687 8.136719 1.710937 68.789063-26.769531 144.5625-26.769531 213.351563 0 .898437.347657 1.832031.519531 2.757812.519531 1.980469 0 3.925782-.777343 5.382813-2.230468l23.960937-23.960938c2.511719 5.136719 3.855469 10.894532 3.855469 16.820313 0 7.429687-2.078125 14.558593-6.003906 20.613281-2.265625 3.488281-1.304688 8.148438 2.152343 10.460938 9.816407 6.5625 15.675782 17.972656 15.675782 30.519531 0 11.070312-4.707032 21.480469-12.675782 28.246093-4.140624-12.476562-15.554687-22.074218-29.703124-24.644531v-29.679687c0-2.570313-1.296876-4.96875-3.449219-6.371094-2.152344-1.402344-4.867188-1.628906-7.222657-.589844-.066406.03125-7.097656 3.03125-15.152343 3.144532-9.867188.136718-16.480469-4.023438-20.308594-12.734376-.960937-2.179687-2.886719-3.785156-5.207031-4.335937-2.320313-.550781-4.761719.015625-6.601563 1.535156-.066406.054688-7.136719 5.75-16.773437 8.570313-12.441406 3.632812-22.90625.992187-31.980469-8.085938-1.429687-1.425781-3.363281-2.226562-5.378906-2.226562-2.019531 0-3.953125.800781-5.378907 2.226562-8.972656 8.972656-19.300781 11.65625-31.566406 8.203125-9.859375-2.777343-17.128906-8.644531-17.179687-8.6875-1.847657-1.523437-4.304688-2.089843-6.628907-1.53125-2.328124.5625-4.253906 2.1875-5.203124 4.386719-.144532.332031-.292969.65625-.453126.980469-3.894531 8.007812-10.363281 11.839843-19.847656 11.699219-8.054687-.113282-15.097656-3.125-15.148437-3.144532-2.351563-1.035156-5.066407-.8125-7.222657.589844-2.152343 1.402344-3.449218 3.800781-3.449218 6.371094v29.683594c-14.144532 2.570312-25.554688 12.171874-29.695313 24.648437-7.972656-6.765625-12.683593-17.175781-12.683593-28.25 0-12.550781 5.859374-23.957031 15.675781-30.519531zm21.722656 133.183594c-18.027344 0-32.691406-16.03125-32.691406-35.734376 0-8.105468 2.429687-15.742187 6.925781-21.988281 2.828125 14.402344 15.117188 25.828125 30.75 28.671875v28.632813c-1.640625.273437-3.304688.417969-4.984375.417969zm-31.4375 146.21875c2.234375-11.363282 12.261719-19.609376 23.84375-19.609376h82.25c13.089844 5.367188 27.40625 8.335938 42.40625 8.335938 14.777344 0 29.148437-2.910156 42.421875-8.335938h78.3125c-7.597656 10.914063-29.953125 20.339844-48.667969 27.121094-5.464843-2.851562-11.667969-4.476562-18.246093-4.476562-15.648438 0-29.203126 9.136718-35.609376 22.355468-33.625 11.1875-63.609374 23.042969-70.101562 41.53125h-95.132812c-.007813 0-.015626 0-.023438 0h-14.597656zm162.777344 42.765624c.042969 9.101563 3.179687 17.484376 8.40625 24.15625h-57.042969c8.679688-9.40625 31.171875-18.136718 48.636719-24.15625zm39.542969 24.152344c-13.417969 0-24.335938-10.917968-24.335938-24.335937s10.917969-24.335938 24.335938-24.335938c13.421874 0 24.335937 10.917969 24.335937 24.335938s-10.914063 24.335937-24.335937 24.335937zm-298.472657-36.402344v36.402344h-7.636719v-36.402344zm-6.566406-78.144531c1.484375-1.484375 3.457031-2.304687 5.554687-2.304687h6.925782c5.179687.875 9.144531 5.378906 9.144531 10.804687v4.914063h-16.070313c-4.335937 0-7.859374-3.527344-7.859374-7.859375 0-2.09375.816406-4.066407 2.304687-5.554688zm-57.929687-216.648437c-1.964844-1.472656-2.59375-4.175782-1.496094-6.425782 10.035156-20.542968 15.386718-48.105468 15.90625-81.917968.09375-6.054688.015625-11.753906-.152344-16.917969 5.78125 15.636719 10.402344 42.875 5.714844 89.226563-.058594.582031-.050782 1.171874.023437 1.75.160157 1.21875 4.273438 30.105468 36.695313 50.0625 2.445312 1.503906 5.53125 1.503906 7.972656 0 32.425781-19.957032 36.539062-48.84375 36.695312-50.0625.078126-.578126.085938-1.167969.027344-1.75-4.703125-46.511719-.09375-73.726563 5.714844-89.328126-.167969 5.191407-.246094 10.921876-.152344 17.019532.515625 33.8125 5.871094 61.375 15.90625 81.917968 1.097656 2.25.46875 4.953126-1.5 6.425782-39.253906 29.429687-52.597656 50.855468-55.929687 65.117187h-9.492188c-3.332031-14.261719-16.679687-35.6875-55.933593-65.117187zm35.445312 268.617187v-43.46875c0-4.257812 2.441406-7.945312 5.992188-9.765625-.671876 2.183594-1.027344 4.472656-1.027344 6.820313 0 12.722656 10.351562 23.070312 23.074218 23.070312h16.070313v11.683594.074219 11.585937c0 6.046875-4.921875 10.96875-10.96875 10.96875h-19.261719c-.023437 0-.046875-.003906-.070312-.003906-.023438 0-.042969.003906-.066406.003906h-2.777344c-6.046875-.003906-10.964844-4.921875-10.964844-10.96875zm44.261719 62.582031v-38.890624c4.277343-2.015626 7.921875-5.152344 10.554687-9.03125l20.71875 47.921874zm314.398437 0c5.261719-6.714843 8.410156-15.164062 8.410156-24.339843 0-8.929688-2.976562-17.171875-7.988281-23.800781 23.707031-9.128907 44.367188-19.984376 51.011719-35.335938 6.101562 3.390625 10.667969 9.339844 12.085938 16.554688l13.15625 66.921874zm0 0" fill="#000000" data-original="#000000" style="" class=""/>
    <path xmlns="http://www.w3.org/2000/svg" d="m293.820312 184.535156h-27.378906c-11.183594 0-20.28125 9.097656-20.28125 20.28125s9.097656 20.28125 20.28125 20.28125h6.085938v13.488282c0 4.199218 3.402344 7.605468 7.605468 7.605468 4.199219 0 7.605469-3.40625 7.605469-7.605468v-13.488282h6.082031c11.183594 0 20.28125-9.097656 20.28125-20.28125s-9.097656-20.28125-20.28125-20.28125zm0 25.351563h-27.378906c-2.796875 0-5.070312-2.277344-5.070312-5.070313 0-2.796875 2.273437-5.070312 5.070312-5.070312h27.378906c2.796876 0 5.070313 2.273437 5.070313 5.070312 0 2.792969-2.273437 5.070313-5.070313 5.070313zm0 0" fill="#000000" data-original="#000000" style="" class=""/>
    <path xmlns="http://www.w3.org/2000/svg" d="m386.335938 184.535156h-27.378907c-11.183593 0-20.28125 9.097656-20.28125 20.28125s9.097657 20.28125 20.28125 20.28125h6.082031v13.488282c0 4.199218 3.40625 7.605468 7.605469 7.605468 4.203125 0 7.609375-3.40625 7.609375-7.605468v-13.488282h6.082032c11.183593 0 20.28125-9.097656 20.28125-20.28125s-9.097657-20.28125-20.28125-20.28125zm0 25.351563h-27.378907c-2.796875 0-5.070312-2.277344-5.070312-5.070313 0-2.796875 2.273437-5.070312 5.070312-5.070312h27.378907c2.796874 0 5.070312 2.273437 5.070312 5.070312 0 2.792969-2.273438 5.070313-5.070312 5.070313zm0 0" fill="#000000" data-original="#000000" style="" class=""/>
    <path xmlns="http://www.w3.org/2000/svg" d="m305.09375 303.527344c-4.199219 0-7.605469 3.402344-7.605469 7.605468 0 4.199219 3.40625 7.605469 7.605469 7.605469h42.589844c4.203125 0 7.605468-3.40625 7.605468-7.605469 0-4.203124-3.402343-7.605468-7.605468-7.605468zm0 0" fill="#000000" data-original="#000000" style="" class=""/>
  </g>
</svg>
