<?xml version="1.0" encoding="UTF-8"?>
<svg xmlns="http://www.w3.org/2000/svg" xmlns:xlink="http://www.w3.org/1999/xlink" xmlns:svgjs="http://svgjs.com/svgjs" version="1.1" width="512" height="512" x="0" y="0" viewBox="0 0 512 512" style="enable-background:new 0 0 512 512" xml:space="preserve" class="">
  <g>
    <g xmlns="http://www.w3.org/2000/svg">
      <g>
        <g>
          <path d="m434.501 504.5h-253.4c18.67-31.57 48.81-55.56 84.67-66.23 3.64-1.08 7.34-2.03 11.09-2.83v-15.12h61.88v15.12c3.76.8 7.46 1.75 11.11 2.84 35.86 10.67 65.98 34.66 84.65 66.22z" fill="#8b4f1a" data-original="#ffddce" style=""/>
          <path d="m349.851 438.28c-1.95.62-3.94 1.19-5.94 1.7h-.01c-8.58 2.19-17.58 3.35-26.86 3.35h-18.47c-11.43 0-22.46-1.77-32.8-5.06 3.64-1.08 7.34-2.03 11.09-2.83v-40.689l61.88 25.569v15.12c3.76.8 7.46 1.75 11.11 2.84z" fill="#833c08" data-original="#ffcbbe" style="" class=""/>
          <path d="m291.041 381.2v53.89c-22.93 8.76-42.33 34.46-53.91 69.41h-56.03c20.68-34.95 55.32-60.65 96.26-69.41v-53.89z" fill="#833c08" data-original="#ffcbbe" style="" class=""/>
          <path d="m461.631 165.62c12.199-16.479 19.417-36.869 19.417-58.946 0-54.773-44.402-99.174-99.174-99.174-29.457 0-55.909 12.847-74.073 33.238-18.164-20.391-44.616-33.238-74.073-33.238-54.773 0-99.174 44.402-99.174 99.174 0 22.077 7.218 42.467 19.417 58.946-20.719 4.462-36.251 22.879-36.251 44.932 0 25.389 20.582 45.972 45.972 45.972h288.218c25.389 0 45.972-20.582 45.972-45.972 0-22.052-15.532-40.47-36.251-44.932z" fill="#ede6e3" data-original="#ede6e3" style="" class=""/>
          <path d="m269.834 106.675c0 22.074 7.22 42.466 19.414 58.946-20.721 4.466-36.252 22.883-36.252 44.929 0 12.692 5.152 24.19 13.463 32.51 8.33 8.32 19.818 13.463 32.51 13.463h-135.276c-12.692 0-24.18-5.143-32.5-13.463s-13.463-19.818-13.463-32.51c0-22.046 15.531-40.463 36.242-44.929-12.194-16.481-19.414-36.872-19.414-58.946 0-54.772 44.402-99.175 99.175-99.175 26.136 0 49.921 10.125 67.633 26.662-19.405 18.098-31.532 43.886-31.532 72.513z" fill="#d8cec9" data-original="#d8cec9" style="" class=""/>
          <g fill="#ffcbbe">
            <circle cx="170.282" cy="272.386" r="39.614" fill="#833c08" data-original="#ffcbbe" style="" class=""/>
            <circle cx="445.327" cy="272.386" r="39.614" fill="#833c08" data-original="#ffcbbe" style="" class=""/>
          </g>
          <path d="m425.486 166.95v147.104c0 50.61-34.68 93.13-81.57 105.09h-.01c-8.59 2.19-17.59 3.35-26.86 3.35h-18.48c-59.89 0-108.45-48.55-108.45-108.44v-147.114c12.96 10.93 29.7 17.52 47.98 17.52 8.49 0 16.64-1.42 24.25-4.04 20.95-7.21 37.67-23.5 45.46-44.18 10.62 28.18 37.82 48.22 69.71 48.22 18.28 0 35.01-6.58 47.97-17.51z" fill="#ede6e3" data-original="#ede6e3" style="" class=""/>
          <path d="m343.906 419.144c-8.59 2.19-17.59 3.35-26.86 3.35h-18.48c-59.89 0-108.45-48.55-108.45-108.44v-147.114c12.96 10.93 29.7 17.52 47.98 17.52 8.49 0 16.64-1.42 24.25-4.04v133.634c0 50.61 34.68 93.12 81.56 105.09z" fill="#d8cec9" data-original="#d8cec9" style="" class=""/>
          <path d="m401.881 180.38v81.92c0 21.01-21.82 34.9-40.85 26.02-16.87-7.87-35.05-11.8-53.23-11.8-15.42 0-30.84 2.83-45.46 8.49-2.62 1.01-5.21 2.11-7.77 3.31h-.01c-19.03 8.88-40.85-5.01-40.85-26.02v-81.92c7.63 2.64 15.83 4.08 24.37 4.08 8.49 0 16.64-1.42 24.25-4.04h.01c20.95-7.22 37.66-23.5 45.45-44.18 10.62 28.18 37.82 48.22 69.71 48.22 8.54 0 16.74-1.43 24.38-4.08z" fill="#8b4f1a" data-original="#ffddce" style=""/>
          <path d="m262.341 180.42v104.59c-2.62 1.01-5.21 2.11-7.77 3.31h-.01c-19.03 8.88-40.85-5.01-40.85-26.02v-81.92c7.63 2.64 15.83 4.08 24.37 4.08 8.49 0 16.64-1.42 24.25-4.04z" fill="#833c08" data-original="#ffcbbe" style="" class=""/>
          <g>
            <path d="m404.071 38.075-13.63 49.29h-165.28l-13.63-49.29c-2.34-8.48 6.66-15.62 14.38-11.41l37.93 20.69.27.15c4.48 2.44 10.08 1.11 12.97-3.09l22.52-32.61c3.96-5.74 12.44-5.74 16.4 0l22.51 32.61c2.9 4.2 8.5 5.53 12.98 3.09l38.19-20.84c7.73-4.21 16.73 2.93 14.39 11.41z" fill="#ffc250" data-original="#ffc250" style="" class=""/>
            <path d="m272.221 87.365h-47.06l-13.63-49.29c-2.34-8.48 6.66-15.62 14.38-11.41l37.93 20.69z" fill="#e7a52e" data-original="#e7a52e" style=""/>
          </g>
        </g>
        <path d="m71.132 163.488h27.941v314.636h-27.941z" fill="#365e7d" data-original="#365e7d" style=""/>
        <path d="m71.132 163.488h13.26v314.636h-13.26z" fill="#2b4d66" data-original="#2b4d66" style="" class=""/>
        <path d="m87.656 441.252h-5.106c-12.385 0-22.425 10.04-22.425 22.425v18.398c0 12.385 10.04 22.425 22.425 22.425h5.106c12.385 0 22.425-10.04 22.425-22.425v-18.398c0-12.385-10.04-22.425-22.425-22.425z" fill="#8b4f1a" data-original="#ffddce" style=""/>
        <path d="m95.574 503.055c-2.46.93-5.13 1.44-7.92 1.44h-5.11c-12.38 0-22.42-10.04-22.42-22.42v-18.4c0-12.38 10.04-22.42 22.42-22.42h5.11c2.79 0 5.46.51 7.92 1.44-8.47 3.2-14.5 11.39-14.5 20.98v18.4c0 9.59 6.03 17.78 14.5 20.98z" fill="#833c08" data-original="#ffcbbe" style="" class=""/>
        <path d="m141.092 76.917c-8.284 0-15 6.716-15 15v80.319c0 14.417-11.623 26.164-25.989 26.381v-81.427c0-8.284-6.716-15-15-15s-15 6.716-15 15v81.427c-14.366-.217-25.988-11.964-25.988-26.381v-80.319c0-8.284-6.716-15-15-15s-15 6.716-15 15v80.319c0 31.094 25.297 56.391 56.391 56.391h29.196c31.094 0 56.391-25.297 56.391-56.391v-80.319c-.001-8.284-6.717-15-15.001-15z" fill="#ffc250" data-original="#ffc250" style="" class=""/>
        <g fill="#e7a52e">
          <path d="m112.739 198.617c14.367-.216 25.989-11.963 25.989-26.381v-80.319c0-6.024 3.559-11.204 8.682-13.59-1.922-.896-4.058-1.41-6.318-1.41-8.284 0-15 6.716-15 15v80.319c0 9.812-5.385 18.382-13.353 22.927z" fill="#e7a52e" data-original="#e7a52e" style=""/>
          <path d="m26.75 172.236v-80.319c0-6.024 3.559-11.204 8.682-13.59-1.922-.896-4.058-1.41-6.318-1.41-8.284 0-15 6.716-15 15v80.319c0 31.094 25.297 56.391 56.391 56.391h12.636c-31.094 0-56.391-25.297-56.391-56.391z" fill="#e7a52e" data-original="#e7a52e" style=""/>
          <path d="m82.739 202.07v-84.88c0-6.024 3.559-11.204 8.682-13.59-1.922-.896-4.058-1.41-6.318-1.41-8.284 0-15 6.716-15 15v81.427c3.739 2.134 8.046 3.384 12.636 3.453z" fill="#e7a52e" data-original="#e7a52e" style=""/>
        </g>
      </g>
      <g>
        <path d="m251.909 232.619c-7.236 0-13.123 8.065-13.123 17.979s5.887 17.979 13.123 17.979c7.235 0 13.122-8.065 13.122-17.979s-5.886-17.979-13.122-17.979z" fill="#000000" data-original="#000000" style="" class=""/>
        <path d="m363.7 232.619c-7.236 0-13.123 8.065-13.123 17.979s5.887 17.979 13.123 17.979c7.235 0 13.122-8.065 13.122-17.979s-5.886-17.979-13.122-17.979z" fill="#000000" data-original="#000000" style="" class=""/>
        <path d="m364.055 221.103c8.083 0 15.683-3.148 21.398-8.864 2.93-2.929 2.93-7.678.001-10.607-2.929-2.928-7.678-2.929-10.606 0-2.884 2.883-6.716 4.47-10.793 4.47-4.076 0-7.909-1.588-10.791-4.47-2.929-2.928-7.678-2.929-10.606 0-2.93 2.929-2.93 7.678-.001 10.607 5.715 5.716 13.315 8.864 21.398 8.864z" fill="#000000" data-original="#000000" style="" class=""/>
        <path d="m252.685 221.089c7.749 0 15.498-2.95 21.397-8.849 2.93-2.929 2.93-7.678.001-10.607-2.929-2.928-7.678-2.929-10.606 0-5.952 5.951-15.635 5.95-21.585 0-2.928-2.929-7.677-2.928-10.606 0-2.929 2.929-2.929 7.678.001 10.607 5.899 5.899 13.648 8.849 21.398 8.849z" fill="#000000" data-original="#000000" style="" class=""/>
        <path d="m332.989 291.901c-3.969-1.18-8.146 1.084-9.324 5.055-2.063 6.948-8.585 11.801-15.86 11.801-7.268 0-13.791-4.856-15.863-11.809-1.184-3.969-5.358-6.229-9.33-5.045-3.97 1.183-6.229 5.361-5.045 9.33 3.953 13.261 16.388 22.523 30.238 22.523 13.865 0 26.301-9.265 30.239-22.531 1.18-3.97-1.084-8.145-5.055-9.324z" fill="#000000" data-original="#000000" style="" class=""/>
        <path d="m505.386 210.55c0-12.301-4.281-24.308-12.052-33.805-5.382-6.587-12.27-11.784-19.978-15.17 9.967-16.542 15.189-35.329 15.189-54.905.001-58.818-47.851-106.67-106.669-106.67-19.379 0-38.086 5.174-54.555 15.008l-5.147-7.457c-3.26-4.725-8.634-7.546-14.374-7.546s-11.114 2.821-14.372 7.544l-5.148 7.458c-16.468-9.834-35.175-15.007-54.554-15.007-23.192 0-45.245 7.315-63.774 21.155-16.779 12.533-29.7 30.056-36.719 49.681-8.542 3.195-14.641 11.438-14.641 21.081v80.319c0 7.546-4.517 14.125-10.989 17.137v-72.183c0-12.406-10.094-22.5-22.5-22.5s-22.5 10.094-22.5 22.5v72.183c-6.472-3.012-10.988-9.591-10.988-17.137v-80.319c0-12.406-10.094-22.5-22.5-22.5s-22.5 10.094-22.5 22.5v80.319c0 32.91 25.013 60.08 57.025 63.517v204.751c-6.718 5.492-11.016 13.839-11.016 23.173v18.398c0 16.501 13.425 29.925 29.926 29.925h5.105c16.501 0 29.926-13.424 29.926-29.925v-18.398c0-9.327-4.291-17.669-11.001-23.162v-25.665c0-4.142-3.357-7.5-7.5-7.5s-7.5 3.358-7.5 7.5v19.167c-1.286-.169-2.594-.266-3.925-.266h-5.105c-1.326 0-2.629.096-3.91.264v-197.888h12.94v148.723c0 4.142 3.357 7.5 7.5 7.5s7.5-3.358 7.5-7.5v-149.099c3.112-.335 6.16-.887 9.123-1.654 2.582 5.252 6.018 10.105 10.18 14.267.824.824 1.686 1.611 2.563 2.38-3.369 6.484-5.285 13.838-5.285 21.636 0 25.982 21.138 47.12 47.12 47.12 4.209 0 8.381-.569 12.403-1.665 1.681 52.179 38.005 95.758 86.677 108.432v3.232c-39.502 10.118-73.783 35.8-94.716 71.182-1.371 2.318-1.395 5.194-.06 7.534 1.334 2.34 3.821 3.785 6.515 3.785h253.4c2.693 0 5.181-1.445 6.515-3.785 1.335-2.34 1.312-5.216-.06-7.534-20.933-35.382-55.214-61.064-94.715-71.182v-3.23c48.672-12.672 84.997-56.253 86.677-108.436 4.024 1.098 8.196 1.668 12.403 1.668 25.977 0 47.109-21.138 47.109-47.12 0-7.795-1.915-15.147-5.28-21.63 11.523-10.092 18.237-24.651 18.237-40.201zm-417.731 238.202c8.23 0 14.926 6.696 14.926 14.925v18.398c0 8.23-6.695 14.925-14.926 14.925h-5.105c-8.23 0-14.926-6.696-14.926-14.925v-18.398c0-8.23 6.695-14.925 14.926-14.925zm-66.041-276.516v-80.319c0-4.135 3.364-7.5 7.5-7.5s7.5 3.365 7.5 7.5v80.319c0 18.404 14.972 33.602 33.375 33.88 2.005.03 3.945-.746 5.376-2.156 1.432-1.41 2.237-3.334 2.237-5.343v-81.427c0-4.135 3.364-7.5 7.5-7.5s7.5 3.365 7.5 7.5v81.427c0 2.009.806 3.933 2.236 5.343 1.431 1.409 3.337 2.191 5.377 2.156 18.403-.277 33.376-15.476 33.376-33.88v-80.319c0-4.135 3.364-7.5 7.5-7.5s7.5 3.365 7.5 7.5v80.319c0 26.958-21.933 48.891-48.891 48.891h-29.195c-26.958 0-48.891-21.932-48.891-48.891zm141.978 0v-80.319c0-9.512-5.936-17.658-14.295-20.944 6.322-14.869 16.618-28.08 29.631-37.8 15.917-11.889 34.865-18.173 54.798-18.173 16.317 0 32.076 4.265 46.012 12.382l-8.815 12.77c-.725 1.044-2.107 1.374-3.222.763l-38.193-20.826c-6.258-3.42-13.616-2.794-19.208 1.633-5.599 4.433-7.897 11.465-5.998 18.357l13.63 49.28c.898 3.25 3.856 5.501 7.229 5.501h107.839c4.143 0 7.5-3.358 7.5-7.5s-3.357-7.5-7.5-7.5h-102.133l-12.106-43.773c-.38-1.379.37-2.224.851-2.605.584-.461 1.524-.876 2.708-.228l38.192 20.825c7.865 4.302 17.644 1.982 22.75-5.4l22.512-32.611c.639-.926 1.544-1.064 2.026-1.064s1.388.138 2.028 1.065l22.515 32.618c5.104 7.374 14.883 9.691 22.738 5.396l38.207-20.834c1.176-.644 2.119-.229 2.701.232.48.381 1.23 1.226.853 2.598l-12.109 43.781h-21.733c-4.143 0-7.5 3.358-7.5 7.5s3.357 7.5 7.5 7.5h27.44c3.372 0 6.33-2.25 7.229-5.501l13.632-49.287c1.897-6.886-.401-13.917-6-18.35-5.592-4.427-12.95-5.053-19.201-1.637l-38.208 20.834c-1.109.607-2.49.277-3.21-.76l-8.819-12.776c13.936-8.118 29.696-12.383 46.013-12.383 50.547 0 91.67 41.123 91.67 91.67 0 19.781-6.203 38.624-17.939 54.49-1.516 2.048-1.887 4.725-.987 7.108.899 2.383 2.946 4.147 5.438 4.684 8.459 1.823 16.152 6.54 21.665 13.287 5.668 6.928 8.664 15.335 8.664 24.311 0 10.772-4.485 20.881-12.222 28.102-8.492-8.272-20.079-13.382-32.843-13.382-4.179 0-8.328.562-12.335 1.647v-59.967c0-2.918-1.692-5.571-4.339-6.801-2.645-1.229-5.766-.813-7.996 1.068-12.038 10.152-27.357 15.743-43.136 15.743-27.723 0-52.917-17.427-62.691-43.365-1.102-2.921-3.896-4.855-7.019-4.855s-5.917 1.934-7.019 4.855c-9.773 25.938-34.968 43.365-62.691 43.365-15.776 0-31.099-5.595-43.145-15.753-2.232-1.882-5.351-2.298-7.996-1.068-2.646 1.23-4.339 3.883-4.339 6.801v59.975c-4.006-1.084-8.155-1.645-12.335-1.645-12.766 0-24.356 5.11-32.85 13.382-.317-.296-.636-.589-.942-.895-2.7-2.7-4.983-5.797-6.767-9.143 20.135-10.766 33.87-31.995 33.87-56.378zm57.629 17.954c5.518 1.163 11.171 1.77 16.875 1.77 28.571 0 54.948-15.125 69.71-38.856 14.763 23.731 41.14 38.856 69.71 38.856 5.704 0 11.357-.607 16.875-1.769v72.109c0 7.289-3.67 13.977-9.816 17.892-6.146 3.916-13.76 4.413-20.362 1.331-17.784-8.296-36.761-12.503-56.401-12.503-19.558 0-38.458 4.172-56.177 12.399-.078.033-.156.068-.233.104-6.604 3.081-14.216 2.583-20.363-1.332-6.146-3.915-9.816-10.603-9.816-17.892v-72.109zm-83.06 82.19c0-17.705 14.409-32.11 32.12-32.11 4.243 0 8.439.842 12.335 2.455v16.768c-3.002-1.223-6.316-2.035-9.922-2.397-7.46-.75-13.558.674-14.228.839-4.023.987-6.484 5.049-5.497 9.072s5.054 6.483 9.071 5.496c.041-.01 4.271-.973 9.154-.482 5.234.526 8.988 2.398 11.421 5.704v24.313c-3.883 1.618-8.08 2.462-12.335 2.462-17.71 0-32.119-14.409-32.119-32.12zm199.012 170.394c33.49 7.164 63.246 26.646 83.412 54.226h-225.568c20.166-27.58 49.923-47.062 83.413-54.226 3.46-.74 5.932-3.797 5.932-7.334v-6.317c4.657.571 9.396.871 14.205.871h18.479c4.805 0 9.542-.299 14.195-.87v6.316c0 3.538 2.472 6.594 5.932 7.334zm80.813-128.72c0 55.658-45.281 100.94-100.94 100.94h-18.479c-55.664 0-100.95-45.281-100.95-100.94v-132.79c2.785 1.581 5.661 2.986 8.604 4.228v76.808c0 12.442 6.265 23.86 16.759 30.544 5.933 3.778 12.662 5.692 19.431 5.692 5.118 0 10.26-1.095 15.09-3.307.085-.036.169-.073.252-.112 15.783-7.364 32.626-11.097 50.059-11.097 17.434 0 34.276 3.733 50.059 11.097 11.274 5.26 24.269 4.41 34.763-2.272 10.494-6.683 16.759-18.102 16.759-30.544v-76.805c2.94-1.24 5.814-2.644 8.596-4.222v132.78zm27.335-9.554c-4.25 0-8.446-.845-12.335-2.464v-24.304c2.376-3.233 6.016-5.094 11.069-5.672 5.011-.573 9.392.417 9.542.451 4.006.966 8.057-1.491 9.041-5.504.987-4.023-1.474-8.084-5.496-9.072-.671-.165-6.772-1.588-14.228-.839-3.609.362-6.925 1.175-9.929 2.4v-16.766c3.897-1.616 8.094-2.46 12.335-2.46 17.705 0 32.109 14.405 32.109 32.11.002 17.711-14.403 32.12-32.108 32.12z" fill="#000000" data-original="#000000" style="" class=""/>
      </g>
    </g>
  </g>
</svg>
