<svg id="Capa_1" enable-background="new 0 0 512 512" height="512" viewBox="0 0 512 512" width="512" xmlns="http://www.w3.org/2000/svg"><g><g><path d="m287.097 381.198v53.889c3.83.82 7.605 1.787 11.319 2.897 5.312 1.588 1.144 19.925 6.186 22.076 5.247 2.238 19.692-11.689 24.607-8.883 22.349 12.762 41.046 31.188 54.141 53.322h-54.142l-73.208-23.156-71.318 23.157h-56.027c12.922-21.844 31.301-40.076 53.261-52.816 4.941-2.867 14.537 4.902 19.82 2.612 5.282-2.289 6.25-14.636 11.831-16.305 3.721-1.113 7.503-2.083 11.34-2.904v-53.889" fill="#ffddce"/><path d="m381.349 280.628c26.722 0 48.385-21.663 48.385-48.385 0-8.743-2.331-16.936-6.387-24.014 11.545-8.843 18.997-22.762 18.997-38.428 0-22.92-15.943-42.105-37.34-47.103 4.689-7.453 7.411-16.268 7.411-25.723 0-26.722-21.663-48.385-48.385-48.385-5.018 0-9.857.764-14.408 2.182-2.554-24.318-23.118-43.272-48.113-43.272-20.943 0-38.773 13.307-45.509 31.926-6.735-18.619-24.566-31.926-45.509-31.926-24.995 0-45.56 18.954-48.114 43.272-4.551-1.418-9.39-2.182-14.408-2.182-26.722 0-48.385 21.663-48.385 48.385 0 9.455 2.722 18.27 7.411 25.723-21.397 4.999-37.34 24.183-37.34 47.103 0 15.666 7.452 29.585 18.997 38.428-4.056 7.078-6.387 15.271-6.387 24.014 0 26.722 21.663 48.385 48.385 48.385" fill="#365e7d"/><path d="m253.216 33.172c-2.85 5.35-4.73 11.29-5.39 17.6-4.55-1.42-9.39-2.18-14.41-2.18-26.72 0-48.39 21.66-48.39 48.39 0 9.45 2.73 18.27 7.42 25.72-21.4 5-37.34 24.18-37.34 47.1 0 15.67 7.45 29.59 18.99 38.43-4.05 7.08-6.38 15.27-6.38 24.01 0 26.73 21.66 48.39 48.38 48.39h-85.44c-26.72 0-48.38-21.66-48.38-48.39 0-8.74 2.33-16.93 6.38-24.01-11.54-8.84-19-22.76-19-38.43 0-22.92 15.95-42.1 37.34-47.1-4.68-7.45-7.41-16.27-7.41-25.72 0-26.73 21.67-48.39 48.39-48.39 5.02 0 9.85.76 14.41 2.18 2.55-24.32 23.12-43.27 48.11-43.27 18.51 0 34.59 10.399 42.72 25.67z" fill="#2b4d66"/><path d="m287.1 381.2v25.55c-7.06 1.44-14.37 2.2-21.86 2.2h-18.47c-7.49 0-14.8-.76-21.86-2.2v-25.55z" fill="#ffcbbe"/><path d="m238.592 381.2v53.89c-22.93 8.76-42.33 34.46-53.91 69.41h-56.03c20.68-34.95 55.32-60.65 96.26-69.41v-53.89z" fill="#ffcbbe"/><path d="m329.207 451.18v53.32h-146.41v-53.32c9.64-5.51 19.96-9.95 30.79-13.2 1.11 3.08 2.56 6 4.29 8.72 7.99 12.63 22.07 21.01 38.12 21.01 19.51 0 36.13-12.39 42.42-29.73 10.84 3.25 21.15 7.69 30.79 13.2z" fill="#ffc250"/><path d="m217.877 446.7c-14.63 12.72-26.84 32.92-35.08 57.8v-53.32c9.64-5.51 19.96-9.95 30.79-13.2 1.11 3.08 2.56 6 4.29 8.72z" fill="#e7a52e"/><g fill="#ffcbbe"><circle cx="118.492" cy="272.406" r="39.61"/><circle cx="393.514" cy="272.406" r="39.61"/></g><path d="m373.675 195.987v79.593c0 59.885-48.546 108.431-108.431 108.431h-18.478c-59.885 0-108.441-48.546-108.441-108.431v-79.593c0-.32 0-.65.01-.97.29-36.927 40.256-59.605 72.564-41.696 13.359 7.399 28.738 11.619 45.106 11.619 36.617 0 68.314-21.118 83.523-51.846 21.108 21.258 34.147 50.545 34.147 82.893z" fill="#ffddce"/><path d="m291.256 380.859c-8.329 2.06-17.039 3.15-26.008 3.15h-18.479c-59.885 0-108.441-48.546-108.441-108.431v-79.593c0-.32 0-.65.01-.97.29-36.927 40.257-59.605 72.564-41.696 4.42 2.45 9.059 4.55 13.889 6.259-9.559 8.519-15.848 20.868-15.959 35.437-.01.32-.01.65-.01.97v79.593c.001 50.915 35.108 93.642 82.434 105.281z" fill="#ffcbbe"/><g><path d="m153.144 82.563c5.269-2.593 3.423-10.524-2.449-10.524h-4.116c-3.77 0-7.17-1.53-9.64-4-2.466-2.466-3.985-5.86-3.99-9.623-.009-7.509-5.737-13.647-13.246-13.647h-49.274c-4.78 0-9.1 1.94-12.23 5.06-3.172 3.172-5.112 7.577-5.059 12.424.104 9.546 8.185 17.096 17.732 17.096h.087c-1 1.41-1.8 2.98-2.35 4.65-.624 1.941-.927 4.028-.818 6.2.466 9.28 8.436 16.42 17.728 16.42h51.901c.456-10.288 6.484-19.509 15.724-24.056z" fill="#ffc250"/><path d="m122.308 106.619h-37.25c-9.55 0-17.29-7.74-17.29-17.29 0-1.86.3-3.65.84-5.33.55-1.67 1.35-3.24 2.35-4.65h-.53c-9.55 0-17.29-7.74-17.29-17.29 0-4.77 1.93-9.1 5.06-12.23 3.13-3.12 7.45-5.06 12.23-5.06h37.25c-4.77 0-9.1 1.94-12.23 5.06-3.12 3.13-5.06 7.46-5.06 12.23 0 9.55 7.74 17.29 17.29 17.29h.52c-1 1.41-1.79 2.98-2.34 4.65-.55 1.68-.84 3.47-.84 5.33 0 9.55 7.74 17.29 17.29 17.29z" fill="#e7a52e"/><path d="m441.128 79.35h-.09c1 1.41 1.8 2.98 2.35 4.65.63 1.94.93 4.03.82 6.2-.46 9.28-8.43 16.42-17.73 16.42h-51.9c-.45-10.29-6.48-19.51-15.72-24.06-5.27-2.59-3.42-10.52 2.45-10.52h4.11c3.77 0 7.17-1.53 9.64-4s3.99-5.86 3.99-9.62c.01-6.57 4.4-12.09 10.53-13.37.88-.19 1.79-.28 2.72-.28h49.27c4.78 0 9.1 1.94 12.23 5.06 3.18 3.17 5.12 7.58 5.06 12.42-.1 9.55-8.18 17.1-17.73 17.1z" fill="#ffc250"/><path d="m402.048 62.06c0 1.86.29 3.65.84 5.33s1.34 3.24 2.34 4.65h-.52c-9.55 0-17.3 7.74-17.3 17.29 0 4.78 1.94 9.1 5.07 12.23s7.46 5.06 12.23 5.06h-30.13c-.45-10.29-6.48-19.51-15.72-24.06-5.27-2.59-3.42-10.52 2.45-10.52h3.72c3.77 0 7.17-1.53 9.64-4s4-5.87 4-9.64c0-6.6 4.69-12.1 10.91-13.35.88-.19 1.79-.28 2.72-.28h27.04c-9.55 0-17.29 7.74-17.29 17.29z" fill="#e7a52e"/></g></g><g><path d="m205.112 227.643c-7.235 0-13.122 8.064-13.122 17.978 0 9.913 5.886 17.977 13.122 17.977s13.122-8.064 13.122-17.977-5.886-17.978-13.122-17.978z"/><path d="m306.894 227.643c-7.235 0-13.122 8.064-13.122 17.978 0 9.913 5.886 17.977 13.122 17.977s13.122-8.064 13.122-17.977-5.887-17.978-13.122-17.978z"/><path d="m256 302.179c13.92 0 26.404-9.301 30.358-22.619 1.179-3.971-1.084-8.146-5.055-9.325-3.97-1.179-8.146 1.084-9.325 5.055-2.078 7-8.649 11.889-15.979 11.889-7.321 0-13.893-4.892-15.981-11.897-1.184-3.969-5.361-6.228-9.331-5.044s-6.228 5.361-5.044 9.331c3.971 13.312 16.453 22.61 30.357 22.61z"/><path d="m466.36 62.334c.073-6.732-2.503-13.057-7.264-17.817-4.689-4.674-10.913-7.249-17.525-7.249h-49.274c-5.538 0-10.492 2.126-14.177 5.618-4.577-1.188-9.295-1.797-14.091-1.797-2.842 0-5.663.212-8.442.633-6.286-24.287-28.233-41.722-54.077-41.722-18.299 0-35.179 9.02-45.507 23.461-10.324-14.44-27.205-23.461-45.513-23.461-25.844 0-47.792 17.435-54.078 41.723-2.78-.421-5.601-.633-8.442-.633-4.79 0-9.506.611-14.085 1.802-3.686-3.495-8.642-5.623-14.183-5.623h-49.274c-6.612 0-12.836 2.574-17.533 7.257-4.752 4.752-7.329 11.076-7.255 17.809.109 9.958 6.28 18.548 15.061 22.382-.366 1.929-.5 3.89-.401 5.859.664 13.202 11.741 23.543 25.218 23.543h9.273c.455 1.412.952 2.809 1.52 4.181-20.499 8.576-34.15 28.604-34.15 51.5 0 15.43 6.192 29.812 17.178 40.316-3.001 6.965-4.568 14.506-4.568 22.125 0 5.848.909 11.573 2.677 17.077-3.856 6.828-6.068 14.701-6.068 23.086 0 25.977 21.133 47.11 47.11 47.11 6.78 0 13.336-1.424 19.367-4.154 12.966 35.382 42.714 62.737 79.553 72.384v41.408c-39.718 10.169-74.179 35.979-95.206 71.533-1.371 2.318-1.394 5.194-.059 7.534s3.822 3.781 6.515 3.781h77.11c4.142 0 7.5-3.358 7.5-7.5s-3.358-7.5-7.5-7.5h-15.471v-41.367c6.168-3.277 12.592-6.091 19.215-8.421 7.854 14.797 22.414 25.044 38.986 27.448v22.34h-12.73c-4.142 0-7.5 3.358-7.5 7.5s3.358 7.5 7.5 7.5h147.58c2.694 0 5.181-1.445 6.515-3.785s1.312-5.216-.061-7.535c-21.039-35.556-55.498-61.365-95.205-71.531v-41.408c36.835-9.648 66.581-37.004 79.544-72.386 6.038 2.732 12.593 4.157 19.365 4.157 25.977 0 47.11-21.133 47.11-47.11 0-8.384-2.212-16.258-6.067-23.085 1.768-5.504 2.678-11.229 2.678-17.077 0-7.618-1.567-15.159-4.568-22.125 10.986-10.504 17.178-24.886 17.178-40.316 0-4.5-.533-8.962-1.584-13.261-.983-4.023-5.041-6.489-9.066-5.504-4.024.984-6.488 5.043-5.504 9.066.766 3.134 1.155 6.397 1.155 9.699 0 12.826-5.85 24.663-16.05 32.476-2.981 2.283-3.814 6.419-1.95 9.678 3.526 6.165 5.39 13.18 5.39 20.287 0 .93-.042 1.855-.104 2.776-7.939-6.091-17.859-9.723-28.617-9.723-4.182 0-8.331.561-12.335 1.646v-30.952c0-33.271-12.9-64.586-36.325-88.177-1.706-1.718-4.138-2.508-6.525-2.118-2.39.388-4.445 1.906-5.519 4.076-14.554 29.406-43.983 47.673-76.801 47.673-14.517 0-28.858-3.693-41.47-10.679-17.692-9.807-38.657-9.588-56.083.585-17.113 9.99-27.432 27.753-27.616 47.528-.01.368-.011.746-.011 1.112v30.95c-4.003-1.083-8.152-1.644-12.335-1.644-10.757 0-20.677 3.632-28.616 9.723-.062-.921-.104-1.845-.104-2.775 0-7.107 1.864-14.122 5.39-20.287 1.864-3.259 1.031-7.395-1.95-9.678-10.2-7.813-16.05-19.65-16.05-32.476 0-19.092 12.972-35.457 31.546-39.797 2.36-.552 4.309-2.21 5.23-4.452s.703-4.792-.588-6.844c-.934-1.485-1.761-3.018-2.489-4.589h26.558c4.012 0 7.314-3.158 7.493-7.167.336-7.554 4.76-14.321 11.545-17.66 5.473-2.693 8.329-8.723 6.947-14.664s-6.608-10.09-12.708-10.09h-4.116c-1.634 0-3.174-.641-4.337-1.803-1.154-1.155-1.791-2.692-1.793-4.329-.001-.543-.041-1.074-.079-1.606 2.491-.468 5.031-.711 7.601-.711 4.168 0 8.265.619 12.175 1.839 2.146.669 4.479.342 6.356-.894s3.103-3.248 3.337-5.483c2.187-20.836 19.663-36.55 40.653-36.55 17.169 0 32.624 10.842 38.457 26.979 1.073 2.97 3.893 4.95 7.051 4.951h.002c3.158 0 5.978-1.978 7.052-4.947 5.843-16.139 21.297-26.983 38.458-26.983 20.99 0 38.466 15.714 40.651 36.552.234 2.236 1.459 4.248 3.337 5.483s4.209 1.563 6.356.894c3.911-1.22 8.007-1.839 12.175-1.839 2.573 0 5.112.241 7.601.707-.038.533-.078 1.066-.079 1.61-.002 1.637-.639 3.174-1.793 4.328-1.163 1.163-2.703 1.803-4.337 1.803h-4.116c-6.1 0-11.325 4.149-12.708 10.089-1.382 5.941 1.474 11.971 6.947 14.664 6.785 3.339 11.208 10.106 11.544 17.66.179 4.009 3.48 7.167 7.493 7.167h26.558c-.729 1.572-1.556 3.105-2.49 4.589-1.29 2.052-1.509 4.6-.588 6.842s2.869 3.901 5.229 4.453c6.317 1.478 12.271 4.493 17.217 8.719 1.413 1.207 3.145 1.798 4.869 1.798 2.117 0 4.222-.892 5.706-2.628 2.69-3.149 2.319-7.883-.83-10.574-4.361-3.726-9.298-6.765-14.571-8.994.572-1.379 1.074-2.784 1.532-4.205h9.27c13.478 0 24.555-10.342 25.218-23.542.099-1.96-.035-3.911-.4-5.845 8.762-3.826 14.95-12.426 15.059-22.397zm-291.061 434.666h-32.729c9.127-12.497 20.219-23.336 32.729-32.143zm88.201-22.339c16.577-2.403 31.14-12.65 38.995-27.448 6.623 2.329 13.046 5.145 19.215 8.422v41.365h-58.21zm105.937 22.339h-32.727v-32.14c12.506 8.806 23.598 19.644 32.727 32.14zm-83.907-54.576c.711.152 1.418.318 2.125.481-6.823 10.596-18.711 17.305-31.656 17.305-12.94 0-24.824-6.709-31.647-17.305.708-.163 1.416-.329 2.127-.481 3.459-.74 5.93-3.797 5.93-7.334v-44.468c4.705.584 9.495.888 14.356.888h18.478c4.861 0 9.651-.305 14.356-.889v44.468c.001 3.538 2.472 6.595 5.931 7.335zm107.98-202.132c17.706 0 32.11 14.404 32.11 32.11s-14.404 32.11-32.11 32.11c-5.335 0-10.47-1.301-15.093-3.774 1.646-7.409 2.581-15.081 2.73-22.944 2.375-3.258 6.021-5.134 11.096-5.715 5.008-.572 9.392.417 9.541.451 4.012.964 8.056-1.491 9.041-5.504.987-4.023-1.474-8.084-5.496-9.071-.671-.165-6.774-1.587-14.227-.839-3.608.363-6.924 1.175-9.927 2.4v-16.764c3.89-1.616 8.087-2.46 12.335-2.46zm-247.685-44.306c0-.241-.001-.489.006-.729.002-.061.003-.121.004-.182.113-14.465 7.657-27.465 20.179-34.775 6.531-3.813 13.74-5.723 20.964-5.723 6.945 0 13.905 1.766 20.287 5.304 14.833 8.215 31.687 12.558 48.74 12.558 34.931 0 66.596-17.615 84.961-46.615 16.322 19.695 25.209 44.255 25.209 70.161v79.593c0 55.653-45.277 100.931-100.931 100.931h-18.478c-55.659 0-100.941-45.277-100.941-100.931zm-27.335 44.306c4.25 0 8.446.842 12.335 2.456v16.765c-3.002-1.223-6.315-2.034-9.92-2.397-7.455-.747-13.555.675-14.227.839-4.009.984-6.451 5.018-5.487 9.032.965 4.014 5.01 6.491 9.028 5.544.044-.01 4.474-1.031 9.544-.452 5.07.58 8.715 2.452 11.09 5.703.148 7.868 1.083 15.545 2.731 22.958-4.614 2.471-9.749 3.771-15.094 3.771-17.706 0-32.11-14.404-32.11-32.11s14.404-32.109 32.11-32.109zm31.342-164.459s0 .001 0 0c-.007.004-.015.008-.022.011.007-.003.015-.007.022-.011zm-5.773 3.558c-6.476 4.896-11.093 11.865-13.08 19.728h-45.461c-5.387 0-9.979-4.17-10.237-9.297-.051-1.009.063-2.013.313-2.969h11.725c4.142 0 7.5-3.358 7.5-7.5s-3.358-7.5-7.5-7.5h-16.388c-.02 0-.04-.004-.06-.004-5.583 0-10.174-4.342-10.232-9.678-.029-2.664.988-5.164 2.854-7.031 1.858-1.852 4.321-2.872 6.935-2.872h49.274c3.271 0 5.742 2.647 5.746 6.156.006 5.637 2.204 10.935 6.187 14.918 3.395 3.395 7.736 5.494 12.424 6.049zm218.109-3.557c.007.003.015.007.022.011-.007-.004-.015-.008-.022-.011zm78.874-3.985c-.006 0-.012.001-.018.001h-16.785c-4.142 0-7.5 3.358-7.5 7.5s3.358 7.5 7.5 7.5h12.164c.254.976.366 1.973.316 2.972-.257 5.126-4.85 9.296-10.237 9.296h-45.461c-1.987-7.863-6.604-14.831-13.08-19.728 4.688-.555 9.029-2.654 12.424-6.049 3.983-3.983 6.18-9.281 6.187-14.917.004-3.51 2.475-6.156 5.746-6.156h49.274c2.614 0 5.077 1.02 6.927 2.864 1.875 1.875 2.892 4.375 2.863 7.038-.059 5.337-4.65 9.679-10.32 9.679z"/><path d="m189.522 212.24c5.951-5.95 15.633-5.95 21.584 0 1.464 1.464 3.384 2.197 5.303 2.197s3.839-.732 5.303-2.197c2.929-2.929 2.929-7.678 0-10.606-11.799-11.8-30.998-11.8-42.797 0-2.929 2.929-2.929 7.678 0 10.606 2.93 2.928 7.679 2.928 10.607 0z"/><path d="m300.894 212.24c5.951-5.95 15.633-5.95 21.584 0 1.464 1.464 3.384 2.197 5.303 2.197s3.839-.732 5.303-2.197c2.929-2.929 2.929-7.678 0-10.606-11.799-11.8-30.998-11.8-42.797 0-2.929 2.929-2.929 7.678 0 10.606s7.678 2.928 10.607 0z"/></g></g></svg>