<svg id="Capa_1" enable-background="new 0 0 511.99 511.99" height="512" viewBox="0 0 511.99 511.99" width="512" xmlns="http://www.w3.org/2000/svg"><g><g><path d="m67.004 228.532c-18.958-49.262 32.876-114.698 52.5-137.016 3.507-3.988 9.92-3.22 12.383 1.485 4.222 8.065 10.201 20.642 14.754 34.849 2.245 7.004 12.113 7.129 14.412.142 10.409-31.632 34.556-78.387 90.455-119.033 2.674-1.944 6.3-1.944 8.974 0 55.899 40.646 80.046 87.401 90.455 119.033 2.299 6.987 12.168 6.862 14.412-.142 4.553-14.207 10.531-26.784 14.754-34.849 2.463-4.705 8.876-5.473 12.383-1.485 19.624 22.318 71.458 87.754 52.5 137.016z" fill="#e04b66"/><path d="m255.913 7.501v.1c-1.03.03-2.04.49-2.83 1.36-32.63 36.54-48.59 78.01-56.39 108.99-4.93 19.58-28.33 27.35-43.97 15.13 3.37.51 7.04-1.17 8.33-5.09 10.41-31.63 34.56-78.39 90.46-119.03 1.32-.96 2.86-1.44 4.4-1.46z" fill="#de1d49"/><path d="m104.794 228.532-19.894 3.919-17.896-3.919c-18.96-49.26 32.87-114.7 52.5-137.01 3.5-3.99 9.92-3.22 12.38 1.48 1.74 3.32 3.77 7.41 5.89 12.06-18.35 29-45.76 81.98-32.98 123.47z" fill="#de1d49"/><path d="m346.311 228.53-91.53 27.47-89.1-27.47c-9.06-23.54 15.71-54.81 25.09-65.48 1.67-1.9 4.74-1.53 5.92.71 2.01 3.86 4.87 9.87 7.05 16.66 1.07 3.34 5.78 3.4 6.88.07 4.98-15.12 16.52-37.46 43.23-56.89 1.28-.93 3.01-.93 4.29 0 26.71 19.43 38.25 41.77 43.23 56.89 1.09 3.33 5.81 3.27 6.88-.07 2.18-6.79 5.04-12.8 7.05-16.66 1.18-2.24 4.24-2.61 5.92-.71 9.38 10.67 34.15 41.94 25.09 65.48z" fill="#ffc250"/><path d="m225.071 236.63c.27 3.76-59.39-8.1-59.39-8.1-9.06-23.54 15.71-54.81 25.09-65.48 1.67-1.9 4.74-1.53 5.92.71 2.01 3.86 4.87 9.87 7.05 16.66 1.07 3.34 5.78 3.4 6.88.07 4.98-15.12 16.52-37.46 43.23-56.89 0 0-33.44 49.19-28.78 113.03z" fill="#e7a52e"/><path d="m468.915 228.532h-425.841v68.775c0 79.012 64.052 143.065 143.065 143.065h139.712c79.012 0 143.065-64.052 143.065-143.065v-68.775z" fill="#ede6e3"/><path d="m304.329 440.372h-118.19c-79.01 0-143.06-64.05-143.06-143.06v-68.78h118.19v68.78c-.001 79.01 64.05 143.06 143.06 143.06z" fill="#d8cec9"/><path d="m405.707 440.372h-299.425c-29.202 0-52.876 23.673-52.876 52.876v11.252h405.176v-11.253c.001-29.202-23.672-52.875-52.875-52.875z" fill="#9d6b6b"/><path d="m221.387 440.37c-29.2 0-52.88 23.67-52.88 52.88v11.25h-115.1v-11.25c0-29.21 23.67-52.88 52.88-52.88z" fill="#8b5e5e"/></g><g><path d="m432.613 392.825c3.226 2.598 7.947 2.089 10.545-1.136 21.441-26.617 33.248-60.135 33.248-94.381v-68.777c0-4.142-3.357-7.5-7.5-7.5h-13.92c4.522-21.23-.536-46.242-15.12-74.544-13.483-26.164-31.948-48.769-41.754-59.914-3.282-3.73-8.182-5.602-13.114-5.011-4.927.592-9.241 3.57-11.542 7.965-4.35 8.308-10.529 21.304-15.259 36.043-.015.045-.027.076-.03.09-.029.008-.08.019-.104.012-.003-.007-.005-.014-.008-.021-10.859-32.993-35.835-81.071-93.158-122.746-5.325-3.873-12.479-3.874-17.802-.001-24.776 18.012-45.662 38.84-62.078 61.905-2.402 3.374-1.613 8.057 1.762 10.459 3.376 2.403 8.058 1.612 10.459-1.762 15.474-21.741 35.215-41.413 58.679-58.471.052-.037.106-.037.158.001 54.09 39.324 77.564 84.408 87.733 115.303 2.067 6.283 7.659 10.333 14.26 10.332h.066c6.679-.027 12.311-4.161 14.347-10.524 4.401-13.715 10.185-25.875 14.268-33.683l.1.016c9.35 10.627 26.938 32.147 39.684 56.878 13.719 26.621 18.081 49.351 13.02 67.673h-83.94c.852-9.929-1.903-21.146-8.27-33.5-6.631-12.866-15.685-23.958-20.492-29.426-2.418-2.75-6.023-4.133-9.671-3.697-3.636.436-6.822 2.634-8.522 5.88-1.127 2.153-2.503 4.944-3.893 8.164-6.717-15.251-19.166-34.152-42.214-50.912-3.922-2.849-9.188-2.851-13.11 0-23.047 16.759-35.496 35.66-42.213 50.911-1.391-3.22-2.766-6.011-3.894-8.165-1.699-3.245-4.886-5.443-8.521-5.879-3.639-.435-7.253.946-9.672 3.697-4.806 5.468-13.861 16.56-20.491 29.426-6.366 12.353-9.121 23.571-8.27 33.5h-83.942c-12.565-45.575 36.799-106.475 52.703-124.551.006 0 .1.005.104.005 4.078 7.786 9.862 19.946 14.261 33.654 2.038 6.37 7.671 10.503 14.349 10.531h.066c6.6 0 12.194-4.05 14.26-10.331 3.595-10.918 8.24-21.759 13.807-32.222 1.945-3.657.559-8.198-3.099-10.144-3.655-1.946-8.197-.559-10.143 3.098-5.968 11.216-10.951 22.849-14.813 34.578-.003.009-.006.017-.009.024-.043.004-.083.007-.081.02 0 0-.023-.035-.054-.132-4.728-14.732-10.907-27.728-15.257-36.035-2.301-4.396-6.615-7.374-11.542-7.966-4.922-.59-9.831 1.28-13.113 5.011-9.807 11.146-28.272 33.751-41.755 59.915-14.585 28.301-19.643 53.314-15.12 74.544h-13.92c-4.142 0-7.5 3.358-7.5 7.5v68.777c0 59.565 34.772 111.158 85.081 135.556h-14.377c-33.29 0-60.373 27.083-60.373 60.373v11.252c0 4.142 3.357 7.5 7.5 7.5h405.159c4.142 0 7.5-3.358 7.5-7.5v-11.252c0-33.29-27.083-60.373-60.373-60.373h-14.364c10.547-5.087 20.519-11.41 29.665-18.883 3.208-2.621 3.683-7.345 1.063-10.553-2.621-3.207-7.345-3.684-10.553-1.063-24.072 19.666-54.494 30.497-85.661 30.497h-139.712c-52.803 0-98.645-30.351-121.013-74.52h381.846c-4.259 8.402-9.432 16.413-15.493 23.937-2.599 3.229-2.09 7.95 1.136 10.548zm18.462 100.412v3.753h-390.16v-3.753c0-25.019 20.355-45.374 45.373-45.374h299.414c25.018.001 45.373 20.355 45.373 45.374zm-258.464-320.745c1.356 2.975 2.786 6.474 3.986 10.218 1.48 4.617 5.73 7.733 10.574 7.751h.043c4.803 0 9.033-3.061 10.536-7.629 4.534-13.778 14.842-33.705 38.245-51.476 23.4 17.771 33.712 37.699 38.246 51.476 1.503 4.568 5.733 7.629 10.536 7.629h.043c4.844-.019 9.093-3.134 10.575-7.752 1.199-3.743 2.629-7.242 3.985-10.217 12.434 15.277 23.036 34.304 21.126 48.539h-169.022c-1.911-14.235 8.691-33.262 21.127-48.539zm-133.974 170.852c-1.941-5.36-3.55-10.878-4.809-16.526h76.473c4.142 0 7.5-3.358 7.5-7.5v-60.527c0-4.142-3.357-7.5-7.5-7.5h-60.527c-4.142 0-7.5 3.358-7.5 7.5v30.269c0 4.142 3.357 7.5 7.5 7.5h30.258c4.142 0 7.5-3.358 7.5-7.5s-3.357-7.5-7.5-7.5h-22.758v-15.269h45.527v45.527h-71.44c-.51-4.769-.778-9.608-.778-14.51v-61.278h410.823v61.278c0 4.887-.253 9.728-.754 14.51h-71.464v-45.527h45.527v15.269h-22.758c-4.142 0-7.5 3.358-7.5 7.5s3.357 7.5 7.5 7.5h30.258c4.142 0 7.5-3.358 7.5-7.5v-30.269c0-4.142-3.357-7.5-7.5-7.5h-60.527c-4.142 0-7.5 3.358-7.5 7.5v60.527c0 4.142 3.357 7.5 7.5 7.5h76.532c-1.237 5.62-2.833 11.136-4.777 16.526z"/><path d="m329.863 251.295h-60.523c-4.142 0-7.5 3.358-7.5 7.5v30.262c0 4.142 3.357 7.5 7.5 7.5h30.261c4.142 0 7.5-3.358 7.5-7.5s-3.357-7.5-7.5-7.5h-22.761v-15.263h45.524v45.524h-132.738v-45.524h45.524v15.263h-22.762c-4.142 0-7.5 3.358-7.5 7.5s3.357 7.5 7.5 7.5h30.261c4.142 0 7.5-3.358 7.5-7.5v-30.262c0-4.142-3.357-7.5-7.5-7.5h-60.523c-4.142 0-7.5 3.358-7.5 7.5v60.523c0 4.142 3.357 7.5 7.5 7.5h147.736c4.142 0 7.5-3.358 7.5-7.5v-60.523c.001-4.143-3.357-7.5-7.499-7.5z"/></g></g></svg>