<svg id="Capa_1" enable-background="new 0 0 512 512" height="512" viewBox="0 0 512 512" width="512" xmlns="http://www.w3.org/2000/svg"><g><g><path d="m442.335 206.11c-12.97 51.88-58.86 85.8-24.94 146.65 33.91 60.86 23.16 116.74-34.41 151.74h-253.98c-57.56-35-68.32-90.88-34.4-151.74 33.92-60.85-11.97-94.77-24.94-146.65s47.89-64.85 54.98-79.99l77.63-13.01 53.73-9.01 131.35 22.02c7.09 15.14 67.95 28.11 54.98 79.99z" fill="#ffc250"/><path d="m266.865 471.14-24.56 33.36h-113.3c-57.56-35-68.32-90.88-34.4-151.74 33.92-60.85-11.97-94.77-24.94-146.65s47.89-64.85 54.98-79.99l77.63-13.01c-8.5 13.94-27.2 53.57 12.71 82.69 49.22 35.92 51.88 275.34 51.88 275.34z" fill="#e7a52e"/><path d="m374.349 86.091c4.139-35.61-45.303-78.591-118.348-78.591s-122.487 42.981-118.349 78.591" fill="#ffc250"/><path d="m219.943 86.091h-82.29c-4.13-35.61 45.31-78.59 118.35-78.59-22.25 0-37.32 42.98-36.06 78.59z" fill="#e7a52e"/><path d="m382.989 504.5h-253.977c20.618-34.851 55.164-60.483 95.981-69.217v-53.738h62.015v53.738c40.817 8.734 75.363 34.366 95.981 69.217z" fill="#ffddce"/><g fill="#ffcbbe"><path d="m224.995 381.541h62.011v22.07h-62.011z"/><path d="m242.901 381.541v53.742c-17.249 8.73-31.842 34.368-40.552 69.217h-73.337c20.617-34.849 55.165-60.487 95.978-69.217v-53.742z"/><g><circle cx="118.168" cy="271.858" r="39.704"/><circle cx="393.84" cy="271.858" r="39.704"/></g></g><path d="m373.954 181.316v93.723c0 60.026-48.66 108.687-108.687 108.687h-18.522c-60.026 0-108.697-48.661-108.697-108.687v-93.723c7.317 1.583 14.914 2.415 22.702 2.415 41.414 0 77.346-23.443 95.256-57.781 17.911 34.338 53.842 57.781 95.246 57.781 7.788.001 15.385-.831 22.702-2.415z" fill="#ffddce"/><path d="m288.594 381.208c-7.507 1.654-15.315 2.516-23.323 2.516h-18.522c-60.026 0-108.697-48.661-108.697-108.687v-93.723c7.317 1.583 14.914 2.415 22.702 2.415 15.084 0 29.447-3.117 42.466-8.73v100.037c0 52.019 36.553 95.508 85.374 106.172z" fill="#ffcbbe"/><path d="m374.349 86.091c-78.086-16-158.61-16-236.697 0-11.248 2.305-19.289 12.263-19.289 23.744 0 15.156 13.756 26.644 28.651 23.842 72.024-13.547 145.949-13.547 217.973 0 14.895 2.802 28.651-8.686 28.651-23.842 0-11.481-8.041-21.439-19.289-23.744z" fill="#e04b66"/><path d="m202.734 125.935c-18.65 1.68-37.25 4.26-55.72 7.74-1.52.29-3.02.42-4.5.42-13.05 0-24.15-10.65-24.15-24.26 0-11.49 8.04-21.44 19.29-23.75 21.22-4.35 42.62-7.51 64.11-9.49-6.98 5.86-11.3 14.66-11.3 24.28 0 10.3 4.86 19.3 12.27 25.06z" fill="#de1d49"/><g fill="#e04b66"><circle cx="328.335" cy="291.905" r="14.964"/><circle cx="183.667" cy="291.905" r="14.964"/></g><circle cx="256.001" cy="74.091" fill="#6dd3ff" r="28.044"/><path d="m267.097 99.851c-3.4 1.47-7.15 2.28-11.09 2.28-15.49 0-28.05-12.55-28.05-28.04s12.56-28.04 28.05-28.04c3.94 0 7.69.81 11.09 2.28-9.98 4.29-16.97 14.2-16.97 25.76s6.99 21.47 16.97 25.76z" fill="#59a8f6"/></g><g><path d="m408.522 133.745c-4.039-2.541-8.756-5.509-11.695-7.928 2.79-4.791 4.312-10.278 4.312-15.977 0-7.272-2.522-14.39-7.102-20.041-3.216-3.97-7.347-7.08-11.981-9.093-.352-12.964-6.287-26.471-17.133-38.65-23.451-26.334-64.169-42.056-108.922-42.056s-85.472 15.722-108.923 42.057c-10.848 12.182-16.784 25.692-17.133 38.658-11.349 4.948-19.075 16.332-19.075 29.125 0 5.82 1.575 11.275 4.31 15.97-2.938 2.42-7.66 5.391-11.703 7.934-19.272 12.126-51.529 32.421-41.088 74.185 3.51 14.034 9.247 26.705 15.485 39.359-4.382 7.161-6.912 15.573-6.912 24.565 0 19.265 11.605 35.86 28.188 43.19-.861 11.054-4.51 22.25-11.096 34.065-17.711 31.775-23.895 63.178-17.884 90.813 6.163 28.333 25.16 52.88 54.938 70.987l.005-.008c1.155.703 2.494 1.1 3.894 1.1h253.977c1.389 0 2.719-.39 3.868-1.083.01-.004.024-.003.033-.008 18.943-11.514 33.451-25.452 43.12-41.425 2.146-3.543 1.012-8.155-2.532-10.3-3.546-2.146-8.154-1.012-10.3 2.532-7.341 12.126-18.04 22.994-31.859 32.378-21.208-32.058-53.714-55.255-90.808-64.752v-41.845c37.007-9.629 66.898-37.086 79.908-72.613 6.055 2.743 12.629 4.174 19.421 4.174 1.453 0 2.889-.076 4.309-.205 1.359 12.352 5.547 24.72 12.703 37.557 15.996 28.713 21.528 55.544 16.441 79.748-.852 4.054 1.744 8.03 5.797 8.882.521.109 1.039.162 1.551.162 3.472 0 6.589-2.426 7.332-5.959 5.77-27.452-.461-58.62-18.019-90.135-6.586-11.814-10.235-23.01-11.096-34.066 16.58-7.33 28.184-23.925 28.184-43.188 0-8.993-2.53-17.406-6.913-24.567 6.238-12.653 11.975-25.324 15.485-39.358 10.442-41.763-21.814-62.058-41.087-74.184zm-250.242-81.713c24.314-27.303 66.422-37.032 97.721-37.032 47.735 0 81.778 19.13 97.721 37.032 7.233 8.122 11.669 16.728 12.965 24.926-24.988-4.708-50.391-7.825-75.739-9.313-3.043-16.531-17.551-29.097-34.947-29.097-17.397 0-31.905 12.567-34.947 29.098-25.345 1.488-50.748 4.606-75.739 9.315 1.295-8.199 5.732-16.806 12.965-24.929zm118.265 22.059c0 11.328-9.216 20.543-20.544 20.543s-20.544-9.216-20.544-20.543c0-11.328 9.216-20.544 20.544-20.544s20.544 9.216 20.544 20.544zm-165.08 72.35c5.553-3.494 10.411-6.558 14.099-9.803 4.905 3.136 10.72 4.963 16.955 4.963 1.996 0 3.983-.186 5.896-.552 3.608-.684 7.444-1.364 11.401-2.02 4.086-.678 6.85-4.54 6.171-8.626-.677-4.086-4.53-6.851-8.626-6.172-4.069.675-8.02 1.375-11.749 2.082-1.013.193-2.024.287-3.094.287-9.181 0-16.649-7.519-16.649-16.76 0-7.923 5.593-14.821 13.295-16.402 27.083-5.546 54.747-9.154 82.339-10.795 3.839 15.48 17.847 26.991 34.497 26.991 16.651 0 30.658-11.511 34.497-26.992 27.596 1.641 55.264 5.25 82.349 10.795 3.737.765 7.124 2.826 9.536 5.804 2.423 2.989 3.757 6.753 3.757 10.598 0 5.008-2.211 9.714-6.067 12.913-3.829 3.176-8.819 4.471-13.695 3.556-59.069-11.111-119.277-13.24-178.95-6.33-4.114.477-7.063 4.198-6.587 8.313.477 4.115 4.202 7.062 8.313 6.587 18.339-2.124 36.729-3.368 55.121-3.741-18.37 28.042-49.534 45.093-83.525 45.093-7.125 0-14.229-.755-21.114-2.246-2.217-.481-4.531.069-6.296 1.493s-2.791 3.57-2.791 5.837v44.988c-4.019-1.09-8.183-1.654-12.383-1.654-11.177 0-21.453 3.913-29.548 10.43-4.86-10.184-8.987-20.034-11.677-30.789-7.804-31.216 15.667-45.983 34.525-57.848zm-25.502 125.413c0-17.757 14.446-32.204 32.203-32.204 4.266 0 8.479.847 12.383 2.469v16.843c-3.014-1.231-6.341-2.048-9.964-2.412-7.475-.75-13.583.675-14.254.841-4.01.984-6.452 5.018-5.487 9.032s5.012 6.491 9.028 5.544c.044-.01 4.49-1.034 9.571-.453 5.091.582 8.75 2.464 11.134 5.731.148 7.89 1.086 15.59 2.739 23.024-4.63 2.482-9.784 3.788-15.15 3.788-17.757.001-32.203-14.446-32.203-32.203zm-1.134 164.879c-5.298-24.354.195-51.379 16.327-80.322 7.157-12.839 11.345-25.208 12.704-37.558 1.419.129 2.854.205 4.306.205 6.801 0 13.376-1.43 19.424-4.171 13.011 35.524 42.9 62.979 79.906 72.608v41.847c-37.09 9.496-69.598 32.692-90.815 64.749-22.868-15.508-36.941-34.774-41.852-57.358zm200.609 5.884c33.581 7.182 63.416 26.721 83.632 54.383h-226.145c20.223-27.661 50.062-47.203 83.639-54.383 3.46-.74 5.932-3.796 5.932-7.334v-44.932c4.671.574 9.425.875 14.249.875h18.522c4.82 0 9.571-.301 14.239-.874v44.931c.001 3.537 2.472 6.594 5.932 7.334zm-20.171-66.391h-18.522c-55.8 0-101.196-45.392-101.196-101.187v-84.81c5.023.667 10.109 1.003 15.201 1.003 38.599 0 74.032-19.11 95.256-50.632 21.225 31.522 56.653 50.632 95.246 50.632 5.093 0 10.179-.336 15.202-1.003v84.81c0 55.794-45.393 101.187-101.187 101.187zm128.569-72.168c-5.355 0-10.509-1.307-15.148-3.791 1.652-7.431 2.59-15.126 2.739-23.012 2.383-3.273 6.044-5.158 11.139-5.741 5.023-.575 9.427.42 9.568.453 4.014.965 8.056-1.491 9.041-5.504.987-4.023-1.474-8.084-5.497-9.071-.672-.166-6.786-1.591-14.254-.841-3.625.364-6.954 1.182-9.97 2.414v-16.842c3.905-1.624 8.117-2.472 12.382-2.472 17.757 0 32.203 14.446 32.203 32.204s-14.447 32.203-32.203 32.203zm41.223-99.768c-2.691 10.756-6.817 20.605-11.677 30.789-8.094-6.517-18.37-10.429-29.546-10.429-4.198 0-8.363.565-12.382 1.656v-44.99c0-2.268-1.026-4.414-2.791-5.837s-4.076-1.974-6.296-1.493c-6.885 1.49-13.989 2.246-21.115 2.246-33.981 0-65.139-17.048-83.509-45.084 32.109.646 64.154 3.939 95.863 9.903 1.954.367 3.917.548 5.868.548 6 0 11.874-1.713 16.962-4.961 3.688 3.245 8.546 6.309 14.098 9.802 18.858 11.866 42.329 26.633 34.525 57.85z"/><path d="m199.981 237.013c-2.85 0-5.483 1.262-7.64 3.38l-4.969-3.535c-3.377-2.401-8.059-1.61-10.459 1.764-2.401 3.375-1.611 8.058 1.764 10.459l8.157 5.803c0 .05-.005.098-.005.148 0 9.936 5.9 18.02 13.152 18.02s13.152-8.083 13.152-18.02-5.9-18.019-13.152-18.019z"/><path d="m324.635 236.858-4.969 3.535c-2.156-2.119-4.79-3.38-7.64-3.38-7.252 0-13.152 8.083-13.152 18.02s5.9 18.02 13.152 18.02 13.152-8.083 13.152-18.02c0-.05-.005-.098-.005-.148l8.157-5.803c3.375-2.401 4.165-7.083 1.764-10.459-2.4-3.375-7.083-4.166-10.459-1.765z"/><path d="m179.323 205.968c-2.929 2.929-2.929 7.678 0 10.606 2.93 2.929 7.678 2.929 10.607 0 5.971-5.971 15.686-5.971 21.656 0 1.465 1.464 3.385 2.197 5.304 2.197s3.839-.732 5.304-2.197c2.929-2.929 2.929-7.678 0-10.606-11.82-11.82-31.051-11.82-42.871 0z"/><path d="m323.211 216.574c1.465 1.464 3.385 2.197 5.304 2.197s3.839-.732 5.304-2.197c2.929-2.929 2.929-7.678 0-10.606-11.82-11.819-31.051-11.819-42.871 0-2.929 2.929-2.929 7.678 0 10.606 2.93 2.929 7.678 2.929 10.607 0 5.97-5.97 15.685-5.97 21.656 0z"/><path d="m281.242 280.898c-3.969-1.179-8.146 1.084-9.324 5.055-2.07 6.971-8.614 11.84-15.914 11.84-7.291 0-13.836-4.872-15.915-11.848-1.185-3.969-5.358-6.229-9.33-5.045-3.97 1.184-6.229 5.361-5.045 9.33 3.96 13.285 16.416 22.563 30.29 22.563 13.891 0 26.348-9.281 30.293-22.571 1.179-3.97-1.084-8.145-5.055-9.324z"/></g></g></svg>