<?xml version="1.0"?>
<svg width="512" height="512" xmlns="http://www.w3.org/2000/svg" xmlns:svg="http://www.w3.org/2000/svg">

 <g class="layer">
  <title>Layer 1</title>
  <g id="svg_1">
   <g id="svg_2">
    <path d="m185.652,348.302l146.318,0l0,126.366l-146.318,0l0,-126.366z" fill="#0e7a27" id="svg_3" transform="matrix(1, 0, 0, 1, 0, 0)"/>
    <path d="m315.425,351.281c-7.13,5.92 -11.67,14.84 -11.67,24.83c0,9.07 3.74,17.26 9.77,23.12c0.61,0.59 1.24,1.16 1.9,1.71c-7.13,5.92 -11.67,14.84 -11.67,24.83c0,17.81 14.44,32.25 32.25,32.25s32.25,-14.44 32.25,-32.25c0,-9.99 -4.54,-18.91 -11.67,-24.83c7.13,-5.91 11.67,-14.84 11.67,-24.83c0,-3.18 -0.46,-6.26 -1.33,-9.17c-1.83,-6.21 -5.49,-11.63 -10.34,-15.66c7.13,-5.92 11.67,-14.84 11.67,-24.83s-4.54,-18.92 -11.67,-24.83c7.13,-5.92 11.67,-14.84 11.67,-24.83c0,-17.81 -14.44,-32.25 -32.25,-32.25s-32.25,14.44 -32.25,32.25c0,9.99 4.54,18.91 11.67,24.83c-7.13,5.91 -11.67,14.84 -11.67,24.83s4.54,18.91 11.67,24.83z" fill="#1dd14a" id="svg_4" transform="matrix(1, 0, 0, 1, 0, 0)"/>
    <path d="m315.425,351.281c-7.13,5.92 -11.67,14.84 -11.67,24.83c0,9.07 3.74,17.26 9.77,23.12c20.9,-5.35 39.37,-16.78 53.4,-32.29c-1.83,-6.21 -5.49,-11.63 -10.34,-15.66c7.13,-5.92 11.67,-14.84 11.67,-24.83s-4.54,-18.92 -11.67,-24.83c7.13,-5.92 11.67,-14.84 11.67,-24.83c0,-17.81 -14.44,-32.25 -32.25,-32.25s-32.25,14.44 -32.25,32.25c0,9.99 4.54,18.91 11.67,24.83c-7.13,5.91 -11.67,14.84 -11.67,24.83s4.54,18.91 11.67,24.83z" fill="#0e7a27" id="svg_5" transform="matrix(1, 0, 0, 1, 0, 0)"/>
    <path d="m325.456,456.252c3.31,1.15 6.86,1.77 10.55,1.77c17.82,0 32.25,-14.44 32.25,-32.25c0,-9.99 -4.54,-18.92 -11.67,-24.83c7.13,-5.92 11.67,-14.84 11.67,-24.83s-4.54,-18.92 -11.67,-24.83c7.13,-5.92 11.67,-14.85 11.67,-24.83c0,-9.99 -4.54,-18.92 -11.67,-24.84c7.13,-5.91 11.67,-14.84 11.67,-24.83c0,-17.81 -14.43,-32.25 -32.25,-32.25c-3.69,0 -7.24,0.62 -10.55,1.77c12.63,4.37 21.7,16.37 21.7,30.48c0,9.99 -4.54,18.92 -11.67,24.83c7.13,5.92 11.67,14.85 11.67,24.84c0,9.98 -4.54,18.91 -11.67,24.83c7.13,5.91 11.67,14.84 11.67,24.83s-4.54,18.91 -11.67,24.83c7.13,5.91 11.67,14.84 11.67,24.83c0,14.11 -9.07,26.11 -21.7,30.48z" fill="#0e7a27" id="svg_6" transform="matrix(1, 0, 0, 1, 0, 0)"/>
    <path d="m342.649,307.236c0,-9.988 4.542,-18.915 11.672,-24.831c-7.13,-5.916 -11.672,-14.842 -11.672,-24.831c0,-17.812 14.44,-32.252 32.252,-32.252s32.252,14.44 32.252,32.252c0,9.988 -4.542,18.915 -11.672,24.831c7.13,5.916 11.672,14.842 11.672,24.831s-4.542,18.915 -11.672,24.831c7.13,5.916 11.672,14.842 11.672,24.831c0,9.988 -4.542,18.915 -11.672,24.831c7.13,5.916 11.672,14.842 11.672,24.831c0,17.812 -14.44,32.252 -32.252,32.252s-32.252,-14.44 -32.252,-32.252c0,-9.988 4.542,-18.915 11.672,-24.831c-7.13,-5.916 -11.672,-14.842 -11.672,-24.831c0,-9.988 4.542,-18.915 11.672,-24.831c-7.13,-5.916 -11.672,-14.842 -11.672,-24.831z" fill="#1dd14a" id="svg_7" transform="matrix(1, 0, 0, 1, 0, 0)"/>
    <path d="m364.353,437.039c3.31,1.15 6.86,1.77 10.55,1.77c17.82,0 32.25,-14.44 32.25,-32.25c0,-9.99 -4.54,-18.92 -11.67,-24.83c7.13,-5.92 11.67,-14.84 11.67,-24.83s-4.54,-18.92 -11.67,-24.83c7.13,-5.92 11.67,-14.85 11.67,-24.83c0,-9.99 -4.54,-18.92 -11.67,-24.84c7.13,-5.91 11.67,-14.84 11.67,-24.83c0,-17.81 -14.43,-32.25 -32.25,-32.25c-3.69,0 -7.24,0.62 -10.55,1.77c12.63,4.37 21.7,16.37 21.7,30.48c0,9.99 -4.54,18.92 -11.67,24.83c7.13,5.92 11.67,14.85 11.67,24.84c0,9.98 -4.54,18.91 -11.67,24.83c7.13,5.91 11.67,14.84 11.67,24.83s-4.54,18.91 -11.67,24.83c7.13,5.91 11.67,14.84 11.67,24.83c0,14.11 -9.07,26.11 -21.7,30.48z" fill="#0e7a27" id="svg_8" transform="matrix(1, 0, 0, 1, 0, 0)"/>
    <path d="m196.576,351.281c7.13,5.92 11.67,14.84 11.67,24.83c0,9.07 -3.74,17.26 -9.77,23.12c-0.61,0.59 -1.24,1.16 -1.9,1.71c7.13,5.92 11.67,14.84 11.67,24.83c0,17.81 -14.44,32.25 -32.25,32.25s-32.25,-14.44 -32.25,-32.25c0,-9.99 4.54,-18.91 11.67,-24.83c-7.13,-5.91 -11.67,-14.84 -11.67,-24.83c0,-3.18 0.46,-6.26 1.33,-9.17c1.83,-6.21 5.49,-11.63 10.34,-15.66c-7.13,-5.92 -11.67,-14.84 -11.67,-24.83s4.54,-18.92 11.67,-24.83c-7.13,-5.92 -11.67,-14.84 -11.67,-24.83c0,-17.81 14.44,-32.25 32.25,-32.25s32.25,14.44 32.25,32.25c0,9.99 -4.54,18.91 -11.67,24.83c7.13,5.91 11.67,14.84 11.67,24.83s-4.54,18.91 -11.67,24.83z" fill="#1dd14a" id="svg_9" transform="matrix(1, 0, 0, 1, 0, 0)"/>
    <path d="m196.576,351.281c7.13,5.92 11.67,14.84 11.67,24.83c0,9.07 -3.74,17.26 -9.77,23.12c-20.9,-5.35 -39.37,-16.78 -53.4,-32.29c1.83,-6.21 5.49,-11.63 10.34,-15.66c-7.13,-5.92 -11.67,-14.84 -11.67,-24.83s4.54,-18.92 11.67,-24.83c-7.13,-5.92 -11.67,-14.84 -11.67,-24.83c0,-17.81 14.44,-32.25 32.25,-32.25s32.25,14.44 32.25,32.25c0,9.99 -4.54,18.91 -11.67,24.83c7.13,5.91 11.67,14.84 11.67,24.83s-4.54,18.91 -11.67,24.83z" fill="#0e7a27" id="svg_10" transform="matrix(1, 0, 0, 1, 0, 0)"/>
    <path d="m186.545,456.252c-3.31,1.15 -6.86,1.77 -10.55,1.77c-17.82,0 -32.25,-14.44 -32.25,-32.25c0,-9.99 4.54,-18.92 11.67,-24.83c-7.13,-5.92 -11.67,-14.84 -11.67,-24.83s4.54,-18.92 11.67,-24.83c-7.13,-5.92 -11.67,-14.85 -11.67,-24.83c0,-9.99 4.54,-18.92 11.67,-24.84c-7.13,-5.91 -11.67,-14.84 -11.67,-24.83c0,-17.81 14.43,-32.25 32.25,-32.25c3.69,0 7.24,0.62 10.55,1.77c-12.63,4.37 -21.7,16.37 -21.7,30.48c0,9.99 4.54,18.92 11.67,24.83c-7.13,5.92 -11.67,14.85 -11.67,24.84c0,9.98 4.54,18.91 11.67,24.83c-7.13,5.91 -11.67,14.84 -11.67,24.83s4.54,18.91 11.67,24.83c-7.13,5.91 -11.67,14.84 -11.67,24.83c0,14.11 9.07,26.11 21.7,30.48z" fill="#de1d49" id="svg_11"/>
    <path d="m169.352,307.236c0,-9.988 -4.542,-18.915 -11.672,-24.831c7.13,-5.916 11.672,-14.842 11.672,-24.831c0,-17.812 -14.44,-32.252 -32.252,-32.252s-32.252,14.44 -32.252,32.252c0,9.988 4.542,18.915 11.672,24.831c-7.13,5.916 -11.672,14.842 -11.672,24.831s4.542,18.915 11.672,24.831c-7.13,5.916 -11.672,14.842 -11.672,24.831c0,9.988 4.542,18.915 11.672,24.831c-7.13,5.916 -11.672,14.842 -11.672,24.831c0,17.812 14.44,32.252 32.252,32.252s32.252,-14.44 32.252,-32.252c0,-9.988 -4.542,-18.915 -11.672,-24.831c7.13,-5.916 11.672,-14.842 11.672,-24.831c0,-9.988 -4.542,-18.915 -11.672,-24.831c7.13,-5.916 11.672,-14.842 11.672,-24.831z" fill="#e04b66" id="svg_12" transform="matrix(1, 0, 0, 1, 0, 0)"/>
    <path d="m147.648,437.039c-3.31,1.15 -6.86,1.77 -10.55,1.77c-17.82,0 -32.25,-14.44 -32.25,-32.25c0,-9.99 4.54,-18.92 11.67,-24.83c-7.13,-5.92 -11.67,-14.84 -11.67,-24.83s4.54,-18.92 11.67,-24.83c-7.13,-5.92 -11.67,-14.85 -11.67,-24.83c0,-9.99 4.54,-18.92 11.67,-24.84c-7.13,-5.91 -11.67,-14.84 -11.67,-24.83c0,-17.81 14.43,-32.25 32.25,-32.25c3.69,0 7.24,0.62 10.55,1.77c-12.63,4.37 -21.7,16.37 -21.7,30.48c0,9.99 4.54,18.92 11.67,24.83c-7.13,5.92 -11.67,14.85 -11.67,24.84c0,9.98 4.54,18.91 11.67,24.83c-7.13,5.91 -11.67,14.84 -11.67,24.83s4.54,18.91 11.67,24.83c-7.13,5.91 -11.67,14.84 -11.67,24.83c0,14.11 9.07,26.11 21.7,30.48z" fill="#de1d49" id="svg_13"/>
    <path d="m138.311,181.591l-32.249,0c-21.663,0 -39.225,-17.562 -39.225,-39.225c0,-17.472 11.426,-32.269 27.211,-37.343c-4.712,-6.473 -7.499,-14.437 -7.499,-23.056c0,-21.663 17.562,-39.225 39.225,-39.225c1.971,0 3.907,0.149 5.8,0.43c1.797,-19.996 18.593,-35.67 39.057,-35.67l85.369,0l85.369,0c20.464,0 37.259,15.674 39.057,35.67c1.893,-0.281 3.829,-0.43 5.8,-0.43c21.663,0 39.225,17.562 39.225,39.225c0,8.619 -2.787,16.583 -7.499,23.056c15.785,5.074 27.211,19.872 27.211,37.343c0,21.663 -17.562,39.225 -39.225,39.225l-32.248,0l-28.423,92.887l-186.222,0l-20.734,-92.887z" fill="#1dd14a" id="svg_14" transform="matrix(1, 0, 0, 1, 0, 0)"/>
    <path d="m234.075,181.589l20.74,92.89l-95.77,0l-20.74,-92.89l-32.25,0c-21.66,0 -39.22,-17.56 -39.22,-39.23c0,-17.47 11.42,-32.26 27.21,-37.34c-4.71,-6.47 -7.5,-14.44 -7.5,-23.05c0,-21.67 17.56,-39.23 39.23,-39.23c1.97,0 3.9,0.15 5.8,0.43c1.79,-20 18.59,-35.67 39.05,-35.67l95.78,0c-20.47,0 -37.26,15.67 -39.06,35.67c-1.89,-0.28 -3.83,-0.43 -5.8,-0.43c-21.67,0 -39.23,17.56 -39.23,39.23c0,8.61 2.79,16.58 7.5,23.05c-15.78,5.08 -27.21,19.87 -27.21,37.34c0,21.67 17.56,39.23 39.23,39.23l32.24,0z" fill="#de1d49" id="svg_15"/>
    <path d="m382.695,504.5l-253.399,0c20.571,-34.772 55.039,-60.345 95.763,-69.06l0,-53.615l61.874,0l0,53.615c40.723,8.715 75.191,34.288 95.762,69.06z" fill="#60291e" id="svg_16" transform="matrix(1, 0, 0, 1, 0, 0)"/>
    <path d="m225.061,381.821l61.87,0l0,22.02l-61.87,0l0,-22.02z" fill="#60291e" id="svg_17"/>
    <path d="m242.925,381.821l0,53.62c-17.21,8.71 -31.77,34.29 -40.46,69.06l-73.17,0c20.57,-34.77 55.04,-60.35 95.76,-69.06l0,-53.62l17.87,0z" fill="#471c13" id="svg_18" transform="matrix(1, 0, 0, 1, 0, 0)"/>
    <path d="m373.68,181.591l0,93.97c0,59.89 -48.55,108.44 -108.439,108.44l-18.48,0c-59.89,0 -108.45,-48.55 -108.45,-108.44l0,-93.97c5.66,9.47 16.01,15.81 27.85,15.81c8.95,0 17.05,-3.63 22.92,-9.5c5.86,-5.86 9.49,-13.97 9.49,-22.92l0,-0.8c5.74,9.14 15.9,15.22 27.48,15.22c6.75,0 13.02,-2.06 18.21,-5.6c5.19,-3.53 9.3,-8.52 11.74,-14.39c4.87,11.73 16.44,19.99 29.95,19.99c5.79,0 11.22,-1.52 15.93,-4.18c4.7,-2.66 8.67,-6.47 11.54,-11.04l0,0.8c0,17.9 14.52,32.42 32.42,32.42c8.95,0 17.05,-3.63 22.92,-9.5c1.889,-1.889 3.549,-4 4.919,-6.31z" fill="#60291e" id="svg_19" transform="matrix(1, 0, 0, 1, 0, 0)"/>
    <path d="m290.19,381.111c-8.01,1.89 -16.36,2.89 -24.95,2.89l-18.48,0c-59.89,0 -108.45,-48.55 -108.45,-108.44l0,-93.97c5.66,9.47 16.01,15.81 27.85,15.81c8.95,0 17.05,-3.63 22.92,-9.5c5.86,-5.86 9.49,-13.97 9.49,-22.92l0,-0.8c2.14,3.41 4.89,6.4 8.11,8.8l0,102.58c0.001,51.31 35.641,94.29 83.51,105.55z" fill="#471c13" id="svg_20" transform="matrix(1, 0, 0, 1, 0, 0)"/>
    <path d="m136.646,309.901c7.13,5.91 11.67,14.84 11.67,24.83c0,17.81 -14.44,32.25 -32.25,32.25s-32.25,-14.44 -32.25,-32.25c0,-9.99 4.54,-18.92 11.67,-24.83c-7.13,-5.92 -11.67,-14.84 -11.67,-24.83s4.54,-18.92 11.67,-24.83c-7.13,-5.92 -11.67,-14.84 -11.67,-24.83s4.54,-18.92 11.67,-24.83c-7.13,-5.92 -11.67,-14.85 -11.67,-24.84c0,-3.5 0.56,-6.87 1.59,-10.03c5.76,3.58 12.53,5.71 19.78,5.87c0.29,0.01 0.59,0.01 0.88,0.01l32.24,0c2.39,4 5.63,7.45 9.46,10.1c-1.4,7.55 -5.44,14.17 -11.12,18.89c7.13,5.91 11.67,14.84 11.67,24.83s-4.54,18.91 -11.67,24.83c7.13,5.91 11.67,14.84 11.67,24.83c0,7.12 -2.31,13.69 -6.21,19.03c-1.57,2.15 -3.41,4.1 -5.46,5.8z" fill="#e04b66" id="svg_21"/>
    <path d="m126.616,365.211c-3.31,1.15 -6.86,1.77 -10.55,1.77c-17.82,0 -32.25,-14.44 -32.25,-32.25c0,-9.99 4.54,-18.92 11.67,-24.83c-7.13,-5.92 -11.67,-14.84 -11.67,-24.83s4.54,-18.92 11.67,-24.83c-7.13,-5.92 -11.67,-14.85 -11.67,-24.83c0,-9.99 4.54,-18.92 11.67,-24.84c-7.13,-5.91 -11.67,-14.84 -11.67,-24.83c0,-3.5 0.56,-6.87 1.59,-10.03c5.76,3.58 12.53,5.71 19.78,5.87c-0.18,1.36 -0.27,2.75 -0.27,4.16c0,9.99 4.54,18.92 11.67,24.83c-7.13,5.92 -11.67,14.85 -11.67,24.84c0,9.98 4.54,18.91 11.67,24.83c-7.13,5.91 -11.67,14.84 -11.67,24.83s4.54,18.91 11.67,24.83c-7.13,5.91 -11.67,14.84 -11.67,24.83c0,14.11 9.07,26.11 21.7,30.48z" fill="#de1d49" id="svg_22"/>
    <path d="m282.936,33.878c-14.876,0 -26.936,12.06 -26.936,26.936c0,-14.876 -12.06,-26.936 -26.936,-26.936s-26.936,12.06 -26.936,26.936l0,25.763c0,29.752 24.119,53.871 53.871,53.871s53.871,-24.119 53.871,-53.871l0,-25.764c0.002,-14.876 -12.058,-26.935 -26.934,-26.935z" fill="#ffc250" id="svg_23"/>
    <circle cx="256.001" cy="87.057" fill="#ffc250" id="svg_24" r="26.243"/>
    <path d="m264.977,111.736c-2.8,1.01 -5.82,1.57 -8.98,1.57c-14.49,0 -26.24,-11.75 -26.24,-26.25c0,-14.49 11.75,-26.24 26.24,-26.24c3.16,0 6.18,0.56 8.98,1.57c-10.07,3.67 -17.27,13.33 -17.27,24.67c0,11.35 7.2,21.01 17.27,24.68z" fill="#e7a52e" id="svg_25"/>
    <path d="m375.355,309.901c-7.13,5.91 -11.67,14.84 -11.67,24.83c0,17.81 14.44,32.25 32.25,32.25s32.25,-14.44 32.25,-32.25c0,-9.99 -4.54,-18.92 -11.67,-24.83c7.13,-5.92 11.67,-14.84 11.67,-24.83s-4.54,-18.92 -11.67,-24.83c7.13,-5.92 11.67,-14.84 11.67,-24.83s-4.54,-18.92 -11.67,-24.83c7.13,-5.92 11.67,-14.85 11.67,-24.84c0,-3.5 -0.56,-6.87 -1.59,-10.03c-5.76,3.58 -12.53,5.71 -19.78,5.87c-0.29,0.01 -0.59,0.01 -0.88,0.01l-32.24,0c-2.39,4 -5.63,7.45 -9.46,10.1c1.4,7.55 5.44,14.17 11.12,18.89c-7.13,5.91 -11.67,14.84 -11.67,24.83s4.54,18.91 11.67,24.83c-7.13,5.91 -11.67,14.84 -11.67,24.83c0,7.12 2.31,13.69 6.21,19.03c1.57,2.15 3.41,4.1 5.46,5.8z" fill="#1dd14a" id="svg_26" transform="matrix(1, 0, 0, 1, 0, 0)"/>
    <path d="m385.385,365.211c3.31,1.15 6.86,1.77 10.55,1.77c17.82,0 32.25,-14.44 32.25,-32.25c0,-9.99 -4.54,-18.92 -11.67,-24.83c7.13,-5.92 11.67,-14.84 11.67,-24.83s-4.54,-18.92 -11.67,-24.83c7.13,-5.92 11.67,-14.85 11.67,-24.83c0,-9.99 -4.54,-18.92 -11.67,-24.84c7.13,-5.91 11.67,-14.84 11.67,-24.83c0,-3.5 -0.56,-6.87 -1.59,-10.03c-5.76,3.58 -12.53,5.71 -19.78,5.87c0.18,1.36 0.27,2.75 0.27,4.16c0,9.99 -4.54,18.92 -11.67,24.83c7.13,5.92 11.67,14.85 11.67,24.84c0,9.98 -4.54,18.91 -11.67,24.83c7.13,5.91 11.67,14.84 11.67,24.83s-4.54,18.91 -11.67,24.83c7.13,5.91 11.67,14.84 11.67,24.83c0,14.11 -9.07,26.11 -21.7,30.48z" fill="#0e7a27" id="svg_27"/>
   </g>
   <g id="svg_28">
    <path d="m324.464,237.454l-4.959,3.528c-2.149,-2.107 -4.772,-3.361 -7.61,-3.361c-7.236,0 -13.123,8.065 -13.123,17.979s5.887,17.979 13.123,17.979c7.235,0 13.122,-8.065 13.122,-17.979c0,-0.043 -0.004,-0.084 -0.005,-0.128l8.147,-5.796c3.375,-2.401 4.165,-7.084 1.764,-10.459c-2.402,-3.374 -7.084,-4.164 -10.459,-1.763z" id="svg_29"/>
    <path d="m178.838,249.676l8.147,5.796c0,0.043 -0.005,0.085 -0.005,0.128c0,9.914 5.887,17.979 13.123,17.979s13.123,-8.065 13.123,-17.979s-5.887,-17.979 -13.123,-17.979c-2.838,0 -5.461,1.254 -7.611,3.361l-4.959,-3.528c-3.375,-2.4 -8.058,-1.611 -10.459,1.764c-2.4,3.374 -1.611,8.057 1.764,10.458z" id="svg_30"/>
    <path d="m190.087,217.241c2.883,-2.882 6.715,-4.47 10.792,-4.47s7.909,1.588 10.792,4.47c1.464,1.464 3.384,2.197 5.303,2.197s3.839,-0.732 5.303,-2.197c2.929,-2.929 2.929,-7.678 0,-10.606c-11.799,-11.8 -30.998,-11.8 -42.797,0c-2.929,2.929 -2.929,7.678 0,10.606c2.929,2.929 7.678,2.929 10.607,0z" id="svg_31"/>
    <path d="m301.458,217.241c2.882,-2.883 6.715,-4.47 10.791,-4.47c4.077,0 7.909,1.588 10.793,4.47c1.464,1.465 3.384,2.197 5.303,2.197s3.839,-0.732 5.304,-2.197c2.929,-2.929 2.929,-7.678 -0.001,-10.606c-5.716,-5.716 -13.315,-8.864 -21.398,-8.864s-15.683,3.148 -21.398,8.864c-2.929,2.929 -2.929,7.678 0.001,10.606c2.926,2.93 7.675,2.929 10.605,0z" id="svg_32"/>
    <path d="m255.999,313.247c13.865,0 26.301,-9.265 30.239,-22.531c1.18,-3.971 -1.084,-8.146 -5.055,-9.325c-3.968,-1.179 -8.146,1.084 -9.324,5.055c-2.063,6.948 -8.585,11.801 -15.86,11.801c-7.267,0 -13.791,-4.856 -15.863,-11.809c-1.184,-3.969 -5.361,-6.227 -9.331,-5.044c-3.969,1.184 -6.228,5.361 -5.044,9.331c3.954,13.26 16.388,22.522 30.238,22.522z" id="svg_33"/>
    <path d="m256,39.382c-6.314,-7.92 -16.043,-13.004 -26.936,-13.004c-18.988,0 -34.436,15.448 -34.436,34.436l0,25.763c0,33.84 27.531,61.371 61.371,61.371s61.372,-27.531 61.372,-61.371l0,-25.764c0,-18.988 -15.447,-34.436 -34.436,-34.436c-10.891,0 -20.62,5.085 -26.935,13.005zm0,28.931c10.335,0 18.744,8.408 18.744,18.743s-8.408,18.744 -18.744,18.744c-10.335,0 -18.743,-8.408 -18.743,-18.743s8.409,-18.744 18.743,-18.744zm46.372,-7.5l0,25.763c0,25.569 -20.802,46.371 -46.372,46.371c-25.569,0 -46.371,-20.802 -46.371,-46.371l0,-25.763c0,-10.717 8.719,-19.436 19.436,-19.436c8.478,0 15.686,5.465 18.336,13.051c-14.453,3.813 -25.143,16.994 -25.143,32.629c0,18.606 15.137,33.743 33.743,33.743s33.744,-15.137 33.744,-33.743c0,-15.635 -10.69,-28.816 -25.144,-32.629c2.65,-7.585 9.859,-13.05 18.337,-13.05c10.715,-0.001 19.434,8.718 19.434,19.435z" id="svg_34"/>
    <path d="m452.66,142.36c0,-17.251 -9.348,-32.716 -23.992,-40.834c2.819,-6.088 4.282,-12.717 4.282,-19.555c0,-25.616 -20.72,-46.484 -46.279,-46.728c-5.11,-20.529 -23.458,-35.243 -45.301,-35.243l-13.02,0c-4.143,0 -7.5,3.358 -7.5,7.5s3.357,7.5 7.5,7.5l13.021,0c16.523,0 30.101,12.399 31.58,28.842c0.185,2.055 1.209,3.943 2.83,5.22c1.62,1.277 3.695,1.83 5.738,1.526c1.563,-0.231 3.145,-0.349 4.701,-0.349c17.496,0 31.73,14.234 31.73,31.73c0,6.742 -2.097,13.187 -6.063,18.636c-1.416,1.945 -1.812,4.451 -1.067,6.738s2.543,4.078 4.833,4.815c13.163,4.238 22.008,16.375 22.008,30.201c0,17.496 -14.234,31.73 -31.73,31.73l-32.231,0c-0.145,0 -0.313,0.006 -0.457,0.014c-2.49,0.144 -4.746,1.516 -6.02,3.662c-1.024,1.728 -2.295,3.358 -3.758,4.829c-4.721,4.712 -10.981,7.308 -17.631,7.308c-13.741,0 -24.92,-11.179 -24.92,-24.92l0,-0.8c0,-3.343 -2.212,-6.282 -5.425,-7.207c-3.207,-0.925 -6.648,0.387 -8.427,3.218c-2.215,3.526 -5.286,6.466 -8.876,8.498c-3.72,2.1 -7.953,3.21 -12.242,3.21c-10.112,0 -19.146,-6.029 -23.011,-15.36c-1.16,-2.799 -3.89,-4.625 -6.919,-4.629c-0.003,0 -0.006,0 -0.01,0c-3.026,0 -5.756,1.818 -6.921,4.611c-1.877,4.497 -5.003,8.329 -9.039,11.079c-4.132,2.813 -8.974,4.3 -14,4.3c-8.626,0 -16.524,-4.377 -21.128,-11.708c-1.778,-2.831 -5.216,-4.145 -8.427,-3.218c-3.212,0.925 -5.425,3.864 -5.425,7.207l0,0.8c0,6.657 -2.59,12.914 -7.294,17.617c-4.709,4.709 -10.965,7.303 -17.616,7.303c-5.086,0 -9.973,-1.516 -14.123,-4.377c-2.878,-1.992 -5.351,-4.606 -7.164,-7.573c-1.292,-2.329 -3.772,-3.861 -6.559,-3.861l-32.24,0c-0.208,-0.001 -0.421,0.001 -0.714,-0.008c-5.669,-0.125 -11.197,-1.765 -15.991,-4.745c-9.408,-5.839 -15.025,-15.924 -15.025,-26.978c0,-13.826 8.845,-25.963 22.008,-30.201c2.29,-0.737 4.087,-2.528 4.833,-4.815c0.746,-2.288 0.349,-4.793 -1.067,-6.738c-3.967,-5.449 -6.063,-11.894 -6.063,-18.636c0,-17.496 14.234,-31.73 31.73,-31.73c1.556,0 3.138,0.117 4.702,0.349c2.039,0.303 4.117,-0.25 5.738,-1.526c1.621,-1.277 2.645,-3.165 2.83,-5.22c1.481,-16.445 15.061,-28.844 31.591,-28.844l127.71,0c4.143,0 7.5,-3.358 7.5,-7.5s-3.357,-7.5 -7.5,-7.5l-127.71,0c-21.848,0 -40.199,14.714 -45.311,35.242c-25.559,0.244 -46.279,21.112 -46.279,46.728c0,6.838 1.463,13.468 4.282,19.555c-14.645,8.119 -23.992,23.583 -23.992,40.834c0,14.411 6.489,27.693 17.581,36.514c-0.395,2.26 -0.601,4.555 -0.601,6.866c0,9.134 3.105,17.848 8.704,24.837c-5.599,6.983 -8.704,15.695 -8.704,24.833c0,9.129 3.105,17.839 8.704,24.827c-5.598,6.983 -8.704,15.695 -8.704,24.833c0,9.129 3.105,17.839 8.703,24.827c-1.69,2.111 -3.163,4.397 -4.407,6.841c-1.879,3.692 -0.409,8.208 3.283,10.086c1.09,0.555 2.251,0.817 3.396,0.817c2.732,0 5.366,-1.498 6.69,-4.1c1.549,-3.043 3.666,-5.69 6.292,-7.867c1.718,-1.424 2.713,-3.54 2.714,-5.771s-0.992,-4.348 -2.709,-5.773c-5.695,-4.728 -8.961,-11.675 -8.961,-19.06c0,-7.393 3.265,-14.337 8.957,-19.055c1.718,-1.424 2.713,-3.54 2.714,-5.771c0.001,-2.232 -0.992,-4.348 -2.709,-5.773c-5.695,-4.729 -8.961,-11.676 -8.961,-19.06c0,-7.392 3.265,-14.338 8.957,-19.056c1.718,-1.424 2.713,-3.54 2.714,-5.771s-0.992,-4.348 -2.709,-5.773c-5.45,-4.525 -8.668,-11.086 -8.935,-18.12c4.384,1.457 8.966,2.284 13.592,2.386c0.374,0.013 0.759,0.014 1.132,0.014l28.268,0c1.463,1.924 3.121,3.703 4.908,5.34c-1.295,3.475 -3.354,6.62 -6.087,9.228c-0.443,0.419 -0.862,0.79 -1.28,1.135c-1.729,1.425 -2.729,3.548 -2.729,5.789s1.002,4.363 2.732,5.787c0.413,0.34 0.832,0.711 1.259,1.114c4.952,4.711 7.679,11.078 7.679,17.927c0,6.84 -2.729,13.208 -7.658,17.906c-0.448,0.423 -0.868,0.795 -1.283,1.138c-1.729,1.425 -2.729,3.548 -2.729,5.789s1.002,4.363 2.732,5.787c0.413,0.34 0.832,0.711 1.259,1.114c4.952,4.711 7.679,11.078 7.679,17.926c0,5.286 -1.648,10.337 -4.767,14.607c-1.198,1.64 -2.607,3.137 -4.189,4.449c-1.719,1.425 -2.713,3.542 -2.713,5.774c0,2.233 0.995,4.349 2.714,5.774c5.691,4.718 8.956,11.664 8.956,19.056c0,13.647 -11.103,24.75 -24.75,24.75c-9.37,0 -17.828,-5.194 -22.072,-13.555c-1.875,-3.693 -6.388,-5.167 -10.083,-3.292c-3.693,1.875 -5.167,6.389 -3.292,10.083c4.246,8.365 11.121,14.754 19.341,18.383c1.467,3.854 3.513,7.433 6.082,10.635c-5.595,6.982 -8.699,15.693 -8.699,24.828c0,21.918 17.832,39.75 39.75,39.75c1.59,0 3.156,-0.104 4.698,-0.287c3.661,6.22 8.88,11.248 15.09,14.635c-13.409,11.206 -24.98,24.702 -34.047,40.021c-1.372,2.318 -1.396,5.195 -0.062,7.535s3.822,3.785 6.516,3.785l253.394,0c2.693,0 5.181,-1.445 6.515,-3.785c1.335,-2.34 1.312,-5.216 -0.06,-7.534c-9.062,-15.318 -20.629,-28.812 -34.034,-40.018c6.214,-3.387 11.435,-8.416 15.097,-14.64c1.542,0.182 3.107,0.287 4.697,0.287c21.918,0 39.75,-17.832 39.75,-39.75c0,-9.135 -3.104,-17.845 -8.699,-24.828c2.578,-3.215 4.63,-6.809 6.097,-10.68c13.907,-6.196 23.631,-20.14 23.631,-36.321c0,-9.138 -3.104,-17.849 -8.703,-24.833c5.598,-6.988 8.703,-15.698 8.703,-24.827c0,-9.137 -3.104,-17.849 -8.703,-24.833c5.598,-6.988 8.703,-15.698 8.703,-24.827c0,-9.138 -3.104,-17.85 -8.703,-24.833c5.598,-6.989 8.703,-15.703 8.703,-24.837c0,-2.322 -0.208,-4.626 -0.606,-6.897c10.707,-8.571 17.582,-21.736 17.582,-36.485zm-258.281,50.845c3.896,-3.896 6.888,-8.458 8.869,-13.429c6.575,4.584 14.475,7.125 22.798,7.125c8.049,0 15.809,-2.386 22.443,-6.902c2.785,-1.898 5.298,-4.118 7.497,-6.607c7.431,8.455 18.243,13.509 29.959,13.509c6.869,0 13.652,-1.78 19.624,-5.152c1.09,-0.617 2.149,-1.286 3.176,-2.002c5.882,14.725 20.291,25.155 37.09,25.155c4.849,0 9.564,-0.87 13.981,-2.52c1.343,2.919 3.042,5.67 5.076,8.204c-5.582,6.999 -8.706,15.793 -8.706,24.826c0,9.169 3.054,17.81 8.703,24.837c-5.579,6.998 -8.703,15.792 -8.703,24.823c0,7.189 1.905,14.103 5.527,20.216c-12.943,42.092 -52.138,71.214 -96.477,71.214l-18.47,0c-44.334,0 -83.532,-29.113 -96.486,-71.193c3.631,-6.119 5.54,-13.042 5.54,-20.238c0,-9.024 -3.119,-17.812 -8.703,-24.819c5.645,-7.018 8.703,-15.664 8.703,-24.841c0,-9.026 -3.12,-17.815 -8.706,-24.823c2.03,-2.53 3.729,-5.28 5.073,-8.201c4.43,1.654 9.143,2.515 13.968,2.515c10.658,-0.001 20.682,-4.154 28.224,-11.697zm110.582,207.735c-5.6,6.988 -8.706,15.7 -8.706,24.831c0,1.437 0.096,2.866 0.25,4.288c-0.691,-0.187 -1.38,-0.381 -2.074,-0.559l0,-41.756c1.105,-0.289 2.204,-0.592 3.297,-0.912c1.438,5.135 3.895,9.936 7.233,14.108zm-97.921,0c3.338,-4.172 5.796,-8.973 7.234,-14.108c1.09,0.319 2.186,0.622 3.287,0.909l0,41.759c-0.691,0.177 -1.377,0.37 -2.065,0.556c0.154,-1.421 0.25,-2.85 0.25,-4.285c0,-9.131 -3.107,-17.843 -8.706,-24.831zm-94.694,5.621c0,-7.392 3.265,-14.338 8.956,-19.056c1.719,-1.424 2.713,-3.541 2.714,-5.773s-0.994,-4.349 -2.712,-5.774c-0.624,-0.517 -1.208,-1.07 -1.773,-1.638c16.645,-1.443 30.378,-13.183 34.789,-28.803c2.322,3.056 4.787,5.989 7.388,8.79c0.09,0.863 0.147,1.729 0.147,2.595c0,7.379 -3.27,14.326 -8.971,19.06c-1.717,1.425 -2.71,3.542 -2.709,5.773c0.001,2.232 0.996,4.347 2.714,5.771c5.698,4.724 8.966,11.669 8.966,19.056c0,13.647 -11.107,24.75 -24.76,24.75c-13.646,-0.001 -24.749,-11.104 -24.749,-24.751zm44.293,34.596c12.058,-6.835 20.217,-19.777 20.217,-34.597c0,-9.134 -3.108,-17.847 -8.711,-24.833c3.486,-4.349 6.006,-9.365 7.412,-14.733c7.531,5.858 15.773,10.799 24.553,14.67c-1.208,5.248 -4.102,10.008 -8.318,13.5c-1.719,1.424 -2.714,3.54 -2.716,5.772c-0.001,2.232 0.992,4.349 2.709,5.775c5.695,4.728 8.961,11.675 8.961,19.06c0,3.427 -0.722,6.806 -2.081,9.912c-9.633,3.856 -18.833,8.674 -27.469,14.352c-5.754,-1.143 -10.927,-4.342 -14.557,-8.878zm212.135,55.843l-225.564,0c20.174,-27.582 49.932,-47.064 83.418,-54.226c3.459,-0.74 5.932,-3.796 5.932,-7.334l0,-44.819c4.67,0.577 9.411,0.879 14.205,0.879l18.47,0c4.791,0 9.529,-0.302 14.195,-0.878l0,44.818c0,3.538 2.472,6.594 5.932,7.334c33.49,7.163 63.245,26.645 83.412,54.226zm-27.978,-46.965c-8.634,-5.676 -17.832,-10.493 -27.463,-14.349c-1.357,-3.107 -2.078,-6.487 -2.078,-9.915c0,-7.385 3.267,-14.332 8.962,-19.06c1.717,-1.426 2.71,-3.542 2.709,-5.775s-0.997,-4.348 -2.716,-5.772c-4.217,-3.492 -7.111,-8.252 -8.319,-13.501c8.78,-3.871 17.022,-8.814 24.552,-14.673c1.406,5.369 3.926,10.387 7.413,14.738c-5.603,6.986 -8.711,15.699 -8.711,24.833c0,14.82 8.16,27.763 20.219,34.598c-3.631,4.538 -8.808,7.737 -14.568,8.876zm34.109,-18.724c-13.652,0 -24.76,-11.103 -24.76,-24.75c0,-7.387 3.268,-14.333 8.966,-19.056c1.719,-1.424 2.713,-3.539 2.714,-5.771c0.001,-2.231 -0.992,-4.348 -2.709,-5.773c-5.701,-4.734 -8.971,-11.681 -8.971,-19.06c0,-0.871 0.058,-1.741 0.149,-2.607c2.6,-2.801 5.065,-5.734 7.386,-8.792c4.406,15.626 18.141,27.373 34.789,28.818c-0.565,0.568 -1.149,1.121 -1.772,1.638c-1.718,1.425 -2.712,3.542 -2.712,5.773c0,2.232 0.995,4.349 2.714,5.773c5.691,4.718 8.956,11.664 8.956,19.056c0,13.648 -11.102,24.751 -24.75,24.751zm36.824,-214.955c5.691,4.718 8.956,11.663 8.956,19.055c0,7.384 -3.267,14.332 -8.961,19.06c-1.717,1.425 -2.71,3.542 -2.709,5.773c0.001,2.232 0.995,4.347 2.714,5.771c5.691,4.718 8.956,11.664 8.956,19.056c0,7.384 -3.267,14.332 -8.961,19.06c-1.717,1.425 -2.71,3.542 -2.709,5.773c0.001,2.232 0.995,4.347 2.714,5.771c5.691,4.718 8.956,11.664 8.956,19.056c0,13.647 -11.103,24.75 -24.75,24.75c-13.646,0 -24.749,-11.103 -24.749,-24.75c0,-7.393 3.265,-14.338 8.956,-19.056c1.719,-1.425 2.714,-3.541 2.714,-5.774c0,-2.232 -0.994,-4.349 -2.713,-5.774c-1.584,-1.312 -2.993,-2.809 -4.19,-4.449c-3.118,-4.27 -4.767,-9.321 -4.767,-14.607c0,-6.849 2.728,-13.215 7.658,-17.906c0.448,-0.423 0.867,-0.794 1.28,-1.135c1.729,-1.424 2.73,-3.547 2.731,-5.787s-1,-4.364 -2.729,-5.789c-0.419,-0.345 -0.838,-0.716 -1.258,-1.113c-4.955,-4.722 -7.684,-11.09 -7.684,-17.931c0,-6.848 2.728,-13.215 7.658,-17.906c0.448,-0.423 0.867,-0.794 1.28,-1.135c1.729,-1.424 2.73,-3.547 2.731,-5.787s-1,-4.364 -2.729,-5.789c-0.419,-0.345 -0.838,-0.716 -1.254,-1.11c-2.75,-2.623 -4.812,-5.77 -6.109,-9.241c0.446,-0.407 0.886,-0.823 1.316,-1.252c1.29,-1.296 2.484,-2.668 3.573,-4.103l28.276,0c5.146,0 10.094,-0.848 14.729,-2.392c-0.269,7.031 -3.487,13.59 -8.935,18.114c-1.717,1.425 -2.71,3.542 -2.709,5.773c0.005,2.234 1,4.35 2.718,5.774z" id="svg_35"/>
   </g>
  </g>
 </g>
</svg>