<svg id="Capa_1" enable-background="new 0 0 512 512" height="512" viewBox="0 0 512 512" width="512" xmlns="http://www.w3.org/2000/svg"><g><g><path d="m255.995 436.964c3.344 13.883 13.568 25.772 28.125 30.578 22.385 7.39 46.522-4.767 53.912-27.152 4.754-14.402 1.408-29.522-7.537-40.448 9.22-5.095 16.756-13.282 20.9-23.706.954.393 1.922.766 2.917 1.095 22.385 7.39 46.523-4.767 53.912-27.152s-4.767-46.523-27.152-53.912c-20.256-6.687-41.945 2.632-51.364 21.051-2.281-1.201-4.684-2.24-7.213-3.075-24.633-8.132-51.193 5.245-59.325 29.878-5.65 17.117-.908 35.157 10.772 47.306-7.72 5.103-13.85 12.732-16.976 22.202-.38 1.15-.695 2.305-.973 3.462" fill="#ffc250"/><path d="m255.995 417.092c-.278-1.157-.593-2.312-.973-3.462-3.126-9.47-9.256-17.099-16.976-22.202 11.68-12.148 16.423-30.189 10.772-47.306-8.132-24.633-34.692-38.009-59.325-29.878-2.529.835-4.932 1.874-7.213 3.075-9.418-18.419-31.107-27.738-51.364-21.051-22.385 7.39-34.541 31.527-27.152 53.912 7.39 22.385 31.527 34.542 53.912 27.152.995-.329 1.963-.702 2.917-1.095 4.145 10.423 11.68 18.611 20.9 23.706-8.945 10.926-12.291 26.046-7.537 40.448 7.39 22.385 31.527 34.542 53.912 27.152 14.557-4.805 24.781-16.695 28.125-30.578" fill="#e7a52e"/><path d="m355.012 490.966h-204.18c9.397-15.881-.512-16.318 13.931-27.657 17.342-13.617 37.804-23.439 60.142-28.219v-53.89h62.19v53.89c22.407 4.796 42.929 14.668 60.308 28.356 14.366 11.315-1.749 11.704 7.609 27.52z" fill="#ffddce"/><path d="m238.585 381.2v53.89c-18.207 6.956-34.189 24.592-45.797 49.059-3.011 6.347-42.468-9.5-28.025-20.84 17.342-13.617 37.804-23.439 60.142-28.219v-53.89z" fill="#ffcbbe"/><path d="m287.09 381.2v24.61c-7.05 1.43-14.34 2.18-21.81 2.18h-18.57c-7.47 0-14.76-.75-21.81-2.18v-24.61z" fill="#ffcbbe"/><path d="m364.801 246.78c0 26.814 21.737 48.551 48.551 48.551s48.551-21.737 48.551-48.551c0-10.809-3.536-20.791-9.51-28.859 21.323-5.122 37.173-24.303 37.173-47.197 0-22.983-15.974-42.222-37.422-47.254 2-5.317 3.102-11.073 3.102-17.089 0-26.814-21.737-48.551-48.551-48.551-6.807 0-13.285 1.406-19.165 3.936-4.529-22.121-24.103-38.761-47.563-38.761-13.406 0-25.543 5.434-34.329 14.219-9.492-17.691-28.158-29.724-49.64-29.724s-40.148 12.033-49.64 29.724c-8.786-8.785-20.923-14.219-34.329-14.219-23.46 0-43.034 16.64-47.563 38.761-5.88-2.529-12.357-3.936-19.165-3.936-26.814 0-48.551 21.737-48.551 48.551 0 6.016 1.102 11.772 3.102 17.089-21.448 5.033-37.422 24.272-37.422 47.254 0 22.894 15.851 42.074 37.173 47.197-5.974 8.068-9.51 18.049-9.51 28.859 0 26.814 21.737 48.551 48.551 48.551s48.551-21.737 48.551-48.551" fill="#ffc250"/><path d="m256 7.5c15.33 0 29.23 6.13 39.37 16.07-2.43-.38-4.92-.57-7.46-.57-23.46 0-43.03 16.64-47.56 38.77-5.88-2.53-12.36-3.94-19.17-3.94-26.81 0-48.55 21.74-48.55 48.55 0 6.02 1.1 11.77 3.1 17.09-21.44 5.03-37.42 24.27-37.42 47.25 0 22.9 15.85 42.08 37.17 47.2-5.97 8.07-9.51 18.05-9.51 28.86h-18.77c0 26.81-21.74 48.55-48.56 48.55-26.81 0-48.55-21.74-48.55-48.55 0-10.81 3.54-20.79 9.51-28.86-21.32-5.12-37.17-24.3-37.17-47.2 0-22.98 15.97-42.22 37.42-47.25-2-5.32-3.1-11.07-3.1-17.09 0-26.81 21.74-48.55 48.55-48.55 6.81 0 13.29 1.41 19.17 3.94 4.53-22.13 24.1-38.77 47.56-38.77 13.41 0 25.54 5.44 34.33 14.22 9.49-17.69 28.16-29.72 49.64-29.72z" fill="#e7a52e"/><g fill="#ffcbbe"><circle cx="118.475" cy="272.386" r="39.614"/><circle cx="393.521" cy="272.386" r="39.614"/></g><path d="m373.68 201.69v73.87c0 50.61-34.68 93.13-81.57 105.09h-.01c-8.59 2.19-17.59 3.35-26.86 3.35h-18.48c-59.89 0-108.45-48.55-108.45-108.44v-77.19c19.71-5.31 34.31-23.08 34.87-44.34 3.94 1.06 8.08 1.64 12.35 1.64 9.19 0 17.76-2.63 25.01-7.18 2.68-1.68 5.18-3.62 7.47-5.78 8.21 18.65 26.85 31.68 48.54 31.68 17.84 0 33.61-8.82 43.22-22.33 4.28 28.25 28.67 49.91 58.11 49.91 1.96 0 3.89-.1 5.8-.28z" fill="#ffddce"/><path d="m292.1 380.65c-8.59 2.19-17.59 3.35-26.86 3.35h-18.48c-59.89 0-108.45-48.55-108.45-108.44v-77.19c19.71-5.31 34.31-23.08 34.87-44.34 3.94 1.06 8.08 1.64 12.35 1.64 9.19 0 17.76-2.63 25.01-7.18v127.07c0 50.61 34.68 93.12 81.56 105.09z" fill="#ffcbbe"/><path d="m383.34 504.5h-254.69c9.37-15.86 21.63-29.82 36.05-41.15l.37.35c11.06 3.79 22.29 6.86 33.64 9.22 49.13 10.25 100.33 7.17 148.21-9.22l.48-.25c14.37 11.31 26.58 25.23 35.94 41.05z" fill="#698ed5"/><path d="m198.71 472.92c-5.45 9.31-10.17 19.93-14.04 31.58h-56.02c9.37-15.86 21.63-29.82 36.05-41.15l.37.35c11.06 3.79 22.29 6.86 33.64 9.22z" fill="#4073c8"/><g fill="#b3e59f"><g><path d="m99.616 84.23-6.102-3.931-3.931 6.102c-13.047 20.252-7.206 47.247 13.047 60.294l6.102 3.931 3.931-6.102c13.047-20.253 7.205-47.247-13.047-60.294z"/><path d="m136.206 27.432-6.102-3.931-3.931 6.102c-13.047 20.252-7.206 47.247 13.047 60.294l6.102 3.931 3.931-6.102c13.047-20.253 7.206-47.247-13.047-60.294z"/><path d="m172.956 131.477 6.102 3.931-3.931 6.102c-13.047 20.252-40.041 26.094-60.294 13.047l-6.102-3.931 3.931-6.102c13.048-20.253 40.042-26.094 60.294-13.047z"/><path d="m209.546 74.679 6.102 3.931-3.931 6.102c-13.047 20.252-40.041 26.094-60.294 13.047l-6.102-3.931 3.931-6.102c13.048-20.253 40.042-26.094 60.294-13.047z"/></g><g><path d="m412.38 84.23 6.102-3.931 3.931 6.102c13.047 20.252 7.206 47.247-13.047 60.294l-6.102 3.931-3.931-6.102c-13.046-20.253-7.205-47.247 13.047-60.294z"/><path d="m375.79 27.432 6.102-3.931 3.931 6.102c13.047 20.252 7.206 47.247-13.047 60.294l-6.102 3.931-3.931-6.102c-13.046-20.253-7.205-47.247 13.047-60.294z"/><path d="m339.04 131.477-6.102 3.931 3.931 6.102c13.047 20.252 40.041 26.094 60.294 13.047l6.102-3.931-3.931-6.102c-13.047-20.253-40.042-26.094-60.294-13.047z"/><path d="m302.45 74.679-6.102 3.931 3.931 6.102c13.047 20.252 40.041 26.094 60.294 13.047l6.102-3.931-3.931-6.102c-13.047-20.253-40.042-26.094-60.294-13.047z"/></g></g></g><g><path d="m497.07 170.72c0-23.472-14.315-43.948-35.647-52.212.882-3.972 1.327-8.029 1.327-12.128 0-30.906-25.144-56.05-56.05-56.05-2.172 0-4.335.127-6.481.375-.423-8.865-3.157-17.504-8.093-25.164l-3.931-6.102c-2.243-3.483-6.887-4.485-10.366-2.243l-6.102 3.931c-1.092.703-2.135 1.453-3.155 2.223-8.62-5.14-18.395-7.84-28.604-7.84-11.864 0-23.163 3.656-32.605 10.435-2.267-3.071-4.812-5.939-7.613-8.576-3.015-2.838-7.761-2.696-10.603.321-2.839 3.016-2.694 7.763.321 10.602 3.856 3.629 7.071 7.824 9.558 12.468 1.12 2.093 3.166 3.532 5.514 3.88.367.054.734.081 1.099.081 1.975 0 3.887-.78 5.304-2.197 7.747-7.747 18.056-12.013 29.026-12.013 6.247 0 12.27 1.377 17.761 4.02-6.38 9.018-9.648 19.857-9.407 30.783-3.603-1.733-7.432-3.062-11.439-3.929-13.345-2.888-27.018-.406-38.496 6.989l-6.102 3.931c-3.482 2.243-4.486 6.884-2.243 10.366l3.931 6.102c7.395 11.479 18.817 19.391 32.163 22.279 3.631.786 7.284 1.174 10.913 1.174 9.629 0 19.071-2.739 27.378-8.036l9.01 13.986c-13.332-2.876-26.992-.392-38.46 6.996l-6.102 3.931c-3.482 2.243-4.486 6.885-2.243 10.367l3.931 6.102c9.763 15.155 26.242 23.423 43.056 23.421 9.402-.001 18.908-2.591 27.398-8.004l15.391 23.89c1.434 2.226 3.848 3.439 6.312 3.439 1.392 0 2.799-.387 4.055-1.196 3.482-2.243 4.486-6.885 2.243-10.367l-15.391-23.892c23.532-15.316 30.312-46.896 15.091-70.524l-3.931-6.102c-2.241-3.481-6.883-4.486-10.366-2.243l-6.103 3.931c-11.844 7.63-19.481 19.366-22.252 32.156l-9.029-14.016c10.765-7.005 18.358-17.567 21.572-29.932 2.656-.53 5.363-.803 8.091-.803 22.635 0 41.05 18.415 41.05 41.05 0 4.946-.885 9.808-2.631 14.451-.759 2.02-.611 4.268.404 6.172 1.017 1.903 2.804 3.277 4.904 3.77 18.631 4.369 31.643 20.796 31.643 39.948 0 19.055-12.925 35.465-31.432 39.907-2.447.588-4.438 2.364-5.298 4.73s-.476 5.006 1.023 7.028c5.257 7.094 8.036 15.53 8.036 24.395 0 12.041-5.372 23.242-14.075 30.892.195-1.738.305-3.501.305-5.289 0-25.978-21.135-47.113-47.113-47.113-4.183 0-8.332.561-12.337 1.646v-25.227c0-2.112-.891-4.125-2.452-5.547-1.561-1.421-3.651-2.118-5.753-1.92-1.735.164-3.449.247-5.095.247-25.141 0-46.935-18.715-50.694-43.533-.457-3.022-2.703-5.464-5.676-6.172-2.979-.71-6.079.458-7.851 2.948-8.542 12.008-22.415 19.177-37.109 19.177-18.043 0-34.401-10.677-41.676-27.202-.983-2.234-2.991-3.849-5.384-4.331-2.394-.482-4.871.231-6.641 1.91-7.416 7.031-17.118 10.903-27.319 10.903-1.868 0-3.736-.143-5.593-.407.514-.716 1.014-1.445 1.495-2.192l3.931-6.102c2.243-3.482 1.239-8.124-2.243-10.367l-6.102-3.931c-11.469-7.388-25.125-9.872-38.46-6.996l9.01-13.986c8.307 5.298 17.748 8.036 27.378 8.036 3.628 0 7.283-.388 10.913-1.174 13.347-2.888 24.77-10.8 32.164-22.279l3.931-6.102c2.243-3.482 1.239-8.123-2.243-10.366l-6.102-3.931c-15.492-9.981-34.404-10.5-49.909-3.043.089-3.997-.285-8.033-1.152-12.04-1.485-6.864-4.308-13.212-8.252-18.772 5.484-2.636 11.498-4.008 17.736-4.008 10.963 0 21.272 4.267 29.03 12.016 1.416 1.415 3.327 2.194 5.3 2.194.364 0 .731-.027 1.097-.081 2.347-.347 4.392-1.784 5.513-3.874 8.523-15.892 25.011-25.765 43.028-25.765 3.545 0 7.072.382 10.484 1.134 4.044.892 8.047-1.664 8.939-5.708.892-4.045-1.664-8.047-5.709-8.939-4.47-.987-9.084-1.487-13.714-1.487-20.476 0-39.439 9.752-51.366 25.947-9.449-6.78-20.746-10.437-32.604-10.437-10.209 0-19.984 2.7-28.604 7.84-1.024-.772-2.07-1.521-3.159-2.223l-6.102-3.931c-3.479-2.243-8.123-1.239-10.366 2.243l-3.931 6.102c-4.935 7.661-7.669 16.299-8.093 25.164-2.145-.248-4.306-.374-6.477-.374-30.906 0-56.05 25.144-56.05 56.05 0 4.106.442 8.162 1.32 12.127-21.327 8.263-35.641 28.74-35.641 52.213 0 22.611 13.33 42.497 33.41 51.299-3.782 7.651-5.75 16.059-5.75 24.761 0 23.741 15.297 45.105 37.521 52.901 4.798 6.718 11.307 12.126 18.892 15.584-5.483 11.548-6.432 24.89-2.353 37.262 4.197 12.732 13.103 23.064 25.077 29.093 10.922 5.5 23.205 6.818 34.958 3.81 3.598 6.425 8.475 12.069 14.303 16.56-7.095 12.292-8.688 27.011-4.147 40.747.86 2.609 1.928 5.131 3.191 7.55-19.326 12.864-35.787 30.025-47.833 50.394-1.372 2.318-1.395 5.194-.06 7.534 1.334 2.34 3.821 3.784 6.515 3.784h254.689c2.693 0 5.181-1.444 6.515-3.784 1.335-2.34 1.312-5.215-.06-7.534-12.046-20.369-28.506-37.53-47.833-50.394 1.263-2.418 2.33-4.938 3.189-7.544 4.543-13.743 2.947-28.462-4.151-40.752 5.831-4.491 10.709-10.133 14.309-16.559 11.742 3.008 24.032 1.691 34.958-3.812 11.974-6.029 20.88-16.362 25.076-29.093 4.079-12.373 3.131-25.715-2.352-37.263 7.584-3.458 14.093-8.866 18.888-15.584 22.224-7.793 37.522-29.157 37.522-52.901 0-8.71-1.966-17.118-5.747-24.762 20.083-8.802 33.416-28.687 33.416-51.298zm-167.759-74.329c-9.352-2.023-17.366-7.537-22.595-15.538 8.068-5.124 17.647-6.831 26.996-4.808 9.352 2.024 17.365 7.537 22.594 15.539-8.068 5.123-17.648 6.83-26.995 4.807zm13.996 41.26c8.068-5.124 17.644-6.83 26.996-4.808 9.35 2.023 17.363 7.535 22.592 15.534l.003.005c-16.654 10.572-38.799 5.779-49.591-10.731zm72.931-46.984c10.574 16.652 5.78 38.798-10.73 49.591-10.571-16.654-5.781-38.8 10.73-49.591zm-31.782-29.802c-2.023 9.351-7.537 17.365-15.539 22.594-10.571-16.652-5.779-38.798 10.731-49.591 5.124 8.07 6.831 17.646 4.808 26.997zm-168.797 93.262c11.023 17.119 30.117 27.763 50.891 27.763 14.632 0 28.649-5.343 39.534-14.727 3.881 9.987 10.17 18.979 18.392 26.111 11.61 10.072 26.361 15.781 41.704 16.174v66.112c0 55.658-45.281 100.94-100.939 100.94h-18.48c-55.664 0-100.95-45.281-100.95-100.94v-71.772c17.542-6.844 30.443-22.506 33.94-40.925 1.921.205 3.852.307 5.78.307 10.826 0 21.245-3.164 30.128-9.043zm-46.97-16.476c-5.229 8-13.243 13.515-22.594 15.539-9.347 2.024-18.927.316-26.996-4.808 5.229-8.001 13.243-13.515 22.595-15.538 9.35-2.024 18.927-.317 26.995 4.807zm-77.739-19.988c-2.023-9.351-.316-18.928 4.808-26.997 16.511 10.792 21.303 32.938 10.731 49.59-8.002-5.227-13.515-13.242-15.539-22.593zm114.331-36.81c-5.229 8.001-13.243 13.515-22.595 15.538-9.352 2.024-18.929.316-26.996-4.808 10.791-16.51 32.935-21.302 49.591-10.73zm-72.933-46.984c8.002 5.229 13.516 13.243 15.539 22.594s.316 18.928-4.808 26.997c-8.002-5.229-13.516-13.243-15.539-22.594s-.316-18.928 4.808-26.997zm-74.758 212.911c0-8.853 2.78-17.29 8.039-24.4 1.497-2.023 1.879-4.661 1.019-7.026-.861-2.365-2.85-4.14-5.297-4.727-18.5-4.443-31.421-20.853-31.421-39.907 0-19.153 13.008-35.581 31.632-39.948 2.102-.493 3.888-1.866 4.904-3.77 1.016-1.903 1.163-4.152.404-6.172-1.738-4.624-2.62-9.486-2.62-14.451 0-22.635 18.415-41.05 41.05-41.05 2.727 0 5.432.272 8.087.802 3.214 12.366 10.807 22.927 21.572 29.933l-9.029 14.015c-2.771-12.79-10.408-24.525-22.252-32.155l-6.102-3.931c-3.48-2.243-8.122-1.24-10.366 2.243l-3.931 6.102c-7.396 11.479-9.878 25.151-6.989 38.497 2.871 13.267 10.71 24.629 22.079 32.027l-15.392 23.892c-2.243 3.482-1.239 8.124 2.243 10.367 1.256.81 2.663 1.196 4.055 1.196 2.464 0 4.878-1.214 6.312-3.439l15.391-23.891c8.307 5.298 17.748 8.036 27.378 8.036 3.628 0 7.282-.388 10.913-1.174 5.505-1.191 10.676-3.25 15.379-6.049-3.3 13.983-14.103 25.506-28.289 29.328-3.273.882-5.549 3.851-5.549 7.242v28.543c-4.004-1.084-8.154-1.644-12.337-1.644-25.979 0-47.113 21.135-47.113 47.113 0 1.788.11 3.55.304 5.287-8.702-7.65-14.074-18.851-14.074-30.889zm28.769 25.602c0-17.707 14.406-32.113 32.113-32.113 4.25 0 8.447.842 12.337 2.457v16.768c-3.002-1.223-6.316-2.035-9.922-2.397-7.45-.749-13.556.675-14.228.839-4.009.984-6.451 5.018-5.486 9.032s5.014 6.488 9.028 5.544c.044-.01 4.471-1.032 9.545-.452 5.07.58 8.715 2.453 11.091 5.705.147 7.868 1.083 15.546 2.731 22.96-4.614 2.471-9.75 3.771-15.096 3.771-17.706 0-32.113-14.406-32.113-32.114zm94.722 165.654c-3.796-11.483-1.473-23.95 6.215-33.348 1.409-1.723 1.98-3.982 1.559-6.168s-1.791-4.071-3.74-5.147c-7.957-4.393-14.192-11.463-17.557-19.909-.741-1.86-2.195-3.347-4.039-4.129-1.843-.782-3.923-.795-5.775-.034-.892.365-1.688.664-2.414.906-8.928 2.947-18.468 2.242-26.859-1.984-8.394-4.226-14.636-11.468-17.577-20.392-3.152-9.559-2.037-19.951 2.913-28.569 1.536.152 3.092.233 4.667.233 6.781 0 13.337-1.424 19.369-4.155 12.967 35.385 42.717 62.742 79.559 72.39v41.419c-12.044 3.083-23.599 7.614-34.448 13.409-.72-1.461-1.359-2.963-1.873-4.522zm188.349 58.964h-226.869c6.815-9.333 14.729-17.74 23.507-25.069 12.211 4.012 24.754 7.235 37.343 9.573.463.086.923.127 1.378.127 3.543 0 6.695-2.522 7.365-6.132.756-4.073-1.933-7.987-6.005-8.743-8.359-1.552-16.698-3.516-24.923-5.859 13.781-8.694 29.077-15.013 45.243-18.473 3.459-.74 5.931-3.797 5.931-7.334v-44.479c4.706.584 9.498.889 14.359.889h18.48c4.858 0 9.646-.305 14.35-.888v44.478c0 3.537 2.472 6.594 5.931 7.334 16.17 3.461 31.468 9.782 45.251 18.479-31.106 8.877-63.223 12.119-95.679 9.629-4.129-.318-7.733 2.775-8.052 6.905-.316 4.13 2.775 7.735 6.905 8.052 7.453.572 14.889.857 22.302.857 30.47 0 60.53-4.836 89.673-14.415 8.78 7.329 16.694 15.736 23.51 25.069zm31.667-149.168c-2.941 8.924-9.184 16.166-17.576 20.392-8.393 4.226-17.932 4.931-26.837 1.992-.754-.251-1.55-.55-2.434-.913-1.853-.761-3.933-.749-5.777.032-1.844.782-3.299 2.269-4.04 4.13-3.364 8.447-9.603 15.517-17.564 19.908-1.95 1.075-3.321 2.962-3.742 5.149-.422 2.187.15 4.448 1.562 6.171 7.692 9.394 10.019 21.859 6.22 33.35-.513 1.556-1.151 3.057-1.869 4.517-10.849-5.795-22.405-10.326-34.448-13.409v-41.417c36.843-9.647 66.594-37.007 79.559-72.395 6.039 2.733 12.594 4.158 19.367 4.158 1.575 0 3.132-.081 4.668-.233 4.948 8.616 6.063 19.008 2.911 28.568zm-7.58-43.336c-5.336 0-10.471-1.301-15.095-3.774 1.646-7.41 2.582-15.083 2.73-22.946 2.375-3.258 6.022-5.135 11.098-5.716 5.02-.573 9.404.419 9.542.451 4.012.964 8.056-1.491 9.041-5.504.987-4.023-1.474-8.084-5.497-9.072-.67-.165-6.77-1.588-14.228-.839-3.609.362-6.925 1.175-9.929 2.4v-16.766c3.891-1.617 8.088-2.461 12.337-2.461 17.707 0 32.113 14.406 32.113 32.113s-14.405 32.114-32.112 32.114z"/><path d="m200.103 232.619c-7.235 0-13.122 8.065-13.122 17.979s5.887 17.979 13.122 17.979c7.236 0 13.123-8.065 13.123-17.979s-5.887-17.979-13.123-17.979z"/><path d="m311.894 232.619c-7.235 0-13.122 8.065-13.122 17.979s5.887 17.979 13.122 17.979c7.236 0 13.123-8.065 13.123-17.979s-5.887-17.979-13.123-17.979z"/><path d="m179.479 217.24c2.93 2.929 7.678 2.929 10.607 0 5.949-5.951 15.633-5.95 21.584 0 1.464 1.464 3.384 2.197 5.303 2.197s3.839-.732 5.304-2.197c2.929-2.929 2.929-7.678-.001-10.606-11.799-11.798-30.998-11.8-42.797 0-2.928 2.928-2.928 7.677 0 10.606z"/><path d="m301.458 217.24c2.882-2.883 6.715-4.47 10.791-4.47s7.909 1.587 10.791 4.47c1.465 1.465 3.384 2.197 5.304 2.197 1.919 0 3.839-.732 5.304-2.197 2.929-2.929 2.929-7.678 0-10.607-5.716-5.716-13.315-8.864-21.398-8.864s-15.683 3.148-21.398 8.864c-2.929 2.929-2.929 7.678 0 10.607 2.928 2.929 7.676 2.929 10.606 0z"/><path d="m255.998 303.245c13.866 0 26.302-9.265 30.24-22.531 1.18-3.971-1.084-8.146-5.055-9.324-3.968-1.181-8.146 1.084-9.324 5.055-2.063 6.948-8.586 11.801-15.861 11.801-7.267 0-13.79-4.856-15.863-11.809-1.185-3.969-5.359-6.229-9.331-5.044-3.969 1.184-6.228 5.361-5.044 9.331 3.955 13.259 16.388 22.521 30.238 22.521z"/></g></g></svg>