<?xml version="1.0"?>
<svg width="511.995" height="511.995" xmlns="http://www.w3.org/2000/svg" xmlns:svg="http://www.w3.org/2000/svg">
 <g class="layer">
  <title>Layer 1</title>
  <g id="svg_1">
   <g id="svg_2">
    <path d="m50.401,234.839l27.934,0l0,244.288l-27.934,0l0,-244.288z" fill="#365e7d" id="svg_3"/>
    <path d="m50.401,234.839l13.257,0l0,244.288l-13.257,0l0,-244.288z" fill="#2b4d66" id="svg_4"/>
    <path d="m66.921,442.263l-5.105,0c-12.382,0 -22.42,10.038 -22.42,22.42l0,18.393c0,12.382 10.038,22.42 22.42,22.42l5.105,0c12.382,0 22.42,-10.038 22.42,-22.42l0,-18.393c-0.001,-12.383 -10.038,-22.42 -22.42,-22.42z" fill="#492717" id="svg_5"/>
    <path d="m74.837,504.05c-2.459,0.93 -5.129,1.44 -7.918,1.44l-5.109,0c-12.377,0 -22.414,-10.037 -22.414,-22.414l0,-18.396c0,-12.377 10.037,-22.414 22.414,-22.414l5.109,0c2.789,0 5.459,0.51 7.918,1.44c-8.468,3.199 -14.496,11.387 -14.496,20.975l0,18.395c0,9.587 6.028,17.775 14.496,20.974z" fill="#35170a" id="svg_6"/>
    <path d="m84.895,171.248l-41.054,0l0,64.389c0,5.209 4.223,9.432 9.432,9.432l22.19,0c5.209,0 9.432,-4.223 9.432,-9.432l0,-64.389z" fill="#ede6e3" id="svg_7"/>
    <path d="m68.471,245.07l-18.066,0c-5.209,0 -9.428,-4.219 -9.428,-9.438l0,-64.384l18.065,0l0,64.384c0.001,5.219 4.22,9.438 9.429,9.438z" fill="#d8cec9" id="svg_8"/>
    <path d="m102.241,161.243l-12.733,32.91c-0.699,1.806 -2.436,2.997 -4.373,2.997l-41.533,0c-1.937,0 -3.674,-1.191 -4.373,-2.997l-12.733,-32.91c-2.843,-7.349 -2.927,-15.479 -0.236,-22.884l28.042,-77.179c3.417,-9.404 16.717,-9.404 20.133,0l28.042,77.179c2.691,7.405 2.607,15.535 -0.236,22.884z" fill="#ede6e3" id="svg_9"/>
    <path d="m64.359,54.129c-1.44,0.01 -2.869,2.359 -3.459,7.048l-9.648,77.181c-0.93,7.408 -0.9,15.536 0.08,22.884l4.379,32.912c0.24,1.81 0.84,2.999 1.51,2.999l-13.626,0c-1.93,0 -3.669,-1.19 -4.369,-2.999l-12.737,-32.912c-2.839,-7.348 -2.929,-15.476 -0.23,-22.884l28.033,-77.181c1.71,-4.698 5.888,-7.048 10.067,-7.048z" fill="#d8cec9" id="svg_10"/>
    <g id="svg_11">
     <path d="m421.154,505.495l-254.636,0c13.037,-22.044 31.632,-40.4 53.856,-53.147l146.923,0c22.225,12.747 40.82,31.103 53.857,53.147z" fill="#ede6e3" id="svg_12"/>
     <path d="m367.295,452.348l-2.719,2.719c-35.201,30.072 -84.779,34.161 -123.889,12.257c-6.158,-3.429 -12.057,-7.528 -17.595,-12.257l-2.719,-2.719c13.007,-7.468 27.263,-13.017 42.379,-16.246l0,-53.876l62.174,0l0,53.876c15.106,3.23 29.362,8.778 42.369,16.246z" fill="#492717" id="svg_13"/>
     <path d="m276.425,382.223l0,53.877c-13.417,5.129 -25.614,16.046 -35.741,31.222c-6.158,-3.429 -12.057,-7.528 -17.596,-12.257l-2.719,-2.719c13.007,-7.468 27.263,-13.017 42.379,-16.246l0,-53.876l13.677,0l0,-0.001z" fill="#35170a" id="svg_14"/>
     <path d="m324.925,382.226l0,22.174c-7.048,1.43 -14.336,2.179 -21.805,2.179l-18.565,0c-7.468,0 -14.756,-0.75 -21.805,-2.179l0,-22.174l62.175,0z" fill="#35170a" id="svg_15"/>
     <path d="m240.689,467.325c-7.198,10.767 -13.357,23.674 -18.155,38.17l-56.016,0c13.037,-22.044 31.632,-40.4 53.856,-53.147l2.719,2.719c5.539,4.73 11.438,8.829 17.596,12.258z" fill="#d8cec9" id="svg_16"/>
     <g id="svg_17">
      <g id="svg_18">
       <circle cx="368.577" cy="455.062" fill="#ffc250" id="svg_19" r="23.824997"/>
       <path d="m378.503,476.736c-3.019,1.39 -6.378,2.159 -9.918,2.159c-13.167,0 -23.834,-10.667 -23.834,-23.834c0,-13.157 10.667,-23.824 23.834,-23.824c3.539,0 6.898,0.77 9.918,2.159c-8.208,3.749 -13.917,12.047 -13.917,21.665c0,9.628 5.709,17.916 13.917,21.675z" fill="#e7a52e" id="svg_20"/>
      </g>
      <g id="svg_21">
       <circle cx="219.095" cy="455.062" fill="#ffc250" id="svg_22" r="23.824997"/>
       <path d="m229.021,476.736c-3.019,1.39 -6.378,2.159 -9.917,2.159c-13.167,0 -23.834,-10.667 -23.834,-23.834c0,-13.157 10.667,-23.824 23.834,-23.824c3.539,0 6.898,0.77 9.917,2.159c-8.208,3.749 -13.916,12.047 -13.916,21.665c-0.001,9.628 5.708,17.916 13.916,21.675z" fill="#e7a52e" id="svg_23"/>
      </g>
     </g>
     <path d="m150.946,179.52l285.265,0l0,91.758l-285.265,0l0,-91.758z" fill="#365e7d" id="svg_24"/>
     <g fill="#ffcbbe" id="svg_25">
      <circle cx="157.001" cy="273.44" fill="#35170a" id="svg_26" r="39.604004"/>
      <circle cx="431.977" cy="273.44" fill="#35170a" id="svg_27" r="39.604004"/>
     </g>
     <path d="m451.249,71.826c1.27,-4.104 1.955,-8.466 1.955,-12.987c0,-24.237 -19.648,-43.884 -43.884,-43.884c-9.075,0 -17.507,2.755 -24.504,7.474c-4.392,-8.286 -13.101,-13.933 -23.132,-13.933c-14.453,0 -26.169,11.716 -26.169,26.169s11.716,26.169 26.169,26.169c1.29,0 2.556,-0.097 3.796,-0.277c0.787,20.413 15.507,37.252 34.927,41.259c-1.448,4.403 -2.242,9.103 -2.242,13.991c0,24.723 20.042,44.764 44.764,44.764c24.723,0 44.765,-20.042 44.765,-44.764c-0.002,-21.879 -15.701,-40.08 -36.445,-43.981z" fill="#e04b66" id="svg_28"/>
     <path d="m439.017,178.537l-289.047,0l0.65,-5.149l4.249,-33.752l2.649,-21.035c5.109,-40.55 33.702,-74.261 72.872,-85.918l64.104,-19.065l64.094,19.065c39.18,11.657 67.763,45.369 72.882,85.918l2.649,21.035l4.249,33.752l0.649,5.149z" fill="#ffc250" id="svg_29"/>
     <path d="m294.5,13.617l-35.211,19.065c-21.515,11.657 -37.221,45.369 -40.03,85.918l-4.149,59.935l-65.144,0l7.558,-59.935c5.109,-40.55 33.702,-74.261 72.872,-85.918l64.104,-19.065z" fill="#e7a52e" id="svg_30"/>
     <path d="m438.368,173.389l-139.655,-44.389c-2.749,-0.87 -5.699,-0.87 -8.448,0l-21.545,6.848l-29.543,9.388l-88.558,28.153l4.249,-33.752l69.812,-32.652l23.204,-10.857l40.7,-19.035c3.739,-1.75 8.068,-1.75 11.807,0l133.726,62.544l4.251,33.752z" fill="#e7a52e" id="svg_31"/>
     <path d="m411.234,168.03l0,108.583c0,50.597 -34.671,93.106 -81.549,105.063l-0.01,0c-8.588,2.19 -17.586,3.349 -26.853,3.349l-18.475,0c-59.875,0 -108.423,-48.538 -108.423,-108.413l0,-108.592c6.478,5.464 109.872,-10.018 117.66,-30.692c10.617,28.173 110.538,36.7 117.65,30.702z" fill="#365e7d" id="svg_32"/>
     <path d="m329.675,381.676c-8.588,2.19 -17.586,3.349 -26.853,3.349l-18.475,0c-59.875,0 -108.423,-48.538 -108.423,-108.413l0,-108.592c6.478,5.464 13.902,9.843 21.989,12.856c8.088,3.013 16.841,32.13 25.978,32.13c8.488,0 16.636,-1.42 24.244,-4.039l0,67.646c0.001,50.597 34.672,93.096 81.54,105.063z" fill="#2b4d66" id="svg_33"/>
     <path d="m386.856,181.727l0,81.2c0,20.945 -22.324,34.321 -40.79,24.444l-1.939,-1.04c-29.883,-15.976 -65.444,-16.836 -95.946,-2.569c-1.73,0.81 -3.439,1.66 -5.139,2.569l-1.949,1.04c-18.465,9.878 -40.78,-3.499 -40.78,-24.444l0,-81.21c7.408,2.479 15.336,3.819 23.584,3.819c8.498,0 16.666,-1.43 24.284,-4.049c20.925,-7.218 37.62,-23.504 45.409,-44.159c10.617,28.173 37.811,48.208 69.692,48.208c8.237,0 16.166,-1.33 23.574,-3.809z" fill="#492717" id="svg_34" transform="matrix(1, 0, 0, 1, 0, 0)"/>
     <path d="m248.181,181.487l0,102.274c-1.73,0.81 -3.439,1.66 -5.139,2.569l-1.949,1.04c-18.465,9.878 -40.78,-3.499 -40.78,-24.444l0,-81.21c7.408,2.479 15.336,3.819 23.584,3.819c8.498,0.001 16.665,-1.429 24.284,-4.048z" fill="#35170a" id="svg_35"/>
     <path d="m305.696,8.62l-22.412,0c-4.828,0 -8.742,3.914 -8.742,8.742l0,93.34l39.895,0l0,-93.34c0.001,-4.828 -3.913,-8.742 -8.741,-8.742z" fill="#ffc250" id="svg_36"/>
     <path d="m305.696,8.62l-22.412,0c-4.828,0 -8.742,3.914 -8.742,8.742l0,93.34l39.895,0l0,-93.34c0.001,-4.828 -3.913,-8.742 -8.741,-8.742z" fill="#e7a52e" id="svg_37"/>
     <path d="m463.951,181.407c0,9.438 -9.178,16.146 -18.165,13.287l-147.073,-46.748c-2.749,-0.87 -5.699,-0.87 -8.448,0l-21.545,6.848l-29.543,9.388l-95.986,30.512c-1.42,0.45 -2.849,0.67 -4.249,0.67c-7.408,0 -13.907,-6.019 -13.907,-13.957c0,-5.409 3.129,-10.337 8.028,-12.627l91.617,-42.849l23.204,-10.857l40.7,-19.035c3.739,-1.75 8.068,-1.75 11.807,0l155.521,72.742c2.459,1.14 4.459,2.949 5.859,5.139c1.4,2.198 2.18,4.777 2.18,7.487z" fill="#ffc250" id="svg_38"/>
     <path d="m239.178,164.181l-95.986,30.512c-1.42,0.45 -2.849,0.67 -4.249,0.67c-7.408,0 -13.907,-6.019 -13.907,-13.957c0,-5.409 3.129,-10.337 8.028,-12.627l91.617,-42.849c-10.647,4.979 -14.946,17.866 -9.408,28.233c3.639,6.828 10.687,10.857 18.105,10.857c1.921,0.001 3.88,-0.269 5.8,-0.839z" fill="#e7a52e" id="svg_39"/>
    </g>
   </g>
   <g id="svg_40">
    <path d="m92.395,234.638l0,-33.417c1.812,-1.346 3.264,-3.184 4.107,-5.362l12.733,-32.91c3.499,-9.042 3.602,-19.04 0.291,-28.152l-28.042,-77.179c-2.646,-7.285 -9.365,-11.992 -17.115,-11.992c-7.75,0 -14.469,4.707 -17.116,11.992l-28.043,77.179c-3.311,9.112 -3.208,19.11 0.291,28.152l12.734,32.91c0.843,2.178 2.294,4.015 4.106,5.362l0,33.417c0,5.429 2.579,10.257 6.564,13.357l0,192.522c-6.714,5.491 -11.009,13.835 -11.009,23.166l0,18.393c0,16.498 13.422,29.92 29.919,29.92l5.105,0c16.498,0 29.919,-13.422 29.919,-29.92l0,-18.393c0,-9.327 -4.292,-17.668 -11.002,-23.16l0,-192.533c3.983,-3.101 6.558,-7.926 6.558,-13.352zm-39.122,1.932c-1.065,0 -1.932,-0.866 -1.932,-1.932l0,-30.988l26.054,0l0,30.988c0,1.065 -0.867,1.932 -1.932,1.932l-22.19,0zm-19.783,-79.034c-2.189,-5.658 -2.254,-11.915 -0.182,-17.617l28.042,-77.179c0.668,-1.84 2.177,-2.114 3.018,-2.114c0.84,0 2.349,0.275 3.017,2.114l28.042,77.179c2.072,5.702 2.007,11.959 -0.182,17.617l-12.037,31.114l-37.68,0l-12.038,-31.114zm48.35,324.539c0,8.227 -6.693,14.92 -14.919,14.92l-5.105,0c-8.227,0 -14.919,-6.693 -14.919,-14.92l0,-18.393c0,-8.227 6.693,-14.919 14.919,-14.919l5.105,0c8.227,0 14.919,6.693 14.919,14.919l0,18.393zm-14.919,-48.312l-5.105,0c-1.326,0 -2.629,0.096 -3.91,0.264l0,-182.457l12.933,0l0,182.458c-1.284,-0.169 -2.59,-0.265 -3.918,-0.265z" id="svg_41"/>
    <path d="m495.195,114.803c0,-22.489 -14.35,-42.155 -35.055,-49.352c0.375,-2.512 0.563,-5.056 0.563,-7.614c0,-28.33 -23.053,-51.379 -51.389,-51.379c-7.785,0 -15.363,1.734 -22.269,5.059c-6.308,-7.238 -15.491,-11.517 -25.358,-11.517c-11.954,0 -22.778,6.302 -28.781,16.217l-11.364,-3.382c-1.615,-7.264 -8.099,-12.715 -15.842,-12.715l-22.414,0c-7.751,0 -14.243,5.457 -15.854,12.726l-39.182,11.65c-42.009,12.502 -72.694,48.681 -78.173,92.169l-4.672,37.064l-15.518,7.259c-7.506,3.511 -12.355,11.134 -12.355,19.42c0,6.915 3.201,13.222 8.782,17.305c5.015,3.668 11.16,4.952 17.136,3.657l0,25.96c-19.388,5.833 -33.555,23.842 -33.555,45.106c0,6.483 1.302,12.773 3.869,18.694c1.227,2.829 3.986,4.518 6.885,4.518c0.996,0 2.008,-0.2 2.979,-0.621c3.8,-1.648 5.545,-6.064 3.897,-9.865c-1.746,-4.026 -2.631,-8.308 -2.631,-12.726c0,-17.7 14.4,-32.1 32.1,-32.1c3.974,0 7.8,0.707 11.428,2.092l0,16.751c-11.018,-4.076 -22.541,-1.358 -23.239,-1.187c-4.009,0.986 -6.449,5.021 -5.483,9.034c0.966,4.014 5.016,6.488 9.03,5.541c0.139,-0.032 13.085,-2.976 19.706,4.139c0.078,8.406 1.052,16.6 2.837,24.492c-4.393,2.194 -9.25,3.337 -14.279,3.337c-4.287,0 -8.442,-0.828 -12.349,-2.46c-3.822,-1.597 -8.215,0.207 -9.812,4.029s0.207,8.215 4.028,9.812c5.748,2.402 11.849,3.62 18.132,3.62c6.482,0 12.772,-1.307 18.587,-3.811c13.06,35.294 42.837,62.549 79.671,72.103l0,41.333c-4.356,1.114 -8.67,2.433 -12.917,3.923c-5.737,-6.35 -14.031,-10.348 -23.242,-10.348c-17.273,0 -31.325,14.052 -31.325,31.325c0,3.67 0.64,7.192 1.805,10.467c-11.616,10.52 -21.532,22.655 -29.512,36.149c-1.371,2.319 -1.394,5.194 -0.059,7.534c1.334,2.34 3.821,3.784 6.515,3.784l254.636,0c2.693,0 5.18,-1.444 6.515,-3.784c1.334,-2.34 1.312,-5.215 -0.059,-7.534c-7.98,-13.494 -17.895,-25.628 -29.512,-36.149c1.165,-3.275 1.805,-6.797 1.805,-10.467c0,-17.273 -14.052,-31.325 -31.325,-31.325c-9.211,0 -17.505,3.998 -23.242,10.348c-4.243,-1.489 -8.554,-2.807 -12.907,-3.922l0,-41.466c37.594,-9.906 66.75,-37.595 79.409,-72.665c6.248,2.965 13.075,4.508 20.136,4.508c25.973,0 47.103,-21.13 47.103,-47.103c0,-21.923 -15.054,-40.395 -35.368,-45.623l0,-25.919c2.104,0.648 4.246,0.974 6.368,0.974c4.467,0 8.845,-1.415 12.591,-4.155c5.582,-4.083 8.782,-10.39 8.782,-17.305c0,-6.855 -3.325,-13.248 -8.721,-17.243c19.03,-7.82 32.468,-26.547 32.468,-48.362zm-211.908,-99.683l22.414,0c0.683,0 1.238,0.555 1.238,1.238l0,73.458l-3.364,-1.574c-5.772,-2.7 -12.395,-2.701 -18.168,0l-3.368,1.575l0,-73.46c0,-0.682 0.56,-1.237 1.248,-1.237zm-118.328,103.42c4.736,-37.59 31.259,-68.861 67.568,-79.667l34.511,-10.261l0,68.222l-105.568,49.38l3.489,-27.674zm-6.509,106.841l0,-28.667l9.974,-3.17l0,33.203c-3.258,-0.812 -6.605,-1.262 -9.974,-1.366zm60.644,212.355c9.002,0 16.326,7.323 16.326,16.325s-7.324,16.325 -16.326,16.325s-16.325,-7.323 -16.325,-16.325s7.323,-16.325 16.325,-16.325zm188.155,59.259l-226.826,0c5.207,-7.137 11.083,-13.756 17.56,-19.813c5.573,5.093 12.985,8.205 21.112,8.205c9.007,0 17.133,-3.826 22.853,-9.933c16.277,8.105 34.08,12.17 51.888,12.17s35.611,-4.065 51.888,-12.17c5.72,6.106 13.846,9.933 22.853,9.933c8.127,0 15.539,-3.112 21.112,-8.205c6.477,6.058 12.353,12.676 17.56,19.813zm-38.672,-59.259c9.002,0 16.325,7.323 16.325,16.325s-7.323,16.325 -16.325,16.325s-16.326,-7.323 -16.326,-16.325s7.324,-16.325 16.326,-16.325zm-30.394,8.75c-0.605,2.427 -0.932,4.964 -0.932,7.576c0,2.875 0.397,5.657 1.125,8.303c-27.998,13.688 -61.084,13.688 -89.082,0c0.728,-2.646 1.125,-5.428 1.125,-8.303c0,-2.612 -0.326,-5.149 -0.932,-7.576c4.873,-1.62 9.836,-2.981 14.833,-4.049c3.459,-0.74 5.932,-3.796 5.932,-7.334l0,-44.435c4.621,0.562 9.323,0.858 14.093,0.858l18.476,0c4.897,0 9.777,-0.308 14.606,-0.915l0,44.492c0,3.537 2.471,6.593 5.93,7.334c4.995,1.069 9.956,2.429 14.826,4.049zm-10.177,-73.122c-0.062,0.014 -0.123,0.029 -0.184,0.044c-8.111,2.068 -16.523,3.117 -25,3.117l-18.476,0c-55.649,0 -100.923,-45.269 -100.923,-100.913l0,-86.836l9.384,-2.983l0,76.132c0,12.498 6.399,23.793 17.117,30.215c10.717,6.422 23.693,6.736 34.715,0.839l1.92,-1.029c1.554,-0.827 3.125,-1.611 4.803,-2.396c28.304,-13.238 61.662,-12.345 89.225,2.386l1.945,1.042c5.25,2.809 10.944,4.207 16.627,4.207c6.243,0 12.473,-1.688 18.083,-5.049c10.718,-6.422 17.117,-17.717 17.117,-30.215l0,-76.708l9.374,2.979l0,87.416c0.002,46.123 -31.128,86.294 -75.727,97.752zm-120.198,-182.91c5.273,1.052 10.656,1.582 16.094,1.582c9.131,0 18.122,-1.5 26.731,-4.459c17.835,-6.156 33.016,-18.32 42.96,-34.373c14.884,24.029 41.313,38.832 69.694,38.832c5.439,0 10.816,-0.527 16.074,-1.573l0,71.463c0,7.176 -3.673,13.661 -9.827,17.348c-6.152,3.686 -13.6,3.866 -19.92,0.486l-1.947,-1.044c-16.79,-8.974 -35.442,-13.484 -54.114,-13.484c-16.601,0 -33.22,3.568 -48.546,10.737c-1.914,0.896 -3.71,1.793 -5.512,2.752l-1.934,1.037c-6.325,3.383 -13.774,3.203 -19.925,-0.483c-6.153,-3.687 -9.827,-10.172 -9.827,-17.348l0,-71.473l-0.001,0zm155.479,-13.418c-15.671,0 -30.613,-5.529 -42.408,-15.172l47.183,14.996c-1.584,0.11 -3.175,0.176 -4.775,0.176zm-117.54,-3.642c-7.028,2.417 -14.378,3.642 -21.846,3.642c-1.091,0 -2.179,-0.035 -3.264,-0.087l44.52,-14.15c-5.804,4.552 -12.348,8.158 -19.41,10.595zm172.988,53.859l0,-34.288l9.974,3.17l0,29.317c-3.389,0.234 -6.73,0.852 -9.974,1.801zm45.341,45.183c0,17.702 -14.401,32.103 -32.103,32.103c-5.646,0 -11.063,-1.468 -15.889,-4.231c1.479,-6.814 2.346,-13.833 2.572,-20.988c0.013,-0.022 0.029,-0.041 0.042,-0.064c2.305,-4.144 6.233,-6.48 12.008,-7.141c5.013,-0.573 9.399,0.418 9.539,0.451c4.015,0.969 8.056,-1.491 9.041,-5.504c0.987,-4.023 -1.473,-8.084 -5.496,-9.072c-0.671,-0.165 -6.772,-1.587 -14.225,-0.839c-3.973,0.399 -7.595,1.339 -10.831,2.781l0,-16.73c4.142,-1.874 8.657,-2.87 13.238,-2.87c17.702,0 32.104,14.402 32.104,32.104zm-10.264,-86.831c-1.676,1.226 -3.772,1.569 -5.753,0.939l-147.075,-46.744c-4.248,-1.35 -8.739,-1.35 -12.987,0l-147.075,46.744c-1.979,0.629 -4.076,0.287 -5.752,-0.939s-2.638,-3.121 -2.638,-5.198c0,-2.489 1.457,-4.779 3.711,-5.833l155.519,-72.745c0.867,-0.406 1.798,-0.608 2.729,-0.608s1.862,0.203 2.729,0.608l155.519,72.745c2.255,1.054 3.711,3.344 3.711,5.833c-0.001,2.078 -0.962,3.972 -2.638,5.198zm-10.444,-33.544l-4.462,-35.394c-2.188,-17.362 -8.562,-34.16 -18.432,-48.578c-2.34,-3.418 -7.007,-4.293 -10.425,-1.953s-4.292,7.007 -1.953,10.425c8.528,12.459 14.036,26.976 15.928,41.982l3.488,27.672l-105.573,-49.383l0,-68.228l34.506,10.269c12.104,3.605 23.198,9.457 32.973,17.394c1.39,1.129 3.062,1.678 4.723,1.678c2.181,0 4.344,-0.947 5.827,-2.772c2.611,-3.216 2.121,-7.939 -1.095,-10.55c-11.311,-9.185 -24.146,-15.956 -38.148,-20.126l-12.526,-3.728c3.444,-3.599 8.27,-5.769 13.488,-5.769c6.929,0 13.25,3.807 16.496,9.937c0.996,1.88 2.743,3.249 4.807,3.766c2.062,0.516 4.25,0.132 6.014,-1.057c6.002,-4.047 13.026,-6.187 20.311,-6.187c20.065,0 36.389,16.32 36.389,36.379c0,3.668 -0.546,7.29 -1.624,10.767c-0.633,2.043 -0.364,4.259 0.74,6.09c1.104,1.832 2.937,3.105 5.039,3.5c17.578,3.304 30.336,18.7 30.336,36.608c0,20.402 -16.48,37.019 -36.827,37.258z" id="svg_42"/>
    <path d="m238.608,232.683c-7.234,0 -13.12,8.063 -13.12,17.975s5.885,17.974 13.12,17.974c7.234,0 13.119,-8.063 13.119,-17.974s-5.886,-17.975 -13.119,-17.975z" id="svg_43"/>
    <ellipse cx="350.37" cy="250.657" id="svg_44" rx="13.12" ry="17.974"/>
    <path d="m228.595,217.309c2.881,-2.882 6.713,-4.469 10.788,-4.469s7.906,1.587 10.788,4.469c1.464,1.464 3.384,2.197 5.303,2.197s3.839,-0.732 5.303,-2.197c2.929,-2.929 2.929,-7.678 0,-10.607c-5.715,-5.715 -13.313,-8.862 -21.395,-8.862s-15.68,3.147 -21.394,8.862c-2.929,2.929 -2.929,7.678 0,10.607s7.678,2.929 10.607,0z" id="svg_45"/>
    <path d="m339.938,217.309c2.881,-2.882 6.713,-4.469 10.788,-4.469s7.906,1.587 10.788,4.469c1.464,1.464 3.384,2.197 5.303,2.197s3.839,-0.732 5.303,-2.197c2.929,-2.929 2.929,-7.678 0,-10.607c-5.715,-5.715 -13.313,-8.862 -21.395,-8.862s-15.68,3.147 -21.394,8.862c-2.929,2.929 -2.929,7.678 0,10.607s7.678,2.929 10.607,0z" id="svg_46"/>
    <path d="m319.668,291.437c-3.971,-1.179 -8.146,1.084 -9.325,5.055c-2.062,6.946 -8.582,11.797 -15.854,11.797c-7.264,0 -13.785,-4.854 -15.857,-11.805c-1.184,-3.97 -5.361,-6.228 -9.331,-5.044c-3.969,1.184 -6.228,5.361 -5.044,9.33c3.954,13.259 16.386,22.519 30.232,22.519c13.863,0 26.296,-9.263 30.234,-22.527c1.179,-3.971 -1.084,-8.146 -5.055,-9.325z" id="svg_47"/>
   </g>
  </g>
 </g>

</svg>