<?xml version="1.0"?>
<svg width="511.999" height="511.999" xmlns="http://www.w3.org/2000/svg" xmlns:svg="http://www.w3.org/2000/svg">

 <g class="layer">
  <title>Layer 1</title>
  <g id="svg_1">
   <g id="svg_2">
    <g id="svg_3">
     <path d="m114.755,386.16l11.242,-0.903l36.961,55.883l-17.888,1.438c-9.332,0.75 -18.334,-3.633 -23.499,-11.442l-16.54,-25.007c-5.413,-8.188 -0.06,-19.183 9.724,-19.969z" fill="#698ed5" id="svg_4"/>
     <path d="m131.228,375.264l-5.231,9.992l36.961,55.883l8.323,-15.899c4.342,-8.294 3.831,-18.294 -1.333,-26.102l-16.54,-25.007c-5.415,-8.187 -17.627,-7.563 -22.18,1.133z" fill="#4073c8" id="svg_5"/>
    </g>
    <g id="svg_6">
     <path d="m354.455,490.965l-204.18,0c9.397,-15.881 -0.512,-16.318 13.931,-27.657c17.342,-13.617 37.804,-23.439 60.142,-28.219l0,-53.89l62.19,0l0,53.89c22.407,4.796 42.929,14.668 60.308,28.356c14.365,11.315 -1.75,11.703 7.609,27.52z" fill="#cea146" id="svg_7"/>
     <path d="m238.028,381.199l0,53.89c-18.207,6.956 -34.189,24.592 -45.797,49.059c-3.011,6.347 -42.468,-9.5 -28.025,-20.84c17.342,-13.617 37.804,-23.439 60.142,-28.219l0,-53.89l13.68,0z" fill="#b28731" id="svg_8" transform="matrix(1, 0, 0, 1, 0, 0)"/>
     <path d="m286.533,381.199l0,24.61c-7.05,1.43 -14.34,2.18 -21.81,2.18l-18.57,0c-7.47,0 -14.76,-0.75 -21.81,-2.18l0,-24.61l62.19,0z" fill="#b28731" id="svg_9" transform="matrix(1, 0, 0, 1, 0, 0)"/>
     <path d="m382.782,504.499l-254.69,0c9.37,-15.86 21.63,-29.82 36.05,-41.15l0.37,0.35c11.06,3.79 22.29,6.86 33.64,9.22c49.13,10.25 100.33,7.17 148.21,-9.22l0.48,-0.25c14.371,11.31 26.581,25.23 35.94,41.05z" fill="#b3e59f" id="svg_10"/>
     <path d="m198.153,472.919c-5.45,9.31 -10.17,19.93 -14.04,31.58l-56.02,0c9.37,-15.86 21.63,-29.82 36.05,-41.15l0.37,0.35c11.06,3.79 22.289,6.86 33.64,9.22z" fill="#95d6a4" id="svg_11"/>
     <path d="m430.238,132.064c1.199,-3.833 1.847,-7.91 1.847,-12.139c0,-19.388 -13.592,-35.592 -31.765,-39.629c-1.95,-40.532 -35.425,-72.798 -76.44,-72.798c-14.771,0 -28.561,4.188 -40.252,11.439c-7.247,-6.733 -16.953,-10.857 -27.626,-10.857s-20.378,4.124 -27.626,10.857c-11.692,-7.251 -25.481,-11.439 -40.252,-11.439c-41.016,0 -74.491,32.265 -76.44,72.798c-18.172,4.037 -31.765,20.241 -31.765,39.629c0,4.228 0.648,8.305 1.847,12.139c-21.113,13.619 -35.097,37.334 -35.097,64.329c0,42.269 34.266,76.535 76.535,76.535l265.596,0c42.269,0 76.535,-34.266 76.535,-76.535c0,-26.996 -13.984,-50.71 -35.097,-64.329z" fill="#9d6b6b" id="svg_12"/>
     <path d="m254.55,272.927l-131.347,0c-42.268,0 -76.541,-34.263 -76.541,-76.531c0,-26.998 13.989,-50.713 35.103,-64.333c-1.201,-3.832 -1.851,-7.915 -1.851,-12.138c0,-19.393 13.589,-35.594 31.771,-39.626c1.941,-40.537 35.423,-72.798 76.441,-72.798c14.77,0 28.559,4.183 40.247,11.437c7.245,-6.734 16.951,-10.857 27.628,-10.857c0.58,0 1.151,0.01 1.721,0.04c-9.506,13.179 -15.39,29.149 -16.231,46.441c-20.604,4.573 -36.004,22.945 -36.004,44.92c0,4.793 0.73,9.416 2.091,13.759c-23.936,15.44 -39.786,42.328 -39.786,72.928c0.001,47.912 38.847,86.758 86.758,86.758z" fill="#8b5e5e" id="svg_13"/>
     <g fill="#ffcbbe" id="svg_14" transform="matrix(1, 0, 0, 1, 0, 0)">
      <circle cx="118.388" cy="272.231" fill="#b28731" id="svg_15" r="39.64"/>
      <circle cx="393.616" cy="272.231" fill="#b28731" id="svg_16" r="39.64"/>
     </g>
     <path d="m373.762,196.255l0,79.152c0,59.93 -48.582,108.512 -108.512,108.512l-18.492,0c-59.93,0 -108.522,-48.582 -108.522,-108.512l0,-79.152c4.353,1.461 9.016,2.262 13.859,2.262c20.604,0 37.835,-14.409 42.188,-33.692c7.245,5.474 16.271,8.726 26.047,8.726c14.81,0 27.869,-7.445 35.674,-18.782c7.795,11.338 20.854,18.782 35.663,18.782c9.776,0 18.802,-3.252 26.047,-8.726c4.353,19.283 21.584,33.692 42.188,33.692c4.844,-0.001 9.507,-0.801 13.86,-2.262z" fill="#cea146" id="svg_17" transform="matrix(1, 0, 0, 1, 0, 0)"/>
     <path d="m288.535,381.407c-7.495,1.651 -15.29,2.512 -23.285,2.512l-18.492,0c-59.93,0 -108.522,-48.582 -108.522,-108.512l0,-79.152c4.353,1.461 9.016,2.262 13.859,2.262c20.604,0 37.835,-14.409 42.188,-33.692c2.762,2.081 5.794,3.852 9.016,5.233l0,105.35c0,51.933 36.494,95.352 85.236,105.999z" fill="#b28731" id="svg_18" transform="matrix(1, 0, 0, 1, 0, 0)"/>
     <g id="svg_19">
      <path d="m373.677,162.16c-48.25,-41.21 -112.73,-53.09 -170.339,-35.62c-23.3,7.07 -45.48,18.95 -65.01,35.62c5.26,-31.98 31.65,-60.64 65.01,-75.64c16.43,-7.4 34.54,-11.47 52.66,-11c54.909,-1.43 109.819,38.91 117.679,86.64z" fill="#ffc250" id="svg_20"/>
      <path d="m203.337,86.52l0,40.02c-23.3,7.07 -45.48,18.95 -65.01,35.62c5.261,-31.98 31.65,-60.64 65.01,-75.64z" fill="#e7a52e" id="svg_21"/>
     </g>
    </g>
    <g id="svg_22">
     <path d="m60.046,392.054l11.242,-0.903l36.961,55.883l-17.888,1.438c-9.332,0.75 -18.334,-3.633 -23.499,-11.442l-16.54,-25.007c-5.414,-8.188 -0.061,-19.183 9.724,-19.969z" fill="#698ed5" id="svg_23"/>
     <path d="m76.518,381.159l-5.231,9.992l36.961,55.883l8.323,-15.899c4.342,-8.294 3.831,-18.294 -1.333,-26.102l-16.54,-25.007c-5.414,-8.188 -17.627,-7.564 -22.18,1.133z" fill="#4073c8" id="svg_24"/>
    </g>
   </g>
   <g id="svg_25">
    <path d="m472.833,196.395c0,-26.857 -12.642,-51.729 -34.074,-67.559c0.546,-2.92 0.821,-5.901 0.821,-8.912c0,-20.46 -13.248,-38.727 -32.202,-45.396c-4.731,-42.208 -40.415,-74.528 -83.499,-74.528c-13.848,0 -27.392,3.391 -39.492,9.85c-8.208,-6.011 -18.1,-9.27 -28.383,-9.27c-10.29,0 -20.182,3.259 -28.385,9.269c-12.1,-6.458 -25.643,-9.849 -39.49,-9.849c-43.095,0 -78.778,32.319 -83.5,74.529c-18.96,6.667 -32.211,24.935 -32.211,45.396c0,3.002 0.277,5.984 0.829,8.914c-21.438,15.833 -34.081,40.704 -34.081,67.557c0,26.296 12.232,50.861 32.973,66.732c-0.579,2.947 -0.89,5.988 -0.89,9.102c0,11.85 4.41,23.174 12.419,31.886c1.479,1.609 3.498,2.424 5.523,2.424c1.813,0 3.633,-0.654 5.074,-1.979c3.049,-2.803 3.249,-7.548 0.445,-10.597c-5.457,-5.936 -8.462,-13.655 -8.462,-21.734c0,-17.722 14.418,-32.14 32.14,-32.14c4.25,0 8.451,0.845 12.348,2.465l0,16.784c-3.006,-1.225 -6.323,-2.039 -9.934,-2.401c-7.463,-0.747 -13.564,0.675 -14.235,0.84c-4.01,0.984 -6.452,5.018 -5.487,9.032s5.011,6.49 9.028,5.544c0.044,-0.01 4.476,-1.031 9.553,-0.452c5.076,0.581 8.726,2.456 11.103,5.712c0.148,7.874 1.084,15.556 2.732,22.976c-4.628,2.478 -9.769,3.781 -15.108,3.781c-0.696,0 -1.372,-0.023 -2.067,-0.072c-4.125,-0.283 -7.716,2.827 -8.004,6.959c-0.289,4.132 2.827,7.716 6.959,8.004c1.032,0.072 2.079,0.108 3.112,0.108c6.777,0 13.338,-1.428 19.381,-4.164c12.91,35.238 42.455,62.518 79.073,72.297l0,41.646c-14.639,3.748 -28.559,9.627 -41.36,17.329l-3.824,-5.785l6.268,-11.974c5.607,-10.712 4.947,-23.633 -1.723,-33.718l-16.539,-25.007c-4.021,-6.081 -10.764,-9.488 -18.053,-9.117c-7.281,0.372 -13.646,4.45 -17.028,10.909l-3.312,6.327l-7.118,0.57c-2.221,0.178 -4.345,0.713 -6.327,1.546l-2.871,-4.341c-4.022,-6.081 -10.77,-9.486 -18.052,-9.117c-7.281,0.372 -13.647,4.45 -17.029,10.91l-3.311,6.326l-7.117,0.572c-7.268,0.584 -13.512,4.846 -16.703,11.401c-3.192,6.555 -2.696,14.1 1.325,20.181l16.54,25.006c6.177,9.34 16.608,14.888 27.689,14.888c0.885,0 1.774,-0.036 2.665,-0.107l13.474,-1.083l23.671,35.789c-2.276,3.249 -4.437,6.592 -6.469,10.029c-1.372,2.318 -1.395,5.194 -0.06,7.534c1.334,2.34 3.821,3.784 6.515,3.784l254.69,0c2.693,0 5.181,-1.444 6.515,-3.784c1.335,-2.34 1.312,-5.215 -0.06,-7.534c-21.026,-35.554 -55.487,-61.364 -95.205,-71.533l0,-41.345c37.136,-9.515 67.152,-36.997 80.194,-72.596c6.036,2.733 12.598,4.159 19.384,4.159c25.993,0 47.14,-21.147 47.14,-47.14c0,-3.109 -0.311,-6.146 -0.888,-9.088c20.738,-15.877 32.97,-40.447 32.97,-66.745zm-334.96,182.348c1.289,-2.463 3.58,-2.839 4.505,-2.886c0.925,-0.048 3.241,0.093 4.775,2.412l16.539,25.007c3.657,5.529 4.02,12.613 0.945,18.486l-2.431,4.642l-27.512,-41.592l3.179,-6.069zm-15.694,14.345l27.516,41.594l-5.224,0.42c-6.613,0.535 -12.986,-2.573 -16.645,-8.102l-1.344,-2.031c1.451,-8.248 -0.232,-16.881 -4.989,-24.074l-4.869,-7.362l5.555,-0.445zm-34.511,-11.337c0.925,-0.043 3.242,0.093 4.775,2.412l7.131,10.782c0.001,0.002 0.002,0.003 0.003,0.005l9.405,14.221c2.965,4.482 3.763,9.984 2.322,15.036c-0.01,0.031 -0.019,0.063 -0.028,0.095c-0.334,1.148 -0.782,2.272 -1.349,3.355l-2.431,4.643l-27.51,-41.593l3.177,-6.069c1.29,-2.464 3.58,-2.84 4.505,-2.887zm2.092,59.243c-6.604,0.538 -12.985,-2.574 -16.642,-8.104l-16.54,-25.006c-1.534,-2.319 -0.757,-4.506 -0.351,-5.339c0.405,-0.833 1.647,-2.793 4.418,-3.016l6.829,-0.549l27.51,41.593l-5.224,0.421zm27.187,5.594l3.012,-5.753c6.145,5.931 14.393,9.327 23.049,9.327c0.885,0 1.775,-0.036 2.666,-0.107l13.475,-1.084l3.867,5.85c-9.194,6.813 -17.648,14.64 -25.179,23.352l-20.89,-31.585zm251.926,50.411l-226.87,0c6.817,-9.335 14.733,-17.744 23.514,-25.074c29.07,9.54 59.496,14.325 89.927,14.325c30.427,0 60.851,-4.784 89.919,-14.323c8.779,7.33 16.693,15.738 23.51,25.072zm-83.909,-54.577c16.159,3.458 31.448,9.773 45.224,18.461c-48.688,13.809 -100.81,13.808 -149.497,-0.002c13.775,-8.687 29.063,-15.001 45.221,-18.459c3.459,-0.74 5.931,-3.797 5.931,-7.334l0,-44.625c4.884,0.63 9.862,0.956 14.915,0.956l18.492,0c4.664,0 9.262,-0.285 13.783,-0.822l0,44.492c0,3.536 2.472,6.593 5.931,7.333zm-19.714,-66.003l-18.492,0c-55.703,0 -101.021,-45.313 -101.021,-101.012l0,-69.787c2.104,0.263 4.226,0.396 6.359,0.396c20.443,0 38.297,-11.903 46.318,-29.924c6.786,3.263 14.217,4.958 21.916,4.958c13.47,0 26.248,-5.352 35.671,-14.652c9.417,9.301 22.193,14.652 35.667,14.652c7.699,0 15.131,-1.695 21.917,-4.958c8.021,18.021 25.876,29.924 46.318,29.924c2.133,0 4.256,-0.132 6.358,-0.396l0,69.787c0,55.698 -45.313,101.012 -101.011,101.012zm128.361,-72.052c-5.351,0 -10.492,-1.302 -15.111,-3.776c1.648,-7.417 2.585,-15.097 2.733,-22.968c2.377,-3.262 6.029,-5.141 11.11,-5.723c5.024,-0.573 9.422,0.421 9.551,0.452c4.015,0.967 8.056,-1.492 9.04,-5.504c0.987,-4.023 -1.474,-8.084 -5.497,-9.071c-0.671,-0.165 -6.775,-1.587 -14.235,-0.84c-3.614,0.363 -6.933,1.177 -9.94,2.404l0,-16.792c3.894,-1.617 8.095,-2.46 12.35,-2.46c17.722,0 32.14,14.417 32.14,32.139s-14.419,32.139 -32.141,32.139zm0,-79.279c-4.188,0 -8.342,0.562 -12.35,1.647l0,-30.48c0,-2.414 -1.161,-4.68 -3.121,-6.089c-1.958,-1.408 -4.476,-1.789 -6.766,-1.021c-3.699,1.242 -7.559,1.872 -11.472,1.872c-16.564,0 -31.23,-11.71 -34.873,-27.844c-0.561,-2.485 -2.345,-4.516 -4.737,-5.391c-2.394,-0.876 -5.067,-0.477 -7.099,1.059c-6.244,4.717 -13.688,7.21 -21.526,7.21c-11.775,0 -22.798,-5.806 -29.483,-15.532c-1.399,-2.034 -3.71,-3.25 -6.179,-3.251c-0.001,0 -0.001,0 -0.002,0c-2.468,0 -4.778,1.214 -6.178,3.247c-6.696,9.728 -17.723,15.535 -29.496,15.535c-7.839,0 -15.282,-2.493 -21.526,-7.21c-2.033,-1.536 -4.706,-1.935 -7.099,-1.059s-4.177,2.906 -4.738,5.392c-3.642,16.133 -18.307,27.843 -34.871,27.843c-3.913,0 -7.773,-0.63 -11.473,-1.872c-2.29,-0.768 -4.808,-0.387 -6.766,1.021c-1.96,1.409 -3.121,3.675 -3.121,6.089l0,30.483c-4.009,-1.087 -8.162,-1.65 -12.348,-1.65c-17.285,0 -32.418,9.358 -40.624,23.267c-14.912,-13.032 -23.599,-31.881 -23.599,-51.961c0,-23.546 11.839,-45.239 31.668,-58.03c2.835,-1.829 4.1,-5.325 3.092,-8.544c-1,-3.195 -1.508,-6.524 -1.508,-9.896c0,-15.39 10.891,-28.976 25.895,-32.304c3.302,-0.732 5.706,-3.585 5.867,-6.963c1.765,-36.816 32.051,-65.656 68.951,-65.656c12.877,0 25.426,3.565 36.292,10.31c2.872,1.783 6.584,1.423 9.062,-0.879c6.14,-5.708 14.139,-8.851 22.521,-8.851c8.376,0 16.376,3.144 22.526,8.854c2.477,2.3 6.188,2.658 9.058,0.875c10.866,-6.744 23.415,-10.309 36.291,-10.309c36.891,0 67.177,28.841 68.949,65.659c0.162,3.378 2.565,6.229 5.866,6.961c14.999,3.328 25.886,16.914 25.886,32.304c0,3.395 -0.504,6.724 -1.497,9.895c-1.01,3.22 0.256,6.717 3.091,8.546c19.824,12.787 31.659,34.48 31.659,58.03c0,20.08 -8.685,38.933 -23.593,51.969c-8.204,-13.915 -23.34,-23.276 -40.629,-23.276z" id="svg_26"/>
    <path d="m200.07,237.442c-2.842,0 -5.468,1.256 -7.62,3.366l-4.962,-3.53c-3.377,-2.402 -8.059,-1.611 -10.459,1.764c-2.401,3.375 -1.611,8.058 1.764,10.458l8.15,5.798c0,0.045 -0.005,0.089 -0.005,0.134c0,9.92 5.891,17.991 13.132,17.991c7.24,0 13.131,-8.071 13.131,-17.991s-5.891,-17.99 -13.131,-17.99z" id="svg_27"/>
    <path d="m324.516,237.278l-4.962,3.53c-2.151,-2.11 -4.778,-3.366 -7.62,-3.366c-7.24,0 -13.131,8.071 -13.131,17.991s5.891,17.991 13.131,17.991c7.241,0 13.132,-8.071 13.132,-17.991c0,-0.045 -0.005,-0.089 -0.005,-0.134l8.15,-5.798c3.375,-2.401 4.165,-7.083 1.764,-10.458c-2.4,-3.375 -7.08,-4.167 -10.459,-1.765z" id="svg_28"/>
    <path d="m200.845,197.57c-8.087,0 -15.69,3.149 -21.409,8.868c-2.929,2.929 -2.929,7.678 0.001,10.606c2.928,2.93 7.677,2.929 10.606,0c2.885,-2.885 6.721,-4.475 10.802,-4.475s7.917,1.589 10.802,4.475c1.465,1.465 3.384,2.197 5.304,2.197c1.919,0 3.839,-0.732 5.303,-2.197c2.93,-2.929 2.93,-7.677 0.001,-10.606c-5.719,-5.718 -13.323,-8.868 -21.41,-8.868z" id="svg_29"/>
    <path d="m312.29,212.57c4.081,0 7.918,1.589 10.804,4.475c1.464,1.465 3.384,2.197 5.303,2.197s3.839,-0.732 5.304,-2.197c2.929,-2.929 2.929,-7.678 -0.001,-10.606c-5.719,-5.719 -13.321,-8.868 -21.409,-8.868c-8.087,0 -15.69,3.149 -21.409,8.868c-2.929,2.929 -2.929,7.678 0.001,10.606c2.928,2.93 7.677,2.929 10.606,0c2.884,-2.885 6.721,-4.475 10.801,-4.475z" id="svg_30"/>
    <path d="m281.203,281.245c-3.969,-1.179 -8.146,1.084 -9.324,5.055c-2.065,6.955 -8.594,11.812 -15.877,11.812c-7.273,0 -13.803,-4.861 -15.878,-11.821c-1.184,-3.969 -5.36,-6.23 -9.331,-5.044c-3.969,1.184 -6.228,5.361 -5.044,9.33c3.957,13.268 16.397,22.535 30.253,22.535c13.873,0 26.315,-9.27 30.256,-22.543c1.179,-3.97 -1.084,-8.145 -5.055,-9.324z" id="svg_31"/>
    <path d="m326.195,87.226c-3.555,-2.13 -8.159,-0.977 -10.289,2.576s-0.977,8.159 2.576,10.289c18.101,10.852 32.267,25.64 40.531,41.757c-30.496,-19.86 -66.294,-30.6 -103.01,-30.6c-36.762,0 -72.607,10.768 -103.128,30.677c17.322,-34.165 60.177,-60.015 102.929,-58.909c0.132,0.004 0.261,0.003 0.391,0c12.14,-0.315 24.556,1.535 36.87,5.51c3.939,1.272 8.169,-0.892 9.441,-4.833s-0.892,-8.169 -4.834,-9.441c-13.866,-4.476 -27.883,-6.574 -41.676,-6.235c-27.745,-0.664 -57.246,8.928 -80.926,26.35c-23.999,17.656 -40.089,41.922 -44.143,66.575c-0.512,3.107 0.974,6.203 3.717,7.75c1.15,0.649 2.42,0.967 3.683,0.967c1.747,0 3.481,-0.61 4.872,-1.797c31.419,-26.835 71.48,-41.613 112.804,-41.613s81.385,14.779 112.804,41.613c2.397,2.046 5.814,2.376 8.557,0.829s4.227,-4.645 3.715,-7.752c-4.678,-28.357 -25.194,-55.913 -54.884,-73.713z" id="svg_32"/>
   </g>
  </g>
 </g>
</svg>