<svg id="Capa_1" enable-background="new 0 0 512 512" height="512" viewBox="0 0 512 512" width="512" xmlns="http://www.w3.org/2000/svg"><g><g><g><path d="m162.496 171.456h272.712v119.185h-272.712z" fill="#2b4d66"/><path d="m438.774 285.64 7.245 56.752c4.962 38.872-25.325 73.272-64.513 73.272h-77.772-9.771-77.773c-39.188 0-69.475-34.4-64.513-73.272l7.245-56.752" fill="#365e7d"/><path d="m288.02 415.664h-71.83c-39.19 0-69.47-34.4-64.51-73.27l7.24-56.75h71.83l-7.24 56.75c-4.96 38.87 25.32 73.27 64.51 73.27z" fill="#2b4d66"/><g><path d="m426.197 504.5h-64.8l-42.12-12.42-91.75 12.42h-56.03c20.56-34.75 54.92-60.36 95.56-69.26.23-.05.47-.1.7-.15v-53.89h62.19v53.89c.24.05.48.1.71.16 7.62 1.67 15.01 3.92 22.14 6.72 3.76 1.47-2.54 13.09 1.06 14.85 3.22 1.58 16.37-6.71 19.46-4.91 21.79 12.73 40.03 30.87 52.88 52.59z" fill="#ffddce"/><path d="m329.947 381.2v25.55c-7.06 1.44-14.37 2.2-21.86 2.2h-18.47c-7.49 0-14.8-.76-21.86-2.2v-25.55z" fill="#ffcbbe"/><path d="m376.019 453.52v.01l-14.62 50.97h-133.87l125.4-62.48c8.07 3.17 15.79 7.03 23.09 11.5z" fill="#e04b66"/><path d="m281.44 381.2v53.89c-22.93 8.76-42.33 34.46-53.91 69.41h-56.03c20.68-34.95 55.32-60.65 96.26-69.41v-53.89z" fill="#ffcbbe"/></g><path d="m435.207 171.46v13.52l-136.35-35.12-136.36 35.12v-13.52c0-18.13 3.54-35.43 9.96-51.25 20.26-49.91 69.22-85.11 126.39-85.11h.01c57.17 0 106.13 35.2 126.39 85.11 6.42 15.82 9.96 33.12 9.96 51.25z" fill="#ffc250"/><path d="m435.207 171.46v13.52l-136.35-35.12-136.36 35.12v-13.52c0-18.13 3.54-35.43 9.96-51.25l126.4-60.01 126.39 60.01c6.42 15.82 9.96 33.12 9.96 51.25z" fill="#e7a52e"/><path d="m340.256 41.496c-55.07 17.52-94.96 69.08-94.96 129.96h-82.8c0-75.31 61.05-136.36 136.36-136.36 14.43 0 28.34 2.24 41.4 6.4z" fill="#e7a52e"/><g fill="#ffcbbe"><circle cx="161.33" cy="272.389" r="39.613"/><circle cx="436.372" cy="272.389" r="39.613"/></g><path d="m416.527 236.5v39.06c0 59.89-48.55 108.44-108.44 108.44h-18.47c-59.89 0-108.45-48.55-108.45-108.44v-39.06l6.38-14.08 4.92-10.83c4.45-9.81 11.56-17.87 20.26-23.48s18.98-8.76 29.76-8.76c24.14 0 45.46-15.77 52.52-38.85l3.85-12.6 3.84 12.6c3.53 11.54 10.62 21.25 19.85 28.08s20.59 10.77 32.67 10.77c21.56 0 41.12 12.61 50.02 32.24l4.91 10.83z" fill="#ffddce"/><path d="m410.147 222.42-111.29-28.66-111.31 28.66 4.92-10.83c4.45-9.81 11.56-17.87 20.26-23.48s18.98-8.76 29.76-8.76c24.14 0 45.46-15.77 52.52-38.85l3.85-12.6 3.84 12.6c3.53 11.54 10.62 21.25 19.85 28.08s20.59 10.77 32.67 10.77c21.56 0 41.12 12.61 50.02 32.24z" fill="#ffcbbe"/><path d="m331.362 381.491c-7.49 1.65-15.28 2.51-23.27 2.51h-18.48c-59.889 0-108.448-48.549-108.448-108.438v-39.059l11.3-24.91c4.45-9.81 11.56-17.87 20.26-23.48s18.98-8.76 29.76-8.76c1.24 0 2.47-.04 3.7-.12v96.329c-.001 51.899 36.469 95.289 85.178 105.928z" fill="#ffcbbe"/><path d="m298.853 82.144 147.662 70.111v57.584l-147.662-38.028-147.663 38.028v-57.584z" fill="#ffc250"/><path d="m327.713 7.5h-57.721c-9.77 0-16.994 9.098-14.779 18.614l4.654 19.993c2.262 9.717 10.922 16.592 20.898 16.592h36.175c9.976 0 18.636-6.876 20.898-16.592l4.654-19.993c2.215-9.516-5.009-18.614-14.779-18.614z" fill="#e04b66"/><path d="m308.705 62.699h-27.94c-9.97 0-18.63-6.88-20.9-16.59l-4.65-20c-2.21-9.51 5.01-18.61 14.78-18.61h27.93c-9.77 0-16.99 9.1-14.78 18.61l4.66 20c2.26 9.711 10.92 16.59 20.9 16.59z" fill="#de1d49"/></g><path d="m62.128 233.775h27.941v244.349h-27.941z" fill="#365e7d"/><path d="m62.128 233.775h13.26v244.349h-13.26z" fill="#2b4d66"/><path d="m78.651 441.251h-5.106c-12.385 0-22.425 10.04-22.425 22.425v18.398c0 12.385 10.04 22.425 22.425 22.425h5.106c12.385 0 22.425-10.04 22.425-22.425v-18.398c.001-12.385-10.039-22.425-22.425-22.425z" fill="#ffddce"/><path d="m86.57 503.054c-2.46.93-5.13 1.44-7.92 1.44h-5.11c-12.38 0-22.42-10.04-22.42-22.42v-18.4c0-12.38 10.04-22.42 22.42-22.42h5.11c2.79 0 5.46.51 7.92 1.44-8.47 3.2-14.5 11.39-14.5 20.98v18.4c0 9.59 6.03 17.78 14.5 20.98z" fill="#ffcbbe"/><path d="m96.63 170.169h-41.064v64.406c0 5.21 4.224 9.434 9.434 9.434h22.196c5.21 0 9.434-4.224 9.434-9.434z" fill="#ede6e3"/><path d="m80.202 244.009h-18.07c-5.21 0-9.43-4.22-9.43-9.44v-64.4h18.07v64.4c0 5.22 4.22 9.44 9.43 9.44z" fill="#d8cec9"/><path d="m113.981 160.161-12.737 32.919c-.699 1.807-2.437 2.998-4.374 2.998h-41.543c-1.937 0-3.675-1.191-4.374-2.998l-12.737-32.919c-2.844-7.35-2.928-15.482-.236-22.89l28.049-77.198c3.418-9.406 16.721-9.406 20.138 0l28.05 77.198c2.692 7.407 2.608 15.539-.236 22.89z" fill="#ede6e3"/><path d="m76.09 53.021c-1.44.01-2.87 2.36-3.46 7.05l-9.65 77.2c-.93 7.41-.9 15.54.08 22.89l4.38 32.92c.24 1.81.84 3 1.51 3h-13.63c-1.93 0-3.67-1.19-4.37-3l-12.74-32.92c-2.84-7.35-2.93-15.48-.23-22.89l28.04-77.2c1.71-4.7 5.89-7.05 10.07-7.05z" fill="#d8cec9"/></g><g><path d="m483.48 272.385c0-23.827-17.784-43.566-40.772-46.674v-9.109l1.942.5c2.246.577 4.633.085 6.465-1.335s2.905-3.609 2.905-5.928v-57.58c0-2.896-1.667-5.533-4.283-6.775l-10.376-4.927c-5.309-24.239-16.856-46.754-33.564-65.315-15.881-17.641-35.808-31.035-57.949-39.057l1.949-8.372c1.578-6.777 0-13.79-4.326-19.239-4.328-5.449-10.8-8.574-17.758-8.574h-57.721c-6.958 0-13.431 3.125-17.757 8.575-4.327 5.45-5.904 12.462-4.326 19.239l1.949 8.374c-22.139 8.022-42.065 21.415-57.944 39.055-16.709 18.561-28.256 41.075-33.564 65.314l-10.377 4.927c-2.616 1.242-4.283 3.879-4.283 6.775v57.58c0 2.319 1.073 4.507 2.905 5.928 1.329 1.03 2.949 1.572 4.595 1.572.624 0 1.252-.078 1.87-.237l1.937-.499v9.106c-22.994 3.103-40.783 22.845-40.783 46.675 0 21.099 13.941 39.002 33.096 44.983l-3.07 24.07c-2.03 15.887 1.108 31.58 9.077 45.381 7.64 13.232 19.504 23.923 33.406 30.103.99.44 2.024.648 3.042.648 2.874 0 5.615-1.661 6.858-4.456 1.683-3.785-.022-8.217-3.807-9.9-23.402-10.403-36.944-34.465-33.696-59.877l3.043-23.857c6.485-.112 12.753-1.521 18.538-4.14 12.966 35.383 42.715 62.739 79.555 72.388v20.43h-41.176c-4.142 0-7.5 3.358-7.5 7.5s3.358 7.5 7.5 7.5h41.175v5.986c-39.711 10.166-74.171 35.976-95.207 71.535-1.372 2.318-1.395 5.194-.06 7.534 1.334 2.34 3.821 3.785 6.515 3.785h254.694c2.694 0 5.181-1.444 6.515-3.785 1.334-2.34 1.312-5.216-.06-7.534-21.037-35.559-55.497-61.369-95.208-71.535v-5.986h44.064c20.828 0 40.669-8.967 54.436-24.602 13.768-15.636 20.151-36.454 17.514-57.12l-3.079-24.068c19.158-5.977 33.101-23.882 33.101-44.982zm-55.773-46.295c-2.324.434-4.611 1.037-6.842 1.813l-8.685-19.163 15.527 3.999zm-21.1-84.48v50.206l-31.43-8.094v-57.036zm32.413 58.553-17.413-4.484v-46.946l17.413 8.267zm-175.038-182.261c1.464-1.845 3.655-2.902 6.01-2.902h57.721c2.355 0 4.545 1.058 6.01 2.902 1.464 1.844 1.998 4.217 1.464 6.511l-4.654 19.994c-1.479 6.354-7.068 10.792-13.593 10.792h-36.175c-6.524 0-12.114-4.438-13.593-10.792l-4.654-19.993c-.534-2.294 0-4.667 1.464-6.512zm-60.92 67.377c13.869-15.407 31.174-27.202 50.4-34.442 4.027 11.538 14.834 19.362 27.304 19.362h36.175c12.471 0 23.278-7.825 27.304-19.364 19.227 7.24 36.534 19.036 50.404 34.443 12.248 13.606 21.39 29.583 26.917 46.829l-66.809-31.723c-3.742-1.779-8.215-.184-9.992 3.558s-.184 8.215 3.558 9.992l11.854 5.629v60.295l-53.82-13.861v-71.99l14.875 7.065c3.743 1.778 8.216.185 9.992-3.557 1.777-3.741.185-8.215-3.557-9.992l-25.6-12.16c-2.036-.968-4.398-.967-6.435 0l-119.488 56.741c5.529-17.243 14.67-33.22 26.918-46.825zm-44.372 114.884v-43.163l17.408-8.266v46.946zm32.408-8.347v-50.206l31.43-14.925v57.036zm46.43-72.254 53.829-25.562v71.994l-53.83 13.864v-60.296zm-52.004 89.179-8.692 19.161c-2.228-.775-4.513-1.377-6.835-1.811v-13.351zm-24.196 95.757c-17.707 0-32.113-14.406-32.113-32.113s14.406-32.113 32.113-32.113c4.251 0 8.45.843 12.34 2.458v16.767c-3.003-1.224-6.318-2.036-9.925-2.399-7.455-.748-13.556.675-14.228.839-4.009.984-6.451 5.018-5.487 9.032.965 4.014 5.008 6.492 9.028 5.544.044-.01 4.475-1.031 9.545-.452 5.074.581 8.72 2.456 11.095 5.711.148 7.865 1.084 15.54 2.731 22.952-4.615 2.474-9.753 3.774-15.099 3.774zm27.34-28.938v-37.438l10.632-23.438c1.872-4.136 4.311-7.947 7.259-11.36l92.291-23.77 92.292 23.768c2.958 3.429 5.398 7.242 7.264 11.364l10.621 23.434v37.44c0 55.659-45.281 100.94-100.94 100.94h-18.47c-55.663 0-100.949-45.282-100.949-100.94zm80.657 166.861c3.459-.74 5.931-3.797 5.931-7.334v-44.477c4.707.584 9.5.889 14.362.889h18.47c4.861 0 9.652-.305 14.358-.889v44.476c0 3.537 2.472 6.594 5.931 7.334 1.582.338 3.152.713 4.716 1.106l-107.328 53.474h-40.35c20.273-27.756 50.21-47.368 83.91-54.579zm83.907 7.83c4.783 2.016 9.445 4.291 13.963 6.816l-11.448 39.933h-96.345zm59.054 46.749h-40.935l9.046-31.554c12.166 8.698 22.965 19.336 31.889 31.554zm12.401-108.354c-10.919 12.401-26.657 19.514-43.178 19.514h-44.064v-20.43c36.838-9.649 66.586-37.006 79.551-72.392 5.789 2.62 12.056 4.031 18.532 4.143l3.052 23.857c2.092 16.391-2.972 32.905-13.893 45.308zm11.68-84.148c-5.337 0-10.474-1.302-15.098-3.776 1.646-7.407 2.581-15.077 2.73-22.938 2.375-3.261 6.023-5.14 11.102-5.721 5.006-.575 9.391.417 9.541.451 4.013.968 8.056-1.491 9.041-5.503.987-4.023-1.473-8.084-5.496-9.071-.671-.165-6.775-1.587-14.228-.839-3.61.363-6.927 1.176-9.932 2.402v-16.766c3.892-1.618 8.09-2.462 12.34-2.462 17.707 0 32.113 14.406 32.113 32.113s-14.406 32.11-32.113 32.11z"/><path d="m242.956 237.623c-2.838 0-5.461 1.254-7.611 3.361l-4.959-3.528c-3.375-2.4-8.058-1.611-10.459 1.764s-1.611 8.058 1.764 10.459l8.147 5.796c0 .043-.005.085-.005.128 0 9.914 5.887 17.979 13.123 17.979s13.123-8.065 13.123-17.979-5.887-17.98-13.123-17.98z"/><path d="m367.315 237.456-4.959 3.528c-2.149-2.107-4.772-3.361-7.611-3.361-7.236 0-13.123 8.065-13.123 17.979s5.887 17.979 13.123 17.979 13.123-8.065 13.123-17.979c0-.043-.004-.085-.005-.128l8.147-5.796c3.375-2.401 4.165-7.084 1.764-10.459s-7.084-4.164-10.459-1.763z"/><path d="m243.731 197.773c-8.083 0-15.683 3.148-21.398 8.864-2.929 2.929-2.929 7.678 0 10.606 2.929 2.93 7.678 2.929 10.606 0 2.883-2.883 6.715-4.47 10.792-4.47s7.909 1.587 10.792 4.47c1.464 1.465 3.384 2.197 5.303 2.197s3.839-.732 5.303-2.197c2.929-2.929 2.929-7.677 0-10.606-5.715-5.716-13.314-8.864-21.398-8.864z"/><path d="m344.309 217.244c2.883-2.882 6.715-4.47 10.792-4.47 4.076 0 7.909 1.588 10.792 4.47 1.464 1.464 3.384 2.197 5.303 2.197s3.839-.732 5.303-2.197c2.929-2.929 2.929-7.678 0-10.606-11.799-11.799-30.998-11.798-42.796 0-2.929 2.929-2.929 7.678 0 10.606 2.928 2.928 7.677 2.928 10.606 0z"/><path d="m329.088 290.717c1.179-3.971-1.084-8.146-5.055-9.325-3.97-1.178-8.146 1.084-9.325 5.055-2.063 6.948-8.585 11.801-15.86 11.801-7.267 0-13.79-4.856-15.863-11.809-1.184-3.969-5.362-6.228-9.331-5.044s-6.228 5.361-5.044 9.331c3.954 13.261 16.388 22.523 30.238 22.523 13.865-.001 26.3-9.266 30.24-22.532z"/><path d="m97.572 440.512v-192.583c3.982-3.101 6.559-7.927 6.559-13.354v-33.426c1.813-1.347 3.265-3.184 4.108-5.363l12.736-32.918c3.5-9.043 3.603-19.043.292-28.158l-28.05-77.198c-2.647-7.286-9.367-11.994-17.119-11.994-7.751 0-14.471 4.708-17.118 11.993l-28.05 77.199c-3.312 9.114-3.208 19.114.292 28.157l12.736 32.919c.843 2.179 2.295 4.016 4.108 5.363v33.426c0 5.43 2.579 10.258 6.565 13.359v192.573c-6.716 5.492-11.012 13.838-11.012 23.17v18.397c.001 16.501 13.425 29.926 29.926 29.926h5.106c16.501 0 29.925-13.424 29.925-29.925v-18.397c.001-9.33-4.292-17.674-11.004-23.166zm-32.572-204.003c-1.066 0-1.934-.868-1.934-1.934v-30.998h26.064v30.998c0 1.066-.868 1.934-1.934 1.934zm-19.789-79.055c-2.19-5.66-2.255-11.918-.182-17.622l28.05-77.199c.668-1.841 2.179-2.116 3.02-2.116s2.351.275 3.02 2.116l28.05 77.198c2.073 5.704 2.008 11.963-.182 17.623l-12.042 31.123h-37.693zm24.421 94.055h12.94v182.508c-1.284-.169-2.591-.265-3.92-.265h-5.106c-1.327 0-2.632.096-3.914.264zm23.945 230.565c0 8.23-6.695 14.925-14.925 14.925h-5.106c-8.23 0-14.925-6.695-14.925-14.925v-18.397c0-8.23 6.695-14.925 14.925-14.925h5.106c8.23 0 14.925 6.695 14.925 14.925z"/></g></g></svg>