<?xml version="1.0"?>
<svg width="511.99" height="511.99" xmlns="http://www.w3.org/2000/svg" xmlns:svg="http://www.w3.org/2000/svg">

 <g class="layer">
  <title>Layer 1</title>
  <g id="svg_1">
   <g id="svg_2">
    <g id="svg_3">
     <path d="m426.889,504.49l-341.773,0c27.748,-46.897 74.227,-81.386 129.158,-93.147l0,-72.303l83.445,0l0,72.303c54.93,11.761 101.423,46.25 129.17,93.147z" fill="#592b18" id="svg_4"/>
     <g fill="#ffcbbe" id="svg_5">
      <path d="m297.718,361.468l0,31.691c-9.46,1.924 -19.257,2.933 -29.282,2.933l-24.868,0c-10.039,0 -19.835,-1.009 -29.295,-2.933l0,-31.691l83.445,0z" fill="#301008" id="svg_6"/>
      <path d="m238.371,339.028l0,72.319c-23.212,11.747 -42.849,46.248 -54.57,93.144l-98.687,0c27.743,-46.896 74.234,-81.396 129.155,-93.144l0,-72.319l24.102,0z" fill="#301008" id="svg_7"/>
     </g>
    </g>
    <g fill="#ffcbbe" id="svg_8" transform="matrix(1, 0, 0, 1, 0, 0)">
     <circle cx="118.583" cy="267.56" fill="#301008" id="svg_9" r="39.583"/>
     <circle cx="393.415" cy="267.56" fill="#301008" id="svg_10" r="39.583"/>
    </g>
    <path d="m256.641,70.864l-1.285,0c-64.59,0 -116.951,52.361 -116.951,116.951l0,82.915c0,59.845 48.514,108.36 108.36,108.36l18.467,0c59.845,0 108.36,-48.514 108.36,-108.36l0,-82.915c0,-64.591 -52.361,-116.951 -116.951,-116.951z" fill="#592b18" id="svg_11" transform="matrix(1, 0, 0, 1, 0, 0)"/>
    <path d="m289.858,376.268c-7.914,1.849 -16.158,2.818 -24.621,2.818l-18.466,0c-59.853,0 -108.366,-48.512 -108.366,-108.356l0,-82.916c0,-64.59 52.359,-116.949 116.949,-116.949l1.289,0c11.541,0 22.682,1.669 33.214,4.796c-48.412,14.299 -83.735,59.104 -83.735,112.153l0,82.916c0.001,51.37 35.753,94.396 83.736,105.538z" fill="#301008" id="svg_12" transform="matrix(1, 0, 0, 1, 0, 0)"/>
    <path d="m255.999,7.497l-39.629,68.64c-16.851,29.186 4.213,65.669 37.914,65.669l3.43,0c33.702,0 54.765,-36.483 37.914,-65.669l-39.629,-68.64z" fill="#a332c9" id="svg_13" transform="matrix(1, 0, 0, 1, 0, 0)"/>
    <path d="m255.459,141.807l-1.179,0c-33.704,0 -54.768,-36.482 -37.911,-65.669l39.63,-68.648l-12.43,68.647c-5.277,29.188 1.318,65.67 11.89,65.67z" fill="#701d8e" id="svg_14"/>
   </g>
   <g id="svg_15">
    <path d="m381.099,441.797c-3.287,-2.521 -7.995,-1.896 -10.515,1.392s-1.896,7.996 1.392,10.515c16.008,12.266 29.824,26.787 41.206,43.287l-314.363,0c27.58,-39.912 69.562,-68.163 117.027,-78.316c3.46,-0.74 5.932,-3.796 5.932,-7.334l0,-27.476c8.052,1.777 16.412,2.722 24.99,2.722l18.466,0c8.576,0 16.934,-0.945 24.983,-2.721l0,27.475c0,3.539 2.474,6.596 5.935,7.335c18.052,3.853 35.434,10.331 51.661,19.257c1.146,0.63 2.386,0.93 3.607,0.93c2.646,0 5.213,-1.404 6.578,-3.887c1.996,-3.629 0.673,-8.189 -2.957,-10.186c-15.728,-8.65 -32.462,-15.172 -49.824,-19.423l0,-25.892c31.848,-11.747 57.163,-37.107 68.846,-68.986c6.033,2.729 12.582,4.152 19.348,4.152c25.961,0 47.082,-21.121 47.082,-47.083s-21.121,-47.083 -47.082,-47.083c-4.177,0 -8.32,0.56 -12.319,1.643l0,-34.303c0,-51.219 -31.75,-97.448 -79.286,-115.973l-39.313,-68.092c-1.34,-2.32 -3.815,-3.75 -6.495,-3.75c-2.679,0 -5.155,1.429 -6.495,3.75l-14.65,25.37c-2.071,3.587 -0.843,8.174 2.744,10.245c3.587,2.072 8.174,0.842 10.246,-2.744l8.154,-14.122l33.136,57.392c6.559,11.357 6.559,24.919 0,36.279c-6.557,11.359 -18.301,18.141 -31.415,18.141l-3.43,0c-13.119,0 -24.867,-6.783 -31.426,-18.144c-6.558,-11.359 -6.557,-24.92 0.002,-36.277l9.979,-17.29c2.07,-3.587 0.841,-8.174 -2.747,-10.245c-3.587,-2.07 -8.174,-0.842 -10.245,2.747l-9.664,16.743c-47.537,18.526 -79.286,64.752 -79.286,115.969l0,34.301c-3.999,-1.082 -8.143,-1.641 -12.321,-1.641c-25.962,0 -47.083,21.121 -47.083,47.083s21.121,47.083 47.083,47.083c6.775,0 13.325,-1.423 19.351,-4.149c11.684,31.877 36.998,57.235 68.846,68.982l0,25.897c-53.436,13.121 -99.889,47.59 -128.115,95.303c-1.371,2.318 -1.395,5.194 -0.06,7.534c1.334,2.34 3.821,3.785 6.515,3.785l341.76,0c2.694,0 5.182,-1.445 6.516,-3.786s1.311,-5.217 -0.062,-7.535c-13.555,-22.897 -31.128,-42.705 -52.232,-58.874zm12.312,-206.323c17.69,0 32.082,14.392 32.082,32.083s-14.392,32.083 -32.082,32.083c-5.329,0 -10.458,-1.298 -15.075,-3.767c1.645,-7.404 2.579,-15.071 2.728,-22.928c2.372,-3.251 6.014,-5.124 11.082,-5.704c4.995,-0.572 9.373,0.414 9.531,0.45c4.013,0.967 8.057,-1.491 9.042,-5.503c0.987,-4.022 -1.474,-8.084 -5.496,-9.071c-0.672,-0.165 -6.771,-1.588 -14.219,-0.839c-3.603,0.362 -6.913,1.173 -9.912,2.394l0,-16.741c3.885,-1.616 8.076,-2.457 12.319,-2.457zm-274.83,64.165c-17.69,0 -32.083,-14.392 -32.083,-32.083s14.393,-32.083 32.083,-32.083c4.244,0 8.436,0.841 12.321,2.453l0,16.742c-2.998,-1.22 -6.307,-2.031 -9.908,-2.392c-7.446,-0.747 -13.548,0.674 -14.218,0.839c-4.01,0.984 -6.452,5.018 -5.487,9.032s5.012,6.489 9.028,5.544c0.044,-0.01 4.466,-1.031 9.536,-0.451c5.063,0.58 8.705,2.449 11.077,5.696c0.148,7.86 1.083,15.531 2.728,22.938c-4.608,2.467 -9.738,3.765 -15.077,3.765zm27.321,-28.909l0,-82.917c0,-40.476 22.544,-77.41 57.446,-96.31c-1.43,10.925 0.743,22.149 6.523,32.163c9.27,16.058 25.874,25.644 44.416,25.644l3.43,0c18.537,0 35.138,-9.585 44.406,-25.641c5.782,-10.016 7.955,-21.242 6.523,-32.168c34.901,18.9 57.444,55.835 57.444,96.312l0,82.917c0,55.612 -45.244,100.856 -100.857,100.856l-18.466,0c-55.617,0 -100.865,-45.244 -100.865,-100.856z" id="svg_16"/>
    <path d="m229.137,209.109c2.879,-2.879 6.707,-4.465 10.778,-4.465c3.914,0 7.593,1.478 10.43,4.147c-4.404,2.9 -7.459,9.055 -7.459,16.185c0,9.906 5.882,17.965 13.112,17.965s13.113,-8.059 13.113,-17.965c0,-7.131 -3.056,-13.286 -7.46,-16.185c2.838,-2.67 6.516,-4.147 10.43,-4.147c4.071,0 7.899,1.585 10.778,4.465c1.465,1.465 3.384,2.197 5.304,2.197c1.919,0 3.839,-0.732 5.303,-2.197c2.93,-2.929 2.93,-7.677 0.001,-10.606c-5.713,-5.712 -13.308,-8.858 -21.386,-8.858c-5.779,0 -11.311,1.609 -16.083,4.618c-4.771,-3.008 -10.304,-4.618 -16.083,-4.618c-8.078,0 -15.673,3.146 -21.386,8.858c-2.929,2.929 -2.929,7.678 0.001,10.606c2.928,2.93 7.678,2.929 10.607,0z" id="svg_17"/>
    <path d="m208.083,145.065l0,-0.622c0,-4.142 -3.357,-7.5 -7.5,-7.5s-7.5,3.358 -7.5,7.5l0,0.622c0,4.142 3.357,7.5 7.5,7.5s7.5,-3.358 7.5,-7.5z" id="svg_18"/>
    <path d="m180.319,148.183c-4.143,0 -7.5,3.358 -7.5,7.5l0,0.622c0,4.142 3.357,7.5 7.5,7.5s7.5,-3.358 7.5,-7.5l0,-0.622c0,-4.142 -3.358,-7.5 -7.5,-7.5z" id="svg_19"/>
    <path d="m180.319,125.568c-4.143,0 -7.5,3.358 -7.5,7.5l0,0.622c0,4.142 3.357,7.5 7.5,7.5s7.5,-3.358 7.5,-7.5l0,-0.622c0,-4.142 -3.358,-7.5 -7.5,-7.5z" id="svg_20"/>
    <path d="m311.415,152.565c4.143,0 7.5,-3.358 7.5,-7.5l0,-0.622c0,-4.142 -3.357,-7.5 -7.5,-7.5s-7.5,3.358 -7.5,7.5l0,0.622c0,4.142 3.357,7.5 7.5,7.5z" id="svg_21"/>
    <path d="m331.678,163.805c4.143,0 7.5,-3.358 7.5,-7.5l0,-0.622c0,-4.142 -3.357,-7.5 -7.5,-7.5s-7.5,3.358 -7.5,7.5l0,0.622c0,4.142 3.358,7.5 7.5,7.5z" id="svg_22"/>
    <path d="m331.678,141.19c4.143,0 7.5,-3.358 7.5,-7.5l0,-0.622c0,-4.142 -3.357,-7.5 -7.5,-7.5s-7.5,3.358 -7.5,7.5l0,0.622c0,4.142 3.358,7.5 7.5,7.5z" id="svg_23"/>
    <path d="m295.853,302.632c1.18,3.971 5.355,6.235 9.324,5.054c3.971,-1.179 6.234,-5.354 5.055,-9.325c-2.631,-8.86 -7.378,-16.722 -13.583,-23.104l2.451,-5.685c1.641,-3.804 -0.113,-8.217 -3.917,-9.857c-3.804,-1.639 -8.217,0.114 -9.856,3.917l-0.893,2.071c-8.464,-4.941 -18.232,-7.742 -28.435,-7.742c-10.198,0 -19.966,2.804 -28.431,7.751l-0.897,-2.08c-1.64,-3.803 -6.053,-5.557 -9.856,-3.917c-3.804,1.64 -5.558,6.053 -3.917,9.857l2.457,5.698c-6.199,6.377 -10.947,14.232 -13.586,23.082c-1.184,3.97 1.075,8.147 5.045,9.331c0.715,0.213 1.436,0.314 2.146,0.314c3.23,0 6.214,-2.104 7.185,-5.359c5.21,-17.473 21.599,-29.677 39.855,-29.677c18.277,0.002 34.666,12.203 39.853,29.671z" id="svg_24"/>
   </g>
  </g>
 </g>
</svg>