<?xml version="1.0"?>
<svg width="512" height="512" xmlns="http://www.w3.org/2000/svg" xmlns:svg="http://www.w3.org/2000/svg">

 <g class="layer">
  <title>Layer 1</title>
  <g id="svg_1">
   <g id="svg_2">
    <path d="m59.974,275.712l-15.456,0c-15.707,0 -28.44,-12.733 -28.44,-28.44l0,-28.757l15.455,0c15.707,0 28.44,12.733 28.44,28.44l0,28.757l0.001,0z" fill="#ffc250" id="svg_3"/>
    <path d="m59.978,275.395l0,0.32l-15.46,0c-15.71,0 -28.44,-12.73 -28.44,-28.44l0,-28.76l15.46,0c1.45,0 2.88,0.11 4.27,0.32l0,28.44c0,14.26 10.49,26.06 24.17,28.12z" fill="#e7a52e" id="svg_4"/>
    <path d="m59.974,332.909l-15.456,0c-15.707,0 -28.44,-12.733 -28.44,-28.44l0,-28.757l15.455,0c15.707,0 28.44,12.733 28.44,28.44l0,28.757l0.001,0z" fill="#ffc250" id="svg_5"/>
    <path d="m59.978,332.592l0,0.32l-15.46,0c-15.71,0 -28.44,-12.73 -28.44,-28.44l0,-28.76l15.46,0c1.45,0 2.88,0.11 4.27,0.32l0,28.44c0,14.26 10.49,26.06 24.17,28.12z" fill="#e7a52e" id="svg_6"/>
    <path d="m59.974,390.106l-15.456,0c-15.707,0 -28.44,-12.733 -28.44,-28.44l0,-28.757l15.455,0c15.707,0 28.44,12.733 28.44,28.44l0,28.757l0.001,0z" fill="#ffc250" id="svg_7"/>
    <path d="m59.978,389.789l0,0.32l-15.46,0c-15.71,0 -28.44,-12.73 -28.44,-28.44l0,-28.76l15.46,0c1.45,0 2.88,0.11 4.27,0.32l0,28.44c0,14.26 10.49,26.06 24.17,28.12z" fill="#e7a52e" id="svg_8"/>
    <path d="m59.974,275.712l15.455,0c15.707,0 28.44,-12.733 28.44,-28.44l0,-28.757l-15.455,0c-15.707,0 -28.44,12.733 -28.44,28.44l0,28.757z" fill="#ffc250" id="svg_9"/>
    <path d="m103.864,218.515l0,0.12c-14.53,1.25 -25.94,13.45 -25.94,28.32l0,28.63c-0.82,0.08 -1.66,0.12 -2.5,0.12l-15.45,0l0,-28.75c0,-15.71 12.73,-28.44 28.44,-28.44l15.45,0z" fill="#e7a52e" id="svg_10"/>
    <path d="m59.974,332.909l15.455,0c15.707,0 28.44,-12.733 28.44,-28.44l0,-28.757l-15.455,0c-15.707,0 -28.44,12.733 -28.44,28.44l0,28.757z" fill="#ffc250" id="svg_11"/>
    <path d="m103.864,275.712l0,0.12c-14.53,1.25 -25.94,13.45 -25.94,28.32l0,28.63c-0.82,0.08 -1.66,0.12 -2.5,0.12l-15.45,0l0,-28.75c0,-15.71 12.73,-28.44 28.44,-28.44l15.45,0z" fill="#e7a52e" id="svg_12"/>
    <path d="m59.974,390.106l15.455,0c15.707,0 28.44,-12.733 28.44,-28.44l0,-28.757l-15.455,0c-15.707,0 -28.44,12.733 -28.44,28.44l0,28.757z" fill="#ffc250" id="svg_13"/>
    <path d="m103.864,332.909l0,0.12c-14.53,1.25 -25.94,13.45 -25.94,28.32l0,28.63c-0.82,0.08 -1.66,0.12 -2.5,0.12l-15.45,0l0,-28.75c0,-15.71 12.73,-28.44 28.44,-28.44l15.45,0z" fill="#e7a52e" id="svg_14"/>
    <g id="svg_15">
     <g id="svg_16" transform="matrix(1, 0, 0, 1, 0, 0)">
      <path d="m425.848,391.55l-0.26,0c7.97,6.91 13.01,17.1 13.01,28.48c0,20.82 -16.89,37.71 -37.71,37.71c-5.21,0 -10.17,-1.06 -14.69,-2.96l-135.63,0c-4.51,1.9 -9.48,2.96 -14.68,2.96c-20.83,0 -37.72,-16.89 -37.72,-37.71c0,-11.38 5.05,-21.57 13.01,-28.48l-0.26,0c-38.57,0 -69.83,-31.26 -69.83,-69.83c0,-30.8 19.94,-56.94 47.61,-66.22c-26.78,-9.77 -45.9,-35.46 -45.9,-65.62c0,-38.57 31.27,-69.83 69.84,-69.83l211.5,0c38.56,0 69.83,31.26 69.83,69.83c0,30.17 -19.13,55.86 -45.91,65.62c27.68,9.27 47.63,35.41 47.63,66.22c0,38.57 -31.27,69.83 -69.84,69.83z" fill="#9d6b6b" id="svg_17"/>
     </g>
     <g id="svg_18">
      <path d="m338.148,454.78l-87.58,0c-4.51,1.9 -9.48,2.96 -14.68,2.96c-20.83,0 -37.72,-16.89 -37.72,-37.71c0,-11.38 5.05,-21.57 13.01,-28.48l-0.26,0c-38.57,0 -69.83,-31.26 -69.83,-69.83c0,-30.8 19.94,-56.94 47.61,-66.22c-26.78,-9.77 -45.9,-35.46 -45.9,-65.62c0,-38.57 31.27,-69.83 69.84,-69.83l116.94,0c-38.57,0 -69.84,31.26 -69.84,69.83c0,30.16 19.12,55.85 45.9,65.62c-27.67,9.28 -47.61,35.42 -47.61,66.22c0,38.57 31.26,69.83 69.83,69.83l0.26,0c-7.96,6.91 -13.01,17.1 -13.01,28.48c0,15.61 9.5,29.02 23.04,34.75z" fill="#8b5e5e" id="svg_19"/>
     </g>
     <path d="m421.348,495.421l-175.58,-11.971c17.301,-29.244 -9.362,-30.932 23.053,-42.606c6.127,-2.206 12.442,-4.018 18.915,-5.403l0,-53.615l61.873,0l0,53.615c23.707,5.073 45.294,15.859 63.254,30.848c12.892,10.758 -0.111,14.602 8.485,29.132z" fill="#d87852" id="svg_20"/>
     <path d="m349.616,381.826l0,22.18c-7.01,1.42 -14.27,2.17 -21.7,2.17l-18.48,0c-7.43,0 -14.69,-0.75 -21.7,-2.17l0,-22.18l61.88,0z" fill="#9b4726" id="svg_21" transform="matrix(1, 0, 0, 1, 0, 0)"/>
     <path d="m306.743,381.821l0,53.619c-10.418,5.772 -19.773,18.953 -27.206,37.308c-3.783,9.342 -7.069,0.611 -9.743,12.338l-43.36,10.816c17.299,-29.241 9.97,-43.387 42.387,-55.06c6.129,-2.207 12.446,-4.018 18.922,-5.403l0,-53.619l19,0l0,0.001z" fill="#9b4726" id="svg_22"/>
     <path d="m445.372,504.5l-253.398,0c17.3,-29.24 44.43,-51.98 76.849,-63.65c0,0 46.089,65.819 144.029,25.45l0.01,-0.01c12.89,10.76 23.91,23.69 32.51,38.21z" fill="#b3e59f" id="svg_23"/>
     <path d="m268.824,440.85c-32.42,11.67 -59.55,34.41 -76.849,63.65l77.819,0c4.209,-18.458 9.933,-34.325 16.727,-46.454c-11.88,-8.896 -17.697,-17.196 -17.697,-17.196z" fill="#95d6a4" id="svg_24"/>
     <path d="m436.732,86.091c4.139,-35.61 -45.302,-78.591 -118.348,-78.591s-122.487,42.981 -118.348,78.591" fill="#9d6b6b" id="svg_25"/>
     <path d="m282.326,86.091l-82.29,0c-4.13,-35.61 45.31,-78.59 118.35,-78.59c-22.25,0 -37.32,42.98 -36.06,78.59z" fill="#8b5e5e" id="svg_26"/>
     <g fill="#ffcbbe" id="svg_27" transform="matrix(1, 0, 0, 1, 0, 0)">
      <circle cx="180.552" cy="271.858" fill="#9b4726" id="svg_28" r="39.704"/>
      <circle cx="456.223" cy="271.858" fill="#9b4726" id="svg_29" r="39.704"/>
     </g>
     <path d="m436.337,181.316l0,93.723c0,60.026 -48.66,108.687 -108.687,108.687l-18.522,0c-60.026,0 -108.697,-48.661 -108.697,-108.687l0,-93.723c7.317,1.583 14.914,2.415 22.702,2.415c41.414,0 77.346,-23.443 95.256,-57.781c17.911,34.338 53.842,57.781 95.246,57.781c7.788,0.001 15.385,-0.831 22.702,-2.415z" fill="#d87852" id="svg_30" transform="matrix(1, 0, 0, 1, 0, 0)"/>
     <path d="m350.977,381.208c-7.507,1.654 -15.315,2.516 -23.323,2.516l-18.522,0c-60.026,0 -108.697,-48.661 -108.697,-108.687l0,-93.723c7.317,1.583 14.914,2.415 22.702,2.415c15.084,0 29.447,-3.117 42.466,-8.73l0,100.037c0,52.019 36.553,95.508 85.374,106.172z" fill="#9b4726" id="svg_31" transform="matrix(1, 0, 0, 1, 0, 0)"/>
     <path d="m436.732,86.091c-78.086,-16 -158.61,-16 -236.697,0c-11.248,2.305 -19.289,12.263 -19.289,23.744c0,15.156 13.756,26.644 28.651,23.842c72.024,-13.547 145.949,-13.547 217.973,0c14.895,2.802 28.651,-8.686 28.651,-23.842c0,-11.481 -8.041,-21.439 -19.289,-23.744z" fill="#b3e59f" id="svg_32"/>
     <path d="m265.117,125.935c-18.65,1.68 -37.25,4.26 -55.72,7.74c-1.52,0.29 -3.02,0.42 -4.5,0.42c-13.05,0 -24.15,-10.65 -24.15,-24.26c0,-11.49 8.04,-21.44 19.29,-23.75c21.22,-4.35 42.62,-7.51 64.11,-9.49c-6.98,5.86 -11.3,14.66 -11.3,24.28c0,10.3 4.86,19.3 12.27,25.06z" fill="#95d6a4" id="svg_33"/>
     <g fill="#e04b66" id="svg_34">
      <circle cx="390.718" cy="291.905" fill="#ba1084" id="svg_35" r="14.964"/>
      <circle cx="246.05" cy="291.905" fill="#ba1084" id="svg_36" r="14.964"/>
     </g>
     <g id="svg_37">
      <path d="m318.384,67.744l-10.304,0c-10.471,0 -18.96,-8.489 -18.96,-18.96l0,-19.171l10.304,0c10.471,0 18.96,8.489 18.96,18.96l0,19.171z" fill="#ffc250" id="svg_38"/>
      <path d="m318.387,67.533l0,0.213l-10.307,0c-10.473,0 -18.96,-8.487 -18.96,-18.96l0,-19.173l10.307,0c0.967,0 1.92,0.073 2.847,0.213l0,18.96c0,9.507 6.993,17.374 16.113,18.747z" fill="#e7a52e" id="svg_39"/>
      <path d="m318.384,105.876l-10.304,0c-10.471,0 -18.96,-8.489 -18.96,-18.96l0,-19.172l10.304,0c10.471,0 18.96,8.489 18.96,18.96l0,19.172z" fill="#ffc250" id="svg_40"/>
      <path d="m318.387,105.665l0,0.213l-10.307,0c-10.473,0 -18.96,-8.487 -18.96,-18.96l0,-19.174l10.307,0c0.967,0 1.92,0.073 2.847,0.213l0,18.96c0,9.508 6.993,17.374 16.113,18.748z" fill="#e7a52e" id="svg_41"/>
      <path d="m318.384,144.008l-10.304,0c-10.471,0 -18.96,-8.489 -18.96,-18.96l0,-19.172l10.304,0c10.471,0 18.96,8.489 18.96,18.96l0,19.172z" fill="#ffc250" id="svg_42"/>
      <path d="m318.387,143.797l0,0.213l-10.307,0c-10.473,0 -18.96,-8.487 -18.96,-18.96l0,-19.174l10.307,0c0.967,0 1.92,0.073 2.847,0.213l0,18.96c0,9.507 6.993,17.374 16.113,18.748z" fill="#e7a52e" id="svg_43"/>
      <path d="m318.384,67.744l10.304,0c10.471,0 18.96,-8.489 18.96,-18.96l0,-19.171l-10.304,0c-10.471,0 -18.96,8.489 -18.96,18.96l0,19.171z" fill="#ffc250" id="svg_44"/>
      <path d="m347.644,29.613l0,0.08c-9.687,0.833 -17.293,8.967 -17.293,18.88l0,19.087c-0.547,0.053 -1.107,0.08 -1.667,0.08l-10.3,0l0,-19.167c0,-10.473 8.487,-18.96 18.96,-18.96l10.3,0z" fill="#e7a52e" id="svg_45"/>
      <path d="m318.384,105.876l10.304,0c10.471,0 18.96,-8.489 18.96,-18.96l0,-19.172l-10.304,0c-10.471,0 -18.96,8.489 -18.96,18.96l0,19.172z" fill="#ffc250" id="svg_46"/>
      <path d="m347.644,67.744l0,0.08c-9.687,0.833 -17.293,8.967 -17.293,18.88l0,19.087c-0.547,0.053 -1.107,0.08 -1.667,0.08l-10.3,0l0,-19.166c0,-10.473 8.487,-18.96 18.96,-18.96l10.3,0l0,-0.001z" fill="#e7a52e" id="svg_47"/>
      <path d="m318.384,144.008l10.304,0c10.471,0 18.96,-8.489 18.96,-18.96l0,-19.172l-10.304,0c-10.471,0 -18.96,8.489 -18.96,18.96l0,19.172z" fill="#ffc250" id="svg_48"/>
      <path d="m347.644,105.876l0,0.08c-9.687,0.833 -17.293,8.967 -17.293,18.88l0,19.087c-0.547,0.053 -1.107,0.08 -1.667,0.08l-10.3,0l0,-19.167c0,-10.473 8.487,-18.96 18.96,-18.96l10.3,0z" fill="#e7a52e" id="svg_49"/>
     </g>
    </g>
    <path d="m63.596,441.252l-5.106,0c-12.385,0 -22.425,10.04 -22.425,22.425l0,18.398c0,12.385 10.04,22.425 22.425,22.425l5.106,0c12.385,0 22.425,-10.04 22.425,-22.425l0,-18.398c0,-12.385 -10.04,-22.425 -22.425,-22.425z" fill="#d87852" id="svg_50"/>
    <path d="m71.514,503.055c-2.46,0.93 -5.13,1.44 -7.92,1.44l-5.11,0c-12.38,0 -22.42,-10.04 -22.42,-22.42l0,-18.4c0,-12.38 10.04,-22.42 22.42,-22.42l5.11,0c2.79,0 5.46,0.51 7.92,1.44c-8.47,3.2 -14.5,11.39 -14.5,20.98l0,18.4c0,9.59 6.03,17.78 14.5,20.98z" fill="#9b4726" id="svg_51"/>
   </g>
   <g id="svg_52">
    <path d="m503.422,271.854c0,-14.533 -6.606,-27.549 -16.968,-36.215c9.721,-13.208 15.013,-29.162 15.013,-45.759c0,-28.68 -15.586,-54.498 -40.349,-67.928c1.562,-3.791 2.394,-7.894 2.394,-12.112c0,-7.272 -2.522,-14.39 -7.102,-20.041c-3.215,-3.969 -7.342,-7.079 -11.971,-9.091c-0.351,-12.964 -6.286,-26.471 -17.132,-38.651c-23.451,-26.335 -64.17,-42.057 -108.923,-42.057s-85.472,15.722 -108.924,42.057c-10.847,12.181 -16.782,25.689 -17.132,38.655c-11.353,4.947 -19.082,16.332 -19.082,29.128c0,4.288 0.856,8.378 2.398,12.113c-24.762,13.43 -40.347,39.248 -40.347,67.927c0,16.593 5.291,32.549 15.012,45.764c-10.359,8.666 -16.963,21.679 -16.963,36.21c0,7.921 1.97,15.388 5.433,21.95c-3.447,8.877 -5.196,18.248 -5.196,27.916c0,16.188 4.956,31.698 14.333,44.853c1.463,2.053 3.771,3.147 6.114,3.147c1.506,0 3.027,-0.452 4.347,-1.393c3.373,-2.404 4.159,-7.087 1.754,-10.46c-7.554,-10.599 -11.547,-23.098 -11.547,-36.147c0,-4.708 0.527,-9.322 1.543,-13.814c8.223,6.95 18.839,11.152 30.423,11.152c6.799,0 13.372,-1.429 19.419,-4.168c13.054,35.64 43.095,63.16 80.268,72.705l0,41.905c-16.647,4.265 -32.361,11.303 -46.545,20.656c-15.596,-1.133 -28.029,-14.322 -28.029,-30.126c0,-8.748 3.8,-17.064 10.426,-22.816c2.364,-2.052 3.205,-5.355 2.109,-8.288s-3.896,-4.876 -7.026,-4.876l-0.26,0c-10.931,0 -21.672,-2.862 -31.063,-8.277c-3.588,-2.069 -8.175,-0.838 -10.244,2.75s-0.837,8.175 2.75,10.244c7.507,4.329 15.705,7.345 24.208,8.944c-3.827,6.733 -5.901,14.407 -5.901,22.318c0,18.577 11.483,34.731 27.717,41.634c-12.907,11.007 -24.067,24.152 -32.861,39.017c-1.372,2.318 -1.395,5.194 -0.06,7.534c1.334,2.34 3.821,3.785 6.515,3.785l253.398,0c2.694,0 5.181,-1.444 6.515,-3.785c1.334,-2.34 1.312,-5.216 -0.06,-7.534c-8.837,-14.938 -20.063,-28.139 -33.05,-39.178c16.026,-6.993 27.32,-23.041 27.32,-41.473c0,-7.914 -2.072,-15.586 -5.896,-22.315c35.81,-6.748 62.986,-38.258 62.986,-75.995c0,-9.645 -1.75,-19.017 -5.197,-27.918c3.463,-6.561 5.433,-14.026 5.433,-21.947zm-47.203,32.204c-5.355,0 -10.51,-1.307 -15.149,-3.791c1.651,-7.431 2.59,-15.125 2.738,-23.011c2.383,-3.273 6.044,-5.159 11.14,-5.742c5.027,-0.576 9.428,0.42 9.568,0.453c4.016,0.968 8.056,-1.491 9.041,-5.504c0.987,-4.023 -1.474,-8.084 -5.496,-9.071c-0.672,-0.166 -6.785,-1.591 -14.254,-0.841c-3.625,0.364 -6.955,1.182 -9.97,2.415l0,-16.842c3.905,-1.624 8.118,-2.473 12.382,-2.473c17.757,0 32.203,14.446 32.203,32.204s-14.446,32.203 -32.203,32.203zm30.248,-114.178c0,13.874 -4.579,27.193 -12.978,38.057c-5.353,-2.113 -11.175,-3.286 -17.27,-3.286c-4.199,0 -8.363,0.565 -12.382,1.656l0,-44.987c0,-2.267 -1.025,-4.412 -2.79,-5.836c-1.764,-1.424 -4.078,-1.973 -6.293,-1.495c-6.89,1.487 -13.995,2.241 -21.117,2.241c-26.668,0 -51.797,-10.485 -70.431,-29.077c5.274,-3.475 9.233,-8.783 10.969,-15.012c24.064,1.48 48.183,4.459 71.803,8.91c1.954,0.367 3.917,0.548 5.868,0.548c7.31,0 14.435,-2.538 20.177,-7.302c0.043,-0.035 0.082,-0.073 0.124,-0.109c21,10.529 34.32,31.887 34.32,55.692zm-146.319,-64.833c0,6.319 -5.141,11.46 -11.46,11.46l-2.804,0l0,-11.671c0,-6.319 5.141,-11.46 11.46,-11.46l2.804,0l0,11.671zm-14.264,-38.342c0,-6.319 5.141,-11.46 11.46,-11.46l2.804,0l0,11.672c0,6.319 -5.141,11.46 -11.46,11.46l-2.804,0l0,-11.672zm-29.264,-11.461l2.804,0c6.319,0 11.46,5.141 11.46,11.46l0,11.671l-2.804,0c-6.319,0 -11.46,-5.141 -11.46,-11.46l0,-11.671zm43.528,-26.46c0,6.319 -5.141,11.46 -11.46,11.46l-2.804,0l0,-11.671c0,-6.319 5.141,-11.46 11.46,-11.46l2.804,0l0,11.671zm-29.264,11.46l-2.804,0c-6.319,0 -11.46,-5.141 -11.46,-11.46l0,-11.671l2.804,0c6.319,0 11.46,5.141 11.46,11.46l0,11.671zm-14.264,53.132l2.804,0c6.319,0 11.46,5.141 11.46,11.46l0,11.671l-2.804,0c-6.319,0 -11.46,-5.141 -11.46,-11.46l0,-11.671zm-75.957,-61.343c24.314,-27.304 66.422,-37.033 97.721,-37.033c47.735,0 81.779,19.13 97.721,37.032c7.23,8.119 11.666,16.723 12.963,24.918c-6.438,-1.213 -12.969,-2.343 -19.525,-3.361c-4.091,-0.635 -7.926,2.167 -8.562,6.261c-0.636,4.093 2.167,7.926 6.261,8.562c9.456,1.468 18.872,3.159 27.986,5.026c3.73,0.764 7.113,2.825 9.527,5.805c2.423,2.989 3.757,6.753 3.757,10.598c0,5.008 -2.211,9.714 -6.067,12.913c-3.829,3.176 -8.82,4.472 -13.694,3.557c-24.21,-4.562 -48.935,-7.617 -73.603,-9.136l0,-11.298c0,-2.58 -1.303,-4.855 -3.287,-6.204c2.092,-3.785 3.287,-8.133 3.287,-12.756l0,-4.161c7.641,0.483 15.275,1.12 22.785,1.905c0.265,0.028 0.528,0.041 0.789,0.041c3.792,0 7.047,-2.867 7.45,-6.721c0.43,-4.12 -2.561,-7.809 -6.68,-8.239c-8.023,-0.838 -16.183,-1.509 -24.344,-2.012c-0.005,-2.574 -1.307,-4.842 -3.286,-6.189c2.092,-3.785 3.287,-8.133 3.287,-12.756l0,-19.172c0,-4.142 -3.358,-7.5 -7.5,-7.5l-10.304,0c-7.43,0 -14.15,3.082 -18.96,8.03c-4.811,-4.948 -11.531,-8.03 -18.96,-8.03l-10.305,0c-4.142,0 -7.5,3.358 -7.5,7.5l0,19.171c0,4.623 1.195,8.97 3.287,12.756c-1.983,1.35 -3.287,3.625 -3.287,6.204l0,0.007c-24.732,1.526 -49.522,4.607 -73.922,9.205c1.297,-8.196 5.733,-16.802 12.965,-24.923zm-19.121,41.405c26.349,-5.397 53.248,-8.962 80.079,-10.661l0,4.14c0,4.623 1.195,8.97 3.287,12.756c-1.983,1.35 -3.287,3.625 -3.287,6.204l0,11.297c-24.668,1.518 -49.397,4.575 -73.629,9.14c-1.012,0.193 -2.024,0.287 -3.094,0.287c-9.181,0 -16.65,-7.519 -16.65,-16.76c-0.001,-7.924 5.591,-14.822 13.294,-16.403zm-51.245,96.442c0,-23.801 13.316,-45.157 34.311,-55.687c5.498,4.62 12.574,7.407 20.288,7.407c1.996,0 3.983,-0.186 5.889,-0.55c23.622,-4.45 47.745,-7.43 71.808,-8.909c1.736,6.23 5.697,11.539 10.972,15.015c-18.634,18.59 -43.763,29.074 -70.429,29.074c-7.129,0 -14.238,-0.754 -21.127,-2.241c-2.216,-0.478 -4.53,0.071 -6.293,1.495c-1.764,1.424 -2.79,3.569 -2.79,5.836l0,44.983c-4.017,-1.089 -8.18,-1.653 -12.378,-1.653c-6.097,0 -11.922,1.175 -17.277,3.289c-8.396,-10.871 -12.974,-24.19 -12.974,-38.059zm30.252,114.178c-17.757,0 -32.203,-14.446 -32.203,-32.204s14.446,-32.204 32.203,-32.204c4.264,0 8.475,0.846 12.378,2.467l0,16.843c-3.013,-1.23 -6.338,-2.046 -9.959,-2.41c-7.468,-0.75 -13.582,0.675 -14.254,0.841c-4.022,0.987 -6.483,5.048 -5.496,9.071c0.987,4.022 5.046,6.483 9.071,5.496c0.041,-0.01 4.287,-0.974 9.18,-0.483c5.272,0.53 9.046,2.423 11.486,5.766c0.147,7.893 1.086,15.594 2.74,23.031c-4.629,2.481 -9.783,3.786 -15.146,3.786zm27.378,-29.018l0,-84.812c5.026,0.666 10.115,1.001 15.21,1.001c33.56,0 65.004,-14.433 86.858,-39.722l8.389,0l8.395,0c21.855,25.29 53.298,39.722 86.858,39.722c5.09,0 10.175,-0.336 15.2,-1.001l0,84.811c0,55.796 -45.394,101.19 -101.19,101.19l-18.52,0c-55.802,0.001 -101.2,-45.393 -101.2,-101.189zm101.199,116.19l18.52,0c4.897,0 9.724,-0.308 14.463,-0.899l0,45.11c0,3.538 2.472,6.594 5.931,7.334c17.823,3.814 34.587,11.115 49.411,21.266c-33.236,11.115 -63.266,10.541 -89.412,-1.764c-11.767,-5.538 -20.385,-12.483 -25.872,-17.766c2.36,-0.639 4.738,-1.223 7.138,-1.736c3.459,-0.74 5.931,-3.796 5.931,-7.334l0,-45.044c4.556,0.545 9.19,0.833 13.89,0.833zm122.33,105.77l-225.565,0c15.436,-21.111 36.499,-37.47 60.553,-47.2c5.441,6.164 16.805,17.217 34.419,25.673c12.598,6.048 29.842,11.357 51.57,11.357c16.954,0 36.641,-3.238 58.964,-11.878c7.41,6.586 14.149,13.966 20.059,22.048zm-5.609,-112.95l-0.26,0c-3.131,0 -5.932,1.945 -7.027,4.878c-1.094,2.933 -0.252,6.238 2.114,8.289c6.624,5.743 10.423,14.059 10.423,22.813c0,15.635 -12.161,28.699 -27.515,30.078c-14.165,-9.328 -29.853,-16.349 -46.472,-20.607l0,-42.06c36.905,-9.681 66.704,-37.099 79.688,-72.557c6.055,2.743 12.629,4.174 19.421,4.174c11.583,0 22.199,-4.201 30.421,-11.15c1.018,4.5 1.547,9.114 1.547,13.813c0,34.368 -27.966,62.329 -62.34,62.329z" id="svg_53"/>
    <path d="m262.365,237.013c-2.85,0 -5.484,1.262 -7.64,3.38l-4.969,-3.535c-3.375,-2.401 -8.058,-1.611 -10.459,1.764s-1.611,8.058 1.764,10.459l8.157,5.803c0,0.05 -0.005,0.098 -0.005,0.148c0,9.936 5.9,18.02 13.152,18.02s13.152,-8.083 13.152,-18.02s-5.9,-18.019 -13.152,-18.019z" id="svg_54"/>
    <path d="m387.019,236.858l-4.969,3.535c-2.156,-2.119 -4.79,-3.38 -7.64,-3.38c-7.252,0 -13.152,8.083 -13.152,18.02s5.9,18.02 13.152,18.02s13.152,-8.083 13.152,-18.02c0,-0.05 -0.005,-0.098 -0.005,-0.148l8.157,-5.803c3.375,-2.401 4.165,-7.083 1.764,-10.459s-7.085,-4.166 -10.459,-1.765z" id="svg_55"/>
    <path d="m241.707,205.968c-2.929,2.929 -2.929,7.677 0,10.606c1.464,1.465 3.384,2.197 5.303,2.197s3.839,-0.732 5.303,-2.197c5.972,-5.97 15.688,-5.97 21.657,0c2.929,2.929 7.678,2.929 10.606,0c2.929,-2.929 2.929,-7.678 0,-10.606c-11.818,-11.819 -31.049,-11.82 -42.869,0z" id="svg_56"/>
    <path d="m363.938,216.574c5.971,-5.97 15.686,-5.971 21.657,0c1.464,1.464 3.384,2.197 5.303,2.197s3.839,-0.732 5.303,-2.197c2.929,-2.929 2.929,-7.678 0,-10.606c-11.819,-11.82 -31.05,-11.819 -42.87,0c-2.929,2.929 -2.929,7.678 0,10.606c2.929,2.929 7.678,2.929 10.607,0z" id="svg_57"/>
    <path d="m348.68,290.223c1.179,-3.971 -1.084,-8.146 -5.055,-9.325c-3.97,-1.179 -8.146,1.084 -9.325,5.055c-2.07,6.971 -8.614,11.84 -15.913,11.84c-7.291,0 -13.835,-4.872 -15.916,-11.849c-1.185,-3.969 -5.363,-6.228 -9.331,-5.044c-3.969,1.184 -6.228,5.361 -5.044,9.331c3.961,13.284 16.417,22.562 30.291,22.562c13.89,0 26.347,-9.281 30.293,-22.57z" id="svg_58"/>
    <path d="m103.869,211.015l-15.455,0c-11.563,0 -21.861,5.495 -28.44,14.004c-6.579,-8.509 -16.877,-14.004 -28.44,-14.004l-15.456,0c-4.142,0 -7.5,3.358 -7.5,7.5l0,28.757c0,7.825 2.521,15.069 6.784,20.977c-3.806,0.361 -6.784,3.563 -6.784,7.464l0,28.757c0,7.825 2.521,15.068 6.784,20.976c-3.806,0.361 -6.784,3.564 -6.784,7.464l0,28.757c0,19.817 16.123,35.94 35.94,35.94l7.955,0l0,36.754c-13.627,2.792 -23.909,14.877 -23.909,29.317l0,18.398c0,16.501 13.424,29.925 29.925,29.925l5.106,0c16.501,0 29.925,-13.424 29.925,-29.925l0,-18.398c0,-15.186 -11.373,-27.757 -26.048,-29.665l0,-36.406l7.957,0c19.817,0 35.94,-16.123 35.94,-35.94l0,-28.757c0,-3.9 -2.978,-7.103 -6.784,-7.464c4.262,-5.908 6.784,-13.151 6.784,-20.976l0,-28.757c0,-3.9 -2.978,-7.103 -6.784,-7.464c4.262,-5.908 6.784,-13.151 6.784,-20.977l0,-28.757c0,-4.142 -3.358,-7.5 -7.5,-7.5zm-15.455,15l7.956,0l0,21.257c0,11.546 -9.394,20.94 -20.94,20.94l-7.956,0l0,-21.257c0,-11.547 9.393,-20.94 20.94,-20.94zm-64.836,57.197l7.956,0c11.546,0 20.94,9.394 20.94,20.94l0,21.257l-7.956,0c-11.546,0 -20.94,-9.394 -20.94,-20.94l0,-21.257zm72.791,21.257c0,11.546 -9.394,20.94 -20.94,20.94l-7.956,0l0,-21.257c0,-11.546 9.394,-20.94 20.94,-20.94l7.956,0l0,21.257zm-72.791,-78.454l7.956,0c11.546,0 20.94,9.394 20.94,20.94l0,21.257l-7.956,0c-11.546,0 -20.94,-9.394 -20.94,-20.94l0,-21.257zm0,135.651l0,-21.257l7.956,0c11.546,0 20.94,9.394 20.94,20.94l0,21.257l-7.956,0c-11.546,0 -20.94,-9.394 -20.94,-20.94zm54.943,102.011l0,18.398c0,8.23 -6.695,14.925 -14.925,14.925l-5.106,0c-8.23,0 -14.925,-6.695 -14.925,-14.925l0,-18.398c0,-8.229 6.695,-14.925 14.925,-14.925l5.106,0c8.23,0 14.925,6.695 14.925,14.925zm17.848,-102.011c0,11.546 -9.394,20.94 -20.94,20.94l-7.956,0l0,-21.257c0,-11.546 9.394,-20.94 20.94,-20.94l7.956,0l0,21.257z" id="svg_59"/>
   </g>
  </g>
 </g>
</svg>