<?xml version="1.0"?>
<svg width="512" height="512" xmlns="http://www.w3.org/2000/svg" xmlns:svg="http://www.w3.org/2000/svg">

 <g class="layer">
  <title>Layer 1</title>
  <g id="svg_1">
   <g id="svg_2">
    <g id="svg_3">
     <path d="m408.346,238.719c19,-8.81 32.18,-28.07 32.18,-50.39c0,-27.52 -20,-50.34 -46.26,-54.76c-9.57,-71.179 -70.54,-126.069 -144.34,-126.069c-36.9,0 -70.59,13.72 -96.259,36.34c-25.66,22.62 -43.29,54.14 -48.08,89.73c-26.25,4.42 -46.26,27.24 -46.26,54.76c0,22.32 13.18,41.58 32.18,50.39" fill="#e569d7" id="svg_4"/>
     <path d="m249.926,7.5c-12.59,0 -24.08,13.72 -32.84,36.34c-8.75,22.62 -14.77,54.14 -16.4,89.73c-8.96,4.42 -26.36,13.57 -26.36,41.09c0,22.32 15.07,55.25 21.55,64.06l-104.369,0c-19,-8.81 -32.18,-28.07 -32.18,-50.39c0,-27.52 20.01,-50.34 46.26,-54.76c4.79,-35.59 22.42,-67.11 48.08,-89.73c25.67,-22.62 59.359,-36.34 96.259,-36.34z" fill="#c916b7" id="svg_5" transform="matrix(1, 0, 0, 1, 0, 0)"/>
     <g id="svg_6">
      <path d="m418.151,476.66c-1.919,-7.072 -8.271,-11.75 -15.249,-11.86l25.006,-6.784c8.566,-2.324 13.626,-11.152 11.303,-19.718c-1.919,-7.072 -8.271,-11.75 -15.249,-11.86l17.289,-4.69c8.566,-2.324 13.626,-11.152 11.302,-19.718c-2.324,-8.566 -11.152,-13.626 -19.718,-11.303l-187.711,50.924l131.795,62.847l29.929,-8.119c8.567,-2.325 13.627,-11.153 11.303,-19.719z" fill="#ede6e3" id="svg_7"/>
      <path d="m81.713,476.66c1.919,-7.072 8.271,-11.75 15.249,-11.86l-25.006,-6.784c-8.566,-2.324 -13.626,-11.152 -11.303,-19.718c1.919,-7.072 8.271,-11.75 15.249,-11.86l-17.289,-4.69c-8.566,-2.324 -13.626,-11.152 -11.302,-19.718c2.324,-8.566 11.152,-13.626 19.718,-11.303l187.711,50.924l-131.795,62.847l-29.929,-8.119c-8.567,-2.325 -13.627,-11.153 -11.303,-19.719z" fill="#ede6e3" id="svg_8"/>
      <g fill="#d8cec9" id="svg_9">
       <path d="m133.793,499.32l-10.85,5.18l-29.93,-8.12c-8.57,-2.32 -13.63,-11.15 -11.3,-19.72c1.92,-7.07 8.27,-11.75 15.25,-11.86l-25.01,-6.78c-8.57,-2.33 -13.63,-11.15 -11.3,-19.72c0.96,-3.54 3.03,-6.47 5.73,-8.54s6.03,-3.26 9.52,-3.32l-17.29,-4.69c-8.57,-2.32 -13.63,-11.15 -11.31,-19.72c1.95,-7.15 8.43,-11.87 15.5,-11.87c1.39,0 2.81,0.19 4.22,0.57l14.55,3.95c-2.01,1.95 -3.55,4.45 -4.34,7.35c-2.32,8.57 2.74,17.4 11.31,19.72l17.28,4.69c-3.48,0.06 -6.82,1.25 -9.52,3.32s-4.76,5 -5.72,8.54c-2.33,8.57 2.73,17.39 11.3,19.72l25,6.78c-6.97,0.11 -13.33,4.79 -15.24,11.86c-2.33,8.57 2.73,17.4 11.3,19.72l10.85,2.94z" id="svg_10"/>
       <path d="m366.064,499.319l10.85,5.18l29.93,-8.12c8.57,-2.32 13.63,-11.15 11.3,-19.72c-1.92,-7.07 -8.27,-11.75 -15.25,-11.86l25.01,-6.78c8.57,-2.33 13.63,-11.15 11.3,-19.72c-0.96,-3.54 -3.03,-6.47 -5.73,-8.54s-6.03,-3.26 -9.52,-3.32l17.29,-4.69c8.57,-2.32 13.63,-11.15 11.31,-19.72c-1.95,-7.15 -8.43,-11.87 -15.5,-11.87c-1.39,0 -2.81,0.19 -4.22,0.57l-14.55,3.95c2.01,1.95 3.55,4.45 4.34,7.35c2.32,8.57 -2.74,17.4 -11.31,19.72l-17.28,4.69c3.48,0.06 6.82,1.25 9.52,3.32s4.76,5 5.72,8.54c2.33,8.57 -2.73,17.39 -11.3,19.72l-25,6.78c6.97,0.11 13.33,4.79 15.24,11.86c2.33,8.57 -2.73,17.4 -11.3,19.72l-10.85,2.94z" id="svg_11"/>
      </g>
     </g>
     <g id="svg_12">
      <path d="m376.921,504.497l-253.978,0c20.62,-34.85 55.16,-60.48 95.979,-69.22l0,-53.73l62.01,0l0,53.73c40.82,8.741 75.369,34.371 95.989,69.22z" fill="#96573f" id="svg_13"/>
      <g fill="#ffcbbe" id="svg_14">
       <path d="m280.932,381.548l0,23.55c-7.03,1.43 -14.31,2.18 -21.76,2.18l-18.48,0c-7.46,0 -14.74,-0.75 -21.77,-2.18l0,-23.55l62.01,0z" fill="#5b2c10" id="svg_15"/>
       <path d="m236.83,381.539l0,53.742c-17.249,8.73 -31.842,34.368 -40.552,69.217l-73.336,0c20.617,-34.849 55.165,-60.487 95.977,-69.217l0,-53.742l17.911,0z" fill="#5b2c10" id="svg_16"/>
      </g>
     </g>
     <g fill="#ffcbbe" id="svg_17">
      <circle cx="112.408" cy="272.387" fill="#96573f" id="svg_18" r="39.613"/>
      <circle cx="387.45" cy="272.387" fill="#96573f" id="svg_19" r="39.613"/>
     </g>
     <path d="m367.616,192.579l0,82.98c0,59.89 -48.56,108.439 -108.449,108.439l-18.48,0c-59.89,0 -108.439,-48.55 -108.439,-108.439l0,-82.98c0,-0.67 0.01,-1.34 0.03,-2c3.98,1.77 8.38,2.76 13.01,2.76c12.9,0 24.01,-7.66 29.04,-18.68c5.85,6.78 14.5,11.08 24.16,11.08c11.92,0 22.3,-6.53 27.78,-16.2c5.84,6.45 14.28,10.5 23.66,10.5c9.39,0 17.82,-4.05 23.66,-10.5c5.49,9.67 15.87,16.2 27.78,16.2c9.66,0 18.31,-4.3 24.17,-11.08c5.03,11.02 16.14,18.68 29.04,18.68c4.64,0 9.04,-0.99 13.01,-2.76c0.018,0.66 0.028,1.33 0.028,2z" fill="#96573f" id="svg_20" transform="matrix(1, 0, 0, 1, 0, 0)"/>
     <path d="m283.816,381.178c-7.92,1.85 -16.17,2.82 -24.64,2.82l-18.48,0c-59.9,0 -108.449,-48.55 -108.449,-108.439l0,-82.98c0,-0.67 0.01,-1.34 0.03,-2c3.98,1.77 8.38,2.76 13.01,2.76c12.9,0 24.01,-7.66 29.04,-18.68c5.85,6.78 14.5,11.08 24.16,11.08c0.58,0 1.16,-0.02 1.73,-0.05c-0.13,2.28 -0.2,4.58 -0.2,6.89l0,82.98c0,51.409 35.779,94.469 83.799,105.619z" fill="#5b2c10" id="svg_21" transform="matrix(1, 0, 0, 1, 0, 0)"/>
    </g>
    <g fill="#e04b66" id="svg_22">
     <path d="m459.629,27.455c-7.515,-7.515 -19.698,-7.515 -27.213,0l-5.024,5.024l-5.024,-5.024c-7.515,-7.515 -19.698,-7.515 -27.213,0s-7.515,19.698 0,27.213l32.237,32.237l32.237,-32.237c7.515,-7.515 7.515,-19.698 0,-27.213z" id="svg_23"/>
     <path d="m163.645,45.884c-7.515,-7.515 -19.698,-7.515 -27.213,0l-5.024,5.024l-5.024,-5.024c-7.515,-7.515 -19.698,-7.515 -27.213,0s-7.515,19.698 0,27.213l32.237,32.237l32.237,-32.237c7.514,-7.514 7.514,-19.698 0,-27.213z" id="svg_24"/>
    </g>
   </g>
   <g id="svg_25">
    <path d="m437.063,382.66c-2.062,0 -4.142,0.279 -6.194,0.832l-52.52,14.25c-3.998,1.084 -6.359,5.205 -5.274,9.202c1.085,3.998 5.206,6.36 9.202,5.274l52.507,-14.247c4.738,-1.274 9.324,1.569 10.532,6.026c1.239,4.556 -1.467,9.273 -6.026,10.514l-17.29,4.69c-3.604,0.978 -5.94,4.458 -5.479,8.165s3.579,6.508 7.313,6.573c1.829,0.031 3.635,0.661 5.085,1.772c1.504,1.153 2.56,2.727 3.055,4.55c1.236,4.56 -1.47,9.28 -6.023,10.52l-25.01,6.78c-3.607,0.978 -5.943,4.461 -5.479,8.17c0.464,3.708 3.587,6.509 7.323,6.568c3.792,0.06 7.136,2.662 8.129,6.321c1.235,4.561 -1.47,9.282 -6.024,10.521l-24.545,6.659c-18.443,-28.689 -45.845,-50.489 -77.552,-62.02l50.795,-13.782c3.998,-1.084 6.359,-5.205 5.274,-9.202c-1.084,-3.997 -5.202,-6.356 -9.202,-5.274l-61.224,16.612l0,-34.381c36.88,-9.628 66.665,-37.002 79.64,-72.417c6.039,2.733 12.597,4.159 19.371,4.159c25.978,0 47.113,-21.135 47.113,-47.113c0,-12.647 -5.019,-24.137 -13.157,-32.609c16.456,-11.686 26.621,-30.853 26.621,-51.444c0,-29.038 -19.513,-53.877 -47.126,-61.01c-5.853,-34.388 -23.389,-65.862 -49.758,-89.104c-27.962,-24.643 -63.908,-38.215 -101.218,-38.215c-34.564,0 -68.208,11.759 -95.184,33.182c-8.195,-1.451 -16.942,0.918 -23.33,7.124c-10.448,-10.149 -27.206,-10.059 -37.541,0.275c-10.427,10.427 -10.427,27.393 0,37.819l15.01,15.01c-4.612,10.879 -7.941,22.247 -9.928,33.918c-8.85,2.309 -17.143,6.544 -24.237,12.413c-3.191,2.64 -3.638,7.368 -0.998,10.56c1.483,1.793 3.625,2.719 5.783,2.719c1.684,0 3.377,-0.564 4.776,-1.721c6.489,-5.368 14.288,-8.941 22.555,-10.333c3.24,-0.546 5.748,-3.137 6.187,-6.394c1.369,-10.148 3.86,-20.066 7.412,-29.612l5.677,5.677c1.406,1.407 3.314,2.197 5.303,2.197s3.897,-0.79 5.303,-2.197l32.238,-32.237c10.301,-10.301 10.418,-26.979 0.366,-37.434c23.378,-16.803 51.633,-25.966 80.608,-25.966c33.655,0 66.079,12.241 91.297,34.469c24.996,22.031 41.193,52.254 45.609,85.101c0.438,3.258 2.946,5.851 6.188,6.396c23.181,3.902 40.005,23.821 40.005,47.364c0,17.403 -9.529,33.471 -24.558,41.906c-6.332,-3.171 -13.468,-4.966 -21.018,-4.966c-4.184,0 -8.334,0.562 -12.34,1.647l0,-31.86c11.609,-7.098 18.89,-19.81 18.89,-33.648c0,-4.142 -3.358,-7.5 -7.5,-7.5s-7.5,3.358 -7.5,7.5c0,9.631 -5.68,18.393 -14.464,22.32c-3.14,1.4 -6.489,2.11 -9.956,2.11c-9.533,0 -18.253,-5.611 -22.217,-14.294c-1.061,-2.324 -3.231,-3.948 -5.759,-4.31c-2.528,-0.36 -5.067,0.587 -6.738,2.52c-4.66,5.392 -11.401,8.484 -18.495,8.484c-8.769,0 -16.915,-4.752 -21.258,-12.403c-1.188,-2.093 -3.309,-3.488 -5.701,-3.752c-2.393,-0.262 -4.766,0.638 -6.381,2.421c-4.622,5.105 -11.219,8.034 -18.1,8.034s-13.478,-2.928 -18.1,-8.034c-1.616,-1.785 -3.987,-2.682 -6.385,-2.421c-2.394,0.265 -4.514,1.664 -5.701,3.759c-4.132,7.297 -11.579,11.917 -19.922,12.356c-0.439,0.023 -0.885,0.04 -1.332,0.04c-7.095,0 -13.832,-3.091 -18.481,-8.48c-1.669,-1.935 -4.208,-2.885 -6.739,-2.525c-2.53,0.361 -4.701,1.986 -5.762,4.311c-3.963,8.683 -12.684,14.294 -22.217,14.294c-3.458,0 -6.81,-0.711 -9.951,-2.108c-8.795,-3.928 -14.479,-12.69 -14.479,-22.322c0,-4.142 -3.358,-7.5 -7.5,-7.5s-7.5,3.358 -7.5,7.5c0,13.834 7.277,26.541 18.89,33.643l0,31.864c-4.005,-1.085 -8.156,-1.646 -12.341,-1.646c-7.552,0 -14.689,1.796 -21.022,4.968c-15.031,-8.435 -24.562,-24.504 -24.562,-41.908c0,-5.494 0.916,-10.875 2.723,-15.994c1.379,-3.906 -0.67,-8.19 -4.576,-9.568c-3.908,-1.379 -8.19,0.67 -9.568,4.576c-2.375,6.727 -3.578,13.788 -3.578,20.986c0,20.593 10.167,39.762 26.625,51.447c-8.137,8.471 -13.155,19.96 -13.155,32.606c0,25.978 21.135,47.113 47.113,47.113c6.783,0 13.34,-1.425 19.373,-4.157c12.976,35.415 42.764,62.79 79.646,72.416l0,34.371l-142.44,-38.637c-2.04,-0.549 -4.119,-0.828 -6.182,-0.828c-10.605,0 -19.952,7.159 -22.727,17.402c-3.409,12.539 4.024,25.514 16.574,28.926l0.163,0.044c-1.532,2.196 -2.68,4.654 -3.398,7.305c-3.397,12.534 4.036,25.507 16.577,28.921l7.906,2.143c-1.527,2.179 -2.701,4.637 -3.423,7.299c-3.393,12.534 4.04,25.505 16.575,28.917l29.92,8.12c0.64,0.174 1.301,0.262 1.964,0.262l0.01,0l0,-0.002l253.956,0c0.008,0 0.015,0.002 0.023,0.002c0.663,0 1.324,-0.088 1.964,-0.262l29.936,-8.122c12.53,-3.411 19.963,-16.383 16.568,-28.922c-0.722,-2.659 -1.895,-5.116 -3.421,-7.293l7.913,-2.145c12.533,-3.412 19.966,-16.384 16.569,-28.92c-0.719,-2.65 -1.867,-5.108 -3.398,-7.304l0.169,-0.046c12.543,-3.415 19.975,-16.39 16.569,-28.918c-2.778,-10.249 -12.124,-17.408 -22.729,-17.408zm-278.722,-314.866l-26.934,26.934l-26.934,-26.934c-4.578,-4.579 -4.578,-12.028 0,-16.606c2.29,-2.29 5.296,-3.434 8.303,-3.434s6.014,1.145 8.303,3.434l5.024,5.024c1.407,1.407 3.314,2.197 5.303,2.197s3.897,-0.791 5.304,-2.197l5.023,-5.024c4.578,-4.579 12.028,-4.579 16.606,0c4.581,4.578 4.581,12.027 0.002,16.606zm229.105,172.476c17.707,0 32.113,14.406 32.113,32.113s-14.406,32.113 -32.113,32.113c-5.337,0 -10.474,-1.302 -15.098,-3.776c1.646,-7.407 2.581,-15.077 2.73,-22.937c2.375,-3.262 6.023,-5.141 11.102,-5.722c5.01,-0.574 9.393,0.417 9.541,0.451c4.014,0.964 8.056,-1.491 9.041,-5.504c0.987,-4.023 -1.473,-8.084 -5.496,-9.071c-0.671,-0.165 -6.772,-1.587 -14.228,-0.839c-3.61,0.363 -6.927,1.176 -9.932,2.402l0,-16.766c3.892,-1.619 8.09,-2.464 12.34,-2.464zm-275.04,64.226c-17.707,0 -32.113,-14.406 -32.113,-32.113s14.406,-32.113 32.113,-32.113c4.252,0 8.45,0.843 12.341,2.459l0,16.767c-3.003,-1.224 -6.318,-2.037 -9.926,-2.399c-7.452,-0.746 -13.556,0.675 -14.228,0.839c-4.009,0.984 -6.451,5.018 -5.487,9.032c0.965,4.014 5.009,6.492 9.028,5.544c0.044,-0.01 4.475,-1.032 9.545,-0.452c5.074,0.581 8.721,2.456 11.096,5.713c0.148,7.864 1.084,15.539 2.73,22.949c-4.614,2.473 -9.752,3.774 -15.099,3.774zm27.341,-28.937l0,-75.117c1.824,0.257 3.671,0.397 5.54,0.397c12.048,0 23.292,-5.548 30.675,-14.681c6.549,4.568 14.389,7.081 22.525,7.081c0.713,0 1.427,-0.023 2.125,-0.061c10.436,-0.55 20.002,-5.142 26.886,-12.652c6.537,4.52 14.363,7.012 22.429,7.012c8.075,0 15.908,-2.497 22.449,-7.026c7.384,8.001 17.876,12.726 28.991,12.726c8.135,0 15.978,-2.514 22.532,-7.084c7.383,9.134 18.627,14.684 30.677,14.684c1.866,0 3.709,-0.14 5.53,-0.395l0,75.115c0,55.658 -45.281,100.939 -100.939,100.939l-18.479,0c-55.66,0.001 -100.941,-45.28 -100.941,-100.938zm-50.797,203.066c0.995,-3.665 4.339,-6.267 8.131,-6.327c3.736,-0.059 6.859,-2.86 7.323,-6.568s-1.873,-7.192 -5.479,-8.17l-25.002,-6.778c-4.562,-1.242 -7.267,-5.961 -6.031,-10.521c0.495,-1.824 1.551,-3.398 3.054,-4.55c1.451,-1.112 3.257,-1.742 5.086,-1.773c3.734,-0.064 6.853,-2.866 7.313,-6.573c0.461,-3.706 -1.875,-7.187 -5.479,-8.165l-17.286,-4.689c-4.564,-1.241 -7.269,-5.958 -6.029,-10.521c1.206,-4.45 5.866,-7.273 10.518,-6.023l132.011,35.808c-31.71,11.531 -59.119,33.331 -77.572,62.023l-24.525,-6.656c-4.561,-1.24 -7.266,-5.961 -6.033,-10.517zm47.905,18.373c20.223,-27.66 50.062,-47.203 83.638,-54.383c3.459,-0.74 5.932,-3.796 5.932,-7.334l0,-44.66c4.675,0.576 9.434,0.878 14.262,0.878l18.479,0c4.831,0 9.591,-0.302 14.269,-0.878l0,44.661c0,3.538 2.472,6.594 5.932,7.334c33.582,7.181 63.417,26.721 83.632,54.383l-226.144,0l0,-0.001z" id="svg_26"/>
    <path d="m194.034,232.621c-7.236,0 -13.123,8.065 -13.123,17.979s5.887,17.979 13.123,17.979s13.123,-8.065 13.123,-17.979s-5.887,-17.979 -13.123,-17.979z" id="svg_27"/>
    <path d="m305.824,232.621c-7.236,0 -13.123,8.065 -13.123,17.979s5.887,17.979 13.123,17.979s13.123,-8.065 13.123,-17.979s-5.887,-17.979 -13.123,-17.979z" id="svg_28"/>
    <path d="m194.81,197.771c-8.083,0 -15.683,3.148 -21.398,8.864c-2.929,2.929 -2.929,7.678 0,10.606c2.929,2.93 7.678,2.929 10.606,0c2.883,-2.883 6.715,-4.47 10.792,-4.47s7.909,1.587 10.792,4.47c1.464,1.465 3.384,2.197 5.303,2.197s3.839,-0.732 5.303,-2.197c2.929,-2.929 2.929,-7.677 0,-10.606c-5.716,-5.716 -13.315,-8.864 -21.398,-8.864z" id="svg_29"/>
    <path d="m295.387,217.241c2.883,-2.882 6.715,-4.47 10.792,-4.47s7.909,1.588 10.792,4.47c1.464,1.464 3.384,2.197 5.303,2.197s3.839,-0.732 5.303,-2.197c2.929,-2.929 2.929,-7.678 0,-10.606c-11.798,-11.798 -30.997,-11.799 -42.796,0c-2.929,2.929 -2.929,7.678 0,10.606c2.929,2.929 7.678,2.929 10.606,0z" id="svg_30"/>
    <path d="m280.17,280.714c1.179,-3.971 -1.084,-8.146 -5.055,-9.325c-3.971,-1.178 -8.145,1.084 -9.325,5.055c-2.063,6.948 -8.585,11.801 -15.86,11.801c-7.267,0 -13.79,-4.856 -15.863,-11.809c-1.185,-3.969 -5.36,-6.227 -9.331,-5.044c-3.969,1.184 -6.228,5.361 -5.044,9.331c3.954,13.261 16.388,22.523 30.238,22.523c13.865,-0.001 26.3,-9.266 30.24,-22.532z" id="svg_31"/>
    <path d="m464.932,22.152c-5.051,-5.051 -11.767,-7.833 -18.91,-7.833c-7.012,0 -13.613,2.681 -18.63,7.558c-10.448,-10.152 -27.205,-10.06 -37.541,0.275c-10.426,10.427 -10.426,27.393 0,37.819l32.237,32.237c1.464,1.464 3.384,2.197 5.303,2.197s3.839,-0.732 5.303,-2.197l32.237,-32.237c10.428,-10.427 10.428,-27.392 0.001,-37.819zm-10.606,27.213l-26.934,26.934l-26.934,-26.934c-4.579,-4.578 -4.579,-12.028 0,-16.606c2.289,-2.289 5.296,-3.434 8.303,-3.434s6.014,1.145 8.303,3.434l5.024,5.024c2.929,2.929 7.678,2.929 10.606,0l5.025,-5.024c2.217,-2.218 5.166,-3.439 8.302,-3.439c3.137,0 6.085,1.221 8.303,3.439c4.58,4.578 4.58,12.027 0.002,16.606z" id="svg_32"/>
   </g>
  </g>
 </g>
</svg>