<svg id="Capa_1" enable-background="new 0 0 512 512" height="512" viewBox="0 0 512 512" width="512" xmlns="http://www.w3.org/2000/svg"><g><g><path d="m65.646 331.137h27.941v146.988h-27.941z" fill="#365e7d"/><path d="m65.646 331.137h13.26v146.988h-13.26z" fill="#2b4d66"/><g><path d="m394.1 219.219c0 23.725 19.233 42.959 42.959 42.959 23.725 0 42.959-19.233 42.959-42.959 0-9.564-3.129-18.396-8.415-25.535 18.867-4.532 32.892-21.504 32.892-41.761 0-20.335-14.134-37.358-33.112-41.812 1.77-4.704 2.745-9.798 2.745-15.121 0-23.725-19.233-42.959-42.959-42.959-6.023 0-11.754 1.244-16.957 3.483-4.008-19.573-21.327-34.296-42.085-34.296-11.862 0-22.601 4.808-30.375 12.581-8.399-15.653-24.915-26.3-43.922-26.3s-35.523 10.647-43.922 26.3c-7.774-7.773-18.513-12.581-30.375-12.581-20.758 0-38.077 14.723-42.085 34.296-5.203-2.238-10.934-3.483-16.957-3.483-23.725 0-42.959 19.233-42.959 42.959 0 5.323.975 10.416 2.745 15.121-18.977 4.453-33.112 21.476-33.112 41.812 0 20.257 14.025 37.228 32.892 41.761-5.285 7.139-8.415 15.97-8.415 25.535 0 23.725 19.233 42.959 42.959 42.959s42.959-19.233 42.959-42.959" fill="#698ed5"/><path d="m297.831 7.5c13.564 0 25.863 5.424 34.835 14.219-2.15-.336-4.353-.504-6.601-.504-20.758 0-38.074 14.723-42.082 34.304-5.203-2.239-10.936-3.486-16.962-3.486-23.722 0-42.958 19.236-42.958 42.958 0 5.327.973 10.414 2.743 15.122-18.971 4.451-33.11 21.475-33.11 41.808 0 20.262 14.024 37.233 32.889 41.763-5.282 7.141-8.415 15.971-8.415 25.536h-16.608c0 23.722-19.236 42.958-42.967 42.958-23.722 0-42.958-19.236-42.958-42.958 0-9.565 3.132-18.395 8.415-25.536-18.864-4.53-32.889-21.501-32.889-41.763 0-20.333 14.131-37.357 33.11-41.808-1.77-4.707-2.743-9.795-2.743-15.122 0-23.722 19.236-42.958 42.958-42.958 6.026 0 11.759 1.248 16.962 3.486 4.008-19.581 21.324-34.304 42.082-34.304 11.865 0 22.598 4.813 30.376 12.582 8.397-15.653 24.917-26.297 43.923-26.297z" fill="#4073c8"/><g fill="#ffcbbe"><circle cx="159.605" cy="271.2" r="39.816"/><circle cx="436.055" cy="271.2" r="39.816"/></g><path d="m425.174 504.5h-64.799l-42.117-12.42-91.753 12.42h-56.031c20.56-34.75 54.92-60.36 95.56-69.26.23-.05.47-.1.7-.15v-53.89h62.19v53.89c.24.05.48.1.71.16 7.616 1.669 15.012 3.925 22.139 6.718 3.761 1.474-2.543 13.088 1.061 14.854 3.224 1.58 16.372-6.715 19.459-4.912 21.79 12.727 40.031 30.871 52.881 52.59z" fill="#ffddce"/><path d="m374.995 453.52v.01l-14.62 50.97h-133.87l125.4-62.48c8.07 3.17 15.79 7.03 23.09 11.5z" fill="#e04b66"/><g fill="#ffcbbe"><path d="m329.634 435.25c-3.34 2.59-7.53 4.14-12.08 4.14h-.01c-10.88 0-19.71-8.83-19.71-19.72 0 10.89-8.83 19.72-19.71 19.72h-.01c-4.55 0-8.74-1.55-12.08-4.15.23-.05.47-.1.7-.15v-53.89h62.19v53.89c.24.05.48.1.71.16z"/><path d="m280.416 381.2v53.89c-22.93 8.76-42.33 34.46-53.91 69.41h-56.03c20.68-34.95 55.32-60.65 96.26-69.41v-53.89z"/><path d="m328.926 381.2v24.61c-7.05 1.43-14.34 2.18-21.81 2.18h-18.57c-7.47 0-14.76-.75-21.81-2.18v-24.61z"/></g><path d="m179.544 177.78v180.972c0 10.888 8.827 19.715 19.715 19.715 10.888 0 19.715-8.827 19.715-19.715v22.012c0 10.888 8.827 19.715 19.715 19.715 10.888 0 19.715-8.827 19.715-19.715v14.299c0 10.888 8.827 19.715 19.715 19.715 10.888 0 19.715-8.827 19.715-19.715 0 10.888 8.827 19.715 19.715 19.715 10.888 0 19.715-8.827 19.715-19.715v-14.299c0 10.888 8.827 19.715 19.715 19.715 10.888 0 19.715-8.827 19.715-19.715v-22.012c0 10.888 8.827 19.715 19.715 19.715 10.888 0 19.715-8.827 19.715-19.715v-180.972" fill="#698ed5"/><path d="m244.719 384.787c0 4.8 1.71 9.18 4.56 12.6-3.06 1.96-6.69 3.09-10.59 3.09-10.89 0-19.72-8.83-19.72-19.72v-22.01c0 5.45-2.21 10.37-5.77 13.94-3.57 3.57-8.5 5.78-13.94 5.78-10.89 0-19.72-8.83-19.72-19.72v-180.97h65.18z" fill="#4073c8"/><path d="m391.91 178.47v83.83c0 21.01-21.82 34.9-40.85 26.02-16.87-7.87-35.05-11.8-53.23-11.8-18.14 0-36.27 3.91-53.11 11.74-.04.02-.08.04-.12.06h-.01c-19.03 8.88-40.85-5.01-40.85-26.02v-83.83c14.41-.9 28.2-4.12 40.98-9.29 1.66-.67 3.31-1.37 4.93-2.11 14.62 6.89 30.95 10.73 48.18 10.73s33.56-3.84 48.18-10.73c14.15 6.41 29.62 10.38 45.9 11.4z" fill="#ffddce"/><path d="m244.724 169.18v119.08c-.04.02-.08.04-.12.06h-.01c-19.03 8.88-40.85-5.01-40.85-26.02v-83.83c14.41-.9 28.2-4.12 40.98-9.29z" fill="#ffcbbe"/><path d="m394.1 78.19-13.63 49.29h-165.28l-13.63-49.29c-2.34-8.48 6.66-15.62 14.38-11.41l37.93 20.69.27.15c4.48 2.44 10.08 1.11 12.97-3.09l22.52-32.61c3.96-5.74 12.44-5.74 16.4 0l22.51 32.61c2.9 4.2 8.5 5.53 12.98 3.09l38.19-20.84c7.73-4.21 16.73 2.93 14.39 11.41z" fill="#e04b66"/><path d="m262.25 127.48h-47.06l-13.63-49.29c-2.34-8.48 6.66-15.62 14.38-11.41l37.93 20.69z" fill="#de1d49"/></g><path d="m82.17 441.252h-5.106c-12.385 0-22.425 10.04-22.425 22.425v18.398c0 12.385 10.04 22.425 22.425 22.425h5.106c12.385 0 22.425-10.04 22.425-22.425v-18.398c0-12.385-10.04-22.425-22.425-22.425z" fill="#ffddce"/><path d="m90.088 503.055c-2.46.93-5.13 1.44-7.92 1.44h-5.11c-12.38 0-22.42-10.04-22.42-22.42v-18.4c0-12.38 10.04-22.42 22.42-22.42h5.11c2.79 0 5.46.51 7.92 1.44-8.47 3.2-14.5 11.39-14.5 20.98v18.4c0 9.59 6.03 17.78 14.5 20.98z" fill="#ffcbbe"/><path d="m79.616 343.311c-28.245 0-51.224-22.979-51.224-51.224v-39.982c0-2.859-2.326-5.186-5.185-5.186-8.674 0-15.707-7.032-15.707-15.707 0-8.674 7.032-15.707 15.707-15.707 20.18 0 36.599 16.418 36.599 36.599v39.982c0 10.923 8.887 19.81 19.811 19.81s19.81-8.887 19.81-19.81v-39.982c0-20.181 16.418-36.599 36.599-36.599 8.674 0 15.707 7.032 15.707 15.707 0 8.674-7.032 15.707-15.707 15.707-2.86 0-5.186 2.326-5.186 5.186v39.982c0 28.245-22.979 51.224-51.224 51.224z" fill="#e04b66"/><g fill="#de1d49"><path d="m96.576 311.898c10.924 0 19.81-8.887 19.81-19.81v-39.982c0-16.599 11.111-30.643 26.284-35.109-2.02-.946-4.266-1.49-6.644-1.49-20.181 0-36.599 16.418-36.599 36.599v39.982c0 7.887-4.644 14.691-11.331 17.877 2.575 1.225 5.443 1.933 8.48 1.933z"/><path d="m45.352 292.087v-39.982c0-2.859-2.326-5.186-5.186-5.186-8.674 0-15.707-7.032-15.707-15.707 0-6.296 3.714-11.712 9.062-14.217-3.274-.964-6.733-1.49-10.315-1.49-8.675 0-15.707 7.032-15.707 15.707s7.032 15.707 15.707 15.707c2.859 0 5.185 2.326 5.185 5.186v39.982c0 28.245 22.979 51.224 51.224 51.224 2.889 0 5.719-.253 8.48-.715-24.221-4.054-42.743-25.153-42.743-50.509z"/></g></g><g><path d="m512 151.92c0-20.88-12.583-39.125-31.407-46.735.689-3.341 1.037-6.749 1.037-10.195 0-8.402-2.106-16.714-6.093-24.036-1.979-3.638-6.534-4.982-10.173-3.002-3.638 1.98-4.981 6.535-3.001 10.173 2.791 5.128 4.267 10.96 4.267 16.864 0 4.282-.764 8.48-2.269 12.476-.761 2.02-.614 4.27.401 6.174 1.017 1.905 2.804 3.279 4.905 3.771 16.094 3.775 27.333 17.965 27.333 34.51 0 16.456-11.165 30.629-27.151 34.467-2.447.587-4.438 2.364-5.298 4.73s-.476 5.005 1.022 7.028c4.538 6.125 6.937 13.413 6.937 21.075 0 6.081-1.547 11.972-4.439 17.18-8.432-7.767-19.678-12.52-32.017-12.52-4.216 0-8.398.569-12.434 1.667v-47.767c0-3.867-2.927-7.051-6.686-7.456-.562-.061-1.14-.06-1.725.01-4.916.594-9.96.896-14.99.896-17.821 0-35.019-3.698-51.114-10.991-2.003-.908-4.304-.891-6.293.047-14.101 6.645-29.234 10.014-44.982 10.014s-30.883-3.369-44.983-10.014c-1.988-.937-4.289-.955-6.291-.048-16.107 7.294-33.308 10.992-51.126 10.992-5.03 0-10.074-.301-14.99-.896-2.132-.258-4.269.41-5.875 1.833-1.605 1.423-2.525 3.467-2.525 5.613v47.768c-4.04-1.099-8.224-1.669-12.44-1.669-.517 0-1.034.022-1.551.038-3.065-9.23-11.774-15.908-22.02-15.908-3.99 0-7.854.542-11.532 1.54 1.151-4.074 3.01-7.931 5.583-11.411 1.496-2.023 1.878-4.661 1.017-7.025s-2.85-4.139-5.296-4.727c-15.98-3.838-27.141-18.012-27.141-34.468 0-16.546 11.235-30.736 27.322-34.508 2.102-.493 3.889-1.867 4.905-3.771s1.163-4.154.402-6.174c-1.499-3.98-2.259-8.178-2.259-12.477 0-19.553 15.907-35.46 35.46-35.46 4.852 0 9.559.968 13.993 2.878 2.074.893 4.438.805 6.438-.239s3.425-2.934 3.877-5.144c3.358-16.401 17.965-28.305 34.732-28.305 9.466 0 18.374 3.689 25.081 10.387 1.679 1.677 4.051 2.461 6.399 2.112 2.347-.348 4.391-1.786 5.512-3.877 7.382-13.779 21.678-22.34 37.308-22.34 15.621 0 29.917 8.562 37.311 22.345 1.122 2.091 3.167 3.528 5.515 3.874 2.351.348 4.721-.439 6.398-2.116 6.695-6.696 15.601-10.383 25.076-10.383 16.767 0 31.374 11.904 34.732 28.305.453 2.211 1.877 4.1 3.878 5.144 1.999 1.044 4.364 1.132 6.437.239 4.434-1.91 9.142-2.878 13.993-2.878 4.391 0 8.67.793 12.718 2.356 3.865 1.493 8.207-.431 9.698-4.294 1.492-3.864-.431-8.206-4.294-9.698-5.779-2.232-11.876-3.364-18.122-3.364-4.075 0-8.081.481-11.979 1.435-7.408-19.094-26.043-32.245-47.061-32.245-10.393 0-20.305 3.118-28.665 8.912-10.741-14.143-27.53-22.632-45.635-22.632-18.114 0-34.905 8.49-45.639 22.633-8.367-5.795-18.276-8.913-28.661-8.913-21.018 0-39.651 13.151-47.06 32.245-3.898-.954-7.904-1.435-11.979-1.435-27.824 0-50.46 22.636-50.46 50.46 0 3.451.346 6.859 1.032 10.194-18.823 7.608-31.403 25.854-31.403 46.736 0 20.045 11.642 37.712 29.264 45.812-2.971 6.294-4.576 13.14-4.75 20.22-9.906 8.094-16.244 20.398-16.244 34.159v39.98c0 6.788-5.522 12.31-12.31 12.31s-12.31-5.522-12.31-12.31v-39.98c0-24.317-19.783-44.1-44.1-44.1-12.798-.001-23.21 10.406-23.21 23.199 0 12.015 9.177 21.927 20.89 23.095v37.785c0 3.009.228 6.022.676 8.954.626 4.094 4.451 6.903 8.548 6.28 4.095-.626 6.906-4.454 6.279-8.548-.334-2.184-.503-4.433-.503-6.686v-39.98c0-6.997-5.688-12.69-12.68-12.69-4.527 0-8.21-3.683-8.21-8.21 0-4.521 3.683-8.2 8.21-8.2 16.046 0 29.1 13.054 29.1 29.1v39.98c0 15.059 12.251 27.31 27.31 27.31s27.31-12.251 27.31-27.31v-39.98c0-16.046 13.054-29.1 29.1-29.1 4.521 0 8.2 3.678 8.2 8.2 0 4.527-3.679 8.21-8.2 8.21-6.997 0-12.69 5.693-12.69 12.69v39.98c0 24.107-19.613 43.72-43.72 43.72-12.508 0-24.444-5.393-32.749-14.795-2.742-3.105-7.481-3.399-10.586-.656-3.104 2.742-3.398 7.482-.657 10.586 6.223 7.046 13.97 12.41 22.521 15.779v93.782c-6.716 5.492-11.012 13.838-11.012 23.17v18.398c0 16.501 13.424 29.925 29.925 29.925h5.106c16.501 0 29.925-13.424 29.925-29.925v-18.398c0-9.329-4.293-17.673-11.005-23.165v-93.785c15.784-6.225 28.241-19.089 33.909-35.142 7.359 4.469 15.875 6.924 24.601 6.924 4.222 0 8.406-.569 12.44-1.668v41.908c0 7.265 2.833 14.1 7.969 19.236 5.134 5.149 11.971 7.984 19.251 7.984 4.424 0 8.606-1.062 12.302-2.944.525 6.424 3.28 12.386 7.884 16.977 5.144 5.144 11.978 7.977 19.244 7.977 5.026 0 9.738-1.371 13.783-3.757 1.337 3.751 3.501 7.185 6.396 10.073.118.118.241.229.361.345v14.508c-39.707 10.167-74.167 35.975-95.205 71.531-1.372 2.318-1.395 5.194-.061 7.534s3.821 3.785 6.515 3.785h254.69c2.693 0 5.181-1.444 6.515-3.784 1.335-2.34 1.312-5.215-.06-7.534-21.026-35.554-55.487-61.364-95.205-71.533v-14.502c2.987-2.881 5.323-6.434 6.751-10.418 4.137 2.446 8.871 3.75 13.81 3.75 14.237 0 25.955-10.996 27.115-24.944 3.771 1.918 7.965 2.934 12.314 2.934 15.004 0 27.21-12.211 27.21-27.22v-41.909c4.038 1.099 8.22 1.669 12.434 1.669 26.087 0 47.311-21.223 47.311-47.31 0-8.036-2.019-15.607-5.568-22.242 6.29-8.591 9.713-18.953 9.713-29.738 0-7.538-1.634-14.825-4.78-21.489 17.628-8.095 29.273-25.762 29.273-45.807zm-414.905 330.155c0 8.23-6.695 14.925-14.925 14.925h-5.106c-8.23 0-14.925-6.696-14.925-14.925v-18.398c0-8.23 6.695-14.925 14.925-14.925h5.106c8.23 0 14.925 6.696 14.925 14.925zm-11.005-48.058c-1.284-.169-2.591-.265-3.92-.265h-5.106c-1.327 0-2.632.096-3.914.264v-83.57c2.138.238 4.297.364 6.47.364 2.187 0 4.344-.13 6.47-.364zm163.506-258.735c15.213 6.65 31.421 10.018 48.234 10.018 16.812 0 33.021-3.368 48.233-10.018 12.292 5.211 25.133 8.568 38.351 10.056v76.962c0 7.289-3.67 13.977-9.816 17.892s-13.759 4.413-20.362 1.331c-17.534-8.18-37.037-12.503-56.401-12.503-19.281 0-38.702 4.287-56.177 12.399-.079.033-.157.068-.234.104-6.604 3.081-14.215 2.583-20.362-1.332-6.146-3.915-9.816-10.604-9.816-17.892v-76.963c13.213-1.488 26.054-4.844 38.35-10.054zm-89.996 128.228c-7.989 0-15.462-2.842-21.363-8.059.063-1.113.103-2.232.103-3.361v-37.784c9.074-.901 16.604-7.064 19.547-15.379.57-.03 1.142-.047 1.713-.047 4.28 0 8.512.853 12.44 2.485v16.935c-3.028-1.24-6.372-2.063-10.015-2.429-7.487-.752-13.613.677-14.287.843-4.009.984-6.452 5.019-5.487 9.032s5.009 6.488 9.028 5.543c.044-.01 4.503-1.039 9.605-.455 5.093.582 8.76 2.458 11.155 5.717v24.468c-3.914 1.636-8.146 2.491-12.439 2.491zm98.778 193.49 93.827-46.746c4.784 2.016 9.447 4.291 13.966 6.816l-11.448 39.93zm152.882 0h-40.932l9.046-31.552c12.166 8.698 22.964 19.335 31.886 31.552zm-83.909-54.576c1.581.338 3.15.713 4.714 1.105l-107.324 53.471h-40.347c20.274-27.754 50.21-47.364 83.906-54.576 3.459-.74 5.931-3.797 5.931-7.334v-13.087c1.277.182 2.576.277 3.89.277 7.745 0 14.746-3.255 19.706-8.468.158.166.317.329.48.491 5.143 5.144 11.978 7.977 19.243 7.977 1.315 0 2.604-.108 3.87-.289v13.099c0 3.537 2.472 6.594 5.931 7.334zm81.269-83.674c0 6.738-5.478 12.22-12.21 12.22-3.259 0-6.326-1.273-8.637-3.583-2.311-2.311-3.583-5.378-3.583-8.637 0-4.142-3.357-7.5-7.5-7.5s-7.5 3.358-7.5 7.5v22.01c0 6.738-5.478 12.22-12.21 12.22-3.266 0-6.33-1.27-8.645-3.591-2.307-2.3-3.576-5.364-3.576-8.629 0-4.142-3.357-7.5-7.5-7.5s-7.5 3.358-7.5 7.5v14.3c0 6.738-5.478 12.22-12.21 12.22-3.259 0-6.325-1.272-8.644-3.591-2.307-2.3-3.576-5.364-3.576-8.629 0-4.142-3.357-7.5-7.5-7.5s-7.5 3.358-7.5 7.5c0 6.738-5.478 12.22-12.21 12.22-3.266 0-6.33-1.27-8.644-3.59-2.307-2.3-3.576-5.365-3.576-8.63v-14.3c0-4.142-3.357-7.5-7.5-7.5-4.142 0-7.5 3.358-7.5 7.5 0 6.738-5.478 12.22-12.21 12.22-3.259 0-6.326-1.272-8.644-3.591-2.306-2.3-3.576-5.364-3.576-8.629v-22.01c0-4.142-3.358-7.5-7.5-7.5s-7.5 3.358-7.5 7.5c0 6.738-5.478 12.22-12.21 12.22-3.266 0-6.33-1.27-8.637-3.583-2.311-2.311-3.583-5.378-3.583-8.637v-172.769c2.789.166 5.592.249 8.39.249.272 0 .542-.008.814-.01v76.08c0 12.442 6.265 23.861 16.759 30.544 5.932 3.778 12.662 5.692 19.43 5.692 5.119 0 10.26-1.095 15.091-3.307.084-.036.168-.073.251-.112 15.783-7.363 32.625-11.097 50.059-11.097s34.276 3.734 50.059 11.096c11.273 5.26 24.268 4.411 34.763-2.272 10.494-6.683 16.759-18.102 16.759-30.544v-76.08c.269.002.537.01.806.01 2.802 0 5.608-.084 8.4-.25zm27.434-55.24c-4.276 0-8.507-.853-12.434-2.487v-24.473c2.395-3.258 6.063-5.134 11.155-5.716 5.044-.578 9.457.421 9.602.454 4.008.967 8.056-1.491 9.041-5.504.987-4.023-1.474-8.084-5.496-9.072-.676-.166-6.8-1.595-14.288-.843-3.642.366-6.986 1.189-10.014 2.429v-16.935c3.922-1.632 8.152-2.484 12.434-2.484 17.816 0 32.311 14.499 32.311 32.32-.001 17.817-14.495 32.311-32.311 32.311z"/><ellipse cx="241.649" cy="249.301" rx="13.189" ry="18.07"/><path d="m354.011 231.231c-7.272 0-13.188 8.106-13.188 18.07s5.916 18.07 13.188 18.07 13.189-8.106 13.189-18.07-5.917-18.07-13.189-18.07z"/><path d="m258.867 228.904c4.143 0 7.5-3.358 7.5-7.5s-3.357-7.5-7.5-7.5c-8.479 0-15.378-6.899-15.378-15.378 0-4.142-3.358-7.5-7.5-7.5s-7.5 3.358-7.5 7.5c0 16.75 13.628 30.378 30.378 30.378z"/><path d="m337.929 228.904c16.75 0 30.378-13.628 30.378-30.378 0-4.142-3.357-7.5-7.5-7.5s-7.5 3.358-7.5 7.5c0 8.479-6.898 15.378-15.378 15.378-4.143 0-7.5 3.358-7.5 7.5s3.357 7.5 7.5 7.5z"/><path d="m323.133 292.912c-3.974-1.179-8.146 1.084-9.324 5.055-2.078 7-8.648 11.888-15.979 11.888-7.32 0-13.893-4.892-15.98-11.897-1.184-3.969-5.357-6.229-9.33-5.044-3.97 1.183-6.229 5.361-5.045 9.33 3.97 13.313 16.452 22.611 30.355 22.611 13.92 0 26.404-9.301 30.357-22.619 1.18-3.971-1.083-8.145-5.054-9.324z"/><path d="m376.122 60.2-38.193 20.835c-1.11.607-2.493.278-3.213-.764l-22.512-32.609c-3.261-4.724-8.635-7.544-14.375-7.544s-11.114 2.82-14.375 7.544l-22.512 32.608c-.72 1.043-2.102 1.371-3.214.765l-38.192-20.835c-6.264-3.418-13.63-2.786-19.221 1.649-5.591 4.434-7.883 11.462-5.982 18.34l13.624 49.288c.898 3.251 3.856 5.502 7.229 5.502h165.287c3.373 0 6.33-2.251 7.229-5.502l13.623-49.288c1.902-6.878-.39-13.906-5.98-18.34-5.593-4.434-12.956-5.067-19.223-1.649zm10.745 15.992-12.103 43.786h-153.87l-12.103-43.787c-.379-1.371.367-2.212.845-2.591.478-.38 1.469-.914 2.716-.233l38.194 20.836c7.871 4.293 17.647 1.966 22.74-5.411l22.512-32.608c.641-.927 1.548-1.066 2.031-1.066s1.391.138 2.031 1.066l22.512 32.608c5.095 7.378 14.872 9.703 22.74 5.411l38.193-20.835c1.246-.68 2.236-.147 2.716.233.479.379 1.225 1.22.846 2.591z"/></g></g></svg>