<svg id="Capa_1" enable-background="new 0 0 512 512" height="512" viewBox="0 0 512 512" width="512" xmlns="http://www.w3.org/2000/svg"><g><g><g><g><path d="m405.231 490.966h-204.18c9.397-15.881-.512-16.318 13.931-27.657 17.342-13.617 37.804-23.439 60.142-28.219v-53.89h62.19v53.89c22.407 4.796 42.929 14.668 60.308 28.356 14.365 11.315-1.75 11.704 7.609 27.52z" fill="#ffddce"/><path d="m288.803 381.2v53.89c-18.207 6.956-34.189 24.592-45.797 49.059-3.011 6.347-42.468-9.5-28.025-20.84 17.342-13.617 37.804-23.439 60.142-28.219v-53.89z" fill="#ffcbbe"/><path d="m337.308 381.2v24.61c-7.05 1.43-14.34 2.18-21.81 2.18h-18.57c-7.47 0-14.76-.75-21.81-2.18v-24.61z" fill="#ffcbbe"/><path d="m433.558 504.5h-254.69c9.37-15.86 21.63-29.82 36.05-41.15l.37.35c11.06 3.79 22.29 6.86 33.64 9.22 49.13 10.25 100.33 7.17 148.21-9.22l.48-.25c14.37 11.31 26.58 25.23 35.94 41.05z" fill="#ede6e3"/><path d="m248.928 472.92c-5.45 9.31-10.17 19.93-14.04 31.58h-56.02c9.37-15.86 21.63-29.82 36.05-41.15l.37.35c11.06 3.79 22.29 6.86 33.64 9.22z" fill="#d8cec9"/></g><path d="m448.786 154.049c11.307-15.273 17.996-34.171 17.996-54.632 0-50.764-41.152-91.917-91.917-91.917-27.301 0-51.817 11.907-68.652 30.806-16.835-18.899-41.351-30.806-68.652-30.806-50.764 0-91.917 41.152-91.917 91.917 0 20.462 6.689 39.359 17.996 54.632-19.203 4.135-33.598 21.205-33.598 41.644 0 23.531 19.076 42.607 42.607 42.607h267.126c23.531 0 42.607-19.076 42.607-42.607.002-20.439-14.393-37.509-33.596-41.644z" fill="#9d6b6b"/><path d="m271.025 99.417c0 20.459 6.692 39.358 17.993 54.632-19.204 4.139-33.599 21.208-33.599 41.641 0 11.763 4.775 22.419 12.477 30.131 7.72 7.711 18.368 12.477 30.131 12.477h-125.376c-11.763 0-22.411-4.766-30.122-12.477s-12.477-18.368-12.477-30.131c0-20.433 14.394-37.502 33.59-41.641-11.301-15.274-17.993-34.174-17.993-54.632 0-50.764 41.153-91.917 91.917-91.917 24.223 0 46.268 9.384 62.684 24.711-17.985 16.773-29.225 40.674-29.225 67.206z" fill="#8b5e5e"/><g fill="#ffcbbe"><circle cx="168.694" cy="272.386" r="39.614"/><circle cx="443.739" cy="272.386" r="39.614"/></g><path d="m423.898 166.95v108.61c0 50.61-34.68 93.13-81.57 105.09h-.01c-8.59 2.19-17.59 3.35-26.86 3.35h-18.48c-59.89 0-108.45-48.55-108.45-108.44v-108.62c6.48 5.465 13.905 9.845 21.995 12.859s16.845 45.533 25.985 45.533c8.49 0 16.64-1.42 24.25-4.04 20.95-7.21 37.67-23.5 45.46-44.18 10.62 28.18 37.82 48.22 69.71 48.22 8.246 0 16.176-42.21 23.588-44.683 9.019-3.01 17.268-7.699 24.382-13.699z" fill="#9d6b6b"/><path d="m342.318 380.65c-8.59 2.19-17.59 3.35-26.86 3.35h-18.48c-59.89 0-108.45-48.55-108.45-108.44v-108.62c6.48 5.465 13.905 9.845 21.995 12.859s16.845 32.138 25.985 32.138c8.49 0 16.64-1.42 24.25-4.04v67.663c0 50.61 34.68 93.12 81.56 105.09z" fill="#8b5e5e"/><path d="m399.513 180.65v81.22c0 20.95-22.33 34.33-40.8 24.45l-1.94-1.04c-29.89-15.98-65.46-16.84-95.97-2.57-1.73.81-3.44 1.66-5.14 2.57l-1.95 1.04c-18.47 9.88-40.79-3.5-40.79-24.45v-81.23c7.41 2.48 15.34 3.82 23.59 3.82 8.5 0 16.67-1.43 24.29-4.05 20.93-7.22 37.63-23.51 45.42-44.17 10.62 28.18 37.82 48.22 69.71 48.22 8.24 0 16.17-1.33 23.58-3.81z" fill="#ffddce"/><path d="m260.803 180.41v102.3c-1.73.81-3.44 1.66-5.14 2.57l-1.95 1.04c-18.47 9.88-40.79-3.5-40.79-24.45v-81.23c7.41 2.48 15.34 3.82 23.59 3.82 8.5 0 16.67-1.43 24.29-4.05z" fill="#ffcbbe"/></g><path d="m85.17 376.713h27.941v101.412h-27.941z" fill="#365e7d"/><path d="m85.17 376.713h13.26v101.412h-13.26z" fill="#2b4d66"/><path d="m101.693 441.252h-5.106c-12.385 0-22.425 10.04-22.425 22.425v18.398c0 12.385 10.04 22.425 22.425 22.425h5.106c12.385 0 22.425-10.04 22.425-22.425v-18.398c.001-12.385-10.039-22.425-22.425-22.425z" fill="#ffddce"/><path d="m109.612 503.055c-2.46.93-5.13 1.44-7.92 1.44h-5.11c-12.38 0-22.42-10.04-22.42-22.42v-18.4c0-12.38 10.04-22.42 22.42-22.42h5.11c2.79 0 5.46.51 7.92 1.44-8.47 3.2-14.5 11.39-14.5 20.98v18.4c0 9.59 6.03 17.78 14.5 20.98z" fill="#ffcbbe"/><path d="m143.077 295.165h-87.873c-14.664 0-26.552 11.888-26.552 26.552v38.677c0 14.664 11.888 26.552 26.552 26.552h87.873c14.664 0 26.552-11.888 26.552-26.552v-38.677c0-14.664-11.888-26.552-26.552-26.552z" fill="#ede6e3"/><path d="m83.132 386.954h-27.93c-14.66 0-26.55-11.89-26.55-26.56v-38.67c0-14.67 11.89-26.55 26.55-26.55h27.93c-14.66 0-26.55 11.88-26.55 26.55v38.67c0 14.67 11.89 26.56 26.55 26.56z" fill="#d8cec9"/></g><g><path d="m471.576 234.407c11.466-9.421 18.306-23.561 18.306-38.717 0-11.511-4.006-22.76-11.287-31.681-4.922-6.012-11.172-10.786-18.156-13.958 9.085-15.285 13.844-32.6 13.844-50.631 0-54.82-44.6-99.42-99.42-99.42-25.627 0-50.222 9.942-68.644 27.519-18.437-17.578-43.037-27.519-68.657-27.519-28.375 0-55.461 12.17-74.316 33.388-2.751 3.096-2.472 7.837.625 10.588 3.096 2.752 7.837 2.471 10.588-.625 16.011-18.017 39.011-28.351 63.103-28.351 24.04 0 47.025 10.312 63.063 28.292 1.423 1.595 3.459 2.508 5.597 2.508h.002c2.139-.001 4.176-.914 5.598-2.511 16.017-17.978 38.995-28.289 63.041-28.289 46.549 0 84.42 37.871 84.42 84.42 0 18.211-5.716 35.559-16.528 50.168-1.517 2.049-1.889 4.727-.988 7.112s2.951 4.148 5.443 4.683c7.706 1.654 14.73 5.961 19.772 12.119 5.095 6.243 7.9 14.123 7.9 22.188 0 12.853-7.018 24.669-18.314 30.838-.058.032-.115.064-.173.097l-.446.259c-3.898-1.047-7.99-1.615-12.214-1.615-4.181 0-8.329.561-12.332 1.645v-59.964c0-2.918-1.692-5.571-4.339-6.801-2.645-1.229-5.766-.813-7.996 1.068-12.038 10.152-27.357 15.743-43.136 15.743-27.723 0-52.917-17.427-62.691-43.365-1.102-2.921-3.896-4.855-7.019-4.855s-5.917 1.934-7.019 4.855c-9.774 25.938-34.969 43.365-62.691 43.365-15.777 0-31.099-5.595-43.145-15.753-2.231-1.881-5.35-2.297-7.997-1.068-2.646 1.23-4.339 3.883-4.339 6.801v59.978c-4.009-1.086-8.161-1.648-12.344-1.648-4.226 0-8.321.568-12.221 1.617l-.347-.208c-.087-.052-.175-.103-.264-.151-2.971-1.622-5.669-3.642-8.031-6.011-6.631-6.631-10.283-15.448-10.283-24.827 0-16.423 11.641-30.852 27.68-34.308 2.491-.537 4.538-2.301 5.438-4.685.899-2.384.526-5.061-.989-7.109-10.807-14.6-16.519-31.948-16.519-50.168 0-11.368 2.221-22.399 6.601-32.786 1.609-3.817-.18-8.215-3.997-9.825s-8.216.18-9.825 3.997c-5.162 12.242-7.779 25.233-7.779 38.614 0 18.039 4.757 35.356 13.838 50.635-17.542 7.993-29.448 25.795-29.448 45.635 0 13.385 5.212 25.969 14.667 35.424 1.156 1.16 2.389 2.24 3.656 3.281-11.685 8.581-19.288 22.409-19.288 37.985 0 5.266.868 10.412 2.539 15.285h-68.911c-18.776 0-34.052 15.276-34.052 34.052v38.677c0 18.776 15.276 34.052 34.052 34.052h22.47v46.06c-6.716 5.492-11.012 13.838-11.012 23.17v18.398c0 16.501 13.424 29.925 29.925 29.925h5.106c16.501 0 29.925-13.424 29.925-29.925v-18.398c0-9.329-4.293-17.673-11.005-23.165v-46.065h22.463c18.776 0 34.052-15.276 34.052-34.052v-38.677c0-.995-.052-1.978-.136-2.951 3.83-.678 7.54-1.827 11.071-3.428 12.966 35.384 42.715 62.742 79.555 72.391v41.42c-39.717 10.169-74.178 35.979-95.206 71.533-1.371 2.318-1.394 5.194-.059 7.534 1.334 2.34 3.821 3.784 6.515 3.784h254.69c2.693 0 5.181-1.444 6.515-3.784 1.335-2.34 1.312-5.215-.06-7.534-21.027-35.554-55.487-61.364-95.205-71.533v-41.41c11.839-3.088 23.153-8.043 33.538-14.762 3.478-2.25 4.473-6.893 2.223-10.371-2.251-3.479-6.896-4.472-10.371-2.223-16.296 10.544-35.224 16.117-54.735 16.117h-18.479c-55.665 0-100.951-45.281-100.951-100.94v-94.296c3.034 1.722 6.171 3.245 9.391 4.564v76.042c0 12.502 6.399 23.8 17.119 30.222 5.61 3.362 11.839 5.049 18.082 5.049 5.681 0 11.373-1.398 16.619-4.204l1.957-1.044c29.441-15.742 64.595-15.742 94.03-.004l1.946 1.043c11.019 5.895 23.997 5.579 34.717-.843 10.72-6.423 17.12-17.721 17.12-30.221v-76.036c3.219-1.319 6.357-2.841 9.39-4.561v94.287c0 24.573-8.932 48.248-25.149 66.663-2.737 3.109-2.437 7.848.672 10.585 3.109 2.738 7.849 2.437 10.586-.672 9.592-10.893 16.959-23.389 21.856-36.799 6.039 2.733 12.594 4.158 19.368 4.158 25.979 0 47.113-21.135 47.113-47.113-.002-15.567-7.598-29.39-19.274-37.973zm-51.928 262.593h-226.869c6.817-9.335 14.733-17.744 23.514-25.074 29.07 9.541 59.496 14.325 89.926 14.325 30.427 0 60.851-4.784 89.919-14.323 8.779 7.33 16.694 15.738 23.51 25.072zm-104.186-105.5c4.822 0 9.609-.315 14.346-.901v44.491c0 3.537 2.472 6.594 5.931 7.334 16.159 3.458 31.448 9.773 45.224 18.461-48.687 13.808-100.808 13.808-149.496-.002 13.776-8.687 29.063-15.001 45.221-18.459 3.459-.74 5.931-3.797 5.931-7.334v-44.479c4.708.584 9.501.889 14.364.889zm-198.843 90.575c0 8.23-6.695 14.925-14.925 14.925h-5.106c-8.23 0-14.925-6.696-14.925-14.925v-18.398c0-8.23 6.695-14.925 14.925-14.925h5.106c8.23 0 14.925 6.696 14.925 14.925zm-11.005-48.058c-1.284-.169-2.591-.265-3.92-.265h-5.106c-1.327 0-2.632.096-3.914.264v-39.569h12.94zm56.514-73.622c0 10.505-8.546 19.052-19.052 19.052h-87.872c-10.505 0-19.052-8.547-19.052-19.052v-38.677c0-10.505 8.547-19.052 19.052-19.052h87.873c10.505 0 19.052 8.547 19.052 19.052v38.677zm10.18-56.12c-5.953-9.94-16.826-16.61-29.231-16.61h-2.611c-2.538-4.668-3.888-9.88-3.888-15.285 0-17.705 14.405-32.11 32.11-32.11 4.246 0 8.446.843 12.344 2.459v16.766c-3.003-1.224-6.318-2.036-9.926-2.399-7.457-.75-13.557.674-14.228.839-4.023.987-6.483 5.049-5.496 9.072.987 4.022 5.046 6.482 9.071 5.496.04-.01 4.269-.973 9.153-.482 5.259.528 9.022 2.418 11.453 5.754.148 7.863 1.084 15.536 2.73 22.945-3.563 1.912-7.44 3.104-11.481 3.555zm219.705-42.405c0 7.178-3.675 13.666-9.83 17.354-6.153 3.687-13.604 3.868-19.927.486l-1.947-1.044c-33.869-18.109-74.312-18.109-108.175-.004l-1.958 1.044c-6.325 3.384-13.774 3.203-19.924-.481-6.154-3.687-9.828-10.175-9.828-17.355v-71.512c5.268 1.056 10.656 1.602 16.089 1.602 28.572 0 54.948-15.123 69.71-38.857 14.762 23.734 41.138 38.857 69.71 38.857 5.431 0 10.816-.545 16.081-1.599v71.509zm51.722 42.626c-5.336 0-10.472-1.301-15.096-3.775 1.664-7.494 2.592-15.181 2.739-22.958 2.375-3.251 6.021-5.123 11.09-5.703 5.019-.573 9.403.419 9.542.451 4.012.965 8.056-1.491 9.041-5.504.987-4.023-1.474-8.084-5.497-9.072-.67-.165-6.77-1.588-14.228-.839-3.607.362-6.921 1.174-9.924 2.398v-16.766c3.89-1.616 8.085-2.459 12.332-2.459 17.707 0 32.113 14.406 32.113 32.113s-14.405 32.114-32.112 32.114z"/><path d="m250.321 232.619c-7.236 0-13.123 8.065-13.123 17.979s5.887 17.979 13.123 17.979 13.123-8.065 13.123-17.979-5.887-17.979-13.123-17.979z"/><path d="m362.112 232.619c-7.235 0-13.122 8.065-13.122 17.979s5.887 17.979 13.122 17.979c7.236 0 13.123-8.065 13.123-17.979s-5.887-17.979-13.123-17.979z"/><path d="m229.698 206.633c-2.929 2.929-2.929 7.678 0 10.607s7.678 2.929 10.606 0c5.95-5.951 15.633-5.95 21.584 0 1.464 1.464 3.384 2.197 5.303 2.197s3.839-.732 5.304-2.197c2.929-2.929 2.929-7.678-.001-10.606-11.797-11.799-30.997-11.8-42.796-.001z"/><path d="m341.069 206.633c-2.929 2.929-2.929 7.678 0 10.607 2.93 2.929 7.678 2.929 10.607 0 2.882-2.883 6.715-4.47 10.791-4.47s7.909 1.587 10.791 4.47c1.465 1.465 3.384 2.197 5.304 2.197 1.919 0 3.839-.732 5.304-2.197 2.929-2.929 2.929-7.678 0-10.607-5.716-5.716-13.315-8.864-21.398-8.864s-15.683 3.148-21.399 8.864z"/><path d="m322.078 294.819c-2.063 6.948-8.586 11.801-15.861 11.801-7.267 0-13.79-4.856-15.862-11.809-1.184-3.969-5.357-6.228-9.33-5.045-3.97 1.183-6.229 5.361-5.045 9.33 3.953 13.261 16.388 22.523 30.237 22.523 13.866 0 26.302-9.265 30.24-22.531 1.18-3.971-1.084-8.146-5.055-9.324-3.969-1.18-8.147 1.084-9.324 5.055z"/></g></g></svg>