<svg id="Capa_1" enable-background="new 0 0 512 512" height="512" viewBox="0 0 512 512" width="512" xmlns="http://www.w3.org/2000/svg"><g><g><g><path d="m44.728 153.709h27.941v324.415h-27.941z" fill="#ffc250"/><path d="m44.728 153.709h13.26v324.415h-13.26z" fill="#e7a52e"/></g><g><path d="m494.962 325.536-20.437-20.437c7.73-.186 15.402-3.341 21.148-9.484 11.087-11.853 10.355-30.524-1.121-42.001l-9.771-9.771c-23.273-23.273-36.347-54.837-36.347-87.75-.001-82.066-66.528-148.593-148.594-148.593-82.066 0-148.593 66.527-148.593 148.593 0 32.913-13.074 64.477-36.347 87.75l-9.771 9.771c-11.477 11.477-12.209 30.147-1.121 42.001 5.746 6.143 13.418 9.297 21.148 9.484l-20.437 20.437c-11.688 11.688-11.688 30.638 0 42.325 5.435 5.435 12.441 8.34 19.557 8.719l.966-.966c-11.531 11.532-12.238 30.32-1.027 42.163 11.632 12.287 31.026 12.488 42.912.603l.316-.315c.975 1.382 2.072 2.704 3.309 3.94 11.534 11.534 30.136 11.678 41.856.447 12.512 25.663 45.824 44.019 84.958 44.019 40.704 0 75.109-19.857 86.362-47.142l2.677 2.677c11.688 11.688 30.638 11.688 42.326 0 1.236-1.236 2.334-2.558 3.309-3.94l.401.401c11.534 11.53 30.325 12.237 42.167 1.023 12.284-11.631 12.484-31.024.599-42.908 7.116-.38 14.122-3.284 19.557-8.719 11.686-11.689 11.686-30.639-.002-42.327z" fill="#365e7d"/><path d="m239.952 305.1c-2.65-.19-5.28-3.34-7.25-9.48-3.8-11.86-3.55-30.53.38-42.01l3.35-9.77c3.99-11.64 7.1-25.34 9.22-40.26 2.12-14.91 3.24-31.03 3.24-47.49 0-41.03 5.7-78.18 14.92-105.07s21.96-43.52 36.03-43.52c-41.03 0-78.19 16.63-105.08 43.52s-43.52 64.04-43.52 105.07c0 16.46-3.27 32.58-9.44 47.49-6.18 14.92-15.27 28.62-26.9 40.26l-9.78 9.77c-11.47 11.48-12.2 30.15-1.12 42.01 5.75 6.14 13.42 9.29 21.15 9.48l-20.44 20.44c-11.68 11.68-11.68 30.63 0 42.32 2.72 2.72 5.83 4.8 9.15 6.26 3.33 1.45 6.85 2.27 10.41 2.46l.97-.97c-11.53 11.54-12.24 30.32-1.03 42.17 11.63 12.28 31.03 12.49 42.91.6l.32-.32c.97 1.39 2.07 2.71 3.31 3.94 11.53 11.54 30.13 11.68 41.85.45 12.52 25.66 45.83 44.02 84.96 44.02v-142.645" fill="#2b4d66"/><g><path d="m351.441 441.066c31.919 11.889 58.621 34.491 75.743 63.434h-254.694c17.123-28.945 43.827-51.548 75.749-63.436" fill="#ffc250"/><path d="m277.302 441.068c-13.941 11.89-25.61 34.485-33.088 63.432h-71.724c17.127-28.947 43.833-51.542 75.755-63.432z" fill="#e7a52e"/><path d="m351.444 441.068-51.602 63.432-37.199-45.722-14.403-17.71c6.624-2.473 13.468-4.473 20.504-5.98v-53.894h62.196v53.894c7.036 1.507 13.881 3.507 20.504 5.98z" fill="#ffddce"/><path d="m268.744 381.193v41.541 12.353c-7.036 1.508-13.88 3.508-20.504 5.98l14.403 17.71c12.584-12.574 28.485-10.252 28.485-10.252v-42.858h18.002c7.468 0 14.765-.754 21.811-2.181v-22.293z" fill="#ffcbbe"/></g><path d="m298.692 466.46h.77c-.13.01-.27.01-.4.01-.12 0-.25 0-.37-.01z" fill="#e7a52e"/><path d="m417.522 202.78v72.78c0 59.89-48.55 108.44-108.44 108.44h-18.48c-59.89 0-108.45-48.55-108.45-108.44v-49.85s91.47 8.68 156.65-78.8c0 0 13.78 42.57 78.72 55.87z" fill="#ffddce"/><path d="m332.352 381.49c-7.49 1.65-15.28 2.51-23.27 2.51h-18.48c-59.89 0-108.45-48.55-108.45-108.44v-49.85s28.5 2.7 65.02-10.12v59.97c0 51.9 36.47 95.29 85.18 105.93z" fill="#ffcbbe"/><g><path d="m417.515 162.162c-48.25-41.21-112.73-53.09-170.339-35.62-23.3 7.07-45.48 18.95-65.01 35.62 5.26-31.98 31.65-60.64 65.01-75.64 16.43-7.4 34.54-11.47 52.66-11 54.909-1.43 109.819 38.91 117.679 86.64z" fill="#ffc250"/><path d="m247.175 86.522v40.02c-23.3 7.07-45.48 18.95-65.01 35.62 5.261-31.98 31.65-60.64 65.01-75.64z" fill="#e7a52e"/></g><g><ellipse cx="274.044" cy="94.065" fill="#ffc250" rx="19.164" ry="32.945" transform="matrix(.707 -.707 .707 .707 13.751 221.33)"/><path d="m297.343 117.366c-12.71 3.47-26.87.23-36.85-9.75s-13.22-24.14-9.74-36.85c2.89 6.34 10.43 16.2 20.41 26.18s19.84 17.52 26.18 20.42z" fill="#e7a52e"/><ellipse cx="325.636" cy="94.065" fill="#ffc250" rx="32.945" ry="19.164" transform="matrix(.707 -.707 .707 .707 28.863 257.811)"/><path d="m302.332 117.359c-3.47-12.71-.23-26.87 9.75-36.85s24.14-13.22 36.85-9.74c-6.34 2.89-16.2 10.43-26.18 20.41s-17.52 19.84-20.42 26.18z" fill="#e7a52e"/><ellipse cx="299.84" cy="57.853" fill="#ffc250" rx="19.164" ry="32.945"/><path d="m299.833 90.803c-11.441-6.534-19.162-18.837-19.162-32.951s7.722-26.418 19.17-32.944c-2.44 6.526-4.08 18.83-4.08 32.944s1.64 26.417 4.072 32.951z" fill="#e7a52e"/></g></g><path d="m61.253 441.252h-5.106c-12.385 0-22.425 10.04-22.425 22.425v18.398c0 12.385 10.04 22.425 22.425 22.425h5.106c12.385 0 22.425-10.04 22.425-22.425v-18.398c0-12.385-10.04-22.425-22.425-22.425z" fill="#ffddce"/><path d="m69.171 503.055c-2.46.93-5.13 1.44-7.92 1.44h-5.11c-12.38 0-22.42-10.04-22.42-22.42v-18.4c0-12.38 10.04-22.42 22.42-22.42h5.11c2.79 0 5.46.51 7.92 1.44-8.47 3.2-14.5 11.39-14.5 20.98v18.4c0 9.59 6.03 17.78 14.5 20.98z" fill="#ffcbbe"/><g><ellipse cx="32.903" cy="157.382" fill="#ffc250" rx="19.164" ry="32.945" transform="matrix(.707 -.707 .707 .707 -101.648 69.362)"/><path d="m56.202 180.682c-12.71 3.47-26.87.23-36.85-9.75s-13.22-24.14-9.74-36.85c2.89 6.34 10.43 16.2 20.41 26.18s19.841 17.52 26.18 20.42z" fill="#e7a52e"/><ellipse cx="84.496" cy="157.382" fill="#ffc250" rx="32.945" ry="19.164" transform="matrix(.707 -.707 .707 .707 -86.537 105.844)"/><path d="m61.192 180.675c-3.47-12.71-.23-26.87 9.75-36.85s24.14-13.22 36.85-9.74c-6.34 2.89-16.2 10.43-26.18 20.41s-17.52 19.841-20.42 26.18z" fill="#e7a52e"/><ellipse cx="58.7" cy="121.169" fill="#ffc250" rx="19.164" ry="32.945"/><path d="m58.692 154.119c-11.441-6.534-19.162-18.837-19.162-32.951s7.722-26.418 19.17-32.944c-2.44 6.526-4.08 18.83-4.08 32.944s1.64 26.417 4.072 32.951z" fill="#e7a52e"/></g></g><g><path d="m511.235 346.7c0-10.006-3.896-19.406-10.967-26.463l-10.962-10.961c4.414-2.005 8.433-4.88 11.847-8.533 13.626-14.572 13.046-38.095-1.295-52.436l-9.77-9.77c-22.024-22.024-34.153-51.305-34.153-82.447 0-41.694-16.236-80.893-45.717-110.373-29.481-29.481-68.679-45.717-110.373-45.717-41.701 0-80.903 16.236-110.384 45.717s-45.717 68.679-45.717 110.373c0 15.386-2.984 30.399-8.869 44.62-5.883 14.204-14.388 26.931-25.274 37.827l-9.77 9.77c-14.34 14.34-14.921 37.863-1.295 52.436 3.414 3.652 7.431 6.527 11.842 8.532l-10.955 10.96c-7.072 7.066-10.966 16.464-10.966 26.462 0 9.997 3.894 19.396 10.954 26.457 3.294 3.306 7.145 5.941 11.462 7.84.433.189.869.37 1.307.542-6.155 13.622-4.021 30.187 6.588 41.402 7.02 7.412 16.5 11.569 26.695 11.706 7.684.09 14.962-2.068 21.172-6.206 12.031 11.019 29.851 12.716 43.665 4.981 2.952 4.414 6.504 8.601 10.556 12.484-22.35 13.228-41.346 31.998-54.825 54.778-1.372 2.318-1.395 5.194-.061 7.535 1.334 2.34 3.821 3.785 6.515 3.785h254.7c2.694 0 5.182-1.445 6.516-3.786 1.334-2.34 1.311-5.217-.062-7.535-5.256-8.877-11.414-17.255-18.304-24.9-2.773-3.078-7.517-3.322-10.592-.551-3.077 2.773-3.324 7.516-.551 10.592 3.208 3.56 6.24 7.296 9.077 11.18h-97.659l38.198-46.954c10.339 4.305 20.145 9.863 29.323 16.638 1.34.989 2.9 1.466 4.448 1.466 2.3 0 4.569-1.054 6.04-3.046 2.46-3.333 1.753-8.028-1.58-10.489-5.171-3.817-10.523-7.283-16.041-10.398 3.935-4.005 7.345-8.304 10.14-12.822 6.279 4.464 13.77 6.871 21.63 6.871 9.439 0 18.346-3.471 25.264-9.811 14.4 9.669 34.14 8.587 46.927-3.52 7.413-7.016 11.572-16.492 11.711-26.684.081-5.957-1.216-11.705-3.745-16.891 4.578-1.864 8.776-4.634 12.337-8.194 7.076-7.062 10.973-16.461 10.973-26.467zm-324.835 150.3c15.218-20.831 35.88-37.074 59.491-46.931l38.179 46.931zm113.44-4.385-38.915-47.835c3.094-.892 6.225-1.679 9.39-2.356 3.459-.74 5.931-3.796 5.931-7.334v-44.479c4.707.584 9.498.889 14.36.889h18.479c4.859 0 9.647-.305 14.351-.888v44.478c0 3.538 2.472 6.594 5.932 7.334 3.168.678 6.295 1.472 9.385 2.358zm189.82-130.058c-3.918 3.918-9.123 6.239-14.655 6.534-2.957.158-5.545 2.041-6.604 4.806-1.06 2.766-.393 5.896 1.703 7.989 4.318 4.315 6.651 10.056 6.568 16.164-.082 6.106-2.576 11.786-7.023 15.994-8.73 8.265-22.951 7.873-31.637-.813l-.4-.41c-1.558-1.595-3.745-2.414-5.965-2.237-2.222.178-4.249 1.334-5.533 3.156-.75 1.065-1.586 2.06-2.481 2.957-4.238 4.237-9.871 6.571-15.862 6.571s-11.625-2.333-15.861-6.571l-2.67-2.67c-1.772-1.772-4.309-2.542-6.771-2.052-2.457.49-4.508 2.175-5.465 4.492-3.087 7.473-8.339 14.54-15.296 20.644-7.507-3.26-15.27-5.926-23.27-7.965v-41.412c49.764-13.031 86.59-58.38 86.59-112.172v-72.78c0-3.562-2.506-6.633-5.995-7.348-59.416-12.168-72.573-49.3-73.09-50.832-.864-2.669-3.146-4.633-5.914-5.09-2.762-.456-5.559.669-7.235 2.918-23.536 31.585-53.177 53.819-88.1 66.084-5.757 2.021-11.695 3.768-17.651 5.193-4.028.964-6.513 5.011-5.549 9.039s5.009 6.516 9.039 5.549c6.454-1.544 12.89-3.438 19.13-5.628 34.19-12.008 63.656-32.782 87.733-61.826 8.729 14.16 29.157 37.428 72.632 47.95v66.771c0 55.659-45.281 100.94-100.94 100.94h-18.479c-55.664 0-100.95-45.281-100.95-100.94v-42.116c2.851-.011 6.375-.114 10.459-.403 4.132-.293 7.244-3.879 6.952-8.011-.293-4.132-3.884-7.242-8.011-6.952-10.002.709-16.146.169-16.194.165-2.1-.2-4.191.499-5.753 1.919-1.562 1.421-2.453 3.436-2.453 5.547v49.85c0 53.79 36.825 99.137 86.59 112.17v41.418c-9.042 2.315-17.808 5.449-26.209 9.316-6.872-5.67-12.255-12.277-15.682-19.303-1.05-2.153-3.065-3.674-5.423-4.095-2.359-.42-4.775.31-6.504 1.966-8.747 8.374-22.818 8.223-31.392-.358-.876-.869-1.681-1.829-2.461-2.936-1.274-1.808-3.282-2.961-5.485-3.151-2.202-.187-4.378.602-5.944 2.165l-.327.326c-4.312 4.316-10.037 6.663-16.154 6.565-6.11-.082-11.793-2.575-16.001-7.019-8.26-8.731-7.862-22.958.887-31.715 2.927-2.93 2.926-7.678-.004-10.606-2.288-2.286-5.684-2.786-8.457-1.501-1.791-.304-3.532-.823-5.195-1.549-2.581-1.135-4.887-2.712-6.866-4.698-4.237-4.237-6.571-9.87-6.571-15.86 0-5.989 2.333-11.619 6.572-15.854l20.43-20.44c2.121-2.122 2.773-5.303 1.659-8.088s-3.78-4.638-6.779-4.712c-6.075-.149-11.702-2.672-15.846-7.105-8.164-8.731-7.74-22.899.945-31.584l9.772-9.772c12.287-12.297 21.883-26.66 28.524-42.693 6.642-16.051 10.01-32.994 10.01-50.358 0-37.688 14.676-73.119 41.323-99.767 26.644-26.647 62.08-41.323 99.774-41.323 37.688 0 73.119 14.676 99.766 41.323 26.648 26.647 41.324 62.079 41.324 99.767 0 35.149 13.689 68.196 38.547 93.053l9.77 9.77c8.686 8.685 9.109 22.854.944 31.585-4.143 4.432-9.773 6.955-15.855 7.104-2.999.074-5.665 1.927-6.779 4.713-1.114 2.785-.461 5.967 1.66 8.088l20.444 20.445c4.236 4.229 6.569 9.858 6.569 15.852s-2.333 11.623-6.575 15.857z"/><path d="m368.306 237.452-4.959 3.528c-2.149-2.107-4.773-3.361-7.611-3.361-7.236 0-13.123 8.065-13.123 17.979s5.887 17.979 13.123 17.979 13.123-8.065 13.123-17.979c0-.043-.005-.085-.005-.128l8.147-5.796c3.375-2.401 4.165-7.083 1.764-10.459-2.401-3.374-7.084-4.165-10.459-1.763z"/><path d="m222.679 249.675 8.147 5.796c0 .043-.005.085-.005.128 0 9.914 5.887 17.979 13.123 17.979s13.123-8.065 13.123-17.979-5.887-17.979-13.123-17.979c-2.838 0-5.461 1.254-7.611 3.361l-4.959-3.528c-3.375-2.4-8.058-1.611-10.459 1.764-2.4 3.374-1.611 8.056 1.764 10.458z"/><path d="m345.298 217.24c2.884-2.882 6.716-4.47 10.793-4.47 4.076 0 7.909 1.587 10.791 4.47 1.465 1.465 3.384 2.197 5.304 2.197 1.919 0 3.839-.732 5.303-2.197 2.93-2.929 2.93-7.677.001-10.606-5.716-5.716-13.315-8.864-21.398-8.864s-15.683 3.148-21.398 8.864c-2.93 2.929-2.93 7.677-.001 10.606s7.676 2.929 10.605 0z"/><path d="m299.84 313.246c13.866 0 26.302-9.265 30.24-22.531 1.18-3.971-1.084-8.146-5.055-9.325-3.968-1.178-8.146 1.084-9.324 5.055-2.063 6.948-8.586 11.801-15.861 11.801-7.267 0-13.79-4.856-15.863-11.809-1.185-3.969-5.358-6.23-9.331-5.044-3.969 1.184-6.228 5.361-5.044 9.33 3.955 13.261 16.388 22.523 30.238 22.523z"/><path d="m357.774 80.707c-.005-3.979-.531-7.986-1.607-11.918-.7-2.557-2.697-4.554-5.255-5.254-8.26-2.261-16.843-2.075-24.803.258.26-1.956.396-3.939.396-5.94 0-16.269-8.794-31.389-22.949-39.461-2.303-1.313-5.127-1.313-7.43 0-14.155 8.071-22.948 23.192-22.948 39.461 0 2.001.136 3.985.396 5.94-7.961-2.333-16.544-2.519-24.805-.258-2.557.7-4.554 2.697-5.254 5.254-1.076 3.933-1.603 7.941-1.608 11.92-35.682 16.808-61.805 47.823-67.145 80.232-.512 3.107.972 6.204 3.715 7.751s6.16 1.216 8.556-.829c31.425-26.835 71.487-41.614 112.809-41.614 41.32 0 81.381 14.778 112.8 41.613 1.391 1.188 3.125 1.797 4.872 1.797 1.263 0 2.532-.318 3.683-.967 2.743-1.547 4.229-4.643 3.717-7.75-5.332-32.409-31.453-63.425-67.14-80.235zm-15.215-3.564c1.105 9.196-2.035 18.53-8.676 25.17-6.64 6.64-15.979 9.778-25.169 8.675-1.105-9.196 2.035-18.53 8.675-25.17s15.972-9.781 25.17-8.675zm-42.719-43.223c7.284 5.721 11.664 14.542 11.664 23.933s-4.38 18.211-11.664 23.932c-7.284-5.72-11.663-14.542-11.663-23.932 0-9.391 4.379-18.212 11.663-23.933zm-42.719 43.223c9.199-1.104 18.531 2.036 25.17 8.675h.001c6.64 6.64 9.78 15.974 8.675 25.17-9.196 1.105-18.531-2.036-25.17-8.675-6.641-6.64-9.781-15.975-8.676-25.17zm-12.535 18.964c2.224 6.227 5.788 11.996 10.604 16.812 1.039 1.039 2.125 2.018 3.247 2.941-21.872 4.924-42.755 13.711-61.611 25.992 9.419-18.36 26.447-34.837 47.76-45.745zm96.657 19.754c1.123-.923 2.208-1.902 3.247-2.941 4.816-4.816 8.381-10.587 10.604-16.814 21.318 10.908 38.347 27.388 47.761 45.75-18.855-12.282-39.739-21.071-61.612-25.995z"/><path d="m80.174 440.513v-251.891c8.644-1.736 16.753-5.964 23.175-12.386 11.503-11.504 15.978-28.414 11.676-44.13-.7-2.557-2.697-4.554-5.254-5.254-8.26-2.261-16.843-2.075-24.804.258.26-1.956.396-3.939.396-5.94 0-16.269-8.793-31.389-22.949-39.461-2.303-1.313-5.128-1.313-7.431 0-14.155 8.072-22.948 23.192-22.948 39.461 0 2.001.136 3.985.396 5.941-7.961-2.334-16.544-2.519-24.804-.259-2.557.7-4.555 2.697-5.254 5.254-4.302 15.717.172 32.627 11.676 44.13 6.425 6.426 14.537 10.654 23.185 12.389v251.881c-6.717 5.492-11.013 13.838-11.013 23.171v18.398c0 16.501 13.424 29.925 29.925 29.925h5.106c16.501 0 29.925-13.424 29.925-29.925v-18.398c.001-9.328-4.291-17.671-11.003-23.164zm21.245-300.054c1.105 9.196-2.036 18.53-8.675 25.17-6.641 6.64-15.973 9.782-25.17 8.674-1.105-9.195 2.035-18.53 8.675-25.169 6.639-6.64 15.971-9.779 25.17-8.675zm-42.72-43.222c7.285 5.721 11.664 14.542 11.664 23.933s-4.379 18.211-11.664 23.932c-7.284-5.721-11.664-14.542-11.664-23.932s4.38-18.212 11.664-23.933zm-42.718 43.222c9.199-1.104 18.53 2.036 25.17 8.675 6.64 6.64 9.781 15.974 8.675 25.17-9.196 1.104-18.53-2.035-25.17-8.675s-9.781-15.974-8.675-25.17zm36.254 48.657c1.992-.267 3.978-.667 5.945-1.205.179-.049.347-.119.52-.18.173.061.342.131.52.18 1.971.539 3.96.94 5.955 1.207v244.899c-1.285-.169-2.592-.265-3.922-.265h-5.106c-1.327 0-2.631.096-3.912.264zm23.943 292.959c0 8.23-6.695 14.925-14.925 14.925h-5.106c-8.23 0-14.925-6.695-14.925-14.925v-18.398c0-8.229 6.695-14.925 14.925-14.925h5.106c8.23 0 14.925 6.695 14.925 14.925z"/></g></g></svg>