<svg id="Capa_1" enable-background="new 0 0 511.998 511.998" height="512" viewBox="0 0 511.998 511.998" width="512" xmlns="http://www.w3.org/2000/svg"><g><g><g><path d="m383.661 125.591h-180.92c-29.828 0-54.008 24.18-54.008 54.008v260.748c0 29.828 24.18 54.008 54.008 54.008h180.92c29.828 0 54.008-24.18 54.008-54.008v-260.748c0-29.828-24.18-54.008-54.008-54.008z" fill="#365e7d"/><path d="m289.172 494.357h-86.43c-29.83 0-54.01-24.18-54.01-54.01v-260.748c0-29.83 24.18-54.01 54.01-54.01h86.43c-29.83 0-54.01 24.18-54.01 54.01v260.749c0 29.83 24.18 54.009 54.01 54.009z" fill="#2b4d66"/><g><path d="m99.544 7.5h48.883c7.53 0 13.634 6.104 13.634 13.634 0 7.53 6.104 13.634 13.634 13.634h43.34v34.584h-104.86c-9.55 0-17.292-7.742-17.292-17.292 0-3.719 1.185-7.156 3.183-9.976h-.523c-9.55 0-17.292-7.742-17.292-17.292.001-9.55 7.743-17.292 17.293-17.292z" fill="#ffc250"/><path d="m151.421 69.35h-37.25c-9.55 0-17.29-7.74-17.29-17.29 0-1.86.3-3.65.84-5.33.55-1.67 1.35-3.24 2.35-4.65h-.53c-9.55 0-17.29-7.74-17.29-17.29 0-4.77 1.93-9.1 5.06-12.23 3.13-3.12 7.45-5.06 12.23-5.06h37.25c-4.77 0-9.1 1.94-12.23 5.06-3.12 3.13-5.06 7.46-5.06 12.23 0 9.55 7.74 17.29 17.29 17.29h.52c-1 1.41-1.79 2.98-2.34 4.65-.55 1.68-.84 3.47-.84 5.33 0 9.55 7.74 17.29 17.29 17.29z" fill="#e7a52e"/><path d="m487.185 7.5h-48.883c-7.53 0-13.634 6.104-13.634 13.634 0 7.53-6.104 13.634-13.634 13.634h-43.34v34.584h104.86c9.55 0 17.292-7.742 17.292-17.292 0-3.719-1.185-7.156-3.183-9.976h.523c9.55 0 17.292-7.742 17.292-17.292-.001-9.55-7.743-17.292-17.293-17.292z" fill="#ffc250"/><path d="m448.053 24.793c0 1.86.29 3.65.84 5.33s1.34 3.24 2.34 4.65h-.52c-9.55 0-17.3 7.74-17.3 17.29 0 4.78 1.94 9.1 5.07 12.23s7.46 5.06 12.23 5.06h-83.02v-34.58h43.34c3.77 0 7.17-1.53 9.64-4s4-5.87 4-9.64c0-7.53 6.1-13.63 13.63-13.63h27.04c-9.55 0-17.29 7.74-17.29 17.29z" fill="#e7a52e"/></g><path d="m419.898 504.498h-64.799l-42.116-12.42-91.753 12.42h-56.031c20.56-34.75 54.92-60.36 95.56-69.26.23-.05.47-.1.7-.15v-53.89h62.19v53.89c.24.05.48.1.71.16 7.616 1.669 15.012 3.925 22.139 6.718 3.761 1.474-2.543 13.088 1.061 14.854 3.224 1.58 16.372-6.715 19.459-4.912 21.79 12.727 40.03 30.871 52.88 52.59z" fill="#ffddce"/><path d="m369.719 453.518v.01l-14.62 50.97h-133.869l125.4-62.48c8.069 3.17 15.789 7.03 23.089 11.5z" fill="#ede6e3"/><path d="m275.141 381.198v53.89c-22.93 8.76-42.33 34.46-53.91 69.41h-56.03c20.68-34.95 55.32-60.65 96.26-69.41v-53.89z" fill="#ffcbbe"/><path d="m448.6 127.35-108.54-.43-201.939-.8c3.75-13.87 9.31-26.99 16.41-39.1 27.88-47.57 79.54-79.52 138.669-79.52 59.12 0 110.79 31.95 138.669 79.52 7.23 12.34 12.87 25.74 16.61 39.9.041.14.081.289.121.43z" fill="#ede6e3"/><path d="m448.48 126.92h-108.42l-201.939-.8c3.75-13.87 9.31-26.99 16.41-39.1h277.339c7.23 12.34 12.87 25.74 16.61 39.9z" fill="#d8cec9"/><path d="m138.124 126.117c18.46-68.34 80.9-118.619 155.069-118.619 20.2 0 39.54 3.73 57.35 10.55-47.58 18.18-84.29 58.35-97.73 108.07h-114.689z" fill="#d8cec9"/><g fill="#ffcbbe"><circle cx="155.68" cy="272.385" r="39.613"/><circle cx="430.724" cy="272.385" r="39.613"/></g><path d="m410.885 146.449v129.109c0 53.06-38.1 97.21-88.44 106.599h-.01c-6.48 1.21-13.16 1.84-19.99 1.84h-18.48c-59.9 0-108.45-48.55-108.45-108.44v-37.48l45.82-91.63 12.66 5.96 46 21.65c17.93 8.43 39.34 1.62 49.09-15.63l27.21 11.56c15.42 6.55 33.32 2.19 43.99-10.72z" fill="#ffddce"/><path d="m322.436 382.158c-6.48 1.21-13.16 1.84-19.99 1.84h-18.48c-59.9 0-108.45-48.55-108.45-108.44v-37.48l45.82-91.63 12.66 5.96v123.149c0 53.062 38.1 97.211 88.44 106.601z" fill="#ffcbbe"/><path d="m458.805 105.638h-331.209c-11.019 0-19.952 8.933-19.952 19.952 0 11.019 8.933 19.952 19.952 19.952h331.209c11.019 0 19.952-8.933 19.952-19.952.001-11.019-8.932-19.952-19.952-19.952z" fill="#ede6e3"/><path d="m210.593 139.701c3.61 3.61 8.6 5.84 14.11 5.84h-97.11c-5.51 0-10.49-2.23-14.1-5.84s-5.85-8.6-5.85-14.11c0-11.02 8.94-19.95 19.95-19.95h97.11c-11.02 0-19.96 8.93-19.96 19.95 0 5.51 2.24 10.5 5.85 14.11z" fill="#d8cec9"/></g><g><path d="m95.849 229.388h26.301v248.734h-26.301z" fill="#ffc250"/><path d="m95.849 229.388h12.482v248.734h-12.482z" fill="#e7a52e"/><path d="m111.552 441.25h-5.106c-12.385 0-22.425 10.04-22.425 22.425v18.398c0 12.385 10.04 22.425 22.425 22.425h5.106c12.385 0 22.425-10.04 22.425-22.425v-18.398c0-12.385-10.04-22.425-22.425-22.425z" fill="#ffddce"/><path d="m119.471 503.055c-2.46.93-5.13 1.44-7.92 1.44h-5.11c-12.38 0-22.42-10.04-22.42-22.42v-18.4c0-12.38 10.04-22.42 22.42-22.42h5.11c2.79 0 5.46.51 7.92 1.44-8.47 3.2-14.5 11.39-14.5 20.98v18.4c0 9.59 6.03 17.78 14.5 20.98z" fill="#ffcbbe"/><g><path d="m185.208 180.799h-46.014c-7.088 0-12.834 5.746-12.834 12.834 0 7.088-5.746 12.834-12.834 12.834h-18.049c-7.088 0-12.834-5.746-12.834-12.834 0-7.088-5.746-12.834-12.834-12.834h-46.014c-8.989 0-16.277 7.288-16.277 16.277 0 8.99 7.288 16.277 16.277 16.277h.492c-1.881 2.655-2.996 5.89-2.996 9.391 0 8.99 7.288 16.277 16.277 16.277h49.282 35.303 49.282c8.99 0 16.277-7.288 16.277-16.277 0-3.501-1.116-6.736-2.997-9.391h.492c8.99 0 16.277-7.287 16.277-16.277.001-8.99-7.287-16.277-16.276-16.277z" fill="#ffc250"/><path d="m72.627 239.019h-35.064c-8.989 0-16.275-7.286-16.275-16.275 0-1.751.282-3.436.791-5.017.518-1.572 1.271-3.05 2.212-4.377h-.499c-8.989 0-16.275-7.286-16.275-16.275 0-4.49 1.817-8.566 4.763-11.512 2.946-2.937 7.013-4.763 11.512-4.763h35.064c-4.49 0-8.566 1.826-11.512 4.763-2.937 2.946-4.763 7.022-4.763 11.512 0 8.989 7.286 16.275 16.275 16.275h.489c-.941 1.327-1.685 2.805-2.203 4.377-.518 1.581-.791 3.266-.791 5.017.001 8.989 7.286 16.275 16.276 16.275z" fill="#e7a52e"/></g></g></g><g><path d="m511.98 24.79c0-6.612-2.574-12.836-7.266-17.542-4.688-4.674-10.912-7.248-17.524-7.248h-48.89c-11.651 0-21.13 9.479-21.13 21.13 0 1.634-.641 3.174-1.804 4.337-1.162 1.163-2.702 1.803-4.336 1.803h-26.02c-27.32-17.845-59.01-27.27-91.809-27.27-32.811 0-64.502 9.426-91.81 27.27h-25.699c-1.634 0-3.174-.64-4.336-1.803-1.157-1.157-1.794-2.697-1.794-4.337 0-11.651-9.479-21.13-21.13-21.13h-48.89c-6.612 0-12.836 2.574-17.533 7.257-4.68 4.68-7.257 10.906-7.257 17.533 0 10.209 6.203 18.997 15.038 22.791-.271 1.478-.408 2.976-.408 4.479 0 13.669 11.121 24.79 24.79 24.79h37.844c-4.416 6.817-8.337 13.928-11.708 21.288h-12.709c-15.136 0-27.449 12.314-27.449 27.45 0 7.337 2.854 14.231 8.028 19.405 5.179 5.194 12.076 8.055 19.421 8.055h19.676c-3.037 6.353-4.978 13.21-5.707 20.251h-2.374c-11.212 0-20.334 9.122-20.334 20.334 0 2.941-2.393 5.334-5.334 5.334h-18.049c-2.941 0-5.334-2.393-5.334-5.334 0-11.212-9.122-20.334-20.334-20.334h-46.015c-13.11 0-23.776 10.666-23.776 23.777 0 9.667 5.798 18.005 14.101 21.719-.218 1.296-.328 2.616-.328 3.949 0 13.111 10.666 23.777 23.777 23.777h50.785v193.339c-7.184 5.471-11.832 14.109-11.832 23.815v18.398c0 16.501 13.424 29.925 29.925 29.925h5.106c16.501 0 29.926-13.424 29.926-29.925v-18.398c0-9.703-4.645-18.338-11.825-23.81v-128.2c3.581 2.378 7.469 4.262 11.579 5.579v123.104c0 19.563 9.289 37.769 24.704 49.285-2.539 3.571-4.94 7.251-7.184 11.049-1.37 2.319-1.392 5.194-.057 7.533 1.334 2.339 3.82 3.783 6.514 3.783h254.69c2.693 0 5.181-1.445 6.516-3.785 1.334-2.34 1.311-5.216-.061-7.534-2.114-3.572-4.369-7.041-6.745-10.41 15.95-11.459 25.562-29.9 25.562-49.92v-123.13c18.929-6.116 32.662-23.899 32.662-44.837s-13.733-38.721-32.662-44.837v-47.945c0-9.231-2.108-18.315-6.047-26.552h19.685c15.136 0 27.45-12.318 27.45-27.46 0-7.337-2.854-14.231-8.037-19.414s-12.077-8.036-19.413-8.036h-12.715c-3.377-7.367-7.299-14.479-11.711-21.288h38.168c13.675 0 24.8-11.121 24.8-24.79 0-1.51-.138-3.009-.409-4.479 8.835-3.794 15.038-12.582 15.038-22.791zm-407.599 27.27c0-.84.115-1.679.323-2.476h11.727c4.143 0 7.5-3.358 7.5-7.5s-3.357-7.5-7.5-7.5h-16.297c-.021 0-.042-.004-.063-.004h-.53c-5.398 0-9.79-4.392-9.79-9.79 0-2.62 1.017-5.08 2.855-6.918 1.858-1.852 4.321-2.872 6.935-2.872h48.89c3.38 0 6.13 2.75 6.13 6.13 0 5.646 2.197 10.953 6.187 14.943 3.996 3.996 9.303 6.197 14.943 6.197h6.071c-6.772 5.998-13.051 12.54-18.798 19.58h-48.792c-5.399 0-9.791-4.392-9.791-9.79zm60.176 100.988h45.096l-11.916 23.833c-3.641-2.267-7.934-3.581-12.529-3.581h-28.558c.974-7.309 3.655-14.181 7.907-20.252zm137.892 223.45h-18.48c-45.415 0-85.47-30.559-97.403-74.311-2.354-8.644-3.547-17.604-3.547-26.629v-32.06c7.268-4.073 12.194-11.847 12.194-20.754 0-1.334-.11-2.654-.328-3.949 8.302-3.714 14.101-12.052 14.101-21.719 0-2.446-.372-4.807-1.061-7.029l16.847-33.694 52.036 24.492c19.29 9.069 42.223 3.245 55.042-13.096l21.517 9.141c17.106 7.266 37.111 3.16 50.022-9.882v108.549c-.001 55.659-45.282 100.941-100.94 100.941zm92.058-222.008c-8.493 10.276-23.001 13.81-35.276 8.595l-23.625-10.037h60.094zm-71.948.247c-7.772 13.754-25.065 19.258-39.366 12.535l-30.22-14.224h70.892c-.503.488-.946 1.052-1.306 1.689zm-293.769 68.007c0-.643.095-1.272.233-1.891h10.668c4.143 0 7.5-3.358 7.5-7.5s-3.357-7.5-7.5-7.5h-15.404-.493c-4.839 0-8.776-3.938-8.776-8.777 0-4.84 3.938-8.777 8.776-8.777h46.015c2.941 0 5.334 2.393 5.334 5.334 0 11.212 9.122 20.334 20.334 20.334h18.049c11.212 0 20.334-9.122 20.334-20.334 0-2.941 2.393-5.334 5.334-5.334h46.014c4.84 0 8.777 3.938 8.777 8.777s-3.938 8.777-8.777 8.777h-.492-15.404c-4.143 0-7.5 3.358-7.5 7.5s3.357 7.5 7.5 7.5h10.668c.138.618.233 1.247.233 1.891 0 4.84-3.938 8.777-8.777 8.777h-133.868c-4.84 0-8.778-3.937-8.778-8.777zm97.688 259.329c0 8.23-6.695 14.925-14.926 14.925h-5.106c-8.229 0-14.925-6.695-14.925-14.925v-18.398c0-8.23 6.695-14.925 14.925-14.925h5.106c8.23 0 14.926 6.695 14.926 14.925zm-14.926-48.323h-5.106c-1.044 0-2.076.055-3.093.16v-187.389h11.3v187.39c-1.02-.106-2.054-.161-3.101-.161zm18.101-142.556v-37.613c1.951-2.685 4.326-5.081 6.997-7.06h31.368v12.973c-3.003-1.224-6.318-2.036-9.926-2.399-7.448-.748-13.556.675-14.228.839-4.009.984-6.451 5.018-5.486 9.032s5.013 6.489 9.028 5.544c.044-.01 4.475-1.031 9.545-.452 5.079.581 8.728 2.461 11.103 5.725.147 7.738 1.059 15.422 2.721 22.939-4.616 2.474-9.753 3.775-15.098 3.775-10.397.001-19.98-4.935-26.024-13.303zm76.752 177.663c3.269-2.544 3.856-7.256 1.312-10.525s-7.256-3.856-10.525-1.313c-8.04 6.257-15.378 13.219-21.978 20.817-11.836-8.697-18.982-22.569-18.982-37.488v-120.861c6.576-.075 12.933-1.486 18.796-4.137 13.048 35.735 42.893 62.47 78.931 72.165v41.633c-10.404 2.662-20.512 6.405-30.124 11.157-3.713 1.836-5.234 6.334-3.398 10.047 1.308 2.645 3.965 4.177 6.729 4.177 1.116 0 2.25-.25 3.318-.779 10.315-5.101 21.267-8.912 32.547-11.33 3.458-.741 5.929-3.797 5.929-7.333v-44.576c4.93.645 9.939.986 15.01.986h18.48c4.635 0 9.206-.282 13.7-.813v44.403c0 3.537 2.472 6.594 5.931 7.334 1.58.338 3.148.712 4.711 1.105l-107.324 53.471h-40.361c7.71-10.582 16.854-20.013 27.298-28.14zm154.489-11.789-11.448 39.93h-96.344l93.827-46.747c4.784 2.016 9.447 4.291 13.965 6.817zm4.158 39.93 9.046-31.551c12.165 8.698 22.964 19.335 31.888 31.551zm45.315-18.578c-20.683-24.024-48.365-41.373-79.218-49.272v-41.248c37.141-9.494 67.165-36.967 80.208-72.562 5.873 2.657 12.237 4.07 18.814 4.145v120.865c-.001 15.333-7.464 29.433-19.804 38.072zm52.465-206.039c0 17.707-14.405 32.113-32.112 32.113-5.335 0-10.469-1.3-15.091-3.772 1.647-7.413 2.583-15.089 2.731-22.956 2.375-3.254 6.021-5.128 11.093-5.708 5.011-.573 9.393.417 9.542.451 4.005.966 8.056-1.491 9.041-5.504.987-4.023-1.474-8.084-5.496-9.072-.672-.165-6.774-1.588-14.228-.839-3.607.362-6.921 1.175-9.924 2.398v-16.767c3.89-1.616 8.085-2.459 12.332-2.459 17.707.002 32.112 14.408 32.112 32.115zm-32.662-92.782v45.687c-3.994.047-7.955.59-11.782 1.627v-73.865h3.452c5.456 7.79 8.33 16.897 8.33 26.551zm-18.662-66.461h47.3c3.329 0 6.457 1.294 8.808 3.644 2.349 2.349 3.643 5.477 3.643 8.807 0 6.87-5.585 12.46-12.45 12.46h-331.21c-3.33 0-6.454-1.295-8.807-3.654-2.349-2.349-3.643-5.476-3.643-8.806 0-6.865 5.585-12.45 12.449-12.45h253.99c4.143 0 7.5-3.358 7.5-7.5s-3.357-7.5-7.5-7.5h-224.596c4.37-8.49 9.533-16.592 15.452-24.174 10.002-12.818 21.906-23.911 35.385-32.972 25.259-17.005 54.781-25.993 85.372-25.993 30.582 0 60.103 8.988 85.375 25.994 13.48 9.063 25.381 20.155 35.375 32.974 5.914 7.568 11.08 15.669 15.457 24.169h-17.899c-4.143 0-7.5 3.358-7.5 7.5s3.357 7.501 7.499 7.501zm75.682-78.558h-.53c-.021 0-.042.004-.063.004h-16.299c-4.143 0-7.5 3.358-7.5 7.5s3.357 7.5 7.5 7.5h11.723c.215.806.33 1.636.33 2.476 0 5.398-4.396 9.79-9.8 9.79h-49.121c-5.742-7.039-12.019-13.581-18.791-19.58h6.392c5.641 0 10.947-2.201 14.943-6.197s6.196-9.303 6.196-14.943c0-3.38 2.75-6.13 6.13-6.13h48.89c2.614 0 5.077 1.02 6.918 2.855 1.853 1.858 2.872 4.321 2.872 6.935 0 5.398-4.392 9.79-9.79 9.79z"/><path d="m237.307 232.618c-7.236 0-13.123 8.065-13.123 17.979s5.887 17.979 13.123 17.979c7.235 0 13.122-8.065 13.122-17.979s-5.887-17.979-13.122-17.979z"/><path d="m349.097 232.618c-7.235 0-13.122 8.065-13.122 17.979s5.887 17.979 13.122 17.979c7.236 0 13.123-8.065 13.123-17.979s-5.887-17.979-13.123-17.979z"/><path d="m238.082 197.769c-8.083 0-15.683 3.148-21.398 8.864-2.93 2.929-2.93 7.678-.001 10.607 2.929 2.928 7.678 2.929 10.606 0 2.884-2.883 6.716-4.47 10.793-4.47 4.076 0 7.909 1.588 10.791 4.47 1.465 1.465 3.384 2.197 5.304 2.197 1.919 0 3.839-.732 5.303-2.197 2.93-2.929 2.93-7.678.001-10.607-5.716-5.716-13.316-8.864-21.399-8.864z"/><path d="m349.453 197.769c-8.083 0-15.683 3.148-21.398 8.864-2.93 2.929-2.93 7.678-.001 10.607 2.929 2.928 7.678 2.929 10.606 0 2.884-2.883 6.716-4.47 10.793-4.47 4.076 0 7.909 1.588 10.791 4.47 1.465 1.465 3.384 2.197 5.304 2.197 1.919 0 3.839-.732 5.303-2.197 2.93-2.929 2.93-7.678.001-10.607-5.717-5.716-13.316-8.864-21.399-8.864z"/><path d="m318.387 281.388c-3.969-1.18-8.146 1.084-9.324 5.055-2.063 6.948-8.586 11.801-15.861 11.801-7.267 0-13.79-4.856-15.862-11.809-1.184-3.969-5.357-6.229-9.33-5.045-3.97 1.183-6.229 5.361-5.045 9.33 3.953 13.261 16.388 22.523 30.237 22.523 13.866 0 26.302-9.265 30.24-22.531 1.179-3.97-1.084-8.145-5.055-9.324z"/></g></g></svg>