<svg id="Capa_1" enable-background="new 0 0 512 512" height="512" viewBox="0 0 512 512" width="512" xmlns="http://www.w3.org/2000/svg"><g><g><path d="m54.167 438.317-9.331-27.994c-8.093-24.279-6.445-50.752 4.597-73.839 2.096-4.383 8.16-4.835 10.882-.81l16.797 24.83 19.113-68.808c1.688-6.076 10.271-6.164 12.083-.124l16.249 54.164c4.867 16.223 5.48 33.425 1.779 49.954l-9.32 41.631" fill="#e04b66"/><path d="m7.661 419.342c9.941 33.085 40.621 57.195 76.945 57.195s67.003-24.11 76.945-57.195z" fill="#ffc250"/><path d="m107.656 473.177c-7.3 2.19-15.04 3.36-23.05 3.36-36.33 0-67.009-24.11-76.949-57.199h46.11c7.749 25.789 28.089 46.119 53.889 53.839z" fill="#e7a52e"/><g><path d="m332.82 504.495 106.635-49.841c45.9-21.454 71.805-70.934 63.285-120.879l-5.602-32.842c-5.925-34.734-8.904-69.907-8.904-105.143v-32.875c.001-85.834-69.58-155.415-155.413-155.415-85.833 0-155.414 69.581-155.414 155.414v32.875c0 35.236-2.979 70.409-8.904 105.143l-5.602 32.842c-8.52 49.945 17.385 99.425 63.285 120.879z" fill="#ede6e3"/><path d="m289.275 454.657 43.54 49.84-106.629-49.84c-45.909-21.46-71.809-70.939-63.289-120.879l5.6-32.84c5.93-34.74 8.91-69.909 8.91-105.149v-32.87c0-42.92 17.4-81.779 45.52-109.899s66.979-45.52 109.889-45.52c-17.53 0-33.39 17.4-44.87 45.52-11.49 28.12-18.59 66.979-18.59 109.899v32.87c0 35.24-1.22 70.409-3.64 105.149l-2.29 32.84c-3.481 49.94 7.099 99.419 25.849 120.879z" fill="#d8cec9"/><path d="m480.216 318.947c0 53.239-43.15 96.389-96.389 96.389h-102.019c-26.62 0-50.719-10.79-68.159-28.23s-28.23-41.54-28.23-68.159c0-5.05.57-9.96 1.66-14.68 7.39-32.05 13.23-64.429 17.02-97.029 5.5-47.31 45.3-83.149 92.939-83.149h71.559c47.639 0 87.429 35.84 92.939 83.159 3.79 32.59 9.63 64.969 17.02 97.019 1.09 4.72 1.66 9.63 1.66 14.68z" fill="#9d6b6b"/><path d="m301.434 387.11c17.44 17.44 41.54 28.23 68.159 28.23h-87.789c-26.62 0-50.72-10.79-68.159-28.23-17.44-17.44-28.23-41.54-28.23-68.16 0-5.05.57-9.96 1.66-14.68 7.39-32.05 13.23-64.429 17.02-97.029 5.5-47.309 45.3-83.149 92.939-83.149h71.559c2.73 0 5.44.12 8.12.35-43.98 3.8-79.649 38.2-84.829 82.799-3.79 32.6-9.63 64.979-17.02 97.029-1.09 4.72-1.66 9.63-1.66 14.68 0 26.62 10.79 50.72 28.23 68.16z" fill="#8b5e5e"/><path d="m301.807 381.536h62.009v33.8h-62.009z" fill="#ffcbbe"/><path d="m243.008 462.516 89.809 41.98h-126.989c9.62-16.261 22.28-30.511 37.18-41.98z" fill="#ede6e3"/><path d="m459.796 504.495h-126.979l89.809-41.98c14.9 11.47 27.56 25.73 37.17 41.98z" fill="#ede6e3"/><path d="m285.868 482.545c-2.51 6.8-4.76 14.14-6.71 21.95h-73.329c9.62-16.26 22.27-30.52 37.18-41.98z" fill="#d8cec9"/><path d="m450.501 200.248v75.309c0 59.889-48.55 108.439-108.439 108.439h-18.48c-59.895 0-108.449-48.554-108.449-108.449v-2.484c0-22.755 7.104-44.942 20.32-63.465 10.45-14.66 26.89-23.78 44.7-25.01 1.38-.1 2.76-.15 4.15-.15h26.14c33.14 0 60.009-26.87 60.009-60.009l6.98 16.289c13.12 30.62 40.429 52.87 73.069 59.53z" fill="#ffddce"/><path d="m365.332 381.487c-7.49 1.65-15.28 2.51-23.27 2.51h-18.48c-59.895 0-108.449-48.554-108.449-108.449v-2.484c0-22.755 7.104-44.942 20.32-63.465 10.45-14.66 26.89-23.78 44.7-25.01v90.969c0 51.899 36.469 95.289 85.179 105.929z" fill="#ffcbbe"/></g><g><path d="m106.687 466.764h-44.162c-10.419 0-18.866 8.446-18.866 18.866 0 10.419 8.446 18.866 18.866 18.866h44.162c10.419 0 18.866-8.446 18.866-18.866 0-10.42-8.447-18.866-18.866-18.866z" fill="#ffddce"/><path d="m76.915 498.979c3.411 3.411 8.131 5.521 13.339 5.521h-27.734c-5.209 0-9.929-2.111-13.339-5.521-3.411-3.42-5.521-8.141-5.521-13.349 0-10.417 8.443-18.861 18.861-18.861h27.734c-10.417 0-18.871 8.444-18.871 18.861 0 5.208 2.111 9.928 5.531 13.349z" fill="#ffcbbe"/></g></g><g><path d="m161.55 411.846h-31.14l3.253-14.52c2.8-12.52 3.313-25.299 1.527-37.982-.577-4.102-4.377-6.956-8.473-6.381-4.102.578-6.958 4.371-6.381 8.473 1.533 10.89 1.092 21.864-1.312 32.615l-3.986 17.795h-61.792l-1.297-3.887c-7.291-21.884-6.088-45.345 3.354-66.302l15.6 23.055c1.639 2.421 4.534 3.67 7.421 3.199 2.886-.471 5.234-2.577 6.018-5.394l17.997-64.768 10.732 35.766c1.19 3.968 5.374 6.219 9.339 5.028 3.968-1.19 6.219-5.372 5.028-9.339l-11.939-39.787c-1.781-5.945-7.146-9.859-13.354-9.827-6.206.067-11.486 4.131-13.136 10.102l-14.775 53.175-7.709-11.393c-2.571-3.798-6.837-6.065-11.409-6.065-5.361 0-10.13 3.005-12.446 7.844-11.814 24.696-13.654 52.568-5.223 78.592h-29.786c-2.371 0-4.604 1.122-6.019 3.025s-1.847 4.363-1.164 6.634c6.411 21.324 20.579 39.227 39.549 50.392-2.452 4.002-3.868 8.705-3.868 13.732 0 14.538 11.828 26.366 26.366 26.366h44.161c14.538 0 26.366-11.828 26.366-26.366 0-5.028-1.416-9.73-3.868-13.733 18.97-11.164 33.137-29.068 39.548-50.391.683-2.271.251-4.731-1.164-6.634-1.415-1.902-3.647-3.024-6.018-3.024zm-54.863 85.149h-44.162c-6.268 0-11.366-5.099-11.366-11.366s5.099-11.366 11.366-11.366h44.161c6.268 0 11.366 5.099 11.366 11.366s-5.098 11.366-11.365 11.366zm10.403-35.588c-3.194-1.377-6.71-2.143-10.403-2.143h-44.162c-3.693 0-7.209.766-10.403 2.143-14.884-7.417-26.693-19.615-33.612-34.561h132.191c-6.919 14.945-18.727 27.144-33.611 34.561z"/><path d="m297.034 116.588c-51.273 0-94.43 38.6-100.387 89.787-3.59 30.857-9.269 63.227-16.877 96.208-1.232 5.336-1.856 10.843-1.856 16.367 0 57.285 46.604 103.89 103.89 103.89h102.026c57.285 0 103.89-46.604 103.89-103.89 0-5.524-.624-11.031-1.856-16.368-7.608-32.981-13.287-65.35-16.877-96.206-5.955-51.188-49.112-89.788-100.387-89.788zm26.548 274.909h18.48c4.825 0 9.582-.301 14.254-.877v17.22h-47.009v-17.222c4.68.577 9.443.879 14.275.879zm18.481-15h-18.48c-55.664 0-100.949-45.286-100.949-100.949v-2.484c0-21.316 6.544-41.756 18.928-59.112 9.139-12.821 23.394-20.796 39.132-21.883 1.199-.086 2.414-.13 3.61-.13h26.14c28.419 0 52.793-17.651 62.734-42.565 14.002 28.094 39.469 48.821 69.824 56.822v69.363c-.001 55.656-45.282 100.938-100.939 100.938zm-149.149-57.547c0-4.39.495-8.762 1.472-12.994 7.733-33.52 13.507-66.441 17.162-97.847 5.075-43.624 41.827-76.521 85.486-76.521h65.417c-3.504 25.577-25.484 45.35-52.009 45.35h-26.14c-1.556 0-3.134.057-4.667.167-20.207 1.396-38.537 11.652-50.288 28.137-14.206 19.911-21.715 43.364-21.715 67.821v2.484c0 53.825 36.867 99.198 86.675 112.203v20.09h-12.504c-49.013 0-88.889-39.876-88.889-88.89zm278.334-12.995c.977 4.232 1.472 8.604 1.472 12.995 0 49.014-39.876 88.89-88.89 88.89h-12.514v-20.085c49.812-12.997 86.685-58.371 86.685-112.198v-38.562c3.434 22.493 7.852 45.573 13.247 68.96zm-20.402-113.309c-29.713-6.452-54.526-26.888-66.521-54.881l-2.178-5.084c32.384 5.169 59.087 28.55 68.699 59.965z"/><path d="m276.926 237.618c-2.838 0-5.461 1.254-7.611 3.36l-4.959-3.528c-3.377-2.402-8.059-1.611-10.459 1.764-2.401 3.375-1.611 8.058 1.764 10.459l8.147 5.796c0 .043-.005.085-.005.128 0 9.914 5.887 17.979 13.123 17.979 7.235 0 13.122-8.065 13.122-17.979s-5.887-17.979-13.122-17.979z"/><path d="m401.285 237.45-4.959 3.528c-2.149-2.106-4.772-3.36-7.611-3.36-7.235 0-13.122 8.065-13.122 17.979s5.887 17.979 13.122 17.979c7.236 0 13.123-8.065 13.123-17.979 0-.043-.005-.085-.005-.128l8.147-5.796c3.375-2.401 4.165-7.083 1.764-10.459-2.4-3.375-7.083-4.167-10.459-1.764z"/><path d="m256.303 206.631c-2.93 2.929-2.93 7.677-.001 10.606s7.678 2.929 10.606 0c5.952-5.951 15.635-5.95 21.585 0 1.464 1.465 3.384 2.197 5.303 2.197s3.839-.732 5.304-2.197c2.929-2.929 2.929-7.678-.001-10.606-11.798-11.798-30.996-11.799-42.796 0z"/><path d="m389.07 212.768c4.076 0 7.909 1.587 10.791 4.47 1.465 1.465 3.384 2.197 5.304 2.197 1.919 0 3.839-.732 5.303-2.197 2.93-2.929 2.93-7.677.001-10.606-5.716-5.716-13.315-8.864-21.398-8.864s-15.683 3.148-21.398 8.864c-2.929 2.929-2.929 7.678.001 10.606 2.928 2.93 7.677 2.929 10.606 0 2.881-2.883 6.714-4.47 10.79-4.47z"/><path d="m358.006 281.387c-3.97-1.179-8.146 1.084-9.324 5.055-2.063 6.948-8.586 11.801-15.861 11.801-7.267 0-13.79-4.856-15.862-11.809-1.184-3.969-5.358-6.229-9.33-5.045-3.97 1.184-6.229 5.361-5.045 9.33 3.953 13.262 16.388 22.523 30.237 22.523 13.866 0 26.302-9.265 30.24-22.531 1.179-3.97-1.084-8.145-5.055-9.324z"/><path d="m510.137 332.507-5.609-32.837c-5.835-34.229-8.793-69.179-8.793-103.88v-32.88c0-39.016-14.006-76.755-39.438-106.266-2.704-3.139-7.439-3.488-10.578-.785-3.138 2.704-3.489 7.439-.785 10.577 23.087 26.79 35.802 61.051 35.802 96.474v32.88c0 35.543 3.03 71.341 9.007 106.403l5.609 32.837c7.927 46.472-16.365 92.867-59.073 112.825l-103.453 48.365-103.466-48.365c-42.701-19.956-66.988-66.351-59.061-112.825l5.6-32.84c5.977-35.062 9.007-70.861 9.007-106.4v-32.88c0-39.507 15.386-76.649 43.323-104.587s65.083-43.323 104.595-43.323c33.604 0 65.27 10.981 91.571 31.755 3.249 2.568 7.966 2.014 10.534-1.236 2.567-3.25 2.014-7.967-1.237-10.534-28.975-22.887-63.855-34.985-100.868-34.985-43.52 0-84.433 16.946-115.204 47.717-30.77 30.77-47.716 71.68-47.716 115.193v32.88c0 34.697-2.959 69.647-8.794 103.879l-5.6 32.839c-9.06 53.11 18.696 106.13 67.497 128.936l6.343 2.965c-11.68 10.502-21.641 22.657-29.689 36.269-1.371 2.318-1.393 5.194-.059 7.533 1.335 2.339 3.821 3.784 6.515 3.784h126.616c.03 0 .06.005.09.005s.06-.004.09-.005h126.602c2.693 0 5.18-1.444 6.515-3.784s1.312-5.215-.059-7.533c-8.044-13.605-18.005-25.76-29.685-36.269l6.342-2.965c48.808-22.807 76.567-75.827 67.509-128.937zm-265.882 138.869 54.804 25.619h-79.038c6.949-9.527 15.064-18.099 24.234-25.619zm201.358 25.619h-79.027l54.799-25.619c9.17 7.525 17.281 16.096 24.228 25.619z"/></g></g></svg>