<?xml version="1.0"?>
<svg width="511.995" height="511.995" xmlns="http://www.w3.org/2000/svg" xmlns:svg="http://www.w3.org/2000/svg">

 <g class="layer">
  <title>Layer 1</title>
  <g id="svg_1">
   <g id="svg_2">
    <g id="svg_3">
     <path d="m487.598,154.987c21.905,-21.905 21.905,-57.419 0,-79.324c-13.417,-13.416 -31.937,-18.6 -49.31,-15.582c-1.814,-29.341 -26.173,-52.581 -55.971,-52.581c-30.978,0 -56.091,25.113 -56.091,56.091c0,-30.978 -25.113,-56.091 -56.091,-56.091c-29.798,0 -54.157,23.24 -55.97,52.581c-17.373,-3.019 -35.894,2.165 -49.31,15.582c-21.905,21.905 -21.905,57.419 0,79.324c12.419,12.419 13.38,32.393 1.909,45.693c-8.47,9.821 -13.592,22.609 -13.592,36.597c0,28.933 21.908,52.742 50.04,55.761c-11.732,9.698 -19.215,24.355 -19.215,40.765c0,16.117 7.213,30.547 18.586,40.242c7.578,6.461 9.904,17.354 5.307,26.188c-3.792,7.288 -5.936,15.569 -5.936,24.353c0,29.894 24.809,53.994 54.962,52.833l138.612,0c30.153,1.161 54.962,-22.939 54.962,-52.833c0,-8.784 -2.144,-17.065 -5.936,-24.353c-4.597,-8.834 -2.272,-19.727 5.307,-26.188c11.373,-9.696 18.586,-24.125 18.586,-40.242c0,-16.41 -7.482,-31.066 -19.214,-40.764c28.135,-3.014 50.048,-26.826 50.048,-55.762c0,-13.988 -5.122,-26.776 -13.592,-36.597c-11.471,-13.3 -10.511,-33.274 1.909,-45.693z" fill="#9d6b6b" id="svg_4"/>
     <path d="m336.724,477.417l-79.799,0c-30.16,1.16 -54.969,-22.94 -54.969,-52.829c0,-8.78 2.15,-17.07 5.94,-24.35c4.6,-8.84 2.27,-19.73 -5.31,-26.19c-11.37,-9.7 -18.58,-24.13 -18.58,-40.24c0,-16.42 7.48,-31.07 19.21,-40.77c-28.13,-3.02 -50.04,-26.83 -50.04,-55.759c0,-13.99 5.12,-26.78 13.59,-36.6c5.39,-6.25 8.04,-13.98 8.04,-21.7c0,-8.7 -3.37,-17.41 -9.95,-23.99c-10.95,-10.95 -16.43,-25.31 -16.43,-39.67c0,-14.35 5.48,-28.7 16.43,-39.66c13.42,-13.41 31.94,-18.6 49.309,-15.58c0.91,-14.67 7.46,-27.82 17.5,-37.29c10.04,-9.48 23.58,-15.29 38.48,-15.29c16.66,0 31.63,7.27 41.899,18.81c-8.09,9.09 -13.27,20.84 -14.07,33.77c-17.38,-3.02 -35.9,2.17 -49.319,15.58c-10.95,10.96 -16.43,25.31 -16.43,39.66c0,14.36 5.48,28.72 16.43,39.67c6.58,6.58 9.95,15.29 9.95,23.99c0,7.72 -2.65,15.45 -8.04,21.7c-8.47,9.82 -13.59,22.61 -13.59,36.6c0,28.93 21.91,52.739 50.04,55.759c-11.73,9.7 -19.21,24.35 -19.21,40.77c0,16.11 7.21,30.54 18.58,40.24c7.58,6.46 9.91,17.35 5.31,26.19c-3.79,7.28 -5.94,15.57 -5.94,24.35c0,28.559 22.65,51.829 50.969,52.829z" fill="#8b5e5e" id="svg_5"/>
     <g fill="#ffcbbe" id="svg_6" transform="matrix(1, 0, 0, 1, 0, 0)">
      <circle cx="188.708" cy="272.385" fill="#d3b878" id="svg_7" r="39.613"/>
      <circle cx="463.749" cy="272.385" fill="#d3b878" id="svg_8" r="39.613"/>
     </g>
     <path d="m428.899,495.416l-175.579,-11.971c17.301,-29.244 -9.362,-30.931 23.053,-42.605c6.127,-2.206 12.442,-4.018 18.915,-5.403l0,-53.615l61.873,0l0,53.615c23.707,5.073 45.294,15.859 63.253,30.848c12.892,10.758 -0.11,14.601 8.485,29.131z" fill="#edd8a3" id="svg_9"/>
     <path d="m357.168,381.822l0,22.18c-7.01,1.42 -14.27,2.17 -21.7,2.17l-18.48,0c-7.43,0 -14.69,-0.75 -21.7,-2.17l0,-22.18l61.88,0z" fill="#d3b878" id="svg_10" transform="matrix(1, 0, 0, 1, 0, 0)"/>
     <path d="m314.295,381.817l0,53.619c-10.418,5.772 -19.772,18.953 -27.206,37.308c-3.783,9.342 -7.069,0.611 -9.743,12.338l-43.359,10.816c17.299,-29.241 9.97,-43.386 42.387,-55.06c6.129,-2.207 12.446,-4.018 18.922,-5.403l0,-53.619l18.999,0l0,0.001z" fill="#d3b878" id="svg_11"/>
     <path d="m452.923,504.495l-253.396,0c17.3,-29.239 44.429,-51.979 76.849,-63.649c0,0 46.089,65.819 144.027,25.45l0.01,-0.01c12.89,10.76 23.91,23.689 32.51,38.209z" fill="#698ed5" id="svg_12"/>
     <path d="m276.376,440.846c-32.42,11.67 -59.549,34.409 -76.849,63.649l77.819,0c4.209,-18.457 9.932,-34.325 16.727,-46.454c-11.879,-8.896 -17.697,-17.195 -17.697,-17.195z" fill="#4073c8" id="svg_13"/>
     <path d="m443.905,275.557c0,51.409 -35.78,94.459 -83.789,105.619c-0.01,0 -0.01,0 -0.02,0.01c-7.91,1.84 -16.16,2.81 -24.63,2.81l-18.49,0c-59.889,0 -108.439,-48.55 -108.439,-108.439c0,0 0.02,-85.309 0.05,-86.459c0.08,-2.74 1.17,-5.37 3.1,-7.31l0.03,-0.03c7.91,-7.92 18.85,-12.81 30.92,-12.81c13.59,0 26.61,-3.15 38.25,-8.85c4.93,-2.4 9.6,-5.26 13.97,-8.53c14.7,-11.01 25.93,-26.67 31.37,-45.22c5.44,18.55 16.67,34.21 31.37,45.22c14.71,11.01 32.89,17.38 52.219,17.38c12.06,0 22.97,4.88 30.88,12.77c1.96,1.95 3.08,4.61 3.16,7.38c0.029,1.16 0.049,86.459 0.049,86.459z" fill="#edd8a3" id="svg_14" transform="matrix(1, 0, 0, 1, 0, 0)"/>
     <path d="m360.116,381.176c-0.01,0 -0.01,0 -0.02,0.01c-7.91,1.84 -16.16,2.81 -24.63,2.81l-18.49,0c-59.889,0 -108.439,-48.55 -108.439,-108.439c0,0 0.02,-85.309 0.05,-86.459c0.08,-2.74 1.17,-5.37 3.1,-7.31l0.03,-0.03c7.91,-7.92 18.85,-12.81 30.92,-12.81c13.59,0 26.61,-3.15 38.25,-8.85c-2.98,10.31 -4.57,21.21 -4.57,32.48l0,82.979c0,51.41 35.78,94.47 83.799,105.619z" fill="#d3b878" id="svg_15" transform="matrix(1, 0, 0, 1, 0, 0)"/>
    </g>
    <g id="svg_16">
     <path d="m106.088,472.421l-34.348,0c-35.143,0 -63.734,-28.591 -63.734,-63.734c0,-17.024 6.63,-33.029 18.667,-45.067l12.701,-12.701c6.915,-6.915 -7.912,-12.802 -15.402,-12.802s-13.562,-6.072 -13.562,-13.562c0,-9.148 3.626,-17.685 10.209,-24.039c6.582,-6.352 15.248,-9.669 24.402,-9.344c18.055,0.642 32.198,15.515 32.198,33.859c0,17.023 -6.629,33.028 -18.667,45.066l-12.699,12.703c-6.915,6.915 -10.723,16.108 -10.723,25.887c0,20.187 16.424,36.61 36.61,36.61l34.348,0c20.187,0 36.61,-16.423 36.61,-36.61c0,-9.779 -3.808,-18.972 -10.723,-25.887l-12.701,-12.702c-12.038,-12.038 -18.667,-28.043 -18.667,-45.066c0,-18.344 14.143,-33.217 32.199,-33.859c9.148,-0.324 17.819,2.993 24.401,9.345c6.583,6.353 10.209,14.89 10.209,24.038c0,7.49 -6.072,13.562 -13.562,13.562s-22.317,5.887 -15.402,12.802l12.701,12.701c12.038,12.037 18.667,28.042 18.667,45.066c0.002,35.143 -28.589,63.734 -63.732,63.734z" fill="#ffc250" id="svg_17"/>
     <g fill="#e7a52e" id="svg_18">
      <path d="m156.987,408.682c0,20.19 -16.42,36.61 -36.61,36.61l-14.29,0c20.19,0 36.61,-16.42 36.61,-36.61c0,-9.78 -3.81,-18.97 -10.72,-25.88l-12.7,-12.71c-12.04,-12.03 -18.67,-28.04 -18.67,-45.06c0,-18.35 14.14,-33.22 32.2,-33.86c2.85,-0.1 5.66,0.15 8.36,0.75c-15.13,3.28 -26.27,16.82 -26.27,33.11c0,17.02 6.63,33.03 18.67,45.06l12.7,12.71c6.91,6.91 10.72,16.1 10.72,25.88z" id="svg_19"/>
      <path d="m95.681,472.425l-23.94,0c-35.14,0 -63.729,-28.59 -63.729,-63.739c0,-17.02 6.63,-33.03 18.66,-45.06l12.71,-12.7c6.91,-6.92 -7.92,-12.81 -15.41,-12.81s-13.56,-6.07 -13.56,-13.56c0,-9.15 3.63,-17.68 10.21,-24.04c6.58,-6.35 15.25,-9.67 24.4,-9.34c3.79,0.13 7.41,0.9 10.76,2.19c-4.13,1.57 -7.93,3.98 -11.22,7.15c-6.58,6.36 -10.21,14.89 -10.21,24.04c0,7.49 6.2,12.2 13.57,13.56c21.71,4.03 2.7,25.51 2.7,25.51c-12.04,12.03 -24.833,28.04 -24.833,45.06c0,35.15 34.753,63.739 69.892,63.739z" id="svg_20"/>
     </g>
    </g>
    <g id="svg_21">
     <path d="m110.995,466.764l-44.162,0c-10.419,0 -18.866,8.446 -18.866,18.866c0,10.419 8.446,18.866 18.866,18.866l44.162,0c10.419,0 18.866,-8.446 18.866,-18.866c0,-10.42 -8.447,-18.866 -18.866,-18.866z" fill="#edd8a3" id="svg_22"/>
     <path d="m81.223,498.979c3.411,3.411 8.131,5.521 13.339,5.521l-27.734,0c-5.209,0 -9.929,-2.111 -13.339,-5.521c-3.411,-3.42 -5.521,-8.141 -5.521,-13.349c0,-10.417 8.443,-18.861 18.861,-18.861l27.734,0c-10.417,0 -18.871,8.444 -18.871,18.861c0,5.208 2.111,9.928 5.531,13.349z" fill="#d3b878" id="svg_23"/>
    </g>
   </g>
   <g id="svg_24">
    <path d="m506.778,237.278c0,-15.239 -5.473,-29.977 -15.41,-41.498c-8.816,-10.224 -8.143,-25.812 1.535,-35.489c24.783,-24.795 24.783,-65.139 -0.004,-89.938c-12.008,-11.997 -27.972,-18.604 -44.95,-18.604c-1.049,0 -2.096,0.025 -3.14,0.076c-5.545,-29.618 -31.623,-51.825 -62.49,-51.825c-16.983,0 -32.951,6.615 -44.962,18.626c-4.492,4.492 -8.229,9.537 -11.148,14.982c-10.73,-19.988 -31.838,-33.608 -56.068,-33.608c-16.294,0 -31.789,6.157 -43.625,17.334c-9.871,9.31 -16.416,21.348 -18.874,34.491c-17.803,-0.866 -35.338,5.786 -48.095,18.533c-12.01,12.021 -18.624,27.988 -18.624,44.96c0,16.99 6.615,32.961 18.626,44.974c5,4.999 7.753,11.635 7.753,18.686c0,6.184 -2.209,12.15 -6.219,16.801c-9.938,11.521 -15.411,26.259 -15.411,41.498c0,4.42 0.466,8.827 1.371,13.143c-3.473,6.562 -5.45,14.033 -5.45,21.961c0,4.259 0.578,8.384 1.643,12.311c-3.455,-0.791 -7.038,-1.141 -10.687,-1.008c-22.112,0.783 -39.434,18.948 -39.434,41.355c0,19.027 7.407,36.913 20.856,50.363l12.7,12.7c5.503,5.503 8.534,12.814 8.534,20.587c0,11.25 -6.418,21.022 -15.782,25.866l0,-20.624l0.307,0c4.142,0 7.5,-3.358 7.5,-7.5s-3.358,-7.5 -7.5,-7.5l-0.307,0l0,-4.028c0,-4.142 -3.358,-7.5 -7.5,-7.5s-7.5,3.358 -7.5,7.5l0,4.028l-8.01,0l0,-4.028c0,-4.142 -3.358,-7.5 -7.5,-7.5s-7.5,3.358 -7.5,7.5l0,4.028l-8.01,0l0,-4.028c0,-4.142 -3.358,-7.5 -7.5,-7.5s-7.5,3.358 -7.5,7.5l0,4.028l-0.304,0c-4.142,0 -7.5,3.358 -7.5,7.5s3.358,7.5 7.5,7.5l0.304,0l0,20.617c-9.356,-4.847 -15.768,-14.615 -15.768,-25.859c0,-7.779 3.027,-15.09 8.523,-20.587l12.7,-12.7c13.456,-13.456 20.867,-31.342 20.867,-50.363c0,-4.254 -0.628,-8.435 -1.867,-12.424c-1.229,-3.956 -5.432,-6.166 -9.387,-4.938c-3.956,1.229 -6.167,5.431 -4.938,9.387c0.791,2.548 1.192,5.231 1.192,7.976c0,15.015 -5.85,29.134 -16.473,39.757l-12.701,12.7c-8.329,8.33 -12.916,19.408 -12.916,31.193c0,24.322 19.788,44.11 44.11,44.11l34.35,0c24.322,0 44.11,-19.788 44.11,-44.11c0,-11.779 -4.591,-22.857 -12.927,-31.193l-12.7,-12.7c-10.616,-10.617 -16.463,-24.736 -16.463,-39.757c0,-14.288 10.966,-25.869 24.97,-26.365c7.103,-0.253 13.812,2.317 18.917,7.237c5.109,4.938 7.922,11.561 7.922,18.647c0,3.341 -2.723,6.06 -6.07,6.06c-6.526,0 -20.208,3.603 -23.803,12.284c-1.875,4.525 -0.716,9.504 3.1,13.319l12.7,12.7c10.623,10.623 16.473,24.746 16.473,39.767c0,24.581 -15.946,46.18 -39.135,53.574c-3.65,-1.912 -7.796,-3.001 -12.194,-3.001l-44.162,0c-4.397,0 -8.544,1.088 -12.193,3c-23.19,-7.401 -39.136,-28.999 -39.136,-53.574c0,-15.021 5.85,-29.144 16.473,-39.767l12.696,-12.696c3.819,-3.814 4.982,-8.794 3.109,-13.32c-3.593,-8.683 -17.279,-12.287 -23.809,-12.287c-3.341,0 -6.06,-2.719 -6.06,-6.06c0,-7.102 2.811,-13.722 7.918,-18.643c5.104,-4.926 11.812,-7.499 18.936,-7.241c2.863,0.098 5.672,0.668 8.348,1.696c3.867,1.486 8.206,-0.446 9.69,-4.313c1.485,-3.867 -0.446,-8.206 -4.313,-9.69c-4.235,-1.626 -8.68,-2.529 -13.198,-2.684c-11.214,-0.411 -21.817,3.658 -29.875,11.435c-8.064,7.771 -12.506,18.227 -12.506,29.44c0,11.613 9.447,21.06 21.06,21.06c2.509,0 5.825,1.015 8.027,2.066l-10.63,10.63c-13.454,13.459 -20.865,31.349 -20.865,50.376c0,28.634 17.092,54.078 42.695,65.27c-1.745,3.52 -2.732,7.481 -2.732,11.669c0,14.538 11.828,26.366 26.366,26.366l44.162,0c14.538,0 26.366,-11.828 26.366,-26.366c0,-4.188 -0.986,-8.147 -2.73,-11.667c25.603,-11.186 42.694,-36.631 42.694,-65.272c0,-19.027 -7.411,-36.917 -20.867,-50.373l-10.629,-10.629c2.201,-1.052 5.517,-2.067 8.026,-2.067c11.618,0 21.07,-9.447 21.07,-21.06c0,-2.491 -0.232,-4.943 -0.663,-7.34c1.387,0.448 2.802,0.829 4.241,1.149c-1.323,5.001 -2,10.163 -2,15.438c0,17.699 7.731,34.445 21.215,45.948c4.969,4.235 6.45,11.393 3.522,17.019c-4.44,8.529 -6.788,18.146 -6.788,27.813c0,17.903 8.092,34.89 21.6,46.26c-8.773,8.904 -16.515,18.903 -22.979,29.83c-1.372,2.318 -1.395,5.194 -0.06,7.534c1.334,2.34 3.821,3.785 6.515,3.785l253.396,0c2.693,0 5.181,-1.444 6.515,-3.785c1.335,-2.34 1.312,-5.216 -0.06,-7.534c-6.465,-10.928 -14.208,-20.928 -22.982,-29.833c13.503,-11.374 21.593,-28.361 21.593,-46.258c0,-9.688 -2.349,-19.308 -6.784,-27.806c-2.926,-5.634 -1.445,-12.795 3.521,-17.028c13.487,-11.506 21.223,-28.252 21.223,-45.946c0,-5.275 -0.677,-10.437 -2,-15.438c21.087,-4.676 36.909,-23.513 36.909,-45.987c0,-7.927 -1.977,-15.399 -5.45,-21.961c0.903,-4.317 1.368,-8.723 1.368,-13.143zm-402.355,176.654l0,23.868l-8.01,0l0,-23.868l8.01,0zm-23.01,0l0,23.868l-8.01,0l0,-23.868l8.01,0zm29.582,83.063l-44.162,0c-6.267,0 -11.366,-5.099 -11.366,-11.366s5.099,-11.366 11.366,-11.366l44.162,0c6.267,0 11.366,5.099 11.366,11.366s-5.099,11.366 -11.366,11.366zm61.446,-291.419c6.358,-7.374 9.86,-16.819 9.86,-26.598c0,-11.058 -4.314,-21.46 -12.147,-29.293c-9.178,-9.179 -14.233,-21.384 -14.233,-34.367c0,-12.968 5.056,-25.17 14.231,-34.354c11.168,-11.16 27.14,-16.207 42.724,-13.496c2.1,0.365 4.259,-0.181 5.932,-1.503c1.674,-1.322 2.706,-3.293 2.838,-5.422c0.765,-12.328 6.149,-23.798 15.164,-32.301c9.044,-8.539 20.881,-13.242 33.331,-13.242c26.793,0 48.59,21.797 48.59,48.589c0,4.142 3.357,7.5 7.5,7.5s7.5,-3.358 7.5,-7.5c0,-12.977 5.055,-25.178 14.233,-34.356s21.379,-14.233 34.355,-14.233c25.611,0 46.908,20.004 48.484,45.542c0.131,2.131 1.165,4.105 2.842,5.427s3.837,1.867 5.94,1.498c2.71,-0.476 5.523,-0.717 8.363,-0.717c12.975,0 25.173,5.049 34.345,14.212c18.938,18.948 18.938,49.778 0.001,68.724c-15.2,15.201 -16.205,39.751 -2.286,55.891c6.98,8.092 11.066,18.265 11.679,28.903c-7.824,-5.783 -17.49,-9.21 -27.944,-9.21c-4.184,0 -8.334,0.562 -12.34,1.648c0,0 -0.021,-36.787 -0.053,-38.033c-0.137,-4.73 -2.038,-9.161 -5.366,-12.488c-5.323,-5.3 -11.845,-9.431 -18.859,-11.945c-3.9,-1.397 -8.193,0.629 -9.591,4.529c-1.398,3.899 0.63,8.193 4.528,9.591c4.955,1.776 9.567,4.7 13.327,8.443c0.59,0.589 0.941,1.429 0.967,2.283c0.028,1.094 0.047,86.264 0.047,86.264c0,55.659 -45.281,100.94 -100.939,100.94l-18.49,0c-55.658,0 -100.94,-45.281 -100.94,-100.94c0,0 0.019,-85.18 0.046,-86.213c0.029,-0.882 0.365,-1.708 0.941,-2.288c6.833,-6.842 15.929,-10.609 25.613,-10.609c20.604,0 40.216,-6.527 56.716,-18.877c11.31,-8.47 20.404,-19.12 26.874,-31.358c6.47,12.238 15.565,22.889 26.876,31.36c11.885,8.895 25.887,14.938 40.49,17.475c4.084,0.711 7.965,-2.024 8.674,-6.105s-2.024,-7.964 -6.105,-8.673c-12.287,-2.135 -24.068,-7.22 -34.068,-14.704c-13.874,-10.391 -23.787,-24.681 -28.669,-41.328c-0.938,-3.195 -3.868,-5.389 -7.197,-5.389s-6.26,2.195 -7.197,5.389c-4.882,16.646 -14.795,30.937 -28.667,41.326c-13.884,10.392 -30.387,15.885 -47.726,15.885c-13.694,0 -26.56,5.331 -36.268,15.051c-3.249,3.266 -5.124,7.653 -5.28,12.405c-0.031,1.214 -0.052,38.005 -0.052,38.005c-4.001,-1.082 -8.148,-1.642 -12.329,-1.642c-10.454,0 -20.12,3.427 -27.944,9.211c0.614,-10.642 4.7,-20.815 11.679,-28.907zm183.151,237.195c17.821,3.813 34.585,11.115 49.409,21.266c-33.235,11.115 -63.265,10.54 -89.41,-1.765c-11.767,-5.538 -20.384,-12.482 -25.871,-17.765c2.36,-0.639 4.738,-1.223 7.138,-1.736c3.459,-0.74 5.931,-3.797 5.931,-7.334l0,-44.805c4.651,0.57 9.384,0.869 14.186,0.869l18.49,0c4.806,0 9.542,-0.299 14.196,-0.87l0,44.807c0,3.536 2.472,6.592 5.931,7.333zm-166.886,-138.277c-17.707,0 -32.113,-14.406 -32.113,-32.112c0,-17.707 14.406,-32.113 32.113,-32.113c4.247,0 8.441,0.841 12.329,2.453l0,16.767c-3,-1.221 -6.311,-2.032 -9.914,-2.394c-7.452,-0.747 -13.556,0.675 -14.228,0.839c-4.009,0.984 -6.451,5.018 -5.487,9.032c0.965,4.014 5.009,6.492 9.028,5.544c0.044,-0.01 4.476,-1.031 9.545,-0.452c5.064,0.58 8.708,2.448 11.083,5.693c0.147,7.874 1.083,15.557 2.731,22.976c-4.611,2.469 -9.744,3.767 -15.087,3.767zm20.745,120.092c0,-7.265 1.761,-14.487 5.093,-20.888c6.123,-11.766 3.137,-26.637 -7.096,-35.357c-10.135,-8.646 -15.947,-21.233 -15.947,-34.534c0,-5.033 0.815,-9.925 2.409,-14.601c4.926,-0.537 9.685,-1.839 14.156,-3.862c12.986,35.439 42.805,62.826 79.722,72.434l0,41.719c-22.356,5.728 -43.036,16.442 -60.573,31.072c-11.062,-8.524 -17.764,-21.87 -17.764,-35.983zm3.993,72.409c15.436,-21.109 36.499,-37.469 60.553,-47.199c5.441,6.164 16.804,17.216 34.418,25.673c12.598,6.048 29.842,11.357 51.569,11.357c16.954,0 36.641,-3.238 58.963,-11.877c7.411,6.585 14.15,13.965 20.06,22.047l-225.563,0l0,-0.001zm231.549,-128.657c-10.226,8.716 -13.212,23.584 -7.093,35.368c3.329,6.379 5.089,13.599 5.089,20.879c0,14.107 -6.699,27.453 -17.758,35.98c-17.536,-14.629 -38.216,-25.342 -60.571,-31.07l0,-41.722c36.915,-9.611 66.73,-37 79.713,-72.439c4.478,2.027 9.24,3.331 14.165,3.869c1.594,4.676 2.409,9.568 2.409,14.602c0.001,13.297 -5.815,25.884 -15.954,34.533zm18.751,-63.844c-5.337,0 -10.473,-1.302 -15.097,-3.776c1.645,-7.407 2.581,-15.077 2.729,-22.937c2.375,-3.262 6.023,-5.141 11.101,-5.722c5.01,-0.574 9.392,0.417 9.542,0.451c4.006,0.967 8.056,-1.491 9.041,-5.503c0.987,-4.023 -1.474,-8.084 -5.496,-9.071c-0.671,-0.165 -6.772,-1.587 -14.228,-0.839c-3.611,0.363 -6.927,1.176 -9.933,2.402l0,-16.766c3.892,-1.618 8.091,-2.463 12.34,-2.463c17.707,0 32.113,14.406 32.113,32.113c0.001,17.705 -14.405,32.111 -32.112,32.111z" id="svg_25"/>
    <path d="m270.334,232.62c-7.235,0 -13.122,8.065 -13.122,17.979s5.887,17.979 13.122,17.979c7.236,0 13.123,-8.065 13.123,-17.979s-5.887,-17.979 -13.123,-17.979z" id="svg_26"/>
    <path d="m382.123,232.62c-7.235,0 -13.122,8.065 -13.122,17.979s5.887,17.979 13.122,17.979c7.236,0 13.123,-8.065 13.123,-17.979s-5.887,-17.979 -13.123,-17.979z" id="svg_27"/>
    <path d="m283.901,196.482c-16.165,-4.153 -32.688,5.618 -36.841,21.778c-1.031,4.012 1.386,8.1 5.397,9.131c0.626,0.161 1.254,0.238 1.872,0.238c3.341,0 6.389,-2.25 7.259,-5.635c2.095,-8.15 10.427,-13.08 18.58,-10.983c4.017,1.031 8.101,-1.387 9.13,-5.398c1.032,-4.012 -1.385,-8.1 -5.397,-9.131z" id="svg_28"/>
    <path d="m391.473,199.742c-6.959,-4.113 -15.104,-5.27 -22.931,-3.259c-4.012,1.031 -6.429,5.119 -5.397,9.13c1.029,4.012 5.113,6.429 9.13,5.398c3.949,-1.015 8.055,-0.431 11.565,1.644c3.509,2.075 6,5.391 7.015,9.339c0.869,3.386 3.917,5.636 7.259,5.636c0.617,0 1.245,-0.077 1.871,-0.238c4.012,-1.031 6.429,-5.119 5.397,-9.13c-2.011,-7.83 -6.951,-14.407 -13.909,-18.52z" id="svg_29"/>
    <path d="m351.415,271.389c-3.974,-1.182 -8.146,1.083 -9.325,5.054c-2.063,6.948 -8.586,11.801 -15.861,11.801c-7.267,0 -13.79,-4.855 -15.862,-11.808c-1.184,-3.969 -5.359,-6.229 -9.33,-5.045c-3.97,1.184 -6.229,5.361 -5.045,9.33c3.953,13.261 16.388,22.523 30.237,22.523c13.865,0 26.3,-9.265 30.24,-22.53c1.179,-3.971 -1.083,-8.146 -5.054,-9.325z" id="svg_30"/>
   </g>
  </g>
 </g>
</svg>