<?xml version="1.0"?>
<svg width="512" height="512" xmlns="http://www.w3.org/2000/svg" xmlns:svg="http://www.w3.org/2000/svg">

 <g class="layer">
  <title>Layer 1</title>
  <g id="svg_1">
   <g id="svg_2">
    <g id="svg_3">
     <path d="m382.991,504.5l-253.98,0c20.62,-34.85 55.16,-60.48 95.98,-69.22l0,-53.73l62.01,0l0,53.73c40.82,8.74 75.37,34.37 95.99,69.22z" fill="#ffddce" id="svg_4"/>
     <g fill="#ffcbbe" id="svg_5">
      <path d="m287.001,381.55l0,23.55c-7.03,1.43 -14.31,2.18 -21.76,2.18l-18.48,0c-7.46,0 -14.74,-0.75 -21.77,-2.18l0,-23.55l62.01,0z" fill="#471b11" id="svg_6"/>
      <path d="m242.898,381.541l0,53.742c-17.249,8.73 -31.842,34.368 -40.552,69.217l-73.336,0c20.617,-34.849 55.165,-60.487 95.978,-69.217l0,-53.742l17.91,0z" fill="#471b11" id="svg_7"/>
     </g>
    </g>
    <path d="m398.571,154.049c11.307,-15.273 17.996,-34.171 17.996,-54.632c0,-50.764 -41.152,-91.917 -91.917,-91.917c-27.301,0 -51.817,11.907 -68.652,30.806c-16.835,-18.899 -41.351,-30.806 -68.652,-30.806c-50.764,0 -91.917,41.152 -91.917,91.917c0,20.462 6.689,39.359 17.996,54.632c-19.203,4.135 -33.598,21.205 -33.598,41.644c0,23.531 19.076,42.607 42.607,42.607l267.126,0c23.531,0 42.607,-19.076 42.607,-42.607c0.001,-20.439 -14.394,-37.509 -33.596,-41.644z" fill="#e04b66" id="svg_8"/>
    <path d="m247.565,237.764l-129.16,0c-12.118,0 -20.442,-4.617 -28.386,-12.561s-10.191,-17.392 -10.191,-29.51c0,-21.049 13.823,-37.38 33.598,-41.644c-11.642,-15.735 -17.996,-33.556 -17.996,-54.632c0,-52.296 38.23,-91.917 90.526,-91.917c24.954,0 40.033,4.415 56.944,20.205c-102.565,53.027 -37.336,217.147 4.665,210.059z" fill="#de1d49" id="svg_9"/>
    <g fill="#ffcbbe" id="svg_10" transform="matrix(1, 0, 0, 1, 0, 0)">
     <circle cx="118.478" cy="272.386" fill="#471b11" id="svg_11" r="39.614"/>
     <circle cx="393.524" cy="272.386" fill="#471b11" id="svg_12" r="39.614"/>
    </g>
    <path d="m137.708,358.752c0,10.888 8.827,19.715 19.715,19.715c10.888,0 19.715,-8.827 19.715,-19.715l0,22.012c0,10.888 8.827,19.715 19.715,19.715c10.888,0 19.715,-8.827 19.715,-19.715l0,14.299c0,10.888 8.827,19.715 19.715,19.715c10.888,0 19.715,-8.827 19.715,-19.715c0,10.888 8.827,19.715 19.715,19.715c10.888,0 19.715,-8.827 19.715,-19.715l0,-14.299c0,10.888 8.827,19.715 19.715,19.715c10.888,0 19.715,-8.827 19.715,-19.715l0,-22.012c0,10.888 8.827,19.715 19.715,19.715c10.888,0 19.715,-8.827 19.715,-19.715l-0.605,-191.802c-12.96,10.93 -29.69,17.51 -47.97,17.51c-31.89,0 -59.09,-20.04 -69.71,-48.22c-10.62,28.18 -37.82,48.22 -69.71,48.22c-18.28,0 -35.02,-6.59 -47.98,-17.52l-0.605,191.812z" fill="#e04b66" id="svg_13"/>
    <path d="m201.558,385.692c0,4.76 1.68,9.12 4.48,12.52c-2.74,1.45 -5.87,2.27 -9.19,2.27c-10.88,0 -19.71,-8.83 -19.71,-19.72l0,-22.01c0,5.45 -2.21,10.37 -5.78,13.94c-3.56,3.57 -8.5,5.78 -13.94,5.78c-10.88,0 -19.71,-8.83 -19.71,-19.72l0.6,-191.81c12.96,10.93 29.7,17.52 47.98,17.52c5.4,0 10.66,-0.57 15.73,-1.67l-0.46,202.9z" fill="#de1d49" id="svg_14"/>
    <path d="m349.304,180.65l0,99.28c0,30.99 -25.12,56.12 -56.11,56.12l-76.77,0c-5.12,0 -10.07,-0.68 -14.78,-1.98c-23.82,-6.48 -41.33,-28.27 -41.33,-54.14l0,-100.13c8.09,3.01 16.85,4.66 25.99,4.66c5.38,0 10.63,-0.57 15.68,-1.66c24.91,-5.33 45.2,-23.13 54.03,-46.56c10.62,28.18 37.82,48.22 69.71,48.22c8.24,0 16.169,-1.33 23.58,-3.81z" fill="#ffddce" id="svg_15"/>
    <path d="m201.984,182.8l-0.34,151.27c-23.82,-6.48 -41.33,-28.27 -41.33,-54.14l0,-100.13c8.09,3.01 16.85,4.66 25.99,4.66c5.38,0 10.63,-0.57 15.68,-1.66z" fill="#471b11" id="svg_16" transform="matrix(1, 0, 0, 1, 0, 0)"/>
    <g fill="#ede6e3" id="svg_17">
     <path d="m369.922,64.613c17.363,-6.398 40.36,-21.5 54.773,-57.108c0,0 47.74,70.997 -33.285,108.193c-15.903,7.3 -34.521,-1.774 -38.553,-18.801l-0.157,-0.662c-3.172,-13.391 4.309,-26.863 17.222,-31.622z" id="svg_18"/>
     <path d="m142.074,64.613c-17.363,-6.398 -40.36,-21.5 -54.773,-57.108c0,0 -47.74,70.997 33.285,108.193c15.903,7.3 34.521,-1.774 38.553,-18.801l0.157,-0.662c3.172,-13.391 -4.309,-26.863 -17.222,-31.622z" id="svg_19"/>
    </g>
    <g fill="#d8cec9" id="svg_20">
     <path d="m425.046,8.038c-4.13,37.22 -21.67,57.76 -36.32,68.63c-11.05,8.2 -14.44,23.23 -7.63,35.19l0.34,0.59c1.11,1.94 2.41,3.7 3.86,5.25c-14.26,2.88 -28.92,-5.93 -32.44,-20.8l-0.16,-0.66c-3.17,-13.4 4.31,-26.87 17.22,-31.63c17.37,-6.4 40.36,-21.5 54.78,-57.1c0,0 0.12,0.18 0.35,0.53z" id="svg_21"/>
     <path d="m158.566,98.948c-4.98,15.69 -22.73,23.75 -37.98,16.75c-81.03,-37.2 -33.29,-108.19 -33.29,-108.19c1.57,3.89 3.25,7.53 5.01,10.94c-5.61,23.96 -2.65,57.7 45.18,79.65c6.99,3.21 14.51,3.26 21.08,0.85z" id="svg_22"/>
    </g>
   </g>
   <g id="svg_23">
    <ellipse cx="200.106" cy="250.599" id="svg_24" rx="13.123" ry="17.979"/>
    <ellipse cx="311.897" cy="250.599" id="svg_25" rx="13.123" ry="17.979"/>
    <path d="m179.483,206.633c-2.929,2.929 -2.929,7.678 0,10.606c2.929,2.929 7.678,2.929 10.606,0c5.951,-5.95 15.633,-5.95 21.584,0c1.464,1.464 3.384,2.197 5.303,2.197s3.839,-0.732 5.303,-2.197c2.929,-2.929 2.929,-7.678 0,-10.606c-11.798,-11.8 -30.998,-11.8 -42.796,0z" id="svg_26"/>
    <path d="m290.854,206.633c-2.929,2.929 -2.929,7.678 0,10.606c2.929,2.93 7.678,2.929 10.606,0c2.883,-2.883 6.715,-4.47 10.792,-4.47s7.909,1.588 10.792,4.47c1.464,1.464 3.384,2.197 5.303,2.197s3.839,-0.732 5.303,-2.197c2.929,-2.929 2.929,-7.678 0,-10.606c-5.716,-5.716 -13.315,-8.864 -21.398,-8.864c-8.083,0.001 -15.683,3.148 -21.398,8.864z" id="svg_27"/>
    <path d="m281.186,274.763c-3.972,-1.18 -8.145,1.083 -9.325,5.055c-2.063,6.948 -8.585,11.801 -15.86,11.801c-7.267,0 -13.79,-4.856 -15.864,-11.809c-1.184,-3.97 -5.365,-6.23 -9.33,-5.044c-3.97,1.184 -6.228,5.361 -5.044,9.33c3.954,13.261 16.389,22.523 30.238,22.523c13.866,0 26.301,-9.265 30.24,-22.531c1.179,-3.971 -1.084,-8.146 -5.055,-9.325z" id="svg_28"/>
    <path d="m443.662,71.818c9.715,-34.535 -11.821,-67.127 -12.743,-68.498c-1.547,-2.302 -4.237,-3.565 -7,-3.274c-2.759,0.287 -5.135,2.074 -6.176,4.646c-5.056,12.491 -11.22,22.243 -17.769,29.856c-18.792,-21.779 -46.334,-34.548 -75.33,-34.548c-25.634,0 -50.231,9.943 -68.65,27.524c-18.42,-17.581 -43.016,-27.524 -68.651,-27.524c-29.011,0 -56.558,12.772 -75.338,34.556c-7.095,-8.26 -13.036,-18.228 -17.748,-29.861c-1.042,-2.571 -3.417,-4.357 -6.176,-4.645c-2.761,-0.281 -5.451,0.973 -7,3.274c-0.921,1.371 -22.458,33.958 -12.745,68.493c3.348,11.904 9.935,22.453 19.671,31.572c0.642,16.606 5.346,32.515 13.758,46.664c-17.54,7.989 -29.443,25.79 -29.443,45.636c0,13.385 5.212,25.969 14.677,35.433c1.161,1.161 2.371,2.257 3.625,3.29c-11.67,8.583 -19.262,22.402 -19.262,37.967c0,25.977 21.133,47.11 47.11,47.11c4.019,0 8.008,-0.518 11.863,-1.519l-0.13,40.779c0,15.009 12.211,27.22 27.22,27.22c4.345,0 8.537,-1.014 12.305,-2.929c1.163,13.945 12.885,24.939 27.125,24.939c4.929,0 9.661,-1.304 13.799,-3.749c1.443,4.02 3.812,7.599 6.84,10.494l0,14.613c-39.582,10.134 -73.948,35.874 -94.944,71.341c-1.372,2.318 -1.396,5.194 -0.062,7.535c1.334,2.34 3.822,3.785 6.516,3.785l253.98,0c2.694,0 5.181,-1.445 6.515,-3.785s1.312,-5.216 -0.061,-7.535c-20.983,-35.464 -55.348,-61.205 -94.935,-71.342l0,-14.604c0.151,-0.145 0.305,-0.284 0.454,-0.432c2.897,-2.896 5.06,-6.333 6.396,-10.083c4.046,2.388 8.762,3.759 13.791,3.759c7.266,0 14.1,-2.833 19.236,-7.969c4.605,-4.593 7.358,-10.558 7.882,-16.988c3.699,1.884 7.884,2.947 12.312,2.947c7.265,0 14.099,-2.833 19.243,-7.977c0.553,-0.553 1.076,-1.258 1.432,-1.954c1.888,-3.687 0.431,-8.206 -3.256,-10.094c-3.07,-1.572 -6.719,-0.824 -8.944,1.601c-2.292,2.21 -5.292,3.425 -8.475,3.425c-6.738,0 -12.22,-5.482 -12.22,-12.22c0,-4.142 -3.358,-7.5 -7.5,-7.5s-7.5,3.358 -7.5,7.5l0,22.01c0,3.272 -1.266,6.337 -3.573,8.637c-2.311,2.311 -5.378,3.583 -8.637,3.583c-6.738,0 -12.22,-5.482 -12.22,-12.22c0,-4.142 -3.358,-7.5 -7.5,-7.5s-7.5,3.358 -7.5,7.5l0,14.3c0,3.265 -1.269,6.333 -3.573,8.636c-2.312,2.311 -5.379,3.583 -8.637,3.583c-6.738,0 -12.22,-5.482 -12.22,-12.22c0,-4.142 -3.358,-7.5 -7.5,-7.5s-7.5,3.358 -7.5,7.5c0,3.271 -1.267,6.336 -3.573,8.637c-2.311,2.311 -5.378,3.583 -8.637,3.583c-6.738,0 -12.22,-5.482 -12.22,-12.22l0,-14.3c0,-4.142 -3.358,-7.5 -7.5,-7.5s-7.5,3.358 -7.5,7.5c0,3.266 -1.269,6.333 -3.573,8.637c-2.311,2.311 -5.378,3.583 -8.637,3.583c-6.738,0 -12.22,-5.482 -12.22,-12.22l0,-22.01c0,-4.142 -3.358,-7.5 -7.5,-7.5s-7.5,3.358 -7.5,7.5c0,3.265 -1.269,6.333 -3.573,8.636c-2.312,2.311 -5.379,3.584 -8.637,3.584c-6.738,0 -12.22,-5.482 -12.22,-12.196l0.564,-177.535c2.29,1.302 4.639,2.49 7.038,3.563l0,95.132c0,35.076 28.536,63.612 63.612,63.612l76.768,0c35.076,0 63.612,-28.536 63.612,-63.612l0,-94.101c3.234,-1.325 6.384,-2.855 9.43,-4.586l0.506,162.526c0.013,4.134 3.368,7.477 7.5,7.477l0.024,0c4.142,-0.013 7.489,-3.381 7.477,-7.523l-0.08,-25.751c3.863,1.006 7.853,1.525 11.867,1.525c25.977,0 47.11,-21.138 47.11,-47.12c0,-15.565 -7.593,-29.386 -19.264,-37.969c11.405,-9.362 18.295,-23.46 18.295,-38.721c0,-11.524 -4.011,-22.778 -11.292,-31.686c-4.907,-6.005 -11.155,-10.776 -18.15,-13.951c8.412,-14.148 13.115,-30.053 13.757,-46.654c9.743,-9.117 16.334,-19.669 19.684,-31.578zm-188.14,342.493c0.164,-0.164 0.325,-0.329 0.484,-0.495c4.962,5.211 11.963,8.464 19.71,8.464c1.279,0 2.544,-0.093 3.79,-0.265l0,13.265c0,3.538 2.472,6.594 5.932,7.334c33.58,7.182 63.416,26.723 83.633,54.386l-226.147,0c20.227,-27.667 50.065,-47.208 83.64,-54.386c3.459,-0.739 5.932,-3.796 5.932,-7.334l0,-13.28c1.241,0.174 2.503,0.279 3.791,0.279c7.264,0.001 14.098,-2.832 19.235,-7.968zm169.453,-389.825c4.463,10.838 8.816,27.154 4.22,43.366c-4.811,16.971 -18.576,30.776 -40.914,41.03c-5.533,2.54 -11.845,2.465 -17.318,-0.206c-5.468,-2.668 -9.408,-7.591 -10.809,-13.507l-0.157,-0.663c-2.266,-9.565 3.116,-19.392 12.518,-22.856c15.95,-5.877 37.009,-18.795 52.46,-47.164zm-306.502,280.004c-17.706,0 -32.11,-14.405 -32.11,-32.11s14.404,-32.11 32.11,-32.11c4.175,0 8.291,0.809 12.102,2.357l-0.053,16.755c-3.008,-1.192 -6.32,-1.977 -9.919,-2.313c-7.322,-0.681 -13.282,0.707 -13.938,0.868c-4.009,0.984 -6.451,5.018 -5.487,9.032c0.965,4.014 5.006,6.492 9.028,5.544c0.147,-0.034 13.825,-3.132 20.258,4.798l-0.079,24.889c-3.76,1.503 -7.811,2.29 -11.912,2.29zm223.327,-24.556c0,26.805 -21.808,48.612 -48.612,48.612l-76.768,0c-26.805,0 -48.612,-21.807 -48.612,-48.612l0,-90.091c6.026,1.396 12.227,2.117 18.488,2.117c28.57,0 54.948,-15.125 69.71,-38.856c14.763,23.731 41.14,38.856 69.71,38.856c5.432,0 10.818,-0.545 16.084,-1.6l0,89.574zm51.723,24.566c-4.088,0 -8.139,-0.79 -11.916,-2.299l-0.077,-24.887c6.442,-7.934 20.123,-4.837 20.236,-4.81c4.024,0.989 8.084,-1.474 9.071,-5.496c0.987,-4.023 -1.473,-8.084 -5.496,-9.071c-0.655,-0.161 -6.614,-1.552 -13.938,-0.868c-3.602,0.336 -6.918,1.122 -9.929,2.316l-0.052,-16.754c3.821,-1.551 7.936,-2.361 12.101,-2.361c17.706,0 32.11,14.404 32.11,32.11c0,17.711 -14.405,32.12 -32.11,32.12zm-1.977,-147.805c0.899,2.384 2.947,4.149 5.438,4.686c7.727,1.665 14.749,5.967 19.773,12.115c5.099,6.238 7.907,14.119 7.907,22.193c0,13.211 -7.364,25.184 -18.966,31.184c-3.886,-1.041 -7.965,-1.604 -12.175,-1.604c-4.118,0 -8.205,0.542 -12.15,1.592l-0.187,-59.935c-0.009,-2.914 -1.705,-5.559 -4.35,-6.783c-2.643,-1.224 -5.758,-0.805 -7.985,1.073c-12.038,10.152 -27.357,15.743 -43.135,15.743c-27.723,0 -52.917,-17.427 -62.692,-43.365c-1.101,-2.921 -3.896,-4.855 -7.018,-4.855s-5.917,1.934 -7.018,4.855c-9.775,25.938 -34.969,43.365 -62.692,43.365c-15.777,0 -31.1,-5.595 -43.145,-15.753c-2.228,-1.878 -5.341,-2.297 -7.986,-1.073c-2.644,1.224 -4.34,3.869 -4.35,6.782l-0.191,59.943c-3.942,-1.048 -8.03,-1.589 -12.152,-1.589c-4.21,0 -8.289,0.563 -12.175,1.604c-3.191,-1.65 -6.109,-3.776 -8.691,-6.357c-6.631,-6.631 -10.283,-15.448 -10.283,-24.827c0,-16.431 11.64,-30.859 27.677,-34.308c2.492,-0.536 4.541,-2.301 5.441,-4.686c0.899,-2.385 0.526,-5.064 -0.991,-7.112c-7.531,-10.164 -12.578,-21.677 -14.951,-33.886c4.016,2.417 8.331,4.693 12.958,6.817c4.687,2.152 9.693,3.225 14.698,3.225c5.281,0 10.56,-1.196 15.452,-3.583c9.525,-4.647 16.388,-13.224 18.819,-23.494l0.168,-0.694c2.429,-10.25 0.063,-20.891 -6.49,-29.196c-2.565,-3.251 -7.281,-3.808 -10.534,-1.242c-3.251,2.566 -3.808,7.282 -1.242,10.534c3.698,4.687 5.036,10.68 3.678,16.41l-0.168,0.696c-1.4,5.914 -5.34,10.836 -10.809,13.505c-5.473,2.67 -11.784,2.746 -17.313,0.207c-22.337,-10.256 -36.102,-24.061 -40.911,-41.032c-4.594,-16.21 -0.243,-32.521 4.218,-43.356c9.521,17.514 22.157,30.982 37.694,40.145c3.567,2.102 8.166,0.918 10.27,-2.651c2.104,-3.568 0.917,-8.166 -2.651,-10.27c-3.345,-1.972 -6.528,-4.202 -9.563,-6.662c15.958,-18.928 39.624,-30.056 64.57,-30.056c24.055,0 47.035,10.314 63.049,28.298c1.423,1.598 3.461,2.512 5.601,2.512s4.178,-0.914 5.601,-2.512c16.015,-17.984 38.995,-28.298 63.05,-28.298c24.929,0 48.589,11.123 64.558,30.044c-7.641,6.208 -15.28,10.102 -21.873,12.531c-16.513,6.085 -25.94,23.448 -21.928,40.387l0.157,0.663c2.441,10.308 9.304,18.885 18.828,23.532c4.892,2.387 10.169,3.583 15.451,3.583c5.005,0 10.015,-1.074 14.702,-3.226c4.624,-2.123 8.937,-4.396 12.95,-6.811c-2.373,12.206 -7.42,23.717 -14.951,33.882c-1.518,2.048 -1.891,4.726 -0.992,7.11z" id="svg_29"/>
   </g>
  </g>
 </g>
</svg>