<svg height="512pt" viewBox="-14 0 511 512" width="512pt" xmlns="http://www.w3.org/2000/svg"><path d="m427.164062 388.792969c15.414063 0 28.675782 10.90625 31.648438 26.035156l17.484375 89.007813h-350.339844l17.484375-89.007813c2.972656-15.128906 16.234375-26.035156 31.648438-26.035156" fill="#ffb176"/><path d="m221.011719 388.792969h-45.921875c-15.414063 0-28.675782 10.90625-31.648438 26.035156l-17.484375 89.007813h45.921875l17.484375-89.007813c2.972657-15.128906 16.234375-26.035156 31.648438-26.035156zm0 0" fill="#ed9254"/><path d="m427.164062 388.792969c0 16.0625-13.023437 29.082031-29.085937 29.082031s-29.085937-13.019531-29.085937-29.082031c0-16.066407 13.023437-29.085938 29.085937-29.085938s29.085937 13.019531 29.085937 29.085938zm0 0" fill="#ffc84d"/><path d="m413.386719 413.519531v90.589844h-30.617188v-90.589844" fill="#585968"/><path d="m219.484375 413.519531v90.589844h-30.617187v-90.589844" fill="#585968"/><path d="m233.261719 388.792969c0 16.0625-13.023438 29.082031-29.085938 29.082031s-29.085937-13.019531-29.085937-29.082031c0-16.066407 13.023437-29.085938 29.085937-29.085938s29.085938 13.019531 29.085938 29.085938zm0 0" fill="#ffc84d"/><path d="m72.65625 429.101562v75.242188h-22.992188v-74.757812" fill="#ffc84d"/><g fill="#ffb176"><path d="m87.808594 421.957031 35.621094 82.386719h-62.253907"/><path d="m87.8125 389.964844v12.601562h-23.832031c-8.589844 0-15.5625-6.96875-15.5625-15.5625 0-4.296875 1.746093-8.183594 4.5625-11 2.816406-2.820312 6.707031-4.5625 11-4.5625h7.59375c9.164062 1.203125 16.238281 9.039063 16.238281 18.523438zm0 0"/><path d="m69.117188 452.402344h-22.316407c-10.320312 0-18.6875-8.367188-18.6875-18.691406v-43.742188c0-10.324219 8.367188-18.691406 18.6875-18.691406h22.316407c10.324218 0 18.691406 8.367187 18.691406 18.691406v43.742188c0 10.324218-8.367188 18.691406-18.691406 18.691406zm0 0"/></g><path d="m101.515625 297.289062-11.890625 39.761719h-64.519531l-11.886719-39.761719c14.203125-10.359374 17.632812-30.117187 7.765625-44.65625l-4.367187-6.429687 40.75-212.046875 40.75 212.046875-4.371094 6.429687c-3.792969 5.601563-5.632813 11.96875-5.632813 18.285157 0 10.085937 4.664063 20.003906 13.402344 26.371093zm0 0" fill="#e6e6e6"/><path d="m57.367188 34.15625v302.894531h-32.261719l-11.886719-39.761719c14.203125-10.359374 17.632812-30.117187 7.765625-44.65625l-4.367187-6.429687zm0 0" fill="#ccc"/><path d="m8.15625 337.050781h99.609375v34.222657h-99.609375zm0 0" fill="#ffc84d"/><path d="m195.980469 290.921875c-3.980469 1.417969-8.234375 2.183594-12.664063 2.183594-22.398437 0-40.554687-19.523438-40.554687-43.617188 0-12.429687 4.847656-23.644531 12.601562-31.585937-10.480469-7.886719-17.335937-20.960938-17.335937-35.769532 0-15.652343 7.664062-29.378906 19.175781-37.074218-4.582031-7.0625-7.277344-15.644532-7.277344-24.910156 0-18.300782 10.46875-33.945313 25.320313-40.425782-.613282-2.988281-.929688-6.082031-.929688-9.253906 0-24.085938 18.15625-43.617188 40.554688-43.617188 4.132812 0 8.125.671876 11.878906 1.90625 7.101562-12.644531 20.003906-21.105468 34.738281-21.105468 19.441407 0 35.679688 14.71875 39.628907 34.351562 3.949218-19.632812 20.183593-34.351562 39.625-34.351562 14.738281 0 27.636718 8.460937 34.742187 21.105468 3.753906-1.234374 7.742187-1.90625 11.878906-1.90625 22.398438 0 40.554688 19.53125 40.554688 43.617188 0 3.171875-.316407 6.265625-.929688 9.253906 14.847657 6.480469 25.320313 22.125 25.320313 40.425782 0 9.265624-2.695313 17.847656-7.277344 24.910156 11.511719 7.695312 19.175781 21.421875 19.175781 37.074218 0 14.808594-6.859375 27.882813-17.339843 35.769532 7.757812 7.941406 12.605468 19.15625 12.605468 31.585937 0 24.09375-18.15625 43.617188-40.554687 43.617188-4.421875 0-8.675781-.765625-12.65625-2.164063zm0 0" fill="#585968"/><path d="m300.433594 39.167969c-2.898438-.714844-5.917969-1.09375-9.023438-1.09375-22.398437 0-40.554687 19.535156-40.554687 43.621093 0 3.171876.316406 6.265626.929687 9.253907-14.851562 6.480469-25.320312 22.125-25.320312 40.421875 0 9.269531 2.695312 17.851562 7.277344 24.914062-11.511719 7.695313-19.175782 21.417969-19.175782 37.074219 0 14.808594 6.855469 27.882813 17.335938 35.769531-7.753906 7.941406-12.601563 19.15625-12.601563 31.585938 0 11.726562 4.304688 22.371094 11.296875 30.207031h-34.617187c-3.980469 1.417969-8.234375 2.183594-12.664063 2.183594-22.398437 0-40.554687-19.523438-40.554687-43.617188 0-12.429687 4.847656-23.644531 12.601562-31.585937-10.480469-7.886719-17.335937-20.960938-17.335937-35.769532 0-15.652343 7.664062-29.378906 19.175781-37.074218-4.582031-7.0625-7.277344-15.644532-7.277344-24.910156 0-18.300782 10.46875-33.945313 25.320313-40.425782-.613282-2.988281-.929688-6.082031-.929688-9.253906 0-24.085938 18.15625-43.617188 40.554688-43.617188 4.132812 0 8.125.671876 11.878906 1.90625 7.101562-12.644531 20.003906-21.105468 34.738281-21.105468 18.492188 0 34.085938 13.320312 38.945313 31.515625zm0 0" fill="#424351"/><path d="m331.261719 329.4375v67.375l-30.144531 24.125-2.410157-1.9375-4.265625-3.410156-23.472656-18.777344v-67.375zm0 0" fill="#ed9254"/><path d="m331.261719 368.21875v28.59375l-30.144531 24.125-2.410157-1.9375-4.265625-3.410156v-42.269532zm0 0" fill="#ffb176"/><path d="m195.980469 278.65625c-17.441407 0-31.578125-12.65625-31.578125-28.269531s14.136718-28.265625 31.578125-28.265625h210.273437c17.4375 0 31.574219 12.652344 31.574219 28.265625s-14.136719 28.269531-31.574219 28.269531" fill="#ed9254"/><path d="m406.25 148.304688v115.339843c0 58.066407-47.066406 105.132813-105.132812 105.132813-29.035157 0-55.324219-11.765625-74.347657-30.789063-19.019531-19.023437-30.789062-45.308593-30.789062-74.34375v-115.339843c0 19.359374 15.6875 35.042968 35.046875 35.042968 19.347656 0 35.042968-15.683594 35.042968-35.042968 0 19.359374 15.6875 35.042968 35.046876 35.042968 19.359374 0 35.042968-15.683594 35.042968-35.042968 0 19.359374 15.695313 35.042968 35.046875 35.042968 19.359375 0 35.042969-15.683594 35.042969-35.042968zm0 0" fill="#ffb176"/><path d="m300.148438 368.769531c-28.648438-.257812-54.570313-11.972656-73.378907-30.78125-19.019531-19.023437-30.789062-45.308593-30.789062-74.34375v-115.339843c0 19.359374 15.6875 35.042968 35.046875 35.042968 4.316406 0 8.460937-.785156 12.285156-2.214844v82.511719c0 29.035157 6.472656 55.3125 16.933594 74.34375 10.246094 18.644531 24.328125 30.3125 39.902344 30.78125zm0 0" fill="#ed9254"/><path d="m483.808594 502.871094-17.488282-89.007813c-3.210937-16.34375-16.230468-28.761719-32.1875-31.601562-3.296874-16.902344-18.207031-29.699219-36.058593-29.699219-17.632813 0-32.398438 12.488281-35.929688 29.085938h-23.230469v-11.738282c32.496094-11.597656 58.164063-37.691406 69.164063-70.464844 3.546875.867188 7.171875 1.3125 10.835937 1.3125 26.582032 0 48.210938-23 48.210938-51.269531 0-11.292969-3.390625-21.980469-9.664062-30.808593 9.121093-9.566407 14.398437-22.726563 14.398437-36.546876 0-15.261718-6.242187-29.40625-16.976563-39.078124 3.335938-7.078126 5.078126-14.878907 5.078126-22.910157 0-18.78125-9.492188-35.726562-24.617188-44.71875.148438-1.644531.222656-3.300781.222656-4.960937 0-15.335938-6.375-29.742188-17.492187-39.523438-3.171875-2.792968-8.011719-2.484375-10.804688.691406-2.789062 3.171876-2.480469 8.007813.695313 10.800782 7.8125 6.875 12.296875 17.09375 12.296875 28.03125 0 2.621094-.261719 5.214844-.773438 7.722656-.726562 3.539062 1.125 7.105469 4.4375 8.550781 12.589844 5.496094 20.726563 18.609375 20.726563 33.40625 0 7.480469-2.089844 14.652344-6.042969 20.746094-2.28125 3.511719-1.3125 8.203125 2.167969 10.53125 9.875 6.601563 15.773437 18.082031 15.773437 30.710937 0 11.835938-5.339843 22.921876-14.285156 29.65625-1.761719 1.324219-2.863281 3.339844-3.03125 5.535157-.164063 2.191406.621094 4.351562 2.15625 5.929687 6.722656 6.878906 10.425781 16.199219 10.425781 26.234375 0 19.832031-14.761718 35.964844-32.902344 35.964844-1.089843 0-2.171874-.082031-3.25-.195313 17.097657-3.871093 29.816407-18.035156 29.816407-34.871093 0-17.410157-13.597657-31.960938-31.578125-35.230469v-66.851562c0-4.226563-3.425782-7.65625-7.652344-7.65625s-7.65625 3.429687-7.65625 7.65625c0 15.101562-12.285156 27.390624-27.390625 27.390624-15.101563 0-27.390625-12.289062-27.390625-27.390624 0-4.226563-3.425781-7.65625-7.652344-7.65625-4.226562 0-7.65625 3.429687-7.65625 7.65625 0 15.101562-12.285156 27.390624-27.390625 27.390624-15.101562 0-27.390625-12.289062-27.390625-27.390624 0-4.226563-3.425781-7.65625-7.652344-7.65625-4.226562 0-7.65625 3.429687-7.65625 7.65625 0 11.363281-7.148437 21.675781-17.777343 25.660156-3.078125 1.148437-6.3125 1.730468-9.613281 1.730468-15.101563 0-27.390626-12.289062-27.390626-27.390624 0-4.226563-3.425781-7.65625-7.652343-7.65625-4.226563 0-7.65625 3.429687-7.65625 7.65625v66.851562c-17.980469 3.269531-31.578125 17.820312-31.578125 35.230469 0 16.839843 12.71875 31 29.820312 34.871093-1.078125.117188-2.160156.195313-3.25.195313-18.144531 0-32.902344-16.132813-32.902344-35.964844 0-10.035156 3.703126-19.355469 10.421876-26.234375 1.539062-1.574218 2.324218-3.734375 2.15625-5.929687-.164063-2.195313-1.269532-4.210938-3.027344-5.535157-8.945313-6.734374-14.289063-17.820312-14.289063-29.652343 0-12.628907 5.898438-24.113281 15.777344-30.714844 3.480469-2.328125 4.445313-7.015625 2.167969-10.53125-3.953125-6.089844-6.042969-13.265625-6.042969-20.742187 0-14.800782 8.132813-27.914063 20.726563-33.410157 3.3125-1.445312 5.160156-5.007812 4.4375-8.550781-.511719-2.5-.773438-5.097656-.773438-7.71875 0-19.828125 14.761719-35.964844 32.902344-35.964844 3.21875 0 6.410156.515625 9.488281 1.527344 3.476563 1.144531 7.273437-.335938 9.0625-3.523438 6.050781-10.769531 16.542969-17.199218 28.066406-17.199218 15.328125 0 28.835938 11.863281 32.125 28.207031.71875 3.574219 3.859375 6.144531 7.503907 6.144531 3.644531 0 6.785156-2.570312 7.503906-6.144531 3.285156-16.34375 16.796875-28.207031 32.121094-28.207031 11.523437 0 22.015624 6.429687 28.066406 17.199218 1.792968 3.1875 5.59375 4.664063 9.0625 3.519532 3.082031-1.011719 6.273437-1.523438 9.492187-1.523438 4.226563 0 7.652344-3.429687 7.652344-7.65625 0-4.226562-3.425781-7.652344-7.652344-7.652344-2.835937 0-5.65625.265626-8.429687.785157-9.0625-12.449219-23.230469-19.980469-38.191406-19.980469-16.105469 0-30.804688 8.65625-39.625 22.132812-8.820313-13.476562-23.519532-22.132812-39.628907-22.132812-14.957031 0-29.125 7.53125-38.1875 19.984375-2.777343-.523437-5.597656-.789063-8.429687-.789063-26.582032 0-48.210938 23-48.210938 51.273438 0 1.660156.078125 3.316406.226563 4.957031-15.125 8.992188-24.617188 25.941407-24.617188 44.722657 0 8.027343 1.742188 15.828124 5.078125 22.90625-10.738281 9.671874-16.976562 23.816406-16.976562 39.078124 0 13.824219 5.277344 26.984376 14.398437 36.550782-6.273437 8.824218-9.664062 19.511718-9.664062 30.804687 0 28.269531 21.628906 51.273438 48.210937 51.273438 3.65625 0 7.265625-.445313 10.789063-1.304688 5.460937 16.375 14.691406 31.382813 27.253906 43.945313 12.035156 12.035156 26.34375 21.019531 41.957031 26.554687v11.691407h-23.210937c-3.53125-16.59375-18.296875-29.085938-35.929688-29.085938-17.851562 0-32.761719 12.800781-36.058593 29.703125-15.957032 2.839844-28.976563 15.257813-32.1875 31.597656l-13.523438 68.839844-26.945312-62.328125v-17.757812c0-.015626.003906-.03125.003906-.046876 0-.019531-.003906-.035156-.003906-.050781v-12.550781c0-3.941406-.875-7.679688-2.429688-11.039062h14.734375c4.226563 0 7.652344-3.425782 7.652344-7.652344v-34.222656c0-4.226563-3.425781-7.652344-7.652344-7.652344h-7.863281l8.941406-29.917969c.929688-3.105469-.203125-6.460937-2.820312-8.375-10.929688-7.972656-13.539063-22.984375-5.941407-34.175781l4.367188-6.433594c1.140625-1.679688 1.566406-3.746094 1.183593-5.742188l-40.75-212.046874c-.695312-3.605469-3.847656-6.207032-7.519531-6.207032-3.667969 0-6.824219 2.605469-7.515625 6.207032l-28.5625 148.617187c-.796875 4.152344 1.921875 8.164063 6.074219 8.964844 4.144531.792969 8.164063-1.921875 8.960937-6.074219l21.042969-109.507812 32.636719 169.816406-2.582031 3.804687c-11.203125 16.5-8.652344 38.148438 5.324219 51.574219l-8.816407 29.492188h-18.90625v-164.613282c0-4.226562-3.425781-7.65625-7.65625-7.65625-4.226562 0-7.652343 3.429688-7.652343 7.65625v164.613282h-18.90625l-8.816407-29.492188c13.976563-13.425781 16.527344-35.074219 5.324219-51.574219l-2.585938-3.804687 6.683594-34.757813c.796875-4.152343-1.921875-8.164062-6.074218-8.960937-4.148438-.796875-8.164063 1.921875-8.960938 6.074218l-7.277344 37.875c-.386718 1.996094.042969 4.0625 1.183594 5.742188l4.363281 6.429688c7.601563 11.191406 4.992188 26.207031-5.9375 34.179687-2.621093 1.910156-3.753906 5.269531-2.824219 8.375l8.945313 29.914063h-6.675781c-4.226563 0-7.652344 3.425781-7.652344 7.652343v34.222657c0 4.230468 3.425781 7.65625 7.652344 7.65625h14.734375c-1.554688 3.359374-2.429688 7.097656-2.429688 11.035156v43.746094c0 12.890624 9.308594 23.640624 21.550781 25.902343v44.730469c0 4.226562 3.429688 7.652344 7.65625 7.652344l426.632813.003906c2.289063 0 4.457031-1.023438 5.910156-2.792969 1.453125-1.765625 2.042969-4.089843 1.601563-6.335937zm-53.632813-252.484375c0 9.117187-6.910156 16.867187-16.449219 19.578125.113282-2.09375.179688-4.199219.179688-6.320313v-32.785156c9.449219 2.757813 16.269531 10.46875 16.269531 19.527344zm-39.753906 246.304687v-71.457031c2.472656.523437 5.03125.804687 7.65625.804687s5.183594-.28125 7.652344-.804687v71.457031zm7.65625-128.820312c11.816406 0 21.429687 9.613281 21.429687 21.429687 0 11.820313-9.613281 21.433594-21.429687 21.433594-11.820313 0-21.433594-9.613281-21.433594-21.433594 0-11.816406 9.613281-21.429687 21.433594-21.429687zm-226.019531-117.484375c0-9.058594 6.820312-16.769531 16.269531-19.527344v32.785156c0 2.117188.0625 4.222657.179687 6.320313-9.542968-2.710938-16.449218-10.460938-16.449218-19.578125zm31.578125 13.257812v-82.609375c7.417969 6.21875 16.972656 9.96875 27.390625 9.96875 5.132812 0 10.167968-.910156 14.972656-2.703125 8.277344-3.101562 15.199219-8.660156 20.054688-15.652343 7.722656 11.085937 20.558593 18.355468 35.0625 18.355468 14.492187 0 27.320312-7.257812 35.042968-18.332031 7.722656 11.074219 20.554688 18.332031 35.046875 18.332031 10.414063 0 19.972657-3.75 27.390625-9.96875v82.609375c0 53.75-43.730468 97.480469-97.480468 97.480469-.246094 0-.480469 0-.726563-.007812-.058594 0-.117187 0-.175781 0-25.695313-.230469-49.855469-10.367188-68.03125-28.539063-18.410156-18.410156-28.546875-42.890625-28.546875-68.933594zm36.472656 133.3125h30.863281c4.226563 0 7.652344-3.429687 7.652344-7.65625v-15.109375c6.96875 1.402344 14.117188 2.160156 21.375 2.230469.375.011719.738281.011719 1.117188.011719 7.699218 0 15.222656-.777344 22.492187-2.257813v15.125c0 4.226563 3.425781 7.65625 7.65625 7.65625h30.882813c1.789062 8.421875 6.480468 15.78125 12.96875 20.992188v78.742187h-147.976563v-78.742187c6.484375-5.210938 11.175781-12.570313 12.96875-20.992188zm-43.585937 99.734375v-71.457031c2.46875.523437 5.027343.804687 7.652343.804687s5.183594-.28125 7.65625-.804687v71.457031zm7.652343-128.820312c11.816407 0 21.433594 9.613281 21.433594 21.429687 0 11.820313-9.617187 21.433594-21.433594 21.433594-11.816406 0-21.429687-9.613281-21.429687-21.433594 0-11.816406 9.613281-21.429687 21.429687-21.429687zm-139.171875 92.1875v36.632812h-7.6875v-36.632812zm-6.609375-78.644532c1.496094-1.496093 3.480469-2.320312 5.585938-2.320312h6.976562c5.210938.878906 9.199219 5.414062 9.199219 10.871094v4.949218h-16.175781c-4.359375 0-7.90625-3.550781-7.90625-7.910156 0-2.109375.824219-4.09375 2.320312-5.589844zm-42.585937-36.707031h84.300781v18.914063h-84.300781zm19.957031 89.003907v-43.746094c0-4.28125 2.457031-7.996094 6.03125-9.824219-.675781 2.195313-1.03125 4.503906-1.03125 6.863281 0 12.800782 10.414063 23.214844 23.214844 23.214844h16.175781v23.492188c0 6.085937-4.953125 11.039062-11.039062 11.039062h-22.316407c-6.085937 0-11.035156-4.953125-11.035156-11.039062zm44.546875 62.980468v-39.136718c4.300781-2.027344 7.96875-5.183594 10.617188-9.085938l20.851562 48.222656zm70.640625-79.878906c1.820313-9.261719 8.753906-16.46875 17.503906-18.933594 1.933594 8.039063 6.507813 15.054688 12.757813 20.070313v78.742187h-45.953125zm270.085937 79.878906v-78.742187c6.25-5.015625 10.824219-12.03125 12.753907-20.070313 8.753906 2.464844 15.6875 9.671875 17.507812 18.933594l15.691407 79.878906zm0 0"/><path d="m347.667969 220.09375c-4.226563 0-7.652344 3.425781-7.652344 7.652344v18.648437c0 4.226563 3.425781 7.652344 7.652344 7.652344 4.226562 0 7.652343-3.425781 7.652343-7.652344v-18.648437c0-4.226563-3.425781-7.652344-7.652343-7.652344zm0 0"/><path d="m254.566406 220.09375c-4.226562 0-7.65625 3.425781-7.65625 7.652344v18.648437c0 4.226563 3.429688 7.652344 7.65625 7.652344 4.226563 0 7.652344-3.425781 7.652344-7.652344v-18.648437c0-4.226563-3.425781-7.652344-7.652344-7.652344zm0 0"/><path d="m320.800781 303.226562c4.164063-.726562 6.949219-4.691406 6.222657-8.855468-.726563-4.164063-4.6875-6.949219-8.855469-6.222656-11.316407 1.972656-22.789063 1.976562-34.101563 0-4.167968-.726563-8.128906 2.0625-8.855468 6.222656-.726563 4.167968 2.058593 8.132812 6.222656 8.859375 6.53125 1.136719 13.105468 1.707031 19.683594 1.707031 6.574218 0 13.152343-.570312 19.683593-1.710938zm0 0"/><path d="m268.394531 205.917969-25.511719-10.203125c-3.925781-1.574219-8.378906.335937-9.949218 4.261718-1.570313 3.925782.339844 8.378907 4.265625 9.949219l25.511719 10.207031c.933593.371094 1.894531.546876 2.839843.546876 3.039063 0 5.914063-1.820313 7.109375-4.8125 1.570313-3.925782-.339844-8.378907-4.265625-9.949219zm0 0"/><path d="m336.683594 220.679688c.945312 0 1.90625-.175782 2.839844-.550782l25.511718-10.203125c3.925782-1.570312 5.835938-6.023437 4.265625-9.949219-1.570312-3.925781-6.023437-5.835937-9.949219-4.265624l-25.515624 10.207031c-3.921876 1.570312-5.832032 6.023437-4.261719 9.949219 1.195312 2.992187 4.070312 4.8125 7.109375 4.8125zm0 0"/></svg>