<svg id="Capa_1" enable-background="new 0 0 512 512" height="512" viewBox="0 0 512 512" width="512" xmlns="http://www.w3.org/2000/svg"><g><g><path d="m78.621 370.183c31.589 0 57.197 25.608 57.197 57.197v77.119h-114.394v-77.119c0-31.59 25.608-57.197 57.197-57.197z" fill="#365e7d"/><path d="m99.904 374.27c-21.05 8.45-35.92 29.04-35.92 53.11v77.12h-42.56v-77.12c0-31.59 25.61-57.2 57.19-57.2h.01c7.52 0 14.7 1.45 21.28 4.09z" fill="#2b4d66"/><path d="m79.572 504.498h201.226l42.155-70.468h-173.833c-38.41 0-69.548 31.138-69.548 69.548z" fill="#9d6b6b"/><path d="m227.599 434.03c-38.41 0-69.55 31.14-69.55 69.55v.92h-78.479v-.92c0-38.41 31.14-69.55 69.55-69.55z" fill="#8b5e5e"/><g><g><path d="m440.439 504.498h-253.979c20.62-34.85 55.16-60.48 95.98-69.22v-53.73h62.01v53.73c40.819 8.741 75.369 34.37 95.989 69.22z" fill="#ffddce"/><g fill="#ffcbbe"><path d="m344.45 381.549v23.55c-7.03 1.43-14.31 2.18-21.76 2.18h-18.48c-7.46 0-14.74-.75-21.77-2.18v-23.55z"/><path d="m300.347 381.54v53.742c-17.249 8.73-31.842 34.368-40.552 69.217h-73.336c20.617-34.849 55.165-60.487 95.978-69.217v-53.742z"/></g></g><path d="m127.602 7.5c-16.503 0-30.521 13.501-30.357 30.004.086 8.697 3.914 16.495 9.945 21.873h-11.989c-16.185 0-29.866 12.689-30.309 28.868-.46 16.786 13.01 30.538 29.692 30.538h.127c-5.283 5.362-8.547 12.72-8.547 20.843 0 16.405 13.299 29.703 29.703 29.703h1.457c-5.283 5.362-8.547 12.72-8.547 20.843 0 16.405 13.299 29.703 29.703 29.703 19.258 0 34.869 15.611 34.869 34.869v30.309l280.195-52.284v-69.91c-.002-85.803-69.558-155.359-155.36-155.359z" fill="#9d6b6b"/><path d="m282.421 254.744v9.96l-109.07 20.35v-30.31c0-9.62-3.9-18.34-10.21-24.65s-15.03-10.21-24.66-10.21c-8.21 0-15.63-3.32-21-8.7-5.38-5.38-8.7-12.8-8.7-21.01 0-8.12 3.26-15.48 8.54-20.84h-1.45c-8.2 0-15.63-3.33-21.01-8.7-5.37-5.37-8.7-12.8-8.7-21 0-8.13 3.27-15.48 8.55-20.85h-.13c-16.68 0-30.15-13.75-29.69-30.54.44-16.17 14.13-28.86 30.31-28.86h11.99c-6.03-5.38-9.86-13.18-9.95-21.88-.16-16.5 13.86-30 30.36-30h109.079c-16.51 0-30.53 13.5-30.36 30 .08 8.7 3.91 16.5 9.94 21.88h-11.99c-16.18 0-29.86 12.69-30.31 28.86-.46 16.79 13.01 30.54 29.7 30.54h.12c-5.28 5.37-8.54 12.72-8.54 20.85 0 8.2 3.32 15.63 8.7 21 5.37 5.37 12.79 8.7 21 8.7h1.46c-5.29 5.36-8.55 12.72-8.55 20.84 0 8.21 3.32 15.63 8.7 21.01s12.8 8.7 21 8.7c9.63 0 18.35 3.9 24.66 10.21 6.311 6.31 10.211 15.03 10.211 24.65z" fill="#8b5e5e"/><g fill="#ffcbbe"><circle cx="175.926" cy="272.385" r="39.613"/><circle cx="450.97" cy="272.385" r="39.613"/></g><path d="m431.129 166.949v108.61c0 50.61-34.68 93.13-81.57 105.09h-.01c-8.59 2.19-17.59 3.35-26.86 3.35h-18.48c-59.89 0-108.45-48.55-108.45-108.44v-108.62c6.48 5.465 13.905 9.845 21.995 12.859s16.845 45.533 25.985 45.533c8.49 0 16.64-1.42 24.25-4.04 20.95-7.21 37.67-23.5 45.46-44.18 10.62 28.18 37.82 48.22 69.71 48.22 8.246 0 16.176-42.21 23.588-44.683 9.019-3.01 17.268-7.699 24.382-13.699z" fill="#9d6b6b"/><path d="m349.55 380.649c-8.59 2.19-17.59 3.35-26.86 3.35h-18.48c-59.89 0-108.45-48.55-108.45-108.44v-108.62c6.48 5.465 13.905 9.845 21.995 12.859s16.845 32.138 25.985 32.138c8.49 0 16.64-1.42 24.25-4.04v67.663c0 50.61 34.68 93.12 81.56 105.09z" fill="#8b5e5e"/><path d="m406.744 180.649v81.22c0 20.95-22.33 34.33-40.8 24.45l-1.94-1.04c-29.89-15.98-65.46-16.84-95.97-2.57-1.73.81-3.44 1.66-5.14 2.57l-1.95 1.04c-18.47 9.88-40.79-3.5-40.79-24.45v-81.23c7.41 2.48 15.34 3.82 23.59 3.82 8.5 0 16.67-1.43 24.29-4.05 20.93-7.22 37.63-23.51 45.42-44.17 10.62 28.18 37.82 48.22 69.71 48.22 8.24 0 16.17-1.33 23.58-3.81z" fill="#ffddce"/><path d="m268.035 180.409v102.3c-1.73.81-3.44 1.66-5.14 2.57l-1.95 1.04c-18.47 9.88-40.79-3.5-40.79-24.45v-81.23c7.41 2.48 15.34 3.82 23.59 3.82 8.5 0 16.67-1.43 24.29-4.05z" fill="#ffcbbe"/></g></g><g><path d="m461.042 226.364v-63.504c0-89.801-73.058-162.86-162.86-162.86h-109.5c-4.142 0-7.5 3.358-7.5 7.5s3.358 7.5 7.5 7.5h109.5c81.53 0 147.86 66.33 147.86 147.86v62.691c-2.507.263-4.988.707-7.413 1.364v-59.965c0-2.918-1.692-5.571-4.339-6.801-2.646-1.229-5.766-.813-7.996 1.068-12.038 10.152-27.356 15.744-43.135 15.744-27.723 0-52.917-17.427-62.691-43.365-1.102-2.921-3.896-4.855-7.019-4.855s-5.917 1.934-7.019 4.855c-9.774 25.938-34.969 43.365-62.691 43.365-15.777 0-31.1-5.595-43.145-15.753-2.23-1.881-5.35-2.298-7.997-1.068-2.646 1.23-4.339 3.883-4.339 6.801v59.973c-4.004-1.084-8.153-1.644-12.337-1.644-2.241 0-4.442.168-6.6.472-.298-.316-.581-.647-.887-.953-8.007-8.007-18.645-12.417-29.953-12.417-5.935 0-11.513-2.31-15.707-6.503s-6.503-9.769-6.503-15.697c0-4.874 1.591-9.508 4.491-13.341h19.045c4.142 0 7.5-3.358 7.5-7.5s-3.358-7.5-7.5-7.5l-23.946.001c-5.92 0-11.497-2.312-15.702-6.508-4.19-4.183-6.498-9.756-6.498-15.692 0-4.884 1.589-9.52 4.485-13.348h31.685c4.142 0 7.5-3.358 7.5-7.5s-3.358-7.5-7.5-7.5c0 0-35.109-.002-35.12-.002h-.13c-6.045 0-11.697-2.387-15.913-6.721-4.215-4.332-6.446-10.055-6.28-16.115.325-11.892 10.559-21.566 22.814-21.566l58.573-.003c4.142 0 7.5-3.358 7.5-7.5s-3.358-7.5-7.5-7.5h-43.475c-3.502-3.98-5.503-9.115-5.558-14.449-.056-5.757 2.23-11.266 6.437-15.514 4.351-4.394 10.337-6.914 16.423-6.914h31.08c4.142 0 7.5-3.358 7.5-7.5s-3.358-7.5-7.5-7.5h-31.08c-10.062 0-19.933 4.14-27.082 11.358-7.045 7.114-10.873 16.424-10.778 26.219.051 4.991 1.115 9.876 3.062 14.378-19.226 1.215-34.889 16.934-35.41 36.079-.278 10.142 3.459 19.725 10.523 26.985 4.029 4.141 8.84 7.221 14.109 9.104-2.204 4.804-3.365 10.068-3.365 15.507 0 9.948 3.872 19.291 10.901 26.309 4.253 4.245 9.347 7.337 14.902 9.12-2.093 4.699-3.194 9.826-3.194 15.112 0 9.935 3.87 19.276 10.897 26.303s16.372 10.897 26.313 10.897c5.113 0 10.012 1.402 14.268 4.016-14.279 8.103-23.94 23.438-23.94 40.996 0 25.979 21.135 47.113 47.113 47.113 6.781 0 13.337-1.425 19.369-4.155 12.977 35.414 42.766 62.788 79.65 72.414v38.775h-125.82c-1.958 0-3.893.098-5.815.242-.329-35.396-29.213-64.092-64.685-64.092-35.675 0-64.7 29.024-64.7 64.7v77.12c0 4.142 3.358 7.5 7.5 7.5h58.15 56.25 50.61c.007 0 .015.001.022.001h253.979c2.694 0 5.182-1.445 6.516-3.786 1.334-2.34 1.311-5.217-.062-7.535-9.747-16.462-22.291-30.834-37.285-42.717-3.245-2.573-7.963-2.026-10.536 1.22-2.572 3.246-2.026 7.963 1.22 10.536 9.992 7.919 18.78 17.062 26.239 27.282h-145.723v-.001h-80.429c20.226-27.664 50.064-47.204 83.64-54.385 3.46-.74 5.932-3.796 5.932-7.334v-44.661c4.677.576 9.438.878 14.268.878h18.479c4.828 0 9.587-.302 14.263-.878v44.659c0 3.537 2.472 6.593 5.93 7.334 11.605 2.484 22.843 6.445 33.402 11.772 1.083.547 2.236.806 3.372.806 2.741 0 5.383-1.508 6.702-4.123 1.865-3.698.38-8.208-3.318-10.075-9.896-4.993-20.328-8.902-31.088-11.655v-41.584c36.883-9.626 66.67-37.002 79.646-72.418 6.038 2.733 12.594 4.158 19.368 4.158 25.979 0 47.113-21.135 47.113-47.113-.001-22.519-15.886-41.389-37.038-46.017zm-432.121 201.014c0-27.404 22.295-49.7 49.7-49.7s49.7 22.295 49.7 49.7v2.026c-30.372 8.529-53.198 35.234-55.95 67.594h-43.45v-69.62zm153.332 69.621h-46.433-48.403c3.296-31.133 29.711-55.47 61.704-55.47h93.719c-24.566 12.615-45.624 31.729-60.587 55.47zm131.196-343.896c14.762 23.734 41.138 38.856 69.71 38.856 5.432 0 10.818-.545 16.085-1.6v71.51c0 7.178-3.675 13.666-9.83 17.354-6.153 3.687-13.604 3.868-19.928.485l-1.946-1.042c-33.869-18.11-74.312-18.109-108.174-.005l-1.96 1.045c-6.325 3.383-13.774 3.204-19.923-.481-6.154-3.687-9.829-10.175-9.829-17.355v-71.51c5.267 1.055 10.653 1.601 16.085 1.601 28.573-.002 54.949-15.124 69.71-38.858zm-137.526 151.392c-17.708 0-32.113-14.406-32.113-32.113s14.406-32.113 32.113-32.113c4.25 0 8.447.842 12.337 2.457v16.768c-3.002-1.223-6.316-2.035-9.922-2.397-7.457-.748-13.557.674-14.228.839-4.023.987-6.483 5.048-5.496 9.071s5.048 6.483 9.071 5.496c.041-.01 4.273-.969 9.153-.482 5.256.528 9.017 2.416 11.449 5.748.148 7.867 1.084 15.543 2.731 22.956-4.613 2.47-9.749 3.77-15.095 3.77zm146.767 72.004h-18.48c-55.664 0-100.95-45.281-100.95-100.939v-94.295c3.035 1.723 6.174 3.246 9.395 4.566v76.039c0 12.502 6.4 23.8 17.119 30.223 5.61 3.361 11.839 5.049 18.082 5.049 5.68 0 11.372-1.397 16.617-4.203l1.958-1.044c29.44-15.741 64.595-15.742 94.031-.003l1.944 1.042c11.02 5.894 23.998 5.581 34.717-.842 10.721-6.423 17.121-17.721 17.121-30.221v-76.037c3.218-1.318 6.354-2.839 9.385-4.56v94.287c0 55.656-45.281 100.938-100.939 100.938zm128.276-72.004c-5.336 0-10.472-1.301-15.095-3.774 1.646-7.41 2.582-15.083 2.73-22.946 2.375-3.258 6.022-5.135 11.098-5.716 5.02-.572 9.403.419 9.542.451 4.014.965 8.056-1.491 9.041-5.504.987-4.023-1.474-8.084-5.497-9.071-.67-.165-6.77-1.586-14.228-.839-3.609.363-6.925 1.176-9.929 2.4v-16.766c3.891-1.617 8.088-2.461 12.337-2.461 17.707 0 32.113 14.406 32.113 32.113s-14.405 32.113-32.112 32.113z"/><path d="m257.553 232.619c-7.236 0-13.123 8.065-13.123 17.979s5.887 17.979 13.123 17.979c7.235 0 13.122-8.065 13.122-17.979s-5.887-17.979-13.122-17.979z"/><path d="m369.343 232.619c-7.235 0-13.122 8.065-13.122 17.979s5.887 17.979 13.122 17.979c7.236 0 13.123-8.065 13.123-17.979s-5.887-17.979-13.123-17.979z"/><path d="m247.536 217.239c2.883-2.883 6.715-4.47 10.792-4.47 4.076 0 7.909 1.587 10.791 4.47 1.465 1.465 3.384 2.197 5.304 2.197 1.919 0 3.839-.732 5.303-2.197 2.93-2.929 2.93-7.677.001-10.606-5.716-5.716-13.315-8.864-21.398-8.864s-15.683 3.148-21.398 8.864c-2.929 2.929-2.929 7.678 0 10.606 2.928 2.93 7.677 2.929 10.605 0z"/><path d="m358.907 217.239c2.882-2.883 6.715-4.47 10.791-4.47s7.909 1.587 10.791 4.47c1.465 1.465 3.384 2.197 5.304 2.197 1.919 0 3.839-.732 5.303-2.197 2.93-2.929 2.93-7.677.001-10.606-5.716-5.716-13.315-8.864-21.398-8.864s-15.683 3.148-21.398 8.864c-2.929 2.929-2.929 7.678.001 10.606 2.927 2.93 7.676 2.929 10.605 0z"/><path d="m338.633 289.763c-3.968-1.179-8.146 1.084-9.324 5.055-2.063 6.948-8.586 11.801-15.861 11.801-7.267 0-13.79-4.856-15.862-11.809-1.184-3.969-5.359-6.229-9.33-5.045-3.97 1.184-6.229 5.361-5.045 9.33 3.953 13.262 16.388 22.523 30.237 22.523 13.866 0 26.302-9.265 30.24-22.531 1.179-3.97-1.084-8.145-5.055-9.324z"/></g></g></svg>