<svg id="Capa_1" enable-background="new 0 0 512 512" height="512" viewBox="0 0 512 512" width="512" xmlns="http://www.w3.org/2000/svg"><g><g><path d="m197.965 504.495h-89.188c-49.731 0-84.631-49.021-68.356-96.013l29.258-84.477h65.775z" fill="#ffc250"/><path d="m149.349 504.5h-40.569c-49.739 0-84.639-49.019-68.359-96.018l29.259-84.468h40.569l-29.259 84.468c-16.279 46.999 18.62 96.018 68.359 96.018z" fill="#e7a52e"/><path d="m397.889 243.2v50.294c21.775 4.464 38.47 23.48 39.371 46.263.433 10.95-2.71 21.146-8.355 29.515 18.106 10.242 30.411 29.544 30.722 51.757.472 33.708-27.659 61.293-61.371 61.293h-135.105c-34.189 0-61.905-27.716-61.905-61.905l2.627-138.311" fill="#b3e59f"/><path d="m393.823 421.031c.474 33.708-27.663 61.292-61.371 61.292h-63.534c-34.182 0-61.904-27.713-61.904-61.904l2.627-138.316 122.445-24.552v35.94c21.767 4.464 38.468 23.485 39.366 46.27.435 10.943-2.706 21.145-8.355 29.51 18.104 10.241 30.41 29.549 30.726 51.76z" fill="#de1d49"/><path d="m393.823 421.031c.474 33.708-27.663 61.292-61.371 61.292h-63.534c-34.182 0-61.904-27.713-61.904-61.904l2.627-138.316 122.445-24.552v35.94c21.767 4.464 38.468 23.485 39.366 46.27.435 10.943-2.706 21.145-8.355 29.51 18.104 10.241 30.41 29.549 30.726 51.76z" fill="#95d6a4"/><path d="m446.918 504.495h-250.263c20.316-34.342 54.358-59.598 94.578-68.205v-52.952h61.108v52.952c40.219 8.607 74.261 33.864 94.577 68.205z" fill="#ffddce"/><path d="m291.235 383.334h61.104v21.747h-61.104z" fill="#ffcbbe"/><path d="m308.878 383.334v52.956c-16.997 8.602-31.377 33.866-39.959 68.205h-72.264c20.315-34.34 54.359-59.603 94.574-68.205v-52.956z" fill="#ffcbbe"/><path d="m288.606 472.31c-17.776 0-32.186 14.41-32.186 32.186h64.371c.001-17.776-14.409-32.186-32.185-32.186z" fill="#ffc250"/><path d="m300.103 474.422c-12.098 4.632-20.691 16.345-20.691 30.073h-22.992c0-17.777 14.409-32.186 32.186-32.186 4.05 0 7.932.75 11.497 2.113z" fill="#e7a52e"/><path d="m352.977 472.31c-17.776 0-32.186 14.41-32.186 32.186h64.371c.001-17.776-14.409-32.186-32.185-32.186z" fill="#ffc250"/><path d="m364.474 474.422c-12.098 4.632-20.691 16.345-20.691 30.073h-22.992c0-17.777 14.409-32.186 32.186-32.186 4.05 0 7.932.75 11.497 2.113z" fill="#e7a52e"/><g><circle cx="457.61" cy="275.255" fill="#ffcbbe" r="39.123"/></g><path d="m438.015 156.275v122.115c0 59.148-47.949 107.097-107.097 107.097h-18.251c-59.149 0-107.107-47.949-107.107-107.097v-122.115z" fill="#ffddce"/><path d="m353.899 383.008c-7.397 1.63-15.091 2.479-22.982 2.479h-18.251c-59.149 0-107.107-47.949-107.107-107.097v-122.115h64.215v122.115c0 51.257 36.018 94.11 84.125 104.618z" fill="#ffcbbe"/><path d="m377.026 7.504c-21.639 0-41.559 7.35-57.407 19.684-15.849-12.334-35.769-19.684-57.408-19.684-51.668 0-93.554 41.886-93.554 93.554v403.437h75.94v-222.389c51.564-1.942 92.821-44.133 93.262-96.069 0 0 24.988 8.575 39.167 8.575 51.668 0 93.554-41.885 93.554-93.554 0-51.668-41.886-93.554-93.554-93.554z" fill="#b3e59f"/><path d="m260.436 206.156v-103.978c0-35.199 19.22-66.269 47.819-82.569-13.59-7.709-29.31-12.109-46.049-12.109-51.669 0-93.548 41.889-93.548 93.558v403.432h75.939v-222.385c17.3-.65 33.439-5.84 47.269-14.41-19.041-13.79-31.43-36.219-31.43-61.539z" fill="#95d6a4"/><path d="m39.12 234.221h-23.849v23.849c0 36.415 29.52 65.935 65.935 65.935h23.849v-23.849c.001-36.415-29.52-65.935-65.935-65.935z" fill="#ffc250"/><path d="m105.056 323.995v.01h-23.85c-36.419 0-65.939-29.519-65.939-65.939v-23.849h23.85c.25 0 .51 0 .76.01v23.839c.001 36.17 29.11 65.529 65.179 65.929z" fill="#e7a52e"/><path d="m170.991 234.221h23.849v23.849c0 36.415-29.52 65.935-65.935 65.935h-23.849v-23.849c0-36.415 29.52-65.935 65.935-65.935z" fill="#ffc250"/><path d="m194.844 234.217v.04c-35.449 1.1-63.849 30.179-63.849 65.899v23.81c-.69.03-1.39.04-2.09.04h-23.85v-23.85c0-36.419 29.519-65.939 65.939-65.939z" fill="#e7a52e"/></g><g><path d="m504.229 275.251c0-25.708-20.915-46.623-46.623-46.623-4.098 0-8.164.541-12.091 1.594v-54.855c3.758-3.475 7.286-7.252 10.539-11.331 2.583-3.239 2.052-7.958-1.187-10.54-3.238-2.583-7.957-2.051-10.54 1.187-16.437 20.608-40.965 32.427-67.297 32.427-10.583 0-30.108-5.894-36.738-8.165-2.28-.781-4.799-.418-6.765.974-1.967 1.393-3.146 3.646-3.166 6.057-.406 47.895-38.201 86.83-86.043 88.639-4.029.152-7.217 3.463-7.217 7.495v214.89h-60.94v-182.78c15.994-13.481 26.18-33.645 26.18-56.151v-23.849c0-4.142-3.358-7.5-7.5-7.5h-18.68v-125.66c0-47.454 38.602-86.06 86.05-86.06 19.328 0 37.586 6.262 52.803 18.108 2.71 2.109 6.505 2.109 9.215 0 15.215-11.846 33.474-18.108 52.801-18.108 47.448 0 86.05 38.606 86.05 86.06 0 10.182-1.76 20.147-5.232 29.619-1.425 3.889.572 8.198 4.461 9.623 3.888 1.424 8.197-.571 9.623-4.461 4.08-11.13 6.148-22.833 6.148-34.781.001-55.725-45.33-101.06-101.05-101.06-20.778 0-40.508 6.166-57.41 17.885-16.901-11.719-36.631-17.885-57.41-17.885-55.719 0-101.05 45.335-101.05 101.06v126.338c-24.682 3.319-45.515 18.93-56.105 40.467-11.971-24.345-37.024-41.144-65.936-41.144h-23.848c-4.142 0-7.5 3.358-7.5 7.5v23.849c0 33.198 22.149 61.306 52.44 70.361l-26.879 77.596c-6.109 17.649-5.961 36.16.428 53.532 1.116 3.034 3.985 4.913 7.04 4.913.859 0 1.734-.149 2.588-.463 3.888-1.43 5.88-5.74 4.45-9.628-5.18-14.085-5.295-29.109-.332-43.446l27.514-79.425h55.091l31.049 89.652v75.838h-52.38c-17.992 0-34.67-7.151-46.963-20.136-2.847-3.007-7.594-3.139-10.603-.29-3.008 2.848-3.138 7.594-.29 10.603 15.155 16.007 35.701 24.823 57.856 24.823h338.13c2.693 0 5.18-1.444 6.515-3.784s1.312-5.215-.059-7.534c-4.803-8.12-10.325-15.716-16.45-22.73 18.92-12.78 30.524-34.239 30.207-57.025-.296-21.494-10.911-41.599-28.147-54.09 4.168-8.439 6.155-17.77 5.782-27.377-.293-7.302-2.053-14.516-5.089-21.16 5.632 2.353 11.691 3.574 17.936 3.574 25.708 0 46.624-20.915 46.624-46.623zm-333.238-33.53h16.349v16.349c0 32.222-26.214 58.436-58.436 58.436h-16.349v-16.349c.001-32.222 26.215-58.436 58.436-58.436zm-148.22 16.348v-16.349h16.349c32.222 0 58.436 26.214 58.436 58.436v16.349h-16.349c-32.222 0-58.436-26.214-58.436-58.436zm122.563 71.56c5.538-1.271 10.842-3.158 15.827-5.606v51.304zm312.271-86.001c17.437 0 31.623 14.186 31.623 31.623s-14.186 31.623-31.623 31.623c-5.23 0-10.266-1.268-14.802-3.681 1.616-7.295 2.536-14.848 2.683-22.588 2.33-3.179 5.905-5.01 10.874-5.58 4.936-.566 9.257.411 9.396.443 4.016.966 8.056-1.491 9.04-5.504.987-4.023-1.473-8.084-5.496-9.071-.665-.164-6.704-1.573-14.083-.831-3.522.354-6.762 1.139-9.703 2.322v-16.357c3.817-1.576 7.929-2.399 12.091-2.399zm-112.797-47.56c9.008 2.621 22.606 6.042 32.222 6.042 19.243 0 37.663-5.377 53.484-15.267v91.547c0 54.918-44.679 99.597-99.598 99.597h-18.251c-21.892 0-43.256-7.278-60.565-20.54v-68.361c49.114-5.216 87.681-44.119 92.708-93.018zm-92.707 179.604c9.808 6.098 20.485 10.672 31.63 13.583v41.092c-10.974 2.808-21.551 6.845-31.63 12.027zm12.984 121.323c3.182-9.956 12.523-17.186 23.521-17.186s20.339 7.229 23.521 17.186zm64.371 0c3.182-9.956 12.523-17.186 23.521-17.186s20.339 7.229 23.521 17.186zm62.487.005c-3.515-18.31-19.646-32.19-38.966-32.19-13.236 0-24.972 6.52-32.186 16.51-7.214-9.99-18.949-16.51-32.186-16.51-16.363 0-30.443 9.956-36.505 24.128v-29.462c12.68-7.456 26.349-12.787 40.696-15.851 3.46-.739 5.934-3.796 5.934-7.334v-44.174c4.608.567 9.26.871 13.936.871h18.251c4.713 0 9.358-.292 13.923-.848v44.151c0 3.538 2.472 6.595 5.932 7.334 32.994 7.055 62.315 26.229 82.214 53.375zm60.181-75.864c.259 18.581-9.741 36.048-25.834 45.808-18.638-17.477-41.484-30.187-66.449-36.593v-41.064c29.513-7.703 54.424-26.906 69.649-52.514.132 1.089.237 2.181.281 3.278.348 8.985-2.1 17.64-7.08 25.027-1.169 1.734-1.561 3.877-1.082 5.913.48 2.035 1.788 3.778 3.607 4.808 16.34 9.243 26.65 26.615 26.908 45.337z"/><path d="m389.354 240.678-4.909 3.492c-2.111-2.041-4.678-3.252-7.452-3.252-7.147 0-12.962 7.966-12.962 17.758s5.814 17.758 12.962 17.758 12.962-7.966 12.962-17.758c0-.005-.001-.011-.001-.016l8.095-5.759c3.375-2.401 4.165-7.083 1.764-10.459-2.402-3.377-7.084-4.165-10.459-1.764z"/><path d="m366.751 225.795c5.841-5.841 15.345-5.841 21.185 0 1.464 1.464 3.384 2.197 5.303 2.197s3.839-.732 5.303-2.197c2.929-2.929 2.929-7.678 0-10.606-11.69-11.69-30.709-11.689-42.398 0-2.929 2.929-2.929 7.678 0 10.606 2.93 2.929 7.679 2.929 10.607 0z"/><path d="m321.79 315.701c13.735 0 26.052-9.178 29.955-22.318 1.179-3.971-1.083-8.146-5.054-9.325-3.974-1.182-8.146 1.083-9.325 5.054-2.026 6.823-8.431 11.588-15.576 11.588-7.136 0-13.542-4.769-15.579-11.597-1.184-3.969-5.362-6.229-9.331-5.043-3.969 1.184-6.228 5.361-5.043 9.331 3.917 13.136 16.234 22.31 29.953 22.31z"/><path d="m137.896 382.786c-4.142 0-7.5 3.358-7.5 7.5 0 4.562-3.711 8.273-8.273 8.273s-8.273-3.711-8.273-8.273c0-4.142-3.358-7.5-7.5-7.5s-7.5 3.358-7.5 7.5c0 4.562-3.711 8.273-8.273 8.273s-8.273-3.711-8.273-8.273c0-4.142-3.358-7.5-7.5-7.5s-7.5 3.358-7.5 7.5c0 12.833 10.44 23.273 23.273 23.273 6.081 0 11.623-2.343 15.773-6.175 4.15 3.832 9.693 6.175 15.773 6.175 12.833 0 23.273-10.44 23.273-23.273 0-4.142-3.357-7.5-7.5-7.5z"/><path d="m61.72 430.555c0 12.833 10.44 23.273 23.273 23.273s23.273-10.44 23.273-23.273c0-4.142-3.358-7.5-7.5-7.5s-7.5 3.358-7.5 7.5c0 4.562-3.711 8.273-8.273 8.273s-8.273-3.711-8.273-8.273c0-4.142-3.358-7.5-7.5-7.5s-7.5 3.358-7.5 7.5z"/><path d="m132.444 461.601c0 4.562-3.711 8.273-8.273 8.273s-8.273-3.711-8.273-8.273c0-4.142-3.358-7.5-7.5-7.5s-7.5 3.358-7.5 7.5c0 12.833 10.44 23.273 23.273 23.273s23.273-10.44 23.273-23.273c0-4.142-3.358-7.5-7.5-7.5s-7.5 3.358-7.5 7.5z"/></g></g></svg>