<svg id="Capa_1" enable-background="new 0 0 512 512" height="512" viewBox="0 0 512 512" width="512" xmlns="http://www.w3.org/2000/svg"><g><g><g><path d="m428.844 504.5h-254.7c13.04-22.05 31.64-40.41 53.87-53.16h146.96c22.23 12.75 40.83 31.11 53.87 53.16z" fill="#ede6e3"/><path d="m374.972 451.34-2.72 2.72c-35.21 30.08-84.8 34.17-123.92 12.26-6.16-3.43-12.06-7.53-17.6-12.26l-2.72-2.72c13.01-7.47 27.27-13.02 42.39-16.25v-53.89h62.19v53.89c15.11 3.23 29.37 8.78 42.38 16.25z" fill="#ffddce"/><path d="m284.079 381.197v53.89c-13.42 5.13-25.62 16.05-35.75 31.23-6.16-3.43-12.06-7.53-17.6-12.26l-2.72-2.72c13.01-7.47 27.27-13.02 42.39-16.25v-53.89z" fill="#ffcbbe"/><path d="m332.592 381.2v22.18c-7.05 1.43-14.34 2.18-21.81 2.18h-18.57c-7.47 0-14.76-.75-21.81-2.18v-22.18z" fill="#ffcbbe"/><path d="m248.334 466.32c-7.2 10.77-13.36 23.68-18.16 38.18h-56.03c13.04-22.05 31.64-40.41 53.87-53.16l2.72 2.72c5.54 4.73 11.44 8.83 17.6 12.26z" fill="#d8cec9"/><g><g><circle cx="376.254" cy="454.054" fill="#ffc250" r="23.831"/><path d="m386.182 475.734c-3.02 1.39-6.38 2.16-9.92 2.16-13.17 0-23.84-10.67-23.84-23.84 0-13.16 10.67-23.83 23.84-23.83 3.54 0 6.9.77 9.92 2.16-8.21 3.75-13.92 12.05-13.92 21.67 0 9.63 5.71 17.92 13.92 21.68z" fill="#e7a52e"/></g><g><circle cx="226.734" cy="454.054" fill="#ffc250" r="23.831"/><path d="m236.663 475.734c-3.02 1.39-6.38 2.16-9.92 2.16-13.17 0-23.84-10.67-23.84-23.84 0-13.16 10.67-23.83 23.84-23.83 3.54 0 6.9.77 9.92 2.16-8.21 3.75-13.92 12.05-13.92 21.67 0 9.63 5.71 17.92 13.92 21.68z" fill="#e7a52e"/></g></g><path d="m426.195 280.628c26.722 0 48.385-21.663 48.385-48.385 0-8.743-2.331-16.936-6.387-24.014 11.545-8.843 18.997-22.762 18.997-38.428 0-22.92-15.943-42.105-37.34-47.103 4.689-7.453 7.411-16.268 7.411-25.723 0-26.722-21.663-48.385-48.385-48.385-5.018 0-9.857.764-14.408 2.182-2.553-24.318-23.118-43.272-48.113-43.272-20.943 0-38.773 13.307-45.509 31.926-6.735-18.619-24.566-31.926-45.508-31.926-24.995 0-45.56 18.954-48.114 43.272-4.551-1.418-9.39-2.182-14.408-2.182-26.722 0-48.385 21.663-48.385 48.385 0 9.455 2.722 18.27 7.411 25.723-21.397 4.999-37.34 24.183-37.34 47.103 0 15.666 7.452 29.585 18.997 38.428-4.056 7.078-6.387 15.271-6.387 24.014 0 26.722 21.663 48.385 48.385 48.385" fill="#365e7d"/><path d="m298.062 33.172c-2.85 5.35-4.73 11.29-5.39 17.6-4.55-1.42-9.39-2.18-14.41-2.18-26.72 0-48.39 21.66-48.39 48.39 0 9.45 2.73 18.27 7.42 25.72-21.4 5-37.34 24.18-37.34 47.1 0 15.67 7.45 29.59 18.99 38.43-4.05 7.08-6.38 15.27-6.38 24.01 0 26.73 21.66 48.39 48.38 48.39h-85.44c-26.72 0-48.38-21.66-48.38-48.39 0-8.74 2.33-16.93 6.38-24.01-11.54-8.84-19-22.76-19-38.43 0-22.92 15.95-42.1 37.34-47.1-4.68-7.45-7.41-16.27-7.41-25.72 0-26.73 21.67-48.39 48.39-48.39 5.02 0 9.85.76 14.41 2.18 2.55-24.32 23.12-43.27 48.11-43.27 18.51 0 34.59 10.399 42.72 25.67z" fill="#2b4d66"/><g fill="#ffcbbe"><circle cx="163.325" cy="272.388" r="39.613"/><circle cx="438.368" cy="272.388" r="39.613"/></g><path d="m418.527 198.97v76.59c0 59.89-48.55 108.44-108.44 108.44h-18.48c-59.89 0-108.44-48.55-108.44-108.44v-76.59c20.37-.01 37.09-15.57 38.94-35.46 4.97 2.29 10.49 3.57 16.32 3.57 16.85 0 31.22-10.65 36.72-25.6 6.87 6 15.86 9.64 25.7 9.64s18.82-3.64 25.7-9.64c5.5 14.95 19.86 25.6 36.72 25.6 5.83 0 11.35-1.28 16.32-3.57 1.85 19.89 18.58 35.46 38.94 35.46z" fill="#ffddce"/><path d="m334.727 381.18c-7.92 1.85-16.17 2.82-24.64 2.82h-18.48c-59.89 0-108.44-48.55-108.44-108.44v-76.59c20.37-.01 37.09-15.57 38.94-35.46 4.97 2.29 10.49 3.57 16.32 3.57 5.75 0 11.2-1.24 16.11-3.46-2.36 9.26-3.61 18.96-3.61 28.96v82.98c0 51.41 35.78 94.47 83.8 105.62z" fill="#ffcbbe"/></g><path d="m74.861 441.252h-5.106c-12.385 0-22.425 10.04-22.425 22.425v18.398c0 12.385 10.04 22.425 22.425 22.425h5.106c12.385 0 22.425-10.04 22.425-22.425v-18.398c0-12.385-10.04-22.425-22.425-22.425z" fill="#ffddce"/><path d="m82.779 503.055c-2.46.93-5.13 1.44-7.92 1.44h-5.11c-12.38 0-22.42-10.04-22.42-22.42v-18.4c0-12.38 10.04-22.42 22.42-22.42h5.11c2.79 0 5.46.51 7.92 1.44-8.47 3.2-14.5 11.39-14.5 20.98v18.4c0 9.59 6.03 17.78 14.5 20.98z" fill="#ffcbbe"/><path d="m103.791 272.95v136.67l-33.158 31.628-29.952-31.628v-136.67l31.55-28.93z" fill="#ede6e3"/><path d="m103.939 409.625h-63.262c-8.734 0-15.813 7.08-15.813 15.813 0 8.734 7.08 15.813 15.813 15.813h63.262c8.734 0 15.813-7.08 15.813-15.813 0-8.733-7.08-15.813-15.813-15.813z" fill="#9d6b6b"/><path d="m59.453 436.618c2.86 2.86 6.82 4.63 11.18 4.63h-29.95c-4.37 0-8.33-1.77-11.19-4.63s-4.63-6.82-4.63-11.18c0-8.73 7.08-15.81 15.82-15.81h29.95c-8.73 0-15.81 7.08-15.81 15.81 0 4.36 1.77 8.32 4.63 11.18z" fill="#8b5e5e"/><path d="m72.231 244.02v165.6h-31.55v-136.67z" fill="#d8cec9"/></g><g><path d="m460.525 118.318c2.785-6.73 4.232-13.969 4.232-21.338 0-30.818-25.067-55.89-55.88-55.89-2.842 0-5.663.212-8.443.633-6.286-24.288-28.233-41.723-54.077-41.723-18.308 0-35.189 9.021-45.513 23.461-10.328-14.441-27.207-23.461-45.507-23.461-25.844 0-47.792 17.435-54.077 41.723-2.78-.421-5.601-.633-8.443-.633-30.818 0-55.89 25.072-55.89 55.89 0 7.357 1.447 14.59 4.231 21.319-20.499 8.576-34.151 28.604-34.151 51.501 0 15.43 6.192 29.812 17.178 40.316-3.001 6.965-4.568 14.506-4.568 22.125 0 5.848.905 11.564 2.663 17.052-3.858 6.829-6.071 14.705-6.071 23.093 0 25.978 21.135 47.113 47.113 47.113 6.784 0 13.342-1.426 19.376-4.158 13.042 35.595 43.065 63.068 80.205 72.562v41.247c-4.358 1.115-8.674 2.434-12.923 3.925-5.738-6.352-14.034-10.351-23.247-10.351-17.276 0-31.332 14.055-31.332 31.332 0 3.671.64 7.194 1.805 10.47-11.619 10.523-21.537 22.661-29.519 36.158-1.371 2.318-1.394 5.194-.059 7.534s3.821 3.784 6.515 3.784h254.7c2.693 0 5.18-1.444 6.515-3.784s1.312-5.215-.059-7.534c-7.983-13.497-17.9-25.635-29.519-36.158 1.165-3.276 1.805-6.799 1.805-10.47 0-17.276-14.055-31.332-31.332-31.332-9.213 0-17.509 3.999-23.247 10.35-4.245-1.49-8.558-2.809-12.913-3.924v-41.595c36.538-9.799 66.014-37.039 78.902-72.216 6.039 2.732 12.595 4.158 19.368 4.158 25.978 0 47.113-21.135 47.113-47.113 0-8.384-2.211-16.257-6.066-23.084 1.761-5.49 2.666-11.209 2.666-17.06 0-7.62-1.567-15.163-4.57-22.128 3.082-2.957 5.814-6.258 8.158-9.863 2.258-3.473 1.273-8.118-2.199-10.376s-8.118-1.274-10.376 2.199c-2.552 3.925-5.731 7.357-9.449 10.201-2.984 2.282-3.819 6.42-1.954 9.681 3.526 6.164 5.39 13.179 5.39 20.286 0 .922-.041 1.838-.101 2.75-7.939-6.089-17.857-9.719-28.612-9.719-4.182 0-8.332.561-12.336 1.646v-27.947c0-4.142-3.358-7.5-7.5-7.5-16.422 0-29.953-12.319-31.472-28.655-.226-2.423-1.613-4.586-3.721-5.802-2.109-1.215-4.675-1.333-6.886-.314-4.15 1.912-8.585 2.882-13.182 2.882-13.2 0-25.128-8.314-29.681-20.69-.852-2.316-2.789-4.064-5.179-4.676-2.391-.612-4.929-.008-6.789 1.614-5.762 5.025-13.138 7.792-20.771 7.792-7.641 0-15.015-2.766-20.766-7.789-1.859-1.624-4.398-2.229-6.791-1.618-2.392.611-4.33 2.36-5.182 4.677-4.553 12.375-16.481 20.69-29.682 20.69-4.596 0-9.031-.97-13.181-2.882-2.211-1.019-4.778-.902-6.886.314s-3.495 3.379-3.721 5.802c-1.519 16.328-15.05 28.647-31.476 28.655-4.141.002-7.497 3.359-7.497 7.5v27.948c-4.007-1.085-8.159-1.647-12.345-1.647-10.752 0-20.667 3.628-28.605 9.713-.06-.91-.101-1.824-.101-2.744 0-7.107 1.864-14.122 5.391-20.286 1.864-3.259 1.031-7.395-1.95-9.678-10.201-7.813-16.051-19.651-16.051-32.476 0-19.092 12.972-35.457 31.546-39.797 2.361-.552 4.31-2.211 5.231-4.454s.701-4.793-.59-6.845c-4.1-6.513-6.267-14.025-6.267-21.724 0-22.547 18.343-40.89 40.89-40.89 4.168 0 8.265.619 12.176 1.839 2.146.669 4.479.342 6.356-.894 1.878-1.236 3.103-3.248 3.337-5.484 2.189-20.837 19.665-36.551 40.655-36.551 17.161 0 32.616 10.844 38.458 26.983 1.075 2.97 3.896 4.948 7.054 4.947s5.978-1.98 7.051-4.951c5.833-16.137 21.288-26.979 38.457-26.979 20.99 0 38.466 15.714 40.651 36.552.234 2.236 1.459 4.248 3.337 5.484 1.878 1.235 4.21 1.563 6.356.894 3.912-1.22 8.008-1.839 12.176-1.839 22.541 0 40.88 18.343 40.88 40.89 0 7.71-2.164 15.222-6.257 21.724-1.292 2.052-1.512 4.602-.59 6.845.921 2.243 2.87 3.902 5.23 4.454 17.729 4.143 30.684 19.735 31.505 37.915.187 4.138 3.689 7.352 7.83 7.154 4.138-.187 7.341-3.692 7.154-7.83-.978-21.678-14.569-40.662-34.104-48.925zm-233.791 319.405c9.005 0 16.332 7.326 16.332 16.332s-7.326 16.332-16.332 16.332-16.332-7.326-16.332-16.332 7.327-16.332 16.332-16.332zm188.205 59.277h-226.89c5.209-7.14 11.087-13.762 17.568-19.822 5.574 5.095 12.988 8.208 21.117 8.208 9.01 0 17.138-3.828 22.859-9.936 16.281 8.108 34.089 12.173 51.902 12.173 17.812 0 35.62-4.065 51.901-12.173 5.721 6.108 13.849 9.936 22.859 9.936 8.129 0 15.543-3.113 21.117-8.208 6.48 6.06 12.358 12.682 17.567 19.822zm-38.685-59.277c9.005 0 16.332 7.326 16.332 16.332s-7.326 16.332-16.332 16.332-16.332-7.326-16.332-16.332 7.327-16.332 16.332-16.332zm-45.231 4.701c4.997 1.07 9.96 2.431 14.831 4.051-.606 2.428-.932 4.966-.932 7.58 0 2.875.397 5.658 1.126 8.305-28.006 13.692-61.103 13.692-89.109 0 .729-2.647 1.126-5.43 1.126-8.306 0-2.613-.327-5.151-.932-7.58 4.874-1.621 9.84-2.982 14.839-4.051 3.459-.74 5.932-3.796 5.932-7.334v-44.404c4.496.532 9.067.814 13.704.814h18.48c5.085 0 10.093-.332 15.006-.97v44.56c0 3.538 2.471 6.594 5.929 7.335zm107.341-202.153c17.707 0 32.113 14.406 32.113 32.113s-14.406 32.113-32.113 32.113c-5.336 0-10.472-1.301-15.095-3.774 1.646-7.409 2.582-15.082 2.73-22.945 2.375-3.258 6.022-5.135 11.098-5.716 5.011-.571 9.393.417 9.541.451 4.012.964 8.056-1.491 9.041-5.504.987-4.023-1.473-8.084-5.496-9.071-.671-.165-6.771-1.587-14.228-.839-3.609.363-6.924 1.176-9.928 2.4v-16.766c3.891-1.618 8.089-2.462 12.337-2.462zm-247.697-34.396c17.682-2.825 32.053-15.478 37.138-32.512 3.456.809 7.006 1.217 10.622 1.217 16.232 0 31.16-8.531 39.562-21.953 6.93 3.903 14.794 5.993 22.858 5.993 8.059 0 15.922-2.09 22.856-5.996 8.401 13.424 23.33 21.956 39.563 21.956 3.616 0 7.165-.408 10.622-1.217 5.084 17.042 19.457 29.695 37.139 32.515v69.682c0 55.659-45.281 100.94-100.94 100.94h-18.48c-55.659 0-100.94-45.281-100.94-100.94zm-27.345 34.396c4.253 0 8.453.844 12.345 2.46v16.768c-3.004-1.225-6.321-2.038-9.93-2.401-7.456-.748-13.556.674-14.228.839-4.009.984-6.451 5.018-5.487 9.032.965 4.014 5.008 6.491 9.028 5.544.044-.01 4.473-1.031 9.545-.452 5.077.581 8.725 2.459 11.1 5.719.148 7.862 1.084 15.533 2.73 22.941-4.616 2.474-9.755 3.775-15.103 3.775-17.708 0-32.113-14.406-32.113-32.113 0-17.706 14.406-32.112 32.113-32.112z"/><path d="m244.951 232.622c-7.236 0-13.123 8.065-13.123 17.979s5.887 17.979 13.123 17.979 13.123-8.065 13.123-17.979-5.887-17.979-13.123-17.979z"/><path d="m356.742 232.622c-7.236 0-13.123 8.065-13.123 17.979s5.887 17.979 13.123 17.979 13.123-8.065 13.123-17.979-5.887-17.979-13.123-17.979z"/><path d="m257.107 225.819c4.142 0 7.5-3.358 7.5-7.5s-3.358-7.5-7.5-7.5c-8.416 0-15.262-6.846-15.262-15.262 0-4.142-3.358-7.5-7.5-7.5s-7.5 3.358-7.5 7.5c.001 16.687 13.576 30.262 30.262 30.262z"/><path d="m345.716 225.819c16.687 0 30.262-13.575 30.262-30.262 0-4.142-3.358-7.5-7.5-7.5s-7.5 3.358-7.5 7.5c0 8.416-6.846 15.262-15.262 15.262-4.142 0-7.5 3.358-7.5 7.5s3.358 7.5 7.5 7.5z"/><path d="m300.847 303.247c13.866 0 26.301-9.265 30.24-22.531 1.179-3.971-1.084-8.146-5.055-9.325-3.972-1.178-8.146 1.084-9.325 5.055-2.063 6.948-8.585 11.801-15.86 11.801-7.267 0-13.791-4.856-15.863-11.809-1.184-3.969-5.361-6.228-9.331-5.044-3.969 1.184-6.228 5.361-5.044 9.331 3.953 13.26 16.388 22.522 30.238 22.522z"/><path d="m111.287 403.318v-35.558c0-4.142-3.358-7.5-7.5-7.5s-7.5 3.358-7.5 7.5v34.36h-16.555v-105.226c0-4.142-3.358-7.5-7.5-7.5s-7.5 3.358-7.5 7.5v105.226h-16.555v-125.87l24.059-22.055 24.051 22.054v61.511c0 4.142 3.358 7.5 7.5 7.5s7.5-3.358 7.5-7.5v-64.81c0-2.102-.882-4.107-2.431-5.528l-31.55-28.93c-2.868-2.629-7.269-2.629-10.137-.001l-31.56 28.93c-1.55 1.421-2.432 3.426-2.432 5.529v130.42c-9.185 3.13-15.813 11.837-15.813 22.069 0 12.855 10.458 23.313 23.313 23.313h3.157c-2.542 4.397-4.004 9.492-4.004 14.925v18.398c0 16.501 13.424 29.925 29.925 29.925h5.106c16.501 0 29.925-13.424 29.925-29.925v-18.398c0-5.433-1.463-10.528-4.004-14.925h3.157c12.855 0 23.313-10.458 23.313-23.313 0-10.288-6.701-19.035-15.965-22.121zm-21.501 60.359v18.398c0 8.23-6.695 14.925-14.925 14.925h-5.106c-8.23 0-14.925-6.695-14.925-14.925v-18.398c0-8.229 6.695-14.925 14.925-14.925h5.106c8.23 0 14.925 6.695 14.925 14.925zm14.152-29.925h-63.261c-4.584 0-8.313-3.729-8.313-8.313s3.729-8.313 8.313-8.313h63.262c4.584 0 8.313 3.729 8.313 8.313s-3.73 8.313-8.314 8.313z"/></g></g></svg>