<?xml version="1.0"?>
<svg width="512" height="512" xmlns="http://www.w3.org/2000/svg" xmlns:svg="http://www.w3.org/2000/svg">
 <g class="layer">
  <title>Layer 1</title>
  <g id="svg_1">
   <g id="svg_2">
    <path d="m62.796,278.72c-6.4,-1.43 -12.12,-4.66 -16.6,-9.14c-6.15,-6.16 -9.96,-14.66 -9.96,-24.05c0,-18.78 15.22,-34 34,-34l22.17,0c-9.39,0 -17.89,-3.81 -24.04,-9.96c-6.16,-6.16 -9.96,-14.66 -9.96,-24.05c0,-18.78 15.22,-34 34,-34l38.42,0c-9.39,0 -17.89,-3.81 -24.04,-9.96c-6.16,-6.16 -9.96,-14.66 -9.96,-24.05c0,-18.78 15.22,-34 34,-34l52.91,0c-9.39,0 -17.89,-3.81 -24.05,-9.96c-6.15,-6.16 -9.96,-14.66 -9.96,-24.05c0,-18.78 15.23,-34 34.01,-34l112.79,0c9.39,0 17.89,3.8 24.05,9.96c6.15,6.15 9.96,14.65 9.96,24.04c0,18.78 -15.23,34.01 -34.01,34.01l52.91,0c9.39,0 17.89,3.81 24.04,9.96s9.96,14.65 9.96,24.04c0,18.78 -15.22,34.01 -34,34.01l38.42,0c9.39,0 17.89,3.8 24.04,9.96c6.15,6.15 9.96,14.65 9.96,24.04c0,18.78 -15.22,34.01 -34,34.01l22.17,0c9.39,0 17.89,3.81 24.04,9.96c6.16,6.15 9.96,14.65 9.96,24.04c0,16.23 -11.36,29.81 -26.57,33.19" fill="#ede6e3" id="svg_3"/>
    <path d="m244.826,65.55c6.15,6.15 14.65,9.96 24.04,9.96l-52.91,0c-18.78,0 -34,15.22 -34,34c0,9.39 3.81,17.89 9.96,24.05c6.15,6.15 14.65,9.96 24.04,9.96l-38.42,0c-18.78,0 -34,15.22 -34,34c0,9.39 3.81,17.89 9.96,24.05c6.15,6.15 14.65,9.96 24.04,9.96l-22.16,0c-18.78,0 -34.01,15.22 -34.01,34c0,9.39 3.81,17.89 9.96,24.04c6.16,6.15 14.66,9.96 24.05,9.96l-85.14,0c-9.39,0 -17.89,-3.81 -24.04,-9.96s-9.96,-14.65 -9.96,-24.04c0,-18.78 15.22,-34 34,-34l22.17,0c-9.39,0 -17.89,-3.81 -24.04,-9.96c-6.16,-6.16 -9.96,-14.66 -9.96,-24.05c0,-18.78 15.22,-34 34,-34l38.42,0c-9.39,0 -17.89,-3.81 -24.04,-9.96c-6.16,-6.16 -9.96,-14.66 -9.96,-24.05c0,-18.78 15.22,-34 34,-34l52.91,0c-9.39,0 -17.89,-3.81 -24.05,-9.96c-6.15,-6.16 -9.96,-14.66 -9.96,-24.05c0,-18.78 15.23,-34 34.01,-34l85.13,0c-18.78,0 -34,15.22 -34,34c0,9.39 3.8,17.89 9.96,24.05z" fill="#d8cec9" id="svg_4"/>
    <g fill="#ffcbbe" id="svg_5" transform="matrix(1, 0, 0, 1, 0, 0)">
     <circle cx="101.906" cy="271.2" fill="#280b06" id="svg_6" r="39.816"/>
     <circle cx="378.357" cy="271.2" fill="#280b06" id="svg_7" r="39.816"/>
    </g>
    <path d="m367.476,504.5l-64.799,0l-42.117,-12.42l-91.753,12.42l-56.031,0c20.56,-34.75 54.92,-60.36 95.56,-69.26c0.23,-0.05 0.47,-0.1 0.7,-0.15l0,-53.89l62.19,0l0,53.89c0.24,0.05 0.48,0.1 0.71,0.16c7.616,1.669 15.012,3.925 22.139,6.718c3.761,1.474 -2.543,13.088 1.061,14.854c3.224,1.58 16.372,-6.715 19.459,-4.912c21.79,12.727 40.031,30.871 52.881,52.59z" fill="#331106" id="svg_8"/>
    <path d="m317.296,453.52l0,0.01l-14.62,50.97l-133.87,0l125.4,-62.48c8.071,3.17 15.79,7.03 23.09,11.5z" fill="#ede6e3" id="svg_9"/>
    <g fill="#ffcbbe" id="svg_10">
     <path d="m271.936,435.25c-3.34,2.59 -7.53,4.14 -12.08,4.14l-0.01,0c-10.88,0 -19.71,-8.83 -19.71,-19.72c0,10.89 -8.83,19.72 -19.71,19.72l-0.01,0c-4.55,0 -8.74,-1.55 -12.08,-4.15c0.23,-0.05 0.47,-0.1 0.7,-0.15l0,-53.89l62.19,0l0,53.89c0.24,0.05 0.48,0.1 0.71,0.16z" fill="#280b06" id="svg_11"/>
     <path d="m222.718,381.2l0,53.89c-22.93,8.76 -42.33,34.46 -53.91,69.41l-56.03,0c20.68,-34.95 55.32,-60.65 96.26,-69.41l0,-53.89l13.68,0z" fill="#280b06" id="svg_12"/>
     <path d="m271.228,381.2l0,24.61c-7.05,1.43 -14.34,2.18 -21.81,2.18l-18.57,0c-7.47,0 -14.76,-0.75 -21.81,-2.18l0,-24.61l62.19,0z" fill="#280b06" id="svg_13"/>
    </g>
    <path d="m121.846,177.78l0,180.972c0,10.888 8.827,19.715 19.715,19.715c10.888,0 19.715,-8.827 19.715,-19.715l0,22.012c0,10.888 8.827,19.715 19.715,19.715c10.888,0 19.715,-8.827 19.715,-19.715l0,14.299c0,10.888 8.827,19.715 19.715,19.715c10.888,0 19.715,-8.827 19.715,-19.715c0,10.888 8.827,19.715 19.715,19.715c10.888,0 19.715,-8.827 19.715,-19.715l0,-14.299c0,10.888 8.827,19.715 19.715,19.715c10.888,0 19.715,-8.827 19.715,-19.715l0,-22.012c0,10.888 8.827,19.715 19.715,19.715c10.888,0 19.715,-8.827 19.715,-19.715l0,-180.972" fill="#ede6e3" id="svg_14"/>
    <path d="m187.021,384.787c0,4.8 1.71,9.18 4.56,12.6c-3.06,1.96 -6.69,3.09 -10.59,3.09c-10.89,0 -19.72,-8.83 -19.72,-19.72l0,-22.01c0,5.45 -2.21,10.37 -5.77,13.94c-3.57,3.57 -8.5,5.78 -13.94,5.78c-10.89,0 -19.72,-8.83 -19.72,-19.72l0,-180.97l65.18,0l0,207.01z" fill="#d8cec9" id="svg_15"/>
    <path d="m334.216,178.47l0,83.83c0,21.01 -21.82,34.9 -40.85,26.02c-16.87,-7.87 -35.05,-11.8 -53.23,-11.8c-18.14,0 -36.27,3.91 -53.11,11.74c-0.04,0.02 -0.08,0.04 -0.12,0.06l-0.01,0c-19.03,8.88 -40.85,-5.01 -40.85,-26.02l0,-83.83c14.41,-0.9 28.2,-4.12 40.98,-9.29c20.91,-8.45 39.15,-22.11 53.11,-39.39c22.49,27.84 56.11,46.31 94.08,48.68z" fill="#331106" id="svg_16" transform="matrix(1, 0, 0, 1, 0, 0)"/>
    <path d="m187.026,169.18l0,119.08c-0.04,0.02 -0.08,0.04 -0.12,0.06l-0.01,0c-19.03,8.88 -40.85,-5.01 -40.85,-26.02l0,-83.83c14.41,-0.9 28.2,-4.12 40.98,-9.29z" fill="#280b06" id="svg_17" transform="matrix(1, 0, 0, 1, 0, 0)"/>
    <g id="svg_18">
     <path d="m403.691,331.885l-29.207,82.656c-2.161,6.115 2.375,12.528 8.86,12.528l34.259,0l-11.048,52.65c-1.371,6.536 7.063,10.402 11.119,5.097l52.396,-68.519c4.728,-6.183 0.319,-15.105 -7.465,-15.105l-27.455,0l39.506,-63.035c3.03,-4.834 -0.445,-11.113 -6.15,-11.113l-57.971,0c-3.077,0 -5.819,1.94 -6.844,4.841z" fill="#ffc250" id="svg_19"/>
     <g fill="#e7a52e" id="svg_20">
      <path d="m412.555,479.719l11.047,-52.651l3.257,0c2.892,0 5.053,2.661 4.459,5.491l-9.895,47.159c-0.497,2.367 -10.177,6.253 -8.868,0.001z" id="svg_21"/>
      <path d="m430.604,327.045c-3.076,0 -5.82,1.938 -6.846,4.84l-29.208,82.655c-2.16,6.114 2.377,12.527 8.861,12.527l-20.066,0c-6.485,0 -11.022,-6.414 -8.861,-12.527l29.208,-82.655c1.025,-2.902 3.766,-4.84 6.843,-4.84l20.069,0z" id="svg_22"/>
     </g>
    </g>
   </g>
   <g id="svg_23">
    <path d="m278.726,429.15l0,-14.499c0.118,-0.114 0.239,-0.223 0.355,-0.339c2.904,-2.896 5.073,-6.335 6.411,-10.088c4.045,2.387 8.757,3.757 13.783,3.757c7.266,0 14.1,-2.833 19.236,-7.969c4.611,-4.598 7.367,-10.561 7.892,-16.985c3.696,1.882 7.878,2.944 12.302,2.944c7.28,0 14.116,-2.835 19.243,-7.977c4.364,-4.364 7.135,-10.119 7.802,-16.206c0.452,-4.117 -2.52,-7.821 -6.638,-8.273c-4.111,-0.451 -7.821,2.52 -8.272,6.638c-0.301,2.745 -1.511,5.247 -3.505,7.241c-2.3,2.306 -5.364,3.576 -8.629,3.576c-6.732,0 -12.21,-5.482 -12.21,-12.22c0,-4.142 -3.358,-7.5 -7.5,-7.5s-7.5,3.358 -7.5,7.5l0,22.01c0,3.265 -1.27,6.33 -3.584,8.637c-2.31,2.311 -5.377,3.583 -8.636,3.583c-6.732,0 -12.21,-5.482 -12.21,-12.22c0,-4.142 -3.358,-7.5 -7.5,-7.5s-7.5,3.358 -7.5,7.5l0,14.3c0,3.265 -1.27,6.33 -3.591,8.645c-2.299,2.306 -5.363,3.575 -8.629,3.575c-6.732,0 -12.21,-5.482 -12.21,-12.22c0,-4.142 -3.358,-7.5 -7.5,-7.5s-7.5,3.358 -7.5,7.5c0,3.265 -1.27,6.33 -3.583,8.636c-2.311,2.311 -5.378,3.583 -8.637,3.583c-6.732,0 -12.21,-5.482 -12.21,-12.22l0,-14.3c0,-4.142 -3.358,-7.5 -7.5,-7.5s-7.5,3.358 -7.5,7.5c0,3.265 -1.27,6.33 -3.591,8.644c-2.3,2.306 -5.364,3.576 -8.629,3.576c-6.732,0 -12.21,-5.482 -12.21,-12.22l0,-22.01c0,-4.142 -3.358,-7.5 -7.5,-7.5s-7.5,3.358 -7.5,7.5c0,3.259 -1.272,6.326 -3.583,8.636c-2.311,2.311 -5.378,3.583 -8.637,3.583c-6.732,0 -12.21,-5.482 -12.21,-12.22l0,-172.768c2.789,0.166 5.591,0.25 8.39,0.25c0.271,0 0.54,-0.009 0.81,-0.01l0,76.08c0,12.442 6.265,23.861 16.759,30.544c5.933,3.778 12.662,5.692 19.43,5.692c5.117,0 10.256,-1.094 15.084,-3.304c0.086,-0.036 0.172,-0.075 0.258,-0.115c15.783,-7.363 32.625,-11.097 50.059,-11.097c17.433,0 34.275,3.734 50.059,11.096c11.272,5.261 24.268,4.411 34.762,-2.272s16.759,-18.102 16.759,-30.544l0,-76.081c0.27,0.002 0.539,0.01 0.81,0.01c2.802,0 5.608,-0.084 8.4,-0.25l0,145.021c0,4.142 3.358,7.5 7.5,7.5s7.5,-3.358 7.5,-7.5l0,-14.158c4.037,1.098 8.218,1.668 12.43,1.668c21.389,0 39.499,-14.272 45.331,-33.789c16.38,-5.732 27.839,-21.509 27.839,-39.191c0,-11.096 -4.319,-21.519 -12.157,-29.343c-5.691,-5.692 -12.743,-9.527 -20.422,-11.201c6.475,-7.324 10.409,-16.944 10.409,-27.466c0,-11.083 -4.317,-21.504 -12.152,-29.339c-7.83,-7.842 -18.252,-12.161 -29.348,-12.161l-6.509,0c5.985,-7.196 9.589,-16.44 9.589,-26.51c0,-11.083 -4.317,-21.504 -12.157,-29.344c-7.84,-7.839 -18.261,-12.156 -29.343,-12.156l-20.991,0c5.986,-7.196 9.591,-16.44 9.591,-26.51c0,-11.083 -4.317,-21.504 -12.157,-29.343c-7.839,-7.84 -18.263,-12.157 -29.353,-12.157l-112.79,0c-22.889,0 -41.51,18.617 -41.51,41.5c0,9.786 3.369,19.063 9.564,26.51l-20.964,0c-4.282,0 -8.499,0.65 -12.532,1.933c-3.947,1.255 -6.13,5.472 -4.875,9.42s5.475,6.13 9.42,4.875c2.562,-0.814 5.249,-1.228 7.987,-1.228l52.91,0c4.142,0 7.5,-3.358 7.5,-7.5s-3.358,-7.5 -7.5,-7.5c-7.075,0 -13.734,-2.759 -18.742,-7.759c-5.009,-5.017 -7.768,-11.676 -7.768,-18.751c0,-14.612 11.892,-26.5 26.51,-26.5l112.79,0c7.083,0 13.74,2.757 18.747,7.763c5.006,5.006 7.763,11.66 7.763,18.737c0,14.618 -11.892,26.51 -26.51,26.51c-4.142,0 -7.5,3.358 -7.5,7.5s3.358,7.5 7.5,7.5l52.91,0c7.076,0 13.73,2.757 18.737,7.763c5.006,5.006 7.763,11.661 7.763,18.737c0,14.618 -11.888,26.51 -26.5,26.51c-4.142,0 -7.5,3.358 -7.5,7.5s3.358,7.5 7.5,7.5l38.42,0c7.084,0 13.737,2.755 18.737,7.763c5.006,5.006 7.763,11.66 7.763,18.737c0,14.618 -11.888,26.51 -26.5,26.51c-4.142,0 -7.5,3.358 -7.5,7.5s3.358,7.5 7.5,7.5l22.17,0c7.076,0 13.73,2.757 18.741,7.768c5.003,4.995 7.759,11.648 7.759,18.732c0,8.673 -4.321,16.616 -11.055,21.498c-2.12,-24.144 -22.435,-43.149 -47.116,-43.149c-4.214,0 -8.395,0.569 -12.43,1.665l0,-47.764c0,-0.036 -0.01,-0.068 -0.012,-0.103c-0.004,-0.264 -0.02,-0.529 -0.053,-0.797c-0.498,-4.112 -4.225,-7.045 -8.346,-6.546c-4.916,0.594 -9.959,0.896 -14.99,0.896c-37.662,0 -72.855,-16.822 -96.556,-46.154c-1.423,-1.762 -3.567,-2.786 -5.833,-2.786c0,0 0,0 -0.001,0c-2.265,0 -4.409,1.024 -5.833,2.785c-23.712,29.332 -58.909,46.155 -96.568,46.155c-5.03,0 -10.073,-0.301 -14.989,-0.896c-4.116,-0.496 -7.849,2.433 -8.346,6.546c-0.035,0.292 -0.049,0.58 -0.05,0.867c0,0.011 -0.004,0.022 -0.004,0.033l0,47.768c-4.04,-1.099 -8.224,-1.669 -12.44,-1.669c-24.693,0 -45.017,19.015 -47.128,43.17c-1.156,-0.833 -2.256,-1.75 -3.275,-2.769c-5.009,-5.018 -7.768,-11.677 -7.768,-18.751c0,-14.612 11.888,-26.5 26.5,-26.5l22.17,0c4.142,0 7.5,-3.358 7.5,-7.5s-3.358,-7.5 -7.5,-7.5c-7.076,0 -13.73,-2.757 -18.736,-7.763c-5.006,-5.007 -7.764,-11.665 -7.764,-18.747c0,-14.612 11.888,-26.5 26.5,-26.5l38.42,0c4.142,0 7.5,-3.358 7.5,-7.5s-3.358,-7.5 -7.5,-7.5c-7.076,0 -13.73,-2.757 -18.736,-7.763c-5.006,-5.007 -7.764,-11.665 -7.764,-18.747c0,-3.206 0.563,-6.335 1.673,-9.298c1.454,-3.879 -0.513,-8.201 -4.391,-9.655c-3.877,-1.454 -8.202,0.513 -9.655,4.392c-1.744,4.653 -2.627,9.552 -2.627,14.562c0,9.796 3.37,19.074 9.561,26.51l-6.48,0c-22.883,0 -41.5,18.617 -41.5,41.5c0,10.227 3.672,19.889 10.393,27.479c-18.603,4.098 -32.562,20.715 -32.562,40.531c0,11.076 4.316,21.499 12.157,29.353c4.444,4.444 9.799,7.772 15.667,9.82c5.828,19.527 23.946,33.807 45.346,33.807c4.222,0 8.406,-0.569 12.44,-1.668l0,41.908c0,15.009 12.207,27.22 27.21,27.22c4.349,0 8.544,-1.015 12.314,-2.934c1.16,13.948 12.878,24.944 27.116,24.944c4.94,0 9.676,-1.305 13.809,-3.749c1.427,3.978 3.759,7.528 6.741,10.407l0,14.512c-39.713,10.168 -74.177,35.977 -95.214,71.531c-1.372,2.318 -1.395,5.194 -0.061,7.534s3.821,3.785 6.515,3.785l254.7,0c2.694,0 5.181,-1.445 6.515,-3.785s1.312,-5.216 -0.061,-7.534c-21.037,-35.556 -55.496,-61.365 -95.203,-71.531zm99.63,-190.27c17.816,0 32.31,14.499 32.31,32.32c0,17.816 -14.494,32.31 -32.31,32.31c-4.275,0 -8.504,-0.853 -12.43,-2.485l0,-24.48c2.395,-3.255 6.061,-5.129 11.151,-5.711c5.043,-0.577 9.457,0.421 9.602,0.454c4.015,0.967 8.056,-1.491 9.041,-5.504c0.987,-4.023 -1.473,-8.084 -5.496,-9.072c-0.673,-0.166 -6.799,-1.594 -14.287,-0.843c-3.64,0.366 -6.983,1.188 -10.01,2.427l0,-16.936c3.92,-1.628 8.148,-2.48 12.429,-2.48zm-138.221,-97.606c22.757,24.788 53.365,40.301 86.581,44.057l0,76.969c0,7.289 -3.67,13.977 -9.816,17.892c-6.148,3.915 -13.759,4.413 -20.362,1.331c-17.534,-8.18 -37.037,-12.503 -56.401,-12.503c-19.279,0 -38.698,4.286 -56.171,12.396c-0.081,0.034 -0.161,0.07 -0.241,0.107c-6.603,3.081 -14.215,2.583 -20.362,-1.332s-9.817,-10.604 -9.817,-17.892l0,-76.97c33.212,-3.755 63.824,-19.268 86.589,-44.055zm-138.229,162.236c-17.821,0 -32.32,-14.494 -32.32,-32.31c0,-17.821 14.499,-32.32 32.32,-32.32c4.28,0 8.512,0.853 12.44,2.485l0,16.936c-3.029,-1.241 -6.375,-2.065 -10.019,-2.431c-7.489,-0.752 -13.614,0.677 -14.288,0.843c-4.009,0.984 -6.452,5.019 -5.487,9.032s5.006,6.488 9.028,5.543c0.044,-0.01 4.503,-1.039 9.605,-0.455c5.096,0.583 8.765,2.461 11.16,5.723l0,24.461c-3.914,1.638 -8.147,2.493 -12.439,2.493zm206.566,153.56l-11.447,39.93l-96.345,0l93.827,-46.747c4.783,2.016 9.447,4.291 13.965,6.817zm-97.866,-14.646c3.458,-0.74 5.93,-3.797 5.93,-7.334l0,-13.1c1.269,0.182 2.562,0.29 3.88,0.29c7.265,0 14.099,-2.833 19.236,-7.969c0.165,-0.165 0.328,-0.331 0.488,-0.499c4.96,5.213 11.96,8.468 19.706,8.468c1.311,0 2.606,-0.095 3.88,-0.276l0,13.086c0,3.537 2.472,6.594 5.93,7.334c1.58,0.338 3.148,0.712 4.711,1.105l-107.324,53.471l-40.353,0c20.274,-27.753 50.213,-47.363 83.916,-54.576zm102.023,54.576l9.046,-31.552c12.165,8.698 22.964,19.335 31.888,31.552l-40.934,0z" id="svg_24"/>
    <path d="m183.95,231.231c-7.272,0 -13.189,8.106 -13.189,18.07s5.917,18.07 13.189,18.07s13.189,-8.106 13.189,-18.07c0.001,-9.964 -5.916,-18.07 -13.189,-18.07z" id="svg_25"/>
    <ellipse cx="296.313" cy="249.301" id="svg_26" rx="13.189" ry="18.07"/>
    <path d="m173.856,205.268c5.997,-5.997 15.753,-5.996 21.749,0c1.464,1.464 3.384,2.197 5.303,2.197s3.839,-0.732 5.303,-2.197c2.929,-2.929 2.929,-7.678 0,-10.607c-11.844,-11.844 -31.116,-11.845 -42.961,0c-2.929,2.929 -2.929,7.678 0,10.607c2.927,2.929 7.676,2.928 10.606,0z" id="svg_27"/>
    <path d="m285.796,205.268c5.996,-5.996 15.752,-5.996 21.748,0c1.464,1.464 3.384,2.197 5.303,2.197s3.839,-0.732 5.303,-2.197c2.929,-2.929 2.929,-7.678 0,-10.607c-11.845,-11.844 -31.116,-11.844 -42.961,0c-2.929,2.929 -2.929,7.678 0,10.607c2.928,2.929 7.677,2.928 10.607,0z" id="svg_28"/>
    <path d="m256.11,297.967c-2.078,7 -8.649,11.888 -15.979,11.888c-7.321,0 -13.892,-4.892 -15.98,-11.897c-1.184,-3.969 -5.361,-6.228 -9.331,-5.044c-3.969,1.183 -6.228,5.361 -5.044,9.33c3.969,13.313 16.452,22.611 30.355,22.611c13.92,0 26.404,-9.301 30.358,-22.619c1.179,-3.971 -1.084,-8.146 -5.055,-9.324c-3.97,-1.178 -8.145,1.084 -9.324,5.055z" id="svg_29"/>
    <path d="m481.419,327.156c-2.599,-4.695 -7.547,-7.612 -12.913,-7.612l-57.971,0c-6.243,0 -11.835,3.955 -13.915,9.841l-29.207,82.656c-1.825,5.163 -1.026,10.915 2.136,15.386s8.319,7.14 13.795,7.14l25.021,0l-9.151,43.611c-1.33,6.337 1.853,12.648 7.739,15.346c1.868,0.856 3.833,1.269 5.772,1.269c4.172,0 8.221,-1.91 10.906,-5.422l52.396,-68.519c3.934,-5.144 4.595,-11.945 1.727,-17.75s-8.673,-9.411 -15.148,-9.411l-13.903,0l32.31,-51.552c2.848,-4.546 3.005,-10.288 0.406,-14.983zm-52.623,70.053c-1.449,2.312 -1.528,5.228 -0.207,7.615s3.834,3.868 6.562,3.868l27.455,0c0.974,0 1.462,0.574 1.701,1.056c0.238,0.482 0.398,1.219 -0.194,1.993l-49.105,64.216l9.936,-47.349c0.464,-2.211 -0.094,-4.514 -1.518,-6.268s-3.563,-2.772 -5.822,-2.772l-34.259,0c-0.812,0 -1.29,-0.436 -1.548,-0.802c-0.259,-0.366 -0.51,-0.962 -0.24,-1.728l29.15,-82.495l57.364,0l-39.275,62.666z" id="svg_30"/>
   </g>
  </g>
 </g>

</svg>