<svg xmlns="http://www.w3.org/2000/svg" xmlns:xlink="http://www.w3.org/1999/xlink" width="1920" height="1080" viewBox="0 0 1920 1080"><defs><style>.a,.ac,.n,.o,.s,.w{fill:#fff;}.a,.g{stroke:#a2a2a2;}.b,.g{fill:none;}.c{clip-path:url(#i);}.d{fill:url(#a);}.e{clip-path:url(#b);}.f{fill:#e3e3e3;}.h{fill:#707070;}.aa,.h,.z{font-size:16px;}.h,.s,.t,.z{font-family:SegoeUI, Segoe UI;}.i{clip-path:url(#c);}.j{fill:#009b3a;}.k{fill:#fedf00;}.l{fill:#002776;}.m{clip-path:url(#d);}.o{stroke:#707070;}.p{clip-path:url(#g);}.q{fill:#346e93;}.r{fill:#ba2027;}.r,.v{stroke:#fff;stroke-width:2px;}.s,.t,.w{font-size:20px;}.t{fill:#2e2e2e;}.u{fill:#d6d6d6;}.v,.x{fill:#0d4a71;}.aa,.w{font-family:SegoeUI-Bold, Segoe UI;font-weight:700;}.y{fill:#0d7114;}.aa,.z{fill:#545454;}.ab,.ac{stroke:none;}.ad{filter:url(#e);}</style><pattern id="a" width="1" height="1" viewBox="371.069 -409.685 3320.705 1736.114"><image preserveAspectRatio="xMidYMid slice" width="1632" height="1475.254" xlink:href="Case%201%20-%20Start-image2.png"/></pattern><clipPath id="b"><rect class="b" width="1920" height="52"/></clipPath><clipPath id="c"><rect class="a" width="48" height="32" rx="16" transform="translate(1625 10.217)"/></clipPath><clipPath id="d"><ellipse cx="8.4" cy="8.4" rx="8.4" ry="8.4"/></clipPath><filter id="e" x="650" y="194" width="620" height="793" filterUnits="userSpaceOnUse"><feOffset dy="3" input="SourceAlpha"/><feGaussianBlur stdDeviation="3" result="f"/><feFlood flood-opacity="0.161"/><feComposite operator="in" in2="f"/><feComposite in="SourceGraphic"/></filter><clipPath id="g"><rect class="b" width="50" height="50.694"/></clipPath><clipPath id="i"><rect width="1920" height="1080"/></clipPath></defs><g id="h" class="c"><rect class="n" width="1920" height="1080"/><g transform="translate(-252 -155)"><image width="1632" height="853.234" transform="translate(396 316)" xlink:href="Case%201%20-%20Start-image.png"/><rect class="d" width="1632" height="853.234" rx="23" transform="translate(396 316)"/></g><g class="e"><rect class="f" width="1920" height="50"/><g class="g" transform="translate(1518 10)"><rect class="ab" width="92" height="31.566" rx="15.783"/><rect class="b" x="0.5" y="0.5" width="91" height="30.566" rx="15.283"/></g><text class="h" transform="translate(1543 31)"><tspan x="0" y="0">Fulano</tspan></text><g class="i"><g transform="translate(21699.588 8140.558)"><rect class="j" width="48.001" height="33.6" transform="translate(-20074.588 -8131.483)"/><path class="k" d="M-1743-1100.28l19.921,12.72,19.92-12.72-19.92-12.72Z" transform="translate(-18327.506 -7014.403)"/><ellipse class="l" cx="8.4" cy="8.4" rx="8.4" ry="8.4" transform="translate(-20058.783 -8123.083)"/><g class="m" transform="translate(-20058.783 -8123.083)"><path class="n" d="M-2205-294.6a20.4,20.4,0,0,1,20.4-20.4,20.4,20.4,0,0,1,20.4,20.4h-1.2a19.2,19.2,0,0,0-19.2-19.2,19.2,19.2,0,0,0-19.2,19.2Z" transform="translate(2188.2 319.8)"/></g></g></g><g class="g" transform="translate(1625 10.217)"><rect class="ab" width="48" height="32" rx="14"/><rect class="b" x="0.5" y="0.5" width="47" height="31" rx="13.5"/></g></g><g class="ad" transform="matrix(1, 0, 0, 1, 0, 0)"><g class="o" transform="translate(659 200)"><rect class="ab" width="602" height="775" rx="20"/><rect class="b" x="0.5" y="0.5" width="601" height="774" rx="19.5"/></g></g><g class="p" transform="translate(66.5 161.052)"><ellipse class="q" cx="25" cy="25.347" rx="25" ry="25.347"/><path class="n" d="M848.3,178.118H827.722a.362.362,0,0,1-.25-.616l4.574-4.675a.366.366,0,0,0,0-.51l-3.154-3.223a.348.348,0,0,0-.5,0l-8.83,9.024h-.037v.038l-2.316,2.367a.367.367,0,0,0,0,.51l11.182,11.428a.348.348,0,0,0,.5,0l3.154-3.223a.366.366,0,0,0,0-.51l-4.613-4.714a.362.362,0,0,1,.25-.616H848.3a.357.357,0,0,0,.353-.361v-4.558A.357.357,0,0,0,848.3,178.118Z" transform="translate(-808.081 -155.099)"/></g><g transform="translate(-30 21)"><g class="r" transform="translate(840 859)"><rect class="ab" width="301" height="59" rx="29.5"/><rect class="b" x="1" y="1" width="299" height="57" rx="28.5"/></g><text class="s" transform="translate(869 897)"><tspan x="0" y="0">Ok. I would like to see him. </tspan></text></g><text class="t" transform="translate(692 297)"><tspan x="0" y="22">Doctor, we have a man, 51 years old, who entered the </tspan><tspan x="0" y="49">emergency department reporting chest pain. His vital signs </tspan><tspan x="0" y="76">are: </tspan><tspan x="0" y="103">ABP 144x92 mmHG; </tspan><tspan x="0" y="130">HR 78 bpm; </tspan><tspan x="0" y="157">RR 21 rpm; </tspan><tspan x="0" y="184">Temperature 37 ºC; </tspan><tspan x="0" y="211">O2 Sat 98%.</tspan></text><rect class="u" width="293" height="15" rx="7.5" transform="translate(144 119)"/><g transform="translate(-142 57)"><g class="v" transform="translate(421 871)"><rect class="ab" width="212" height="47" rx="23.5"/><rect class="b" x="1" y="1" width="210" height="45" rx="22.5"/></g><text class="w" transform="translate(460 903)"><tspan x="0" y="0">NURSE Agnes </tspan></text></g><g transform="translate(-247 -80)"><g class="x" transform="translate(1666 1008)"><path class="ab" d="M 188.5 46 L 23.5 46 C 20.46208381652832 46 17.51555633544922 45.40525054931641 14.74227809906006 44.23225021362305 C 12.06313896179199 43.09905624389648 9.656777381896973 41.47658157348633 7.590083122253418 39.40991592407227 C 5.523416519165039 37.34322357177734 3.900944471359253 34.93686294555664 2.767750024795532 32.25772094726563 C 1.594750046730042 29.48444366455078 1 26.53791618347168 1 23.5 C 1 20.46208381652832 1.594750046730042 17.51555633544922 2.767750024795532 14.74227809906006 C 3.900944471359253 12.06313896179199 5.523416519165039 9.656777381896973 7.590083122253418 7.590083122253418 C 9.656777381896973 5.523416519165039 12.06313896179199 3.900944471359253 14.74227809906006 2.767750024795532 C 17.51555633544922 1.594750046730042 20.46208381652832 1 23.5 1 L 188.5 1 C 191.5379180908203 1 194.4844512939453 1.594750046730042 197.2577209472656 2.767750024795532 C 199.9368591308594 3.900944471359253 202.3432159423828 5.523416519165039 204.409912109375 7.590083122253418 C 206.4765777587891 9.656777381896973 208.0990600585938 12.06313896179199 209.2322540283203 14.74227809906006 C 210.4052429199219 17.51555633544922 211 20.46208381652832 211 23.5 C 211 26.53791618347168 210.4052429199219 29.48444366455078 209.2322540283203 32.25772094726563 C 208.0990600585938 34.93686294555664 206.4765777587891 37.34322357177734 204.409912109375 39.40991592407227 C 202.3432159423828 41.47658157348633 199.9368591308594 43.09905624389648 197.2577209472656 44.23225021362305 C 194.4844512939453 45.40525054931641 191.5379180908203 46 188.5 46 Z"/><path class="ac" d="M 23.5 2 C 20.59663391113281 2 17.78118896484375 2.568164825439453 15.1318359375 3.688751220703125 C 12.57188415527344 4.771526336669922 10.27235412597656 6.322029113769531 8.297195434570313 8.297195434570313 C 6.322021484375 10.27236175537109 4.771530151367188 12.5718879699707 3.688751220703125 15.13183403015137 C 2.568161010742188 17.78119468688965 2 20.59663963317871 2 23.5 C 2 26.40336036682129 2.568161010742188 29.21880531311035 3.688751220703125 31.86816787719727 C 4.771530151367188 34.4281120300293 6.322021484375 36.72763824462891 8.297195434570313 38.70280456542969 C 10.27235412597656 40.67797088623047 12.57188415527344 42.22847366333008 15.1318359375 43.31124877929688 C 17.78118896484375 44.43183135986328 20.59663391113281 45 23.5 45 L 188.5 45 C 191.4033660888672 45 194.2188110351563 44.43183135986328 196.8681640625 43.31124877929688 C 199.4281158447266 42.22847366333008 201.7276458740234 40.67797088623047 203.7028045654297 38.70280456542969 C 205.677978515625 36.72763824462891 207.2284698486328 34.4281120300293 208.3112487792969 31.86816787719727 C 209.4318389892578 29.21880531311035 210 26.40336036682129 210 23.5 C 210 20.59663963317871 209.4318389892578 17.78119468688965 208.3112487792969 15.13183403015137 C 207.2284698486328 12.5718879699707 205.677978515625 10.27236175537109 203.7028045654297 8.297195434570313 C 201.7276458740234 6.322029113769531 199.4281158447266 4.771526336669922 196.8681640625 3.688751220703125 C 194.2188110351563 2.568164825439453 191.4033660888672 2 188.5 2 L 23.5 2 M 23.5 0 L 188.5 0 C 201.4786987304688 0 212 10.52130508422852 212 23.5 C 212 36.47869491577148 201.4786987304688 47 188.5 47 L 23.5 47 C 10.52130126953125 47 0 36.47869491577148 0 23.5 C 0 10.52130508422852 10.52130126953125 0 23.5 0 Z"/></g><text class="w" transform="translate(1692 1038)"><tspan x="0" y="0">Emergency room</tspan></text></g><rect class="y" width="20" height="15" rx="7.5" transform="translate(144 119)"/><text class="z" transform="translate(144 106)"><tspan x="0" y="0">Challenge progress</tspan></text><text class="z" transform="translate(453 106)"><tspan x="0" y="0">Sua pontuação total</tspan></text><text class="z" transform="translate(659 106)"><tspan x="0" y="0">&quot;Categoria de médico&quot;</tspan></text><text class="aa" transform="translate(453 130)"><tspan x="0" y="0">120.895 pontos</tspan></text><text class="aa" transform="translate(659 130)"><tspan x="0" y="0">Médico empolgado</tspan></text></g></svg>