<svg xmlns="http://www.w3.org/2000/svg" xmlns:xlink="http://www.w3.org/1999/xlink" width="1920" height="1080" viewBox="0 0 1920 1080"><defs><style>.a,.ah,.c{fill:none;}.af,.aj,.b,.e,.k,.n{fill:#fff;}.b,.c{stroke:#a2a2a2;}.d{clip-path:url(#j);}.e{stroke:#707070;}.f{fill:#d6d6d6;}.g{fill:#0d7114;}.h,.i{fill:#545454;}.h,.i,.q{font-size:16px;}.ad,.h,.q,.w,.x{font-family:SegoeUI, Segoe UI;}.ag,.i,.k{font-family:SegoeUI-Bold, Segoe UI;font-weight:700;}.ag,.j{fill:#0d4a71;}.ad,.k,.w,.x{font-size:20px;}.l{clip-path:url(#c);}.m,.x{fill:#346e93;}.o{clip-path:url(#d);}.p{fill:#e3e3e3;}.ac,.q{fill:#707070;}.r{clip-path:url(#e);}.s{fill:#009b3a;}.t{fill:#fedf00;}.u{fill:#002776;}.v{clip-path:url(#f);}.w{fill:#666;}.y{clip-path:url(#g);}.z{fill:#b22234;}.aa{fill:#3c3b6e;}.ab{clip-path:url(#h);}.ad{fill:#767676;}.ae{letter-spacing:-0.025em;}.af,.ah{stroke:#0d4a71;}.ag{font-size:15px;}.ai,.aj{stroke:none;}.ak{filter:url(#a);}</style><filter id="a" x="650" y="194" width="620" height="793" filterUnits="userSpaceOnUse"><feOffset dy="3" input="SourceAlpha"/><feGaussianBlur stdDeviation="3" result="b"/><feFlood flood-opacity="0.161"/><feComposite operator="in" in2="b"/><feComposite in="SourceGraphic"/></filter><clipPath id="c"><rect class="a" width="50" height="50.694"/></clipPath><clipPath id="d"><rect class="a" width="1920" height="52"/></clipPath><clipPath id="e"><rect class="b" width="48" height="32" rx="16" transform="translate(1625 10.217)"/></clipPath><clipPath id="f"><ellipse cx="8.4" cy="8.4" rx="8.4" ry="8.4"/></clipPath><clipPath id="g"><rect class="c" width="48" height="32" rx="14" transform="translate(13937 -52.783)"/></clipPath><clipPath id="h"><rect class="a" width="36" height="32"/></clipPath><clipPath id="j"><rect width="1920" height="1080"/></clipPath></defs><g id="i" class="d"><rect class="n" width="1920" height="1080"/><g transform="translate(-252 -155)"><image width="1632" height="853.234" transform="translate(396 316)" xlink:href="Cycle%201%20-%205.1.%20Check%20hypothesis-image.png"/></g><g class="ak" transform="matrix(1, 0, 0, 1, 0, 0)"><g class="e" transform="translate(659 200)"><rect class="ai" width="602" height="775" rx="20"/><rect class="a" x="0.5" y="0.5" width="601" height="774" rx="19.5"/></g></g><rect class="f" width="293" height="15" rx="7.5" transform="translate(144 119)"/><rect class="g" width="33" height="15" rx="7.5" transform="translate(144 119)"/><text class="h" transform="translate(144 106)"><tspan x="0" y="0">Challenge progress</tspan></text><text class="h" transform="translate(453 106)"><tspan x="0" y="0">Sua pontuação total</tspan></text><text class="h" transform="translate(659 106)"><tspan x="0" y="0">&quot;Categoria de médico&quot;</tspan></text><text class="i" transform="translate(453 130)"><tspan x="0" y="0">120.895 pontos</tspan></text><text class="i" transform="translate(659 130)"><tspan x="0" y="0">Médico empolgado</tspan></text><g transform="translate(-247 -80)"><g class="j" transform="translate(1666 1008)"><path class="ai" d="M 188.5 46 L 23.5 46 C 20.46208381652832 46 17.51555633544922 45.40525054931641 14.74227809906006 44.23225021362305 C 12.06313896179199 43.09905624389648 9.656777381896973 41.47658157348633 7.590083122253418 39.40991592407227 C 5.523416519165039 37.34322357177734 3.900944471359253 34.93686294555664 2.767750024795532 32.25772094726563 C 1.594750046730042 29.48444366455078 1 26.53791618347168 1 23.5 C 1 20.46208381652832 1.594750046730042 17.51555633544922 2.767750024795532 14.74227809906006 C 3.900944471359253 12.06313896179199 5.523416519165039 9.656777381896973 7.590083122253418 7.590083122253418 C 9.656777381896973 5.523416519165039 12.06313896179199 3.900944471359253 14.74227809906006 2.767750024795532 C 17.51555633544922 1.594750046730042 20.46208381652832 1 23.5 1 L 188.5 1 C 191.5379180908203 1 194.4844512939453 1.594750046730042 197.2577209472656 2.767750024795532 C 199.9368591308594 3.900944471359253 202.3432159423828 5.523416519165039 204.409912109375 7.590083122253418 C 206.4765777587891 9.656777381896973 208.0990600585938 12.06313896179199 209.2322540283203 14.74227809906006 C 210.4052429199219 17.51555633544922 211 20.46208381652832 211 23.5 C 211 26.53791618347168 210.4052429199219 29.48444366455078 209.2322540283203 32.25772094726563 C 208.0990600585938 34.93686294555664 206.4765777587891 37.34322357177734 204.409912109375 39.40991592407227 C 202.3432159423828 41.47658157348633 199.9368591308594 43.09905624389648 197.2577209472656 44.23225021362305 C 194.4844512939453 45.40525054931641 191.5379180908203 46 188.5 46 Z"/><path class="aj" d="M 23.5 2 C 20.59663391113281 2 17.78118896484375 2.568164825439453 15.1318359375 3.688751220703125 C 12.57188415527344 4.771526336669922 10.27235412597656 6.322029113769531 8.297195434570313 8.297195434570313 C 6.322021484375 10.27236175537109 4.771530151367188 12.5718879699707 3.688751220703125 15.13183403015137 C 2.568161010742188 17.78119468688965 2 20.59663963317871 2 23.5 C 2 26.40336036682129 2.568161010742188 29.21880531311035 3.688751220703125 31.86816787719727 C 4.771530151367188 34.4281120300293 6.322021484375 36.72763824462891 8.297195434570313 38.70280456542969 C 10.27235412597656 40.67797088623047 12.57188415527344 42.22847366333008 15.1318359375 43.31124877929688 C 17.78118896484375 44.43183135986328 20.59663391113281 45 23.5 45 L 188.5 45 C 191.4033660888672 45 194.2188110351563 44.43183135986328 196.8681640625 43.31124877929688 C 199.4281158447266 42.22847366333008 201.7276458740234 40.67797088623047 203.7028045654297 38.70280456542969 C 205.677978515625 36.72763824462891 207.2284698486328 34.4281120300293 208.3112487792969 31.86816787719727 C 209.4318389892578 29.21880531311035 210 26.40336036682129 210 23.5 C 210 20.59663963317871 209.4318389892578 17.78119468688965 208.3112487792969 15.13183403015137 C 207.2284698486328 12.5718879699707 205.677978515625 10.27236175537109 203.7028045654297 8.297195434570313 C 201.7276458740234 6.322029113769531 199.4281158447266 4.771526336669922 196.8681640625 3.688751220703125 C 194.2188110351563 2.568164825439453 191.4033660888672 2 188.5 2 L 23.5 2 M 23.5 0 L 188.5 0 C 201.4786987304688 0 212 10.52130508422852 212 23.5 C 212 36.47869491577148 201.4786987304688 47 188.5 47 L 23.5 47 C 10.52130126953125 47 0 36.47869491577148 0 23.5 C 0 10.52130508422852 10.52130126953125 0 23.5 0 Z"/></g><text class="k" transform="translate(1692 1038)"><tspan x="0" y="0">Emergency room</tspan></text></g><g class="l" transform="translate(66.5 161.052)"><ellipse class="m" cx="25" cy="25.347" rx="25" ry="25.347"/><path class="n" d="M848.3,178.118H827.722a.362.362,0,0,1-.25-.616l4.574-4.675a.366.366,0,0,0,0-.51l-3.154-3.223a.348.348,0,0,0-.5,0l-8.83,9.024h-.037v.038l-2.316,2.367a.367.367,0,0,0,0,.51l11.182,11.428a.348.348,0,0,0,.5,0l3.154-3.223a.366.366,0,0,0,0-.51l-4.613-4.714a.362.362,0,0,1,.25-.616H848.3a.357.357,0,0,0,.353-.361v-4.558A.357.357,0,0,0,848.3,178.118Z" transform="translate(-808.081 -155.099)"/></g><g class="o"><rect class="p" width="1920" height="50"/><g class="c" transform="translate(1518 10)"><rect class="ai" width="92" height="31.566" rx="15.783"/><rect class="a" x="0.5" y="0.5" width="91" height="30.566" rx="15.283"/></g><text class="q" transform="translate(1543 31)"><tspan x="0" y="0">Fulano</tspan></text><g class="r"><g transform="translate(21699.588 8140.558)"><rect class="s" width="48.001" height="33.6" transform="translate(-20074.588 -8131.483)"/><path class="t" d="M-1743-1100.28l19.921,12.72,19.92-12.72-19.92-12.72Z" transform="translate(-18327.506 -7014.403)"/><ellipse class="u" cx="8.4" cy="8.4" rx="8.4" ry="8.4" transform="translate(-20058.783 -8123.083)"/><g class="v" transform="translate(-20058.783 -8123.083)"><path class="n" d="M-2205-294.6a20.4,20.4,0,0,1,20.4-20.4,20.4,20.4,0,0,1,20.4,20.4h-1.2a19.2,19.2,0,0,0-19.2-19.2,19.2,19.2,0,0,0-19.2,19.2Z" transform="translate(2188.2 319.8)"/></g></g></g><g class="c" transform="translate(1625 10.217)"><rect class="ai" width="48" height="32" rx="14"/><rect class="a" x="0.5" y="0.5" width="47" height="31" rx="13.5"/></g></g><rect class="p" width="212" height="59" rx="29.5" transform="translate(854 945.5)"/><text class="w" transform="translate(960 983.5)"><tspan x="-10.84" y="0">.....</tspan></text><text class="x" transform="translate(686 249)"><tspan x="0" y="22">Let&apos;s check out your hypotesis. Highlight in green the findings </tspan><tspan x="0" y="49">that corroborate your hypotesis; in blue those that are </tspan><tspan x="0" y="76">neutral; and in red the ones speaking against your hypotesis. </tspan></text><g transform="translate(-12312 63)"><g class="y"><g transform="translate(12757.771 -673.173)"><g transform="translate(1180.229 621.173)"><rect class="z" width="59.312" height="31.217"/></g><g transform="translate(1180.229 623.623)"><path class="n" d="M1239.542,649.753h-59.312v-2.305h59.313Zm0-4.8h-59.312v-2.3h59.313Zm0-4.8h-59.312v-2.3h59.313Zm0-4.8h-59.312v-2.305h59.313Zm0-4.8h-59.312v-2.306h59.313Zm0-4.8h-59.312v-2.306h59.313Z" transform="translate(-1180.229 -623.435)"/></g><g transform="translate(1180.229 621.173)"><rect class="aa" width="23.725" height="16.809"/></g><g transform="translate(1181.292 621.894)"><path class="n" d="M1182.125,621.839l.564,1.737-1.478-1.074h1.827l-1.477,1.074Z" transform="translate(-1181.211 -621.839)"/><g transform="translate(0 3.361)"><path class="n" d="M1182.125,624.943l.564,1.737-1.478-1.073h1.827l-1.477,1.073Z" transform="translate(-1181.211 -624.943)"/></g><g transform="translate(0 6.723)"><path class="n" d="M1182.125,628.047l.564,1.738-1.478-1.074h1.827l-1.477,1.074Z" transform="translate(-1181.211 -628.047)"/></g><g transform="translate(0 10.085)"><path class="n" d="M1182.125,631.152l.564,1.737-1.478-1.073h1.827l-1.477,1.073Z" transform="translate(-1181.211 -631.152)"/></g><g transform="translate(0 13.447)"><path class="n" d="M1182.125,634.256l.564,1.738-1.478-1.074h1.827l-1.477,1.074Z" transform="translate(-1181.211 -634.256)"/></g><g transform="translate(1.977 1.681)"><path class="n" d="M1183.951,623.391l.564,1.737-1.478-1.073h1.827l-1.478,1.073Z" transform="translate(-1183.037 -623.391)"/><g transform="translate(0 3.361)"><path class="n" d="M1183.951,626.495l.564,1.738-1.478-1.074h1.827l-1.478,1.074Z" transform="translate(-1183.037 -626.495)"/></g><g transform="translate(0 6.724)"><path class="n" d="M1183.951,629.6l.564,1.737-1.478-1.074h1.827l-1.478,1.074Z" transform="translate(-1183.037 -629.6)"/></g><g transform="translate(0 10.085)"><path class="n" d="M1183.951,632.7l.564,1.738-1.478-1.074h1.827l-1.478,1.074Z" transform="translate(-1183.037 -632.704)"/></g></g><g transform="translate(3.955)"><path class="n" d="M1185.776,621.839l.565,1.737-1.478-1.074h1.827l-1.478,1.074Z" transform="translate(-1184.863 -621.839)"/><g transform="translate(0 3.361)"><path class="n" d="M1185.776,624.943l.565,1.737-1.478-1.073h1.827l-1.478,1.073Z" transform="translate(-1184.863 -624.943)"/></g><g transform="translate(0 6.723)"><path class="n" d="M1185.776,628.047l.565,1.738-1.478-1.074h1.827l-1.478,1.074Z" transform="translate(-1184.863 -628.047)"/></g><g transform="translate(0 10.085)"><path class="n" d="M1185.776,631.152l.565,1.737-1.478-1.073h1.827l-1.478,1.073Z" transform="translate(-1184.863 -631.152)"/></g><g transform="translate(0 13.447)"><path class="n" d="M1185.776,634.256l.565,1.738-1.478-1.074h1.827l-1.478,1.074Z" transform="translate(-1184.863 -634.256)"/></g><g transform="translate(1.976 1.681)"><path class="n" d="M1187.6,623.391l.564,1.737-1.478-1.073h1.828l-1.478,1.073Z" transform="translate(-1186.688 -623.391)"/><g transform="translate(0 3.361)"><path class="n" d="M1187.6,626.495l.564,1.738-1.478-1.074h1.828l-1.478,1.074Z" transform="translate(-1186.688 -626.495)"/></g><g transform="translate(0 6.724)"><path class="n" d="M1187.6,629.6l.564,1.737-1.478-1.074h1.828l-1.478,1.074Z" transform="translate(-1186.688 -629.6)"/></g><g transform="translate(0 10.085)"><path class="n" d="M1187.6,632.7l.564,1.738-1.478-1.074h1.828l-1.478,1.074Z" transform="translate(-1186.688 -632.704)"/></g></g></g><g transform="translate(7.909)"><path class="n" d="M1189.428,621.839l.564,1.737-1.478-1.074h1.827l-1.478,1.074Z" transform="translate(-1188.514 -621.839)"/><g transform="translate(0 3.361)"><path class="n" d="M1189.428,624.943l.564,1.737-1.478-1.073h1.827l-1.478,1.073Z" transform="translate(-1188.514 -624.943)"/></g><g transform="translate(0 6.723)"><path class="n" d="M1189.428,628.047l.564,1.738-1.478-1.074h1.827l-1.478,1.074Z" transform="translate(-1188.514 -628.047)"/></g><g transform="translate(0 10.085)"><path class="n" d="M1189.428,631.152l.564,1.737-1.478-1.073h1.827l-1.478,1.073Z" transform="translate(-1188.514 -631.152)"/></g><g transform="translate(0 13.447)"><path class="n" d="M1189.428,634.256l.564,1.738-1.478-1.074h1.827l-1.478,1.074Z" transform="translate(-1188.514 -634.256)"/></g><g transform="translate(1.977 1.681)"><path class="n" d="M1191.253,623.391l.565,1.737-1.478-1.073h1.827l-1.478,1.073Z" transform="translate(-1190.34 -623.391)"/><g transform="translate(0 3.361)"><path class="n" d="M1191.253,626.495l.565,1.738-1.478-1.074h1.827l-1.478,1.074Z" transform="translate(-1190.34 -626.495)"/></g><g transform="translate(0 6.724)"><path class="n" d="M1191.253,629.6l.565,1.737-1.478-1.074h1.827l-1.478,1.074Z" transform="translate(-1190.34 -629.6)"/></g><g transform="translate(0 10.085)"><path class="n" d="M1191.253,632.7l.565,1.738-1.478-1.074h1.827l-1.478,1.074Z" transform="translate(-1190.34 -632.704)"/></g></g><g transform="translate(3.955)"><path class="n" d="M1193.079,621.839l.564,1.737-1.477-1.074h1.827l-1.478,1.074Z" transform="translate(-1192.166 -621.839)"/><g transform="translate(0 3.361)"><path class="n" d="M1193.079,624.943l.564,1.737-1.477-1.073h1.827l-1.478,1.073Z" transform="translate(-1192.166 -624.943)"/></g><g transform="translate(0 6.723)"><path class="n" d="M1193.079,628.047l.564,1.738-1.477-1.074h1.827l-1.478,1.074Z" transform="translate(-1192.166 -628.047)"/></g><g transform="translate(0 10.085)"><path class="n" d="M1193.079,631.152l.564,1.737-1.477-1.073h1.827l-1.478,1.073Z" transform="translate(-1192.166 -631.152)"/></g><g transform="translate(0 13.447)"><path class="n" d="M1193.079,634.256l.564,1.738-1.477-1.074h1.827l-1.478,1.074Z" transform="translate(-1192.166 -634.256)"/></g><g transform="translate(1.976 1.681)"><path class="n" d="M1194.905,623.391l.564,1.737-1.478-1.073h1.827l-1.478,1.073Z" transform="translate(-1193.991 -623.391)"/><g transform="translate(0 3.361)"><path class="n" d="M1194.905,626.495l.564,1.738-1.478-1.074h1.827l-1.478,1.074Z" transform="translate(-1193.991 -626.495)"/></g><g transform="translate(0 6.724)"><path class="n" d="M1194.905,629.6l.564,1.737-1.478-1.074h1.827l-1.478,1.074Z" transform="translate(-1193.991 -629.6)"/></g><g transform="translate(0 10.085)"><path class="n" d="M1194.905,632.7l.564,1.738-1.478-1.074h1.827l-1.478,1.074Z" transform="translate(-1193.991 -632.704)"/></g></g></g></g><g transform="translate(15.817)"><path class="n" d="M1196.73,621.839l.565,1.737-1.478-1.074h1.827l-1.478,1.074Z" transform="translate(-1195.817 -621.839)"/><g transform="translate(0 3.361)"><path class="n" d="M1196.73,624.943l.565,1.737-1.478-1.073h1.827l-1.478,1.073Z" transform="translate(-1195.817 -624.943)"/></g><g transform="translate(0 6.723)"><path class="n" d="M1196.73,628.047l.565,1.738-1.478-1.074h1.827l-1.478,1.074Z" transform="translate(-1195.817 -628.047)"/></g><g transform="translate(0 10.085)"><path class="n" d="M1196.73,631.152l.565,1.737-1.478-1.073h1.827l-1.478,1.073Z" transform="translate(-1195.817 -631.152)"/></g><g transform="translate(0 13.447)"><path class="n" d="M1196.73,634.256l.565,1.738-1.478-1.074h1.827l-1.478,1.074Z" transform="translate(-1195.817 -634.256)"/></g><g transform="translate(1.977 1.681)"><path class="n" d="M1198.556,623.391l.565,1.737-1.478-1.073h1.827l-1.478,1.073Z" transform="translate(-1197.643 -623.391)"/><g transform="translate(0 3.361)"><path class="n" d="M1198.556,626.495l.565,1.738-1.478-1.074h1.827l-1.478,1.074Z" transform="translate(-1197.643 -626.495)"/></g><g transform="translate(0 6.724)"><path class="n" d="M1198.556,629.6l.565,1.737-1.478-1.074h1.827l-1.478,1.074Z" transform="translate(-1197.643 -629.6)"/></g><g transform="translate(0 10.085)"><path class="n" d="M1198.556,632.7l.565,1.738-1.478-1.074h1.827l-1.478,1.074Z" transform="translate(-1197.643 -632.704)"/></g></g></g><g transform="translate(19.771)"><path class="n" d="M1200.382,621.839l.564,1.737-1.478-1.074h1.827l-1.477,1.074Z" transform="translate(-1199.468 -621.839)"/><g transform="translate(0 3.361)"><path class="n" d="M1200.382,624.943l.564,1.737-1.478-1.073h1.827l-1.477,1.073Z" transform="translate(-1199.468 -624.943)"/></g><g transform="translate(0 6.723)"><path class="n" d="M1200.382,628.047l.564,1.738-1.478-1.074h1.827l-1.477,1.074Z" transform="translate(-1199.468 -628.047)"/></g><g transform="translate(0 10.085)"><path class="n" d="M1200.382,631.152l.564,1.737-1.478-1.073h1.827l-1.477,1.073Z" transform="translate(-1199.468 -631.152)"/></g><g transform="translate(0 13.447)"><path class="n" d="M1200.382,634.256l.564,1.738-1.478-1.074h1.827l-1.477,1.074Z" transform="translate(-1199.468 -634.256)"/></g></g></g></g></g><g class="c" transform="translate(13937 -52.783)"><rect class="ai" width="48" height="32" rx="14"/><rect class="a" x="0.5" y="0.5" width="47" height="31" rx="13.5"/></g></g><g class="ab" transform="translate(1451 10.217)"><g transform="translate(455.303 386.855)"><g transform="translate(-448.001 -380.006)"><path class="ac" d="M73.45,120.939l-7.738,6.38a.183.183,0,0,1-.007.04.184.184,0,0,0-.007.04v6.46a.874.874,0,0,0,.861.862h5.168v-5.168h3.446v5.168h5.168a.875.875,0,0,0,.862-.862V127.4a.19.19,0,0,0-.014-.08Z" transform="translate(-62.601 -117.453)"/><path class="ac" d="M21.548,55.406,18.6,52.956V47.465a.415.415,0,0,0-.431-.431H15.586a.414.414,0,0,0-.431.431V50.09l-3.284-2.746a1.67,1.67,0,0,0-2.045,0L.149,55.406A.391.391,0,0,0,0,55.695a.436.436,0,0,0,.094.316l.834,1a.459.459,0,0,0,.283.148.5.5,0,0,0,.323-.094L10.848,49.3l9.313,7.766a.415.415,0,0,0,.283.094h.04a.46.46,0,0,0,.283-.148l.834-1a.436.436,0,0,0,.094-.317A.392.392,0,0,0,21.548,55.406Z" transform="translate(0.001 -46.994)"/></g></g><g class="c"><rect class="ai" width="36" height="32" rx="14"/><rect class="a" x="0.5" y="0.5" width="35" height="31" rx="13.5"/></g></g><g transform="translate(0 16)"><text class="ad" transform="translate(686 364)"><tspan x="0" y="22" xml:space="preserve">                        Doctor, we have a man,  51 years old  , who </tspan><tspan x="0" y="49" xml:space="preserve">entered the emergency department reporting  chest pain . His </tspan><tspan x="0" y="76" xml:space="preserve">vital signs are   ABP144x92mmHG  ;  HR 78 bpm  ;  RR 21 rpm  ;   </tspan><tspan x="0" y="103" xml:space="preserve">  Temperature 37 ºC  ;   O2 Sat 98%  .</tspan><tspan x="0" y="130"></tspan><tspan x="0" y="157" xml:space="preserve">                         Doctor, I am feeling chest pain since yesterday. </tspan><tspan x="0" y="184" xml:space="preserve">The  pain is continuous  and  is located just in the middle of my </tspan><tspan x="0" y="211" xml:space="preserve">chest  ,  worsening when I breathe  and  when I lay down on </tspan><tspan x="0" y="238" xml:space="preserve">my bed. I suffer from   arterial hypertension  and  smoke 20 </tspan><tspan x="0" y="265" xml:space="preserve">cigarettes every day  . My father had a “heart attack”   at my </tspan><tspan x="0" y="292">age and I am very worried about it.</tspan><tspan x="0" y="319"></tspan><tspan x="0" y="346" xml:space="preserve">                                       Cardiac and pulmonary auscultation </tspan><tspan x="0" y="373" xml:space="preserve">are normal ;  </tspan><tspan class="ae" y="373">chest pain does not worse with palpation of the </tspan><tspan class="ae" x="0" y="400" xml:space="preserve">thorax  ;  there is no jugular stasi</tspan><tspan y="400" xml:space="preserve">s  nor lower limb edema  .</tspan></text><g transform="translate(205 -53)"><g class="af" transform="translate(481 420)"><rect class="ai" width="123" height="25" rx="12.5"/><rect class="a" x="0.5" y="0.5" width="122" height="24" rx="12"/></g><text class="ag" transform="translate(493 438)"><tspan x="0" y="0">NURSE Agnes </tspan></text></g><g transform="translate(233 -90)"><g class="af" transform="translate(453 591)"><rect class="ai" width="131" height="25" rx="12.5"/><rect class="a" x="0.5" y="0.5" width="130" height="24" rx="12"/></g><text class="ag" transform="translate(462 609)"><tspan x="0" y="0">PATIENT Jakob</tspan></text></g><g transform="translate(233 100)"><g class="af" transform="translate(453 591)"><rect class="ai" width="203" height="25" rx="12.5"/><rect class="a" x="0.5" y="0.5" width="202" height="24" rx="12"/></g><text class="ag" transform="translate(462 609)"><tspan x="0" y="0">PHYSICAL EXAMINATION</tspan></text></g><g class="ah" transform="translate(1027 367)"><rect class="ai" width="124" height="25" rx="12.5"/><rect class="a" x="0.5" y="0.5" width="123" height="24" rx="12"/></g><g class="ah" transform="translate(1094 394)"><rect class="ai" width="102" height="25" rx="12.5"/><rect class="a" x="0.5" y="0.5" width="101" height="24" rx="12"/></g><g class="ah" transform="translate(817 421)"><rect class="ai" width="173" height="25" rx="12.5"/><rect class="a" x="0.5" y="0.5" width="172" height="24" rx="12"/></g><g class="ah" transform="translate(884 448)"><rect class="ai" width="123" height="25" rx="12.5"/><rect class="a" x="0.5" y="0.5" width="122" height="24" rx="12"/></g><g class="ah" transform="translate(723 529)"><rect class="ai" width="175" height="25" rx="12.5"/><rect class="a" x="0.5" y="0.5" width="174" height="24" rx="12"/></g><g class="ah" transform="translate(686 556)"><path class="ai" d="M0,0H41.5A12.5,12.5,0,0,1,54,12.5v0A12.5,12.5,0,0,1,41.5,25H0a0,0,0,0,1,0,0V0A0,0,0,0,1,0,0Z"/><path class="a" d="M.755.5H41.5a12,12,0,0,1,12,12v0a12,12,0,0,1-12,12H.755A.255.255,0,0,1,.5,24.245V.755A.255.255,0,0,1,.755.5Z"/></g><g class="ah" transform="translate(686 719)"><path class="ai" d="M0,0H89.5A12.5,12.5,0,0,1,102,12.5v0A12.5,12.5,0,0,1,89.5,25H0a0,0,0,0,1,0,0V0A0,0,0,0,1,0,0Z"/><path class="a" d="M.755.5H89.5a12,12,0,0,1,12,12v0a12,12,0,0,1-12,12H.755A.255.255,0,0,1,.5,24.245V.755A.255.255,0,0,1,.755.5Z"/></g><g class="ah" transform="translate(686 746)"><path class="ai" d="M0,0H45.5A12.5,12.5,0,0,1,58,12.5v0A12.5,12.5,0,0,1,45.5,25H0a0,0,0,0,1,0,0V0A0,0,0,0,1,0,0Z"/><path class="a" d="M.755.5H45.5a12,12,0,0,1,12,12v0a12,12,0,0,1-12,12H.755A.255.255,0,0,1,.5,24.245V.755A.255.255,0,0,1,.755.5Z"/></g><g class="ah" transform="translate(686 610)"><path class="ai" d="M0,0H172.5A12.5,12.5,0,0,1,185,12.5v0A12.5,12.5,0,0,1,172.5,25H0a0,0,0,0,1,0,0V0A0,0,0,0,1,0,0Z"/><path class="a" d="M.755.5H172.5a12,12,0,0,1,12,12v0a12,12,0,0,1-12,12H.755A.255.255,0,0,1,.5,24.245V.755A.255.255,0,0,1,.755.5Z"/></g><g class="ah" transform="translate(1036 556)"><rect class="ai" width="154" height="25" rx="12.5"/><rect class="a" x="0.5" y="0.5" width="153" height="24" rx="12"/></g><g class="ah" transform="translate(891 691)"><path class="ai" d="M12.5,0H334a0,0,0,0,1,0,0V25a0,0,0,0,1,0,0H12.5A12.5,12.5,0,0,1,0,12.5v0A12.5,12.5,0,0,1,12.5,0Z"/><path class="a" d="M12.5.5H333.245a.255.255,0,0,1,.255.255V24.245a.255.255,0,0,1-.255.255H12.5a12,12,0,0,1-12-12v0a12,12,0,0,1,12-12Z"/></g><g class="ah" transform="translate(793 719)"><path class="ai" d="M12.5,0H414a0,0,0,0,1,0,0V25a0,0,0,0,1,0,0H12.5A12.5,12.5,0,0,1,0,12.5v0A12.5,12.5,0,0,1,12.5,0Z"/><path class="a" d="M12.5.5H413.245a.255.255,0,0,1,.255.255V24.245a.255.255,0,0,1-.255.255H12.5a12,12,0,0,1-12-12v0a12,12,0,0,1,12-12Z"/></g><g class="ah" transform="translate(757 746)"><rect class="ai" width="417" height="25" rx="12.5"/><rect class="a" x="0.5" y="0.5" width="416" height="24" rx="12"/></g><g class="ah" transform="translate(877 583)"><rect class="ai" width="198" height="25" rx="12.5"/><rect class="a" x="0.5" y="0.5" width="197" height="24" rx="12"/></g><g class="ah" transform="translate(877 610)"><rect class="ai" width="282" height="25" rx="12.5"/><rect class="a" x="0.5" y="0.5" width="281" height="24" rx="12"/></g><g class="ah" transform="translate(749 556)"><rect class="ai" width="244" height="25" rx="12.5"/><rect class="a" x="0.5" y="0.5" width="243" height="24" rx="12"/></g><g class="ah" transform="translate(937 529)"><path class="ai" d="M12.5,0H310a0,0,0,0,1,0,0V25a0,0,0,0,1,0,0H12.5A12.5,12.5,0,0,1,0,12.5v0A12.5,12.5,0,0,1,12.5,0Z"/><path class="a" d="M12.5.5H309.245a.255.255,0,0,1,.255.255V24.245a.255.255,0,0,1-.255.255H12.5a12,12,0,0,1-12-12v0a12,12,0,0,1,12-12Z"/></g><g class="ah" transform="translate(1116 583)"><path class="ai" d="M12.5,0H102a0,0,0,0,1,0,0V25a0,0,0,0,1,0,0H12.5A12.5,12.5,0,0,1,0,12.5v0A12.5,12.5,0,0,1,12.5,0Z"/><path class="a" d="M12.5.5h88.745a.255.255,0,0,1,.255.255V24.245a.255.255,0,0,1-.255.255H12.5a12,12,0,0,1-12-12v0a12,12,0,0,1,12-12Z"/></g><g class="ah" transform="translate(1003 421)"><rect class="ai" width="117" height="25" rx="12.5"/><rect class="a" x="0.5" y="0.5" width="116" height="24" rx="12"/></g><g class="ah" transform="translate(1127 421)"><rect class="ai" width="109" height="25" rx="12.5"/><rect class="a" x="0.5" y="0.5" width="108" height="24" rx="12"/></g><g class="ah" transform="translate(690 447)"><rect class="ai" width="182" height="25" rx="12.5"/><rect class="a" x="0.5" y="0.5" width="181" height="24" rx="12"/></g></g></g></svg>