<svg xmlns="http://www.w3.org/2000/svg" xmlns:xlink="http://www.w3.org/1999/xlink" width="1920" height="1080" viewBox="0 0 1920 1080"><defs><style>.a{clip-path:url(#b);}.b{fill:#004270;}.c,.f,.i{fill:#fff;}.c,.i{stroke:#707070;}.c{opacity:0.95;}.d,.g{fill:#346e93;}.d{font-size:28px;font-family:SegoeUI-Bold, Segoe UI;font-weight:700;}.e{fill:#ba2027;}.f{font-size:20px;font-family:SegoeUI, Segoe UI;}.h,.k{fill:none;}.h{stroke:#474747;stroke-width:5px;}.j{stroke:none;}</style><clipPath id="b"><rect width="1920" height="1080"/></clipPath></defs><g id="a" class="a"><rect class="b" width="1920" height="1080"/><g transform="translate(-87 -215)"><g class="c" transform="translate(437 293)"><rect class="j" width="1220" height="937.4" rx="12"/><rect class="k" x="0.5" y="0.5" width="1219" height="936.4" rx="11.5"/></g><text class="d" transform="translate(473 324)"><tspan x="0" y="30">EKG</tspan></text><rect class="e" width="139" height="59" rx="29.5" transform="translate(464 1196.4)"/><text class="f" transform="translate(502 1234.4)"><tspan x="0" y="0">Return</tspan></text></g><path class="g" d="M718.094,273.854a25,25,0,1,0,25,25A25,25,0,0,0,718.094,273.854Zm16.512,35.335a1.861,1.861,0,0,1,0,2.624l-3.553,3.554a1.861,1.861,0,0,1-2.624,0l-10.335-10.335-10.335,10.335a1.861,1.861,0,0,1-2.624,0l-3.553-3.554a1.861,1.861,0,0,1,0-2.624l10.335-10.335-10.335-10.335a1.861,1.861,0,0,1,0-2.624l3.553-3.554a1.861,1.861,0,0,1,2.624,0l10.335,10.335,10.335-10.335a1.861,1.861,0,0,1,2.624,0l3.553,3.554a1.861,1.861,0,0,1,0,2.624l-10.335,10.335Z" transform="translate(810.906 -172.854)"/><image width="1216" height="774" transform="translate(352 185)" xlink:href="Cycle%202%20-%20Check%20hipothesis%202-image.png"/><g class="h" transform="translate(520 246)"><rect class="j" width="63" height="75"/><rect class="k" x="2.5" y="2.5" width="58" height="70"/></g><g class="h" transform="translate(751 246)"><rect class="j" width="63" height="75"/><rect class="k" x="2.5" y="2.5" width="58" height="70"/></g><g class="i" transform="translate(1254 215)"><rect class="j" width="276" height="150"/><rect class="k" x="0.5" y="0.5" width="275" height="149"/></g></g></svg>