<svg xmlns="http://www.w3.org/2000/svg" xmlns:xlink="http://www.w3.org/1999/xlink" width="1920" height="1309" viewBox="0 0 1920 1309"><defs><style>.a,.aa,.ap,.n{fill:#fff;}.a,.d{stroke:#a2a2a2;}.ab,.af,.aq,.b,.d{fill:none;}.c{fill:#9a1c26;}.e{clip-path:url(#s);}.f{clip-path:url(#a);}.g{fill:#e3e3e3;}.h,.q,.w{fill:#707070;}.h{font-size:16px;}.ap,.h,.q,.w{font-family:SegoeUI, Segoe UI;}.i{clip-path:url(#b);}.j,.s{fill:#009b3a;}.k{fill:#fedf00;}.l{fill:#002776;}.m{clip-path:url(#c);}.o{clip-path:url(#d);}.ac,.as,.p,.v,.x{fill:#346e93;}.ap,.q{font-size:20px;}.r{clip-path:url(#e);}.s,.t{fill-rule:evenodd;}.u{clip-path:url(#f);}.v{font-size:60px;font-family:SegoeUIBlack, Segoe UI;}.w{font-size:36px;}.y{clip-path:url(#i);}.z{fill:url(#j);}.aa,.ac{font-size:30px;font-family:SegoeUI-Bold, Segoe UI;font-weight:700;}.ad{clip-path:url(#k);}.ae{fill:url(#l);}.af{stroke:#346e93;}.af,.ag{stroke-width:5px;}.ag{fill:#ebebeb;stroke:#6e6e6e;}.ah{clip-path:url(#m);}.ai{fill:url(#n);}.aj{clip-path:url(#o);}.ak{fill:url(#p);}.al{clip-path:url(#q);}.am{fill:#b22234;}.an{fill:#3c3b6e;}.ao{fill:#6e6e6e;}.aq{stroke:#fff;}.ar,.as{stroke:none;}</style><clipPath id="a"><rect class="b" width="1920" height="52"/></clipPath><clipPath id="b"><rect class="a" width="48" height="32" rx="16" transform="translate(1625 10.217)"/></clipPath><clipPath id="c"><ellipse cx="8.4" cy="8.4" rx="8.4" ry="8.4"/></clipPath><clipPath id="d"><rect class="b" width="73" height="73"/></clipPath><clipPath id="e"><circle cx="4.512" cy="4.512" r="4.512" transform="translate(0)"/></clipPath><clipPath id="f"><path d="M0,.43V0H.387V.43ZM.193.141V.215H.387V.141Z"/></clipPath><clipPath id="i"><rect class="c" width="189.59" height="189.59" rx="42" transform="translate(246 388)"/></clipPath><pattern id="j" preserveAspectRatio="none" width="100%" height="100%" viewBox="0 0 2206 2127"><image width="2206" height="2127" xlink:href="Experimente%201%20-%2021-image3.png"/></pattern><clipPath id="k"><rect class="c" width="189.59" height="189.59" rx="42" transform="translate(329 1133.142)"/></clipPath><pattern id="l" width="1" height="1" viewBox="-9 0 282 210.5"><image preserveAspectRatio="none" width="282" height="210.5" xlink:href="Experimente%201%20-%2021-image5.jpg"/></pattern><clipPath id="m"><rect class="c" width="189.59" height="189.59" rx="42" transform="translate(659.41 956.142)"/></clipPath><pattern id="n" preserveAspectRatio="none" width="100%" height="100%" viewBox="0 0 700 523"><image width="700" height="523" xlink:href="Experimente%201%20-%2021-image6.jpg"/></pattern><clipPath id="o"><rect class="c" width="189.59" height="189.59" rx="42" transform="translate(556 410.142)"/></clipPath><pattern id="p" preserveAspectRatio="none" width="100%" height="100%" viewBox="0 0 700 523"><image width="700" height="523" xlink:href="Experimente%201%20-%2021-image8.jpg"/></pattern><clipPath id="q"><rect class="d" width="48" height="32" rx="14" transform="translate(13937 -52.783)"/></clipPath><clipPath id="s"><rect width="1920" height="1309"/></clipPath></defs><g id="r" class="e"><rect class="n" width="1920" height="1309"/><g class="f"><rect class="g" width="1920" height="50"/><g class="d" transform="translate(1518 10)"><rect class="ar" width="92" height="31.566" rx="15.783"/><rect class="b" x="0.5" y="0.5" width="91" height="30.566" rx="15.283"/></g><text class="h" transform="translate(1543 31)"><tspan x="0" y="0">Fulano</tspan></text><g class="i"><g transform="translate(21699.588 8140.558)"><rect class="j" width="48.001" height="33.6" transform="translate(-20074.588 -8131.483)"/><path class="k" d="M-1743-1100.28l19.921,12.72,19.92-12.72-19.92-12.72Z" transform="translate(-18327.506 -7014.403)"/><ellipse class="l" cx="8.4" cy="8.4" rx="8.4" ry="8.4" transform="translate(-20058.783 -8123.083)"/><g class="m" transform="translate(-20058.783 -8123.083)"><path class="n" d="M-2205-294.6a20.4,20.4,0,0,1,20.4-20.4,20.4,20.4,0,0,1,20.4,20.4h-1.2a19.2,19.2,0,0,0-19.2-19.2,19.2,19.2,0,0,0-19.2,19.2Z" transform="translate(2188.2 319.8)"/></g></g></g><g class="d" transform="translate(1625 10.217)"><rect class="ar" width="48" height="32" rx="14"/><rect class="b" x="0.5" y="0.5" width="47" height="31" rx="13.5"/></g></g><g class="o" transform="translate(473.5 100)"><circle class="p" cx="36.5" cy="36.5" r="36.5"/><path class="n" d="M863.02,182.135H832.728a.519.519,0,0,1-.367-.887l6.732-6.732a.519.519,0,0,0,0-.734l-4.641-4.641a.519.519,0,0,0-.734,0l-12.995,12.995h-.054v.054L817.26,185.6a.52.52,0,0,0,0,.735l16.457,16.457a.519.519,0,0,0,.734,0l4.641-4.641a.519.519,0,0,0,0-.734l-6.788-6.788a.519.519,0,0,1,.367-.887H863.02a.519.519,0,0,0,.519-.519v-6.564A.519.519,0,0,0,863.02,182.135Z" transform="translate(-804.108 -148.988)"/></g><g transform="translate(-3927 -6764)"><rect class="g" width="1920" height="52"/><g class="d" transform="translate(1625 10.217)"><rect class="ar" width="48" height="32" rx="14"/><rect class="b" x="0.5" y="0.5" width="47" height="31" rx="13.5"/></g><g class="d" transform="translate(1498 10.217)"><rect class="ar" width="116" height="31.566" rx="14"/><rect class="b" x="0.5" y="0.5" width="115" height="30.566" rx="13.5"/></g><text class="q" transform="translate(1532 34)"><tspan x="0" y="0">Entrar</tspan></text><g transform="translate(2430.588 2225.5)"><g transform="translate(1305.96 -738.273)"><rect class="j" width="24" height="18.046" transform="translate(-2100 -1470)"/><path class="k" d="M-1743-1106.168l9.809,6.832,9.809-6.832-9.809-6.832Z" transform="translate(-354.809 -354.809)"/><circle class="l" cx="4.512" cy="4.512" r="4.512" transform="translate(-2092.511 -1465.488)"/><g class="r" transform="translate(-2092.511 -1465.488)"><path class="n" d="M-2205-304.043A10.957,10.957,0,0,1-2194.043-315a10.957,10.957,0,0,1,10.957,10.957h-.645a10.312,10.312,0,0,0-10.312-10.312,10.312,10.312,0,0,0-10.312,10.312Z" transform="translate(2195.977 317.578)"/></g><g transform="translate(-2092.104 -1462.805)"><path class="s" d="M.193.43A.2.2,0,0,0,.387.215.2.2,0,0,0,.193,0,.2.2,0,0,0,0,.215.2.2,0,0,0,.193.43m0-.08A.126.126,0,0,0,.307.215.126.126,0,0,0,.193.08.126.126,0,0,0,.08.215.126.126,0,0,0,.193.35" transform="translate(0 0.106) rotate(-7)"/><g transform="translate(0.564 0.042) rotate(-4)"><path class="t" d="M0,.43H.08V.27H.252a.135.135,0,1,0,0-.27H.006ZM.08.19H.246a.055.055,0,1,0,0-.11H.08Z"/><path d="M.209.2c0-.061,0-.2-.092-.2H0C.135,0,.135.135.135.2" transform="translate(0.157 0.233)"/></g><path class="s" d="M0,.43H.2A.184.184,0,0,0,.387.246V.184A.184.184,0,0,0,.2,0H0ZM.08.35H.2A.117.117,0,0,0,.313.233V.2A.117.117,0,0,0,.2.08H.08Z" transform="translate(1.131 0.007) rotate(-1)"/><path class="j" d="M0,.43H.387V.35H.074V.239H.319V.166H.074V.08H.368V0H0Z" transform="translate(1.7 0.002) rotate(2)"/><path class="j" d="M0,.43H.074V.135L.16.43H.227L.313.135V.43H.387V0H.279L.193.295.107,0H0Z" transform="translate(2.267 0.026) rotate(5)"/><path class="j" d="M0,.387H.322V.313H.074v-.1h.2V.141h-.2V.074H.315V0H0Z" transform="translate(3.185 0.173) rotate(9.75)"/><path class="s" d="M0,.43H.08V.27H.252a.135.135,0,1,0,0-.27H.006ZM.08.19H.246a.055.055,0,1,0,0-.11H.08Z" transform="matrix(0.968, 0.25, -0.25, 0.968, 4.043, 0.299)"/><g transform="translate(4.592 0.446) rotate(17.5)"><path class="t" d="M0,.43H.08V.27H.252a.135.135,0,1,0,0-.27H.006ZM.08.19H.246a.055.055,0,1,0,0-.11H.08Z" transform="translate(0 0)"/><path d="M.209.2c0-.061,0-.2-.092-.2H0C.135,0,.135.135.135.2" transform="translate(0.157 0.233)"/></g><path class="s" d="M.193.43A.2.2,0,0,0,.387.215.2.2,0,0,0,.193,0,.2.2,0,0,0,0,.215.2.2,0,0,0,.193.43m0-.08A.126.126,0,0,0,.307.215.126.126,0,0,0,.193.08.126.126,0,0,0,.08.215.126.126,0,0,0,.193.35" transform="translate(5.133 0.621) rotate(20.5)"/><g transform="translate(5.663 0.824) rotate(23.5)"><g class="u"><path class="t" d="M.193.43A.2.2,0,0,0,.387.215.2.2,0,0,0,.193,0,.2.2,0,0,0,0,.215.2.2,0,0,0,.193.43m0-.08A.126.126,0,0,0,.307.215.126.126,0,0,0,.193.08.126.126,0,0,0,.08.215.126.126,0,0,0,.193.35" transform="translate(0 0)"/></g><rect width="0.163" height="0.061" transform="translate(0.224 0.215)"/><rect width="0.061" height="0.215" transform="translate(0.325 0.215)"/></g><g transform="translate(6.182 1.055) rotate(26.5)"><path class="t" d="M0,.43H.08V.27H.252a.135.135,0,1,0,0-.27H.006ZM.08.19H.246a.055.055,0,1,0,0-.11H.08Z" transform="translate(0 0)"/><path d="M.209.2c0-.061,0-.2-.092-.2H0C.135,0,.135.135.135.2" transform="translate(0.157 0.233)"/></g><path class="j" d="M0,.43H.387V.35H.074V.239H.319V.166H.074V.08H.368V0H0Z" transform="translate(6.688 1.313) rotate(29.5)"/><path class="j" d="M.1.295C.1.338.138.359.2.359S.29.339.29.312C.29.224,0,.279,0,.126.006-.006.157,0,.212,0S.371.025.37.13H.276C.276.084.233.068.184.068S.1.075.1.12C.1.192.387.144.387.3.387.408.276.43.193.43S0,.4,0,.295Z" transform="translate(7.18 1.597) rotate(32.5)"/><path class="j" d="M.1.295C.1.338.138.359.2.359S.29.339.29.312C.29.224,0,.279,0,.126.006-.006.157,0,.212,0S.371.025.37.13H.276C.276.084.233.068.184.068S.1.075.1.12C.1.192.387.144.387.3.387.408.276.43.193.43S0,.4,0,.295Z" transform="matrix(0.814, 0.581, -0.581, 0.814, 7.657, 1.906)"/><path class="s" d="M.193.43A.2.2,0,0,0,.387.215.2.2,0,0,0,.193,0,.2.2,0,0,0,0,.215.2.2,0,0,0,.193.43m0-.08A.126.126,0,0,0,.307.215.126.126,0,0,0,.193.08.126.126,0,0,0,.08.215.126.126,0,0,0,.193.35" transform="translate(8.117 2.24) rotate(38.5)"/></g></g><g transform="translate(-18900 -4158)"><path class="n" d="M0-31.5V0H15.75" transform="translate(-9.734 -1.542) rotate(18)"/><path class="n" d="M0,31.5V0H15.75" transform="translate(9.734 -1.542) rotate(162)"/><g transform="rotate(72)"><path class="n" d="M0-31.5V0H15.75" transform="translate(-9.734 -1.542) rotate(18)"/><path class="n" d="M0,31.5V0H15.75" transform="translate(9.734 -1.542) rotate(162)"/></g><g transform="rotate(-72)"><path class="n" d="M0-31.5V0H15.75" transform="translate(-9.734 -1.542) rotate(18)"/><path class="n" d="M0,31.5V0H15.75" transform="translate(9.734 -1.542) rotate(162)"/></g><g transform="matrix(-0.809, 0.588, -0.588, -0.809, 0, 0)"><path class="n" d="M0-31.5V0H15.75" transform="translate(-9.734 -1.542) rotate(18)"/><path class="n" d="M0,31.5V0H15.75" transform="translate(9.734 -1.542) rotate(162)"/></g><g transform="matrix(-0.809, -0.588, 0.588, -0.809, 0, 0)"><path class="n" d="M0-31.5V0H15.75" transform="translate(-9.734 -1.542) rotate(18)"/><path class="n" d="M0,31.5V0H15.75" transform="translate(9.734 -1.542) rotate(162)"/></g></g><g transform="translate(-16852.5 5575.5)"><path class="n" d="M0-31.5V0H15.75" transform="translate(-9.734 -1.542) rotate(18)"/><path class="n" d="M0,31.5V0H15.75" transform="translate(9.734 -1.542) rotate(162)"/><g transform="rotate(72)"><path class="n" d="M0-31.5V0H15.75" transform="translate(-9.734 -1.542) rotate(18)"/><path class="n" d="M0,31.5V0H15.75" transform="translate(9.734 -1.542) rotate(162)"/></g><g transform="rotate(-72)"><path class="n" d="M0-31.5V0H15.75" transform="translate(-9.734 -1.542) rotate(18)"/><path class="n" d="M0,31.5V0H15.75" transform="translate(9.734 -1.542) rotate(162)"/></g><g transform="matrix(-0.809, 0.588, -0.588, -0.809, 0, 0)"><path class="n" d="M0-31.5V0H15.75" transform="translate(-9.734 -1.542) rotate(18)"/><path class="n" d="M0,31.5V0H15.75" transform="translate(9.734 -1.542) rotate(162)"/></g><g transform="matrix(-0.809, -0.588, 0.588, -0.809, 0, 0)"><path class="n" d="M0-31.5V0H15.75" transform="translate(-9.734 -1.542) rotate(18)"/><path class="n" d="M0,31.5V0H15.75" transform="translate(9.734 -1.542) rotate(162)"/></g></g><g transform="translate(-16406.25 6378.75)"><path class="n" d="M0-26.25V0H13.125" transform="translate(-8.112 -1.285) rotate(18)"/><path class="n" d="M0,26.25V0H13.125" transform="translate(8.112 -1.285) rotate(162)"/><g transform="rotate(72)"><path class="n" d="M0-26.25V0H13.125" transform="translate(-8.112 -1.285) rotate(18)"/><path class="n" d="M0,26.25V0H13.125" transform="translate(8.112 -1.285) rotate(162)"/></g><g transform="rotate(-72)"><path class="n" d="M0-26.25V0H13.125" transform="translate(-8.112 -1.285) rotate(18)"/><path class="n" d="M0,26.25V0H13.125" transform="translate(8.112 -1.285) rotate(162)"/></g><g transform="matrix(-0.809, 0.588, -0.588, -0.809, 0, 0)"><path class="n" d="M0-26.25V0H13.125" transform="translate(-8.112 -1.285) rotate(18)"/><path class="n" d="M0,26.25V0H13.125" transform="translate(8.112 -1.285) rotate(162)"/></g><g transform="matrix(-0.809, -0.588, 0.588, -0.809, 0, 0)"><path class="n" d="M0-26.25V0H13.125" transform="translate(-8.112 -1.285) rotate(18)"/><path class="n" d="M0,26.25V0H13.125" transform="translate(8.112 -1.285) rotate(162)"/></g></g><g transform="translate(-6945 1980)"><path class="n" d="M0-15V0H7.5" transform="translate(-4.635 -0.734) rotate(18)"/><path class="n" d="M0,15V0H7.5" transform="translate(4.635 -0.734) rotate(162)"/><g transform="rotate(72)"><path class="n" d="M0-15V0H7.5" transform="translate(-4.635 -0.734) rotate(18)"/><path class="n" d="M0,15V0H7.5" transform="translate(4.635 -0.734) rotate(162)"/></g><g transform="rotate(-72)"><path class="n" d="M0-15V0H7.5" transform="translate(-4.635 -0.734) rotate(18)"/><path class="n" d="M0,15V0H7.5" transform="translate(4.635 -0.734) rotate(162)"/></g><g transform="matrix(-0.809, 0.588, -0.588, -0.809, 0, 0)"><path class="n" d="M0-15V0H7.5" transform="translate(-4.635 -0.734) rotate(18)"/><path class="n" d="M0,15V0H7.5" transform="translate(4.635 -0.734) rotate(162)"/></g><g transform="matrix(-0.809, -0.588, 0.588, -0.809, 0, 0)"><path class="n" d="M0-15V0H7.5" transform="translate(-4.635 -0.734) rotate(18)"/><path class="n" d="M0,15V0H7.5" transform="translate(4.635 -0.734) rotate(162)"/></g></g><g transform="translate(-10027.5 6562.5)"><path class="n" d="M0-26.25V0H13.125" transform="translate(-8.112 -1.285) rotate(18)"/><path class="n" d="M0,26.25V0H13.125" transform="translate(8.112 -1.285) rotate(162)"/><g transform="rotate(72)"><path class="n" d="M0-26.25V0H13.125" transform="translate(-8.112 -1.285) rotate(18)"/><path class="n" d="M0,26.25V0H13.125" transform="translate(8.112 -1.285) rotate(162)"/></g><g transform="rotate(-72)"><path class="n" d="M0-26.25V0H13.125" transform="translate(-8.112 -1.285) rotate(18)"/><path class="n" d="M0,26.25V0H13.125" transform="translate(8.112 -1.285) rotate(162)"/></g><g transform="matrix(-0.809, 0.588, -0.588, -0.809, 0, 0)"><path class="n" d="M0-26.25V0H13.125" transform="translate(-8.112 -1.285) rotate(18)"/><path class="n" d="M0,26.25V0H13.125" transform="translate(8.112 -1.285) rotate(162)"/></g><g transform="matrix(-0.809, -0.588, 0.588, -0.809, 0, 0)"><path class="n" d="M0-26.25V0H13.125" transform="translate(-8.112 -1.285) rotate(18)"/><path class="n" d="M0,26.25V0H13.125" transform="translate(8.112 -1.285) rotate(162)"/></g></g><g transform="translate(-8484 6783)"><path class="n" d="M0-21V0H10.5" transform="translate(-6.489 -1.028) rotate(18)"/><path class="n" d="M0,21V0H10.5" transform="translate(6.489 -1.028) rotate(162)"/><g transform="rotate(72)"><path class="n" d="M0-21V0H10.5" transform="translate(-6.489 -1.028) rotate(18)"/><path class="n" d="M0,21V0H10.5" transform="translate(6.489 -1.028) rotate(162)"/></g><g transform="rotate(-72)"><path class="n" d="M0-21V0H10.5" transform="translate(-6.489 -1.028) rotate(18)"/><path class="n" d="M0,21V0H10.5" transform="translate(6.489 -1.028) rotate(162)"/></g><g transform="matrix(-0.809, 0.588, -0.588, -0.809, 0, 0)"><path class="n" d="M0-21V0H10.5" transform="translate(-6.489 -1.028) rotate(18)"/><path class="n" d="M0,21V0H10.5" transform="translate(6.489 -1.028) rotate(162)"/></g><g transform="matrix(-0.809, -0.588, 0.588, -0.809, 0, 0)"><path class="n" d="M0-21V0H10.5" transform="translate(-6.489 -1.028) rotate(18)"/><path class="n" d="M0,21V0H10.5" transform="translate(6.489 -1.028) rotate(162)"/></g></g><g transform="translate(7182 -7182)"><path class="n" d="M0-31.5V0H15.75" transform="translate(-9.734 -1.542) rotate(18)"/><path class="n" d="M0,31.5V0H15.75" transform="translate(9.734 -1.542) rotate(162)"/><g transform="rotate(72)"><path class="n" d="M0-31.5V0H15.75" transform="translate(-9.734 -1.542) rotate(18)"/><path class="n" d="M0,31.5V0H15.75" transform="translate(9.734 -1.542) rotate(162)"/></g><g transform="rotate(-72)"><path class="n" d="M0-31.5V0H15.75" transform="translate(-9.734 -1.542) rotate(18)"/><path class="n" d="M0,31.5V0H15.75" transform="translate(9.734 -1.542) rotate(162)"/></g><g transform="matrix(-0.809, 0.588, -0.588, -0.809, 0, 0)"><path class="n" d="M0-31.5V0H15.75" transform="translate(-9.734 -1.542) rotate(18)"/><path class="n" d="M0,31.5V0H15.75" transform="translate(9.734 -1.542) rotate(162)"/></g><g transform="matrix(-0.809, -0.588, 0.588, -0.809, 0, 0)"><path class="n" d="M0-31.5V0H15.75" transform="translate(-9.734 -1.542) rotate(18)"/><path class="n" d="M0,31.5V0H15.75" transform="translate(9.734 -1.542) rotate(162)"/></g></g><g transform="translate(16222.5 8127)"><path class="n" d="M0-31.5V0H15.75" transform="translate(-9.734 -1.542) rotate(18)"/><path class="n" d="M0,31.5V0H15.75" transform="translate(9.734 -1.542) rotate(162)"/><g transform="rotate(72)"><path class="n" d="M0-31.5V0H15.75" transform="translate(-9.734 -1.542) rotate(18)"/><path class="n" d="M0,31.5V0H15.75" transform="translate(9.734 -1.542) rotate(162)"/></g><g transform="rotate(-72)"><path class="n" d="M0-31.5V0H15.75" transform="translate(-9.734 -1.542) rotate(18)"/><path class="n" d="M0,31.5V0H15.75" transform="translate(9.734 -1.542) rotate(162)"/></g><g transform="matrix(-0.809, 0.588, -0.588, -0.809, 0, 0)"><path class="n" d="M0-31.5V0H15.75" transform="translate(-9.734 -1.542) rotate(18)"/><path class="n" d="M0,31.5V0H15.75" transform="translate(9.734 -1.542) rotate(162)"/></g><g transform="matrix(-0.809, -0.588, 0.588, -0.809, 0, 0)"><path class="n" d="M0-31.5V0H15.75" transform="translate(-9.734 -1.542) rotate(18)"/><path class="n" d="M0,31.5V0H15.75" transform="translate(9.734 -1.542) rotate(162)"/></g></g><g transform="translate(12957 5565)"><path class="n" d="M0-21V0H10.5" transform="translate(-6.489 -1.028) rotate(18)"/><path class="n" d="M0,21V0H10.5" transform="translate(6.489 -1.028) rotate(162)"/><g transform="rotate(72)"><path class="n" d="M0-21V0H10.5" transform="translate(-6.489 -1.028) rotate(18)"/><path class="n" d="M0,21V0H10.5" transform="translate(6.489 -1.028) rotate(162)"/></g><g transform="rotate(-72)"><path class="n" d="M0-21V0H10.5" transform="translate(-6.489 -1.028) rotate(18)"/><path class="n" d="M0,21V0H10.5" transform="translate(6.489 -1.028) rotate(162)"/></g><g transform="matrix(-0.809, 0.588, -0.588, -0.809, 0, 0)"><path class="n" d="M0-21V0H10.5" transform="translate(-6.489 -1.028) rotate(18)"/><path class="n" d="M0,21V0H10.5" transform="translate(6.489 -1.028) rotate(162)"/></g><g transform="matrix(-0.809, -0.588, 0.588, -0.809, 0, 0)"><path class="n" d="M0-21V0H10.5" transform="translate(-6.489 -1.028) rotate(18)"/><path class="n" d="M0,21V0H10.5" transform="translate(6.489 -1.028) rotate(162)"/></g></g><g transform="translate(14306.25 8478.75)"><path class="n" d="M0-26.25V0H13.125" transform="translate(-8.112 -1.285) rotate(18)"/><path class="n" d="M0,26.25V0H13.125" transform="translate(8.112 -1.285) rotate(162)"/><g transform="rotate(72)"><path class="n" d="M0-26.25V0H13.125" transform="translate(-8.112 -1.285) rotate(18)"/><path class="n" d="M0,26.25V0H13.125" transform="translate(8.112 -1.285) rotate(162)"/></g><g transform="rotate(-72)"><path class="n" d="M0-26.25V0H13.125" transform="translate(-8.112 -1.285) rotate(18)"/><path class="n" d="M0,26.25V0H13.125" transform="translate(8.112 -1.285) rotate(162)"/></g><g transform="matrix(-0.809, 0.588, -0.588, -0.809, 0, 0)"><path class="n" d="M0-26.25V0H13.125" transform="translate(-8.112 -1.285) rotate(18)"/><path class="n" d="M0,26.25V0H13.125" transform="translate(8.112 -1.285) rotate(162)"/></g><g transform="matrix(-0.809, -0.588, 0.588, -0.809, 0, 0)"><path class="n" d="M0-26.25V0H13.125" transform="translate(-8.112 -1.285) rotate(18)"/><path class="n" d="M0,26.25V0H13.125" transform="translate(8.112 -1.285) rotate(162)"/></g></g><g transform="translate(9660 12521.25)"><path class="n" d="M0-26.25V0H13.125" transform="translate(-8.112 -1.285) rotate(18)"/><path class="n" d="M0,26.25V0H13.125" transform="translate(8.112 -1.285) rotate(162)"/><g transform="rotate(72)"><path class="n" d="M0-26.25V0H13.125" transform="translate(-8.112 -1.285) rotate(18)"/><path class="n" d="M0,26.25V0H13.125" transform="translate(8.112 -1.285) rotate(162)"/></g><g transform="rotate(-72)"><path class="n" d="M0-26.25V0H13.125" transform="translate(-8.112 -1.285) rotate(18)"/><path class="n" d="M0,26.25V0H13.125" transform="translate(8.112 -1.285) rotate(162)"/></g><g transform="matrix(-0.809, 0.588, -0.588, -0.809, 0, 0)"><path class="n" d="M0-26.25V0H13.125" transform="translate(-8.112 -1.285) rotate(18)"/><path class="n" d="M0,26.25V0H13.125" transform="translate(8.112 -1.285) rotate(162)"/></g><g transform="matrix(-0.809, -0.588, 0.588, -0.809, 0, 0)"><path class="n" d="M0-26.25V0H13.125" transform="translate(-8.112 -1.285) rotate(18)"/><path class="n" d="M0,26.25V0H13.125" transform="translate(8.112 -1.285) rotate(162)"/></g></g><g transform="translate(7707 11571)"><path class="n" d="M0-21V0H10.5" transform="translate(-6.489 -1.028) rotate(18)"/><path class="n" d="M0,21V0H10.5" transform="translate(6.489 -1.028) rotate(162)"/><g transform="rotate(72)"><path class="n" d="M0-21V0H10.5" transform="translate(-6.489 -1.028) rotate(18)"/><path class="n" d="M0,21V0H10.5" transform="translate(6.489 -1.028) rotate(162)"/></g><g transform="rotate(-72)"><path class="n" d="M0-21V0H10.5" transform="translate(-6.489 -1.028) rotate(18)"/><path class="n" d="M0,21V0H10.5" transform="translate(6.489 -1.028) rotate(162)"/></g><g transform="matrix(-0.809, 0.588, -0.588, -0.809, 0, 0)"><path class="n" d="M0-21V0H10.5" transform="translate(-6.489 -1.028) rotate(18)"/><path class="n" d="M0,21V0H10.5" transform="translate(6.489 -1.028) rotate(162)"/></g><g transform="matrix(-0.809, -0.588, 0.588, -0.809, 0, 0)"><path class="n" d="M0-21V0H10.5" transform="translate(-6.489 -1.028) rotate(18)"/><path class="n" d="M0,21V0H10.5" transform="translate(6.489 -1.028) rotate(162)"/></g></g><g transform="translate(9261 8799)"><path class="n" d="M0-21V0H10.5" transform="translate(-6.489 -1.028) rotate(18)"/><path class="n" d="M0,21V0H10.5" transform="translate(6.489 -1.028) rotate(162)"/><g transform="rotate(72)"><path class="n" d="M0-21V0H10.5" transform="translate(-6.489 -1.028) rotate(18)"/><path class="n" d="M0,21V0H10.5" transform="translate(6.489 -1.028) rotate(162)"/></g><g transform="rotate(-72)"><path class="n" d="M0-21V0H10.5" transform="translate(-6.489 -1.028) rotate(18)"/><path class="n" d="M0,21V0H10.5" transform="translate(6.489 -1.028) rotate(162)"/></g><g transform="matrix(-0.809, 0.588, -0.588, -0.809, 0, 0)"><path class="n" d="M0-21V0H10.5" transform="translate(-6.489 -1.028) rotate(18)"/><path class="n" d="M0,21V0H10.5" transform="translate(6.489 -1.028) rotate(162)"/></g><g transform="matrix(-0.809, -0.588, 0.588, -0.809, 0, 0)"><path class="n" d="M0-21V0H10.5" transform="translate(-6.489 -1.028) rotate(18)"/><path class="n" d="M0,21V0H10.5" transform="translate(6.489 -1.028) rotate(162)"/></g></g><g transform="translate(13125 10027.5)"><path class="n" d="M0-26.25V0H13.125" transform="translate(-8.112 -1.285) rotate(18)"/><path class="n" d="M0,26.25V0H13.125" transform="translate(8.112 -1.285) rotate(162)"/><g transform="rotate(72)"><path class="n" d="M0-26.25V0H13.125" transform="translate(-8.112 -1.285) rotate(18)"/><path class="n" d="M0,26.25V0H13.125" transform="translate(8.112 -1.285) rotate(162)"/></g><g transform="rotate(-72)"><path class="n" d="M0-26.25V0H13.125" transform="translate(-8.112 -1.285) rotate(18)"/><path class="n" d="M0,26.25V0H13.125" transform="translate(8.112 -1.285) rotate(162)"/></g><g transform="matrix(-0.809, 0.588, -0.588, -0.809, 0, 0)"><path class="n" d="M0-26.25V0H13.125" transform="translate(-8.112 -1.285) rotate(18)"/><path class="n" d="M0,26.25V0H13.125" transform="translate(8.112 -1.285) rotate(162)"/></g><g transform="matrix(-0.809, -0.588, 0.588, -0.809, 0, 0)"><path class="n" d="M0-26.25V0H13.125" transform="translate(-8.112 -1.285) rotate(18)"/><path class="n" d="M0,26.25V0H13.125" transform="translate(8.112 -1.285) rotate(162)"/></g></g><g transform="translate(7665 8505)"><path class="n" d="M0-21V0H10.5" transform="translate(-6.489 -1.028) rotate(18)"/><path class="n" d="M0,21V0H10.5" transform="translate(6.489 -1.028) rotate(162)"/><g transform="rotate(72)"><path class="n" d="M0-21V0H10.5" transform="translate(-6.489 -1.028) rotate(18)"/><path class="n" d="M0,21V0H10.5" transform="translate(6.489 -1.028) rotate(162)"/></g><g transform="rotate(-72)"><path class="n" d="M0-21V0H10.5" transform="translate(-6.489 -1.028) rotate(18)"/><path class="n" d="M0,21V0H10.5" transform="translate(6.489 -1.028) rotate(162)"/></g><g transform="matrix(-0.809, 0.588, -0.588, -0.809, 0, 0)"><path class="n" d="M0-21V0H10.5" transform="translate(-6.489 -1.028) rotate(18)"/><path class="n" d="M0,21V0H10.5" transform="translate(6.489 -1.028) rotate(162)"/></g><g transform="matrix(-0.809, -0.588, 0.588, -0.809, 0, 0)"><path class="n" d="M0-21V0H10.5" transform="translate(-6.489 -1.028) rotate(18)"/><path class="n" d="M0,21V0H10.5" transform="translate(6.489 -1.028) rotate(162)"/></g></g><g transform="translate(-7350 787.5)"><path class="n" d="M0-26.25V0H13.125" transform="translate(-8.112 -1.285) rotate(18)"/><path class="n" d="M0,26.25V0H13.125" transform="translate(8.112 -1.285) rotate(162)"/><g transform="rotate(72)"><path class="n" d="M0-26.25V0H13.125" transform="translate(-8.112 -1.285) rotate(18)"/><path class="n" d="M0,26.25V0H13.125" transform="translate(8.112 -1.285) rotate(162)"/></g><g transform="rotate(-72)"><path class="n" d="M0-26.25V0H13.125" transform="translate(-8.112 -1.285) rotate(18)"/><path class="n" d="M0,26.25V0H13.125" transform="translate(8.112 -1.285) rotate(162)"/></g><g transform="matrix(-0.809, 0.588, -0.588, -0.809, 0, 0)"><path class="n" d="M0-26.25V0H13.125" transform="translate(-8.112 -1.285) rotate(18)"/><path class="n" d="M0,26.25V0H13.125" transform="translate(8.112 -1.285) rotate(162)"/></g><g transform="matrix(-0.809, -0.588, 0.588, -0.809, 0, 0)"><path class="n" d="M0-26.25V0H13.125" transform="translate(-8.112 -1.285) rotate(18)"/><path class="n" d="M0,26.25V0H13.125" transform="translate(8.112 -1.285) rotate(162)"/></g></g><g transform="translate(4200 -777)"><path class="n" d="M0-21V0H10.5" transform="translate(-6.489 -1.028) rotate(18)"/><path class="n" d="M0,21V0H10.5" transform="translate(6.489 -1.028) rotate(162)"/><g transform="rotate(72)"><path class="n" d="M0-21V0H10.5" transform="translate(-6.489 -1.028) rotate(18)"/><path class="n" d="M0,21V0H10.5" transform="translate(6.489 -1.028) rotate(162)"/></g><g transform="rotate(-72)"><path class="n" d="M0-21V0H10.5" transform="translate(-6.489 -1.028) rotate(18)"/><path class="n" d="M0,21V0H10.5" transform="translate(6.489 -1.028) rotate(162)"/></g><g transform="matrix(-0.809, 0.588, -0.588, -0.809, 0, 0)"><path class="n" d="M0-21V0H10.5" transform="translate(-6.489 -1.028) rotate(18)"/><path class="n" d="M0,21V0H10.5" transform="translate(6.489 -1.028) rotate(162)"/></g><g transform="matrix(-0.809, -0.588, 0.588, -0.809, 0, 0)"><path class="n" d="M0-21V0H10.5" transform="translate(-6.489 -1.028) rotate(18)"/><path class="n" d="M0,21V0H10.5" transform="translate(6.489 -1.028) rotate(162)"/></g></g><g transform="translate(0 10395)"><path class="n" d="M0-31.5V0H15.75" transform="translate(-9.734 -1.542) rotate(18)"/><path class="n" d="M0,31.5V0H15.75" transform="translate(9.734 -1.542) rotate(162)"/><g transform="rotate(72)"><path class="n" d="M0-31.5V0H15.75" transform="translate(-9.734 -1.542) rotate(18)"/><path class="n" d="M0,31.5V0H15.75" transform="translate(9.734 -1.542) rotate(162)"/></g><g transform="rotate(-72)"><path class="n" d="M0-31.5V0H15.75" transform="translate(-9.734 -1.542) rotate(18)"/><path class="n" d="M0,31.5V0H15.75" transform="translate(9.734 -1.542) rotate(162)"/></g><g transform="matrix(-0.809, 0.588, -0.588, -0.809, 0, 0)"><path class="n" d="M0-31.5V0H15.75" transform="translate(-9.734 -1.542) rotate(18)"/><path class="n" d="M0,31.5V0H15.75" transform="translate(9.734 -1.542) rotate(162)"/></g><g transform="matrix(-0.809, -0.588, 0.588, -0.809, 0, 0)"><path class="n" d="M0-31.5V0H15.75" transform="translate(-9.734 -1.542) rotate(18)"/><path class="n" d="M0,31.5V0H15.75" transform="translate(9.734 -1.542) rotate(162)"/></g></g><g transform="translate(2231.25 4830)"><path class="n" d="M0-26.25V0H13.125" transform="translate(-8.112 -1.285) rotate(18)"/><path class="n" d="M0,26.25V0H13.125" transform="translate(8.112 -1.285) rotate(162)"/><g transform="rotate(72)"><path class="n" d="M0-26.25V0H13.125" transform="translate(-8.112 -1.285) rotate(18)"/><path class="n" d="M0,26.25V0H13.125" transform="translate(8.112 -1.285) rotate(162)"/></g><g transform="rotate(-72)"><path class="n" d="M0-26.25V0H13.125" transform="translate(-8.112 -1.285) rotate(18)"/><path class="n" d="M0,26.25V0H13.125" transform="translate(8.112 -1.285) rotate(162)"/></g><g transform="matrix(-0.809, 0.588, -0.588, -0.809, 0, 0)"><path class="n" d="M0-26.25V0H13.125" transform="translate(-8.112 -1.285) rotate(18)"/><path class="n" d="M0,26.25V0H13.125" transform="translate(8.112 -1.285) rotate(162)"/></g><g transform="matrix(-0.809, -0.588, 0.588, -0.809, 0, 0)"><path class="n" d="M0-26.25V0H13.125" transform="translate(-8.112 -1.285) rotate(18)"/><path class="n" d="M0,26.25V0H13.125" transform="translate(8.112 -1.285) rotate(162)"/></g></g><g transform="translate(0 3097.5)"><path class="n" d="M0-26.25V0H13.125" transform="translate(-8.112 -1.285) rotate(18)"/><path class="n" d="M0,26.25V0H13.125" transform="translate(8.112 -1.285) rotate(162)"/><g transform="rotate(72)"><path class="n" d="M0-26.25V0H13.125" transform="translate(-8.112 -1.285) rotate(18)"/><path class="n" d="M0,26.25V0H13.125" transform="translate(8.112 -1.285) rotate(162)"/></g><g transform="rotate(-72)"><path class="n" d="M0-26.25V0H13.125" transform="translate(-8.112 -1.285) rotate(18)"/><path class="n" d="M0,26.25V0H13.125" transform="translate(8.112 -1.285) rotate(162)"/></g><g transform="matrix(-0.809, 0.588, -0.588, -0.809, 0, 0)"><path class="n" d="M0-26.25V0H13.125" transform="translate(-8.112 -1.285) rotate(18)"/><path class="n" d="M0,26.25V0H13.125" transform="translate(8.112 -1.285) rotate(162)"/></g><g transform="matrix(-0.809, -0.588, 0.588, -0.809, 0, 0)"><path class="n" d="M0-26.25V0H13.125" transform="translate(-8.112 -1.285) rotate(18)"/><path class="n" d="M0,26.25V0H13.125" transform="translate(8.112 -1.285) rotate(162)"/></g></g><g transform="translate(-1554 3864)"><path class="n" d="M0-21V0H10.5" transform="translate(-6.489 -1.028) rotate(18)"/><path class="n" d="M0,21V0H10.5" transform="translate(6.489 -1.028) rotate(162)"/><g transform="rotate(72)"><path class="n" d="M0-21V0H10.5" transform="translate(-6.489 -1.028) rotate(18)"/><path class="n" d="M0,21V0H10.5" transform="translate(6.489 -1.028) rotate(162)"/></g><g transform="rotate(-72)"><path class="n" d="M0-21V0H10.5" transform="translate(-6.489 -1.028) rotate(18)"/><path class="n" d="M0,21V0H10.5" transform="translate(6.489 -1.028) rotate(162)"/></g><g transform="matrix(-0.809, 0.588, -0.588, -0.809, 0, 0)"><path class="n" d="M0-21V0H10.5" transform="translate(-6.489 -1.028) rotate(18)"/><path class="n" d="M0,21V0H10.5" transform="translate(6.489 -1.028) rotate(162)"/></g><g transform="matrix(-0.809, -0.588, 0.588, -0.809, 0, 0)"><path class="n" d="M0-21V0H10.5" transform="translate(-6.489 -1.028) rotate(18)"/><path class="n" d="M0,21V0H10.5" transform="translate(6.489 -1.028) rotate(162)"/></g></g><g transform="translate(-555 3525)"><path class="n" d="M0-15V0H7.5" transform="translate(-4.635 -0.734) rotate(18)"/><path class="n" d="M0,15V0H7.5" transform="translate(4.635 -0.734) rotate(162)"/><g transform="rotate(72)"><path class="n" d="M0-15V0H7.5" transform="translate(-4.635 -0.734) rotate(18)"/><path class="n" d="M0,15V0H7.5" transform="translate(4.635 -0.734) rotate(162)"/></g><g transform="rotate(-72)"><path class="n" d="M0-15V0H7.5" transform="translate(-4.635 -0.734) rotate(18)"/><path class="n" d="M0,15V0H7.5" transform="translate(4.635 -0.734) rotate(162)"/></g><g transform="matrix(-0.809, 0.588, -0.588, -0.809, 0, 0)"><path class="n" d="M0-15V0H7.5" transform="translate(-4.635 -0.734) rotate(18)"/><path class="n" d="M0,15V0H7.5" transform="translate(4.635 -0.734) rotate(162)"/></g><g transform="matrix(-0.809, -0.588, 0.588, -0.809, 0, 0)"><path class="n" d="M0-15V0H7.5" transform="translate(-4.635 -0.734) rotate(18)"/><path class="n" d="M0,15V0H7.5" transform="translate(4.635 -0.734) rotate(162)"/></g></g><g transform="translate(5775 12993.75)"><path class="n" d="M0-26.25V0H13.125" transform="translate(-8.112 -1.285) rotate(18)"/><path class="n" d="M0,26.25V0H13.125" transform="translate(8.112 -1.285) rotate(162)"/><g transform="rotate(72)"><path class="n" d="M0-26.25V0H13.125" transform="translate(-8.112 -1.285) rotate(18)"/><path class="n" d="M0,26.25V0H13.125" transform="translate(8.112 -1.285) rotate(162)"/></g><g transform="rotate(-72)"><path class="n" d="M0-26.25V0H13.125" transform="translate(-8.112 -1.285) rotate(18)"/><path class="n" d="M0,26.25V0H13.125" transform="translate(8.112 -1.285) rotate(162)"/></g><g transform="matrix(-0.809, 0.588, -0.588, -0.809, 0, 0)"><path class="n" d="M0-26.25V0H13.125" transform="translate(-8.112 -1.285) rotate(18)"/><path class="n" d="M0,26.25V0H13.125" transform="translate(8.112 -1.285) rotate(162)"/></g><g transform="matrix(-0.809, -0.588, 0.588, -0.809, 0, 0)"><path class="n" d="M0-26.25V0H13.125" transform="translate(-8.112 -1.285) rotate(18)"/><path class="n" d="M0,26.25V0H13.125" transform="translate(8.112 -1.285) rotate(162)"/></g></g><g transform="translate(5943 9030)"><path class="n" d="M0-21V0H10.5" transform="translate(-6.489 -1.028) rotate(18)"/><path class="n" d="M0,21V0H10.5" transform="translate(6.489 -1.028) rotate(162)"/><g transform="rotate(72)"><path class="n" d="M0-21V0H10.5" transform="translate(-6.489 -1.028) rotate(18)"/><path class="n" d="M0,21V0H10.5" transform="translate(6.489 -1.028) rotate(162)"/></g><g transform="rotate(-72)"><path class="n" d="M0-21V0H10.5" transform="translate(-6.489 -1.028) rotate(18)"/><path class="n" d="M0,21V0H10.5" transform="translate(6.489 -1.028) rotate(162)"/></g><g transform="matrix(-0.809, 0.588, -0.588, -0.809, 0, 0)"><path class="n" d="M0-21V0H10.5" transform="translate(-6.489 -1.028) rotate(18)"/><path class="n" d="M0,21V0H10.5" transform="translate(6.489 -1.028) rotate(162)"/></g><g transform="matrix(-0.809, -0.588, 0.588, -0.809, 0, 0)"><path class="n" d="M0-21V0H10.5" transform="translate(-6.489 -1.028) rotate(18)"/><path class="n" d="M0,21V0H10.5" transform="translate(6.489 -1.028) rotate(162)"/></g></g><g transform="translate(3402 8652)"><path class="n" d="M0-21V0H10.5" transform="translate(-6.489 -1.028) rotate(18)"/><path class="n" d="M0,21V0H10.5" transform="translate(6.489 -1.028) rotate(162)"/><g transform="rotate(72)"><path class="n" d="M0-21V0H10.5" transform="translate(-6.489 -1.028) rotate(18)"/><path class="n" d="M0,21V0H10.5" transform="translate(6.489 -1.028) rotate(162)"/></g><g transform="rotate(-72)"><path class="n" d="M0-21V0H10.5" transform="translate(-6.489 -1.028) rotate(18)"/><path class="n" d="M0,21V0H10.5" transform="translate(6.489 -1.028) rotate(162)"/></g><g transform="matrix(-0.809, 0.588, -0.588, -0.809, 0, 0)"><path class="n" d="M0-21V0H10.5" transform="translate(-6.489 -1.028) rotate(18)"/><path class="n" d="M0,21V0H10.5" transform="translate(6.489 -1.028) rotate(162)"/></g><g transform="matrix(-0.809, -0.588, 0.588, -0.809, 0, 0)"><path class="n" d="M0-21V0H10.5" transform="translate(-6.489 -1.028) rotate(18)"/><path class="n" d="M0,21V0H10.5" transform="translate(6.489 -1.028) rotate(162)"/></g></g><g transform="translate(-9292.5 12285)"><path class="n" d="M0-31.5V0H15.75" transform="translate(-9.734 -1.542) rotate(18)"/><path class="n" d="M0,31.5V0H15.75" transform="translate(9.734 -1.542) rotate(162)"/><g transform="rotate(72)"><path class="n" d="M0-31.5V0H15.75" transform="translate(-9.734 -1.542) rotate(18)"/><path class="n" d="M0,31.5V0H15.75" transform="translate(9.734 -1.542) rotate(162)"/></g><g transform="rotate(-72)"><path class="n" d="M0-31.5V0H15.75" transform="translate(-9.734 -1.542) rotate(18)"/><path class="n" d="M0,31.5V0H15.75" transform="translate(9.734 -1.542) rotate(162)"/></g><g transform="matrix(-0.809, 0.588, -0.588, -0.809, 0, 0)"><path class="n" d="M0-31.5V0H15.75" transform="translate(-9.734 -1.542) rotate(18)"/><path class="n" d="M0,31.5V0H15.75" transform="translate(9.734 -1.542) rotate(162)"/></g><g transform="matrix(-0.809, -0.588, 0.588, -0.809, 0, 0)"><path class="n" d="M0-31.5V0H15.75" transform="translate(-9.734 -1.542) rotate(18)"/><path class="n" d="M0,31.5V0H15.75" transform="translate(9.734 -1.542) rotate(162)"/></g></g><g transform="translate(0 6037.5)"><path class="n" d="M0-10.5V0H5.25" transform="translate(-3.245 -0.514) rotate(18)"/><path class="n" d="M0,10.5V0H5.25" transform="translate(3.245 -0.514) rotate(162)"/><g transform="rotate(72)"><path class="n" d="M0-10.5V0H5.25" transform="translate(-3.245 -0.514) rotate(18)"/><path class="n" d="M0,10.5V0H5.25" transform="translate(3.245 -0.514) rotate(162)"/></g><g transform="rotate(-72)"><path class="n" d="M0-10.5V0H5.25" transform="translate(-3.245 -0.514) rotate(18)"/><path class="n" d="M0,10.5V0H5.25" transform="translate(3.245 -0.514) rotate(162)"/></g><g transform="matrix(-0.809, 0.588, -0.588, -0.809, 0, 0)"><path class="n" d="M0-10.5V0H5.25" transform="translate(-3.245 -0.514) rotate(18)"/><path class="n" d="M0,10.5V0H5.25" transform="translate(3.245 -0.514) rotate(162)"/></g><g transform="matrix(-0.809, -0.588, 0.588, -0.809, 0, 0)"><path class="n" d="M0-10.5V0H5.25" transform="translate(-3.245 -0.514) rotate(18)"/><path class="n" d="M0,10.5V0H5.25" transform="translate(3.245 -0.514) rotate(162)"/></g></g></g></g><g transform="translate(-3927 -6196)"><rect class="g" width="1920" height="52"/><g class="d" transform="translate(1625 10.217)"><rect class="ar" width="48" height="32" rx="14"/><rect class="b" x="0.5" y="0.5" width="47" height="31" rx="13.5"/></g><g class="d" transform="translate(1498 10.217)"><rect class="ar" width="116" height="31.566" rx="14"/><rect class="b" x="0.5" y="0.5" width="115" height="30.566" rx="13.5"/></g><text class="q" transform="translate(1532 34)"><tspan x="0" y="0">Entrar</tspan></text><g transform="translate(2430.588 2225.5)"><g transform="translate(1305.96 -738.273)"><rect class="j" width="24" height="18.046" transform="translate(-2100 -1470)"/><path class="k" d="M-1743-1106.168l9.809,6.832,9.809-6.832-9.809-6.832Z" transform="translate(-354.809 -354.809)"/><circle class="l" cx="4.512" cy="4.512" r="4.512" transform="translate(-2092.511 -1465.488)"/><g class="r" transform="translate(-2092.511 -1465.488)"><path class="n" d="M-2205-304.043A10.957,10.957,0,0,1-2194.043-315a10.957,10.957,0,0,1,10.957,10.957h-.645a10.312,10.312,0,0,0-10.312-10.312,10.312,10.312,0,0,0-10.312,10.312Z" transform="translate(2195.977 317.578)"/></g><g transform="translate(-2092.104 -1462.805)"><path class="s" d="M.193.43A.2.2,0,0,0,.387.215.2.2,0,0,0,.193,0,.2.2,0,0,0,0,.215.2.2,0,0,0,.193.43m0-.08A.126.126,0,0,0,.307.215.126.126,0,0,0,.193.08.126.126,0,0,0,.08.215.126.126,0,0,0,.193.35" transform="translate(0 0.106) rotate(-7)"/><g transform="translate(0.564 0.042) rotate(-4)"><path class="t" d="M0,.43H.08V.27H.252a.135.135,0,1,0,0-.27H.006ZM.08.19H.246a.055.055,0,1,0,0-.11H.08Z"/><path d="M.209.2c0-.061,0-.2-.092-.2H0C.135,0,.135.135.135.2" transform="translate(0.157 0.233)"/></g><path class="s" d="M0,.43H.2A.184.184,0,0,0,.387.246V.184A.184.184,0,0,0,.2,0H0ZM.08.35H.2A.117.117,0,0,0,.313.233V.2A.117.117,0,0,0,.2.08H.08Z" transform="translate(1.131 0.007) rotate(-1)"/><path class="j" d="M0,.43H.387V.35H.074V.239H.319V.166H.074V.08H.368V0H0Z" transform="translate(1.7 0.002) rotate(2)"/><path class="j" d="M0,.43H.074V.135L.16.43H.227L.313.135V.43H.387V0H.279L.193.295.107,0H0Z" transform="translate(2.267 0.026) rotate(5)"/><path class="j" d="M0,.387H.322V.313H.074v-.1h.2V.141h-.2V.074H.315V0H0Z" transform="translate(3.185 0.173) rotate(9.75)"/><path class="s" d="M0,.43H.08V.27H.252a.135.135,0,1,0,0-.27H.006ZM.08.19H.246a.055.055,0,1,0,0-.11H.08Z" transform="matrix(0.968, 0.25, -0.25, 0.968, 4.043, 0.299)"/><g transform="translate(4.592 0.446) rotate(17.5)"><path class="t" d="M0,.43H.08V.27H.252a.135.135,0,1,0,0-.27H.006ZM.08.19H.246a.055.055,0,1,0,0-.11H.08Z" transform="translate(0 0)"/><path d="M.209.2c0-.061,0-.2-.092-.2H0C.135,0,.135.135.135.2" transform="translate(0.157 0.233)"/></g><path class="s" d="M.193.43A.2.2,0,0,0,.387.215.2.2,0,0,0,.193,0,.2.2,0,0,0,0,.215.2.2,0,0,0,.193.43m0-.08A.126.126,0,0,0,.307.215.126.126,0,0,0,.193.08.126.126,0,0,0,.08.215.126.126,0,0,0,.193.35" transform="translate(5.133 0.621) rotate(20.5)"/><g transform="translate(5.663 0.824) rotate(23.5)"><g class="u"><path class="t" d="M.193.43A.2.2,0,0,0,.387.215.2.2,0,0,0,.193,0,.2.2,0,0,0,0,.215.2.2,0,0,0,.193.43m0-.08A.126.126,0,0,0,.307.215.126.126,0,0,0,.193.08.126.126,0,0,0,.08.215.126.126,0,0,0,.193.35" transform="translate(0 0)"/></g><rect width="0.163" height="0.061" transform="translate(0.224 0.215)"/><rect width="0.061" height="0.215" transform="translate(0.325 0.215)"/></g><g transform="translate(6.182 1.055) rotate(26.5)"><path class="t" d="M0,.43H.08V.27H.252a.135.135,0,1,0,0-.27H.006ZM.08.19H.246a.055.055,0,1,0,0-.11H.08Z" transform="translate(0 0)"/><path d="M.209.2c0-.061,0-.2-.092-.2H0C.135,0,.135.135.135.2" transform="translate(0.157 0.233)"/></g><path class="j" d="M0,.43H.387V.35H.074V.239H.319V.166H.074V.08H.368V0H0Z" transform="translate(6.688 1.313) rotate(29.5)"/><path class="j" d="M.1.295C.1.338.138.359.2.359S.29.339.29.312C.29.224,0,.279,0,.126.006-.006.157,0,.212,0S.371.025.37.13H.276C.276.084.233.068.184.068S.1.075.1.12C.1.192.387.144.387.3.387.408.276.43.193.43S0,.4,0,.295Z" transform="translate(7.18 1.597) rotate(32.5)"/><path class="j" d="M.1.295C.1.338.138.359.2.359S.29.339.29.312C.29.224,0,.279,0,.126.006-.006.157,0,.212,0S.371.025.37.13H.276C.276.084.233.068.184.068S.1.075.1.12C.1.192.387.144.387.3.387.408.276.43.193.43S0,.4,0,.295Z" transform="matrix(0.814, 0.581, -0.581, 0.814, 7.657, 1.906)"/><path class="s" d="M.193.43A.2.2,0,0,0,.387.215.2.2,0,0,0,.193,0,.2.2,0,0,0,0,.215.2.2,0,0,0,.193.43m0-.08A.126.126,0,0,0,.307.215.126.126,0,0,0,.193.08.126.126,0,0,0,.08.215.126.126,0,0,0,.193.35" transform="translate(8.117 2.24) rotate(38.5)"/></g></g><g transform="translate(-18900 -4158)"><path class="n" d="M0-31.5V0H15.75" transform="translate(-9.734 -1.542) rotate(18)"/><path class="n" d="M0,31.5V0H15.75" transform="translate(9.734 -1.542) rotate(162)"/><g transform="rotate(72)"><path class="n" d="M0-31.5V0H15.75" transform="translate(-9.734 -1.542) rotate(18)"/><path class="n" d="M0,31.5V0H15.75" transform="translate(9.734 -1.542) rotate(162)"/></g><g transform="rotate(-72)"><path class="n" d="M0-31.5V0H15.75" transform="translate(-9.734 -1.542) rotate(18)"/><path class="n" d="M0,31.5V0H15.75" transform="translate(9.734 -1.542) rotate(162)"/></g><g transform="matrix(-0.809, 0.588, -0.588, -0.809, 0, 0)"><path class="n" d="M0-31.5V0H15.75" transform="translate(-9.734 -1.542) rotate(18)"/><path class="n" d="M0,31.5V0H15.75" transform="translate(9.734 -1.542) rotate(162)"/></g><g transform="matrix(-0.809, -0.588, 0.588, -0.809, 0, 0)"><path class="n" d="M0-31.5V0H15.75" transform="translate(-9.734 -1.542) rotate(18)"/><path class="n" d="M0,31.5V0H15.75" transform="translate(9.734 -1.542) rotate(162)"/></g></g><g transform="translate(-16852.5 5575.5)"><path class="n" d="M0-31.5V0H15.75" transform="translate(-9.734 -1.542) rotate(18)"/><path class="n" d="M0,31.5V0H15.75" transform="translate(9.734 -1.542) rotate(162)"/><g transform="rotate(72)"><path class="n" d="M0-31.5V0H15.75" transform="translate(-9.734 -1.542) rotate(18)"/><path class="n" d="M0,31.5V0H15.75" transform="translate(9.734 -1.542) rotate(162)"/></g><g transform="rotate(-72)"><path class="n" d="M0-31.5V0H15.75" transform="translate(-9.734 -1.542) rotate(18)"/><path class="n" d="M0,31.5V0H15.75" transform="translate(9.734 -1.542) rotate(162)"/></g><g transform="matrix(-0.809, 0.588, -0.588, -0.809, 0, 0)"><path class="n" d="M0-31.5V0H15.75" transform="translate(-9.734 -1.542) rotate(18)"/><path class="n" d="M0,31.5V0H15.75" transform="translate(9.734 -1.542) rotate(162)"/></g><g transform="matrix(-0.809, -0.588, 0.588, -0.809, 0, 0)"><path class="n" d="M0-31.5V0H15.75" transform="translate(-9.734 -1.542) rotate(18)"/><path class="n" d="M0,31.5V0H15.75" transform="translate(9.734 -1.542) rotate(162)"/></g></g><g transform="translate(-16406.25 6378.75)"><path class="n" d="M0-26.25V0H13.125" transform="translate(-8.112 -1.285) rotate(18)"/><path class="n" d="M0,26.25V0H13.125" transform="translate(8.112 -1.285) rotate(162)"/><g transform="rotate(72)"><path class="n" d="M0-26.25V0H13.125" transform="translate(-8.112 -1.285) rotate(18)"/><path class="n" d="M0,26.25V0H13.125" transform="translate(8.112 -1.285) rotate(162)"/></g><g transform="rotate(-72)"><path class="n" d="M0-26.25V0H13.125" transform="translate(-8.112 -1.285) rotate(18)"/><path class="n" d="M0,26.25V0H13.125" transform="translate(8.112 -1.285) rotate(162)"/></g><g transform="matrix(-0.809, 0.588, -0.588, -0.809, 0, 0)"><path class="n" d="M0-26.25V0H13.125" transform="translate(-8.112 -1.285) rotate(18)"/><path class="n" d="M0,26.25V0H13.125" transform="translate(8.112 -1.285) rotate(162)"/></g><g transform="matrix(-0.809, -0.588, 0.588, -0.809, 0, 0)"><path class="n" d="M0-26.25V0H13.125" transform="translate(-8.112 -1.285) rotate(18)"/><path class="n" d="M0,26.25V0H13.125" transform="translate(8.112 -1.285) rotate(162)"/></g></g><g transform="translate(-6945 1980)"><path class="n" d="M0-15V0H7.5" transform="translate(-4.635 -0.734) rotate(18)"/><path class="n" d="M0,15V0H7.5" transform="translate(4.635 -0.734) rotate(162)"/><g transform="rotate(72)"><path class="n" d="M0-15V0H7.5" transform="translate(-4.635 -0.734) rotate(18)"/><path class="n" d="M0,15V0H7.5" transform="translate(4.635 -0.734) rotate(162)"/></g><g transform="rotate(-72)"><path class="n" d="M0-15V0H7.5" transform="translate(-4.635 -0.734) rotate(18)"/><path class="n" d="M0,15V0H7.5" transform="translate(4.635 -0.734) rotate(162)"/></g><g transform="matrix(-0.809, 0.588, -0.588, -0.809, 0, 0)"><path class="n" d="M0-15V0H7.5" transform="translate(-4.635 -0.734) rotate(18)"/><path class="n" d="M0,15V0H7.5" transform="translate(4.635 -0.734) rotate(162)"/></g><g transform="matrix(-0.809, -0.588, 0.588, -0.809, 0, 0)"><path class="n" d="M0-15V0H7.5" transform="translate(-4.635 -0.734) rotate(18)"/><path class="n" d="M0,15V0H7.5" transform="translate(4.635 -0.734) rotate(162)"/></g></g><g transform="translate(-10027.5 6562.5)"><path class="n" d="M0-26.25V0H13.125" transform="translate(-8.112 -1.285) rotate(18)"/><path class="n" d="M0,26.25V0H13.125" transform="translate(8.112 -1.285) rotate(162)"/><g transform="rotate(72)"><path class="n" d="M0-26.25V0H13.125" transform="translate(-8.112 -1.285) rotate(18)"/><path class="n" d="M0,26.25V0H13.125" transform="translate(8.112 -1.285) rotate(162)"/></g><g transform="rotate(-72)"><path class="n" d="M0-26.25V0H13.125" transform="translate(-8.112 -1.285) rotate(18)"/><path class="n" d="M0,26.25V0H13.125" transform="translate(8.112 -1.285) rotate(162)"/></g><g transform="matrix(-0.809, 0.588, -0.588, -0.809, 0, 0)"><path class="n" d="M0-26.25V0H13.125" transform="translate(-8.112 -1.285) rotate(18)"/><path class="n" d="M0,26.25V0H13.125" transform="translate(8.112 -1.285) rotate(162)"/></g><g transform="matrix(-0.809, -0.588, 0.588, -0.809, 0, 0)"><path class="n" d="M0-26.25V0H13.125" transform="translate(-8.112 -1.285) rotate(18)"/><path class="n" d="M0,26.25V0H13.125" transform="translate(8.112 -1.285) rotate(162)"/></g></g><g transform="translate(-8484 6783)"><path class="n" d="M0-21V0H10.5" transform="translate(-6.489 -1.028) rotate(18)"/><path class="n" d="M0,21V0H10.5" transform="translate(6.489 -1.028) rotate(162)"/><g transform="rotate(72)"><path class="n" d="M0-21V0H10.5" transform="translate(-6.489 -1.028) rotate(18)"/><path class="n" d="M0,21V0H10.5" transform="translate(6.489 -1.028) rotate(162)"/></g><g transform="rotate(-72)"><path class="n" d="M0-21V0H10.5" transform="translate(-6.489 -1.028) rotate(18)"/><path class="n" d="M0,21V0H10.5" transform="translate(6.489 -1.028) rotate(162)"/></g><g transform="matrix(-0.809, 0.588, -0.588, -0.809, 0, 0)"><path class="n" d="M0-21V0H10.5" transform="translate(-6.489 -1.028) rotate(18)"/><path class="n" d="M0,21V0H10.5" transform="translate(6.489 -1.028) rotate(162)"/></g><g transform="matrix(-0.809, -0.588, 0.588, -0.809, 0, 0)"><path class="n" d="M0-21V0H10.5" transform="translate(-6.489 -1.028) rotate(18)"/><path class="n" d="M0,21V0H10.5" transform="translate(6.489 -1.028) rotate(162)"/></g></g><g transform="translate(7182 -7182)"><path class="n" d="M0-31.5V0H15.75" transform="translate(-9.734 -1.542) rotate(18)"/><path class="n" d="M0,31.5V0H15.75" transform="translate(9.734 -1.542) rotate(162)"/><g transform="rotate(72)"><path class="n" d="M0-31.5V0H15.75" transform="translate(-9.734 -1.542) rotate(18)"/><path class="n" d="M0,31.5V0H15.75" transform="translate(9.734 -1.542) rotate(162)"/></g><g transform="rotate(-72)"><path class="n" d="M0-31.5V0H15.75" transform="translate(-9.734 -1.542) rotate(18)"/><path class="n" d="M0,31.5V0H15.75" transform="translate(9.734 -1.542) rotate(162)"/></g><g transform="matrix(-0.809, 0.588, -0.588, -0.809, 0, 0)"><path class="n" d="M0-31.5V0H15.75" transform="translate(-9.734 -1.542) rotate(18)"/><path class="n" d="M0,31.5V0H15.75" transform="translate(9.734 -1.542) rotate(162)"/></g><g transform="matrix(-0.809, -0.588, 0.588, -0.809, 0, 0)"><path class="n" d="M0-31.5V0H15.75" transform="translate(-9.734 -1.542) rotate(18)"/><path class="n" d="M0,31.5V0H15.75" transform="translate(9.734 -1.542) rotate(162)"/></g></g><g transform="translate(16222.5 8127)"><path class="n" d="M0-31.5V0H15.75" transform="translate(-9.734 -1.542) rotate(18)"/><path class="n" d="M0,31.5V0H15.75" transform="translate(9.734 -1.542) rotate(162)"/><g transform="rotate(72)"><path class="n" d="M0-31.5V0H15.75" transform="translate(-9.734 -1.542) rotate(18)"/><path class="n" d="M0,31.5V0H15.75" transform="translate(9.734 -1.542) rotate(162)"/></g><g transform="rotate(-72)"><path class="n" d="M0-31.5V0H15.75" transform="translate(-9.734 -1.542) rotate(18)"/><path class="n" d="M0,31.5V0H15.75" transform="translate(9.734 -1.542) rotate(162)"/></g><g transform="matrix(-0.809, 0.588, -0.588, -0.809, 0, 0)"><path class="n" d="M0-31.5V0H15.75" transform="translate(-9.734 -1.542) rotate(18)"/><path class="n" d="M0,31.5V0H15.75" transform="translate(9.734 -1.542) rotate(162)"/></g><g transform="matrix(-0.809, -0.588, 0.588, -0.809, 0, 0)"><path class="n" d="M0-31.5V0H15.75" transform="translate(-9.734 -1.542) rotate(18)"/><path class="n" d="M0,31.5V0H15.75" transform="translate(9.734 -1.542) rotate(162)"/></g></g><g transform="translate(12957 5565)"><path class="n" d="M0-21V0H10.5" transform="translate(-6.489 -1.028) rotate(18)"/><path class="n" d="M0,21V0H10.5" transform="translate(6.489 -1.028) rotate(162)"/><g transform="rotate(72)"><path class="n" d="M0-21V0H10.5" transform="translate(-6.489 -1.028) rotate(18)"/><path class="n" d="M0,21V0H10.5" transform="translate(6.489 -1.028) rotate(162)"/></g><g transform="rotate(-72)"><path class="n" d="M0-21V0H10.5" transform="translate(-6.489 -1.028) rotate(18)"/><path class="n" d="M0,21V0H10.5" transform="translate(6.489 -1.028) rotate(162)"/></g><g transform="matrix(-0.809, 0.588, -0.588, -0.809, 0, 0)"><path class="n" d="M0-21V0H10.5" transform="translate(-6.489 -1.028) rotate(18)"/><path class="n" d="M0,21V0H10.5" transform="translate(6.489 -1.028) rotate(162)"/></g><g transform="matrix(-0.809, -0.588, 0.588, -0.809, 0, 0)"><path class="n" d="M0-21V0H10.5" transform="translate(-6.489 -1.028) rotate(18)"/><path class="n" d="M0,21V0H10.5" transform="translate(6.489 -1.028) rotate(162)"/></g></g><g transform="translate(14306.25 8478.75)"><path class="n" d="M0-26.25V0H13.125" transform="translate(-8.112 -1.285) rotate(18)"/><path class="n" d="M0,26.25V0H13.125" transform="translate(8.112 -1.285) rotate(162)"/><g transform="rotate(72)"><path class="n" d="M0-26.25V0H13.125" transform="translate(-8.112 -1.285) rotate(18)"/><path class="n" d="M0,26.25V0H13.125" transform="translate(8.112 -1.285) rotate(162)"/></g><g transform="rotate(-72)"><path class="n" d="M0-26.25V0H13.125" transform="translate(-8.112 -1.285) rotate(18)"/><path class="n" d="M0,26.25V0H13.125" transform="translate(8.112 -1.285) rotate(162)"/></g><g transform="matrix(-0.809, 0.588, -0.588, -0.809, 0, 0)"><path class="n" d="M0-26.25V0H13.125" transform="translate(-8.112 -1.285) rotate(18)"/><path class="n" d="M0,26.25V0H13.125" transform="translate(8.112 -1.285) rotate(162)"/></g><g transform="matrix(-0.809, -0.588, 0.588, -0.809, 0, 0)"><path class="n" d="M0-26.25V0H13.125" transform="translate(-8.112 -1.285) rotate(18)"/><path class="n" d="M0,26.25V0H13.125" transform="translate(8.112 -1.285) rotate(162)"/></g></g><g transform="translate(9660 12521.25)"><path class="n" d="M0-26.25V0H13.125" transform="translate(-8.112 -1.285) rotate(18)"/><path class="n" d="M0,26.25V0H13.125" transform="translate(8.112 -1.285) rotate(162)"/><g transform="rotate(72)"><path class="n" d="M0-26.25V0H13.125" transform="translate(-8.112 -1.285) rotate(18)"/><path class="n" d="M0,26.25V0H13.125" transform="translate(8.112 -1.285) rotate(162)"/></g><g transform="rotate(-72)"><path class="n" d="M0-26.25V0H13.125" transform="translate(-8.112 -1.285) rotate(18)"/><path class="n" d="M0,26.25V0H13.125" transform="translate(8.112 -1.285) rotate(162)"/></g><g transform="matrix(-0.809, 0.588, -0.588, -0.809, 0, 0)"><path class="n" d="M0-26.25V0H13.125" transform="translate(-8.112 -1.285) rotate(18)"/><path class="n" d="M0,26.25V0H13.125" transform="translate(8.112 -1.285) rotate(162)"/></g><g transform="matrix(-0.809, -0.588, 0.588, -0.809, 0, 0)"><path class="n" d="M0-26.25V0H13.125" transform="translate(-8.112 -1.285) rotate(18)"/><path class="n" d="M0,26.25V0H13.125" transform="translate(8.112 -1.285) rotate(162)"/></g></g><g transform="translate(7707 11571)"><path class="n" d="M0-21V0H10.5" transform="translate(-6.489 -1.028) rotate(18)"/><path class="n" d="M0,21V0H10.5" transform="translate(6.489 -1.028) rotate(162)"/><g transform="rotate(72)"><path class="n" d="M0-21V0H10.5" transform="translate(-6.489 -1.028) rotate(18)"/><path class="n" d="M0,21V0H10.5" transform="translate(6.489 -1.028) rotate(162)"/></g><g transform="rotate(-72)"><path class="n" d="M0-21V0H10.5" transform="translate(-6.489 -1.028) rotate(18)"/><path class="n" d="M0,21V0H10.5" transform="translate(6.489 -1.028) rotate(162)"/></g><g transform="matrix(-0.809, 0.588, -0.588, -0.809, 0, 0)"><path class="n" d="M0-21V0H10.5" transform="translate(-6.489 -1.028) rotate(18)"/><path class="n" d="M0,21V0H10.5" transform="translate(6.489 -1.028) rotate(162)"/></g><g transform="matrix(-0.809, -0.588, 0.588, -0.809, 0, 0)"><path class="n" d="M0-21V0H10.5" transform="translate(-6.489 -1.028) rotate(18)"/><path class="n" d="M0,21V0H10.5" transform="translate(6.489 -1.028) rotate(162)"/></g></g><g transform="translate(9261 8799)"><path class="n" d="M0-21V0H10.5" transform="translate(-6.489 -1.028) rotate(18)"/><path class="n" d="M0,21V0H10.5" transform="translate(6.489 -1.028) rotate(162)"/><g transform="rotate(72)"><path class="n" d="M0-21V0H10.5" transform="translate(-6.489 -1.028) rotate(18)"/><path class="n" d="M0,21V0H10.5" transform="translate(6.489 -1.028) rotate(162)"/></g><g transform="rotate(-72)"><path class="n" d="M0-21V0H10.5" transform="translate(-6.489 -1.028) rotate(18)"/><path class="n" d="M0,21V0H10.5" transform="translate(6.489 -1.028) rotate(162)"/></g><g transform="matrix(-0.809, 0.588, -0.588, -0.809, 0, 0)"><path class="n" d="M0-21V0H10.5" transform="translate(-6.489 -1.028) rotate(18)"/><path class="n" d="M0,21V0H10.5" transform="translate(6.489 -1.028) rotate(162)"/></g><g transform="matrix(-0.809, -0.588, 0.588, -0.809, 0, 0)"><path class="n" d="M0-21V0H10.5" transform="translate(-6.489 -1.028) rotate(18)"/><path class="n" d="M0,21V0H10.5" transform="translate(6.489 -1.028) rotate(162)"/></g></g><g transform="translate(13125 10027.5)"><path class="n" d="M0-26.25V0H13.125" transform="translate(-8.112 -1.285) rotate(18)"/><path class="n" d="M0,26.25V0H13.125" transform="translate(8.112 -1.285) rotate(162)"/><g transform="rotate(72)"><path class="n" d="M0-26.25V0H13.125" transform="translate(-8.112 -1.285) rotate(18)"/><path class="n" d="M0,26.25V0H13.125" transform="translate(8.112 -1.285) rotate(162)"/></g><g transform="rotate(-72)"><path class="n" d="M0-26.25V0H13.125" transform="translate(-8.112 -1.285) rotate(18)"/><path class="n" d="M0,26.25V0H13.125" transform="translate(8.112 -1.285) rotate(162)"/></g><g transform="matrix(-0.809, 0.588, -0.588, -0.809, 0, 0)"><path class="n" d="M0-26.25V0H13.125" transform="translate(-8.112 -1.285) rotate(18)"/><path class="n" d="M0,26.25V0H13.125" transform="translate(8.112 -1.285) rotate(162)"/></g><g transform="matrix(-0.809, -0.588, 0.588, -0.809, 0, 0)"><path class="n" d="M0-26.25V0H13.125" transform="translate(-8.112 -1.285) rotate(18)"/><path class="n" d="M0,26.25V0H13.125" transform="translate(8.112 -1.285) rotate(162)"/></g></g><g transform="translate(7665 8505)"><path class="n" d="M0-21V0H10.5" transform="translate(-6.489 -1.028) rotate(18)"/><path class="n" d="M0,21V0H10.5" transform="translate(6.489 -1.028) rotate(162)"/><g transform="rotate(72)"><path class="n" d="M0-21V0H10.5" transform="translate(-6.489 -1.028) rotate(18)"/><path class="n" d="M0,21V0H10.5" transform="translate(6.489 -1.028) rotate(162)"/></g><g transform="rotate(-72)"><path class="n" d="M0-21V0H10.5" transform="translate(-6.489 -1.028) rotate(18)"/><path class="n" d="M0,21V0H10.5" transform="translate(6.489 -1.028) rotate(162)"/></g><g transform="matrix(-0.809, 0.588, -0.588, -0.809, 0, 0)"><path class="n" d="M0-21V0H10.5" transform="translate(-6.489 -1.028) rotate(18)"/><path class="n" d="M0,21V0H10.5" transform="translate(6.489 -1.028) rotate(162)"/></g><g transform="matrix(-0.809, -0.588, 0.588, -0.809, 0, 0)"><path class="n" d="M0-21V0H10.5" transform="translate(-6.489 -1.028) rotate(18)"/><path class="n" d="M0,21V0H10.5" transform="translate(6.489 -1.028) rotate(162)"/></g></g><g transform="translate(-7350 787.5)"><path class="n" d="M0-26.25V0H13.125" transform="translate(-8.112 -1.285) rotate(18)"/><path class="n" d="M0,26.25V0H13.125" transform="translate(8.112 -1.285) rotate(162)"/><g transform="rotate(72)"><path class="n" d="M0-26.25V0H13.125" transform="translate(-8.112 -1.285) rotate(18)"/><path class="n" d="M0,26.25V0H13.125" transform="translate(8.112 -1.285) rotate(162)"/></g><g transform="rotate(-72)"><path class="n" d="M0-26.25V0H13.125" transform="translate(-8.112 -1.285) rotate(18)"/><path class="n" d="M0,26.25V0H13.125" transform="translate(8.112 -1.285) rotate(162)"/></g><g transform="matrix(-0.809, 0.588, -0.588, -0.809, 0, 0)"><path class="n" d="M0-26.25V0H13.125" transform="translate(-8.112 -1.285) rotate(18)"/><path class="n" d="M0,26.25V0H13.125" transform="translate(8.112 -1.285) rotate(162)"/></g><g transform="matrix(-0.809, -0.588, 0.588, -0.809, 0, 0)"><path class="n" d="M0-26.25V0H13.125" transform="translate(-8.112 -1.285) rotate(18)"/><path class="n" d="M0,26.25V0H13.125" transform="translate(8.112 -1.285) rotate(162)"/></g></g><g transform="translate(4200 -777)"><path class="n" d="M0-21V0H10.5" transform="translate(-6.489 -1.028) rotate(18)"/><path class="n" d="M0,21V0H10.5" transform="translate(6.489 -1.028) rotate(162)"/><g transform="rotate(72)"><path class="n" d="M0-21V0H10.5" transform="translate(-6.489 -1.028) rotate(18)"/><path class="n" d="M0,21V0H10.5" transform="translate(6.489 -1.028) rotate(162)"/></g><g transform="rotate(-72)"><path class="n" d="M0-21V0H10.5" transform="translate(-6.489 -1.028) rotate(18)"/><path class="n" d="M0,21V0H10.5" transform="translate(6.489 -1.028) rotate(162)"/></g><g transform="matrix(-0.809, 0.588, -0.588, -0.809, 0, 0)"><path class="n" d="M0-21V0H10.5" transform="translate(-6.489 -1.028) rotate(18)"/><path class="n" d="M0,21V0H10.5" transform="translate(6.489 -1.028) rotate(162)"/></g><g transform="matrix(-0.809, -0.588, 0.588, -0.809, 0, 0)"><path class="n" d="M0-21V0H10.5" transform="translate(-6.489 -1.028) rotate(18)"/><path class="n" d="M0,21V0H10.5" transform="translate(6.489 -1.028) rotate(162)"/></g></g><g transform="translate(0 10395)"><path class="n" d="M0-31.5V0H15.75" transform="translate(-9.734 -1.542) rotate(18)"/><path class="n" d="M0,31.5V0H15.75" transform="translate(9.734 -1.542) rotate(162)"/><g transform="rotate(72)"><path class="n" d="M0-31.5V0H15.75" transform="translate(-9.734 -1.542) rotate(18)"/><path class="n" d="M0,31.5V0H15.75" transform="translate(9.734 -1.542) rotate(162)"/></g><g transform="rotate(-72)"><path class="n" d="M0-31.5V0H15.75" transform="translate(-9.734 -1.542) rotate(18)"/><path class="n" d="M0,31.5V0H15.75" transform="translate(9.734 -1.542) rotate(162)"/></g><g transform="matrix(-0.809, 0.588, -0.588, -0.809, 0, 0)"><path class="n" d="M0-31.5V0H15.75" transform="translate(-9.734 -1.542) rotate(18)"/><path class="n" d="M0,31.5V0H15.75" transform="translate(9.734 -1.542) rotate(162)"/></g><g transform="matrix(-0.809, -0.588, 0.588, -0.809, 0, 0)"><path class="n" d="M0-31.5V0H15.75" transform="translate(-9.734 -1.542) rotate(18)"/><path class="n" d="M0,31.5V0H15.75" transform="translate(9.734 -1.542) rotate(162)"/></g></g><g transform="translate(2231.25 4830)"><path class="n" d="M0-26.25V0H13.125" transform="translate(-8.112 -1.285) rotate(18)"/><path class="n" d="M0,26.25V0H13.125" transform="translate(8.112 -1.285) rotate(162)"/><g transform="rotate(72)"><path class="n" d="M0-26.25V0H13.125" transform="translate(-8.112 -1.285) rotate(18)"/><path class="n" d="M0,26.25V0H13.125" transform="translate(8.112 -1.285) rotate(162)"/></g><g transform="rotate(-72)"><path class="n" d="M0-26.25V0H13.125" transform="translate(-8.112 -1.285) rotate(18)"/><path class="n" d="M0,26.25V0H13.125" transform="translate(8.112 -1.285) rotate(162)"/></g><g transform="matrix(-0.809, 0.588, -0.588, -0.809, 0, 0)"><path class="n" d="M0-26.25V0H13.125" transform="translate(-8.112 -1.285) rotate(18)"/><path class="n" d="M0,26.25V0H13.125" transform="translate(8.112 -1.285) rotate(162)"/></g><g transform="matrix(-0.809, -0.588, 0.588, -0.809, 0, 0)"><path class="n" d="M0-26.25V0H13.125" transform="translate(-8.112 -1.285) rotate(18)"/><path class="n" d="M0,26.25V0H13.125" transform="translate(8.112 -1.285) rotate(162)"/></g></g><g transform="translate(0 3097.5)"><path class="n" d="M0-26.25V0H13.125" transform="translate(-8.112 -1.285) rotate(18)"/><path class="n" d="M0,26.25V0H13.125" transform="translate(8.112 -1.285) rotate(162)"/><g transform="rotate(72)"><path class="n" d="M0-26.25V0H13.125" transform="translate(-8.112 -1.285) rotate(18)"/><path class="n" d="M0,26.25V0H13.125" transform="translate(8.112 -1.285) rotate(162)"/></g><g transform="rotate(-72)"><path class="n" d="M0-26.25V0H13.125" transform="translate(-8.112 -1.285) rotate(18)"/><path class="n" d="M0,26.25V0H13.125" transform="translate(8.112 -1.285) rotate(162)"/></g><g transform="matrix(-0.809, 0.588, -0.588, -0.809, 0, 0)"><path class="n" d="M0-26.25V0H13.125" transform="translate(-8.112 -1.285) rotate(18)"/><path class="n" d="M0,26.25V0H13.125" transform="translate(8.112 -1.285) rotate(162)"/></g><g transform="matrix(-0.809, -0.588, 0.588, -0.809, 0, 0)"><path class="n" d="M0-26.25V0H13.125" transform="translate(-8.112 -1.285) rotate(18)"/><path class="n" d="M0,26.25V0H13.125" transform="translate(8.112 -1.285) rotate(162)"/></g></g><g transform="translate(-1554 3864)"><path class="n" d="M0-21V0H10.5" transform="translate(-6.489 -1.028) rotate(18)"/><path class="n" d="M0,21V0H10.5" transform="translate(6.489 -1.028) rotate(162)"/><g transform="rotate(72)"><path class="n" d="M0-21V0H10.5" transform="translate(-6.489 -1.028) rotate(18)"/><path class="n" d="M0,21V0H10.5" transform="translate(6.489 -1.028) rotate(162)"/></g><g transform="rotate(-72)"><path class="n" d="M0-21V0H10.5" transform="translate(-6.489 -1.028) rotate(18)"/><path class="n" d="M0,21V0H10.5" transform="translate(6.489 -1.028) rotate(162)"/></g><g transform="matrix(-0.809, 0.588, -0.588, -0.809, 0, 0)"><path class="n" d="M0-21V0H10.5" transform="translate(-6.489 -1.028) rotate(18)"/><path class="n" d="M0,21V0H10.5" transform="translate(6.489 -1.028) rotate(162)"/></g><g transform="matrix(-0.809, -0.588, 0.588, -0.809, 0, 0)"><path class="n" d="M0-21V0H10.5" transform="translate(-6.489 -1.028) rotate(18)"/><path class="n" d="M0,21V0H10.5" transform="translate(6.489 -1.028) rotate(162)"/></g></g><g transform="translate(-555 3525)"><path class="n" d="M0-15V0H7.5" transform="translate(-4.635 -0.734) rotate(18)"/><path class="n" d="M0,15V0H7.5" transform="translate(4.635 -0.734) rotate(162)"/><g transform="rotate(72)"><path class="n" d="M0-15V0H7.5" transform="translate(-4.635 -0.734) rotate(18)"/><path class="n" d="M0,15V0H7.5" transform="translate(4.635 -0.734) rotate(162)"/></g><g transform="rotate(-72)"><path class="n" d="M0-15V0H7.5" transform="translate(-4.635 -0.734) rotate(18)"/><path class="n" d="M0,15V0H7.5" transform="translate(4.635 -0.734) rotate(162)"/></g><g transform="matrix(-0.809, 0.588, -0.588, -0.809, 0, 0)"><path class="n" d="M0-15V0H7.5" transform="translate(-4.635 -0.734) rotate(18)"/><path class="n" d="M0,15V0H7.5" transform="translate(4.635 -0.734) rotate(162)"/></g><g transform="matrix(-0.809, -0.588, 0.588, -0.809, 0, 0)"><path class="n" d="M0-15V0H7.5" transform="translate(-4.635 -0.734) rotate(18)"/><path class="n" d="M0,15V0H7.5" transform="translate(4.635 -0.734) rotate(162)"/></g></g><g transform="translate(5775 12993.75)"><path class="n" d="M0-26.25V0H13.125" transform="translate(-8.112 -1.285) rotate(18)"/><path class="n" d="M0,26.25V0H13.125" transform="translate(8.112 -1.285) rotate(162)"/><g transform="rotate(72)"><path class="n" d="M0-26.25V0H13.125" transform="translate(-8.112 -1.285) rotate(18)"/><path class="n" d="M0,26.25V0H13.125" transform="translate(8.112 -1.285) rotate(162)"/></g><g transform="rotate(-72)"><path class="n" d="M0-26.25V0H13.125" transform="translate(-8.112 -1.285) rotate(18)"/><path class="n" d="M0,26.25V0H13.125" transform="translate(8.112 -1.285) rotate(162)"/></g><g transform="matrix(-0.809, 0.588, -0.588, -0.809, 0, 0)"><path class="n" d="M0-26.25V0H13.125" transform="translate(-8.112 -1.285) rotate(18)"/><path class="n" d="M0,26.25V0H13.125" transform="translate(8.112 -1.285) rotate(162)"/></g><g transform="matrix(-0.809, -0.588, 0.588, -0.809, 0, 0)"><path class="n" d="M0-26.25V0H13.125" transform="translate(-8.112 -1.285) rotate(18)"/><path class="n" d="M0,26.25V0H13.125" transform="translate(8.112 -1.285) rotate(162)"/></g></g><g transform="translate(5943 9030)"><path class="n" d="M0-21V0H10.5" transform="translate(-6.489 -1.028) rotate(18)"/><path class="n" d="M0,21V0H10.5" transform="translate(6.489 -1.028) rotate(162)"/><g transform="rotate(72)"><path class="n" d="M0-21V0H10.5" transform="translate(-6.489 -1.028) rotate(18)"/><path class="n" d="M0,21V0H10.5" transform="translate(6.489 -1.028) rotate(162)"/></g><g transform="rotate(-72)"><path class="n" d="M0-21V0H10.5" transform="translate(-6.489 -1.028) rotate(18)"/><path class="n" d="M0,21V0H10.5" transform="translate(6.489 -1.028) rotate(162)"/></g><g transform="matrix(-0.809, 0.588, -0.588, -0.809, 0, 0)"><path class="n" d="M0-21V0H10.5" transform="translate(-6.489 -1.028) rotate(18)"/><path class="n" d="M0,21V0H10.5" transform="translate(6.489 -1.028) rotate(162)"/></g><g transform="matrix(-0.809, -0.588, 0.588, -0.809, 0, 0)"><path class="n" d="M0-21V0H10.5" transform="translate(-6.489 -1.028) rotate(18)"/><path class="n" d="M0,21V0H10.5" transform="translate(6.489 -1.028) rotate(162)"/></g></g><g transform="translate(3402 8652)"><path class="n" d="M0-21V0H10.5" transform="translate(-6.489 -1.028) rotate(18)"/><path class="n" d="M0,21V0H10.5" transform="translate(6.489 -1.028) rotate(162)"/><g transform="rotate(72)"><path class="n" d="M0-21V0H10.5" transform="translate(-6.489 -1.028) rotate(18)"/><path class="n" d="M0,21V0H10.5" transform="translate(6.489 -1.028) rotate(162)"/></g><g transform="rotate(-72)"><path class="n" d="M0-21V0H10.5" transform="translate(-6.489 -1.028) rotate(18)"/><path class="n" d="M0,21V0H10.5" transform="translate(6.489 -1.028) rotate(162)"/></g><g transform="matrix(-0.809, 0.588, -0.588, -0.809, 0, 0)"><path class="n" d="M0-21V0H10.5" transform="translate(-6.489 -1.028) rotate(18)"/><path class="n" d="M0,21V0H10.5" transform="translate(6.489 -1.028) rotate(162)"/></g><g transform="matrix(-0.809, -0.588, 0.588, -0.809, 0, 0)"><path class="n" d="M0-21V0H10.5" transform="translate(-6.489 -1.028) rotate(18)"/><path class="n" d="M0,21V0H10.5" transform="translate(6.489 -1.028) rotate(162)"/></g></g><g transform="translate(-9292.5 12285)"><path class="n" d="M0-31.5V0H15.75" transform="translate(-9.734 -1.542) rotate(18)"/><path class="n" d="M0,31.5V0H15.75" transform="translate(9.734 -1.542) rotate(162)"/><g transform="rotate(72)"><path class="n" d="M0-31.5V0H15.75" transform="translate(-9.734 -1.542) rotate(18)"/><path class="n" d="M0,31.5V0H15.75" transform="translate(9.734 -1.542) rotate(162)"/></g><g transform="rotate(-72)"><path class="n" d="M0-31.5V0H15.75" transform="translate(-9.734 -1.542) rotate(18)"/><path class="n" d="M0,31.5V0H15.75" transform="translate(9.734 -1.542) rotate(162)"/></g><g transform="matrix(-0.809, 0.588, -0.588, -0.809, 0, 0)"><path class="n" d="M0-31.5V0H15.75" transform="translate(-9.734 -1.542) rotate(18)"/><path class="n" d="M0,31.5V0H15.75" transform="translate(9.734 -1.542) rotate(162)"/></g><g transform="matrix(-0.809, -0.588, 0.588, -0.809, 0, 0)"><path class="n" d="M0-31.5V0H15.75" transform="translate(-9.734 -1.542) rotate(18)"/><path class="n" d="M0,31.5V0H15.75" transform="translate(9.734 -1.542) rotate(162)"/></g></g><g transform="translate(0 6037.5)"><path class="n" d="M0-10.5V0H5.25" transform="translate(-3.245 -0.514) rotate(18)"/><path class="n" d="M0,10.5V0H5.25" transform="translate(3.245 -0.514) rotate(162)"/><g transform="rotate(72)"><path class="n" d="M0-10.5V0H5.25" transform="translate(-3.245 -0.514) rotate(18)"/><path class="n" d="M0,10.5V0H5.25" transform="translate(3.245 -0.514) rotate(162)"/></g><g transform="rotate(-72)"><path class="n" d="M0-10.5V0H5.25" transform="translate(-3.245 -0.514) rotate(18)"/><path class="n" d="M0,10.5V0H5.25" transform="translate(3.245 -0.514) rotate(162)"/></g><g transform="matrix(-0.809, 0.588, -0.588, -0.809, 0, 0)"><path class="n" d="M0-10.5V0H5.25" transform="translate(-3.245 -0.514) rotate(18)"/><path class="n" d="M0,10.5V0H5.25" transform="translate(3.245 -0.514) rotate(162)"/></g><g transform="matrix(-0.809, -0.588, 0.588, -0.809, 0, 0)"><path class="n" d="M0-10.5V0H5.25" transform="translate(-3.245 -0.514) rotate(18)"/><path class="n" d="M0,10.5V0H5.25" transform="translate(3.245 -0.514) rotate(162)"/></g></g></g></g><text class="v" transform="translate(556 202)"><tspan x="158.17" y="65">Go with the flow</tspan></text><text class="v" transform="translate(556 770)"><tspan x="84.811" y="65">You&apos;ve got the power</tspan></text><text class="w" transform="translate(556 285)"><tspan x="81.907" y="39">Let the Phil choose your next challenges. </tspan></text><text class="w" transform="translate(556 853)"><tspan x="158.979" y="39">You choose the next challenge.</tspan></text><g transform="translate(-310 -22.142)"><g class="x" transform="translate(556 410.142)"><path class="ar" d="M 974.3692016601563 187.0900421142578 L 42.00006866455078 187.0900421142578 C 36.66644668579102 187.0900421142578 31.49382019042969 186.0460510253906 26.62569618225098 183.9869232177734 C 21.92231941223145 181.9975433349609 17.69769477844238 179.149169921875 14.06932067871094 175.5207977294922 C 10.44094562530518 171.8923034667969 7.592445373535156 167.6678009033203 5.603195190429688 162.9644165039063 C 3.544070243835449 158.0962982177734 2.500070333480835 152.9235534667969 2.500070333480835 147.5900421142578 L 2.500070333480835 42.00004577636719 C 2.500070333480835 36.66641998291016 3.544070243835449 31.49379730224609 5.603195190429688 26.62567138671875 C 7.592445373535156 21.92229652404785 10.44094562530518 17.69767189025879 14.06932067871094 14.06929683685303 C 17.69769477844238 10.44092178344727 21.92231941223145 7.592422008514404 26.62569618225098 5.603171825408936 C 31.49382019042969 3.544046878814697 36.66644668579102 2.500046968460083 42.00006866455078 2.500046968460083 L 974.3692016601563 2.499796867370605 C 979.7026977539063 2.499796867370605 984.8754272460938 3.54379677772522 989.7435913085938 5.602921962738037 C 994.4469604492188 7.592297077178955 998.6714477539063 10.44067192077637 1002.2998046875 14.06917190551758 C 1005.928344726563 17.69754600524902 1008.776672363281 21.92204666137695 1010.766052246094 26.62542152404785 C 1012.8251953125 31.4935474395752 1013.869201660156 36.66629791259766 1013.869201660156 41.99979782104492 L 1013.869201660156 147.5900421142578 C 1013.869201660156 152.9235534667969 1012.8251953125 158.0962982177734 1010.766052246094 162.9644165039063 C 1008.776672363281 167.6678009033203 1005.928344726563 171.8923034667969 1002.2998046875 175.5206756591797 C 998.6714477539063 179.149169921875 994.4469604492188 181.9975433349609 989.7435913085938 183.9869232177734 C 984.8754272460938 186.0460510253906 979.7026977539063 187.0900421142578 974.3692016601563 187.0900421142578 Z"/><path class="as" d="M 974.3690795898438 -0.0001373291015625 L 974.3690795898438 4.999862670898438 L 42.00006103515625 4.999984741210938 C 37.0028076171875 4.999984741210938 32.15777587890625 5.977584838867188 27.5994873046875 7.905593872070313 C 23.19415283203125 9.7689208984375 19.2366943359375 12.43745422363281 15.83709716796875 15.83705139160156 C 12.4375 19.23664855957031 9.76898193359375 23.19412231445313 7.9056396484375 27.59945678710938 C 5.9776611328125 32.15771484375 5.00006103515625 37.00279235839844 5.00006103515625 41.99998474121094 L 5.00006103515625 147.5899963378906 C 5.00006103515625 152.5871887207031 5.9776611328125 157.4322509765625 7.9056396484375 161.9905242919922 C 9.76898193359375 166.3958587646484 12.4375 170.3533172607422 15.83709716796875 173.7529296875 C 19.2366943359375 177.1525268554688 23.19415283203125 179.8210601806641 27.5994873046875 181.6843872070313 C 32.15777587890625 183.6123962402344 37.0028076171875 184.5899963378906 42.00006103515625 184.5899963378906 L 974.3690795898438 184.5899963378906 C 979.3663330078125 184.5899963378906 984.2113647460938 183.6123962402344 988.7696533203125 181.6843872070313 C 993.1749877929688 179.8210601806641 997.1324462890625 177.1525268554688 1000.532043457031 173.7529296875 C 1003.931640625 170.3533172607422 1006.600158691406 166.3958587646484 1008.463500976563 161.9905242919922 C 1010.391479492188 157.4322509765625 1011.369079589844 152.5871887207031 1011.369079589844 147.5899963378906 L 1011.369079589844 41.99986267089844 C 1011.369079589844 37.00265502929688 1010.391479492188 32.1575927734375 1008.463500976563 27.59931945800781 C 1006.600158691406 23.19398498535156 1003.931640625 19.23652648925781 1000.532043457031 15.83692932128906 C 997.1324462890625 12.43731689453125 993.1749877929688 9.768783569335938 988.7696533203125 7.90545654296875 C 984.2113647460938 5.977462768554688 979.3663330078125 4.999862670898438 974.3690795898438 4.999862670898438 L 974.3690795898438 -0.0001373291015625 M 974.3690795898438 -0.0001373291015625 C 997.5651245117188 -0.0001373291015625 1016.369079589844 18.80384826660156 1016.369079589844 41.99986267089844 L 1016.369079589844 147.5899963378906 C 1016.369079589844 170.7859802246094 997.5651245117188 189.5899810791016 974.3690795898438 189.5899810791016 L 42.00006103515625 189.5899810791016 C 18.80401611328125 189.5899810791016 6.103515625e-05 170.7859802246094 6.103515625e-05 147.5899963378906 L 6.103515625e-05 41.99998474121094 C 6.103515625e-05 18.80398559570313 18.80401611328125 -1.52587890625e-05 42.00006103515625 -1.52587890625e-05 L 974.3690795898438 -0.0001373291015625 Z"/></g><rect class="c" width="189.59" height="189.59" rx="42" transform="translate(556 410.142)"/><g class="y" transform="translate(310 22.142)"><rect class="z" width="186.647" height="179.787" transform="translate(247 394.76)"/></g><text class="aa" transform="translate(763 484)"><tspan x="0" y="32">Challenge 1</tspan></text><g class="ab" transform="translate(556 410.142)"><path class="ar" d="M42,0H974.369a42,42,0,0,1,42,42V147.59a42,42,0,0,1-42,42H42a42,42,0,0,1-42-42V42A42,42,0,0,1,42,0Z"/><path class="as" d="M 974.3690795898438 -0.0001373291015625 L 974.3690795898438 4.999862670898438 L 42.00006103515625 4.999984741210938 C 37.0028076171875 4.999984741210938 32.15777587890625 5.977584838867188 27.5994873046875 7.905593872070313 C 23.19415283203125 9.7689208984375 19.2366943359375 12.43745422363281 15.83709716796875 15.83705139160156 C 12.4375 19.23664855957031 9.76898193359375 23.19412231445313 7.9056396484375 27.59945678710938 C 5.9776611328125 32.15771484375 5.00006103515625 37.00279235839844 5.00006103515625 41.99998474121094 L 5.00006103515625 147.5899963378906 C 5.00006103515625 152.5871887207031 5.9776611328125 157.4322509765625 7.9056396484375 161.9905242919922 C 9.76898193359375 166.3958587646484 12.4375 170.3533172607422 15.83709716796875 173.7529296875 C 19.2366943359375 177.1525268554688 23.19415283203125 179.8210601806641 27.5994873046875 181.6843872070313 C 32.15777587890625 183.6123962402344 37.0028076171875 184.5899963378906 42.00006103515625 184.5899963378906 L 974.3690795898438 184.5899963378906 C 979.3663330078125 184.5899963378906 984.2113647460938 183.6123962402344 988.7696533203125 181.6843872070313 C 993.1749877929688 179.8210601806641 997.1324462890625 177.1525268554688 1000.532043457031 173.7529296875 C 1003.931640625 170.3533172607422 1006.600158691406 166.3958587646484 1008.463500976563 161.9905242919922 C 1010.391479492188 157.4322509765625 1011.369079589844 152.5871887207031 1011.369079589844 147.5899963378906 L 1011.369079589844 41.99986267089844 C 1011.369079589844 37.00265502929688 1010.391479492188 32.1575927734375 1008.463500976563 27.59931945800781 C 1006.600158691406 23.19398498535156 1003.931640625 19.23652648925781 1000.532043457031 15.83692932128906 C 997.1324462890625 12.43731689453125 993.1749877929688 9.768783569335938 988.7696533203125 7.90545654296875 C 984.2113647460938 5.977462768554688 979.3663330078125 4.999862670898438 974.3690795898438 4.999862670898438 L 974.3690795898438 -0.0001373291015625 M 974.3690795898438 -0.0001373291015625 C 997.5651245117188 -0.0001373291015625 1016.369079589844 18.80384826660156 1016.369079589844 41.99986267089844 L 1016.369079589844 147.5899963378906 C 1016.369079589844 170.7859802246094 997.5651245117188 189.5899810791016 974.3690795898438 189.5899810791016 L 42.00006103515625 189.5899810791016 C 18.80401611328125 189.5899810791016 6.103515625e-05 170.7859802246094 6.103515625e-05 147.5899963378906 L 6.103515625e-05 41.99998474121094 C 6.103515625e-05 18.80398559570313 18.80401611328125 -1.52587890625e-05 42.00006103515625 -1.52587890625e-05 L 974.3690795898438 -0.0001373291015625 Z"/></g></g><g transform="translate(-309 546)"><rect class="c" width="189.59" height="189.59" rx="42" transform="translate(556 410.142)"/><text class="ac" transform="translate(781 484)"><tspan x="0" y="32">Case 1</tspan></text><g class="ad" transform="translate(227 -723)"><rect class="ae" width="282" height="210.5" rx="96" transform="translate(283 1123)"/></g><g class="af" transform="translate(556 410.142)"><rect class="ar" width="395.59" height="189.59" rx="42"/><rect class="b" x="2.5" y="2.5" width="390.59" height="184.59" rx="39.5"/></g></g><g transform="translate(721 -22.142)"><g class="ag" transform="translate(556 410.142)"><rect class="ar" width="189.795" height="189.751" rx="42"/><rect class="b" x="2.5" y="2.5" width="184.795" height="184.751" rx="39.5"/></g></g><g transform="translate(927 -22.142)"><g class="ag" transform="translate(556 410.142)"><rect class="ar" width="189.795" height="189.751" rx="42"/><rect class="b" x="2.5" y="2.5" width="184.795" height="184.751" rx="39.5"/></g></g><g transform="translate(1133 -22.142)"><g class="ag" transform="translate(556 410.142)"><rect class="ar" width="189.795" height="189.751" rx="42"/><rect class="b" x="2.5" y="2.5" width="184.795" height="184.751" rx="39.5"/></g></g><g transform="translate(1339 -22.142)"><g class="ag" transform="translate(556 410.142)"><rect class="ar" width="189.795" height="189.751" rx="42"/><rect class="b" x="2.5" y="2.5" width="184.795" height="184.751" rx="39.5"/></g></g><g transform="translate(103.41 546)"><rect class="c" width="189.59" height="189.59" rx="42" transform="translate(556 410.142)"/><g class="ah" transform="translate(-103.41 -546)"><rect class="ai" width="253" height="189.5" transform="translate(636 956)"/></g><text class="ac" transform="translate(781 484)"><tspan x="0" y="32">Case 2</tspan></text><g class="af" transform="translate(556 410.142)"><rect class="ar" width="395.59" height="189.59" rx="42"/><rect class="b" x="2.5" y="2.5" width="390.59" height="184.59" rx="39.5"/></g></g><g transform="translate(515.41 546)"><rect class="c" width="189.59" height="189.59" rx="42" transform="translate(556 410.142)"/><text class="ac" transform="translate(781 484)"><tspan x="0" y="32">Case 3</tspan></text><g class="aj"><rect class="ak" width="254" height="189.5" transform="translate(555.59 410)"/></g><g class="af" transform="translate(556 410.142)"><rect class="ar" width="395.59" height="189.59" rx="42"/><rect class="b" x="2.5" y="2.5" width="390.59" height="184.59" rx="39.5"/></g></g><g transform="translate(927 546)"><text class="ac" transform="translate(606 484)"><tspan x="0" y="32">More...</tspan></text><g class="af" transform="translate(556 410.142)"><rect class="ar" width="189.59" height="189.59" rx="42"/><rect class="b" x="2.5" y="2.5" width="184.59" height="184.59" rx="39.5"/></g></g><g transform="translate(-12312 63)"><g class="al"><g transform="translate(12757.771 -673.173)"><g transform="translate(1180.229 621.173)"><rect class="am" width="59.312" height="31.217"/></g><g transform="translate(1180.229 623.623)"><path class="n" d="M1239.542,649.753h-59.312v-2.305h59.313Zm0-4.8h-59.312v-2.3h59.313Zm0-4.8h-59.312v-2.3h59.313Zm0-4.8h-59.312v-2.305h59.313Zm0-4.8h-59.312v-2.306h59.313Zm0-4.8h-59.312v-2.306h59.313Z" transform="translate(-1180.229 -623.435)"/></g><g transform="translate(1180.229 621.173)"><rect class="an" width="23.725" height="16.809"/></g><g transform="translate(1181.292 621.894)"><path class="n" d="M1182.125,621.839l.564,1.737-1.478-1.074h1.827l-1.477,1.074Z" transform="translate(-1181.211 -621.839)"/><g transform="translate(0 3.361)"><path class="n" d="M1182.125,624.943l.564,1.737-1.478-1.073h1.827l-1.477,1.073Z" transform="translate(-1181.211 -624.943)"/></g><g transform="translate(0 6.723)"><path class="n" d="M1182.125,628.047l.564,1.738-1.478-1.074h1.827l-1.477,1.074Z" transform="translate(-1181.211 -628.047)"/></g><g transform="translate(0 10.085)"><path class="n" d="M1182.125,631.152l.564,1.737-1.478-1.073h1.827l-1.477,1.073Z" transform="translate(-1181.211 -631.152)"/></g><g transform="translate(0 13.447)"><path class="n" d="M1182.125,634.256l.564,1.738-1.478-1.074h1.827l-1.477,1.074Z" transform="translate(-1181.211 -634.256)"/></g><g transform="translate(1.977 1.681)"><path class="n" d="M1183.951,623.391l.564,1.737-1.478-1.073h1.827l-1.478,1.073Z" transform="translate(-1183.037 -623.391)"/><g transform="translate(0 3.361)"><path class="n" d="M1183.951,626.495l.564,1.738-1.478-1.074h1.827l-1.478,1.074Z" transform="translate(-1183.037 -626.495)"/></g><g transform="translate(0 6.724)"><path class="n" d="M1183.951,629.6l.564,1.737-1.478-1.074h1.827l-1.478,1.074Z" transform="translate(-1183.037 -629.6)"/></g><g transform="translate(0 10.085)"><path class="n" d="M1183.951,632.7l.564,1.738-1.478-1.074h1.827l-1.478,1.074Z" transform="translate(-1183.037 -632.704)"/></g></g><g transform="translate(3.955)"><path class="n" d="M1185.776,621.839l.565,1.737-1.478-1.074h1.827l-1.478,1.074Z" transform="translate(-1184.863 -621.839)"/><g transform="translate(0 3.361)"><path class="n" d="M1185.776,624.943l.565,1.737-1.478-1.073h1.827l-1.478,1.073Z" transform="translate(-1184.863 -624.943)"/></g><g transform="translate(0 6.723)"><path class="n" d="M1185.776,628.047l.565,1.738-1.478-1.074h1.827l-1.478,1.074Z" transform="translate(-1184.863 -628.047)"/></g><g transform="translate(0 10.085)"><path class="n" d="M1185.776,631.152l.565,1.737-1.478-1.073h1.827l-1.478,1.073Z" transform="translate(-1184.863 -631.152)"/></g><g transform="translate(0 13.447)"><path class="n" d="M1185.776,634.256l.565,1.738-1.478-1.074h1.827l-1.478,1.074Z" transform="translate(-1184.863 -634.256)"/></g><g transform="translate(1.976 1.681)"><path class="n" d="M1187.6,623.391l.564,1.737-1.478-1.073h1.828l-1.478,1.073Z" transform="translate(-1186.688 -623.391)"/><g transform="translate(0 3.361)"><path class="n" d="M1187.6,626.495l.564,1.738-1.478-1.074h1.828l-1.478,1.074Z" transform="translate(-1186.688 -626.495)"/></g><g transform="translate(0 6.724)"><path class="n" d="M1187.6,629.6l.564,1.737-1.478-1.074h1.828l-1.478,1.074Z" transform="translate(-1186.688 -629.6)"/></g><g transform="translate(0 10.085)"><path class="n" d="M1187.6,632.7l.564,1.738-1.478-1.074h1.828l-1.478,1.074Z" transform="translate(-1186.688 -632.704)"/></g></g></g><g transform="translate(7.909)"><path class="n" d="M1189.428,621.839l.564,1.737-1.478-1.074h1.827l-1.478,1.074Z" transform="translate(-1188.514 -621.839)"/><g transform="translate(0 3.361)"><path class="n" d="M1189.428,624.943l.564,1.737-1.478-1.073h1.827l-1.478,1.073Z" transform="translate(-1188.514 -624.943)"/></g><g transform="translate(0 6.723)"><path class="n" d="M1189.428,628.047l.564,1.738-1.478-1.074h1.827l-1.478,1.074Z" transform="translate(-1188.514 -628.047)"/></g><g transform="translate(0 10.085)"><path class="n" d="M1189.428,631.152l.564,1.737-1.478-1.073h1.827l-1.478,1.073Z" transform="translate(-1188.514 -631.152)"/></g><g transform="translate(0 13.447)"><path class="n" d="M1189.428,634.256l.564,1.738-1.478-1.074h1.827l-1.478,1.074Z" transform="translate(-1188.514 -634.256)"/></g><g transform="translate(1.977 1.681)"><path class="n" d="M1191.253,623.391l.565,1.737-1.478-1.073h1.827l-1.478,1.073Z" transform="translate(-1190.34 -623.391)"/><g transform="translate(0 3.361)"><path class="n" d="M1191.253,626.495l.565,1.738-1.478-1.074h1.827l-1.478,1.074Z" transform="translate(-1190.34 -626.495)"/></g><g transform="translate(0 6.724)"><path class="n" d="M1191.253,629.6l.565,1.737-1.478-1.074h1.827l-1.478,1.074Z" transform="translate(-1190.34 -629.6)"/></g><g transform="translate(0 10.085)"><path class="n" d="M1191.253,632.7l.565,1.738-1.478-1.074h1.827l-1.478,1.074Z" transform="translate(-1190.34 -632.704)"/></g></g><g transform="translate(3.955)"><path class="n" d="M1193.079,621.839l.564,1.737-1.477-1.074h1.827l-1.478,1.074Z" transform="translate(-1192.166 -621.839)"/><g transform="translate(0 3.361)"><path class="n" d="M1193.079,624.943l.564,1.737-1.477-1.073h1.827l-1.478,1.073Z" transform="translate(-1192.166 -624.943)"/></g><g transform="translate(0 6.723)"><path class="n" d="M1193.079,628.047l.564,1.738-1.477-1.074h1.827l-1.478,1.074Z" transform="translate(-1192.166 -628.047)"/></g><g transform="translate(0 10.085)"><path class="n" d="M1193.079,631.152l.564,1.737-1.477-1.073h1.827l-1.478,1.073Z" transform="translate(-1192.166 -631.152)"/></g><g transform="translate(0 13.447)"><path class="n" d="M1193.079,634.256l.564,1.738-1.477-1.074h1.827l-1.478,1.074Z" transform="translate(-1192.166 -634.256)"/></g><g transform="translate(1.976 1.681)"><path class="n" d="M1194.905,623.391l.564,1.737-1.478-1.073h1.827l-1.478,1.073Z" transform="translate(-1193.991 -623.391)"/><g transform="translate(0 3.361)"><path class="n" d="M1194.905,626.495l.564,1.738-1.478-1.074h1.827l-1.478,1.074Z" transform="translate(-1193.991 -626.495)"/></g><g transform="translate(0 6.724)"><path class="n" d="M1194.905,629.6l.564,1.737-1.478-1.074h1.827l-1.478,1.074Z" transform="translate(-1193.991 -629.6)"/></g><g transform="translate(0 10.085)"><path class="n" d="M1194.905,632.7l.564,1.738-1.478-1.074h1.827l-1.478,1.074Z" transform="translate(-1193.991 -632.704)"/></g></g></g></g><g transform="translate(15.817)"><path class="n" d="M1196.73,621.839l.565,1.737-1.478-1.074h1.827l-1.478,1.074Z" transform="translate(-1195.817 -621.839)"/><g transform="translate(0 3.361)"><path class="n" d="M1196.73,624.943l.565,1.737-1.478-1.073h1.827l-1.478,1.073Z" transform="translate(-1195.817 -624.943)"/></g><g transform="translate(0 6.723)"><path class="n" d="M1196.73,628.047l.565,1.738-1.478-1.074h1.827l-1.478,1.074Z" transform="translate(-1195.817 -628.047)"/></g><g transform="translate(0 10.085)"><path class="n" d="M1196.73,631.152l.565,1.737-1.478-1.073h1.827l-1.478,1.073Z" transform="translate(-1195.817 -631.152)"/></g><g transform="translate(0 13.447)"><path class="n" d="M1196.73,634.256l.565,1.738-1.478-1.074h1.827l-1.478,1.074Z" transform="translate(-1195.817 -634.256)"/></g><g transform="translate(1.977 1.681)"><path class="n" d="M1198.556,623.391l.565,1.737-1.478-1.073h1.827l-1.478,1.073Z" transform="translate(-1197.643 -623.391)"/><g transform="translate(0 3.361)"><path class="n" d="M1198.556,626.495l.565,1.738-1.478-1.074h1.827l-1.478,1.074Z" transform="translate(-1197.643 -626.495)"/></g><g transform="translate(0 6.724)"><path class="n" d="M1198.556,629.6l.565,1.737-1.478-1.074h1.827l-1.478,1.074Z" transform="translate(-1197.643 -629.6)"/></g><g transform="translate(0 10.085)"><path class="n" d="M1198.556,632.7l.565,1.738-1.478-1.074h1.827l-1.478,1.074Z" transform="translate(-1197.643 -632.704)"/></g></g></g><g transform="translate(19.771)"><path class="n" d="M1200.382,621.839l.564,1.737-1.478-1.074h1.827l-1.477,1.074Z" transform="translate(-1199.468 -621.839)"/><g transform="translate(0 3.361)"><path class="n" d="M1200.382,624.943l.564,1.737-1.478-1.073h1.827l-1.477,1.073Z" transform="translate(-1199.468 -624.943)"/></g><g transform="translate(0 6.723)"><path class="n" d="M1200.382,628.047l.564,1.738-1.478-1.074h1.827l-1.477,1.074Z" transform="translate(-1199.468 -628.047)"/></g><g transform="translate(0 10.085)"><path class="n" d="M1200.382,631.152l.564,1.737-1.478-1.073h1.827l-1.477,1.073Z" transform="translate(-1199.468 -631.152)"/></g><g transform="translate(0 13.447)"><path class="n" d="M1200.382,634.256l.564,1.738-1.478-1.074h1.827l-1.477,1.074Z" transform="translate(-1199.468 -634.256)"/></g></g></g></g></g><g class="d" transform="translate(13937 -52.783)"><rect class="ar" width="48" height="32" rx="14"/><rect class="b" x="0.5" y="0.5" width="47" height="31" rx="13.5"/></g></g><path class="ao" d="M1970.876-36.281c.244,0,.479,0,.714,0,.928.009,1.861-.029,2.785.04,1.087.082,1.507.579,1.56,1.677.01.208.011.417.011.625q0,11.83,0,23.66a7.036,7.036,0,0,1-.063,1.019,1.279,1.279,0,0,1-1.192,1.179,4.47,4.47,0,0,1-.651.052q-17.319,0-34.638,0a3.718,3.718,0,0,1-.453-.028,1.415,1.415,0,0,1-1.447-1.562c-.018-.34-.012-.682-.012-1.024q0-11.56,0-23.12a8.281,8.281,0,0,1,.045-1.134,1.35,1.35,0,0,1,1.37-1.333c.991-.077,1.987-.088,2.981-.121.3-.01.6,0,.946,0,0-.162,0-.272,0-.381,0-2.36-.053-4.722.025-7.08a13.827,13.827,0,0,1,5.611-10.973,12.342,12.342,0,0,1,5.8-2.307,15.278,15.278,0,0,1,8.093.895,13.961,13.961,0,0,1,8.094,9.507,16.416,16.416,0,0,1,.213,3.17c.055,2.359.122,4.718.185,7.077A1.515,1.515,0,0,0,1970.876-36.281Zm-22.3-.086h16.808a.8.8,0,0,0,.02-.125c-.029-2.718.009-5.44-.107-8.154a7.177,7.177,0,0,0-3.765-6.115,9.168,9.168,0,0,0-6.945-.966,7.092,7.092,0,0,0-5.577,5.026,12.489,12.489,0,0,0-.473,3.595c-.021,1.7.024,3.41.038,5.115C1948.578-37.454,1948.574-36.917,1948.574-36.367Zm12.274,21.791c-.027-.139-.047-.25-.069-.359q-.8-3.879-1.61-7.758a.406.406,0,0,1,.131-.422,3.448,3.448,0,0,0,1.047-2.387,3.579,3.579,0,0,0-2.56-3.557,3.581,3.581,0,0,0-4.082,1.6,3.537,3.537,0,0,0,.539,4.341.433.433,0,0,1,.13.449q-.675,3.224-1.342,6.45c-.112.542-.22,1.085-.333,1.646Z" transform="translate(-584.311 515.223)"/><path class="ao" d="M1970.876-36.281c.244,0,.479,0,.714,0,.928.009,1.861-.029,2.785.04,1.087.082,1.507.579,1.56,1.677.01.208.011.417.011.625q0,11.83,0,23.66a7.036,7.036,0,0,1-.063,1.019,1.279,1.279,0,0,1-1.192,1.179,4.47,4.47,0,0,1-.651.052q-17.319,0-34.638,0a3.718,3.718,0,0,1-.453-.028,1.415,1.415,0,0,1-1.447-1.562c-.018-.34-.012-.682-.012-1.024q0-11.56,0-23.12a8.281,8.281,0,0,1,.045-1.134,1.35,1.35,0,0,1,1.37-1.333c.991-.077,1.987-.088,2.981-.121.3-.01.6,0,.946,0,0-.162,0-.272,0-.381,0-2.36-.053-4.722.025-7.08a13.827,13.827,0,0,1,5.611-10.973,12.342,12.342,0,0,1,5.8-2.307,15.278,15.278,0,0,1,8.093.895,13.961,13.961,0,0,1,8.094,9.507,16.416,16.416,0,0,1,.213,3.17c.055,2.359.122,4.718.185,7.077A1.515,1.515,0,0,0,1970.876-36.281Zm-22.3-.086h16.808a.8.8,0,0,0,.02-.125c-.029-2.718.009-5.44-.107-8.154a7.177,7.177,0,0,0-3.765-6.115,9.168,9.168,0,0,0-6.945-.966,7.092,7.092,0,0,0-5.577,5.026,12.489,12.489,0,0,0-.473,3.595c-.021,1.7.024,3.41.038,5.115C1948.578-37.454,1948.574-36.917,1948.574-36.367Zm12.274,21.791c-.027-.139-.047-.25-.069-.359q-.8-3.879-1.61-7.758a.406.406,0,0,1,.131-.422,3.448,3.448,0,0,0,1.047-2.387,3.579,3.579,0,0,0-2.56-3.557,3.581,3.581,0,0,0-4.082,1.6,3.537,3.537,0,0,0,.539,4.341.433.433,0,0,1,.13.449q-.675,3.224-1.342,6.45c-.112.542-.22,1.085-.333,1.646Z" transform="translate(-378.311 515.223)"/><path class="ao" d="M1970.876-36.281c.244,0,.479,0,.714,0,.928.009,1.861-.029,2.785.04,1.087.082,1.507.579,1.56,1.677.01.208.011.417.011.625q0,11.83,0,23.66a7.036,7.036,0,0,1-.063,1.019,1.279,1.279,0,0,1-1.192,1.179,4.47,4.47,0,0,1-.651.052q-17.319,0-34.638,0a3.718,3.718,0,0,1-.453-.028,1.415,1.415,0,0,1-1.447-1.562c-.018-.34-.012-.682-.012-1.024q0-11.56,0-23.12a8.281,8.281,0,0,1,.045-1.134,1.35,1.35,0,0,1,1.37-1.333c.991-.077,1.987-.088,2.981-.121.3-.01.6,0,.946,0,0-.162,0-.272,0-.381,0-2.36-.053-4.722.025-7.08a13.827,13.827,0,0,1,5.611-10.973,12.342,12.342,0,0,1,5.8-2.307,15.278,15.278,0,0,1,8.093.895,13.961,13.961,0,0,1,8.094,9.507,16.416,16.416,0,0,1,.213,3.17c.055,2.359.122,4.718.185,7.077A1.515,1.515,0,0,0,1970.876-36.281Zm-22.3-.086h16.808a.8.8,0,0,0,.02-.125c-.029-2.718.009-5.44-.107-8.154a7.177,7.177,0,0,0-3.765-6.115,9.168,9.168,0,0,0-6.945-.966,7.092,7.092,0,0,0-5.577,5.026,12.489,12.489,0,0,0-.473,3.595c-.021,1.7.024,3.41.038,5.115C1948.578-37.454,1948.574-36.917,1948.574-36.367Zm12.274,21.791c-.027-.139-.047-.25-.069-.359q-.8-3.879-1.61-7.758a.406.406,0,0,1,.131-.422,3.448,3.448,0,0,0,1.047-2.387,3.579,3.579,0,0,0-2.56-3.557,3.581,3.581,0,0,0-4.082,1.6,3.537,3.537,0,0,0,.539,4.341.433.433,0,0,1,.13.449q-.675,3.224-1.342,6.45c-.112.542-.22,1.085-.333,1.646Z" transform="translate(-172.311 515.223)"/><text class="ap" transform="translate(659 456)"><tspan x="0" y="22">Man, 51 years old, present to an emergency </tspan><tspan x="0" y="49">department complaining of chest pain.</tspan></text><path class="aq" d="M0,0V112" transform="translate(640.5 430.5)"/><g transform="translate(104 -1035)"><path class="c" d="M42,0H147.59a42,42,0,0,1,42,42V147.59a42,42,0,0,1-42,42H42c-11.528,0-.755-10.576,0-96.007C41.245,12.8,30.332,0,42,0Z" transform="translate(966 1423.142)"/><text class="aa" transform="translate(1023 1497)"><tspan x="31.666" y="32">Go</tspan></text></g></g></svg>