<svg xmlns="http://www.w3.org/2000/svg" xmlns:xlink="http://www.w3.org/1999/xlink" width="1920" height="1080" viewBox="0 0 1920 1080"><defs><style>.a,.aa,.m,.s,.t{fill:#fff;}.a,.c{stroke:#a2a2a2;}.b,.c{fill:none;}.d{clip-path:url(#k);}.e{clip-path:url(#a);}.f{fill:#e3e3e3;}.g,.r{fill:#707070;}.g{font-size:16px;}.ad,.g,.z{font-family:SegoeUI, Segoe UI;}.h{clip-path:url(#b);}.i{fill:#009b3a;}.j{fill:#fedf00;}.k{fill:#002776;}.l{clip-path:url(#c);}.n{clip-path:url(#d);}.o{fill:#b22234;}.p{fill:#3c3b6e;}.q{clip-path:url(#e);}.s{stroke:#707070;}.t{stroke:#0d4a71;}.u{fill:#0d4a71;font-size:15px;}.ac,.ae,.u{font-family:SegoeUI-Bold, Segoe UI;font-weight:700;}.v{fill:#dc4e29;}.w{fill:#296bdc;}.x,.y{fill:#14b103;}.x{stroke:#2dc437;}.y{stroke:#38c43b;}.z{fill:#767676;}.ad,.z{font-size:20px;}.aa,.ab{letter-spacing:-0.025em;}.ac,.ad{fill:#346e93;}.ac,.ae{font-size:24px;}.ae{fill:#474747;}.af{stroke:none;}.ag{filter:url(#h);}.ah{filter:url(#f);}</style><clipPath id="a"><rect class="b" width="1920" height="52"/></clipPath><clipPath id="b"><rect class="a" width="48" height="32" rx="16" transform="translate(1625 10.217)"/></clipPath><clipPath id="c"><ellipse cx="8.4" cy="8.4" rx="8.4" ry="8.4"/></clipPath><clipPath id="d"><rect class="c" width="48" height="32" rx="14" transform="translate(13937 -52.783)"/></clipPath><clipPath id="e"><rect class="b" width="36" height="32"/></clipPath><filter id="f" x="254" y="194" width="620" height="793" filterUnits="userSpaceOnUse"><feOffset dy="3" input="SourceAlpha"/><feGaussianBlur stdDeviation="3" result="g"/><feFlood flood-opacity="0.161"/><feComposite operator="in" in2="g"/><feComposite in="SourceGraphic"/></filter><filter id="h" x="975" y="194" width="620" height="793" filterUnits="userSpaceOnUse"><feOffset dy="3" input="SourceAlpha"/><feGaussianBlur stdDeviation="3" result="i"/><feFlood flood-opacity="0.161"/><feComposite operator="in" in2="i"/><feComposite in="SourceGraphic"/></filter><clipPath id="k"><rect width="1920" height="1080"/></clipPath></defs><g id="j" class="d"><rect class="m" width="1920" height="1080"/><g class="e"><rect class="f" width="1920" height="50"/><g class="c" transform="translate(1518 10)"><rect class="af" width="92" height="31.566" rx="15.783"/><rect class="b" x="0.5" y="0.5" width="91" height="30.566" rx="15.283"/></g><text class="g" transform="translate(1543 31)"><tspan x="0" y="0">Fulano</tspan></text><g class="h"><g transform="translate(21699.588 8140.558)"><rect class="i" width="48.001" height="33.6" transform="translate(-20074.588 -8131.483)"/><path class="j" d="M-1743-1100.28l19.921,12.72,19.92-12.72-19.92-12.72Z" transform="translate(-18327.506 -7014.403)"/><ellipse class="k" cx="8.4" cy="8.4" rx="8.4" ry="8.4" transform="translate(-20058.783 -8123.083)"/><g class="l" transform="translate(-20058.783 -8123.083)"><path class="m" d="M-2205-294.6a20.4,20.4,0,0,1,20.4-20.4,20.4,20.4,0,0,1,20.4,20.4h-1.2a19.2,19.2,0,0,0-19.2-19.2,19.2,19.2,0,0,0-19.2,19.2Z" transform="translate(2188.2 319.8)"/></g></g></g><g class="c" transform="translate(1625 10.217)"><rect class="af" width="48" height="32" rx="14"/><rect class="b" x="0.5" y="0.5" width="47" height="31" rx="13.5"/></g></g><g transform="translate(-12312 63)"><g class="n"><g transform="translate(12757.771 -673.173)"><g transform="translate(1180.229 621.173)"><rect class="o" width="59.312" height="31.217"/></g><g transform="translate(1180.229 623.623)"><path class="m" d="M1239.542,649.753h-59.312v-2.305h59.313Zm0-4.8h-59.312v-2.3h59.313Zm0-4.8h-59.312v-2.3h59.313Zm0-4.8h-59.312v-2.305h59.313Zm0-4.8h-59.312v-2.306h59.313Zm0-4.8h-59.312v-2.306h59.313Z" transform="translate(-1180.229 -623.435)"/></g><g transform="translate(1180.229 621.173)"><rect class="p" width="23.725" height="16.809"/></g><g transform="translate(1181.292 621.894)"><path class="m" d="M1182.125,621.839l.564,1.737-1.478-1.074h1.827l-1.477,1.074Z" transform="translate(-1181.211 -621.839)"/><g transform="translate(0 3.361)"><path class="m" d="M1182.125,624.943l.564,1.737-1.478-1.073h1.827l-1.477,1.073Z" transform="translate(-1181.211 -624.943)"/></g><g transform="translate(0 6.723)"><path class="m" d="M1182.125,628.047l.564,1.738-1.478-1.074h1.827l-1.477,1.074Z" transform="translate(-1181.211 -628.047)"/></g><g transform="translate(0 10.085)"><path class="m" d="M1182.125,631.152l.564,1.737-1.478-1.073h1.827l-1.477,1.073Z" transform="translate(-1181.211 -631.152)"/></g><g transform="translate(0 13.447)"><path class="m" d="M1182.125,634.256l.564,1.738-1.478-1.074h1.827l-1.477,1.074Z" transform="translate(-1181.211 -634.256)"/></g><g transform="translate(1.977 1.681)"><path class="m" d="M1183.951,623.391l.564,1.737-1.478-1.073h1.827l-1.478,1.073Z" transform="translate(-1183.037 -623.391)"/><g transform="translate(0 3.361)"><path class="m" d="M1183.951,626.495l.564,1.738-1.478-1.074h1.827l-1.478,1.074Z" transform="translate(-1183.037 -626.495)"/></g><g transform="translate(0 6.724)"><path class="m" d="M1183.951,629.6l.564,1.737-1.478-1.074h1.827l-1.478,1.074Z" transform="translate(-1183.037 -629.6)"/></g><g transform="translate(0 10.085)"><path class="m" d="M1183.951,632.7l.564,1.738-1.478-1.074h1.827l-1.478,1.074Z" transform="translate(-1183.037 -632.704)"/></g></g><g transform="translate(3.955)"><path class="m" d="M1185.776,621.839l.565,1.737-1.478-1.074h1.827l-1.478,1.074Z" transform="translate(-1184.863 -621.839)"/><g transform="translate(0 3.361)"><path class="m" d="M1185.776,624.943l.565,1.737-1.478-1.073h1.827l-1.478,1.073Z" transform="translate(-1184.863 -624.943)"/></g><g transform="translate(0 6.723)"><path class="m" d="M1185.776,628.047l.565,1.738-1.478-1.074h1.827l-1.478,1.074Z" transform="translate(-1184.863 -628.047)"/></g><g transform="translate(0 10.085)"><path class="m" d="M1185.776,631.152l.565,1.737-1.478-1.073h1.827l-1.478,1.073Z" transform="translate(-1184.863 -631.152)"/></g><g transform="translate(0 13.447)"><path class="m" d="M1185.776,634.256l.565,1.738-1.478-1.074h1.827l-1.478,1.074Z" transform="translate(-1184.863 -634.256)"/></g><g transform="translate(1.976 1.681)"><path class="m" d="M1187.6,623.391l.564,1.737-1.478-1.073h1.828l-1.478,1.073Z" transform="translate(-1186.688 -623.391)"/><g transform="translate(0 3.361)"><path class="m" d="M1187.6,626.495l.564,1.738-1.478-1.074h1.828l-1.478,1.074Z" transform="translate(-1186.688 -626.495)"/></g><g transform="translate(0 6.724)"><path class="m" d="M1187.6,629.6l.564,1.737-1.478-1.074h1.828l-1.478,1.074Z" transform="translate(-1186.688 -629.6)"/></g><g transform="translate(0 10.085)"><path class="m" d="M1187.6,632.7l.564,1.738-1.478-1.074h1.828l-1.478,1.074Z" transform="translate(-1186.688 -632.704)"/></g></g></g><g transform="translate(7.909)"><path class="m" d="M1189.428,621.839l.564,1.737-1.478-1.074h1.827l-1.478,1.074Z" transform="translate(-1188.514 -621.839)"/><g transform="translate(0 3.361)"><path class="m" d="M1189.428,624.943l.564,1.737-1.478-1.073h1.827l-1.478,1.073Z" transform="translate(-1188.514 -624.943)"/></g><g transform="translate(0 6.723)"><path class="m" d="M1189.428,628.047l.564,1.738-1.478-1.074h1.827l-1.478,1.074Z" transform="translate(-1188.514 -628.047)"/></g><g transform="translate(0 10.085)"><path class="m" d="M1189.428,631.152l.564,1.737-1.478-1.073h1.827l-1.478,1.073Z" transform="translate(-1188.514 -631.152)"/></g><g transform="translate(0 13.447)"><path class="m" d="M1189.428,634.256l.564,1.738-1.478-1.074h1.827l-1.478,1.074Z" transform="translate(-1188.514 -634.256)"/></g><g transform="translate(1.977 1.681)"><path class="m" d="M1191.253,623.391l.565,1.737-1.478-1.073h1.827l-1.478,1.073Z" transform="translate(-1190.34 -623.391)"/><g transform="translate(0 3.361)"><path class="m" d="M1191.253,626.495l.565,1.738-1.478-1.074h1.827l-1.478,1.074Z" transform="translate(-1190.34 -626.495)"/></g><g transform="translate(0 6.724)"><path class="m" d="M1191.253,629.6l.565,1.737-1.478-1.074h1.827l-1.478,1.074Z" transform="translate(-1190.34 -629.6)"/></g><g transform="translate(0 10.085)"><path class="m" d="M1191.253,632.7l.565,1.738-1.478-1.074h1.827l-1.478,1.074Z" transform="translate(-1190.34 -632.704)"/></g></g><g transform="translate(3.955)"><path class="m" d="M1193.079,621.839l.564,1.737-1.477-1.074h1.827l-1.478,1.074Z" transform="translate(-1192.166 -621.839)"/><g transform="translate(0 3.361)"><path class="m" d="M1193.079,624.943l.564,1.737-1.477-1.073h1.827l-1.478,1.073Z" transform="translate(-1192.166 -624.943)"/></g><g transform="translate(0 6.723)"><path class="m" d="M1193.079,628.047l.564,1.738-1.477-1.074h1.827l-1.478,1.074Z" transform="translate(-1192.166 -628.047)"/></g><g transform="translate(0 10.085)"><path class="m" d="M1193.079,631.152l.564,1.737-1.477-1.073h1.827l-1.478,1.073Z" transform="translate(-1192.166 -631.152)"/></g><g transform="translate(0 13.447)"><path class="m" d="M1193.079,634.256l.564,1.738-1.477-1.074h1.827l-1.478,1.074Z" transform="translate(-1192.166 -634.256)"/></g><g transform="translate(1.976 1.681)"><path class="m" d="M1194.905,623.391l.564,1.737-1.478-1.073h1.827l-1.478,1.073Z" transform="translate(-1193.991 -623.391)"/><g transform="translate(0 3.361)"><path class="m" d="M1194.905,626.495l.564,1.738-1.478-1.074h1.827l-1.478,1.074Z" transform="translate(-1193.991 -626.495)"/></g><g transform="translate(0 6.724)"><path class="m" d="M1194.905,629.6l.564,1.737-1.478-1.074h1.827l-1.478,1.074Z" transform="translate(-1193.991 -629.6)"/></g><g transform="translate(0 10.085)"><path class="m" d="M1194.905,632.7l.564,1.738-1.478-1.074h1.827l-1.478,1.074Z" transform="translate(-1193.991 -632.704)"/></g></g></g></g><g transform="translate(15.817)"><path class="m" d="M1196.73,621.839l.565,1.737-1.478-1.074h1.827l-1.478,1.074Z" transform="translate(-1195.817 -621.839)"/><g transform="translate(0 3.361)"><path class="m" d="M1196.73,624.943l.565,1.737-1.478-1.073h1.827l-1.478,1.073Z" transform="translate(-1195.817 -624.943)"/></g><g transform="translate(0 6.723)"><path class="m" d="M1196.73,628.047l.565,1.738-1.478-1.074h1.827l-1.478,1.074Z" transform="translate(-1195.817 -628.047)"/></g><g transform="translate(0 10.085)"><path class="m" d="M1196.73,631.152l.565,1.737-1.478-1.073h1.827l-1.478,1.073Z" transform="translate(-1195.817 -631.152)"/></g><g transform="translate(0 13.447)"><path class="m" d="M1196.73,634.256l.565,1.738-1.478-1.074h1.827l-1.478,1.074Z" transform="translate(-1195.817 -634.256)"/></g><g transform="translate(1.977 1.681)"><path class="m" d="M1198.556,623.391l.565,1.737-1.478-1.073h1.827l-1.478,1.073Z" transform="translate(-1197.643 -623.391)"/><g transform="translate(0 3.361)"><path class="m" d="M1198.556,626.495l.565,1.738-1.478-1.074h1.827l-1.478,1.074Z" transform="translate(-1197.643 -626.495)"/></g><g transform="translate(0 6.724)"><path class="m" d="M1198.556,629.6l.565,1.737-1.478-1.074h1.827l-1.478,1.074Z" transform="translate(-1197.643 -629.6)"/></g><g transform="translate(0 10.085)"><path class="m" d="M1198.556,632.7l.565,1.738-1.478-1.074h1.827l-1.478,1.074Z" transform="translate(-1197.643 -632.704)"/></g></g></g><g transform="translate(19.771)"><path class="m" d="M1200.382,621.839l.564,1.737-1.478-1.074h1.827l-1.477,1.074Z" transform="translate(-1199.468 -621.839)"/><g transform="translate(0 3.361)"><path class="m" d="M1200.382,624.943l.564,1.737-1.478-1.073h1.827l-1.477,1.073Z" transform="translate(-1199.468 -624.943)"/></g><g transform="translate(0 6.723)"><path class="m" d="M1200.382,628.047l.564,1.738-1.478-1.074h1.827l-1.477,1.074Z" transform="translate(-1199.468 -628.047)"/></g><g transform="translate(0 10.085)"><path class="m" d="M1200.382,631.152l.564,1.737-1.478-1.073h1.827l-1.477,1.073Z" transform="translate(-1199.468 -631.152)"/></g><g transform="translate(0 13.447)"><path class="m" d="M1200.382,634.256l.564,1.738-1.478-1.074h1.827l-1.477,1.074Z" transform="translate(-1199.468 -634.256)"/></g></g></g></g></g><g class="c" transform="translate(13937 -52.783)"><rect class="af" width="48" height="32" rx="14"/><rect class="b" x="0.5" y="0.5" width="47" height="31" rx="13.5"/></g></g><g class="q" transform="translate(1452 10.217)"><g transform="translate(455.303 386.855)"><g transform="translate(-448.001 -380.006)"><path class="r" d="M73.45,120.939l-7.738,6.38a.183.183,0,0,1-.007.04.184.184,0,0,0-.007.04v6.46a.874.874,0,0,0,.861.862h5.168v-5.168h3.446v5.168h5.168a.875.875,0,0,0,.862-.862V127.4a.19.19,0,0,0-.014-.08Z" transform="translate(-62.601 -117.453)"/><path class="r" d="M21.548,55.406,18.6,52.956V47.465a.415.415,0,0,0-.431-.431H15.586a.414.414,0,0,0-.431.431V50.09l-3.284-2.746a1.67,1.67,0,0,0-2.045,0L.149,55.406A.391.391,0,0,0,0,55.695a.436.436,0,0,0,.094.316l.834,1a.459.459,0,0,0,.283.148.5.5,0,0,0,.323-.094L10.848,49.3l9.313,7.766a.415.415,0,0,0,.283.094h.04a.46.46,0,0,0,.283-.148l.834-1a.436.436,0,0,0,.094-.317A.392.392,0,0,0,21.548,55.406Z" transform="translate(0.001 -46.994)"/></g></g><g class="c"><rect class="af" width="36" height="32" rx="14"/><rect class="b" x="0.5" y="0.5" width="35" height="31" rx="13.5"/></g></g><g transform="translate(-252 -155)"><image width="1632" height="853.234" transform="translate(396 316)" xlink:href="Experimente%201%20-%2024-image.png"/></g><g class="ah" transform="matrix(1, 0, 0, 1, 0, 0)"><g class="s" transform="translate(263 200)"><rect class="af" width="602" height="775" rx="20"/><rect class="b" x="0.5" y="0.5" width="601" height="774" rx="19.5"/></g></g><g class="ag" transform="matrix(1, 0, 0, 1, 0, 0)"><g class="s" transform="translate(984 200)"><rect class="af" width="602" height="775" rx="20"/><rect class="b" x="0.5" y="0.5" width="601" height="774" rx="19.5"/></g></g><g transform="translate(-396 84)"><g transform="translate(205 -53)"><g class="t" transform="translate(481 420)"><rect class="af" width="123" height="25" rx="12.5"/><rect class="b" x="0.5" y="0.5" width="122" height="24" rx="12"/></g><text class="u" transform="translate(493 438)"><tspan x="0" y="0">NURSE Agnes </tspan></text></g><g transform="translate(233 -90)"><g class="t" transform="translate(453 591)"><rect class="af" width="131" height="25" rx="12.5"/><rect class="b" x="0.5" y="0.5" width="130" height="24" rx="12"/></g><text class="u" transform="translate(462 609)"><tspan x="0" y="0">PATIENT Jakob</tspan></text></g><g transform="translate(233 100)"><g class="t" transform="translate(453 591)"><rect class="af" width="203" height="25" rx="12.5"/><rect class="b" x="0.5" y="0.5" width="202" height="24" rx="12"/></g><text class="u" transform="translate(462 609)"><tspan x="0" y="0">PHYSICAL EXAMINATION</tspan></text></g><rect class="v" width="123" height="25" rx="12.5" transform="translate(884 448)"/><path class="v" d="M0,0H45.5A12.5,12.5,0,0,1,58,12.5v0A12.5,12.5,0,0,1,45.5,25H0a0,0,0,0,1,0,0V0A0,0,0,0,1,0,0Z" transform="translate(686 746)"/><path class="v" d="M0,0H172.5A12.5,12.5,0,0,1,185,12.5v0A12.5,12.5,0,0,1,172.5,25H0a0,0,0,0,1,0,0V0A0,0,0,0,1,0,0Z" transform="translate(686 610)"/><path class="v" d="M12.5,0H414a0,0,0,0,1,0,0V25a0,0,0,0,1,0,0H12.5A12.5,12.5,0,0,1,0,12.5v0A12.5,12.5,0,0,1,12.5,0Z" transform="translate(793 719)"/><rect class="v" width="244" height="25" rx="12.5" transform="translate(749 556)"/><path class="v" d="M12.5,0H102a0,0,0,0,1,0,0V25a0,0,0,0,1,0,0H12.5A12.5,12.5,0,0,1,0,12.5v0A12.5,12.5,0,0,1,12.5,0Z" transform="translate(1116 583)"/><rect class="v" width="109" height="25" rx="12.5" transform="translate(1127 421)"/><rect class="w" width="173" height="25" rx="12.5" transform="translate(817 421)"/><path class="w" d="M0,0H41.5A12.5,12.5,0,0,1,54,12.5v0A12.5,12.5,0,0,1,41.5,25H0a0,0,0,0,1,0,0V0A0,0,0,0,1,0,0Z" transform="translate(686 556)"/><rect class="w" width="417" height="25" rx="12.5" transform="translate(757 746)"/><rect class="w" width="282" height="25" rx="12.5" transform="translate(877 610)"/><path class="w" d="M12.5,0H310a0,0,0,0,1,0,0V25a0,0,0,0,1,0,0H12.5A12.5,12.5,0,0,1,0,12.5v0A12.5,12.5,0,0,1,12.5,0Z" transform="translate(937 529)"/><rect class="w" width="182" height="25" rx="12.5" transform="translate(690 447)"/><g class="x" transform="translate(1027 367)"><rect class="af" width="124" height="25" rx="12.5"/><rect class="b" x="0.5" y="0.5" width="123" height="24" rx="12"/></g><g class="x" transform="translate(1094 394)"><rect class="af" width="102" height="25" rx="12.5"/><rect class="b" x="0.5" y="0.5" width="101" height="24" rx="12"/></g><g class="y" transform="translate(723 529)"><rect class="af" width="175" height="25" rx="12.5"/><rect class="b" x="0.5" y="0.5" width="174" height="24" rx="12"/></g><g class="y" transform="translate(686 719)"><path class="af" d="M0,0H89.5A12.5,12.5,0,0,1,102,12.5v0A12.5,12.5,0,0,1,89.5,25H0a0,0,0,0,1,0,0V0A0,0,0,0,1,0,0Z"/><path class="b" d="M.755.5H89.5a12,12,0,0,1,12,12v0a12,12,0,0,1-12,12H.755A.255.255,0,0,1,.5,24.245V.755A.255.255,0,0,1,.755.5Z"/></g><g class="y" transform="translate(1036 556)"><rect class="af" width="154" height="25" rx="12.5"/><rect class="b" x="0.5" y="0.5" width="153" height="24" rx="12"/></g><g class="y" transform="translate(891 691)"><path class="af" d="M12.5,0H334a0,0,0,0,1,0,0V25a0,0,0,0,1,0,0H12.5A12.5,12.5,0,0,1,0,12.5v0A12.5,12.5,0,0,1,12.5,0Z"/><path class="b" d="M12.5.5H333.245a.255.255,0,0,1,.255.255V24.245a.255.255,0,0,1-.255.255H12.5a12,12,0,0,1-12-12v0a12,12,0,0,1,12-12Z"/></g><g class="y" transform="translate(877 583)"><rect class="af" width="198" height="25" rx="12.5"/><rect class="b" x="0.5" y="0.5" width="197" height="24" rx="12"/></g><g class="x" transform="translate(1003 421)"><rect class="af" width="117" height="25" rx="12.5"/><rect class="b" x="0.5" y="0.5" width="116" height="24" rx="12"/></g><text class="z" transform="translate(686 364)"><tspan x="0" y="22" xml:space="preserve">                        Doctor, we have a man,  </tspan><tspan class="m" y="22">51 years old</tspan><tspan y="22" xml:space="preserve">  , who </tspan><tspan x="0" y="49" xml:space="preserve">entered the emergency department reporting  </tspan><tspan class="m" y="49">chest pain</tspan><tspan y="49" xml:space="preserve"> . His </tspan><tspan x="0" y="76" xml:space="preserve">vital signs are   </tspan><tspan class="m" y="76">ABP144x92mmHG</tspan><tspan y="76" xml:space="preserve">  ; </tspan><tspan class="m" y="76" xml:space="preserve"> HR 78 bpm</tspan><tspan y="76" xml:space="preserve">  ; </tspan><tspan class="m" y="76" xml:space="preserve"> RR 21 rpm</tspan><tspan y="76" xml:space="preserve">  ;   </tspan><tspan x="0" y="103" xml:space="preserve">  </tspan><tspan class="m" y="103">Temperature 37 ºC</tspan><tspan y="103" xml:space="preserve">  ;   </tspan><tspan class="m" y="103">O2 Sat 98%</tspan><tspan y="103" xml:space="preserve">  .</tspan><tspan x="0" y="130"></tspan><tspan x="0" y="157" xml:space="preserve">                         Doctor, I am feeling chest pain since yesterday. </tspan><tspan x="0" y="184" xml:space="preserve">The  </tspan><tspan class="m" y="184">pain is continuous</tspan><tspan y="184" xml:space="preserve">  and </tspan><tspan class="m" y="184" xml:space="preserve"> is located just in the middle of my </tspan><tspan class="m" x="0" y="211">chest </tspan><tspan y="211" xml:space="preserve"> ,  </tspan><tspan class="m" y="211">worsening when I breathe</tspan><tspan y="211" xml:space="preserve">  and  </tspan><tspan class="m" y="211">when I lay down</tspan><tspan y="211" xml:space="preserve"> on </tspan><tspan x="0" y="238" xml:space="preserve">my bed. I suffer from   </tspan><tspan class="m" y="238">arterial hypertension</tspan><tspan y="238" xml:space="preserve">  and </tspan><tspan class="m" y="238" xml:space="preserve"> smoke 20 </tspan><tspan class="m" x="0" y="265">cigarettes every day</tspan><tspan y="265" xml:space="preserve">  . </tspan><tspan class="m" y="265">My father had a “heart attack” </tspan><tspan y="265" xml:space="preserve">  at my </tspan><tspan x="0" y="292">age and I am very worried about it.</tspan><tspan x="0" y="319"></tspan><tspan x="0" y="346" xml:space="preserve">                                      </tspan><tspan class="m" y="346" xml:space="preserve"> Cardiac and pulmonary auscultation </tspan><tspan class="m" x="0" y="373">are normal</tspan><tspan y="373" xml:space="preserve"> ; </tspan><tspan class="m" y="373"> </tspan><tspan class="aa" y="373">chest pain does not worse with palpation of the </tspan><tspan class="aa" x="0" y="400">thorax</tspan><tspan class="ab" y="400" xml:space="preserve">  ;  </tspan><tspan class="aa" y="400">there is no jugular stasi</tspan><tspan class="m" y="400" xml:space="preserve">s  nor lower limb edema</tspan><tspan y="400" xml:space="preserve">  .</tspan></text></g><g transform="translate(325 84)"><g transform="translate(205 -53)"><g class="t" transform="translate(481 420)"><rect class="af" width="123" height="25" rx="12.5"/><rect class="b" x="0.5" y="0.5" width="122" height="24" rx="12"/></g><text class="u" transform="translate(493 438)"><tspan x="0" y="0">NURSE Agnes </tspan></text></g><g transform="translate(233 -90)"><g class="t" transform="translate(453 591)"><rect class="af" width="131" height="25" rx="12.5"/><rect class="b" x="0.5" y="0.5" width="130" height="24" rx="12"/></g><text class="u" transform="translate(462 609)"><tspan x="0" y="0">PATIENT Jakob</tspan></text></g><g transform="translate(233 100)"><g class="t" transform="translate(453 591)"><rect class="af" width="203" height="25" rx="12.5"/><rect class="b" x="0.5" y="0.5" width="202" height="24" rx="12"/></g><text class="u" transform="translate(462 609)"><tspan x="0" y="0">PHYSICAL EXAMINATION</tspan></text></g><rect class="v" width="123" height="25" rx="12.5" transform="translate(884 448)"/><path class="v" d="M0,0H45.5A12.5,12.5,0,0,1,58,12.5v0A12.5,12.5,0,0,1,45.5,25H0a0,0,0,0,1,0,0V0A0,0,0,0,1,0,0Z" transform="translate(686 746)"/><path class="v" d="M0,0H172.5A12.5,12.5,0,0,1,185,12.5v0A12.5,12.5,0,0,1,172.5,25H0a0,0,0,0,1,0,0V0A0,0,0,0,1,0,0Z" transform="translate(686 610)"/><path class="v" d="M12.5,0H414a0,0,0,0,1,0,0V25a0,0,0,0,1,0,0H12.5A12.5,12.5,0,0,1,0,12.5v0A12.5,12.5,0,0,1,12.5,0Z" transform="translate(793 719)"/><rect class="v" width="244" height="25" rx="12.5" transform="translate(749 556)"/><path class="v" d="M12.5,0H102a0,0,0,0,1,0,0V25a0,0,0,0,1,0,0H12.5A12.5,12.5,0,0,1,0,12.5v0A12.5,12.5,0,0,1,12.5,0Z" transform="translate(1116 583)"/><rect class="v" width="109" height="25" rx="12.5" transform="translate(1127 421)"/><rect class="w" width="173" height="25" rx="12.5" transform="translate(817 421)"/><path class="w" d="M0,0H41.5A12.5,12.5,0,0,1,54,12.5v0A12.5,12.5,0,0,1,41.5,25H0a0,0,0,0,1,0,0V0A0,0,0,0,1,0,0Z" transform="translate(686 556)"/><rect class="w" width="417" height="25" rx="12.5" transform="translate(757 746)"/><rect class="w" width="282" height="25" rx="12.5" transform="translate(877 610)"/><path class="w" d="M12.5,0H310a0,0,0,0,1,0,0V25a0,0,0,0,1,0,0H12.5A12.5,12.5,0,0,1,0,12.5v0A12.5,12.5,0,0,1,12.5,0Z" transform="translate(937 529)"/><rect class="w" width="182" height="25" rx="12.5" transform="translate(690 447)"/><g class="x" transform="translate(1027 367)"><rect class="af" width="124" height="25" rx="12.5"/><rect class="b" x="0.5" y="0.5" width="123" height="24" rx="12"/></g><g class="x" transform="translate(1094 394)"><rect class="af" width="102" height="25" rx="12.5"/><rect class="b" x="0.5" y="0.5" width="101" height="24" rx="12"/></g><g class="y" transform="translate(723 529)"><rect class="af" width="175" height="25" rx="12.5"/><rect class="b" x="0.5" y="0.5" width="174" height="24" rx="12"/></g><g class="y" transform="translate(686 719)"><path class="af" d="M0,0H89.5A12.5,12.5,0,0,1,102,12.5v0A12.5,12.5,0,0,1,89.5,25H0a0,0,0,0,1,0,0V0A0,0,0,0,1,0,0Z"/><path class="b" d="M.755.5H89.5a12,12,0,0,1,12,12v0a12,12,0,0,1-12,12H.755A.255.255,0,0,1,.5,24.245V.755A.255.255,0,0,1,.755.5Z"/></g><g class="y" transform="translate(1036 556)"><rect class="af" width="154" height="25" rx="12.5"/><rect class="b" x="0.5" y="0.5" width="153" height="24" rx="12"/></g><g class="y" transform="translate(891 691)"><path class="af" d="M12.5,0H334a0,0,0,0,1,0,0V25a0,0,0,0,1,0,0H12.5A12.5,12.5,0,0,1,0,12.5v0A12.5,12.5,0,0,1,12.5,0Z"/><path class="b" d="M12.5.5H333.245a.255.255,0,0,1,.255.255V24.245a.255.255,0,0,1-.255.255H12.5a12,12,0,0,1-12-12v0a12,12,0,0,1,12-12Z"/></g><g class="y" transform="translate(877 583)"><rect class="af" width="198" height="25" rx="12.5"/><rect class="b" x="0.5" y="0.5" width="197" height="24" rx="12"/></g><g class="x" transform="translate(1003 421)"><rect class="af" width="117" height="25" rx="12.5"/><rect class="b" x="0.5" y="0.5" width="116" height="24" rx="12"/></g><text class="z" transform="translate(686 364)"><tspan x="0" y="22" xml:space="preserve">                        Doctor, we have a man,  </tspan><tspan class="m" y="22">51 years old</tspan><tspan y="22" xml:space="preserve">  , who </tspan><tspan x="0" y="49" xml:space="preserve">entered the emergency department reporting  </tspan><tspan class="m" y="49">chest pain</tspan><tspan y="49" xml:space="preserve"> . His </tspan><tspan x="0" y="76" xml:space="preserve">vital signs are   </tspan><tspan class="m" y="76">ABP144x92mmHG</tspan><tspan y="76" xml:space="preserve">  ; </tspan><tspan class="m" y="76" xml:space="preserve"> HR 78 bpm</tspan><tspan y="76" xml:space="preserve">  ; </tspan><tspan class="m" y="76" xml:space="preserve"> RR 21 rpm</tspan><tspan y="76" xml:space="preserve">  ;   </tspan><tspan x="0" y="103" xml:space="preserve">  </tspan><tspan class="m" y="103">Temperature 37 ºC</tspan><tspan y="103" xml:space="preserve">  ;   </tspan><tspan class="m" y="103">O2 Sat 98%</tspan><tspan y="103" xml:space="preserve">  .</tspan><tspan x="0" y="130"></tspan><tspan x="0" y="157" xml:space="preserve">                         Doctor, I am feeling chest pain since yesterday. </tspan><tspan x="0" y="184" xml:space="preserve">The  </tspan><tspan class="m" y="184">pain is continuous</tspan><tspan y="184" xml:space="preserve">  and </tspan><tspan class="m" y="184" xml:space="preserve"> is located just in the middle of my </tspan><tspan class="m" x="0" y="211">chest </tspan><tspan y="211" xml:space="preserve"> ,  </tspan><tspan class="m" y="211">worsening when I breathe</tspan><tspan y="211" xml:space="preserve">  and  </tspan><tspan class="m" y="211">when I lay down</tspan><tspan y="211" xml:space="preserve"> on </tspan><tspan x="0" y="238" xml:space="preserve">my bed. I suffer from   </tspan><tspan class="m" y="238">arterial hypertension</tspan><tspan y="238" xml:space="preserve">  and </tspan><tspan class="m" y="238" xml:space="preserve"> smoke 20 </tspan><tspan class="m" x="0" y="265">cigarettes every day</tspan><tspan y="265" xml:space="preserve">  . </tspan><tspan class="m" y="265">My father had a “heart attack” </tspan><tspan y="265" xml:space="preserve">  at my </tspan><tspan x="0" y="292">age and I am very worried about it.</tspan><tspan x="0" y="319"></tspan><tspan x="0" y="346" xml:space="preserve">                                      </tspan><tspan class="m" y="346" xml:space="preserve"> Cardiac and pulmonary auscultation </tspan><tspan class="m" x="0" y="373">are normal</tspan><tspan y="373" xml:space="preserve"> ; </tspan><tspan class="m" y="373"> </tspan><tspan class="aa" y="373">chest pain does not worse with palpation of the </tspan><tspan class="aa" x="0" y="400">thorax</tspan><tspan class="ab" y="400" xml:space="preserve">  ;  </tspan><tspan class="aa" y="400">there is no jugular stasi</tspan><tspan class="m" y="400" xml:space="preserve">s  nor lower limb edema</tspan><tspan y="400" xml:space="preserve">  .</tspan></text></g><text class="ac" transform="translate(298 262)"><tspan x="0" y="26">Your hypothesis</tspan></text><text class="ad" transform="translate(294 386)"><tspan x="0" y="22">Your choices were:</tspan></text><text class="ad" transform="translate(1011 386)"><tspan x="0" y="22">Answer key:</tspan></text><text class="ae" transform="translate(540 262)"><tspan x="0" y="26">diabetes</tspan></text><text class="ae" transform="translate(1254 262)"><tspan x="0" y="26">myocardic </tspan></text><text class="ac" transform="translate(1019 262)"><tspan x="0" y="26">The final diagnosis</tspan></text></g></svg>