<svg xmlns="http://www.w3.org/2000/svg" xmlns:xlink="http://www.w3.org/1999/xlink" width="1920" height="1080" viewBox="0 0 1920 1080"><defs><style>.a,.c{fill:#fff;}.b,.j{fill:none;}.c,.j{stroke:#a2a2a2;}.d{clip-path:url(#f);}.e,.r{fill:#346e93;}.e{font-size:72px;font-family:SegoeUIBlack, Segoe UI;}.f,.k{fill:#707070;}.f{font-size:36px;}.f,.h,.k{font-family:SegoeUI, Segoe UI;}.g{fill:#e3e3e3;}.h{fill:#666;font-size:32px;}.i{clip-path:url(#a);}.k{font-size:16px;}.l{clip-path:url(#b);}.m{fill:#009b3a;}.n{fill:#fedf00;}.o{fill:#002776;}.p{clip-path:url(#c);}.q{clip-path:url(#d);}.s{stroke:none;}</style><clipPath id="a"><rect class="b" width="1920" height="52"/></clipPath><clipPath id="b"><rect class="c" width="48" height="32" rx="16" transform="translate(1625 10.217)"/></clipPath><clipPath id="c"><ellipse cx="8.4" cy="8.4" rx="8.4" ry="8.4"/></clipPath><clipPath id="d"><rect class="b" width="73" height="73"/></clipPath><clipPath id="f"><rect width="1920" height="1080"/></clipPath></defs><g id="e" class="d"><rect class="a" width="1920" height="1080"/><text class="e" transform="translate(556 239)"><tspan x="0" y="0">Envie sua foto</tspan></text><text class="f" transform="translate(556 296)"><tspan x="0" y="0">Fulano, envie uma imagem que te represente. </tspan></text><rect class="g" width="396" height="117" rx="58.5" transform="translate(762 819)"/><text class="h" transform="translate(856 891)"><tspan x="0" y="0">Enviar imagem</tspan></text><g class="i"><rect class="g" width="1920" height="50"/><g class="j" transform="translate(1518 10)"><rect class="s" width="92" height="31.566" rx="15.783"/><rect class="b" x="0.5" y="0.5" width="91" height="30.566" rx="15.283"/></g><text class="k" transform="translate(1543 31)"><tspan x="0" y="0">Entrar</tspan></text><g class="l"><g transform="translate(21699.588 8140.558)"><rect class="m" width="48.001" height="33.6" transform="translate(-20074.588 -8131.483)"/><path class="n" d="M-1743-1100.28l19.921,12.72,19.92-12.72-19.92-12.72Z" transform="translate(-18327.506 -7014.403)"/><ellipse class="o" cx="8.4" cy="8.4" rx="8.4" ry="8.4" transform="translate(-20058.783 -8123.083)"/><g class="p" transform="translate(-20058.783 -8123.083)"><path class="a" d="M-2205-294.6a20.4,20.4,0,0,1,20.4-20.4,20.4,20.4,0,0,1,20.4,20.4h-1.2a19.2,19.2,0,0,0-19.2-19.2,19.2,19.2,0,0,0-19.2,19.2Z" transform="translate(2188.2 319.8)"/></g></g></g><g class="j" transform="translate(1625 10.217)"><rect class="s" width="48" height="32" rx="14"/><rect class="b" x="0.5" y="0.5" width="47" height="31" rx="13.5"/></g></g><g class="q" transform="translate(473.5 100)"><circle class="r" cx="36.5" cy="36.5" r="36.5"/><path class="a" d="M863.02,182.135H832.728a.519.519,0,0,1-.367-.887l6.732-6.732a.519.519,0,0,0,0-.734l-4.641-4.641a.519.519,0,0,0-.734,0l-12.995,12.995h-.054v.054L817.26,185.6a.52.52,0,0,0,0,.735l16.457,16.457a.519.519,0,0,0,.734,0l4.641-4.641a.519.519,0,0,0,0-.734l-6.788-6.788a.519.519,0,0,1,.367-.887H863.02a.519.519,0,0,0,.519-.519v-6.564A.519.519,0,0,0,863.02,182.135Z" transform="translate(-804.108 -148.988)"/></g></g></svg>