<svg xmlns="http://www.w3.org/2000/svg" xmlns:xlink="http://www.w3.org/1999/xlink" width="1920" height="1080" viewBox="0 0 1920 1080"><defs><style>.a,.m{fill:#fff;}.a,.f{stroke:#a2a2a2;}.b,.f{fill:none;}.c{clip-path:url(#e);}.d{clip-path:url(#a);}.e{fill:#e3e3e3;}.g{fill:#707070;font-size:16px;font-family:SegoeUI, Segoe UI;}.h{clip-path:url(#b);}.i{fill:#009b3a;}.j{fill:#fedf00;}.k{fill:#002776;}.l{clip-path:url(#c);}.n{stroke:none;}</style><clipPath id="a"><rect class="b" width="1920" height="52"/></clipPath><clipPath id="b"><rect class="a" width="48" height="32" rx="16" transform="translate(1625 10.217)"/></clipPath><clipPath id="c"><ellipse cx="8.4" cy="8.4" rx="8.4" ry="8.4"/></clipPath><clipPath id="e"><rect width="1920" height="1080"/></clipPath></defs><g id="d" class="c"><rect class="m" width="1920" height="1080"/><g class="d"><rect class="e" width="1920" height="50"/><g class="f" transform="translate(1518 10)"><rect class="n" width="92" height="31.566" rx="15.783"/><rect class="b" x="0.5" y="0.5" width="91" height="30.566" rx="15.283"/></g><text class="g" transform="translate(1543 31)"><tspan x="0" y="0">Entrar</tspan></text><g class="h"><g transform="translate(21699.588 8140.558)"><rect class="i" width="48.001" height="33.6" transform="translate(-20074.588 -8131.483)"/><path class="j" d="M-1743-1100.28l19.921,12.72,19.92-12.72-19.92-12.72Z" transform="translate(-18327.506 -7014.403)"/><ellipse class="k" cx="8.4" cy="8.4" rx="8.4" ry="8.4" transform="translate(-20058.783 -8123.083)"/><g class="l" transform="translate(-20058.783 -8123.083)"><path class="m" d="M-2205-294.6a20.4,20.4,0,0,1,20.4-20.4,20.4,20.4,0,0,1,20.4,20.4h-1.2a19.2,19.2,0,0,0-19.2-19.2,19.2,19.2,0,0,0-19.2,19.2Z" transform="translate(2188.2 319.8)"/></g></g></g><g class="f" transform="translate(1625 10.217)"><rect class="n" width="48" height="32" rx="14"/><rect class="b" x="0.5" y="0.5" width="47" height="31" rx="13.5"/></g></g></g></svg>