<svg xmlns="http://www.w3.org/2000/svg" xmlns:xlink="http://www.w3.org/1999/xlink" width="1920" height="1080" viewBox="0 0 1920 1080"><defs><style>.a,.ak,.b,.h,.o,.y{fill:#fff;}.a{stroke:#707070;}.b,.d{stroke:#a2a2a2;}.c,.d,.z{fill:none;}.e{clip-path:url(#k);}.f{clip-path:url(#a);}.g{fill:#ba2027;}.aa,.h{font-size:18px;}.ab,.h,.i,.l,.s{font-family:SegoeUI, Segoe UI;}.ai,.i{fill:#346e93;}.i{font-size:28px;}.j{fill:#d6d6d6;}.k{fill:#0d7114;}.l,.m{fill:#545454;}.l,.m,.s{font-size:16px;}.aa,.m,.o{font-family:SegoeUI-Bold, Segoe UI;font-weight:700;}.n,.p{fill:#0d4a71;}.ab,.o{font-size:20px;}.p{stroke:#fff;stroke-width:2px;}.q{clip-path:url(#d);}.r{fill:#e3e3e3;}.ag,.s{fill:#707070;}.t{clip-path:url(#e);}.u{fill:#009b3a;}.v{fill:#fedf00;}.w{fill:#002776;}.x{clip-path:url(#f);}.aa,.al{fill:#2e2e2e;}.ab{font-weight:400;}.ac{clip-path:url(#g);}.ad{fill:#b22234;}.ae{fill:#3c3b6e;}.af{clip-path:url(#h);}.ah{clip-path:url(#i);}.aj,.ak,.al{stroke:none;}.am{filter:url(#b);}</style><clipPath id="a"><rect class="a" width="602" height="853" rx="20" transform="translate(144 161)"/></clipPath><filter id="b" x="650" y="194" width="620" height="793" filterUnits="userSpaceOnUse"><feOffset dy="3" input="SourceAlpha"/><feGaussianBlur stdDeviation="3" result="c"/><feFlood flood-opacity="0.161"/><feComposite operator="in" in2="c"/><feComposite in="SourceGraphic"/></filter><clipPath id="d"><rect class="c" width="1920" height="52"/></clipPath><clipPath id="e"><rect class="b" width="48" height="32" rx="16" transform="translate(1625 10.217)"/></clipPath><clipPath id="f"><ellipse cx="8.4" cy="8.4" rx="8.4" ry="8.4"/></clipPath><clipPath id="g"><rect class="d" width="48" height="32" rx="14" transform="translate(13937 -52.783)"/></clipPath><clipPath id="h"><rect class="c" width="36" height="32"/></clipPath><clipPath id="i"><rect class="c" width="50" height="50.694"/></clipPath><clipPath id="k"><rect width="1920" height="1080"/></clipPath></defs><g id="j" class="e"><rect class="y" width="1920" height="1080"/><g transform="translate(-252 -155)"><image width="1632" height="853.234" transform="translate(396 316)" xlink:href="Experimente%201%20-%2010-image.png"/></g><g class="f"><image width="725" height="699" transform="translate(-12 315)" xlink:href="Experimente%201%20-%2010-image2.png"/></g><g class="am" transform="matrix(1, 0, 0, 1, 0, 0)"><g class="a" transform="translate(659 200)"><rect class="aj" width="602" height="775" rx="20"/><rect class="c" x="0.5" y="0.5" width="601" height="774" rx="19.5"/></g></g><g class="a" transform="translate(659 797)"><rect class="aj" width="602" height="178" rx="12"/><rect class="c" x="0.5" y="0.5" width="601" height="177" rx="11.5"/></g><g transform="translate(224 126)"><rect class="g" width="190" height="59" rx="29.5" transform="translate(453 750)"/><text class="h" transform="translate(466.5 786)"><tspan x="0" y="0">Generate hypothesis</tspan></text></g><g transform="translate(-23 126)"><rect class="g" width="190" height="59" rx="29.5" transform="translate(909 750)"/><text class="h" transform="translate(931 786)"><tspan x="0" y="0">Call the supervisor</tspan></text></g><text class="i" transform="translate(677 814)"><tspan x="0" y="30">What do you want to do?</tspan></text><rect class="j" width="293" height="15" rx="7.5" transform="translate(144 119)"/><rect class="k" width="33" height="15" rx="7.5" transform="translate(144 119)"/><text class="l" transform="translate(144 106)"><tspan x="0" y="0">Challenge progress</tspan></text><text class="l" transform="translate(453 106)"><tspan x="0" y="0">Sua pontuação total</tspan></text><text class="l" transform="translate(659 106)"><tspan x="0" y="0">&quot;Categoria de médico&quot;</tspan></text><text class="m" transform="translate(453 130)"><tspan x="0" y="0">120.895 pontos</tspan></text><text class="m" transform="translate(659 130)"><tspan x="0" y="0">Médico empolgado</tspan></text><g transform="translate(-247 -80)"><g class="n" transform="translate(1666 1008)"><path class="aj" d="M 188.5 46 L 23.5 46 C 20.46208381652832 46 17.51555633544922 45.40525054931641 14.74227809906006 44.23225021362305 C 12.06313896179199 43.09905624389648 9.656777381896973 41.47658157348633 7.590083122253418 39.40991592407227 C 5.523416519165039 37.34322357177734 3.900944471359253 34.93686294555664 2.767750024795532 32.25772094726563 C 1.594750046730042 29.48444366455078 1 26.53791618347168 1 23.5 C 1 20.46208381652832 1.594750046730042 17.51555633544922 2.767750024795532 14.74227809906006 C 3.900944471359253 12.06313896179199 5.523416519165039 9.656777381896973 7.590083122253418 7.590083122253418 C 9.656777381896973 5.523416519165039 12.06313896179199 3.900944471359253 14.74227809906006 2.767750024795532 C 17.51555633544922 1.594750046730042 20.46208381652832 1 23.5 1 L 188.5 1 C 191.5379180908203 1 194.4844512939453 1.594750046730042 197.2577209472656 2.767750024795532 C 199.9368591308594 3.900944471359253 202.3432159423828 5.523416519165039 204.409912109375 7.590083122253418 C 206.4765777587891 9.656777381896973 208.0990600585938 12.06313896179199 209.2322540283203 14.74227809906006 C 210.4052429199219 17.51555633544922 211 20.46208381652832 211 23.5 C 211 26.53791618347168 210.4052429199219 29.48444366455078 209.2322540283203 32.25772094726563 C 208.0990600585938 34.93686294555664 206.4765777587891 37.34322357177734 204.409912109375 39.40991592407227 C 202.3432159423828 41.47658157348633 199.9368591308594 43.09905624389648 197.2577209472656 44.23225021362305 C 194.4844512939453 45.40525054931641 191.5379180908203 46 188.5 46 Z"/><path class="ak" d="M 23.5 2 C 20.59663391113281 2 17.78118896484375 2.568164825439453 15.1318359375 3.688751220703125 C 12.57188415527344 4.771526336669922 10.27235412597656 6.322029113769531 8.297195434570313 8.297195434570313 C 6.322021484375 10.27236175537109 4.771530151367188 12.5718879699707 3.688751220703125 15.13183403015137 C 2.568161010742188 17.78119468688965 2 20.59663963317871 2 23.5 C 2 26.40336036682129 2.568161010742188 29.21880531311035 3.688751220703125 31.86816787719727 C 4.771530151367188 34.4281120300293 6.322021484375 36.72763824462891 8.297195434570313 38.70280456542969 C 10.27235412597656 40.67797088623047 12.57188415527344 42.22847366333008 15.1318359375 43.31124877929688 C 17.78118896484375 44.43183135986328 20.59663391113281 45 23.5 45 L 188.5 45 C 191.4033660888672 45 194.2188110351563 44.43183135986328 196.8681640625 43.31124877929688 C 199.4281158447266 42.22847366333008 201.7276458740234 40.67797088623047 203.7028045654297 38.70280456542969 C 205.677978515625 36.72763824462891 207.2284698486328 34.4281120300293 208.3112487792969 31.86816787719727 C 209.4318389892578 29.21880531311035 210 26.40336036682129 210 23.5 C 210 20.59663963317871 209.4318389892578 17.78119468688965 208.3112487792969 15.13183403015137 C 207.2284698486328 12.5718879699707 205.677978515625 10.27236175537109 203.7028045654297 8.297195434570313 C 201.7276458740234 6.322029113769531 199.4281158447266 4.771526336669922 196.8681640625 3.688751220703125 C 194.2188110351563 2.568164825439453 191.4033660888672 2 188.5 2 L 23.5 2 M 23.5 0 L 188.5 0 C 201.4786987304688 0 212 10.52130508422852 212 23.5 C 212 36.47869491577148 201.4786987304688 47 188.5 47 L 23.5 47 C 10.52130126953125 47 0 36.47869491577148 0 23.5 C 0 10.52130508422852 10.52130126953125 0 23.5 0 Z"/></g><text class="o" transform="translate(1692 1038)"><tspan x="0" y="0">Emergency room</tspan></text></g><g transform="translate(-142 57)"><g class="p" transform="translate(421 871)"><rect class="aj" width="212" height="47" rx="23.5"/><rect class="c" x="1" y="1" width="210" height="45" rx="22.5"/></g><text class="o" transform="translate(460 903)"><tspan x="0" y="0">PATIENT Jakob</tspan></text></g><g class="q"><rect class="r" width="1920" height="50"/><g class="d" transform="translate(1518 10)"><rect class="aj" width="92" height="31.566" rx="15.783"/><rect class="c" x="0.5" y="0.5" width="91" height="30.566" rx="15.283"/></g><text class="s" transform="translate(1543 31)"><tspan x="0" y="0">Fulano</tspan></text><g class="t"><g transform="translate(21699.588 8140.558)"><rect class="u" width="48.001" height="33.6" transform="translate(-20074.588 -8131.483)"/><path class="v" d="M-1743-1100.28l19.921,12.72,19.92-12.72-19.92-12.72Z" transform="translate(-18327.506 -7014.403)"/><ellipse class="w" cx="8.4" cy="8.4" rx="8.4" ry="8.4" transform="translate(-20058.783 -8123.083)"/><g class="x" transform="translate(-20058.783 -8123.083)"><path class="y" d="M-2205-294.6a20.4,20.4,0,0,1,20.4-20.4,20.4,20.4,0,0,1,20.4,20.4h-1.2a19.2,19.2,0,0,0-19.2-19.2,19.2,19.2,0,0,0-19.2,19.2Z" transform="translate(2188.2 319.8)"/></g></g></g><g class="d" transform="translate(1625 10.217)"><rect class="aj" width="48" height="32" rx="14"/><rect class="c" x="0.5" y="0.5" width="47" height="31" rx="13.5"/></g></g><g transform="translate(242 -60)"><g class="z" transform="translate(437 377)"><path class="aj" d="M9.37,0H553.63C558.8,0,563,5.373,563,12V176c0,6.627-4.2,12-9.37,12H9.37C4.2,188,0,182.627,0,176V12C0,5.373,4.2,0,9.37,0Z"/><path class="al" d="M 9.37030029296875 1 C 4.75494384765625 1 1 5.9345703125 1 12 L 1 176 C 1 182.0654296875 4.75494384765625 187 9.37030029296875 187 L 553.629638671875 187 C 558.2450561523438 187 562 182.0654296875 562 176 L 562 12 C 562 5.9345703125 558.2450561523438 1 553.629638671875 1 L 9.37030029296875 1 M 9.37030029296875 0 L 553.629638671875 0 C 558.8046875 0 563 5.372573852539063 563 12 L 563 176 C 563 182.6274261474609 558.8046875 188 553.629638671875 188 L 9.37030029296875 188 C 4.1951904296875 188 0 182.6274261474609 0 176 L 0 12 C 0 5.372573852539063 4.1951904296875 0 9.37030029296875 0 Z"/></g><text class="aa" transform="translate(453 389)"><tspan x="0" y="19">MORE INFORMATION</tspan><tspan class="ab"><tspan x="0" y="46">The patient never felt chest pain before. He exercises </tspan><tspan x="0" y="73">regularly and has lost weight in the last three months. He </tspan><tspan x="0" y="100">takes amlodipine and losartan regularly.</tspan><tspan x="0" y="127">Two weeks ago, he had an auto-limited gastroenteritis </tspan><tspan x="0" y="154">episode. He denies recent travels and surgery .</tspan></tspan></text></g><g transform="translate(-12312 63)"><g class="ac"><g transform="translate(12757.771 -673.173)"><g transform="translate(1180.229 621.173)"><rect class="ad" width="59.312" height="31.217"/></g><g transform="translate(1180.229 623.623)"><path class="y" d="M1239.542,649.753h-59.312v-2.305h59.313Zm0-4.8h-59.312v-2.3h59.313Zm0-4.8h-59.312v-2.3h59.313Zm0-4.8h-59.312v-2.305h59.313Zm0-4.8h-59.312v-2.306h59.313Zm0-4.8h-59.312v-2.306h59.313Z" transform="translate(-1180.229 -623.435)"/></g><g transform="translate(1180.229 621.173)"><rect class="ae" width="23.725" height="16.809"/></g><g transform="translate(1181.292 621.894)"><path class="y" d="M1182.125,621.839l.564,1.737-1.478-1.074h1.827l-1.477,1.074Z" transform="translate(-1181.211 -621.839)"/><g transform="translate(0 3.361)"><path class="y" d="M1182.125,624.943l.564,1.737-1.478-1.073h1.827l-1.477,1.073Z" transform="translate(-1181.211 -624.943)"/></g><g transform="translate(0 6.723)"><path class="y" d="M1182.125,628.047l.564,1.738-1.478-1.074h1.827l-1.477,1.074Z" transform="translate(-1181.211 -628.047)"/></g><g transform="translate(0 10.085)"><path class="y" d="M1182.125,631.152l.564,1.737-1.478-1.073h1.827l-1.477,1.073Z" transform="translate(-1181.211 -631.152)"/></g><g transform="translate(0 13.447)"><path class="y" d="M1182.125,634.256l.564,1.738-1.478-1.074h1.827l-1.477,1.074Z" transform="translate(-1181.211 -634.256)"/></g><g transform="translate(1.977 1.681)"><path class="y" d="M1183.951,623.391l.564,1.737-1.478-1.073h1.827l-1.478,1.073Z" transform="translate(-1183.037 -623.391)"/><g transform="translate(0 3.361)"><path class="y" d="M1183.951,626.495l.564,1.738-1.478-1.074h1.827l-1.478,1.074Z" transform="translate(-1183.037 -626.495)"/></g><g transform="translate(0 6.724)"><path class="y" d="M1183.951,629.6l.564,1.737-1.478-1.074h1.827l-1.478,1.074Z" transform="translate(-1183.037 -629.6)"/></g><g transform="translate(0 10.085)"><path class="y" d="M1183.951,632.7l.564,1.738-1.478-1.074h1.827l-1.478,1.074Z" transform="translate(-1183.037 -632.704)"/></g></g><g transform="translate(3.955)"><path class="y" d="M1185.776,621.839l.565,1.737-1.478-1.074h1.827l-1.478,1.074Z" transform="translate(-1184.863 -621.839)"/><g transform="translate(0 3.361)"><path class="y" d="M1185.776,624.943l.565,1.737-1.478-1.073h1.827l-1.478,1.073Z" transform="translate(-1184.863 -624.943)"/></g><g transform="translate(0 6.723)"><path class="y" d="M1185.776,628.047l.565,1.738-1.478-1.074h1.827l-1.478,1.074Z" transform="translate(-1184.863 -628.047)"/></g><g transform="translate(0 10.085)"><path class="y" d="M1185.776,631.152l.565,1.737-1.478-1.073h1.827l-1.478,1.073Z" transform="translate(-1184.863 -631.152)"/></g><g transform="translate(0 13.447)"><path class="y" d="M1185.776,634.256l.565,1.738-1.478-1.074h1.827l-1.478,1.074Z" transform="translate(-1184.863 -634.256)"/></g><g transform="translate(1.976 1.681)"><path class="y" d="M1187.6,623.391l.564,1.737-1.478-1.073h1.828l-1.478,1.073Z" transform="translate(-1186.688 -623.391)"/><g transform="translate(0 3.361)"><path class="y" d="M1187.6,626.495l.564,1.738-1.478-1.074h1.828l-1.478,1.074Z" transform="translate(-1186.688 -626.495)"/></g><g transform="translate(0 6.724)"><path class="y" d="M1187.6,629.6l.564,1.737-1.478-1.074h1.828l-1.478,1.074Z" transform="translate(-1186.688 -629.6)"/></g><g transform="translate(0 10.085)"><path class="y" d="M1187.6,632.7l.564,1.738-1.478-1.074h1.828l-1.478,1.074Z" transform="translate(-1186.688 -632.704)"/></g></g></g><g transform="translate(7.909)"><path class="y" d="M1189.428,621.839l.564,1.737-1.478-1.074h1.827l-1.478,1.074Z" transform="translate(-1188.514 -621.839)"/><g transform="translate(0 3.361)"><path class="y" d="M1189.428,624.943l.564,1.737-1.478-1.073h1.827l-1.478,1.073Z" transform="translate(-1188.514 -624.943)"/></g><g transform="translate(0 6.723)"><path class="y" d="M1189.428,628.047l.564,1.738-1.478-1.074h1.827l-1.478,1.074Z" transform="translate(-1188.514 -628.047)"/></g><g transform="translate(0 10.085)"><path class="y" d="M1189.428,631.152l.564,1.737-1.478-1.073h1.827l-1.478,1.073Z" transform="translate(-1188.514 -631.152)"/></g><g transform="translate(0 13.447)"><path class="y" d="M1189.428,634.256l.564,1.738-1.478-1.074h1.827l-1.478,1.074Z" transform="translate(-1188.514 -634.256)"/></g><g transform="translate(1.977 1.681)"><path class="y" d="M1191.253,623.391l.565,1.737-1.478-1.073h1.827l-1.478,1.073Z" transform="translate(-1190.34 -623.391)"/><g transform="translate(0 3.361)"><path class="y" d="M1191.253,626.495l.565,1.738-1.478-1.074h1.827l-1.478,1.074Z" transform="translate(-1190.34 -626.495)"/></g><g transform="translate(0 6.724)"><path class="y" d="M1191.253,629.6l.565,1.737-1.478-1.074h1.827l-1.478,1.074Z" transform="translate(-1190.34 -629.6)"/></g><g transform="translate(0 10.085)"><path class="y" d="M1191.253,632.7l.565,1.738-1.478-1.074h1.827l-1.478,1.074Z" transform="translate(-1190.34 -632.704)"/></g></g><g transform="translate(3.955)"><path class="y" d="M1193.079,621.839l.564,1.737-1.477-1.074h1.827l-1.478,1.074Z" transform="translate(-1192.166 -621.839)"/><g transform="translate(0 3.361)"><path class="y" d="M1193.079,624.943l.564,1.737-1.477-1.073h1.827l-1.478,1.073Z" transform="translate(-1192.166 -624.943)"/></g><g transform="translate(0 6.723)"><path class="y" d="M1193.079,628.047l.564,1.738-1.477-1.074h1.827l-1.478,1.074Z" transform="translate(-1192.166 -628.047)"/></g><g transform="translate(0 10.085)"><path class="y" d="M1193.079,631.152l.564,1.737-1.477-1.073h1.827l-1.478,1.073Z" transform="translate(-1192.166 -631.152)"/></g><g transform="translate(0 13.447)"><path class="y" d="M1193.079,634.256l.564,1.738-1.477-1.074h1.827l-1.478,1.074Z" transform="translate(-1192.166 -634.256)"/></g><g transform="translate(1.976 1.681)"><path class="y" d="M1194.905,623.391l.564,1.737-1.478-1.073h1.827l-1.478,1.073Z" transform="translate(-1193.991 -623.391)"/><g transform="translate(0 3.361)"><path class="y" d="M1194.905,626.495l.564,1.738-1.478-1.074h1.827l-1.478,1.074Z" transform="translate(-1193.991 -626.495)"/></g><g transform="translate(0 6.724)"><path class="y" d="M1194.905,629.6l.564,1.737-1.478-1.074h1.827l-1.478,1.074Z" transform="translate(-1193.991 -629.6)"/></g><g transform="translate(0 10.085)"><path class="y" d="M1194.905,632.7l.564,1.738-1.478-1.074h1.827l-1.478,1.074Z" transform="translate(-1193.991 -632.704)"/></g></g></g></g><g transform="translate(15.817)"><path class="y" d="M1196.73,621.839l.565,1.737-1.478-1.074h1.827l-1.478,1.074Z" transform="translate(-1195.817 -621.839)"/><g transform="translate(0 3.361)"><path class="y" d="M1196.73,624.943l.565,1.737-1.478-1.073h1.827l-1.478,1.073Z" transform="translate(-1195.817 -624.943)"/></g><g transform="translate(0 6.723)"><path class="y" d="M1196.73,628.047l.565,1.738-1.478-1.074h1.827l-1.478,1.074Z" transform="translate(-1195.817 -628.047)"/></g><g transform="translate(0 10.085)"><path class="y" d="M1196.73,631.152l.565,1.737-1.478-1.073h1.827l-1.478,1.073Z" transform="translate(-1195.817 -631.152)"/></g><g transform="translate(0 13.447)"><path class="y" d="M1196.73,634.256l.565,1.738-1.478-1.074h1.827l-1.478,1.074Z" transform="translate(-1195.817 -634.256)"/></g><g transform="translate(1.977 1.681)"><path class="y" d="M1198.556,623.391l.565,1.737-1.478-1.073h1.827l-1.478,1.073Z" transform="translate(-1197.643 -623.391)"/><g transform="translate(0 3.361)"><path class="y" d="M1198.556,626.495l.565,1.738-1.478-1.074h1.827l-1.478,1.074Z" transform="translate(-1197.643 -626.495)"/></g><g transform="translate(0 6.724)"><path class="y" d="M1198.556,629.6l.565,1.737-1.478-1.074h1.827l-1.478,1.074Z" transform="translate(-1197.643 -629.6)"/></g><g transform="translate(0 10.085)"><path class="y" d="M1198.556,632.7l.565,1.738-1.478-1.074h1.827l-1.478,1.074Z" transform="translate(-1197.643 -632.704)"/></g></g></g><g transform="translate(19.771)"><path class="y" d="M1200.382,621.839l.564,1.737-1.478-1.074h1.827l-1.477,1.074Z" transform="translate(-1199.468 -621.839)"/><g transform="translate(0 3.361)"><path class="y" d="M1200.382,624.943l.564,1.737-1.478-1.073h1.827l-1.477,1.073Z" transform="translate(-1199.468 -624.943)"/></g><g transform="translate(0 6.723)"><path class="y" d="M1200.382,628.047l.564,1.738-1.478-1.074h1.827l-1.477,1.074Z" transform="translate(-1199.468 -628.047)"/></g><g transform="translate(0 10.085)"><path class="y" d="M1200.382,631.152l.564,1.737-1.478-1.073h1.827l-1.477,1.073Z" transform="translate(-1199.468 -631.152)"/></g><g transform="translate(0 13.447)"><path class="y" d="M1200.382,634.256l.564,1.738-1.478-1.074h1.827l-1.477,1.074Z" transform="translate(-1199.468 -634.256)"/></g></g></g></g></g><g class="d" transform="translate(13937 -52.783)"><rect class="aj" width="48" height="32" rx="14"/><rect class="c" x="0.5" y="0.5" width="47" height="31" rx="13.5"/></g></g><g class="af" transform="translate(1451 10.217)"><g transform="translate(455.303 386.855)"><g transform="translate(-448.001 -380.006)"><path class="ag" d="M73.45,120.939l-7.738,6.38a.183.183,0,0,1-.007.04.184.184,0,0,0-.007.04v6.46a.874.874,0,0,0,.861.862h5.168v-5.168h3.446v5.168h5.168a.875.875,0,0,0,.862-.862V127.4a.19.19,0,0,0-.014-.08Z" transform="translate(-62.601 -117.453)"/><path class="ag" d="M21.548,55.406,18.6,52.956V47.465a.415.415,0,0,0-.431-.431H15.586a.414.414,0,0,0-.431.431V50.09l-3.284-2.746a1.67,1.67,0,0,0-2.045,0L.149,55.406A.391.391,0,0,0,0,55.695a.436.436,0,0,0,.094.316l.834,1a.459.459,0,0,0,.283.148.5.5,0,0,0,.323-.094L10.848,49.3l9.313,7.766a.415.415,0,0,0,.283.094h.04a.46.46,0,0,0,.283-.148l.834-1a.436.436,0,0,0,.094-.317A.392.392,0,0,0,21.548,55.406Z" transform="translate(0.001 -46.994)"/></g></g><g class="d"><rect class="aj" width="36" height="32" rx="14"/><rect class="c" x="0.5" y="0.5" width="35" height="31" rx="13.5"/></g></g><g class="ah" transform="translate(66.5 161.052)"><ellipse class="ai" cx="25" cy="25.347" rx="25" ry="25.347"/><path class="y" d="M848.3,178.118H827.722a.362.362,0,0,1-.25-.616l4.574-4.675a.366.366,0,0,0,0-.51l-3.154-3.223a.348.348,0,0,0-.5,0l-8.83,9.024h-.037v.038l-2.316,2.367a.367.367,0,0,0,0,.51l11.182,11.428a.348.348,0,0,0,.5,0l3.154-3.223a.366.366,0,0,0,0-.51l-4.613-4.714a.362.362,0,0,1,.25-.616H848.3a.357.357,0,0,0,.353-.361v-4.558A.357.357,0,0,0,848.3,178.118Z" transform="translate(-808.081 -155.099)"/></g></g></svg>