<svg xmlns="http://www.w3.org/2000/svg" xmlns:xlink="http://www.w3.org/1999/xlink" width="1920" height="1080" viewBox="0 0 1920 1080"><defs><style>.a,.b,.l,.v{fill:#fff;}.a{stroke:#707070;}.b,.o{stroke:#a2a2a2;}.c,.e,.o{fill:none;}.d{clip-path:url(#i);}.e{stroke:#346e93;}.f,.x{fill:#346e93;}.f{font-size:72px;font-family:SegoeUIBlack, Segoe UI;}.g,.h,.p,.z{fill:#707070;}.g{font-size:36px;}.g,.h,.l,.p{font-family:SegoeUI, Segoe UI;}.h{font-size:28px;}.i{clip-path:url(#a);}.j{fill:url(#b);}.k{fill:#ba2027;}.l{font-size:32px;}.m{clip-path:url(#c);}.n{fill:#e3e3e3;}.p{font-size:16px;}.q{clip-path:url(#d);}.r{fill:#009b3a;}.s{fill:#fedf00;}.t{fill:#002776;}.u{clip-path:url(#e);}.w{clip-path:url(#f);}.y{clip-path:url(#g);}.aa{stroke:none;}</style><clipPath id="a"><rect class="a" width="322" height="62" transform="translate(534 680)"/></clipPath><pattern id="b" preserveAspectRatio="none" width="100%" height="100%" viewBox="0 0 1600 557"><image width="1600" height="557" xlink:href="Experimente%201-image.png"/></pattern><clipPath id="c"><rect class="c" width="1920" height="52"/></clipPath><clipPath id="d"><rect class="b" width="48" height="32" rx="16" transform="translate(1625 10.217)"/></clipPath><clipPath id="e"><ellipse cx="8.4" cy="8.4" rx="8.4" ry="8.4"/></clipPath><clipPath id="f"><rect class="c" width="73" height="73"/></clipPath><clipPath id="g"><rect class="c" width="36" height="32"/></clipPath><clipPath id="i"><rect width="1920" height="1080"/></clipPath></defs><g id="h" class="d"><rect class="v" width="1920" height="1080"/><g class="e" transform="translate(830 595)"><rect class="aa" width="517.319" height="61" rx="30.5"/><rect class="c" x="0.5" y="0.5" width="516.319" height="60" rx="30"/></g><text class="f" transform="translate(413 239)"><tspan x="0" y="0">Consegue resolver este desafio?</tspan></text><text class="g" transform="translate(413 296)"><tspan x="0" y="0">Veja um caso completo, do início ao fim. </tspan></text><g class="e" transform="translate(830 409)"><rect class="aa" width="517.319" height="61" rx="30.5"/><rect class="c" x="0.5" y="0.5" width="516.319" height="60" rx="30"/></g><g class="e" transform="translate(830 502)"><rect class="aa" width="517.319" height="61" rx="30.5"/><rect class="c" x="0.5" y="0.5" width="516.319" height="60" rx="30"/></g><g class="e" transform="translate(830 595)"><rect class="aa" width="517.319" height="61" rx="30.5"/><rect class="c" x="0.5" y="0.5" width="516.319" height="60" rx="30"/></g><text class="h" transform="translate(554 451)"><tspan x="0" y="0">Seu nome</tspan></text><text class="h" transform="translate(554 544)"><tspan x="0" y="0">Seu e-mail</tspan></text><text class="h" transform="translate(554 637)"><tspan x="0" y="0">Sua idade</tspan></text><text class="h" transform="translate(554 677)"><tspan x="0" y="30">Como você </tspan><tspan x="0" y="67">está hoje?</tspan></text><g class="i" transform="translate(296 8)"><rect class="j" width="337" height="117" transform="translate(525 665)"/></g><rect class="k" width="536" height="117" rx="58.5" transform="translate(830 819)"/><text class="l" transform="translate(1003 891)"><tspan x="0" y="0">Quero tentar!</tspan></text><g class="m"><rect class="n" width="1920" height="50"/><g class="o" transform="translate(1518 10)"><rect class="aa" width="92" height="31.566" rx="15.783"/><rect class="c" x="0.5" y="0.5" width="91" height="30.566" rx="15.283"/></g><text class="p" transform="translate(1543 31)"><tspan x="0" y="0">Entrar</tspan></text><g class="q"><g transform="translate(21699.588 8140.558)"><rect class="r" width="48.001" height="33.6" transform="translate(-20074.588 -8131.483)"/><path class="s" d="M-1743-1100.28l19.921,12.72,19.92-12.72-19.92-12.72Z" transform="translate(-18327.506 -7014.403)"/><ellipse class="t" cx="8.4" cy="8.4" rx="8.4" ry="8.4" transform="translate(-20058.783 -8123.083)"/><g class="u" transform="translate(-20058.783 -8123.083)"><path class="v" d="M-2205-294.6a20.4,20.4,0,0,1,20.4-20.4,20.4,20.4,0,0,1,20.4,20.4h-1.2a19.2,19.2,0,0,0-19.2-19.2,19.2,19.2,0,0,0-19.2,19.2Z" transform="translate(2188.2 319.8)"/></g></g></g><g class="o" transform="translate(1625 10.217)"><rect class="aa" width="48" height="32" rx="14"/><rect class="c" x="0.5" y="0.5" width="47" height="31" rx="13.5"/></g></g><g class="w" transform="translate(473.5 100)"><circle class="x" cx="36.5" cy="36.5" r="36.5"/><path class="v" d="M863.02,182.135H832.728a.519.519,0,0,1-.367-.887l6.732-6.732a.519.519,0,0,0,0-.734l-4.641-4.641a.519.519,0,0,0-.734,0l-12.995,12.995h-.054v.054L817.26,185.6a.52.52,0,0,0,0,.735l16.457,16.457a.519.519,0,0,0,.734,0l4.641-4.641a.519.519,0,0,0,0-.734l-6.788-6.788a.519.519,0,0,1,.367-.887H863.02a.519.519,0,0,0,.519-.519v-6.564A.519.519,0,0,0,863.02,182.135Z" transform="translate(-804.108 -148.988)"/></g><g class="y" transform="translate(1452 10.217)"><g transform="translate(455.303 386.855)"><g transform="translate(-448.001 -380.006)"><path class="z" d="M73.45,120.939l-7.738,6.38a.183.183,0,0,1-.007.04.184.184,0,0,0-.007.04v6.46a.874.874,0,0,0,.861.862h5.168v-5.168h3.446v5.168h5.168a.875.875,0,0,0,.862-.862V127.4a.19.19,0,0,0-.014-.08Z" transform="translate(-62.601 -117.453)"/><path class="z" d="M21.548,55.406,18.6,52.956V47.465a.415.415,0,0,0-.431-.431H15.586a.414.414,0,0,0-.431.431V50.09l-3.284-2.746a1.67,1.67,0,0,0-2.045,0L.149,55.406A.391.391,0,0,0,0,55.695a.436.436,0,0,0,.094.316l.834,1a.459.459,0,0,0,.283.148.5.5,0,0,0,.323-.094L10.848,49.3l9.313,7.766a.415.415,0,0,0,.283.094h.04a.46.46,0,0,0,.283-.148l.834-1a.436.436,0,0,0,.094-.317A.392.392,0,0,0,21.548,55.406Z" transform="translate(0.001 -46.994)"/></g></g><g class="o"><rect class="aa" width="36" height="32" rx="14"/><rect class="c" x="0.5" y="0.5" width="35" height="31" rx="13.5"/></g></g></g></svg>