<svg xmlns="http://www.w3.org/2000/svg" xmlns:xlink="http://www.w3.org/1999/xlink" width="414" height="3842" viewBox="0 0 414 3842"><defs><style>.a,.d,.h,.s,.t,.u,.w{fill:#fff;}.a,.l{stroke:#a2a2a2;}.b{clip-path:url(#g);}.c{fill:#ba2027;}.ab,.d{font-size:20px;}.aa,.ac,.ae,.d,.f,.h,.i,.m,.u{font-family:SegoeUI, Segoe UI;}.e,.g{fill:#346e93;}.e{font-size:30px;}.e,.t,.w{font-family:SegoeUIBlack, Segoe UI;}.ac,.ae,.f,.i,.m{fill:#707070;}.f{font-size:18px;}.h,.i,.z{font-size:13px;}.j{fill:url(#a);}.k{fill:#e3e3e3;}.ag,.l{fill:none;}.m{font-size:11px;}.n{clip-path:url(#b);}.o{fill:#009b3a;}.p{fill:#fedf00;}.q{fill:#002776;}.r{clip-path:url(#c);}.t{font-size:50px;}.u{font-size:25px;}.v{fill:#bf2027;}.w{font-size:40px;}.x{fill:#96cdef;}.y{fill:url(#d);}.ab,.z{fill:#666;font-family:SegoeUI-Bold, Segoe UI;font-weight:700;}.aa{font-weight:400;}.ac{font-size:19px;}.ad{fill:url(#e);}.ae{font-size:15px;}.af{stroke:none;}</style><pattern id="a" preserveAspectRatio="none" width="100%" height="100%" viewBox="0 0 853 911"><image width="853" height="911" xlink:href="iPhone%206-7-8%20Plus%20-%201-image.png"/></pattern><clipPath id="b"><rect class="a" width="28.143" height="18.762" rx="9.381"/></clipPath><clipPath id="c"><ellipse cx="4.925" cy="4.925" rx="4.925" ry="4.925"/></clipPath><pattern id="d" preserveAspectRatio="none" width="100%" height="100%" viewBox="0 0 925 912"><image width="925" height="912" xlink:href="iPhone%206-7-8%20Plus%20-%201-image4.png"/></pattern><pattern id="e" preserveAspectRatio="none" width="100%" height="100%" viewBox="0 0 989 912"><image width="989" height="912" xlink:href="iPhone%206-7-8%20Plus%20-%201-image5.png"/></pattern><clipPath id="g"><rect width="414" height="3842"/></clipPath></defs><g id="f" class="b"><rect class="s" width="414" height="3842"/><rect class="c" width="186" height="41" rx="20.5" transform="translate(114 544)"/><text class="d" transform="translate(152 573)"><tspan x="0" y="0">Experimente</tspan></text><text class="e" transform="translate(30 101)"><tspan x="2.061" y="32">Jacinto Bemelhor Game</tspan></text><text class="f" transform="translate(48 144.725)"><tspan x="24.444" y="19">Aventure-se nesta incrível jornada </tspan></text><g transform="translate(-7)"><rect class="g" width="166" height="25" rx="12.5" transform="translate(184 607)"/><text class="h" transform="translate(197 625)"><tspan x="0" y="0">Continue de onde parou</tspan></text><text class="i" transform="translate(78 625)"><tspan x="0" y="0">Já tem cadastro?</tspan></text></g><rect class="j" width="272" height="290" transform="translate(58 205)"/><rect class="k" width="414" height="40"/><g class="l" transform="translate(281.394 11.455)"><rect class="af" width="68.013" height="18.508" rx="9.254"/><rect class="ag" x="0.5" y="0.5" width="67.013" height="17.508" rx="8.754"/></g><text class="m" transform="translate(301.328 24.5)"><tspan x="0" y="0">Entrar</tspan></text><g class="n" transform="translate(355.856 11.455)"><g transform="translate(0 -0.67)"><rect class="o" width="28.144" height="19.701"/><path class="p" d="M-1743-1105.542l11.68,7.458,11.68-7.458-11.68-7.458Z" transform="translate(1745.393 1115.392)"/><ellipse class="q" cx="4.925" cy="4.925" rx="4.925" ry="4.925" transform="translate(9.267 4.925)"/><g class="r" transform="translate(9.267 4.925)"><path class="s" d="M-2205-303.039A11.961,11.961,0,0,1-2193.039-315a11.961,11.961,0,0,1,11.961,11.961h-.7a11.258,11.258,0,0,0-11.258-11.258,11.258,11.258,0,0,0-11.257,11.258Z" transform="translate(2195.15 317.814)"/></g></g></g><path class="g" d="M0,0H414V734.4H0Z" transform="translate(0 695.03)"/><text class="t" transform="translate(36 1139)"><tspan x="45.78" y="54">+ 10 casos </tspan></text><text class="u" transform="translate(42 1211)"><tspan x="10.776" y="27">com desafios disgnósticos e </tspan><tspan x="29.508" y="60">interpretação de exames</tspan></text><image width="214" height="258" transform="translate(100 864)" xlink:href="iPhone%206-7-8%20Plus%20-%201-image2.png"/><g transform="translate(-1117 -729)"><path class="v" d="M0,0H414V733H0Z" transform="translate(1117 2158)"/><text class="w" transform="translate(1217 2565)"><tspan x="5.975" y="43">Raciocínio </tspan><tspan x="21.004" y="97">evoluído</tspan></text><text class="u" transform="translate(1153 2680)"><tspan x="11.21" y="27">Exercite seu raciocínio clínico </tspan><tspan x="2.891" y="60">com atividades empolgantes e </tspan><tspan x="114.744" y="93">divertidas. </tspan></text><image width="264" height="271" transform="translate(1192 2264)" xlink:href="iPhone%206-7-8%20Plus%20-%201-image3.png"/></g><g transform="translate(-64 -905)"><path class="x" d="M0,0H414V735.276H0Z" transform="translate(64 3067)"/><text class="w" transform="translate(100 3548)"><tspan x="0" y="0">IA + tutores reais</tspan></text><text class="u" transform="translate(112 3566)"><tspan x="54.325" y="27">Aprenda utilizando </tspan><tspan x="39.457" y="60">inteligência artificial e </tspan><tspan x="88.236" y="93">tutores reais. </tspan></text><rect class="y" width="269" height="266" transform="translate(145 3184)"/></g><g transform="translate(0 -1764)"><path class="k" d="M0,0H414V103.379H0Z" transform="translate(0 5396)"/><path class="k" d="M0,0H414V24.6H0Z" transform="translate(0 5582)"/><text class="z" transform="translate(212 5408)"><tspan x="0" y="14">Fale com o Jacinto</tspan><tspan class="aa"><tspan x="0" y="31">jacintobemelhor@gmail.com</tspan></tspan></text><text class="z" transform="translate(36 5408)"><tspan x="0" y="14">Equipe</tspan><tspan class="aa"><tspan x="0" y="31">Fulano da Silva Sauro Reis</tspan><tspan x="0" y="48">Ciclano da Mendonça Reis</tspan><tspan x="0" y="65">Beltrano de Almeida Barros</tspan></tspan></text><text class="ab" transform="translate(36 5513)"><tspan x="105.956" y="22">Siga o Jacinto</tspan><tspan class="aa"><tspan x="76.977" y="49">Facebook | Instagram</tspan></tspan></text></g><text class="e" transform="translate(36 3300.606)"><tspan x="9.062" y="32">Comece agora mesmo</tspan></text><text class="ac" transform="translate(36 3342.869)"><tspan x="0" y="21">Você vai adorar aprender com esse jogo. </tspan></text><rect class="ad" width="289" height="266" transform="translate(63 2994)"/><rect class="c" width="186" height="41" rx="20.5" transform="translate(120 3435)"/><text class="u" transform="translate(145 3464)"><tspan x="0" y="0">Experimente</tspan></text><g transform="translate(3 2893)"><rect class="g" width="166" height="25" rx="12.5" transform="translate(187 607)"/><text class="h" transform="translate(200 625)"><tspan x="0" y="0">Continue de onde parou</tspan></text><text class="ae" transform="translate(67 626)"><tspan x="0" y="0">Já tem cadastro?</tspan></text></g></g></svg>