<svg xmlns="http://www.w3.org/2000/svg" xmlns:xlink="http://www.w3.org/1999/xlink" width="1920" height="1080" viewBox="0 0 1920 1080"><defs><style>.a{clip-path:url(#b);}.b,.d{fill:#fff;}.b{stroke:#707070;opacity:0.95;}.c{fill:#ba2027;}.d{font-size:20px;}.d,.f{font-family:SegoeUI, Segoe UI;}.e,.g{fill:#346e93;}.e{font-size:28px;font-family:SegoeUI-Bold, Segoe UI;font-weight:700;}.f{font-weight:400;}.h{stroke:none;}.i{fill:none;}</style><clipPath id="b"><rect width="1920" height="1080"/></clipPath></defs><g id="a" class="a"><g transform="translate(-7 -238)"><g class="b" transform="translate(437 408)"><rect class="h" width="1075" height="749" rx="12"/><rect class="i" x="0.5" y="0.5" width="1074" height="748" rx="11.5"/></g><rect class="c" width="139" height="59" rx="29.5" transform="translate(464 1128)"/><text class="d" transform="translate(502 1166)"><tspan x="0" y="0">Return</tspan></text><text class="e" transform="translate(473 578)"><tspan x="0" y="30">Clinical History Aortic Dissection</tspan><tspan x="0" y="67"></tspan><tspan class="f"><tspan x="0" y="104">xxxx</tspan></tspan></text></g><path class="g" d="M718.094,273.854a25,25,0,1,0,25,25A25,25,0,0,0,718.094,273.854Zm16.512,35.335a1.861,1.861,0,0,1,0,2.624l-3.553,3.554a1.861,1.861,0,0,1-2.624,0l-10.335-10.335-10.335,10.335a1.861,1.861,0,0,1-2.624,0l-3.553-3.554a1.861,1.861,0,0,1,0-2.624l10.335-10.335-10.335-10.335a1.861,1.861,0,0,1,0-2.624l3.553-3.554a1.861,1.861,0,0,1,2.624,0l10.335,10.335,10.335-10.335a1.861,1.861,0,0,1,2.624,0l3.553,3.554a1.861,1.861,0,0,1,0,2.624l-10.335,10.335Z" transform="translate(754.906 -96.854)"/></g></svg>