<svg xmlns="http://www.w3.org/2000/svg" xmlns:xlink="http://www.w3.org/1999/xlink" width="1920" height="1080" viewBox="0 0 1920 1080"><defs><style>.a,.d,.e,.i,.l,.s{fill:#fff;}.a,.n{stroke:#707070;}.b{fill:none;}.c{clip-path:url(#e);}.d{stroke:#a6a6a6;stroke-width:2px;}.f,.g,.k,.o{fill:gray;}.f{font-size:56px;}.f,.k,.o,.s{font-family:Arial-BoldMT, Arial;font-weight:700;}.g,.k,.l{font-size:18px;}.g,.i,.j,.l,.m{font-family:ArialMT, Arial;}.h,.j,.m,.n{fill:#a6a6a6;}.i,.j{font-size:14px;}.m{font-size:12px;}.o{font-size:24px;}.p{clip-path:url(#a);}.q{clip-path:url(#b);}.r{clip-path:url(#c);}.s{font-size:20px;}.t{stroke:none;}.u{fill:#f2f2f2;}</style><clipPath id="a"><rect class="a" width="176.802" height="246.667" transform="translate(1151 744)"/></clipPath><clipPath id="b"><rect class="b" width="107" height="38"/></clipPath><clipPath id="c"><rect class="b" width="94" height="37"/></clipPath><clipPath id="e"><rect width="1920" height="1080"/></clipPath></defs><g id="d" class="c"><rect class="u" width="1920" height="1080"/><g class="d" transform="translate(153 459)"><rect class="t" width="1614" height="412" rx="5"/><rect class="b" x="1" y="1" width="1612" height="410" rx="4"/></g><g class="a" transform="translate(594 617)"><circle class="t" cx="6.5" cy="6.5" r="6.5"/><circle class="b" cx="6.5" cy="6.5" r="6"/></g><rect class="e" width="1920" height="100"/><text class="f" transform="translate(154 286)"><tspan x="0" y="0">Adding new character</tspan></text><text class="g" transform="translate(153 334)"><tspan x="0" y="0">This character will be add to current case automatically.</tspan></text><rect class="h" width="203" height="27" rx="5" transform="translate(422 144)"/><rect class="h" width="70" height="27" rx="5" transform="translate(153 144)"/><text class="i" transform="translate(166 150)"><tspan x="1" y="13" xml:space="preserve">HOME      </tspan></text><text class="j" transform="translate(231 150)"><tspan x="0" y="13">&gt;</tspan></text><text class="j" transform="translate(408 150)"><tspan x="0" y="13">&gt;</tspan></text><rect class="h" width="153" height="27" rx="5" transform="translate(248 144)"/><text class="i" transform="translate(256 150)"><tspan x="19.104" y="13">EDITING CASE</tspan></text><text class="i" transform="translate(429 150)"><tspan x="3.497" y="13">ADDING NEW CHARACTER</tspan></text><text class="k" transform="translate(214 508.125)"><tspan x="0" y="16">Character name</tspan></text><text class="k" transform="translate(975 508.125)"><tspan x="0" y="16">Photo</tspan></text><text class="k" transform="translate(214 561.125)"><tspan x="0" y="16">Categories</tspan></text><text class="k" transform="translate(214 610.125)"><tspan x="0" y="16">Genre</tspan></text><text class="k" transform="translate(214 663)"><tspan x="0" y="16">Description</tspan></text><g class="d" transform="translate(427 502)"><rect class="t" width="518" height="38" rx="5"/><rect class="b" x="1" y="1" width="516" height="36" rx="4"/></g><g class="d" transform="translate(1493 772)"><rect class="t" width="137" height="38" rx="5"/><rect class="b" x="1" y="1" width="135" height="36" rx="4"/></g><g class="d" transform="translate(1112 491)"><rect class="t" width="518" height="266" rx="5"/><rect class="b" x="1" y="1" width="516" height="264" rx="4"/></g><g class="d" transform="translate(427 555)"><rect class="t" width="518" height="38" rx="5"/><rect class="b" x="1" y="1" width="516" height="36" rx="4"/></g><g class="d" transform="translate(427 657)"><rect class="t" width="518" height="152" rx="5"/><rect class="b" x="1" y="1" width="516" height="150" rx="4"/></g><g transform="translate(-792 15)"><rect class="h" width="88" height="26" rx="5" transform="translate(1227 546)"/><rect class="e" width="12" height="12" rx="3" transform="translate(1297 554)"/><text class="l" transform="translate(1235 565.124)"><tspan x="0" y="0">patient</tspan></text><text class="m" transform="translate(1300 563.124)"><tspan x="0" y="0">x</tspan></text></g><text class="g" transform="translate(457 629.125)"><tspan x="0" y="0">Male</tspan></text><text class="g" transform="translate(618 629.125)"><tspan x="0" y="0">Female</tspan></text><g class="n" transform="translate(433 617)"><circle class="t" cx="6.5" cy="6.5" r="6.5"/><circle class="b" cx="6.5" cy="6.5" r="6"/></g><text class="o" transform="translate(442 506.125)"><tspan x="0" y="22">Jacob</tspan></text><text class="g" transform="translate(442 670)"><tspan x="0" y="16">Old man, chest pain. </tspan></text><text class="g" transform="translate(1508 797.125)"><tspan x="0" y="0">Upload photo</tspan></text><text class="g" transform="translate(1127 797.125)"><tspan x="0" y="0">Delete photo</tspan></text><g class="p" transform="translate(116 -235.668)"><image width="684.394" height="384.972" transform="translate(770.662 683.046)" xlink:href="Adding%20character-image.png"/></g><g class="q" transform="translate(850 918)"><g class="d"><rect class="t" width="107" height="38" rx="5"/><rect class="b" x="1" y="1" width="105" height="36" rx="4"/></g><text class="g" transform="translate(15 26.124)"><tspan x="0" y="0">CANCEL</tspan></text></g><g class="r" transform="translate(977 919)"><path class="h" d="M5,0H89a5,5,0,0,1,5,5V32a5,5,0,0,1-5,5H5a5,5,0,0,1-5-5V5A5,5,0,0,1,5,0Z"/><text class="s" transform="translate(47 26)"><tspan x="-26.489" y="0">SAVE</tspan></text></g></g></svg>