<svg xmlns="http://www.w3.org/2000/svg" xmlns:xlink="http://www.w3.org/1999/xlink" width="1920" height="2109" viewBox="0 0 1920 2109"><defs><style>.a,.m{fill:none;}.b{clip-path:url(#aa);}.c,.g,.j,.o,.q{fill:#fff;}.d,.e,.k{fill:gray;}.d{font-size:56px;}.d,.j,.k{font-family:Arial-BoldMT, Arial;font-weight:700;}.e,.q{font-size:18px;}.e,.o,.p,.q{font-family:ArialMT, Arial;}.f{clip-path:url(#a);}.g{stroke:#a6a6a6;stroke-width:2px;}.h{clip-path:url(#b);}.i,.p{fill:#a6a6a6;}.j{font-size:20px;}.k{font-size:24px;}.l{fill:#e6e6e6;stroke:#999;}.m{stroke:#707070;}.n{clip-path:url(#c);}.o,.p{font-size:14px;}.r{stroke:none;}.s{fill:#f2f2f2;}</style><clipPath id="a"><rect class="a" width="1643" height="1397"/></clipPath><clipPath id="b"><rect class="a" width="115.219" height="37"/></clipPath><clipPath id="c"><rect class="a" width="94" height="37"/></clipPath><clipPath id="aa"><rect width="1920" height="2109"/></clipPath></defs><g id="z" class="b"><rect class="s" width="1920" height="2109"/><rect class="c" width="1920" height="100"/><text class="d" transform="translate(154 286)"><tspan x="0" y="0">Cases list</tspan></text><text class="e" transform="translate(153 334)"><tspan x="0" y="0">Check and edit your clinical cases. </tspan></text><g class="f" transform="translate(153 458)"><g transform="translate(-153 -482)"><g class="g" transform="translate(153 482)"><rect class="r" width="381" height="440" rx="5"/><rect class="a" x="1" y="1" width="379" height="438" rx="4"/></g><g class="h" transform="translate(397 865)"><path class="i" d="M6.129,0H109.09c3.385,0,6.129,2.239,6.129,5V32c0,2.761-2.744,5-6.129,5H6.129C2.744,37,0,34.761,0,32V5C0,2.239,2.744,0,6.129,0Z"/><text class="j" transform="translate(57.609 26)"><tspan x="-46.118" y="0">PREVIEW</tspan></text></g><text class="k" transform="translate(169 747.124)"><tspan x="0" y="22">Challenge 1</tspan></text><g class="l" transform="translate(153 507.828)"><rect class="r" width="381" height="222.58"/><rect class="a" x="0.5" y="0.5" width="380" height="221.58"/></g><line class="m" x2="380" y2="221.58" transform="translate(153.5 508.328)"/><line class="m" x1="380" y2="221.58" transform="translate(153.5 508.328)"/><text class="e" transform="translate(168 779)"><tspan x="0" y="16">Man, 51 years old, present to an </tspan><tspan x="0" y="37">emergency department complaining of </tspan><tspan x="0" y="58">chest pain.</tspan></text><g class="n" transform="translate(283 865)"><path class="i" d="M5,0H89a5,5,0,0,1,5,5V32a5,5,0,0,1-5,5H5a5,5,0,0,1-5-5V5A5,5,0,0,1,5,0Z"/><text class="j" transform="translate(47 26)"><tspan x="-22.778" y="0">EDIT</tspan></text></g></g><g transform="translate(258 -482)"><g class="g" transform="translate(153 482)"><rect class="r" width="381" height="440" rx="5"/><rect class="a" x="1" y="1" width="379" height="438" rx="4"/></g><g class="h" transform="translate(397 865)"><path class="i" d="M6.129,0H109.09c3.385,0,6.129,2.239,6.129,5V32c0,2.761-2.744,5-6.129,5H6.129C2.744,37,0,34.761,0,32V5C0,2.239,2.744,0,6.129,0Z"/><text class="j" transform="translate(57.609 26)"><tspan x="-46.118" y="0">PREVIEW</tspan></text></g><text class="k" transform="translate(169 747.124)"><tspan x="0" y="22">Challenge 2</tspan></text><g class="l" transform="translate(153 507.828)"><rect class="r" width="381" height="222.58"/><rect class="a" x="0.5" y="0.5" width="380" height="221.58"/></g><line class="m" x2="380" y2="221.58" transform="translate(153.5 508.328)"/><line class="m" x1="380" y2="221.58" transform="translate(153.5 508.328)"/><text class="e" transform="translate(168 779)"><tspan x="0" y="16">Man, 51 years old, present to an </tspan><tspan x="0" y="37">emergency department complaining of </tspan><tspan x="0" y="58">chest pain.</tspan></text><g class="n" transform="translate(283 865)"><path class="i" d="M5,0H89a5,5,0,0,1,5,5V32a5,5,0,0,1-5,5H5a5,5,0,0,1-5-5V5A5,5,0,0,1,5,0Z"/><text class="j" transform="translate(47 26)"><tspan x="-22.778" y="0">EDIT</tspan></text></g></g><g transform="translate(669 -482)"><g class="g" transform="translate(153 482)"><rect class="r" width="381" height="440" rx="5"/><rect class="a" x="1" y="1" width="379" height="438" rx="4"/></g><g class="h" transform="translate(397 865)"><path class="i" d="M6.129,0H109.09c3.385,0,6.129,2.239,6.129,5V32c0,2.761-2.744,5-6.129,5H6.129C2.744,37,0,34.761,0,32V5C0,2.239,2.744,0,6.129,0Z"/><text class="j" transform="translate(57.609 26)"><tspan x="-46.118" y="0">PREVIEW</tspan></text></g><text class="k" transform="translate(169 747.124)"><tspan x="0" y="22">Challenge 3</tspan></text><g class="l" transform="translate(153 507.828)"><rect class="r" width="381" height="222.58"/><rect class="a" x="0.5" y="0.5" width="380" height="221.58"/></g><line class="m" x2="380" y2="221.58" transform="translate(153.5 508.328)"/><line class="m" x1="380" y2="221.58" transform="translate(153.5 508.328)"/><text class="e" transform="translate(168 779)"><tspan x="0" y="16">Man, 51 years old, present to an </tspan><tspan x="0" y="37">emergency department complaining of </tspan><tspan x="0" y="58">chest pain.</tspan></text><g class="n" transform="translate(283 865)"><path class="i" d="M5,0H89a5,5,0,0,1,5,5V32a5,5,0,0,1-5,5H5a5,5,0,0,1-5-5V5A5,5,0,0,1,5,0Z"/><text class="j" transform="translate(47 26)"><tspan x="-22.778" y="0">EDIT</tspan></text></g></g><g transform="translate(1080 -482)"><g class="g" transform="translate(153 482)"><rect class="r" width="381" height="440" rx="5"/><rect class="a" x="1" y="1" width="379" height="438" rx="4"/></g><g class="h" transform="translate(397 865)"><path class="i" d="M6.129,0H109.09c3.385,0,6.129,2.239,6.129,5V32c0,2.761-2.744,5-6.129,5H6.129C2.744,37,0,34.761,0,32V5C0,2.239,2.744,0,6.129,0Z"/><text class="j" transform="translate(57.609 26)"><tspan x="-46.118" y="0">PREVIEW</tspan></text></g><text class="k" transform="translate(169 747.124)"><tspan x="0" y="22">Challenge 4</tspan></text><g class="l" transform="translate(153 507.828)"><rect class="r" width="381" height="222.58"/><rect class="a" x="0.5" y="0.5" width="380" height="221.58"/></g><line class="m" x2="380" y2="221.58" transform="translate(153.5 508.328)"/><line class="m" x1="380" y2="221.58" transform="translate(153.5 508.328)"/><text class="e" transform="translate(168 779)"><tspan x="0" y="16">Man, 51 years old, present to an </tspan><tspan x="0" y="37">emergency department complaining of </tspan><tspan x="0" y="58">chest pain.</tspan></text><g class="n" transform="translate(283 865)"><path class="i" d="M5,0H89a5,5,0,0,1,5,5V32a5,5,0,0,1-5,5H5a5,5,0,0,1-5-5V5A5,5,0,0,1,5,0Z"/><text class="j" transform="translate(47 26)"><tspan x="-22.778" y="0">EDIT</tspan></text></g></g><g transform="translate(-153 -12)"><g class="g" transform="translate(153 482)"><rect class="r" width="381" height="440" rx="5"/><rect class="a" x="1" y="1" width="379" height="438" rx="4"/></g><g class="h" transform="translate(397 865)"><path class="i" d="M6.129,0H109.09c3.385,0,6.129,2.239,6.129,5V32c0,2.761-2.744,5-6.129,5H6.129C2.744,37,0,34.761,0,32V5C0,2.239,2.744,0,6.129,0Z"/><text class="j" transform="translate(57.609 26)"><tspan x="-46.118" y="0">PREVIEW</tspan></text></g><text class="k" transform="translate(169 747.124)"><tspan x="0" y="22">Challenge 5</tspan></text><g class="l" transform="translate(153 507.828)"><rect class="r" width="381" height="222.58"/><rect class="a" x="0.5" y="0.5" width="380" height="221.58"/></g><line class="m" x2="380" y2="221.58" transform="translate(153.5 508.328)"/><line class="m" x1="380" y2="221.58" transform="translate(153.5 508.328)"/><text class="e" transform="translate(168 779)"><tspan x="0" y="16">Man, 51 years old, present to an </tspan><tspan x="0" y="37">emergency department complaining of </tspan><tspan x="0" y="58">chest pain.</tspan></text><g class="n" transform="translate(283 865)"><path class="i" d="M5,0H89a5,5,0,0,1,5,5V32a5,5,0,0,1-5,5H5a5,5,0,0,1-5-5V5A5,5,0,0,1,5,0Z"/><text class="j" transform="translate(47 26)"><tspan x="-22.778" y="0">EDIT</tspan></text></g></g><g transform="translate(258 -12)"><g class="g" transform="translate(153 482)"><rect class="r" width="381" height="440" rx="5"/><rect class="a" x="1" y="1" width="379" height="438" rx="4"/></g><g class="h" transform="translate(397 865)"><path class="i" d="M6.129,0H109.09c3.385,0,6.129,2.239,6.129,5V32c0,2.761-2.744,5-6.129,5H6.129C2.744,37,0,34.761,0,32V5C0,2.239,2.744,0,6.129,0Z"/><text class="j" transform="translate(57.609 26)"><tspan x="-46.118" y="0">PREVIEW</tspan></text></g><text class="k" transform="translate(169 747.124)"><tspan x="0" y="22">Challenge 6</tspan></text><g class="l" transform="translate(153 507.828)"><rect class="r" width="381" height="222.58"/><rect class="a" x="0.5" y="0.5" width="380" height="221.58"/></g><line class="m" x2="380" y2="221.58" transform="translate(153.5 508.328)"/><line class="m" x1="380" y2="221.58" transform="translate(153.5 508.328)"/><text class="e" transform="translate(168 779)"><tspan x="0" y="16">Man, 51 years old, present to an </tspan><tspan x="0" y="37">emergency department complaining of </tspan><tspan x="0" y="58">chest pain.</tspan></text><g class="n" transform="translate(283 865)"><path class="i" d="M5,0H89a5,5,0,0,1,5,5V32a5,5,0,0,1-5,5H5a5,5,0,0,1-5-5V5A5,5,0,0,1,5,0Z"/><text class="j" transform="translate(47 26)"><tspan x="-22.778" y="0">EDIT</tspan></text></g></g><g transform="translate(669 -12)"><g class="g" transform="translate(153 482)"><rect class="r" width="381" height="440" rx="5"/><rect class="a" x="1" y="1" width="379" height="438" rx="4"/></g><g class="h" transform="translate(397 865)"><path class="i" d="M6.129,0H109.09c3.385,0,6.129,2.239,6.129,5V32c0,2.761-2.744,5-6.129,5H6.129C2.744,37,0,34.761,0,32V5C0,2.239,2.744,0,6.129,0Z"/><text class="j" transform="translate(57.609 26)"><tspan x="-46.118" y="0">PREVIEW</tspan></text></g><text class="k" transform="translate(169 747.124)"><tspan x="0" y="22">Challenge 7</tspan></text><g class="l" transform="translate(153 507.828)"><rect class="r" width="381" height="222.58"/><rect class="a" x="0.5" y="0.5" width="380" height="221.58"/></g><line class="m" x2="380" y2="221.58" transform="translate(153.5 508.328)"/><line class="m" x1="380" y2="221.58" transform="translate(153.5 508.328)"/><text class="e" transform="translate(168 779)"><tspan x="0" y="16">Man, 51 years old, present to an </tspan><tspan x="0" y="37">emergency department complaining of </tspan><tspan x="0" y="58">chest pain.</tspan></text><g class="n" transform="translate(283 865)"><path class="i" d="M5,0H89a5,5,0,0,1,5,5V32a5,5,0,0,1-5,5H5a5,5,0,0,1-5-5V5A5,5,0,0,1,5,0Z"/><text class="j" transform="translate(47 26)"><tspan x="-22.778" y="0">EDIT</tspan></text></g></g><g transform="translate(1080 -12)"><g class="g" transform="translate(153 482)"><rect class="r" width="381" height="440" rx="5"/><rect class="a" x="1" y="1" width="379" height="438" rx="4"/></g><g class="h" transform="translate(397 865)"><path class="i" d="M6.129,0H109.09c3.385,0,6.129,2.239,6.129,5V32c0,2.761-2.744,5-6.129,5H6.129C2.744,37,0,34.761,0,32V5C0,2.239,2.744,0,6.129,0Z"/><text class="j" transform="translate(57.609 26)"><tspan x="-46.118" y="0">PREVIEW</tspan></text></g><text class="k" transform="translate(169 747.124)"><tspan x="0" y="22">Challenge 8</tspan></text><g class="l" transform="translate(153 507.828)"><rect class="r" width="381" height="222.58"/><rect class="a" x="0.5" y="0.5" width="380" height="221.58"/></g><line class="m" x2="380" y2="221.58" transform="translate(153.5 508.328)"/><line class="m" x1="380" y2="221.58" transform="translate(153.5 508.328)"/><text class="e" transform="translate(168 779)"><tspan x="0" y="16">Man, 51 years old, present to an </tspan><tspan x="0" y="37">emergency department complaining of </tspan><tspan x="0" y="58">chest pain.</tspan></text><g class="n" transform="translate(283 865)"><path class="i" d="M5,0H89a5,5,0,0,1,5,5V32a5,5,0,0,1-5,5H5a5,5,0,0,1-5-5V5A5,5,0,0,1,5,0Z"/><text class="j" transform="translate(47 26)"><tspan x="-22.778" y="0">EDIT</tspan></text></g></g><g transform="translate(-153 458)"><g class="g" transform="translate(153 482)"><rect class="r" width="381" height="440" rx="5"/><rect class="a" x="1" y="1" width="379" height="438" rx="4"/></g><g class="h" transform="translate(397 865)"><path class="i" d="M6.129,0H109.09c3.385,0,6.129,2.239,6.129,5V32c0,2.761-2.744,5-6.129,5H6.129C2.744,37,0,34.761,0,32V5C0,2.239,2.744,0,6.129,0Z"/><text class="j" transform="translate(57.609 26)"><tspan x="-46.118" y="0">PREVIEW</tspan></text></g><text class="k" transform="translate(169 747.124)"><tspan x="0" y="22">Challenge 9</tspan></text><g class="l" transform="translate(153 507.828)"><rect class="r" width="381" height="222.58"/><rect class="a" x="0.5" y="0.5" width="380" height="221.58"/></g><line class="m" x2="380" y2="221.58" transform="translate(153.5 508.328)"/><line class="m" x1="380" y2="221.58" transform="translate(153.5 508.328)"/><text class="e" transform="translate(168 779)"><tspan x="0" y="16">Man, 51 years old, present to an </tspan><tspan x="0" y="37">emergency department complaining of </tspan><tspan x="0" y="58">chest pain.</tspan></text><g class="n" transform="translate(283 865)"><path class="i" d="M5,0H89a5,5,0,0,1,5,5V32a5,5,0,0,1-5,5H5a5,5,0,0,1-5-5V5A5,5,0,0,1,5,0Z"/><text class="j" transform="translate(47 26)"><tspan x="-22.778" y="0">EDIT</tspan></text></g></g><g transform="translate(258 458)"><g class="g" transform="translate(153 482)"><rect class="r" width="381" height="440" rx="5"/><rect class="a" x="1" y="1" width="379" height="438" rx="4"/></g><g class="h" transform="translate(397 865)"><path class="i" d="M6.129,0H109.09c3.385,0,6.129,2.239,6.129,5V32c0,2.761-2.744,5-6.129,5H6.129C2.744,37,0,34.761,0,32V5C0,2.239,2.744,0,6.129,0Z"/><text class="j" transform="translate(57.609 26)"><tspan x="-46.118" y="0">PREVIEW</tspan></text></g><text class="k" transform="translate(169 747.124)"><tspan x="0" y="22">Challenge 10</tspan></text><g class="l" transform="translate(153 507.828)"><rect class="r" width="381" height="222.58"/><rect class="a" x="0.5" y="0.5" width="380" height="221.58"/></g><line class="m" x2="380" y2="221.58" transform="translate(153.5 508.328)"/><line class="m" x1="380" y2="221.58" transform="translate(153.5 508.328)"/><text class="e" transform="translate(168 779)"><tspan x="0" y="16">Man, 51 years old, present to an </tspan><tspan x="0" y="37">emergency department complaining of </tspan><tspan x="0" y="58">chest pain.</tspan></text><g class="n" transform="translate(283 865)"><path class="i" d="M5,0H89a5,5,0,0,1,5,5V32a5,5,0,0,1-5,5H5a5,5,0,0,1-5-5V5A5,5,0,0,1,5,0Z"/><text class="j" transform="translate(47 26)"><tspan x="-22.778" y="0">EDIT</tspan></text></g></g><g transform="translate(669 458)"><g class="g" transform="translate(153 482)"><rect class="r" width="381" height="440" rx="5"/><rect class="a" x="1" y="1" width="379" height="438" rx="4"/></g><g class="h" transform="translate(397 865)"><path class="i" d="M6.129,0H109.09c3.385,0,6.129,2.239,6.129,5V32c0,2.761-2.744,5-6.129,5H6.129C2.744,37,0,34.761,0,32V5C0,2.239,2.744,0,6.129,0Z"/><text class="j" transform="translate(57.609 26)"><tspan x="-46.118" y="0">PREVIEW</tspan></text></g><text class="k" transform="translate(169 747.124)"><tspan x="0" y="22">Challenge 11</tspan></text><g class="l" transform="translate(153 507.828)"><rect class="r" width="381" height="222.58"/><rect class="a" x="0.5" y="0.5" width="380" height="221.58"/></g><line class="m" x2="380" y2="221.58" transform="translate(153.5 508.328)"/><line class="m" x1="380" y2="221.58" transform="translate(153.5 508.328)"/><text class="e" transform="translate(168 779)"><tspan x="0" y="16">Man, 51 years old, present to an </tspan><tspan x="0" y="37">emergency department complaining of </tspan><tspan x="0" y="58">chest pain.</tspan></text><g class="n" transform="translate(283 865)"><path class="i" d="M5,0H89a5,5,0,0,1,5,5V32a5,5,0,0,1-5,5H5a5,5,0,0,1-5-5V5A5,5,0,0,1,5,0Z"/><text class="j" transform="translate(47 26)"><tspan x="-22.778" y="0">EDIT</tspan></text></g></g><g transform="translate(1080 458)"><g class="g" transform="translate(153 482)"><rect class="r" width="381" height="440" rx="5"/><rect class="a" x="1" y="1" width="379" height="438" rx="4"/></g><g class="h" transform="translate(397 865)"><path class="i" d="M6.129,0H109.09c3.385,0,6.129,2.239,6.129,5V32c0,2.761-2.744,5-6.129,5H6.129C2.744,37,0,34.761,0,32V5C0,2.239,2.744,0,6.129,0Z"/><text class="j" transform="translate(57.609 26)"><tspan x="-46.118" y="0">PREVIEW</tspan></text></g><text class="k" transform="translate(169 747.124)"><tspan x="0" y="22">Challenge 12</tspan></text><g class="l" transform="translate(153 507.828)"><rect class="r" width="381" height="222.58"/><rect class="a" x="0.5" y="0.5" width="380" height="221.58"/></g><line class="m" x2="380" y2="221.58" transform="translate(153.5 508.328)"/><line class="m" x1="380" y2="221.58" transform="translate(153.5 508.328)"/><text class="e" transform="translate(168 779)"><tspan x="0" y="16">Man, 51 years old, present to an </tspan><tspan x="0" y="37">emergency department complaining of </tspan><tspan x="0" y="58">chest pain.</tspan></text><g class="n" transform="translate(283 865)"><path class="i" d="M5,0H89a5,5,0,0,1,5,5V32a5,5,0,0,1-5,5H5a5,5,0,0,1-5-5V5A5,5,0,0,1,5,0Z"/><text class="j" transform="translate(47 26)"><tspan x="-22.778" y="0">EDIT</tspan></text></g></g></g><rect class="i" width="98" height="27" rx="5" transform="translate(248 144)"/><rect class="i" width="70" height="27" rx="5" transform="translate(153 144)"/><text class="o" transform="translate(166 150)"><tspan x="1" y="13" xml:space="preserve">HOME      </tspan></text><text class="p" transform="translate(231 150)"><tspan x="0" y="13">&gt;</tspan></text><text class="o" transform="translate(256 150)"><tspan x="0.542" y="13">CASES LIST</tspan></text><g transform="translate(22)"><rect class="i" width="260" height="37" rx="5" transform="translate(808 1922)"/><text class="q" transform="translate(822 1947)"><tspan x="0" y="0">Create a new case right now!</tspan></text></g></g></svg>