<svg xmlns="http://www.w3.org/2000/svg" xmlns:xlink="http://www.w3.org/1999/xlink" width="1920" height="1988" viewBox="0 0 1920 1988"><defs><style>.a,.i,.p,.q{fill:none;}.b{clip-path:url(#o);}.c,.g,.k,.m,.o{fill:#fff;}.d,.e,.j,.l{fill:gray;}.d{font-size:56px;}.d,.l,.o{font-family:Arial-BoldMT, Arial;font-weight:700;}.e,.l{font-size:18px;}.e,.g,.h,.j{font-family:ArialMT, Arial;}.f,.h,.w{fill:#a6a6a6;}.g,.h{font-size:14px;}.i{stroke:#fff;}.j{font-size:32px;}.k,.p{stroke:#a6a6a6;}.k{stroke-width:2px;}.m,.q,.w{stroke:#707070;}.n{clip-path:url(#a);}.o{font-size:20px;}.r{clip-path:url(#c);}.s{fill:rgba(34,31,31,0.26);}.s,.v,.z{fill-rule:evenodd;}.t{fill:#f1f1f1;stroke:rgba(0,0,0,0);stroke-width:0.5px;}.u{clip-path:url(#f);}.v{opacity:0.54;}.x{fill:#707070;}.y{clip-path:url(#k);}.aa,.z{fill:#009688;}.z{opacity:0.5;}.ab{stroke:none;}.ac{fill:#f2f2f2;}.ad{filter:url(#l);}.ae{filter:url(#d);}</style><clipPath id="a"><rect class="a" width="94" height="37"/></clipPath><clipPath id="c"><rect class="a" width="40.25" height="26.5"/></clipPath><filter id="d" x="254.75" y="1338.75" width="26.5" height="26.5" filterUnits="userSpaceOnUse"><feOffset dy="2" input="SourceAlpha"/><feGaussianBlur stdDeviation="1" result="e"/><feFlood flood-opacity="0.239"/><feComposite operator="in" in2="e"/><feComposite in="SourceGraphic"/></filter><clipPath id="f"><rect class="a" width="24" height="24"/></clipPath><clipPath id="k"><rect class="a" width="40" height="26"/></clipPath><filter id="l" x="1509" y="396" width="26" height="26" filterUnits="userSpaceOnUse"><feOffset dy="2" input="SourceAlpha"/><feGaussianBlur stdDeviation="1" result="m"/><feFlood flood-opacity="0.239"/><feComposite operator="in" in2="m"/><feComposite in="SourceGraphic"/></filter><clipPath id="o"><rect width="1920" height="1988"/></clipPath></defs><g id="n" class="b"><rect class="ac" width="1920" height="1988"/><rect class="c" width="1920" height="100"/><text class="d" transform="translate(154 286)"><tspan x="0" y="0">Create a new case</tspan></text><text class="e" transform="translate(153 334)"><tspan x="0" y="0">Create a new case. </tspan></text><rect class="f" width="75" height="27" rx="5" transform="translate(248 144)"/><rect class="f" width="70" height="27" rx="5" transform="translate(153 144)"/><text class="g" transform="translate(166 150)"><tspan x="1" y="13" xml:space="preserve">HOME      </tspan></text><text class="h" transform="translate(231 150)"><tspan x="0" y="13">&gt;</tspan></text><text class="g" transform="translate(256 150)"><tspan x="0.126" y="13">CREATE</tspan></text><rect class="f" width="153" height="27" rx="5" transform="translate(350 145)"/><text class="h" transform="translate(333 151)"><tspan x="0" y="13">&gt;</tspan></text><text class="g" transform="translate(358 151)"><tspan x="15.21" y="13">PREVIEW CASE</tspan></text><line class="i" y2="141" transform="translate(782 807)"/><text class="j" transform="translate(564 532)"><tspan x="0" y="0">Basic settings</tspan></text><g class="k" transform="translate(564 564)"><rect class="ab" width="1203" height="356" rx="5"/><rect class="a" x="1" y="1" width="1201" height="354" rx="4"/></g><text class="l" transform="translate(626 613.125)"><tspan x="0" y="16">Case name</tspan></text><text class="l" transform="translate(1249 789.125)"><tspan x="0" y="16">Author </tspan></text><text class="l" transform="translate(1249 819.125)"><tspan x="0" y="16">Institution</tspan></text><text class="l" transform="translate(1249 849.125)"><tspan x="0" y="16">Country</tspan></text><text class="l" transform="translate(1249 613.125)"><tspan x="0" y="16">Main complain</tspan></text><text class="l" transform="translate(1249 703.125)"><tspan x="0" y="16">Clinical setting</tspan></text><text class="l" transform="translate(1249 658.125)"><tspan x="0" y="16">Speciality</tspan></text><text class="l" transform="translate(1249 757.125)"><tspan x="0" y="16">Status</tspan></text><text class="l" transform="translate(625 707)"><tspan x="0" y="16">Description</tspan></text><g class="k" transform="translate(626 637)"><rect class="ab" width="593" height="38" rx="5"/><rect class="a" x="1" y="1" width="591" height="36" rx="4"/></g><g class="k" transform="translate(1413 607)"><rect class="ab" width="335.667" height="38" rx="5"/><rect class="a" x="1" y="1" width="333.667" height="36" rx="4"/></g><g class="k" transform="translate(1413 697)"><rect class="ab" width="335.667" height="38" rx="5"/><rect class="a" x="1" y="1" width="333.667" height="36" rx="4"/></g><g class="k" transform="translate(1413 652)"><rect class="ab" width="335.667" height="38" rx="5"/><rect class="a" x="1" y="1" width="333.667" height="36" rx="4"/></g><g class="k" transform="translate(626 732)"><rect class="ab" width="593" height="101" rx="5"/><rect class="a" x="1" y="1" width="591" height="99" rx="4"/></g><text class="e" transform="translate(1443 776.125)"><tspan x="0" y="0">Published</tspan></text><text class="e" transform="translate(1421 805.125)"><tspan x="0" y="0" xml:space="preserve">    </tspan></text><text class="e" transform="translate(1421 835.125)"><tspan x="0" y="0" xml:space="preserve">    </tspan></text><text class="e" transform="translate(1421 865.125)"><tspan x="0" y="0" xml:space="preserve">   </tspan></text><text class="e" transform="translate(1604 776.125)"><tspan x="0" y="0">Draft</tspan></text><g class="m" transform="translate(1580 764)"><circle class="ab" cx="6.5" cy="6.5" r="6.5"/><circle class="a" cx="6.5" cy="6.5" r="6"/></g><g class="m" transform="translate(1419 764)"><circle class="ab" cx="6.5" cy="6.5" r="6.5"/><circle class="a" cx="6.5" cy="6.5" r="6"/></g><text class="e" transform="translate(641 662.125)"><tspan x="0" y="0"> </tspan></text><text class="e" transform="translate(641 745)"><tspan x="0" y="16"> </tspan></text><text class="e" transform="translate(641 863)"><tspan x="0" y="0">Esse texto é o que aparece para o aluno antes de ele entrar no caso . </tspan></text><g class="k" transform="translate(564 1031)"><rect class="ab" width="1203" height="382" rx="5"/><rect class="a" x="1" y="1" width="1201" height="380" rx="4"/></g><g class="k" transform="translate(564 1536)"><rect class="ab" width="1203" height="382" rx="5"/><rect class="a" x="1" y="1" width="1201" height="380" rx="4"/></g><text class="j" transform="translate(564 999)"><tspan x="0" y="0">Characters settings</tspan></text><text class="j" transform="translate(564 1500)"><tspan x="0" y="0">Background settings</tspan></text><g class="k" transform="translate(593 1062)"><rect class="ab" width="245" height="323.612" rx="5"/><rect class="a" x="1" y="1" width="243" height="321.612" rx="4"/></g><g class="k" transform="translate(593 1565)"><rect class="ab" width="245" height="323.612" rx="5"/><rect class="a" x="1" y="1" width="243" height="321.612" rx="4"/></g><g class="n" transform="translate(669 1260)"><path class="f" d="M5,0H89a5,5,0,0,1,5,5V32a5,5,0,0,1-5,5H5a5,5,0,0,1-5-5V5A5,5,0,0,1,5,0Z"/><text class="o" transform="translate(47 26)"><tspan x="-29.912" y="0">+ ADD</tspan></text></g><g class="n" transform="translate(669 1763)"><path class="f" d="M5,0H89a5,5,0,0,1,5,5V32a5,5,0,0,1-5,5H5a5,5,0,0,1-5-5V5A5,5,0,0,1,5,0Z"/><text class="o" transform="translate(47 26)"><tspan x="-29.912" y="0">+ ADD</tspan></text></g><g class="k" transform="translate(626 1158)"><rect class="ab" width="178" height="38" rx="5"/><rect class="a" x="1" y="1" width="176" height="36" rx="4"/></g><g class="k" transform="translate(626 1661)"><rect class="ab" width="178" height="38" rx="5"/><rect class="a" x="1" y="1" width="176" height="36" rx="4"/></g><text class="e" transform="translate(636 1184.125)"><tspan x="0" y="0">Anges (Nurse)</tspan></text><text class="e" transform="translate(636 1687.125)"><tspan x="0" y="0">Anges (Nurse)</tspan></text><text class="e" transform="translate(626 1154.125)"><tspan x="0" y="0">Choose one</tspan></text><text class="e" transform="translate(626 1657.125)"><tspan x="0" y="0">Choose one</tspan></text><text class="e" transform="translate(700 1236.125)"><tspan x="0" y="0">OR</tspan></text><text class="e" transform="translate(700 1739.125)"><tspan x="0" y="0">OR</tspan></text><path class="f" d="M4.827,4.936,9.616,0V9.616H0Z" transform="translate(786.121 1169.078) rotate(45)"/><path class="f" d="M4.827,4.936,9.616,0V9.616H0Z" transform="translate(786.121 1672.078) rotate(45)"/><line class="p" y2="37" transform="translate(771.5 1158.5)"/><line class="p" y2="37" transform="translate(771.5 1661.5)"/><g class="k" transform="translate(626 1158)"><rect class="ab" width="178" height="38" rx="5"/><rect class="a" x="1" y="1" width="176" height="36" rx="4"/></g><g class="k" transform="translate(626 1661)"><rect class="ab" width="178" height="38" rx="5"/><rect class="a" x="1" y="1" width="176" height="36" rx="4"/></g><text class="e" transform="translate(636 1184.125)"><tspan x="0" y="0">Anges (Nurse)</tspan></text><text class="e" transform="translate(636 1687.125)"><tspan x="0" y="0">Emergency wa...</tspan></text><text class="e" transform="translate(626 1657.125)"><tspan x="0" y="0">Choose one</tspan></text><path class="f" d="M4.827,4.936,9.616,0V9.616H0Z" transform="translate(786.121 1169.078) rotate(45)"/><path class="f" d="M4.827,4.936,9.616,0V9.616H0Z" transform="translate(786.121 1672.078) rotate(45)"/><line class="p" y2="37" transform="translate(771.5 1158.5)"/><line class="p" y2="37" transform="translate(771.5 1661.5)"/><g class="m" transform="translate(153 485)"><rect class="ab" width="381" height="840" rx="5"/><rect class="a" x="0.5" y="0.5" width="380" height="839" rx="4.5"/></g><g transform="translate(0 19)"><line class="q" y1="20" x2="39" transform="translate(397 1086)"/><line class="q" y1="20" x2="39" transform="translate(397 746)"/><g transform="translate(102 199)"><g class="k" transform="translate(273 495)"><rect class="ab" width="141" height="60" rx="5"/><rect class="a" x="1" y="1" width="139" height="58" rx="4"/></g><text class="e" transform="translate(344 531)"><tspan x="-43.018" y="0">Supervisor</tspan></text></g><g transform="translate(102 539)"><g class="k" transform="translate(273 495)"><rect class="ab" width="141" height="60" rx="5"/><rect class="a" x="1" y="1" width="139" height="58" rx="4"/></g><text class="e" transform="translate(344 531)"><tspan x="-43.018" y="0">Supervisor</tspan></text></g><g transform="translate(98 195)"><g class="k" transform="translate(273 495)"><rect class="ab" width="141" height="60" rx="5"/><rect class="a" x="1" y="1" width="139" height="58" rx="4"/></g><text class="e" transform="translate(344 531)"><tspan x="-43.018" y="0">Supervisor</tspan></text></g><g transform="translate(98 535)"><g class="k" transform="translate(273 495)"><rect class="ab" width="141" height="60" rx="5"/><rect class="a" x="1" y="1" width="139" height="58" rx="4"/></g><text class="e" transform="translate(344 531)"><tspan x="-43.018" y="0">Supervisor</tspan></text></g><path class="q" d="M0,0V244.167" transform="translate(343.5 606.5)"/><path class="q" d="M0,0V194.47" transform="translate(343.5 953.5)"/><g transform="translate(0 11)"><g class="k" transform="translate(273 495)"><rect class="ab" width="141" height="60" rx="5"/><rect class="a" x="1" y="1" width="139" height="58" rx="4"/></g><text class="e" transform="translate(344 531)"><tspan x="-47.03" y="0">Introduction</tspan></text></g><g transform="translate(0 111)"><g class="k" transform="translate(273 495)"><rect class="ab" width="141" height="60" rx="5"/><rect class="a" x="1" y="1" width="139" height="58" rx="4"/></g><text class="e" transform="translate(344 531)"><tspan x="-28.02" y="0">Patient</tspan></text></g><g transform="translate(0 271)"><g class="k" transform="translate(273 495)"><rect class="ab" width="141" height="60" rx="5"/><rect class="a" x="1" y="1" width="139" height="58" rx="4"/></g><text class="e" transform="translate(344 521)"><tspan x="-40.025" y="0">Generate </tspan><tspan x="-43.027" y="21">hypothesis</tspan></text></g><g transform="translate(0 611)"><g class="k" transform="translate(273 495)"><rect class="ab" width="141" height="60" rx="5"/><rect class="a" x="1" y="1" width="139" height="58" rx="4"/></g><text class="e" transform="translate(344 521)"><tspan x="-40.025" y="0">Generate </tspan><tspan x="-43.027" y="21">hypothesis</tspan></text></g><g transform="translate(0 351)"><g class="k" transform="translate(273 495)"><rect class="ab" width="141" height="60" rx="5"/><rect class="a" x="1" y="1" width="139" height="58" rx="4"/></g><text class="e" transform="translate(344 531)"><tspan x="-57.032" y="0">Text highligths</tspan></text></g><g transform="translate(0 711)"><g class="k" transform="translate(273 495)"><rect class="ab" width="141" height="60" rx="5"/><rect class="a" x="1" y="1" width="139" height="58" rx="4"/></g><text class="e" transform="translate(344 531)"><tspan x="-39.524" y="0">Feedback</tspan></text></g><g transform="translate(0 451)"><g class="k" transform="translate(273 495)"><rect class="ab" width="141" height="60" rx="5"/><rect class="a" x="1" y="1" width="139" height="58" rx="4"/></g><text class="e" transform="translate(344 531)"><tspan x="-19.006" y="0">EKG</tspan></text></g><g transform="translate(-93 191)"><g class="k" transform="translate(273 495)"><rect class="ab" width="141" height="60" rx="5"/><rect class="a" x="1" y="1" width="139" height="58" rx="4"/></g><text class="e" transform="translate(344 531)"><tspan x="-52.277" y="0">+ information</tspan></text></g><g transform="translate(-93 531)"><g class="k" transform="translate(273 495)"><rect class="ab" width="141" height="60" rx="5"/><rect class="a" x="1" y="1" width="139" height="58" rx="4"/></g><text class="e" transform="translate(344 531)"><tspan x="-52.277" y="0">+ information</tspan></text></g><g transform="translate(94 191)"><g class="k" transform="translate(273 495)"><rect class="ab" width="141" height="60" rx="5"/><rect class="a" x="1" y="1" width="139" height="58" rx="4"/></g><text class="e" transform="translate(344 531)"><tspan x="-43.018" y="0">Supervisor</tspan></text></g><g transform="translate(94 531)"><g class="k" transform="translate(273 495)"><rect class="ab" width="141" height="60" rx="5"/><rect class="a" x="1" y="1" width="139" height="58" rx="4"/></g><text class="e" transform="translate(344 531)"><tspan x="-43.018" y="0">Supervisor</tspan></text></g><line class="q" x1="39" y2="20" transform="translate(251 666)"/><line class="q" x1="39" y2="20" transform="translate(251 1006)"/><line class="q" x1="39" y1="20" transform="translate(251 746)"/><line class="q" x1="39" y1="20" transform="translate(251 1086)"/><line class="q" x2="39" y2="20" transform="translate(397 666)"/><line class="q" x2="39" y2="20" transform="translate(397 1006)"/><line class="q" x2="46" transform="translate(321.5 716.5)"/><line class="q" x2="46" transform="translate(321.5 1055.5)"/><line class="q" x2="381" transform="translate(153 586)"/><line class="q" x2="381" transform="translate(153 926)"/><line class="q" x2="381" transform="translate(153 1186)"/><text class="l" transform="translate(169 623)"><tspan x="0" y="0">CYCLE 1</tspan></text><text class="l" transform="translate(169 524)"><tspan x="0" y="0">START</tspan></text><text class="l" transform="translate(169 962)"><tspan x="0" y="0">CYCLE 2</tspan></text><text class="l" transform="translate(169 1222)"><tspan x="0" y="0">FINAL</tspan></text></g><g class="r" transform="translate(254.75 1338.75)"><path class="s" d="M30,17H10A7,7,0,0,1,10,3H30a7,7,0,0,1,0,14Z" transform="translate(3.25 1.25)"/><g class="ae" transform="matrix(1, 0, 0, 1, -254.75, -1338.75)"><path class="t" d="M10,0A10,10,0,1,1,0,10,10,10,0,0,1,10,0Z" transform="translate(258 1340)"/></g></g><text class="e" transform="translate(200 1356)"><tspan x="-46.521" y="0">Thumbnails</tspan></text><text class="e" transform="translate(471 1355)"><tspan x="-38.004" y="0">Maximize</tspan></text><g class="u" transform="translate(510 1336)"><rect class="a" width="24" height="24"/><path class="v" d="M7,14H5v5h5V17H7V14ZM5,10H7V7h3V5H5v5Zm12,7H14v2h5V14H17v3ZM14,5V7h3v3h2V5Z"/></g><g class="m" transform="translate(153 377)"><rect class="ab" width="1614" height="60" rx="5"/><rect class="a" x="0.5" y="0.5" width="1613" height="59" rx="4.5"/></g><g class="m" transform="translate(1330 377)"><rect class="ab" width="240" height="60"/><rect class="a" x="0.5" y="0.5" width="239" height="59"/></g><text class="e" transform="translate(1353 413)"><tspan x="0" y="0">Preview mode</tspan></text><g transform="translate(280 -3)"><g class="m" transform="translate(1393 390)"><rect class="ab" width="80" height="40" rx="5"/><rect class="a" x="0.5" y="0.5" width="79" height="39" rx="4.5"/></g><g class="u" transform="translate(1401 398)"><rect class="a" width="24" height="24"/><path class="v" d="M20,11H7.8l5.6-5.6L12,4,4,12l8,8,1.4-1.4L7.8,13H20V11Z"/></g><g class="u" transform="translate(1441 398)"><rect class="a" width="24" height="24"/><path class="v" d="M12,4,10.6,5.4,16.2,11H4v2H16.2l-5.6,5.6L12,20l8-8Z"/></g><line class="q" y2="39" transform="translate(1433.5 390.5)"/></g><g transform="translate(-468)"><g class="w" transform="translate(632 387)"><rect class="ab" width="148" height="40" rx="5"/><rect class="a" x="0.5" y="0.5" width="147" height="39" rx="4.5"/></g><text class="o" transform="translate(665 396)"><tspan x="0" y="18">SETTINGS</tspan></text><g class="u" transform="translate(641 395)"><path class="x" d="M9.568,12.123A2.625,2.625,0,1,1,12.193,9.5,2.625,2.625,0,0,1,9.568,12.123Zm5.572-1.893a5.13,5.13,0,0,0,0-1.464l1.585-1.24a.374.374,0,0,0,.089-.479l-1.5-2.6a.375.375,0,0,0-.459-.163l-1.867.752A5.605,5.605,0,0,0,11.719,4.3l-.281-1.987A.376.376,0,0,0,11.068,2h-3a.375.375,0,0,0-.37.316L7.416,4.3a5.624,5.624,0,0,0-1.268.738L4.282,4.286a.375.375,0,0,0-.459.163l-1.5,2.6a.374.374,0,0,0,.089.479L4,8.766A5.129,5.129,0,0,0,4,10.23L2.411,11.47a.376.376,0,0,0-.089.479l1.5,2.6a.375.375,0,0,0,.459.163l1.867-.752a5.607,5.607,0,0,0,1.268.737L7.7,16.682a.375.375,0,0,0,.37.316h3a.376.376,0,0,0,.371-.316l.281-1.987a5.622,5.622,0,0,0,1.267-.738l1.868.753a.375.375,0,0,0,.459-.163l1.5-2.6a.376.376,0,0,0-.089-.479Z" transform="translate(2.727 3.002)"/><rect class="a" width="24" height="24"/></g><g class="u" transform="translate(641 395)"><path class="c" d="M9.568,12.123A2.625,2.625,0,1,1,12.193,9.5,2.625,2.625,0,0,1,9.568,12.123Zm5.572-1.893a5.13,5.13,0,0,0,0-1.464l1.585-1.24a.374.374,0,0,0,.089-.479l-1.5-2.6a.375.375,0,0,0-.459-.163l-1.867.752A5.605,5.605,0,0,0,11.719,4.3l-.281-1.987A.376.376,0,0,0,11.068,2h-3a.375.375,0,0,0-.37.316L7.416,4.3a5.624,5.624,0,0,0-1.268.738L4.282,4.286a.375.375,0,0,0-.459.163l-1.5,2.6a.374.374,0,0,0,.089.479L4,8.766A5.129,5.129,0,0,0,4,10.23L2.411,11.47a.376.376,0,0,0-.089.479l1.5,2.6a.375.375,0,0,0,.459.163l1.867-.752a5.607,5.607,0,0,0,1.268.737L7.7,16.682a.375.375,0,0,0,.37.316h3a.376.376,0,0,0,.371-.316l.281-1.987a5.622,5.622,0,0,0,1.267-.738l1.868.753a.375.375,0,0,0,.459-.163l1.5-2.6a.376.376,0,0,0-.089-.479Z" transform="translate(2.727 3.002)"/><rect class="a" width="24" height="24"/></g></g><g class="y" transform="translate(1495 396)"><path class="z" d="M37,10a6.957,6.957,0,0,1-7,7H10a6.957,6.957,0,0,1-7-7H3a6.957,6.957,0,0,1,7-7H30a6.957,6.957,0,0,1,7,7Z" transform="translate(-3 1)"/><g class="ad" transform="matrix(1, 0, 0, 1, -1495, -396)"><path class="aa" d="M10,0A10,10,0,1,1,0,10,10,10,0,0,1,10,0Z" transform="translate(1512 397)"/></g></g></g></svg>