<svg xmlns="http://www.w3.org/2000/svg" xmlns:xlink="http://www.w3.org/1999/xlink" width="1920" height="2060" viewBox="0 0 1920 2060"><defs><style>.a,.p{fill:none;}.b{clip-path:url(#d);}.c,.d,.h,.j,.o{fill:#fff;}.c,.p{stroke:#a6a6a6;}.c{stroke-width:2px;}.e,.f,.g,.l,.m{fill:gray;}.e{font-size:56px;}.e,.g,.m,.o{font-family:Arial-BoldMT, Arial;font-weight:700;}.f,.g{font-size:18px;}.f,.j,.k,.l{font-family:ArialMT, Arial;}.h{stroke:#707070;}.i,.k{fill:#a6a6a6;}.j,.k{font-size:14px;}.l{font-size:32px;}.m{font-size:24px;}.n{clip-path:url(#a);}.o{font-size:20px;}.q{stroke:none;}.r{fill:#f2f2f2;}</style><clipPath id="a"><rect class="a" width="94" height="37"/></clipPath><clipPath id="d"><rect width="1920" height="2060"/></clipPath></defs><g id="c" class="b"><rect class="r" width="1920" height="2060"/><g class="c" transform="translate(153 459)"><rect class="q" width="1614" height="295" rx="5"/><rect class="a" x="1" y="1" width="1612" height="293" rx="4"/></g><rect class="d" width="1920" height="100"/><text class="e" transform="translate(154 286)"><tspan x="0" y="0">Create a new case</tspan></text><text class="f" transform="translate(153 334)"><tspan x="0" y="0">Create a new clinical cases. </tspan></text><text class="g" transform="translate(215 508.125)"><tspan x="0" y="16">Case name</tspan></text><text class="g" transform="translate(1068 508.125)"><tspan x="0" y="16">Categories</tspan></text><text class="g" transform="translate(1068 566.125)"><tspan x="0" y="16">Status</tspan></text><text class="g" transform="translate(214 566)"><tspan x="0" y="16">Description</tspan></text><g class="c" transform="translate(427 502)"><rect class="q" width="518" height="38" rx="5"/><rect class="a" x="1" y="1" width="516" height="36" rx="4"/></g><g class="c" transform="translate(1219 502)"><rect class="q" width="518" height="38" rx="5"/><rect class="a" x="1" y="1" width="516" height="36" rx="4"/></g><g class="c" transform="translate(427 560)"><rect class="q" width="518" height="152" rx="5"/><rect class="a" x="1" y="1" width="516" height="150" rx="4"/></g><text class="f" transform="translate(1249 585.125)"><tspan x="0" y="0">Published</tspan></text><text class="f" transform="translate(1410 585.125)"><tspan x="0" y="0">Draft</tspan></text><g class="h" transform="translate(1225 573)"><circle class="q" cx="6.5" cy="6.5" r="6.5"/><circle class="a" cx="6.5" cy="6.5" r="6"/></g><g class="h" transform="translate(1386 573)"><circle class="q" cx="6.5" cy="6.5" r="6.5"/><circle class="a" cx="6.5" cy="6.5" r="6"/></g><rect class="i" width="153" height="27" rx="5" transform="translate(248 144)"/><rect class="i" width="70" height="27" rx="5" transform="translate(153 144)"/><text class="j" transform="translate(166 150)"><tspan x="1" y="13" xml:space="preserve">HOME      </tspan></text><text class="k" transform="translate(231 150)"><tspan x="0" y="13">&gt;</tspan></text><text class="j" transform="translate(256 150)"><tspan x="1.344" y="13" xml:space="preserve">CREATE NEW CASE    </tspan></text><text class="l" transform="translate(153 427)"><tspan x="0" y="0">Basic settings</tspan></text><g class="c" transform="translate(153 892)"><rect class="q" width="1614" height="383" rx="5"/><rect class="a" x="1" y="1" width="1612" height="381" rx="4"/></g><g class="c" transform="translate(563 923)"><rect class="q" width="245" height="323.612" rx="5"/><rect class="a" x="1" y="1" width="243" height="321.612" rx="4"/></g><text class="m" transform="translate(215 964.125)"><tspan x="0" y="22">Characters</tspan></text><text class="f" transform="translate(214 996)"><tspan x="0" y="16">Setting cases&apos;s characters.</tspan></text><g class="n" transform="translate(639 1121)"><path class="i" d="M5,0H89a5,5,0,0,1,5,5V32a5,5,0,0,1-5,5H5a5,5,0,0,1-5-5V5A5,5,0,0,1,5,0Z"/><text class="o" transform="translate(47 26)"><tspan x="-29.912" y="0">+ ADD</tspan></text></g><g class="c" transform="translate(596 1019)"><rect class="q" width="178" height="38" rx="5"/><rect class="a" x="1" y="1" width="176" height="36" rx="4"/></g><text class="f" transform="translate(606 1045.125)"><tspan x="0" y="0">Anges (Nurse)</tspan></text><text class="f" transform="translate(596 1015.125)"><tspan x="0" y="0">Choose one</tspan></text><text class="f" transform="translate(670 1097.125)"><tspan x="0" y="0">OR</tspan></text><path class="i" d="M4.827,4.936,9.616,0V9.616H0Z" transform="translate(756.122 1030.078) rotate(45)"/><line class="p" y2="37" transform="translate(741.5 1019.5)"/><text class="l" transform="translate(153 863)"><tspan x="0" y="0">Characters settings</tspan></text><text class="l" transform="translate(153 1399)"><tspan x="0" y="0">Case settings</tspan></text><g class="c" transform="translate(153 1429)"><rect class="q" width="1614" height="362" rx="5"/><rect class="a" x="1" y="1" width="1612" height="360" rx="4"/></g><g class="c" transform="translate(564 1460)"><rect class="q" width="245" height="300" rx="5"/><rect class="a" x="1" y="1" width="243" height="298" rx="4"/></g><text class="m" transform="translate(215 1501.125)"><tspan x="0" y="22">Introductoin</tspan></text><text class="f" transform="translate(214 1533)"><tspan x="0" y="16">Apresentação do caso</tspan></text><g class="n" transform="translate(913 1819)"><path class="i" d="M5,0H89a5,5,0,0,1,5,5V32a5,5,0,0,1-5,5H5a5,5,0,0,1-5-5V5A5,5,0,0,1,5,0Z"/><text class="o" transform="translate(47 26)"><tspan x="-29.912" y="0">+ ADD</tspan></text></g></g></svg>