<svg xmlns="http://www.w3.org/2000/svg" xmlns:xlink="http://www.w3.org/1999/xlink" width="1920" height="1080" viewBox="0 0 1920 1080"><defs><style>.a,.i{fill:none;}.b{clip-path:url(#e);}.c,.f,.l,.m{fill:#fff;}.d,.e,.g{fill:gray;}.d{font-size:56px;}.d,.g,.l{font-family:Arial-BoldMT, Arial;font-weight:700;}.e{font-size:18px;}.e,.m,.n{font-family:ArialMT, Arial;}.f{stroke:#a6a6a6;stroke-width:2px;}.g{font-size:24px;}.h{fill:#e6e6e6;stroke:#999;}.i{stroke:#707070;}.j{clip-path:url(#a);}.k,.n{fill:#a6a6a6;}.l{font-size:20px;}.m,.n{font-size:14px;}.o{clip-path:url(#b);}.p{clip-path:url(#c);}.q{stroke:none;}.r{fill:#f2f2f2;}</style><clipPath id="a"><rect class="a" width="94" height="37"/></clipPath><clipPath id="b"><rect class="a" width="109.716" height="37"/></clipPath><clipPath id="c"><rect class="a" width="115.219" height="37"/></clipPath><clipPath id="e"><rect width="1920" height="1080"/></clipPath></defs><g id="d" class="b"><rect class="r" width="1920" height="1080"/><rect class="c" width="1920" height="100"/><text class="d" transform="translate(154 286)"><tspan x="0" y="0">Continue editing your draft cases.</tspan></text><text class="e" transform="translate(153 334)"><tspan x="0" y="0">Choose one draft do edit.</tspan></text><g transform="translate(0 -24)"><g class="f" transform="translate(153 482)"><rect class="q" width="381" height="440" rx="5"/><rect class="a" x="1" y="1" width="379" height="438" rx="4"/></g><text class="g" transform="translate(169 747.124)"><tspan x="0" y="22">Challenge 13</tspan></text><g class="h" transform="translate(153 507.828)"><rect class="q" width="381" height="222.58"/><rect class="a" x="0.5" y="0.5" width="380" height="221.58"/></g><line class="i" x2="380" y2="221.58" transform="translate(153.5 508.328)"/><line class="i" x1="380" y2="221.58" transform="translate(153.5 508.328)"/><text class="e" transform="translate(168 779)"><tspan x="0" y="16">Woman, 23 years old, present to an </tspan><tspan x="0" y="37">emergency department complaining of </tspan><tspan x="0" y="58">chest pain.</tspan></text><g class="j" transform="translate(420 865)"><path class="k" d="M5,0H89a5,5,0,0,1,5,5V32a5,5,0,0,1-5,5H5a5,5,0,0,1-5-5V5A5,5,0,0,1,5,0Z"/><text class="l" transform="translate(47 26)"><tspan x="-22.778" y="0">EDIT</tspan></text></g></g><rect class="k" width="75" height="27" rx="5" transform="translate(248 144)"/><rect class="k" width="70" height="27" rx="5" transform="translate(153 144)"/><text class="m" transform="translate(166 150)"><tspan x="1" y="13" xml:space="preserve">HOME      </tspan></text><text class="n" transform="translate(231 150)"><tspan x="0" y="13">&gt;</tspan></text><text class="m" transform="translate(256 150)"><tspan x="4.669" y="13">DRAFT</tspan></text><g class="o" transform="translate(170 841)"><path class="k" d="M5.836,0H103.88c3.223,0,5.836,2.239,5.836,5V32c0,2.761-2.613,5-5.836,5H5.836C2.613,37,0,34.761,0,32V5C0,2.239,2.613,0,5.836,0Z"/><text class="l" transform="translate(55 26)"><tspan x="-39.448" y="0">DELETE</tspan></text></g><g class="p" transform="translate(293.781 841)"><path class="k" d="M6.129,0H109.09c3.385,0,6.129,2.239,6.129,5V32c0,2.761-2.744,5-6.129,5H6.129C2.744,37,0,34.761,0,32V5C0,2.239,2.744,0,6.129,0Z"/><text class="l" transform="translate(57.609 26)"><tspan x="-46.118" y="0">PREVIEW</tspan></text></g></g></svg>