<svg xmlns="http://www.w3.org/2000/svg" xmlns:xlink="http://www.w3.org/1999/xlink" width="1920" height="3042" viewBox="0 0 1920 3042"><defs><style>.a,.s{fill:none;}.b,.d,.e,.m,.n,.t{fill:#fff;}.b,.p{stroke:#707070;}.c{clip-path:url(#l);}.d,.s{stroke:#a6a6a6;}.d{stroke-width:2px;}.f,.g,.h,.i,.j{fill:gray;}.f{font-size:56px;}.f,.i,.j,.m{font-family:Arial-BoldMT, Arial;font-weight:700;}.g{font-size:32px;}.g,.h,.n,.o,.t,.u,.w{font-family:ArialMT, Arial;}.h,.j,.n,.w{font-size:18px;}.i{font-size:24px;}.k{clip-path:url(#a);}.l,.o,.p,.u{fill:#a6a6a6;}.m{font-size:20px;}.o{font-size:12px;}.q{clip-path:url(#c);}.r{fill:url(#e);}.t,.u{font-size:14px;}.v{clip-path:url(#f);}.w{fill:#bc0000;}.x{stroke:none;}.y{fill:#f2f2f2;}</style><clipPath id="a"><rect class="a" width="94" height="37"/></clipPath><clipPath id="c"><rect class="b" width="196.731" height="179.524" transform="translate(-14462 -12492)"/></clipPath><pattern id="e" width="1" height="1" viewBox="182.741 -13.379 581.275 326.967"><image preserveAspectRatio="xMidYMid slice" width="550.618" height="309.723" xlink:href="Editing-image2.png"/></pattern><clipPath id="f"><rect class="a" width="109.716" height="37"/></clipPath><clipPath id="l"><rect width="1920" height="3042"/></clipPath></defs><g id="k" class="c"><rect class="y" width="1920" height="3042"/><g class="d" transform="translate(153 1428)"><rect class="x" width="1614" height="362" rx="5"/><rect class="a" x="1" y="1" width="1612" height="360" rx="4"/></g><g class="d" transform="translate(153 893)"><rect class="x" width="1614" height="383" rx="5"/><rect class="a" x="1" y="1" width="1612" height="381" rx="4"/></g><g class="d" transform="translate(153 459)"><rect class="x" width="1614" height="321" rx="5"/><rect class="a" x="1" y="1" width="1612" height="319" rx="4"/></g><g class="d" transform="translate(153 2094)"><rect class="x" width="1614" height="362" rx="5"/><rect class="a" x="1" y="1" width="1612" height="360" rx="4"/></g><g class="d" transform="translate(1385 2125)"><rect class="x" width="245" height="300" rx="5"/><rect class="a" x="1" y="1" width="243" height="298" rx="4"/></g><g class="d" transform="translate(564 1459)"><rect class="x" width="245" height="300" rx="5"/><rect class="a" x="1" y="1" width="243" height="298" rx="4"/></g><g class="d" transform="translate(563 924)"><rect class="x" width="245" height="323.612" rx="5"/><rect class="a" x="1" y="1" width="243" height="321.612" rx="4"/></g><g class="d" transform="translate(838 924)"><rect class="x" width="245" height="323.612" rx="5"/><rect class="a" x="1" y="1" width="243" height="321.612" rx="4"/></g><g class="d" transform="translate(1112 2125)"><rect class="x" width="245" height="300" rx="5"/><rect class="a" x="1" y="1" width="243" height="298" rx="4"/></g><g class="d" transform="translate(563 2125)"><rect class="x" width="245" height="300" rx="5"/><rect class="a" x="1" y="1" width="243" height="298" rx="4"/></g><g class="d" transform="translate(837 2125)"><rect class="x" width="245" height="300" rx="5"/><rect class="a" x="1" y="1" width="243" height="298" rx="4"/></g><rect class="e" width="1920" height="100"/><text class="f" transform="translate(154 286)"><tspan x="0" y="0">Editing case </tspan></text><text class="g" transform="translate(154 427)"><tspan x="0" y="0">Basic settings</tspan></text><text class="g" transform="translate(154 863)"><tspan x="0" y="0">Characters settings</tspan></text><text class="g" transform="translate(154 1399)"><tspan x="0" y="0">Case settings</tspan></text><text class="h" transform="translate(153 334)"><tspan x="0" y="0">Edit your clinical cases. </tspan></text><text class="i" transform="translate(215 1500.125)"><tspan x="0" y="22">Introductoin</tspan></text><text class="i" transform="translate(215 965.125)"><tspan x="0" y="22">Characters</tspan></text><text class="j" transform="translate(215 508.125)"><tspan x="0" y="16">Case name</tspan></text><text class="j" transform="translate(1068 684.125)"><tspan x="0" y="16">Author </tspan></text><text class="j" transform="translate(1068 714.125)"><tspan x="0" y="16">Institution</tspan></text><text class="j" transform="translate(1068 744.125)"><tspan x="0" y="16">Country</tspan></text><text class="j" transform="translate(1068 508.125)"><tspan x="0" y="16">Main complain</tspan></text><text class="j" transform="translate(1068 598.125)"><tspan x="0" y="16">Clinical setting</tspan></text><text class="j" transform="translate(1068 553.125)"><tspan x="0" y="16">Speciality</tspan></text><text class="j" transform="translate(1068 652.125)"><tspan x="0" y="16">Status</tspan></text><text class="i" transform="translate(215 2166.125)"><tspan x="0" y="22">Challenge 1</tspan></text><text class="h" transform="translate(214 1532)"><tspan x="0" y="16">How the player is been introduced </tspan><tspan x="0" y="37">to this case.</tspan></text><text class="h" transform="translate(214 997)"><tspan x="0" y="16">Setting cases&apos;s characters.</tspan></text><text class="i" transform="translate(581 1125)"><tspan x="0" y="22">Agnes</tspan></text><text class="i" transform="translate(856 1125)"><tspan x="0" y="22">Harry</tspan></text><text class="h" transform="translate(581 1154)"><tspan x="0" y="16">Nurse</tspan></text><text class="h" transform="translate(856 1154)"><tspan x="0" y="16">Supervisor</tspan></text><text class="j" transform="translate(214 566)"><tspan x="0" y="16">Description</tspan></text><text class="h" transform="translate(214 2198)"><tspan x="0" y="16">Man, 51 years old, present to an </tspan><tspan x="0" y="37">emergency department complaining of </tspan><tspan x="0" y="58">chest pain.</tspan></text><g class="k" transform="translate(913 1818)"><path class="l" d="M5,0H89a5,5,0,0,1,5,5V32a5,5,0,0,1-5,5H5a5,5,0,0,1-5-5V5A5,5,0,0,1,5,0Z"/><text class="m" transform="translate(47 26)"><tspan x="-29.912" y="0">+ ADD</tspan></text></g><g class="k" transform="translate(640 1591)"><path class="l" d="M5,0H89a5,5,0,0,1,5,5V32a5,5,0,0,1-5,5H5a5,5,0,0,1-5-5V5A5,5,0,0,1,5,0Z"/><text class="m" transform="translate(47 26)"><tspan x="-29.912" y="0">+ ADD</tspan></text></g><g class="d" transform="translate(427 502)"><rect class="x" width="518" height="38" rx="5"/><rect class="a" x="1" y="1" width="516" height="36" rx="4"/></g><g class="d" transform="translate(1219 502)"><rect class="x" width="518" height="38" rx="5"/><rect class="a" x="1" y="1" width="516" height="36" rx="4"/></g><g class="d" transform="translate(1219 592)"><rect class="x" width="518" height="38" rx="5"/><rect class="a" x="1" y="1" width="516" height="36" rx="4"/></g><g class="d" transform="translate(1219 547)"><rect class="x" width="518" height="38" rx="5"/><rect class="a" x="1" y="1" width="516" height="36" rx="4"/></g><g class="d" transform="translate(427 560)"><rect class="x" width="518" height="152" rx="5"/><rect class="a" x="1" y="1" width="516" height="150" rx="4"/></g><g transform="translate(0 -38)"><rect class="l" width="114" height="26" rx="5" transform="translate(1227 546)"/><rect class="e" width="12" height="12" rx="3" transform="translate(1322 554)"/><text class="n" transform="translate(1233 565.124)"><tspan x="0" y="0">chest pain</tspan></text><text class="o" transform="translate(1325 563.124)"><tspan x="0" y="0">x</tspan></text></g><g transform="translate(0 52)"><rect class="l" width="163" height="26" rx="5" transform="translate(1227 546)"/><text class="n" transform="translate(1233 565.124)"><tspan x="0" y="0">Emergency room</tspan></text><rect class="e" width="12" height="12" rx="3" transform="translate(1372 554)"/><text class="o" transform="translate(1375 563.124)"><tspan x="0" y="0">x</tspan></text></g><g transform="translate(0 7)"><rect class="l" width="198" height="26" rx="5" transform="translate(1227 546)"/><rect class="e" width="12" height="12" rx="3" transform="translate(1406 554)"/><text class="n" transform="translate(1233 565.124)"><tspan x="0" y="0">Emergency medicine</tspan></text><text class="o" transform="translate(1409 563.124)"><tspan x="0" y="0">x</tspan></text></g><g transform="translate(124 -38)"><rect class="l" width="146" height="26" rx="5" transform="translate(1227 546)"/><text class="n" transform="translate(1233 565.124)"><tspan x="0" y="0">other category</tspan></text><rect class="e" width="12" height="12" rx="3" transform="translate(1354 554)"/><text class="o" transform="translate(1357 563.124)"><tspan x="0" y="0">x</tspan></text></g><text class="h" transform="translate(1249 671.125)"><tspan x="0" y="0">Published</tspan></text><text class="h" transform="translate(1227 700.125)"><tspan x="0" y="0">Tiago Grangeia</tspan></text><text class="h" transform="translate(1227 730.125)"><tspan x="0" y="0">Unicamp</tspan></text><text class="h" transform="translate(1227 760.125)"><tspan x="0" y="0">Brazil</tspan></text><text class="h" transform="translate(1410 671.125)"><tspan x="0" y="0">Draft</tspan></text><g class="p" transform="translate(1386 659)"><circle class="x" cx="6.5" cy="6.5" r="6.5"/><circle class="a" cx="6.5" cy="6.5" r="6"/></g><g class="b" transform="translate(1225 659)"><circle class="x" cx="6.5" cy="6.5" r="6.5"/><circle class="a" cx="6.5" cy="6.5" r="6"/></g><text class="i" transform="translate(442 506.125)"><tspan x="0" y="22">Challenge 13</tspan></text><text class="h" transform="translate(442 573)"><tspan x="0" y="16">Woman, 23 years old, present to an emergency department </tspan><tspan x="0" y="37">complaining of chest pain.</tspan></text><text class="h" transform="translate(442 718)"><tspan x="0" y="16">Esse texto é o que aparece para o aluno antes de ele entrar </tspan><tspan x="0" y="37">no caso . </tspan></text><g class="q" transform="translate(15049 13427.476)"><image width="550.618" height="309.723" transform="translate(-14509.032 -12559.967)" xlink:href="Editing-image.png"/></g><g class="q" transform="translate(15324 13427.476)"><rect class="r" width="550.618" height="309.723" transform="translate(-14509.032 -12559.967)"/></g><line class="s" x2="244" transform="translate(563.5 1115)"/><line class="s" x2="244" transform="translate(838.5 1115)"/><rect class="l" width="153" height="27" rx="5" transform="translate(248 144)"/><rect class="l" width="70" height="27" rx="5" transform="translate(153 144)"/><text class="t" transform="translate(166 150)"><tspan x="1" y="13" xml:space="preserve">HOME      </tspan></text><text class="u" transform="translate(231 150)"><tspan x="0" y="13">&gt;</tspan></text><text class="t" transform="translate(256 150)"><tspan x="19.104" y="13">EDITING CASE</tspan></text><g transform="translate(0 79)"><g class="v" transform="translate(685.284 1117)"><path class="l" d="M5.836,0H103.88c3.223,0,5.836,2.239,5.836,5V32c0,2.761-2.613,5-5.836,5H5.836C2.613,37,0,34.761,0,32V5C0,2.239,2.613,0,5.836,0Z"/><text class="m" transform="translate(55 26)"><tspan x="-39.448" y="0">DELETE</tspan></text></g><g class="k" transform="translate(577 1117)"><path class="l" d="M5,0H89a5,5,0,0,1,5,5V32a5,5,0,0,1-5,5H5a5,5,0,0,1-5-5V5A5,5,0,0,1,5,0Z"/><text class="m" transform="translate(47 26)"><tspan x="-22.778" y="0">EDIT</tspan></text></g></g><g transform="translate(275 79)"><g class="v" transform="translate(685.284 1117)"><path class="l" d="M5.836,0H103.88c3.223,0,5.836,2.239,5.836,5V32c0,2.761-2.613,5-5.836,5H5.836C2.613,37,0,34.761,0,32V5C0,2.239,2.613,0,5.836,0Z"/><text class="m" transform="translate(55 26)"><tspan x="-39.448" y="0">DELETE</tspan></text></g><g class="k" transform="translate(577 1117)"><path class="l" d="M5,0H89a5,5,0,0,1,5,5V32a5,5,0,0,1-5,5H5a5,5,0,0,1-5-5V5A5,5,0,0,1,5,0Z"/><text class="m" transform="translate(47 26)"><tspan x="-22.778" y="0">EDIT</tspan></text></g></g><g class="d" transform="translate(1112 924)"><rect class="x" width="245" height="323.612" rx="5"/><rect class="a" x="1" y="1" width="243" height="321.612" rx="4"/></g><g class="k" transform="translate(1188 1122)"><path class="l" d="M5,0H89a5,5,0,0,1,5,5V32a5,5,0,0,1-5,5H5a5,5,0,0,1-5-5V5A5,5,0,0,1,5,0Z"/><text class="m" transform="translate(47 26)"><tspan x="-29.912" y="0">+ ADD</tspan></text></g><g class="d" transform="translate(1145 1020)"><rect class="x" width="178" height="38" rx="5"/><rect class="a" x="1" y="1" width="176" height="36" rx="4"/></g><text class="h" transform="translate(1155 1046.125)"><tspan x="0" y="0">Anges (Nurse)</tspan></text><text class="h" transform="translate(1145 1016.125)"><tspan x="0" y="0">Choose one</tspan></text><text class="h" transform="translate(1219 1098.125)"><tspan x="0" y="0">OR</tspan></text><path class="l" d="M4.827,4.936,9.616,0V9.616H0Z" transform="translate(1305.122 1031.078) rotate(45)"/><line class="s" y2="37" transform="translate(1290.5 1020.5)"/><text class="w" transform="translate(1386 1115)"><tspan x="0" y="16" xml:space="preserve">O botão +ADD  deve ser </tspan><tspan x="0" y="37">apresentado somente para </tspan><tspan x="0" y="58">administradores do sistema. </tspan></text></g></svg>