<svg xmlns="http://www.w3.org/2000/svg" xmlns:xlink="http://www.w3.org/1999/xlink" width="848" height="1050" viewBox="0 0 848 1050"><defs><style>.a{fill:none;}.b{clip-path:url(#d);}.c,.e,.i,.l{fill:#fff;}.c,.h{stroke:#707070;}.d,.f{fill:gray;font-size:18px;}.d,.l{font-family:Arial-BoldMT, Arial;font-weight:700;}.e{stroke:#a6a6a6;stroke-width:2px;}.f{font-family:ArialMT, Arial;}.g{clip-path:url(#a);}.h,.k{fill:#a6a6a6;}.j{clip-path:url(#b);}.l{font-size:20px;}.m{stroke:none;}</style><clipPath id="a"><rect class="a" width="107" height="38"/></clipPath><clipPath id="b"><rect class="a" width="94" height="37"/></clipPath><clipPath id="d"><rect width="848" height="1050"/></clipPath></defs><g id="c" class="b"><g class="c"><rect class="m" width="808" height="941.794" rx="5"/><rect class="a" x="0.5" y="0.5" width="807" height="940.794" rx="4.5"/></g><text class="d" transform="translate(30 205)"><tspan x="0" y="16">Introduction</tspan></text><text class="d" transform="translate(30 422)"><tspan x="0" y="16">Patient</tspan></text><text class="d" transform="translate(30 659)"><tspan x="0" y="16">Physical examination</tspan></text><g class="e" transform="translate(30 237)"><rect class="m" width="753" height="99" rx="5"/><rect class="a" x="1" y="1" width="751" height="97" rx="4"/></g><g class="e" transform="translate(30 454)"><rect class="m" width="753" height="117" rx="5"/><rect class="a" x="1" y="1" width="751" height="115" rx="4"/></g><g class="e" transform="translate(30 691)"><rect class="m" width="753" height="99" rx="5"/><rect class="a" x="1" y="1" width="751" height="97" rx="4"/></g><text class="f" transform="translate(45 255)"><tspan x="0" y="16" xml:space="preserve">Doctor, we have a man,  51 years old  , who entered the emergency department </tspan><tspan x="0" y="37" xml:space="preserve">reporting  chest pain . His vital signs are ABP144x92mmHG; HR 78 bpm; RR 21 rpm; </tspan><tspan x="0" y="58">Temperature 37 ºC; O2 Sat 98%.</tspan></text><text class="f" transform="translate(45 472)"><tspan x="0" y="16" xml:space="preserve">Doctor, I am feeling chest pain since yesterday. The  pain is continuous  and  is located </tspan><tspan x="0" y="37" xml:space="preserve">just in the middle of my chest, worsening when I breathe  and  when I lay down on my </tspan><tspan x="0" y="58" xml:space="preserve">bed. I suffer from arterial hypertension  and  smoke 20 cigarettes every day. My father </tspan><tspan x="0" y="79">had a “heart attack” at my age and I am very worried about it.</tspan></text><text class="f" transform="translate(45 709)"><tspan x="0" y="16">Cardiac and pulmonary auscultation are normal; chest pain does not worse with </tspan><tspan x="0" y="37">palpation of the thorax; there is no jugular stasis nor lower limb edema.</tspan></text><g class="g" transform="translate(571 886)"><g class="e"><rect class="m" width="107" height="38" rx="5"/><rect class="a" x="1" y="1" width="105" height="36" rx="4"/></g><text class="f" transform="translate(15 26.124)"><tspan x="0" y="0">CANCEL</tspan></text></g><g transform="translate(-488 -234)"><g class="e" transform="translate(518 578)"><rect class="m" width="229" height="38" rx="5"/><rect class="a" x="1" y="1" width="227" height="36" rx="4"/></g><text class="f" transform="translate(533 604.124)"><tspan x="0" y="0">NEGATIVE INFLUENCE</tspan></text></g><g transform="translate(-488 3)"><g class="e" transform="translate(518 578)"><rect class="m" width="229" height="38" rx="5"/><rect class="a" x="1" y="1" width="227" height="36" rx="4"/></g><text class="f" transform="translate(533 604.124)"><tspan x="0" y="0">NEGATIVE INFLUENCE</tspan></text></g><g transform="translate(-488 220)"><g class="e" transform="translate(518 578)"><rect class="m" width="229" height="38" rx="5"/><rect class="a" x="1" y="1" width="227" height="36" rx="4"/></g><text class="f" transform="translate(533 604.124)"><tspan x="0" y="0">NEGATIVE INFLUENCE</tspan></text></g><g transform="translate(-226 -234)"><g class="e" transform="translate(518 578)"><rect class="m" width="229" height="38" rx="5"/><rect class="a" x="1" y="1" width="227" height="36" rx="4"/></g><text class="f" transform="translate(533 604.124)"><tspan x="0" y="0">NEUTRAL INFLUENCE</tspan></text></g><g transform="translate(-226 3)"><g class="e" transform="translate(518 578)"><rect class="m" width="229" height="38" rx="5"/><rect class="a" x="1" y="1" width="227" height="36" rx="4"/></g><text class="f" transform="translate(533 604.124)"><tspan x="0" y="0">NEUTRAL INFLUENCE</tspan></text></g><g transform="translate(-226 220)"><g class="e" transform="translate(518 578)"><rect class="m" width="229" height="38" rx="5"/><rect class="a" x="1" y="1" width="227" height="36" rx="4"/></g><text class="f" transform="translate(533 604.124)"><tspan x="0" y="0">NEUTRAL INFLUENCE</tspan></text></g><g transform="translate(36 -234)"><g class="e" transform="translate(518 578)"><rect class="m" width="229" height="38" rx="5"/><rect class="a" x="1" y="1" width="227" height="36" rx="4"/></g><text class="f" transform="translate(533 604.124)"><tspan x="0" y="0">POSITIVE INFLUENCE</tspan></text></g><g transform="translate(36 3)"><g class="e" transform="translate(518 578)"><rect class="m" width="229" height="38" rx="5"/><rect class="a" x="1" y="1" width="227" height="36" rx="4"/></g><text class="f" transform="translate(533 604.124)"><tspan x="0" y="0">POSITIVE INFLUENCE</tspan></text></g><g transform="translate(36 220)"><g class="e" transform="translate(518 578)"><rect class="m" width="229" height="38" rx="5"/><rect class="a" x="1" y="1" width="227" height="36" rx="4"/></g><text class="f" transform="translate(533 604.124)"><tspan x="0" y="0">POSITIVE INFLUENCE</tspan></text></g><g transform="translate(-359 -293)"><g class="h" transform="translate(1167 523)"><rect class="m" width="40" height="40" rx="5"/><rect class="a" x="0.5" y="0.5" width="39" height="39" rx="4.5"/></g><path class="i" d="M22.786,4.811,21.3,3.322a1.106,1.106,0,0,0-1.566,0L9.777,13.277l3.055,3.055,9.954-9.954A1.106,1.106,0,0,0,22.786,4.811ZM7.555,15.221a3.328,3.328,0,0,0-3.333,3.333A2.254,2.254,0,0,1,2,20.776,5.748,5.748,0,0,0,6.444,23a4.443,4.443,0,0,0,4.444-4.444A3.328,3.328,0,0,0,7.555,15.221Z" transform="translate(1174 530.002)"/></g><g class="j" transform="translate(690 886)"><path class="k" d="M5,0H89a5,5,0,0,1,5,5V32a5,5,0,0,1-5,5H5a5,5,0,0,1-5-5V5A5,5,0,0,1,5,0Z"/><text class="l" transform="translate(47 26)"><tspan x="-26.489" y="0">SAVE</tspan></text></g><text class="d" transform="translate(27 25)"><tspan x="0" y="16">Description</tspan></text><text class="f" transform="translate(27 186)"><tspan x="0" y="0">Select some characteristics and indicate how it influences the diagnosis:</tspan></text><text class="f" transform="translate(27 61)"><tspan x="0" y="16">Let&apos;s check out your hypotesis. Highlight in green the findings that corroborate your hypotesis; </tspan><tspan x="0" y="37">in blue those that are neutral; and in red the ones speaking against your hypotesis. </tspan></text></g></svg>