<svg xmlns="http://www.w3.org/2000/svg" xmlns:xlink="http://www.w3.org/1999/xlink" width="1920" height="1387" viewBox="0 0 1920 1387"><defs><style>.a,.d,.i,.m,.r{fill:none;}.b{clip-path:url(#d);}.c,.h,.o,.p,.u{fill:#fff;}.c,.m{stroke:#707070;}.e,.f,.n,.v{fill:#a6a6a6;}.e,.g{font-size:20px;}.e,.g,.t{font-family:Arial-BoldMT, Arial;font-weight:700;}.g{fill:#848484;}.i{stroke:#fff;}.j,.q,.t{fill:gray;}.j{font-size:32px;}.j,.o,.q,.u,.v{font-family:ArialMT, Arial;}.k{clip-path:url(#a);}.l{fill-rule:evenodd;opacity:0.54;}.n{stroke:gray;}.n,.p{stroke-width:2px;}.o,.q{font-size:18px;}.p{stroke:#a6a6a6;}.r{stroke:#00ffe5;stroke-width:5px;}.s{fill:#ba2027;}.t{font-size:56px;}.u,.v{font-size:14px;}.w{fill:#0d4a71;}.x,.y{stroke:none;}.y{fill:#707070;}.z{fill:#f2f2f2;}</style><clipPath id="a"><rect class="a" width="24" height="24"/></clipPath><clipPath id="d"><rect width="1920" height="1387"/></clipPath></defs><g id="c" class="b"><rect class="z" width="1920" height="1387"/><g class="c" transform="translate(564 377)"><rect class="x" width="1203" height="88" rx="5"/><rect class="a" x="0.5" y="0.5" width="1202" height="87" rx="4.5"/></g><g transform="translate(-61 102)"><g transform="translate(472 -102)"><g class="d" transform="translate(564 403)"><path class="x" d="M5.691,0h95.617C104.452,0,107,2.239,107,5V32c0,2.761-2.548,5-5.691,5H5.691C2.548,37,0,34.761,0,32V5C0,2.239,2.548,0,5.691,0Z"/><path class="y" d="M 5.691490173339844 1 C 3.104591369628906 1 1.000007629394531 2.794384002685547 1.000007629394531 5 L 1.000007629394531 32 C 1.000007629394531 34.20561599731445 3.104591369628906 36 5.691490173339844 36 L 101.3085174560547 36 C 103.8954162597656 36 106 34.20561599731445 106 32 L 106 5 C 106 2.794384002685547 103.8954162597656 1 101.3085174560547 1 L 5.691490173339844 1 M 5.691490173339844 0 L 101.3085174560547 0 C 104.4518356323242 0 107 2.238571166992188 107 5 L 107 32 C 107 34.76142883300781 104.4518356323242 37 101.3085174560547 37 L 5.691490173339844 37 C 2.548164367675781 37 7.62939453125e-06 34.76142883300781 7.62939453125e-06 32 L 7.62939453125e-06 5 C 7.62939453125e-06 2.238571166992188 2.548164367675781 0 5.691490173339844 0 Z"/></g><text class="e" transform="translate(618 429)"><tspan x="-22.778" y="0">EDIT</tspan></text></g><g transform="translate(472 -102)"><path class="f" d="M5.691,0h95.617C104.452,0,107,2.239,107,5V32c0,2.761-2.548,5-5.691,5H5.691C2.548,37,0,34.761,0,32V5C0,2.239,2.548,0,5.691,0Z" transform="translate(427 403)"/><text class="g" transform="translate(481 429)"><tspan x="-25.752" y="0">PLAY</tspan></text></g></g><rect class="h" width="1920" height="100"/><g class="c" transform="translate(153 503)"><rect class="x" width="381" height="762" rx="5"/><rect class="a" x="0.5" y="0.5" width="380" height="761" rx="4.5"/></g><line class="i" y2="141" transform="translate(1016 673)"/><text class="j" transform="translate(586 432)"><tspan x="0" y="0">Preview mode</tspan></text><g class="k" transform="translate(1693 410)"><rect class="a" width="24" height="24"/><path class="l" d="M12,4,10.6,5.4,16.2,11H4v2H16.2l-5.6,5.6L12,20l8-8Z"/></g><g class="k" transform="translate(1561 410)"><rect class="a" width="24" height="24"/><path class="l" d="M20,11H7.8l5.6-5.6L12,4,4,12l8,8,1.4-1.4L7.8,13H20V11Z"/></g><g transform="translate(0 121)"><line class="m" y2="581" transform="translate(343.5 472.5)"/><g transform="translate(0 -82)"><g class="n" transform="translate(273 495)"><rect class="x" width="141" height="60" rx="5"/><rect class="a" x="1" y="1" width="139" height="58" rx="4"/></g><text class="o" transform="translate(344 531)"><tspan x="-47.03" y="0">Introduction</tspan></text></g><g transform="translate(0 -2)"><g class="p" transform="translate(273 495)"><rect class="x" width="141" height="60" rx="5"/><rect class="a" x="1" y="1" width="139" height="58" rx="4"/></g><text class="q" transform="translate(344 531)"><tspan x="-28.02" y="0">Patient</tspan></text></g><g transform="translate(0 158)"><g class="p" transform="translate(273 495)"><rect class="x" width="141" height="60" rx="5"/><rect class="a" x="1" y="1" width="139" height="58" rx="4"/></g><text class="q" transform="translate(344 521)"><tspan x="-40.025" y="0">Generate </tspan><tspan x="-43.027" y="21">hypothesis</tspan></text></g><g transform="translate(0 478)"><g class="p" transform="translate(273 495)"><rect class="x" width="141" height="60" rx="5"/><rect class="a" x="1" y="1" width="139" height="58" rx="4"/></g><text class="q" transform="translate(344 521)"><tspan x="-40.025" y="0">Generate </tspan><tspan x="-43.027" y="21">hypothesis</tspan></text></g><g transform="translate(0 238)"><g class="p" transform="translate(273 495)"><rect class="x" width="141" height="60" rx="5"/><rect class="a" x="1" y="1" width="139" height="58" rx="4"/></g><text class="q" transform="translate(344 531)"><tspan x="-57.032" y="0">Text highligths</tspan></text></g><g transform="translate(0 558)"><g class="p" transform="translate(273 495)"><rect class="x" width="141" height="60" rx="5"/><rect class="a" x="1" y="1" width="139" height="58" rx="4"/></g><text class="q" transform="translate(344 531)"><tspan x="-39.524" y="0">Feedback</tspan></text></g><g transform="translate(0 318)"><g class="p" transform="translate(273 495)"><rect class="x" width="141" height="60" rx="5"/><rect class="a" x="1" y="1" width="139" height="58" rx="4"/></g><text class="q" transform="translate(344 531)"><tspan x="-19.006" y="0">EKG</tspan></text></g><g transform="translate(-93 78)"><g class="p" transform="translate(273 495)"><rect class="x" width="141" height="60" rx="5"/><rect class="a" x="1" y="1" width="139" height="58" rx="4"/></g><text class="q" transform="translate(344 531)"><tspan x="-52.277" y="0">+ information</tspan></text></g><g transform="translate(-93 398)"><g class="p" transform="translate(273 495)"><rect class="x" width="141" height="60" rx="5"/><rect class="a" x="1" y="1" width="139" height="58" rx="4"/></g><text class="q" transform="translate(344 531)"><tspan x="-52.277" y="0">+ information</tspan></text></g><g transform="translate(94 78)"><g class="p" transform="translate(273 495)"><rect class="x" width="141" height="60" rx="5"/><rect class="a" x="1" y="1" width="139" height="58" rx="4"/></g><text class="q" transform="translate(344 531)"><tspan x="-43.018" y="0">Supervisor</tspan></text></g><g transform="translate(94 398)"><g class="p" transform="translate(273 495)"><rect class="x" width="141" height="60" rx="5"/><rect class="a" x="1" y="1" width="139" height="58" rx="4"/></g><text class="q" transform="translate(344 531)"><tspan x="-43.018" y="0">Supervisor</tspan></text></g><line class="m" x1="39" y2="20" transform="translate(251 553)"/><line class="m" x1="39" y2="20" transform="translate(251 873)"/><line class="m" x1="39" y1="20" transform="translate(251 633)"/><line class="m" x1="39" y1="20" transform="translate(251 953)"/><line class="m" x2="39" y2="20" transform="translate(397 553)"/><line class="m" x2="39" y2="20" transform="translate(397 873)"/><line class="m" y1="20" x2="39" transform="translate(397 633)"/><line class="m" y1="20" x2="39" transform="translate(397 953)"/><line class="m" x2="46" transform="translate(321.5 603.5)"/><line class="m" x2="46" transform="translate(321.5 922.5)"/></g><g class="r" transform="translate(1000 649.5)"><rect class="x" width="441" height="183"/><rect class="a" x="2.5" y="2.5" width="436" height="178"/></g><g class="r" transform="translate(1235 1067.5)"><rect class="x" width="411" height="92"/><rect class="a" x="2.5" y="2.5" width="406" height="87"/></g><g class="r" transform="translate(563 482.5)"><rect class="x" width="1204" height="633"/><rect class="a" x="2.5" y="2.5" width="1199" height="628"/></g><rect class="s" width="381" height="59" rx="29.5" transform="translate(1249 1085)"/><g class="c" transform="translate(153 377)"><rect class="x" width="381" height="88" rx="5"/><rect class="a" x="0.5" y="0.5" width="380" height="87" rx="4.5"/></g><g transform="translate(0 -104)"><g class="p" transform="translate(273 495)"><rect class="x" width="141" height="60" rx="5"/><rect class="a" x="1" y="1" width="139" height="58" rx="4"/></g><text class="q" transform="translate(344 531)"><tspan x="-55.525" y="0">Basic settings</tspan></text></g><text class="t" transform="translate(154 286)"><tspan x="0" y="0">Create a new case</tspan></text><text class="q" transform="translate(153 334)"><tspan x="0" y="0">Create a new case. </tspan></text><rect class="f" width="75" height="27" rx="5" transform="translate(248 144)"/><rect class="f" width="70" height="27" rx="5" transform="translate(153 144)"/><text class="u" transform="translate(166 150)"><tspan x="1" y="13" xml:space="preserve">HOME      </tspan></text><text class="v" transform="translate(231 150)"><tspan x="0" y="13">&gt;</tspan></text><text class="u" transform="translate(256 150)"><tspan x="0.126" y="13">CREATE</tspan></text><g class="r" transform="translate(564 503.5)"><rect class="x" width="655" height="625"/><rect class="a" x="2.5" y="2.5" width="650" height="620"/></g><rect class="w" width="244" height="47" rx="23.5" transform="translate(772 1092)"/></g></svg>