<svg xmlns="http://www.w3.org/2000/svg" xmlns:xlink="http://www.w3.org/1999/xlink" width="848" height="1050" viewBox="0 0 848 1050"><defs><style>.a{fill:none;}.b{clip-path:url(#d);}.c,.e,.i,.l,.p{fill:#fff;}.c,.h{stroke:#707070;}.d,.g{fill:gray;}.d,.g,.p{font-size:18px;}.d,.l{font-family:Arial-BoldMT, Arial;font-weight:700;}.e{stroke:#a6a6a6;stroke-width:2px;}.f{clip-path:url(#a);}.g,.p{font-family:ArialMT, Arial;}.h,.k{fill:#a6a6a6;}.j{clip-path:url(#b);}.l{font-size:20px;}.m{fill:#14b103;stroke:#51fb57;}.n{fill:#296bdc;stroke:#00d4f6;}.o{fill:#dc4e29;stroke:#ff796a;}.q{stroke:none;}</style><clipPath id="a"><rect class="a" width="107" height="38"/></clipPath><clipPath id="b"><rect class="a" width="94" height="37"/></clipPath><clipPath id="d"><rect width="848" height="1050"/></clipPath></defs><g id="c" class="b"><g class="c"><rect class="q" width="808" height="941.794" rx="5"/><rect class="a" x="0.5" y="0.5" width="807" height="940.794" rx="4.5"/></g><text class="d" transform="translate(30 204)"><tspan x="0" y="16">Introduction</tspan></text><text class="d" transform="translate(30 421)"><tspan x="0" y="16">Patient</tspan></text><text class="d" transform="translate(30 658)"><tspan x="0" y="16">Physical examination</tspan></text><g class="e" transform="translate(30 236)"><rect class="q" width="753" height="99" rx="5"/><rect class="a" x="1" y="1" width="751" height="97" rx="4"/></g><g class="e" transform="translate(30 453)"><rect class="q" width="753" height="117" rx="5"/><rect class="a" x="1" y="1" width="751" height="115" rx="4"/></g><g class="e" transform="translate(30 690)"><rect class="q" width="753" height="99" rx="5"/><rect class="a" x="1" y="1" width="751" height="97" rx="4"/></g><g class="f" transform="translate(571 886)"><g class="e"><rect class="q" width="107" height="38" rx="5"/><rect class="a" x="1" y="1" width="105" height="36" rx="4"/></g><text class="g" transform="translate(15 26.124)"><tspan x="0" y="0">CANCEL</tspan></text></g><g transform="translate(-488 -235)"><g class="e" transform="translate(518 578)"><rect class="q" width="229" height="38" rx="5"/><rect class="a" x="1" y="1" width="227" height="36" rx="4"/></g><text class="g" transform="translate(533 604.124)"><tspan x="0" y="0">NEGATIVE INFLUENCE</tspan></text></g><g transform="translate(-488 2)"><g class="e" transform="translate(518 578)"><rect class="q" width="229" height="38" rx="5"/><rect class="a" x="1" y="1" width="227" height="36" rx="4"/></g><text class="g" transform="translate(533 604.124)"><tspan x="0" y="0">NEGATIVE INFLUENCE</tspan></text></g><g transform="translate(-488 219)"><g class="e" transform="translate(518 578)"><rect class="q" width="229" height="38" rx="5"/><rect class="a" x="1" y="1" width="227" height="36" rx="4"/></g><text class="g" transform="translate(533 604.124)"><tspan x="0" y="0">NEGATIVE INFLUENCE</tspan></text></g><g transform="translate(-226 -235)"><g class="e" transform="translate(518 578)"><rect class="q" width="229" height="38" rx="5"/><rect class="a" x="1" y="1" width="227" height="36" rx="4"/></g><text class="g" transform="translate(533 604.124)"><tspan x="0" y="0">NEUTRAL INFLUENCE</tspan></text></g><g transform="translate(-226 2)"><g class="e" transform="translate(518 578)"><rect class="q" width="229" height="38" rx="5"/><rect class="a" x="1" y="1" width="227" height="36" rx="4"/></g><text class="g" transform="translate(533 604.124)"><tspan x="0" y="0">NEUTRAL INFLUENCE</tspan></text></g><g transform="translate(-226 219)"><g class="e" transform="translate(518 578)"><rect class="q" width="229" height="38" rx="5"/><rect class="a" x="1" y="1" width="227" height="36" rx="4"/></g><text class="g" transform="translate(533 604.124)"><tspan x="0" y="0">NEUTRAL INFLUENCE</tspan></text></g><g transform="translate(36 -235)"><g class="e" transform="translate(518 578)"><rect class="q" width="229" height="38" rx="5"/><rect class="a" x="1" y="1" width="227" height="36" rx="4"/></g><text class="g" transform="translate(533 604.124)"><tspan x="0" y="0">POSITIVE INFLUENCE</tspan></text></g><g transform="translate(36 2)"><g class="e" transform="translate(518 578)"><rect class="q" width="229" height="38" rx="5"/><rect class="a" x="1" y="1" width="227" height="36" rx="4"/></g><text class="g" transform="translate(533 604.124)"><tspan x="0" y="0">POSITIVE INFLUENCE</tspan></text></g><g transform="translate(36 219)"><g class="e" transform="translate(518 578)"><rect class="q" width="229" height="38" rx="5"/><rect class="a" x="1" y="1" width="227" height="36" rx="4"/></g><text class="g" transform="translate(533 604.124)"><tspan x="0" y="0">POSITIVE INFLUENCE</tspan></text></g><g transform="translate(-359 -293)"><g class="h" transform="translate(1167 523)"><rect class="q" width="40" height="40" rx="5"/><rect class="a" x="0.5" y="0.5" width="39" height="39" rx="4.5"/></g><path class="i" d="M22.786,4.811,21.3,3.322a1.106,1.106,0,0,0-1.566,0L9.777,13.277l3.055,3.055,9.954-9.954A1.106,1.106,0,0,0,22.786,4.811ZM7.555,15.221a3.328,3.328,0,0,0-3.333,3.333A2.254,2.254,0,0,1,2,20.776,5.748,5.748,0,0,0,6.444,23a4.443,4.443,0,0,0,4.444-4.444A3.328,3.328,0,0,0,7.555,15.221Z" transform="translate(1174 530.002)"/></g><g class="j" transform="translate(690 886)"><path class="k" d="M5,0H89a5,5,0,0,1,5,5V32a5,5,0,0,1-5,5H5a5,5,0,0,1-5-5V5A5,5,0,0,1,5,0Z"/><text class="l" transform="translate(47 26)"><tspan x="-26.489" y="0">SAVE</tspan></text></g><text class="g" transform="translate(27 185)"><tspan x="0" y="0">Select some characteristics and indicate how it influences the diagnosis:</tspan></text><g class="m" transform="translate(234 250)"><rect class="q" width="117" height="25" rx="12.5"/><rect class="a" x="0.5" y="0.5" width="116" height="24" rx="12"/></g><g class="m" transform="translate(117 273)"><rect class="q" width="95" height="25" rx="12.5"/><rect class="a" x="0.5" y="0.5" width="94" height="24" rx="12"/></g><g class="m" transform="translate(524 273)"><rect class="q" width="101" height="25" rx="12.5"/><rect class="a" x="0.5" y="0.5" width="100" height="24" rx="12"/></g><g class="m" transform="translate(461 468)"><rect class="q" width="156" height="25" rx="12.5"/><rect class="a" x="0.5" y="0.5" width="155" height="24" rx="12"/></g><g class="m" transform="translate(534 491)"><rect class="q" width="197" height="25" rx="12.5"/><rect class="a" x="0.5" y="0.5" width="196" height="24" rx="12"/></g><g class="m" transform="translate(181 511)"><rect class="q" width="170" height="25" rx="12.5"/><rect class="a" x="0.5" y="0.5" width="169" height="24" rx="12"/></g><g class="m" transform="translate(430 727)"><rect class="q" width="195" height="25" rx="12.5"/><rect class="a" x="0.5" y="0.5" width="194" height="24" rx="12"/></g><g class="m" transform="translate(42 704)"><rect class="q" width="394" height="25" rx="12.5"/><rect class="a" x="0.5" y="0.5" width="393" height="24" rx="12"/></g><g class="n" transform="translate(364 273)"><rect class="q" width="160" height="25" rx="12.5"/><rect class="a" x="0.5" y="0.5" width="159" height="24" rx="12"/></g><g class="n" transform="translate(37 296)"><rect class="q" width="160" height="25" rx="12.5"/><rect class="a" x="0.5" y="0.5" width="159" height="24" rx="12"/></g><g class="n" transform="translate(74 489)"><rect class="q" width="205" height="25" rx="12.5"/><rect class="a" x="0.5" y="0.5" width="204" height="24" rx="12"/></g><g class="n" transform="translate(37 532)"><rect class="q" width="169" height="25" rx="12.5"/><rect class="a" x="0.5" y="0.5" width="168" height="24" rx="12"/></g><g class="n" transform="translate(226 729)"><rect class="q" width="204" height="25" rx="12.5"/><rect class="a" x="0.5" y="0.5" width="203" height="24" rx="12"/></g><g class="o" transform="translate(625 273)"><rect class="q" width="97" height="25" rx="12.5"/><rect class="a" x="0.5" y="0.5" width="96" height="24" rx="12"/></g><g class="o" transform="translate(201 295)"><rect class="q" width="102" height="25" rx="12.5"/><rect class="a" x="0.5" y="0.5" width="101" height="24" rx="12"/></g><g class="o" transform="translate(430 704)"><rect class="q" width="256" height="25" rx="12.5"/><rect class="a" x="0.5" y="0.5" width="255" height="24" rx="12"/></g><g class="o" transform="translate(37 730)"><rect class="q" width="190" height="25" rx="12.5"/><rect class="a" x="0.5" y="0.5" width="189" height="24" rx="12"/></g><g class="o" transform="translate(279 491)"><rect class="q" width="225" height="25" rx="12.5"/><rect class="a" x="0.5" y="0.5" width="224" height="24" rx="12"/></g><g class="o" transform="translate(397 512)"><rect class="q" width="252" height="25" rx="12.5"/><rect class="a" x="0.5" y="0.5" width="251" height="24" rx="12"/></g><text class="p" transform="translate(45 708)"><tspan x="0" y="16">Cardiac and pulmonary auscultation are normal; chest pain does not worse with </tspan><tspan x="0" y="37">palpation of the thorax; there is no jugular stasis nor lower limb edema .</tspan></text><text class="g" transform="translate(45 471)"><tspan x="0" y="16" xml:space="preserve">Doctor, I am feeling chest pain since yesterday. The  </tspan><tspan class="i" y="16">pain is continuous</tspan><tspan y="16" xml:space="preserve">  and  is located </tspan><tspan x="0" y="37">just </tspan><tspan class="i" y="37">in the middle of my chest</tspan><tspan y="37">, </tspan><tspan class="i" y="37">worsening when I breathe</tspan><tspan y="37" xml:space="preserve">  and  </tspan><tspan class="i" y="37">when I lay down on my</tspan><tspan y="37"> </tspan><tspan x="0" y="58">bed. I suffer from </tspan><tspan class="i" y="58">arterial hypertension</tspan><tspan y="58" xml:space="preserve">  and  </tspan><tspan class="i" y="58">smoke 20 cigarettes every day.</tspan><tspan y="58" xml:space="preserve"> My father </tspan><tspan class="i" x="0" y="79">had a “heart attack”</tspan><tspan y="79" xml:space="preserve"> at my age and I am very worried about it.</tspan></text><text class="g" transform="translate(45 254)"><tspan x="0" y="16">Doctor, we have a man, </tspan><tspan class="i" y="16" xml:space="preserve"> 51 years old</tspan><tspan y="16" xml:space="preserve">  , who entered the emergency department </tspan><tspan x="0" y="37" xml:space="preserve">reporting  </tspan><tspan class="i" y="37">chest pain</tspan><tspan y="37" xml:space="preserve"> . His vital signs are </tspan><tspan class="i" y="37">ABP144x92mmHG; HR 78 bpm; RR 21 rpm; </tspan><tspan class="i" x="0" y="58">Temperature 37 ºC</tspan><tspan y="58">; </tspan><tspan class="i" y="58">O2 Sat 98%</tspan><tspan y="58">.</tspan></text><text class="d" transform="translate(27 25)"><tspan x="0" y="16">Description</tspan></text><text class="g" transform="translate(27 61)"><tspan x="0" y="16">Let&apos;s check out your hypotesis. Highlight in green the findings that corroborate your hypotesis; </tspan><tspan x="0" y="37">in blue those that are neutral; and in red the ones speaking against your hypotesis. </tspan></text></g></svg>