<svg xmlns="http://www.w3.org/2000/svg" xmlns:xlink="http://www.w3.org/1999/xlink" width="1920" height="1387" viewBox="0 0 1920 1387"><defs><style>.a,.e,.g,.l,.n,.o,.z{fill:#fff;}.a,.ab,.k{stroke:#707070;}.ab,.b,.k,.x{fill:none;}.c{clip-path:url(#m);}.d{clip-path:url(#a);}.ag,.f,.h,.m{fill:#a6a6a6;}.g,.h{font-size:14px;}.g,.h,.j,.n{font-family:ArialMT, Arial;}.i,.j,.p{fill:gray;}.i{font-size:56px;}.i,.p,.v{font-family:Arial-BoldMT, Arial;font-weight:700;}.j,.n,.p{font-size:18px;}.l{stroke:#a6a6a6;}.ab,.l,.m{stroke-width:2px;}.m{stroke:gray;}.q{clip-path:url(#b);}.r{fill:rgba(34,31,31,0.26);}.r,.u{fill-rule:evenodd;}.s{fill:#f1f1f1;stroke:rgba(0,0,0,0);stroke-width:0.5px;}.t{clip-path:url(#e);}.u{opacity:0.54;}.v,.w{fill:#707070;}.v,.z{font-size:20px;}.x{stroke:#00ffe5;stroke-width:5px;}.y{fill:#ba2027;}.aa,.z{font-family:SegoeUI, Segoe UI;}.aa{fill:#346e93;font-size:28px;}.ac,.ad{fill:#008265;}.ac{opacity:0.16;}.ae{fill:#6f6f6f;}.af,.ag{stroke:none;}.ah{fill:#f2f2f2;}.ai{filter:url(#j);}.aj{filter:url(#c);}</style><clipPath id="a"><rect class="a" width="1614" height="712" transform="translate(153 367)"/></clipPath><clipPath id="b"><rect class="b" width="40.25" height="26.5"/></clipPath><filter id="c" x="254.75" y="1338.75" width="26.5" height="26.5" filterUnits="userSpaceOnUse"><feOffset dy="2" input="SourceAlpha"/><feGaussianBlur stdDeviation="1" result="d"/><feFlood flood-opacity="0.239"/><feComposite operator="in" in2="d"/><feComposite in="SourceGraphic"/></filter><clipPath id="e"><rect class="b" width="24" height="24"/></clipPath><filter id="j" x="1491.75" y="395.75" width="26.5" height="26.5" filterUnits="userSpaceOnUse"><feOffset dy="2" input="SourceAlpha"/><feGaussianBlur stdDeviation="1" result="k"/><feFlood flood-opacity="0.239"/><feComposite operator="in" in2="k"/><feComposite in="SourceGraphic"/></filter><clipPath id="m"><rect width="1920" height="1387"/></clipPath></defs><g id="l" class="c"><rect class="ah" width="1920" height="1387"/><g class="d" transform="translate(137 99)"><image width="2029" height="1141" transform="translate(8 105)" xlink:href="Edit%20-%20Generate%20hypothesis%201-image.png"/></g><rect class="e" width="1920" height="100"/><rect class="f" width="153" height="27" rx="5" transform="translate(366 144)"/><rect class="f" width="70" height="27" rx="5" transform="translate(153 144)"/><text class="g" transform="translate(166 150)"><tspan x="1" y="13" xml:space="preserve">HOME      </tspan></text><text class="h" transform="translate(231 150)"><tspan x="0" y="13">&gt;</tspan></text><text class="h" transform="translate(349 150)"><tspan x="0" y="13">&gt;</tspan></text><rect class="f" width="90" height="27" rx="5" transform="translate(248 144)"/><text class="g" transform="translate(256 150)"><tspan x="11" y="13">DRAFTS</tspan></text><text class="i" transform="translate(153 286)"><tspan x="0" y="0">Edit case</tspan></text><text class="j" transform="translate(153 318)"><tspan x="0" y="16">Here&apos;s how your case will appear to students. You can also edit them. </tspan></text><rect class="f" width="153" height="27" rx="5" transform="translate(366 144)"/><text class="g" transform="translate(374 150)"><tspan x="31.675" y="13">EDIT CASE</tspan></text><g class="a" transform="translate(153 485)"><rect class="af" width="381" height="840" rx="5"/><rect class="b" x="0.5" y="0.5" width="380" height="839" rx="4.5"/></g><g transform="translate(0 19)"><line class="k" y1="20" x2="39" transform="translate(397 1086)"/><line class="k" y1="20" x2="39" transform="translate(397 746)"/><g transform="translate(102 199)"><g class="l" transform="translate(273 495)"><rect class="af" width="141" height="60" rx="5"/><rect class="b" x="1" y="1" width="139" height="58" rx="4"/></g><text class="j" transform="translate(344 531)"><tspan x="-43.018" y="0">Supervisor</tspan></text></g><g transform="translate(102 539)"><g class="l" transform="translate(273 495)"><rect class="af" width="141" height="60" rx="5"/><rect class="b" x="1" y="1" width="139" height="58" rx="4"/></g><text class="j" transform="translate(344 531)"><tspan x="-43.018" y="0">Supervisor</tspan></text></g><g transform="translate(98 195)"><g class="l" transform="translate(273 495)"><rect class="af" width="141" height="60" rx="5"/><rect class="b" x="1" y="1" width="139" height="58" rx="4"/></g><text class="j" transform="translate(344 531)"><tspan x="-43.018" y="0">Supervisor</tspan></text></g><g transform="translate(98 535)"><g class="l" transform="translate(273 495)"><rect class="af" width="141" height="60" rx="5"/><rect class="b" x="1" y="1" width="139" height="58" rx="4"/></g><text class="j" transform="translate(344 531)"><tspan x="-43.018" y="0">Supervisor</tspan></text></g><path class="k" d="M0,0V244.167" transform="translate(343.5 606.5)"/><path class="k" d="M0,0V194.47" transform="translate(343.5 953.5)"/><g transform="translate(0 11)"><g class="m" transform="translate(273 495)"><rect class="af" width="141" height="60" rx="5"/><rect class="b" x="1" y="1" width="139" height="58" rx="4"/></g><text class="n" transform="translate(344 531)"><tspan x="-47.03" y="0">Introduction</tspan></text></g><g transform="translate(0 111)"><g class="l" transform="translate(273 495)"><rect class="af" width="141" height="60" rx="5"/><rect class="b" x="1" y="1" width="139" height="58" rx="4"/></g><text class="j" transform="translate(344 531)"><tspan x="-28.02" y="0">Patient</tspan></text></g><g transform="translate(0 271)"><g class="m" transform="translate(273 495)"><rect class="af" width="141" height="60" rx="5"/><rect class="b" x="1" y="1" width="139" height="58" rx="4"/></g><text class="n" transform="translate(344 521)"><tspan x="-40.025" y="0">Generate </tspan><tspan x="-43.027" y="21">hypothesis</tspan></text></g><g transform="translate(0 611)"><g class="l" transform="translate(273 495)"><rect class="af" width="141" height="60" rx="5"/><rect class="b" x="1" y="1" width="139" height="58" rx="4"/></g><text class="j" transform="translate(344 521)"><tspan x="-40.025" y="0">Generate </tspan><tspan x="-43.027" y="21">hypothesis</tspan></text></g><g transform="translate(0 351)"><g class="l" transform="translate(273 495)"><rect class="af" width="141" height="60" rx="5"/><rect class="b" x="1" y="1" width="139" height="58" rx="4"/></g><text class="j" transform="translate(344 531)"><tspan x="-57.032" y="0">Text highligths</tspan></text></g><g transform="translate(0 711)"><g class="l" transform="translate(273 495)"><rect class="af" width="141" height="60" rx="5"/><rect class="b" x="1" y="1" width="139" height="58" rx="4"/></g><text class="j" transform="translate(344 531)"><tspan x="-39.524" y="0">Feedback</tspan></text></g><g transform="translate(0 451)"><g class="l" transform="translate(273 495)"><rect class="af" width="141" height="60" rx="5"/><rect class="b" x="1" y="1" width="139" height="58" rx="4"/></g><text class="j" transform="translate(344 531)"><tspan x="-19.006" y="0">EKG</tspan></text></g><g transform="translate(-93 191)"><g class="l" transform="translate(273 495)"><rect class="af" width="141" height="60" rx="5"/><rect class="b" x="1" y="1" width="139" height="58" rx="4"/></g><text class="j" transform="translate(344 531)"><tspan x="-52.277" y="0">+ information</tspan></text></g><g transform="translate(-93 531)"><g class="l" transform="translate(273 495)"><rect class="af" width="141" height="60" rx="5"/><rect class="b" x="1" y="1" width="139" height="58" rx="4"/></g><text class="j" transform="translate(344 531)"><tspan x="-52.277" y="0">+ information</tspan></text></g><g transform="translate(94 191)"><g class="o" transform="translate(273 495)"><path class="af" d="M 136 59 L 5 59 C 2.794399976730347 59 1 57.20560073852539 1 55 L 1 5 C 1 2.794399976730347 2.794399976730347 1 5 1 L 136 1 C 138.2055969238281 1 140 2.794399976730347 140 5 L 140 55 C 140 57.20560073852539 138.2055969238281 59 136 59 Z"/><path class="ag" d="M 5 2 C 3.345794677734375 2 2 3.345798492431641 2 5 L 2 55 C 2 56.65420150756836 3.345794677734375 58 5 58 L 136 58 C 137.6542053222656 58 139 56.65420150756836 139 55 L 139 5 C 139 3.345798492431641 137.6542053222656 2 136 2 L 5 2 M 5 0 L 136 0 C 138.7614135742188 0 141 2.238578796386719 141 5 L 141 55 C 141 57.76142120361328 138.7614135742188 60 136 60 L 5 60 C 2.238555908203125 60 0 57.76142120361328 0 55 L 0 5 C 0 2.238578796386719 2.238555908203125 0 5 0 Z"/></g><text class="j" transform="translate(344 531)"><tspan x="-43.018" y="0">Supervisor</tspan></text></g><g transform="translate(94 531)"><g class="l" transform="translate(273 495)"><rect class="af" width="141" height="60" rx="5"/><rect class="b" x="1" y="1" width="139" height="58" rx="4"/></g><text class="j" transform="translate(344 531)"><tspan x="-43.018" y="0">Supervisor</tspan></text></g><line class="k" x1="39" y2="20" transform="translate(251 666)"/><line class="k" x1="39" y2="20" transform="translate(251 1006)"/><line class="k" x1="39" y1="20" transform="translate(251 746)"/><line class="k" x1="39" y1="20" transform="translate(251 1086)"/><line class="k" x2="39" y2="20" transform="translate(397 666)"/><line class="k" x2="39" y2="20" transform="translate(397 1006)"/><line class="k" x2="46" transform="translate(321.5 716.5)"/><line class="k" x2="46" transform="translate(321.5 1055.5)"/><line class="k" x2="381" transform="translate(153 586)"/><line class="k" x2="381" transform="translate(153 926)"/><line class="k" x2="381" transform="translate(153 1186)"/><text class="p" transform="translate(169 623)"><tspan x="0" y="0">CYCLE 1</tspan></text><text class="p" transform="translate(169 524)"><tspan x="0" y="0">START</tspan></text><text class="p" transform="translate(169 962)"><tspan x="0" y="0">CYCLE 2</tspan></text><text class="p" transform="translate(169 1222)"><tspan x="0" y="0">FINAL</tspan></text><g transform="translate(0 11)"><g class="o" transform="translate(273 495)"><path class="af" d="M 136 59 L 5 59 C 2.794399976730347 59 1 57.20560073852539 1 55 L 1 5 C 1 2.794399976730347 2.794399976730347 1 5 1 L 136 1 C 138.2055969238281 1 140 2.794399976730347 140 5 L 140 55 C 140 57.20560073852539 138.2055969238281 59 136 59 Z"/><path class="ag" d="M 5 2 C 3.345794677734375 2 2 3.345798492431641 2 5 L 2 55 C 2 56.65420150756836 3.345794677734375 58 5 58 L 136 58 C 137.6542053222656 58 139 56.65420150756836 139 55 L 139 5 C 139 3.345798492431641 137.6542053222656 2 136 2 L 5 2 M 5 0 L 136 0 C 138.7614135742188 0 141 2.238578796386719 141 5 L 141 55 C 141 57.76142120361328 138.7614135742188 60 136 60 L 5 60 C 2.238555908203125 60 0 57.76142120361328 0 55 L 0 5 C 0 2.238578796386719 2.238555908203125 0 5 0 Z"/></g><text class="j" transform="translate(344 531)"><tspan x="-47.03" y="0">Introduction</tspan></text></g></g><g class="q" transform="translate(254.75 1338.75)"><path class="r" d="M30,17H10A7,7,0,0,1,10,3H30a7,7,0,0,1,0,14Z" transform="translate(3.25 1.25)"/><g class="aj" transform="matrix(1, 0, 0, 1, -254.75, -1338.75)"><path class="s" d="M10,0A10,10,0,1,1,0,10,10,10,0,0,1,10,0Z" transform="translate(258 1340)"/></g></g><text class="j" transform="translate(200 1356)"><tspan x="-46.521" y="0">Thumbnails</tspan></text><text class="j" transform="translate(471 1355)"><tspan x="-38.004" y="0">Maximize</tspan></text><g class="t" transform="translate(510 1336)"><rect class="b" width="24" height="24"/><path class="u" d="M7,14H5v5h5V17H7V14ZM5,10H7V7h3V5H5v5Zm12,7H14v2h5V14H17v3ZM14,5V7h3v3h2V5Z"/></g><g class="a" transform="translate(153 377)"><rect class="af" width="1614" height="60" rx="5"/><rect class="b" x="0.5" y="0.5" width="1613" height="59" rx="4.5"/></g><g class="a" transform="translate(1330 377)"><rect class="af" width="240" height="60"/><rect class="b" x="0.5" y="0.5" width="239" height="59"/></g><text class="j" transform="translate(1353 413)"><tspan x="0" y="0">Preview mode</tspan></text><g transform="translate(280 -3)"><g class="a" transform="translate(1393 390)"><rect class="af" width="80" height="40" rx="5"/><rect class="b" x="0.5" y="0.5" width="79" height="39" rx="4.5"/></g><g class="t" transform="translate(1401 398)"><rect class="b" width="24" height="24"/><path class="u" d="M20,11H7.8l5.6-5.6L12,4,4,12l8,8,1.4-1.4L7.8,13H20V11Z"/></g><g class="t" transform="translate(1441 398)"><rect class="b" width="24" height="24"/><path class="u" d="M12,4,10.6,5.4,16.2,11H4v2H16.2l-5.6,5.6L12,20l8-8Z"/></g><line class="k" y2="39" transform="translate(1433.5 390.5)"/></g><g transform="translate(-468)"><g class="a" transform="translate(632 387)"><rect class="af" width="148" height="40" rx="5"/><rect class="b" x="0.5" y="0.5" width="147" height="39" rx="4.5"/></g><text class="v" transform="translate(665 396)"><tspan x="0" y="18">SETTINGS</tspan></text><g class="t" transform="translate(641 395)"><path class="w" d="M9.568,12.123A2.625,2.625,0,1,1,12.193,9.5,2.625,2.625,0,0,1,9.568,12.123Zm5.572-1.893a5.13,5.13,0,0,0,0-1.464l1.585-1.24a.374.374,0,0,0,.089-.479l-1.5-2.6a.375.375,0,0,0-.459-.163l-1.867.752A5.605,5.605,0,0,0,11.719,4.3l-.281-1.987A.376.376,0,0,0,11.068,2h-3a.375.375,0,0,0-.37.316L7.416,4.3a5.624,5.624,0,0,0-1.268.738L4.282,4.286a.375.375,0,0,0-.459.163l-1.5,2.6a.374.374,0,0,0,.089.479L4,8.766A5.129,5.129,0,0,0,4,10.23L2.411,11.47a.376.376,0,0,0-.089.479l1.5,2.6a.375.375,0,0,0,.459.163l1.867-.752a5.607,5.607,0,0,0,1.268.737L7.7,16.682a.375.375,0,0,0,.37.316h3a.376.376,0,0,0,.371-.316l.281-1.987a5.622,5.622,0,0,0,1.267-.738l1.868.753a.375.375,0,0,0,.459-.163l1.5-2.6a.376.376,0,0,0-.089-.479Z" transform="translate(2.727 3.002)"/><rect class="b" width="24" height="24"/></g></g><g class="q" transform="translate(1491.75 395.75)"><path class="r" d="M30,17H10A7,7,0,0,1,10,3H30a7,7,0,0,1,0,14Z" transform="translate(3.25 1.25)"/><g class="ai" transform="matrix(1, 0, 0, 1, -1491.75, -395.75)"><path class="s" d="M10,0A10,10,0,1,1,0,10,10,10,0,0,1,10,0Z" transform="translate(1495 397)"/></g></g><g class="a" transform="translate(838 547)"><rect class="af" width="381" height="458" rx="12"/><rect class="b" x="0.5" y="0.5" width="380" height="457" rx="11.5"/></g><g class="x" transform="translate(827 536.5)"><rect class="af" width="404" height="395"/><rect class="b" x="2.5" y="2.5" width="399" height="390"/></g><g class="x" transform="translate(564 483.5)"><rect class="af" width="1203" height="635"/><rect class="b" x="2.5" y="2.5" width="1198" height="630"/></g><g class="x" transform="translate(908 965.5)"><rect class="af" width="238" height="79"/><rect class="b" x="2.5" y="2.5" width="233" height="74"/></g><rect class="y" width="212" height="59" rx="29.5" transform="translate(919 975.5)"/><text class="z" transform="translate(944 1013.5)"><tspan x="0" y="0">Submit hypothesis</tspan></text><text class="aa" transform="translate(856 583)"><tspan x="0" y="30">What is your main </tspan><tspan x="0" y="67">diagnostic hypothesis? </tspan></text><text class="aa" transform="translate(856 766)"><tspan x="0" y="30">How sure are you about </tspan><tspan x="0" y="67">this diagnostic hypothesis?</tspan></text><text class="j" transform="translate(856 887)"><tspan x="0" y="0">0</tspan></text><text class="j" transform="translate(1167 887)"><tspan x="0" y="0">10</tspan></text><line class="ab" y2="56" transform="translate(867.5 674.5)"/><g transform="translate(798 293)"><rect class="b" width="142" height="48" transform="translate(80 564)"/><g transform="translate(0 206)"><rect class="ac" width="276.521" height="2" rx="1" transform="translate(80 381)"/><rect class="ad" width="62" height="2" rx="1" transform="translate(80 381)"/></g><circle class="ad" cx="6" cy="6" r="6" transform="translate(132 582)"/></g><g transform="translate(19 19)"><g class="a" transform="translate(1167 523)"><rect class="af" width="40" height="40" rx="5"/><rect class="b" x="0.5" y="0.5" width="39" height="39" rx="4.5"/></g><path class="ae" d="M22.786,4.811,21.3,3.322a1.106,1.106,0,0,0-1.566,0L9.777,13.277l3.055,3.055,9.954-9.954A1.106,1.106,0,0,0,22.786,4.811ZM7.555,15.221a3.328,3.328,0,0,0-3.333,3.333A2.254,2.254,0,0,1,2,20.776,5.748,5.748,0,0,0,6.444,23a4.443,4.443,0,0,0,4.444-4.444A3.328,3.328,0,0,0,7.555,15.221Z" transform="translate(1174 530.002)"/></g><g transform="translate(555 -34)"><g class="a" transform="translate(1167 523)"><rect class="af" width="40" height="40" rx="5"/><rect class="b" x="0.5" y="0.5" width="39" height="39" rx="4.5"/></g><path class="ae" d="M22.786,4.811,21.3,3.322a1.106,1.106,0,0,0-1.566,0L9.777,13.277l3.055,3.055,9.954-9.954A1.106,1.106,0,0,0,22.786,4.811ZM7.555,15.221a3.328,3.328,0,0,0-3.333,3.333A2.254,2.254,0,0,1,2,20.776,5.748,5.748,0,0,0,6.444,23a4.443,4.443,0,0,0,4.444-4.444A3.328,3.328,0,0,0,7.555,15.221Z" transform="translate(1174 530.002)"/></g><g transform="translate(-66 448)"><g class="a" transform="translate(1167 523)"><rect class="af" width="40" height="40" rx="5"/><rect class="b" x="0.5" y="0.5" width="39" height="39" rx="4.5"/></g><path class="ae" d="M22.786,4.811,21.3,3.322a1.106,1.106,0,0,0-1.566,0L9.777,13.277l3.055,3.055,9.954-9.954A1.106,1.106,0,0,0,22.786,4.811ZM7.555,15.221a3.328,3.328,0,0,0-3.333,3.333A2.254,2.254,0,0,1,2,20.776,5.748,5.748,0,0,0,6.444,23a4.443,4.443,0,0,0,4.444-4.444A3.328,3.328,0,0,0,7.555,15.221Z" transform="translate(1174 530.002)"/></g></g></svg>