<svg xmlns="http://www.w3.org/2000/svg" xmlns:xlink="http://www.w3.org/1999/xlink" width="1920" height="1387" viewBox="0 0 1920 1387"><defs><style>.a{clip-path:url(#b);}.b,.f,.i{fill:#fff;}.c,.d,.j{fill:gray;}.c{font-size:56px;}.c,.j{font-family:Arial-BoldMT, Arial;font-weight:700;}.d{font-size:18px;}.d,.f,.g{font-family:ArialMT, Arial;}.e,.g{fill:#a6a6a6;}.f,.g{font-size:14px;}.h,.l{fill:none;}.h{stroke:#707070;}.i{stroke:#a6a6a6;stroke-width:2px;}.j{font-size:24px;}.k{stroke:none;}.m{fill:#f2f2f2;}</style><clipPath id="b"><rect width="1920" height="1387"/></clipPath></defs><g id="a" class="a"><rect class="m" width="1920" height="1387"/><rect class="b" width="1920" height="100"/><text class="c" transform="translate(153 286)"><tspan x="0" y="0">Case schema</tspan></text><text class="d" transform="translate(153 334)"><tspan x="0" y="0">See how your case looks as schema.</tspan></text><rect class="e" width="153" height="27" rx="5" transform="translate(428 144)"/><rect class="e" width="70" height="27" rx="5" transform="translate(153 144)"/><text class="f" transform="translate(166 150)"><tspan x="1" y="13" xml:space="preserve">HOME      </tspan></text><text class="g" transform="translate(231 150)"><tspan x="0" y="13">&gt;</tspan></text><text class="g" transform="translate(411 150)"><tspan x="0" y="13">&gt;</tspan></text><rect class="e" width="153" height="27" rx="5" transform="translate(248 144)"/><text class="f" transform="translate(256 150)"><tspan x="1.344" y="13" xml:space="preserve">CREATE NEW CASE    </tspan></text><text class="f" transform="translate(436 150)"><tspan x="17.545" y="13">CASE SCHEMA</tspan></text><line class="h" y2="100" transform="translate(960.5 519.5)"/><line class="h" y2="163" transform="translate(960.5 767.5)"/><line class="h" y2="163" transform="translate(960.5 957.5)"/><line class="h" x1="580" transform="translate(670.5 943.5)"/><line class="h" x1="292" y2="101" transform="translate(409.5 767.5)"/><line class="h" x1="292" y2="101" transform="translate(1219 1019.5)"/><line class="h" x2="292" y2="101" transform="translate(1219 767.5)"/><line class="h" x2="292" y2="101" transform="translate(409 1019.5)"/><g class="i" transform="translate(700 369)"><rect class="k" width="520" height="150" rx="5"/><rect class="l" x="1" y="1" width="518" height="148" rx="4"/></g><g class="i" transform="translate(700 619)"><rect class="k" width="520" height="150" rx="5"/><rect class="l" x="1" y="1" width="518" height="148" rx="4"/></g><g class="i" transform="translate(700 1120)"><rect class="k" width="520" height="150" rx="5"/><rect class="l" x="1" y="1" width="518" height="148" rx="4"/></g><g class="i" transform="translate(151 868)"><rect class="k" width="520" height="150" rx="5"/><rect class="l" x="1" y="1" width="518" height="148" rx="4"/></g><g class="i" transform="translate(1249 868)"><rect class="k" width="520" height="150" rx="5"/><rect class="l" x="1" y="1" width="518" height="148" rx="4"/></g><text class="j" transform="translate(785 431)"><tspan x="105.016" y="22">Introduction</tspan></text><text class="j" transform="translate(785 681)"><tspan x="124.967" y="22">Screen 2</tspan></text><text class="j" transform="translate(785 1182)"><tspan x="56.295" y="22">Generate hypothesis</tspan></text><text class="j" transform="translate(236 930)"><tspan x="107.664" y="22">More info. 1</tspan></text><text class="j" transform="translate(1334 930)"><tspan x="102.303" y="22">Supervisor 1</tspan></text><path class="h" d="M-7102.483-12009s11.083,1.506,11.083,12.815-11.083,14.024-11.083,14.024" transform="translate(8062.982 12940)"/></g></svg>