<svg xmlns="http://www.w3.org/2000/svg" xmlns:xlink="http://www.w3.org/1999/xlink" width="848" height="752" viewBox="0 0 848 752"><defs><style>.a,.m{fill:none;}.b{clip-path:url(#c);}.c,.g,.i,.k{fill:#fff;}.c,.h,.m{stroke:#707070;}.d,.e{fill:gray;font-size:18px;}.d{font-family:ArialMT, Arial;}.e,.k{font-family:Arial-BoldMT, Arial;font-weight:700;}.f{clip-path:url(#a);}.g{stroke:#a6a6a6;stroke-width:2px;}.h,.j{fill:#a6a6a6;}.k{font-size:20px;}.l{fill:#aeaeae;}.n{fill:#707070;font-size:14px;font-family:SegoeUI, Segoe UI;}.o{fill:#747474;}.p{stroke:none;}</style><clipPath id="a"><rect class="a" width="107" height="38"/></clipPath><clipPath id="c"><rect width="848" height="752"/></clipPath></defs><g id="b" class="b"><g class="c" transform="translate(-2)"><rect class="p" width="808" height="732" rx="5"/><rect class="a" x="0.5" y="0.5" width="807" height="731" rx="4.5"/></g><text class="d" transform="translate(30 78)"><tspan x="0" y="16">Choose itens to add to description</tspan></text><text class="e" transform="translate(30 38)"><tspan x="0" y="16">SHARED AREA: CHEST PAIN</tspan></text><g class="f" transform="translate(492 677)"><g class="g"><rect class="p" width="107" height="38" rx="5"/><rect class="a" x="1" y="1" width="105" height="36" rx="4"/></g><text class="d" transform="translate(15 26.124)"><tspan x="0" y="0">CANCEL</tspan></text></g><g transform="translate(-359 -523)"><g class="h" transform="translate(1167 523)"><rect class="p" width="40" height="40" rx="5"/><rect class="a" x="0.5" y="0.5" width="39" height="39" rx="4.5"/></g><path class="i" d="M22.786,4.811,21.3,3.322a1.106,1.106,0,0,0-1.566,0L9.777,13.277l3.055,3.055,9.954-9.954A1.106,1.106,0,0,0,22.786,4.811ZM7.555,15.221a3.328,3.328,0,0,0-3.333,3.333A2.254,2.254,0,0,1,2,20.776,5.748,5.748,0,0,0,6.444,23a4.443,4.443,0,0,0,4.444-4.444A3.328,3.328,0,0,0,7.555,15.221Z" transform="translate(1174 530.002)"/></g><path class="j" d="M-37.724,0H128.482a5,5,0,0,1,5,5V32a5,5,0,0,1-5,5H-37.724a5,5,0,0,1-5-5V5A5,5,0,0,1-37.724,0Z" transform="translate(650 677)"/><text class="k" transform="translate(697 703)"><tspan x="-77.783" y="0">ADD SELECTED</tspan></text><g transform="translate(0 -9)"><path class="l" d="M5,0H164a5,5,0,0,1,5,5V95a0,0,0,0,1,0,0H0a0,0,0,0,1,0,0V5A5,5,0,0,1,5,0Z" transform="translate(30 121)"/><g class="m" transform="translate(30 121)"><rect class="p" width="169" height="139" rx="5"/><rect class="a" x="0.5" y="0.5" width="168" height="138" rx="4.5"/></g><text class="n" transform="translate(45 217)"><tspan x="7.964" y="15">Physical Examination </tspan><tspan x="6.631" y="34">Myocardial Infarction </tspan></text><line class="m" x2="168" transform="translate(30.5 215.5)"/><rect class="i" width="18" height="18" rx="5" transform="translate(175 125)"/><path class="o" d="M211-681H197a2,2,0,0,0-2,2v14a2,2,0,0,0,2,2h14a2,2,0,0,0,2-2v-14A2,2,0,0,0,211-681Zm-9,14-5-5,1.41-1.41,3.59,3.58,7.59-7.59L211-676Z" transform="translate(-20 806)"/></g><g transform="translate(195 -9)"><path class="l" d="M5,0H164a5,5,0,0,1,5,5V95a0,0,0,0,1,0,0H0a0,0,0,0,1,0,0V5A5,5,0,0,1,5,0Z" transform="translate(30 121)"/><g class="m" transform="translate(30 121)"><rect class="p" width="169" height="139" rx="5"/><rect class="a" x="0.5" y="0.5" width="168" height="138" rx="4.5"/></g><text class="n" transform="translate(45 217)"><tspan x="7.964" y="15">Physical Examination </tspan><tspan x="6.631" y="34">Myocardial Infarction </tspan></text><line class="m" x2="168" transform="translate(30.5 215.5)"/><rect class="i" width="18" height="18" rx="5" transform="translate(175 125)"/><path class="o" d="M211-681H197a2,2,0,0,0-2,2v14a2,2,0,0,0,2,2h14a2,2,0,0,0,2-2v-14A2,2,0,0,0,211-681Zm-9,14-5-5,1.41-1.41,3.59,3.58,7.59-7.59L211-676Z" transform="translate(-20 806)"/></g><g transform="translate(390 -9)"><path class="l" d="M5,0H164a5,5,0,0,1,5,5V95a0,0,0,0,1,0,0H0a0,0,0,0,1,0,0V5A5,5,0,0,1,5,0Z" transform="translate(30 121)"/><g class="m" transform="translate(30 121)"><rect class="p" width="169" height="139" rx="5"/><rect class="a" x="0.5" y="0.5" width="168" height="138" rx="4.5"/></g><text class="n" transform="translate(45 217)"><tspan x="7.964" y="15">Physical Examination </tspan><tspan x="6.631" y="34">Myocardial Infarction </tspan></text><line class="m" x2="168" transform="translate(30.5 215.5)"/><rect class="i" width="18" height="18" rx="5" transform="translate(175 125)"/><path class="o" d="M211-681H197a2,2,0,0,0-2,2v14a2,2,0,0,0,2,2h14a2,2,0,0,0,2-2v-14A2,2,0,0,0,211-681Zm-9,14-5-5,1.41-1.41,3.59,3.58,7.59-7.59L211-676Z" transform="translate(-20 806)"/></g><g transform="translate(585 -9)"><path class="l" d="M5,0H164a5,5,0,0,1,5,5V95a0,0,0,0,1,0,0H0a0,0,0,0,1,0,0V5A5,5,0,0,1,5,0Z" transform="translate(30 121)"/><g class="m" transform="translate(30 121)"><rect class="p" width="169" height="139" rx="5"/><rect class="a" x="0.5" y="0.5" width="168" height="138" rx="4.5"/></g><text class="n" transform="translate(45 217)"><tspan x="7.964" y="15">Physical Examination </tspan><tspan x="6.631" y="34">Myocardial Infarction </tspan></text><line class="m" x2="168" transform="translate(30.5 215.5)"/><rect class="i" width="18" height="18" rx="5" transform="translate(175 125)"/><path class="o" d="M211-681H197a2,2,0,0,0-2,2v14a2,2,0,0,0,2,2h14a2,2,0,0,0,2-2v-14A2,2,0,0,0,211-681Zm-9,14-5-5,1.41-1.41,3.59,3.58,7.59-7.59L211-676Z" transform="translate(-20 806)"/></g><g transform="translate(0 157)"><path class="l" d="M5,0H164a5,5,0,0,1,5,5V95a0,0,0,0,1,0,0H0a0,0,0,0,1,0,0V5A5,5,0,0,1,5,0Z" transform="translate(30 121)"/><g class="m" transform="translate(30 121)"><rect class="p" width="169" height="139" rx="5"/><rect class="a" x="0.5" y="0.5" width="168" height="138" rx="4.5"/></g><text class="n" transform="translate(45 217)"><tspan x="7.964" y="15">Physical Examination </tspan><tspan x="6.631" y="34">Myocardial Infarction </tspan></text><line class="m" x2="168" transform="translate(30.5 215.5)"/><rect class="i" width="18" height="18" rx="5" transform="translate(175 125)"/><path class="o" d="M211-681H197a2,2,0,0,0-2,2v14a2,2,0,0,0,2,2h14a2,2,0,0,0,2-2v-14A2,2,0,0,0,211-681Zm-9,14-5-5,1.41-1.41,3.59,3.58,7.59-7.59L211-676Z" transform="translate(-20 806)"/></g><g transform="translate(195 157)"><path class="l" d="M5,0H164a5,5,0,0,1,5,5V95a0,0,0,0,1,0,0H0a0,0,0,0,1,0,0V5A5,5,0,0,1,5,0Z" transform="translate(30 121)"/><g class="m" transform="translate(30 121)"><rect class="p" width="169" height="139" rx="5"/><rect class="a" x="0.5" y="0.5" width="168" height="138" rx="4.5"/></g><text class="n" transform="translate(45 217)"><tspan x="7.964" y="15">Physical Examination </tspan><tspan x="6.631" y="34">Myocardial Infarction </tspan></text><line class="m" x2="168" transform="translate(30.5 215.5)"/><rect class="i" width="18" height="18" rx="5" transform="translate(175 125)"/><path class="o" d="M211-681H197a2,2,0,0,0-2,2v14a2,2,0,0,0,2,2h14a2,2,0,0,0,2-2v-14A2,2,0,0,0,211-681Zm-9,14-5-5,1.41-1.41,3.59,3.58,7.59-7.59L211-676Z" transform="translate(-20 806)"/></g><g transform="translate(390 157)"><path class="l" d="M5,0H164a5,5,0,0,1,5,5V95a0,0,0,0,1,0,0H0a0,0,0,0,1,0,0V5A5,5,0,0,1,5,0Z" transform="translate(30 121)"/><g class="m" transform="translate(30 121)"><rect class="p" width="169" height="139" rx="5"/><rect class="a" x="0.5" y="0.5" width="168" height="138" rx="4.5"/></g><text class="n" transform="translate(45 217)"><tspan x="7.964" y="15">Physical Examination </tspan><tspan x="6.631" y="34">Myocardial Infarction </tspan></text><line class="m" x2="168" transform="translate(30.5 215.5)"/><rect class="i" width="18" height="18" rx="5" transform="translate(175 125)"/><path class="o" d="M211-681H197a2,2,0,0,0-2,2v14a2,2,0,0,0,2,2h14a2,2,0,0,0,2-2v-14A2,2,0,0,0,211-681Zm-9,14-5-5,1.41-1.41,3.59,3.58,7.59-7.59L211-676Z" transform="translate(-20 806)"/></g><g transform="translate(585 157)"><path class="l" d="M5,0H164a5,5,0,0,1,5,5V95a0,0,0,0,1,0,0H0a0,0,0,0,1,0,0V5A5,5,0,0,1,5,0Z" transform="translate(30 121)"/><g class="m" transform="translate(30 121)"><rect class="p" width="169" height="139" rx="5"/><rect class="a" x="0.5" y="0.5" width="168" height="138" rx="4.5"/></g><text class="n" transform="translate(45 217)"><tspan x="7.964" y="15">Physical Examination </tspan><tspan x="6.631" y="34">Myocardial Infarction </tspan></text><line class="m" x2="168" transform="translate(30.5 215.5)"/><rect class="i" width="18" height="18" rx="5" transform="translate(175 125)"/><path class="o" d="M211-681H197a2,2,0,0,0-2,2v14a2,2,0,0,0,2,2h14a2,2,0,0,0,2-2v-14A2,2,0,0,0,211-681Zm-9,14-5-5,1.41-1.41,3.59,3.58,7.59-7.59L211-676Z" transform="translate(-20 806)"/></g><g transform="translate(0 323)"><path class="l" d="M5,0H164a5,5,0,0,1,5,5V95a0,0,0,0,1,0,0H0a0,0,0,0,1,0,0V5A5,5,0,0,1,5,0Z" transform="translate(30 121)"/><g class="m" transform="translate(30 121)"><rect class="p" width="169" height="139" rx="5"/><rect class="a" x="0.5" y="0.5" width="168" height="138" rx="4.5"/></g><text class="n" transform="translate(45 217)"><tspan x="7.964" y="15">Physical Examination </tspan><tspan x="6.631" y="34">Myocardial Infarction </tspan></text><line class="m" x2="168" transform="translate(30.5 215.5)"/><rect class="i" width="18" height="18" rx="5" transform="translate(175 125)"/><path class="o" d="M211-681H197a2,2,0,0,0-2,2v14a2,2,0,0,0,2,2h14a2,2,0,0,0,2-2v-14A2,2,0,0,0,211-681Zm-9,14-5-5,1.41-1.41,3.59,3.58,7.59-7.59L211-676Z" transform="translate(-20 806)"/></g><g transform="translate(195 323)"><path class="l" d="M5,0H164a5,5,0,0,1,5,5V95a0,0,0,0,1,0,0H0a0,0,0,0,1,0,0V5A5,5,0,0,1,5,0Z" transform="translate(30 121)"/><g class="m" transform="translate(30 121)"><rect class="p" width="169" height="139" rx="5"/><rect class="a" x="0.5" y="0.5" width="168" height="138" rx="4.5"/></g><text class="n" transform="translate(45 217)"><tspan x="7.964" y="15">Physical Examination </tspan><tspan x="6.631" y="34">Myocardial Infarction </tspan></text><line class="m" x2="168" transform="translate(30.5 215.5)"/><rect class="i" width="18" height="18" rx="5" transform="translate(175 125)"/><path class="o" d="M211-681H197a2,2,0,0,0-2,2v14a2,2,0,0,0,2,2h14a2,2,0,0,0,2-2v-14A2,2,0,0,0,211-681Zm-9,14-5-5,1.41-1.41,3.59,3.58,7.59-7.59L211-676Z" transform="translate(-20 806)"/></g><g transform="translate(390 323)"><path class="i" d="M211-681H197a2,2,0,0,0-2,2v14a2,2,0,0,0,2,2h14a2,2,0,0,0,2-2v-14A2,2,0,0,0,211-681Zm-9,14-5-5,1.41-1.41,3.59,3.58,7.59-7.59L211-676Z" transform="translate(-20 806)"/><path class="l" d="M5,0H164a5,5,0,0,1,5,5V95a0,0,0,0,1,0,0H0a0,0,0,0,1,0,0V5A5,5,0,0,1,5,0Z" transform="translate(30 121)"/><g class="m" transform="translate(30 121)"><rect class="p" width="169" height="139" rx="5"/><rect class="a" x="0.5" y="0.5" width="168" height="138" rx="4.5"/></g><text class="n" transform="translate(117 242)"><tspan x="-33.38" y="0">Other item</tspan></text><line class="m" x2="168" transform="translate(30.5 215.5)"/><g class="c" transform="translate(175 125)"><rect class="p" width="18" height="18" rx="5"/><rect class="a" x="0.5" y="0.5" width="17" height="17" rx="4.5"/></g></g><path class="j" d="M-37.724,0H119.012a5,5,0,0,1,5,5V32a5,5,0,0,1-5,5H-37.724a5,5,0,0,1-5-5V5A5,5,0,0,1-37.724,0Z" transform="translate(658 492)"/><text class="k" transform="translate(699 518)"><tspan x="-74.438" y="0">ADD NEW ITEM</tspan></text></g></svg>