<svg xmlns="http://www.w3.org/2000/svg" xmlns:xlink="http://www.w3.org/1999/xlink" width="1920" height="2238" viewBox="0 0 1920 2238"><defs><style>.a,.ag,.ai,.ak,.f,.j,.r{fill:#fff;}.a,.an{stroke:#707070;}.an,.ao,.b,.d,.l,.t,.w{fill:none;}.c{clip-path:url(#ah);}.d{stroke:#00ffe5;stroke-width:5px;}.e{clip-path:url(#a);}.am,.g,.h,.o,.s{fill:gray;}.g{font-size:56px;}.am,.g,.m,.n,.s{font-family:Arial-BoldMT, Arial;}.ag,.ak,.am,.g,.m,.n,.s{font-weight:700;}.ak,.h,.s{font-size:18px;}.h,.j,.k,.o{font-family:ArialMT, Arial;}.i,.k,.m{fill:#a6a6a6;}.j,.k{font-size:14px;}.ag,.ai,.al,.m,.n{font-size:20px;}.n{fill:#848484;}.o{font-size:32px;}.p{clip-path:url(#b);}.ac,.q,.u,.v,.w,.z{fill-rule:evenodd;}.q,.y{opacity:0.54;}.r,.t{stroke:#a6a6a6;}.r{stroke-width:2px;}.u{fill:rgba(97,97,97,0.38);}.v{fill:rgba(0,0,0,0.54);}.w{stroke:rgba(0,0,0,0.12);}.x{clip-path:url(#h);}.z{opacity:0.38;}.aa{font-size:16px;font-family:Roboto-Medium, Roboto;font-weight:500;opacity:0.87;}.ab{clip-path:url(#ac);}.ac{fill:rgba(34,31,31,0.26);}.ad{fill:#f1f1f1;stroke:rgba(0,0,0,0);stroke-width:0.5px;}.ae{clip-path:url(#af);}.af{fill:#0d4a71;}.ag,.ak{font-family:SegoeUI-Bold, Segoe UI;}.ah{fill:#ba2027;}.ai,.aj,.al{font-family:SegoeUI, Segoe UI;}.aj{fill:#346e93;font-size:28px;}.al{font-weight:400;}.am{font-size:24px;}.ao{stroke:#fff;}.ap,.aq{stroke:none;}.aq{fill:#707070;}.ar{fill:#f2f2f2;}.as{filter:url(#ad);}.at{filter:url(#m);}</style><clipPath id="a"><rect class="a" width="1614" height="712" transform="translate(153 367)"/></clipPath><clipPath id="b"><rect class="b" width="24" height="24"/></clipPath><clipPath id="h"><rect class="b" width="47" height="24"/></clipPath><filter id="m" x="554" y="1458" width="143" height="62" filterUnits="userSpaceOnUse"><feOffset dy="2" input="SourceAlpha"/><feGaussianBlur stdDeviation="1" result="n"/><feFlood flood-opacity="0.239"/><feComposite operator="in" in2="n"/><feComposite in="SourceGraphic"/></filter><clipPath id="ac"><rect class="b" width="40.25" height="26.5"/></clipPath><filter id="ad" x="1592.75" y="1432.75" width="26.5" height="26.5" filterUnits="userSpaceOnUse"><feOffset dy="2" input="SourceAlpha"/><feGaussianBlur stdDeviation="1" result="ae"/><feFlood flood-opacity="0.239"/><feComposite operator="in" in2="ae"/><feComposite in="SourceGraphic"/></filter><clipPath id="af"><rect class="a" width="447.545" height="624.397" transform="translate(1151 744)"/></clipPath><clipPath id="ah"><rect width="1920" height="2238"/></clipPath></defs><g id="ag" class="c"><rect class="ar" width="1920" height="2238"/><g class="d" transform="translate(397 546.5)"><rect class="ap" width="1263" height="667"/><rect class="b" x="2.5" y="2.5" width="1258" height="662"/></g><g class="e" transform="translate(0 179)"><image width="2029" height="1141" transform="translate(8 105)" xlink:href="Editing%20-%20preview%20edit%20mode%202-image.png"/></g><rect class="f" width="1920" height="100"/><rect class="f" width="1614" height="88" transform="translate(153 377)"/><text class="g" transform="translate(153 286)"><tspan x="0" y="0">Preview case</tspan></text><text class="h" transform="translate(153 334)"><tspan x="0" y="0">Here&apos;s how your case will appear to students.</tspan></text><rect class="i" width="153" height="27" rx="5" transform="translate(428 144)"/><rect class="i" width="70" height="27" rx="5" transform="translate(153 144)"/><text class="j" transform="translate(166 150)"><tspan x="1" y="13" xml:space="preserve">HOME      </tspan></text><text class="k" transform="translate(231 150)"><tspan x="0" y="13">&gt;</tspan></text><text class="k" transform="translate(411 150)"><tspan x="0" y="13">&gt;</tspan></text><rect class="i" width="153" height="27" rx="5" transform="translate(248 144)"/><text class="j" transform="translate(256 150)"><tspan x="1.344" y="13" xml:space="preserve">CREATE NEW CASE    </tspan></text><text class="j" transform="translate(436 150)"><tspan x="15.21" y="13">PREVIEW CASE</tspan></text><g class="l" transform="translate(564 403)"><path class="ap" d="M5.691,0h95.617C104.452,0,107,2.239,107,5V32c0,2.761-2.548,5-5.691,5H5.691C2.548,37,0,34.761,0,32V5C0,2.239,2.548,0,5.691,0Z"/><path class="aq" d="M 5.691490173339844 1 C 3.104591369628906 1 1.000007629394531 2.794384002685547 1.000007629394531 5 L 1.000007629394531 32 C 1.000007629394531 34.20561599731445 3.104591369628906 36 5.691490173339844 36 L 101.3085174560547 36 C 103.8954162597656 36 106 34.20561599731445 106 32 L 106 5 C 106 2.794384002685547 103.8954162597656 1 101.3085174560547 1 L 5.691490173339844 1 M 5.691490173339844 0 L 101.3085174560547 0 C 104.4518356323242 0 107 2.238571166992188 107 5 L 107 32 C 107 34.76142883300781 104.4518356323242 37 101.3085174560547 37 L 5.691490173339844 37 C 2.548164367675781 37 7.62939453125e-06 34.76142883300781 7.62939453125e-06 32 L 7.62939453125e-06 5 C 7.62939453125e-06 2.238571166992188 2.548164367675781 0 5.691490173339844 0 Z"/></g><text class="m" transform="translate(618 429)"><tspan x="-22.778" y="0">EDIT</tspan></text><path class="i" d="M5.691,0h95.617C104.452,0,107,2.239,107,5V32c0,2.761-2.548,5-5.691,5H5.691C2.548,37,0,34.761,0,32V5C0,2.239,2.548,0,5.691,0Z" transform="translate(427 403)"/><text class="n" transform="translate(481 429)"><tspan x="-25.752" y="0">PLAY</tspan></text><text class="o" transform="translate(175 432)"><tspan x="0" y="0">Preview mode</tspan></text><g class="p" transform="translate(880 410)"><rect class="b" width="24" height="24"/><path class="q" d="M12,4,10.6,5.4,16.2,11H4v2H16.2l-5.6,5.6L12,20l8-8Z"/></g><g class="p" transform="translate(748 410)"><rect class="b" width="24" height="24"/><path class="q" d="M20,11H7.8l5.6-5.6L12,4,4,12l8,8,1.4-1.4L7.8,13H20V11Z"/></g><g class="r" transform="translate(290 1353)"><rect class="ap" width="1477" height="755" rx="5"/><rect class="b" x="1" y="1" width="1475" height="753" rx="4"/></g><g class="r" transform="translate(1112 1502)"><rect class="ap" width="626" height="80" rx="5"/><rect class="b" x="1" y="1" width="624" height="78" rx="4"/></g><g class="r" transform="translate(1112 1414)"><rect class="ap" width="626" height="58" rx="5"/><rect class="b" x="1" y="1" width="624" height="56" rx="4"/></g><g class="r" transform="translate(1249 1424)"><rect class="ap" width="274" height="38" rx="5"/><rect class="b" x="1" y="1" width="272" height="36" rx="4"/></g><g class="r" transform="translate(1125 1525)"><rect class="ap" width="231" height="38" rx="5"/><rect class="b" x="1" y="1" width="229" height="36" rx="4"/></g><g class="r" transform="translate(1506 1525)"><rect class="ap" width="215" height="38" rx="5"/><rect class="b" x="1" y="1" width="213" height="36" rx="4"/></g><text class="h" transform="translate(1259 1450.125)"><tspan x="0" y="0">Default (Emergency ward)</tspan></text><text class="h" transform="translate(1632 1452.125)"><tspan x="0" y="0">Set default</tspan></text><text class="h" transform="translate(1135 1551.125)"><tspan x="0" y="0">None</tspan></text><text class="h" transform="translate(1516 1551.125)"><tspan x="0" y="0">Jacob (Patient)</tspan></text><text class="s" transform="translate(1125 1449.125)"><tspan x="0" y="0">Background</tspan></text><path class="i" d="M4.827,4.936,9.616,0V9.616H0Z" transform="translate(1505.122 1435.078) rotate(45)"/><path class="i" d="M4.827,4.936,9.616,0V9.616H0Z" transform="translate(1338.122 1536.078) rotate(45)"/><path class="i" d="M4.827,4.936,9.616,0V9.616H0Z" transform="translate(1703.122 1536.078) rotate(45)"/><line class="t" y2="37" transform="translate(1490.5 1424.5)"/><line class="t" y2="37" transform="translate(1323.5 1525.5)"/><line class="t" y2="37" transform="translate(1688.5 1525.5)"/><g class="r" transform="translate(564 1460)"><rect class="ap" width="518" height="617" rx="5"/><rect class="b" x="1" y="1" width="516" height="615" rx="4"/></g><text class="h" transform="translate(579 1530)"><tspan x="12.03" y="16">&quot;Doctor, I am feeling chest pain since yesterday. The pain is </tspan><tspan x="41.755" y="37">continuous and is located just in the middle of my chest, </tspan><tspan x="7.706" y="58">worsening when I breathe and when I lay down on my bed. I </tspan><tspan x="32.104" y="79">suffer from arterial hypertension and smoke 20 cigarettes </tspan><tspan x="5.104" y="100">every day. My father had a “heart attack” at my age and I am </tspan><tspan x="313.539" y="121">very worried about it.&quot; </tspan></text><text class="h" transform="translate(579 1675)"><tspan x="0" y="16">PHYSICAL EXAMINATION </tspan><tspan x="0" y="37">Cardiac and pulmonary auscultation are normal; chest pain </tspan><tspan x="0" y="58">does not worse with palpation of the thorax; there is no </tspan><tspan x="0" y="79">jugular stasis nor lower limb edema.</tspan></text><rect class="f" width="101" height="18" rx="5" transform="translate(1129 1493)"/><text class="s" transform="translate(1138 1508.125)"><tspan x="0" y="0">Character</tspan></text><text class="s" transform="translate(1425 1552.125)"><tspan x="0" y="0">+</tspan></text><g transform="translate(-1220 367)"><rect class="b" width="364" height="56" transform="translate(1931 1092)"/><g class="p" transform="translate(2262 1108)"><rect class="b" width="24" height="24"/><path class="u" d="M3,21H21V19H3v2Zm0-4H21V15H3v2Zm0-4H21V11H3v2ZM3,9H21V7H3V9ZM3,3V5H21V3Z"/></g><g class="p" transform="translate(2229 1108)"><rect class="b" width="24" height="24"/><path class="u" d="M3,21H21V19H3v2Zm6-4H21V15H9v2ZM3,13H21V11H3v2ZM9,9H21V7H9V9ZM3,3V5H21V3Z"/></g><g class="p" transform="translate(2196 1108)"><rect class="b" width="24" height="24"/><path class="v" d="M7,15v2H17V15ZM3,21H21V19H3v2Zm0-8H21V11H3v2ZM7,7V9H17V7ZM3,3V5H21V3Z"/></g><g class="p" transform="translate(2163 1108)"><path class="u" d="M15,15H3v2H15V15Zm0-8H3V9H15V7ZM3,13H21V11H3v2Zm0,8H21V19H3v2ZM3,3V5H21V3Z"/><rect class="b" width="24" height="24"/></g><path class="w" d="M543.5,15V43" transform="translate(1604 1092)"/><g class="x" transform="translate(2091 1108)"><rect class="y" width="24" height="4" transform="translate(0 20)"/><rect class="b" width="24" height="24"/><path class="q" d="M16.5,8.9,7.6,0,6.2,1.4,8.6,3.8,3.5,8.9a1.45,1.45,0,0,0,0,2.1L9,16.5a1.5,1.5,0,0,0,1.1.4,1.5,1.5,0,0,0,1.1-.4L16.7,11a1.684,1.684,0,0,0-.2-2.1ZM5.1,10,9.9,5.2,14.7,10Zm13.8,1.5s-2,2.2-2,3.5a2,2,0,1,0,4,0c0-1.3-2-3.5-2-3.5Z"/><g class="p" transform="translate(23)"><rect class="b" width="24" height="24"/><path class="q" d="M7,10l5,5,5-5Z"/></g></g><g class="p" transform="translate(2052 1108)"><rect class="b" width="24" height="24"/><path class="z" d="M11.9,17a6.018,6.018,0,0,0,6-6V3H15.4v8a3.5,3.5,0,0,1-7,0V3H5.9v8a6.018,6.018,0,0,0,6,6Zm-7,2v2h14V19Z" transform="translate(0.1)"/></g><g class="p" transform="translate(2019 1108)"><rect class="b" width="24" height="24"/><path class="z" d="M10,4V7h2.2L8.7,15H6v3h8V15H11.7l3.5-8H18V4Z"/></g><g class="p" transform="translate(1991 1108)"><rect class="b" width="24" height="24"/><path class="q" d="M15.5,10.8A3.718,3.718,0,0,0,17.2,8a3.889,3.889,0,0,0-4-4H7V18h7a3.714,3.714,0,0,0,3.7-3.8,3.755,3.755,0,0,0-2.2-3.4ZM9.9,6.5h3a1.5,1.5,0,0,1,0,3h-3v-3Zm3.5,9H9.9v-3h3.5A1.538,1.538,0,0,1,14.9,14a1.473,1.473,0,0,1-1.5,1.5Z"/></g><path class="w" d="M302.5,15V43" transform="translate(1680 1092)"/><text class="aa" transform="translate(1923 1125)"><tspan x="0" y="0">11</tspan></text><g class="at" transform="matrix(1, 0, 0, 1, 1220, -367)"><path class="b" d="M1.489,0H135.511C136.333,0,137,.9,137,2V54c0,1.1-.667,2-1.489,2H1.489C.667,56,0,55.1,0,54V2C0,.9.667,0,1.489,0Z" transform="translate(557 1459)"/></g><path class="w" d="M302.5,15V43" transform="translate(1605 1092)"/><text class="aa" transform="translate(1807 1126)"><tspan x="0" y="0">Roboto</tspan></text><g class="p" transform="translate(1874 1108)"><rect class="b" width="24" height="24"/><path class="q" d="M7,10l5,5,5-5Z"/></g><g class="p" transform="translate(1949 1108)"><rect class="b" width="24" height="24"/><path class="q" d="M7,10l5,5,5-5Z"/></g></g><g transform="translate(282 1433)"><g transform="translate(705 54)"><path class="f" d="M0,16V0L11.6,11.6H4.8l-.4.1Z"/><path class="f" d="M9.1,16.7,5.5,18.2.8,7.1,4.5,5.6Z"/><rect width="2" height="8" transform="translate(2.825 9.391) rotate(-22.773)"/><path d="M1,2.4V13.6l3-2.9.4-.1H9.2Z"/></g></g><path class="w" d="M543.5,15V517.5" transform="translate(1090 969.5) rotate(90)"/><g transform="translate(137 -2276)"><g class="r" transform="translate(975 3887)"><rect class="ap" width="626" height="466" rx="5"/><rect class="b" x="1" y="1" width="624" height="464" rx="4"/></g><text class="s" transform="translate(992 3985)"><tspan x="0" y="0">Group description</tspan></text><text class="s" transform="translate(992 4097)"><tspan x="0" y="0">Label</tspan></text><text class="s" transform="translate(992 4185)"><tspan x="0" y="0">Label</tspan></text><text class="s" transform="translate(992 4273)"><tspan x="0" y="0">Label</tspan></text><text class="s" transform="translate(1249 4097)"><tspan x="0" y="0">Destination</tspan></text><text class="s" transform="translate(1249 4185)"><tspan x="0" y="0">Destination</tspan></text><text class="s" transform="translate(1249 4273)"><tspan x="0" y="0">Destination</tspan></text><g class="r" transform="translate(992 4108)"><rect class="ap" width="227" height="38" rx="5"/><rect class="b" x="1" y="1" width="225" height="36" rx="4"/></g><g class="r" transform="translate(1200 3960)"><rect class="ap" width="384" height="38" rx="5"/><rect class="b" x="1" y="1" width="382" height="36" rx="4"/></g><g class="r" transform="translate(992 4196)"><rect class="ap" width="227" height="38" rx="5"/><rect class="b" x="1" y="1" width="225" height="36" rx="4"/></g><g class="r" transform="translate(992 4284)"><rect class="ap" width="227" height="38" rx="5"/><rect class="b" x="1" y="1" width="225" height="36" rx="4"/></g><text class="h" transform="translate(1000 4118.124)"><tspan x="0" y="16">Generate hypothesis</tspan></text><text class="h" transform="translate(1000 4206.124)"><tspan x="0" y="16">More information</tspan></text><text class="h" transform="translate(1000 4294.124)"><tspan x="0" y="16">Call the supervisor</tspan></text><rect class="f" width="90" height="18" rx="5" transform="translate(992 3878)"/><text class="s" transform="translate(1001 3893.124)"><tspan x="0" y="0">Actions</tspan></text><path class="w" d="M543.5,15V608.932" transform="translate(1599.432 3613.5) rotate(90)"/><path class="w" d="M543.5,15V608.932" transform="translate(1599.432 3701.5) rotate(90)"/><path class="w" d="M543.5,15V608.932" transform="translate(1599.432 3789.5) rotate(90)"/><path class="w" d="M543.5,15V608.932" transform="translate(1599.432 3409.5) rotate(90)"/><path class="w" d="M543.5,15V608.932" transform="translate(1599.432 3521.5) rotate(90)"/><g class="r" transform="translate(1249 4108)"><rect class="ap" width="190" height="38" rx="5"/><rect class="b" x="1" y="1" width="188" height="36" rx="4"/></g><g class="r" transform="translate(990 3908)"><rect class="ap" width="229" height="38" rx="5"/><rect class="b" x="1" y="1" width="227" height="36" rx="4"/></g><g class="r" transform="translate(990 4020)"><rect class="ap" width="229" height="38" rx="5"/><rect class="b" x="1" y="1" width="227" height="36" rx="4"/></g><g class="r" transform="translate(1249 4196)"><rect class="ap" width="190" height="38" rx="5"/><rect class="b" x="1" y="1" width="188" height="36" rx="4"/></g><g class="r" transform="translate(1249 4284)"><rect class="ap" width="190" height="38" rx="5"/><rect class="b" x="1" y="1" width="188" height="36" rx="4"/></g><text class="h" transform="translate(1259 4134.124)"><tspan x="0" y="0">Hypothesis 1</tspan></text><text class="h" transform="translate(1001 3934.124)"><tspan x="0" y="0">Group</tspan></text><text class="h" transform="translate(1001 4046.124)"><tspan x="0" y="0">Button</tspan></text><text class="h" transform="translate(1219 3985.124)"><tspan x="0" y="0">What do you want to do?</tspan></text><text class="h" transform="translate(1259 4222.124)"><tspan x="0" y="0">More info. 1</tspan></text><text class="h" transform="translate(1259 4310.124)"><tspan x="0" y="0">Supervisor 1</tspan></text><path class="i" d="M4.827,4.936,9.616,0V9.616H0Z" transform="translate(1419.8 4119.078) rotate(45)"/><path class="i" d="M4.827,4.936,9.616,0V9.616H0Z" transform="translate(1199.8 3919.078) rotate(45)"/><path class="i" d="M4.827,4.936,9.616,0V9.616H0Z" transform="translate(1199.8 4031.078) rotate(45)"/><path class="i" d="M4.827,4.936,9.616,0V9.616H0Z" transform="translate(1419.8 4207.078) rotate(45)"/><path class="i" d="M4.827,4.936,9.616,0V9.616H0Z" transform="translate(1419.8 4295.078) rotate(45)"/><line class="t" y2="37" transform="translate(1403.5 4108.5)"/><line class="t" y2="37" transform="translate(1183.5 3908.5)"/><line class="t" y2="37" transform="translate(1183.5 4020.5)"/><line class="t" y2="37" transform="translate(1403.5 4196.5)"/><line class="t" y2="37" transform="translate(1403.5 4284.5)"/><g class="p" transform="translate(1560 4115)"><rect class="b" width="24" height="24"/><path class="q" d="M11,5v6H5v2h6v6h2V13h6V11H13V5Z"/></g><g class="p" transform="translate(1560 4203)"><rect class="b" width="24" height="24"/><path class="q" d="M11,5v6H5v2h6v6h2V13h6V11H13V5Z"/></g><g class="p" transform="translate(1560 4291)"><rect class="b" width="24" height="24"/><path class="q" d="M11,5v6H5v2h6v6h2V13h6V11H13V5Z"/></g><g class="p" transform="translate(1526 4115)"><rect class="b" width="24" height="24"/><path class="q" d="M16.6,8.6,12,13.2,7.4,8.6,6,10l6,6,6-6Z"/></g><g class="p" transform="translate(1526 4203)"><rect class="b" width="24" height="24"/><path class="q" d="M16.6,8.6,12,13.2,7.4,8.6,6,10l6,6,6-6Z"/></g><g class="p" transform="translate(1526 4291)"><rect class="b" width="24" height="24"/><path class="q" d="M16.6,8.6,12,13.2,7.4,8.6,6,10l6,6,6-6Z"/></g><g class="p" transform="translate(1492 4115)"><rect class="b" width="24" height="24"/><path class="q" d="M12,8,6,14l1.4,1.4L12,10.8l4.6,4.6L18,14Z"/></g><g class="p" transform="translate(1492 4203)"><rect class="b" width="24" height="24"/><path class="q" d="M12,8,6,14l1.4,1.4L12,10.8l4.6,4.6L18,14Z"/></g><g class="p" transform="translate(1492 4291)"><rect class="b" width="24" height="24"/><path class="q" d="M12,8,6,14l1.4,1.4L12,10.8l4.6,4.6L18,14Z"/></g><g class="p" transform="translate(1458 4115)"><rect class="b" width="24" height="24"/><path class="q" d="M19,6.4,17.6,5,12,10.6,6.4,5,5,6.4,10.6,12,5,17.6,6.4,19,12,13.4,17.6,19,19,17.6,13.4,12Z"/></g><g class="p" transform="translate(1458 4203)"><rect class="b" width="24" height="24"/><path class="q" d="M19,6.4,17.6,5,12,10.6,6.4,5,5,6.4,10.6,12,5,17.6,6.4,19,12,13.4,17.6,19,19,17.6,13.4,12Z"/></g><g class="p" transform="translate(1458 4291)"><rect class="b" width="24" height="24"/><path class="q" d="M19,6.4,17.6,5,12,10.6,6.4,5,5,6.4,10.6,12,5,17.6,6.4,19,12,13.4,17.6,19,19,17.6,13.4,12Z"/></g></g><g class="ab" transform="translate(1619.25 1455.25) rotate(180)"><path class="ac" d="M30,17H10A7,7,0,0,1,10,3H30a7,7,0,0,1,0,14Z" transform="translate(3.25 1.25)"/><g class="as" transform="matrix(-1, 0, 0, -1, 1619.25, 1455.25)"><path class="ad" d="M10,0A10,10,0,1,1,0,10,10,10,0,0,1,10,0Z" transform="translate(1616 1454) rotate(180)"/></g></g><g class="ae" transform="translate(98 -172.398)"><image width="1732.432" height="974.493" transform="translate(188.237 589.705)" xlink:href="Editing%20-%20preview%20edit%20mode%202-image2.png"/></g><rect class="af" width="212" height="47" rx="23.5" transform="translate(1396.045 1162)"/><text class="ag" transform="translate(1431.045 1194)"><tspan x="0" y="0">PATIENT Jakob</tspan></text><g class="a" transform="translate(463 1101)"><rect class="ap" width="718" height="144" rx="12"/><rect class="b" x="0.5" y="0.5" width="717" height="143" rx="11.5"/></g><rect class="ah" width="212" height="59" rx="29.5" transform="translate(479 1164)"/><rect class="ah" width="212" height="59" rx="29.5" transform="translate(706 1164)"/><rect class="ah" width="212" height="59" rx="29.5" transform="translate(935 1164)"/><text class="ai" transform="translate(492.5 1200)"><tspan x="0" y="0">Generate hypothesis</tspan></text><text class="ai" transform="translate(735 1200)"><tspan x="0" y="0">More information</tspan></text><text class="ai" transform="translate(964 1200)"><tspan x="0" y="0">Call the supervisor</tspan></text><text class="aj" transform="translate(481 1112)"><tspan x="0" y="30">What do you want to do?</tspan></text><text class="ai" transform="translate(500 657)"><tspan x="40.123" y="22">&quot;Doctor, I am feeling chest pain since yesterday. The </tspan><tspan x="28.092" y="49">pain is continuous and is located just in the middle of </tspan><tspan x="49.234" y="76">my chest, worsening when I breathe and when I lay </tspan><tspan x="5.396" y="103">down on my bed. I suffer from arterial hypertension and </tspan><tspan x="25.006" y="130">smoke 20 cigarettes every day. My father had a “heart </tspan><tspan x="61.949" y="157">attack” at my age and I am very worried about it.&quot; </tspan></text><text class="ak" transform="translate(500 848)"><tspan x="0" y="19">PHYSICAL EXAMINATION </tspan><tspan class="al"><tspan x="0" y="46">Cardiac and pulmonary auscultation are normal; chest </tspan><tspan x="0" y="73">pain does not worse with palpation of the thorax; there </tspan><tspan x="0" y="100">is no jugular stasis nor lower limb edema.</tspan></tspan></text><g class="d" transform="translate(1219 566)"><rect class="ap" width="502" height="679"/><rect class="b" x="2.5" y="2.5" width="497" height="674"/></g><g class="d" transform="translate(473 630)"><rect class="ap" width="609" height="345"/><rect class="b" x="2.5" y="2.5" width="604" height="340"/></g><g class="d" transform="translate(447 1088)"><rect class="ap" width="751" height="170"/><rect class="b" x="2.5" y="2.5" width="746" height="165"/></g><text class="am" transform="translate(332 1473.125)"><tspan x="0" y="22">Screen 2</tspan></text><text class="h" transform="translate(331 1505)"><tspan x="0" y="16">Help text to supervisor. </tspan><tspan x="0" y="37">Something like &quot;how to </tspan><tspan x="0" y="58">set this stage&quot;. </tspan></text><text class="s" transform="translate(564 1428)"><tspan x="0" y="16">Description</tspan></text><line class="an" y2="663" transform="translate(550.5 1414.5)"/><line class="ao" y2="170" transform="translate(1017 657)"/></g></svg>