<svg xmlns="http://www.w3.org/2000/svg" xmlns:xlink="http://www.w3.org/1999/xlink" width="1920" height="2080" viewBox="0 0 1920 2080"><defs><style>.a,.f,.g,.k,.o,.v{fill:#fff;}.a,.z{stroke:#707070;}.ad,.b,.d,.p,.q,.y,.z{fill:none;}.c{clip-path:url(#z);}.d{stroke:#00ffe5;stroke-width:5px;}.e{clip-path:url(#a);}.f,.o,.r,.s{font-size:20px;}.f{font-family:SegoeUI, Segoe UI;}.h,.i,.t,.w,.x{fill:gray;}.h{font-size:56px;}.h,.r,.s,.w,.x{font-family:Arial-BoldMT, Arial;}.h,.o,.r,.s,.w,.x{font-weight:700;}.i,.x{font-size:18px;}.i,.k,.l,.t{font-family:ArialMT, Arial;}.j,.l,.r{fill:#a6a6a6;}.k,.l{font-size:14px;}.m{clip-path:url(#b);}.n{fill:#0d4a71;}.o{font-family:SegoeUI-Bold, Segoe UI;}.p{stroke:#fff;}.s{fill:#848484;}.t{font-size:32px;}.u{fill:#ba2027;}.v,.y{stroke:#a6a6a6;}.v{stroke-width:2px;}.w{font-size:24px;}.aa{clip-path:url(#c);}.ab{fill:rgba(97,97,97,0.38);}.ab,.ac,.ad,.ag,.ah,.ak{fill-rule:evenodd;}.ac{fill:rgba(0,0,0,0.54);}.ad{stroke:rgba(0,0,0,0.12);}.ae{clip-path:url(#g);}.af,.ag{opacity:0.54;}.ah{opacity:0.38;}.ai{font-size:16px;font-family:Roboto-Medium, Roboto;font-weight:500;opacity:0.87;}.aj{clip-path:url(#t);}.ak,.al{fill:#009688;}.ak{opacity:0.5;}.am,.an{stroke:none;}.an{fill:#707070;}.ao{fill:#f2f2f2;}.ap{filter:url(#u);}.aq{filter:url(#l);}</style><clipPath id="a"><rect class="a" width="1614" height="712" transform="translate(153 367)"/></clipPath><clipPath id="b"><rect class="a" width="655" height="597.711" transform="translate(-14462 -12492)"/></clipPath><clipPath id="c"><rect class="b" width="24" height="24"/></clipPath><clipPath id="g"><rect class="b" width="47" height="24"/></clipPath><filter id="l" x="554" y="1458" width="143" height="62" filterUnits="userSpaceOnUse"><feOffset dy="2" input="SourceAlpha"/><feGaussianBlur stdDeviation="1" result="m"/><feFlood flood-opacity="0.239"/><feComposite operator="in" in2="m"/><feComposite in="SourceGraphic"/></filter><clipPath id="t"><rect class="b" width="40" height="26"/></clipPath><filter id="u" x="1593" y="1433" width="26" height="26" filterUnits="userSpaceOnUse"><feOffset dy="2" input="SourceAlpha"/><feGaussianBlur stdDeviation="1" result="v"/><feFlood flood-opacity="0.239"/><feComposite operator="in" in2="v"/><feComposite in="SourceGraphic"/></filter><clipPath id="z"><rect width="1920" height="2080"/></clipPath></defs><g id="y" class="c"><rect class="ao" width="1920" height="2080"/><g class="d" transform="translate(397 546.5)"><rect class="am" width="1263" height="667"/><rect class="b" x="2.5" y="2.5" width="1258" height="662"/></g><g class="e" transform="translate(0 179)"><image width="2029" height="1141" transform="translate(8 105)" xlink:href="Editing%20-%20preview%20edit%20mode-image.png"/></g><text class="f" transform="translate(838 702.5)"><tspan x="0" y="22">Doctor, we have a man, 51 years old, who </tspan><tspan x="0" y="49">entered the emergency department </tspan><tspan x="0" y="76">reporting chest pain. His vital signs are </tspan><tspan x="0" y="103">ABP 144x92 mmHG; HR 78 bpm; RR 21 </tspan><tspan x="0" y="130">rpm; Temperature 37 ºC; O2 Sat 98%.</tspan><tspan x="0" y="157"></tspan></text><rect class="g" width="1920" height="100"/><rect class="g" width="1614" height="88" transform="translate(153 377)"/><text class="h" transform="translate(153 286)"><tspan x="0" y="0">Preview case</tspan></text><text class="i" transform="translate(153 334)"><tspan x="0" y="0">Here&apos;s how your case will appear to students.</tspan></text><rect class="j" width="153" height="27" rx="5" transform="translate(428 144)"/><rect class="j" width="70" height="27" rx="5" transform="translate(153 144)"/><text class="k" transform="translate(166 150)"><tspan x="1" y="13" xml:space="preserve">HOME      </tspan></text><text class="l" transform="translate(231 150)"><tspan x="0" y="13">&gt;</tspan></text><text class="l" transform="translate(411 150)"><tspan x="0" y="13">&gt;</tspan></text><rect class="j" width="153" height="27" rx="5" transform="translate(248 144)"/><text class="k" transform="translate(256 150)"><tspan x="1.344" y="13" xml:space="preserve">CREATE NEW CASE    </tspan></text><text class="k" transform="translate(436 150)"><tspan x="15.21" y="13">PREVIEW CASE</tspan></text><g class="m" transform="translate(14752 13108.166)"><image width="1833.235" height="1031.195" transform="translate(-14618.591 -12718.29)" xlink:href="Editing%20-%20preview%20edit%20mode-image2.png"/></g><rect class="n" width="244" height="47" rx="23.5" transform="translate(496 1190)"/><text class="o" transform="translate(551 1222)"><tspan x="0" y="0">NURSE Agnes </tspan></text><line class="p" y2="149" transform="translate(822 698)"/><g class="q" transform="translate(564 403)"><path class="am" d="M5.691,0h95.617C104.452,0,107,2.239,107,5V32c0,2.761-2.548,5-5.691,5H5.691C2.548,37,0,34.761,0,32V5C0,2.239,2.548,0,5.691,0Z"/><path class="an" d="M 5.691490173339844 1 C 3.104591369628906 1 1.000007629394531 2.794384002685547 1.000007629394531 5 L 1.000007629394531 32 C 1.000007629394531 34.20561599731445 3.104591369628906 36 5.691490173339844 36 L 101.3085174560547 36 C 103.8954162597656 36 106 34.20561599731445 106 32 L 106 5 C 106 2.794384002685547 103.8954162597656 1 101.3085174560547 1 L 5.691490173339844 1 M 5.691490173339844 0 L 101.3085174560547 0 C 104.4518356323242 0 107 2.238571166992188 107 5 L 107 32 C 107 34.76142883300781 104.4518356323242 37 101.3085174560547 37 L 5.691490173339844 37 C 2.548164367675781 37 7.62939453125e-06 34.76142883300781 7.62939453125e-06 32 L 7.62939453125e-06 5 C 7.62939453125e-06 2.238571166992188 2.548164367675781 0 5.691490173339844 0 Z"/></g><text class="r" transform="translate(618 429)"><tspan x="-22.778" y="0">EDIT</tspan></text><path class="j" d="M5.691,0h95.617C104.452,0,107,2.239,107,5V32c0,2.761-2.548,5-5.691,5H5.691C2.548,37,0,34.761,0,32V5C0,2.239,2.548,0,5.691,0Z" transform="translate(427 403)"/><text class="s" transform="translate(481 429)"><tspan x="-25.752" y="0">PLAY</tspan></text><text class="t" transform="translate(175 432)"><tspan x="0" y="0">Preview mode</tspan></text><g class="d" transform="translate(290 616)"><rect class="am" width="655" height="642"/><rect class="b" x="2.5" y="2.5" width="650" height="637"/></g><g class="d" transform="translate(808 681.5)"><rect class="am" width="441" height="183"/><rect class="b" x="2.5" y="2.5" width="436" height="178"/></g><rect class="u" width="381" height="59" rx="29.5" transform="translate(1112 1180)"/><text class="f" transform="translate(1181 1218)"><tspan x="0" y="0">Ok. I would like to see him. </tspan></text><g class="d" transform="translate(1096 1163.5)"><rect class="am" width="411" height="92"/><rect class="b" x="2.5" y="2.5" width="406" height="87"/></g><g class="v" transform="translate(290 1353)"><rect class="am" width="1477" height="460" rx="5"/><rect class="b" x="1" y="1" width="1475" height="458" rx="4"/></g><g class="v" transform="translate(1112 1502)"><rect class="am" width="626" height="80" rx="5"/><rect class="b" x="1" y="1" width="624" height="78" rx="4"/></g><g class="v" transform="translate(1112 1414)"><rect class="am" width="626" height="58" rx="5"/><rect class="b" x="1" y="1" width="624" height="56" rx="4"/></g><g class="v" transform="translate(1112 1611)"><rect class="am" width="626" height="177" rx="5"/><rect class="b" x="1" y="1" width="624" height="175" rx="4"/></g><text class="w" transform="translate(332 1473.125)"><tspan x="0" y="22">Introductoin</tspan></text><text class="i" transform="translate(331 1505)"><tspan x="0" y="16">How the player is been </tspan><tspan x="0" y="37">introduced to this case.</tspan></text><g class="v" transform="translate(1249 1424)"><rect class="am" width="274" height="38" rx="5"/><rect class="b" x="1" y="1" width="272" height="36" rx="4"/></g><g class="v" transform="translate(1125 1525)"><rect class="am" width="231" height="38" rx="5"/><rect class="b" x="1" y="1" width="229" height="36" rx="4"/></g><g class="v" transform="translate(1506 1525)"><rect class="am" width="215" height="38" rx="5"/><rect class="b" x="1" y="1" width="213" height="36" rx="4"/></g><text class="i" transform="translate(1259 1450.125)"><tspan x="0" y="0">Emergency ward</tspan></text><text class="i" transform="translate(1632 1452.125)"><tspan x="0" y="0">Set default</tspan></text><text class="i" transform="translate(1135 1551.125)"><tspan x="0" y="0">Anges (Nurse)</tspan></text><text class="i" transform="translate(1516 1551.125)"><tspan x="0" y="0">None</tspan></text><text class="x" transform="translate(1125 1449.125)"><tspan x="0" y="0">Background</tspan></text><path class="j" d="M4.827,4.936,9.616,0V9.616H0Z" transform="translate(1505.122 1435.078) rotate(45)"/><path class="j" d="M4.827,4.936,9.616,0V9.616H0Z" transform="translate(1338.122 1536.078) rotate(45)"/><path class="j" d="M4.827,4.936,9.616,0V9.616H0Z" transform="translate(1703.122 1536.078) rotate(45)"/><line class="y" y2="37" transform="translate(1490.5 1424.5)"/><line class="y" y2="37" transform="translate(1323.5 1525.5)"/><line class="y" y2="37" transform="translate(1688.5 1525.5)"/><text class="x" transform="translate(1129 1709)"><tspan x="0" y="0">Label</tspan></text><text class="x" transform="translate(1386 1709)"><tspan x="0" y="0">Destination</tspan></text><text class="x" transform="translate(564 1428)"><tspan x="0" y="16">Description</tspan></text><g class="v" transform="translate(1129 1720)"><rect class="am" width="227" height="38" rx="5"/><rect class="b" x="1" y="1" width="225" height="36" rx="4"/></g><g class="v" transform="translate(564 1460)"><rect class="am" width="518" height="328" rx="5"/><rect class="b" x="1" y="1" width="516" height="326" rx="4"/></g><text class="i" transform="translate(1137 1730.125)"><tspan x="0" y="16">Ok. I would like to see him. </tspan></text><text class="i" transform="translate(579 1530)"><tspan x="0" y="16">Doctor, we have a man, 51 years old, who entered the </tspan><tspan x="0" y="37">emergency department reporting chest pain. His vital signs </tspan><tspan x="0" y="58">are ABP 144x92 mmHG; HR 78 bpm; RR 21 rpm; </tspan><tspan x="0" y="79">Temperature 37 ºC; O2 Sat 98%.</tspan><tspan x="0" y="100"></tspan><tspan x="0" y="121"></tspan></text><line class="z" y2="415" transform="translate(550.5 1375.5)"/><rect class="g" width="101" height="18" rx="5" transform="translate(1129 1493)"/><rect class="g" width="90" height="18" rx="5" transform="translate(1129 1602)"/><text class="x" transform="translate(1138 1508.125)"><tspan x="0" y="0">Character</tspan></text><text class="x" transform="translate(1138 1617.125)"><tspan x="0" y="0">Actions</tspan></text><text class="x" transform="translate(1425 1552.125)"><tspan x="0" y="0">+</tspan></text><g transform="translate(-1220 367)"><rect class="b" width="364" height="56" transform="translate(1931 1092)"/><g class="aa" transform="translate(2262 1108)"><rect class="b" width="24" height="24"/><path class="ab" d="M3,21H21V19H3v2Zm0-4H21V15H3v2Zm0-4H21V11H3v2ZM3,9H21V7H3V9ZM3,3V5H21V3Z"/></g><g class="aa" transform="translate(2229 1108)"><rect class="b" width="24" height="24"/><path class="ab" d="M3,21H21V19H3v2Zm6-4H21V15H9v2ZM3,13H21V11H3v2ZM9,9H21V7H9V9ZM3,3V5H21V3Z"/></g><g class="aa" transform="translate(2196 1108)"><rect class="b" width="24" height="24"/><path class="ac" d="M7,15v2H17V15ZM3,21H21V19H3v2Zm0-8H21V11H3v2ZM7,7V9H17V7ZM3,3V5H21V3Z"/></g><g class="aa" transform="translate(2163 1108)"><path class="ab" d="M15,15H3v2H15V15Zm0-8H3V9H15V7ZM3,13H21V11H3v2Zm0,8H21V19H3v2ZM3,3V5H21V3Z"/><rect class="b" width="24" height="24"/></g><path class="ad" d="M543.5,15V43" transform="translate(1604 1092)"/><g class="ae" transform="translate(2091 1108)"><rect class="af" width="24" height="4" transform="translate(0 20)"/><rect class="b" width="24" height="24"/><path class="ag" d="M16.5,8.9,7.6,0,6.2,1.4,8.6,3.8,3.5,8.9a1.45,1.45,0,0,0,0,2.1L9,16.5a1.5,1.5,0,0,0,1.1.4,1.5,1.5,0,0,0,1.1-.4L16.7,11a1.684,1.684,0,0,0-.2-2.1ZM5.1,10,9.9,5.2,14.7,10Zm13.8,1.5s-2,2.2-2,3.5a2,2,0,1,0,4,0c0-1.3-2-3.5-2-3.5Z"/><g class="aa" transform="translate(23)"><rect class="b" width="24" height="24"/><path class="ag" d="M7,10l5,5,5-5Z"/></g></g><g class="aa" transform="translate(2052 1108)"><rect class="b" width="24" height="24"/><path class="ah" d="M11.9,17a6.018,6.018,0,0,0,6-6V3H15.4v8a3.5,3.5,0,0,1-7,0V3H5.9v8a6.018,6.018,0,0,0,6,6Zm-7,2v2h14V19Z" transform="translate(0.1)"/></g><g class="aa" transform="translate(2019 1108)"><rect class="b" width="24" height="24"/><path class="ah" d="M10,4V7h2.2L8.7,15H6v3h8V15H11.7l3.5-8H18V4Z"/></g><g class="aa" transform="translate(1991 1108)"><rect class="b" width="24" height="24"/><path class="ag" d="M15.5,10.8A3.718,3.718,0,0,0,17.2,8a3.889,3.889,0,0,0-4-4H7V18h7a3.714,3.714,0,0,0,3.7-3.8,3.755,3.755,0,0,0-2.2-3.4ZM9.9,6.5h3a1.5,1.5,0,0,1,0,3h-3v-3Zm3.5,9H9.9v-3h3.5A1.538,1.538,0,0,1,14.9,14a1.473,1.473,0,0,1-1.5,1.5Z"/></g><path class="ad" d="M302.5,15V43" transform="translate(1680 1092)"/><text class="ai" transform="translate(1923 1125)"><tspan x="0" y="0">11</tspan></text><g class="aq" transform="matrix(1, 0, 0, 1, 1220, -367)"><path class="b" d="M1.489,0H135.511C136.333,0,137,.9,137,2V54c0,1.1-.667,2-1.489,2H1.489C.667,56,0,55.1,0,54V2C0,.9.667,0,1.489,0Z" transform="translate(557 1459)"/></g><path class="ad" d="M302.5,15V43" transform="translate(1605 1092)"/><text class="ai" transform="translate(1807 1126)"><tspan x="0" y="0">Roboto</tspan></text><g class="aa" transform="translate(1874 1108)"><rect class="b" width="24" height="24"/><path class="ag" d="M7,10l5,5,5-5Z"/></g><g class="aa" transform="translate(1949 1108)"><rect class="b" width="24" height="24"/><path class="ag" d="M7,10l5,5,5-5Z"/></g></g><g transform="translate(282 1433)"><g transform="translate(705 54)"><path class="g" d="M0,16V0L11.6,11.6H4.8l-.4.1Z"/><path class="g" d="M9.1,16.7,5.5,18.2.8,7.1,4.5,5.6Z"/><rect width="2" height="8" transform="translate(2.825 9.391) rotate(-22.773)"/><path d="M1,2.4V13.6l3-2.9.4-.1H9.2Z"/></g></g><path class="ad" d="M543.5,15V517.5" transform="translate(1090 969.5) rotate(90)"/><path class="ad" d="M543.5,15V608.932" transform="translate(1736.432 1225.5) rotate(90)"/><path class="ad" d="M543.5,15V608.932" transform="translate(1736.432 1133.5) rotate(90)"/><g class="v" transform="translate(1386 1720)"><rect class="am" width="190" height="38" rx="5"/><rect class="b" x="1" y="1" width="188" height="36" rx="4"/></g><g class="v" transform="translate(1127 1632)"><rect class="am" width="229" height="38" rx="5"/><rect class="b" x="1" y="1" width="227" height="36" rx="4"/></g><text class="i" transform="translate(1396 1746.125)"><tspan x="0" y="0">Screen 2</tspan></text><text class="i" transform="translate(1138 1658.125)"><tspan x="0" y="0">Button</tspan></text><path class="j" d="M4.827,4.936,9.616,0V9.616H0Z" transform="translate(1556.8 1731.078) rotate(45)"/><path class="j" d="M4.827,4.936,9.616,0V9.616H0Z" transform="translate(1336.8 1643.078) rotate(45)"/><line class="y" y2="37" transform="translate(1540.5 1720.5)"/><line class="y" y2="37" transform="translate(1320.5 1632.5)"/><g class="aa" transform="translate(1697 1727)"><rect class="b" width="24" height="24"/><path class="ag" d="M11,5v6H5v2h6v6h2V13h6V11H13V5Z"/></g><g class="aa" transform="translate(1663 1727)"><rect class="b" width="24" height="24"/><path class="ag" d="M16.6,8.6,12,13.2,7.4,8.6,6,10l6,6,6-6Z"/></g><g class="aa" transform="translate(1629 1727)"><rect class="b" width="24" height="24"/><path class="ag" d="M12,8,6,14l1.4,1.4L12,10.8l4.6,4.6L18,14Z"/></g><g class="aa" transform="translate(1595 1727)"><rect class="b" width="24" height="24"/><path class="ag" d="M19,6.4,17.6,5,12,10.6,6.4,5,5,6.4,10.6,12,5,17.6,6.4,19,12,13.4,17.6,19,19,17.6,13.4,12Z"/></g><g class="aj" transform="translate(1579 1433)"><path class="ak" d="M37,10a6.957,6.957,0,0,1-7,7H10a6.957,6.957,0,0,1-7-7H3a6.957,6.957,0,0,1,7-7H30a6.957,6.957,0,0,1,7,7Z" transform="translate(-3 1)"/><g class="ap" transform="matrix(1, 0, 0, 1, -1579, -1433)"><path class="al" d="M10,0A10,10,0,1,1,0,10,10,10,0,0,1,10,0Z" transform="translate(1596 1434)"/></g></g><g class="aa" transform="translate(880 410)"><rect class="b" width="24" height="24"/><path class="ag" d="M12,4,10.6,5.4,16.2,11H4v2H16.2l-5.6,5.6L12,20l8-8Z"/></g><g class="aa" transform="translate(748 410)"><rect class="b" width="24" height="24"/><path class="ag" d="M20,11H7.8l5.6-5.6L12,4,4,12l8,8,1.4-1.4L7.8,13H20V11Z"/></g></g></svg>