<svg xmlns="http://www.w3.org/2000/svg" xmlns:xlink="http://www.w3.org/1999/xlink" width="1920" height="2258" viewBox="0 0 1920 2258"><defs><style>.a,.d,.h,.l,.n,.v{fill:#fff;}.a,.aa,.p{stroke:#707070;}.aa,.b,.j,.t{fill:none;}.c{clip-path:url(#ab);}.e,.f,.k,.m,.q{fill:gray;}.e{font-size:56px;}.e,.m,.q,.v{font-family:Arial-BoldMT, Arial;font-weight:700;}.f,.m,.n{font-size:18px;}.f,.h,.i,.k,.n,.o{font-family:ArialMT, Arial;}.g,.i,.o,.p{fill:#a6a6a6;}.h,.i{font-size:14px;}.j{stroke:#fff;}.k{font-size:32px;}.l,.t{stroke:#a6a6a6;}.l{stroke-width:2px;}.o{font-size:12px;}.q{font-size:24px;}.r{clip-path:url(#a);}.s{fill:url(#c);}.u{clip-path:url(#d);}.v{font-size:20px;}.w{clip-path:url(#e);}.x{clip-path:url(#l);}.y{clip-path:url(#o);}.z{fill:url(#p);}.ab{clip-path:url(#q);}.ac{fill:rgba(34,31,31,0.26);}.ac,.af,.ah{fill-rule:evenodd;}.ad{fill:#f1f1f1;stroke:rgba(0,0,0,0);stroke-width:0.5px;}.ae{clip-path:url(#t);}.af{opacity:0.54;}.ag{clip-path:url(#x);}.ah,.ai{fill:#009688;}.ah{opacity:0.5;}.aj{stroke:none;}.ak{fill:#f2f2f2;}.al{filter:url(#y);}.am{filter:url(#r);}</style><clipPath id="a"><rect class="a" width="196.731" height="179.524" transform="translate(-14462 -12492)"/></clipPath><pattern id="c" width="1" height="1" viewBox="182.741 -13.379 581.275 326.967"><image preserveAspectRatio="xMidYMid slice" width="550.618" height="309.723" xlink:href="Edit%20-%20Basic%20settings-image2.png"/></pattern><clipPath id="d"><rect class="b" width="109.716" height="37"/></clipPath><clipPath id="e"><rect class="b" width="94" height="37"/></clipPath><clipPath id="l"><rect class="a" width="123.248" height="171.951" transform="translate(1151 744)"/></clipPath><clipPath id="o"><rect class="a" width="240" height="189.316" transform="translate(660 1670)"/></clipPath><pattern id="p" preserveAspectRatio="none" width="100%" height="100%" viewBox="0 0 1920 1080"><image width="1920" height="1080" xlink:href="Edit%20-%20Basic%20settings-image4.png"/></pattern><clipPath id="q"><rect class="b" width="40.25" height="26.5"/></clipPath><filter id="r" x="254.75" y="1338.75" width="26.5" height="26.5" filterUnits="userSpaceOnUse"><feOffset dy="2" input="SourceAlpha"/><feGaussianBlur stdDeviation="1" result="s"/><feFlood flood-opacity="0.239"/><feComposite operator="in" in2="s"/><feComposite in="SourceGraphic"/></filter><clipPath id="t"><rect class="b" width="24" height="24"/></clipPath><clipPath id="x"><rect class="b" width="40" height="26"/></clipPath><filter id="y" x="1509" y="396" width="26" height="26" filterUnits="userSpaceOnUse"><feOffset dy="2" input="SourceAlpha"/><feGaussianBlur stdDeviation="1" result="z"/><feFlood flood-opacity="0.239"/><feComposite operator="in" in2="z"/><feComposite in="SourceGraphic"/></filter><clipPath id="ab"><rect width="1920" height="2258"/></clipPath></defs><g id="aa" class="c"><rect class="ak" width="1920" height="2258"/><rect class="d" width="1920" height="100"/><text class="e" transform="translate(153 286)"><tspan x="0" y="0">Edit case</tspan></text><text class="f" transform="translate(153 318)"><tspan x="0" y="16">Here&apos;s how your case will appear to students. You can also edit them. </tspan></text><rect class="g" width="153" height="27" rx="5" transform="translate(366 144)"/><rect class="g" width="70" height="27" rx="5" transform="translate(153 144)"/><text class="h" transform="translate(166 150)"><tspan x="1" y="13" xml:space="preserve">HOME      </tspan></text><text class="i" transform="translate(231 150)"><tspan x="0" y="13">&gt;</tspan></text><text class="i" transform="translate(349 150)"><tspan x="0" y="13">&gt;</tspan></text><rect class="g" width="90" height="27" rx="5" transform="translate(248 144)"/><text class="h" transform="translate(256 150)"><tspan x="11" y="13">DRAFTS</tspan></text><text class="h" transform="translate(374 150)"><tspan x="15.21" y="13">PREVIEW CASE</tspan></text><line class="j" y2="141" transform="translate(782 807)"/><text class="k" transform="translate(564 532)"><tspan x="0" y="0">Basic settings</tspan></text><g class="l" transform="translate(564 564)"><rect class="aj" width="1203" height="356" rx="5"/><rect class="b" x="1" y="1" width="1201" height="354" rx="4"/></g><text class="m" transform="translate(626 613.125)"><tspan x="0" y="16">Case name</tspan></text><text class="m" transform="translate(1249 789.125)"><tspan x="0" y="16">Author </tspan></text><text class="m" transform="translate(1249 819.125)"><tspan x="0" y="16">Institution</tspan></text><text class="m" transform="translate(1249 875.125)"><tspan x="0" y="16">Country</tspan></text><text class="m" transform="translate(1249 849.125)"><tspan x="0" y="16">Language</tspan></text><text class="m" transform="translate(1249 613.125)"><tspan x="0" y="16">Main complain</tspan></text><text class="m" transform="translate(1249 703.125)"><tspan x="0" y="16">Clinical setting</tspan></text><text class="m" transform="translate(1249 658.125)"><tspan x="0" y="16">Speciality</tspan></text><text class="m" transform="translate(1249 757.125)"><tspan x="0" y="16">Status</tspan></text><text class="m" transform="translate(625 707)"><tspan x="0" y="16">Description</tspan></text><g class="l" transform="translate(626 637)"><rect class="aj" width="593" height="38" rx="5"/><rect class="b" x="1" y="1" width="591" height="36" rx="4"/></g><g class="l" transform="translate(1413 607)"><rect class="aj" width="335.667" height="38" rx="5"/><rect class="b" x="1" y="1" width="333.667" height="36" rx="4"/></g><g class="l" transform="translate(1413 697)"><rect class="aj" width="335.667" height="38" rx="5"/><rect class="b" x="1" y="1" width="333.667" height="36" rx="4"/></g><g class="l" transform="translate(1413 652)"><rect class="aj" width="335.667" height="38" rx="5"/><rect class="b" x="1" y="1" width="333.667" height="36" rx="4"/></g><g class="l" transform="translate(626 732)"><rect class="aj" width="593" height="101" rx="5"/><rect class="b" x="1" y="1" width="591" height="99" rx="4"/></g><g transform="translate(194 67)"><rect class="g" width="114" height="26" rx="5" transform="translate(1227 546)"/><rect class="d" width="12" height="12" rx="3" transform="translate(1322 554)"/><text class="n" transform="translate(1233 565.124)"><tspan x="0" y="0">chest pain</tspan></text><text class="o" transform="translate(1325 563.124)"><tspan x="0" y="0">x</tspan></text></g><g transform="translate(194 157)"><rect class="g" width="163" height="26" rx="5" transform="translate(1227 546)"/><text class="n" transform="translate(1233 565.124)"><tspan x="0" y="0">Emergency room</tspan></text><rect class="d" width="12" height="12" rx="3" transform="translate(1372 554)"/><text class="o" transform="translate(1375 563.124)"><tspan x="0" y="0">x</tspan></text></g><g transform="translate(194 112)"><rect class="g" width="198" height="26" rx="5" transform="translate(1227 546)"/><rect class="d" width="12" height="12" rx="3" transform="translate(1406 554)"/><text class="n" transform="translate(1233 565.124)"><tspan x="0" y="0">Emergency medicine</tspan></text><text class="o" transform="translate(1409 563.124)"><tspan x="0" y="0">x</tspan></text></g><g transform="translate(318 67)"><rect class="g" width="146" height="26" rx="5" transform="translate(1227 546)"/><text class="n" transform="translate(1233 565.124)"><tspan x="0" y="0">other category</tspan></text><rect class="d" width="12" height="12" rx="3" transform="translate(1354 554)"/><text class="o" transform="translate(1357 563.124)"><tspan x="0" y="0">x</tspan></text></g><text class="f" transform="translate(1443 776.125)"><tspan x="0" y="0">Published</tspan></text><text class="f" transform="translate(1421 805.125)"><tspan x="0" y="0">Tiago Grangeia</tspan></text><text class="f" transform="translate(1421 835.125)"><tspan x="0" y="0">Unicamp</tspan></text><text class="f" transform="translate(1421 891.125)"><tspan x="0" y="0">Brazil</tspan></text><text class="f" transform="translate(1421 865.125)"><tspan x="0" y="0">Português - pt-BR</tspan></text><text class="f" transform="translate(1604 776.125)"><tspan x="0" y="0">Draft</tspan></text><g class="p" transform="translate(1580 764)"><circle class="aj" cx="6.5" cy="6.5" r="6.5"/><circle class="b" cx="6.5" cy="6.5" r="6"/></g><g class="a" transform="translate(1419 764)"><circle class="aj" cx="6.5" cy="6.5" r="6.5"/><circle class="b" cx="6.5" cy="6.5" r="6"/></g><text class="f" transform="translate(641 662.125)"><tspan x="0" y="0">Challenge 13</tspan></text><text class="f" transform="translate(641 745)"><tspan x="0" y="16">Woman, 23 years old, present to an emergency department </tspan><tspan x="0" y="37">complaining of chest pain.</tspan></text><text class="f" transform="translate(641 863)"><tspan x="0" y="0">Esse texto é o que aparece para o aluno antes de ele entrar no caso . </tspan></text><g class="l" transform="translate(564 1031)"><rect class="aj" width="1203" height="382" rx="5"/><rect class="b" x="1" y="1" width="1201" height="380" rx="4"/></g><g class="l" transform="translate(564 1536)"><rect class="aj" width="1203" height="382" rx="5"/><rect class="b" x="1" y="1" width="1201" height="380" rx="4"/></g><g class="l" transform="translate(592 1062)"><rect class="aj" width="245" height="323.612" rx="5"/><rect class="b" x="1" y="1" width="243" height="321.612" rx="4"/></g><g class="l" transform="translate(593 1565)"><rect class="aj" width="245" height="323.612" rx="5"/><rect class="b" x="1" y="1" width="243" height="321.612" rx="4"/></g><g class="l" transform="translate(867 1062)"><rect class="aj" width="245" height="323.612" rx="5"/><rect class="b" x="1" y="1" width="243" height="321.612" rx="4"/></g><g class="l" transform="translate(1141 1062)"><rect class="aj" width="245" height="323.612" rx="5"/><rect class="b" x="1" y="1" width="243" height="321.612" rx="4"/></g><text class="k" transform="translate(564 999)"><tspan x="0" y="0">Characters settings</tspan></text><text class="k" transform="translate(564 1500)"><tspan x="0" y="0">Background settings</tspan></text><text class="q" transform="translate(610 1263)"><tspan x="0" y="22">Agnes</tspan></text><text class="q" transform="translate(611 1766)"><tspan x="0" y="22">Emergency ward</tspan></text><text class="q" transform="translate(885 1263)"><tspan x="0" y="22">Harry</tspan></text><text class="q" transform="translate(1159 1263)"><tspan x="0" y="22">Jacob</tspan></text><text class="f" transform="translate(610 1292)"><tspan x="0" y="16">Nurse</tspan></text><text class="f" transform="translate(611 1795)"><tspan x="0" y="16">Emergency room</tspan></text><text class="f" transform="translate(885 1292)"><tspan x="0" y="16">Supervisor</tspan></text><text class="f" transform="translate(1159 1292)"><tspan x="0" y="16">Patient</tspan></text><g class="r" transform="translate(15078 13565.476)"><image width="550.618" height="309.723" transform="translate(-14509.032 -12559.967)" xlink:href="Edit%20-%20Basic%20settings-image.png"/></g><g class="r" transform="translate(15353 13565.476)"><rect class="s" width="550.618" height="309.723" transform="translate(-14509.032 -12559.967)"/></g><line class="t" x2="244" transform="translate(592.5 1253)"/><line class="t" x2="244" transform="translate(593.5 1756)"/><line class="t" x2="244" transform="translate(867.5 1253)"/><line class="t" x2="244" transform="translate(1141.5 1253)"/><g transform="translate(29 217)"><g class="u" transform="translate(685.284 1117)"><path class="g" d="M5.836,0H103.88c3.223,0,5.836,2.239,5.836,5V32c0,2.761-2.613,5-5.836,5H5.836C2.613,37,0,34.761,0,32V5C0,2.239,2.613,0,5.836,0Z"/><text class="v" transform="translate(55 26)"><tspan x="-39.448" y="0">DELETE</tspan></text></g><g class="w" transform="translate(577 1117)"><path class="g" d="M5,0H89a5,5,0,0,1,5,5V32a5,5,0,0,1-5,5H5a5,5,0,0,1-5-5V5A5,5,0,0,1,5,0Z"/><text class="v" transform="translate(47 26)"><tspan x="-22.778" y="0">EDIT</tspan></text></g></g><g transform="translate(30 720)"><g class="u" transform="translate(685.284 1117)"><path class="g" d="M5.836,0H103.88c3.223,0,5.836,2.239,5.836,5V32c0,2.761-2.613,5-5.836,5H5.836C2.613,37,0,34.761,0,32V5C0,2.239,2.613,0,5.836,0Z"/><text class="v" transform="translate(55 26)"><tspan x="-39.448" y="0">DELETE</tspan></text></g><g class="w" transform="translate(577 1117)"><path class="g" d="M5,0H89a5,5,0,0,1,5,5V32a5,5,0,0,1-5,5H5a5,5,0,0,1-5-5V5A5,5,0,0,1,5,0Z"/><text class="v" transform="translate(47 26)"><tspan x="-22.778" y="0">EDIT</tspan></text></g></g><g transform="translate(304 217)"><g class="u" transform="translate(685.284 1117)"><path class="g" d="M5.836,0H103.88c3.223,0,5.836,2.239,5.836,5V32c0,2.761-2.613,5-5.836,5H5.836C2.613,37,0,34.761,0,32V5C0,2.239,2.613,0,5.836,0Z"/><text class="v" transform="translate(55 26)"><tspan x="-39.448" y="0">DELETE</tspan></text></g><g class="w" transform="translate(577 1117)"><path class="g" d="M5,0H89a5,5,0,0,1,5,5V32a5,5,0,0,1-5,5H5a5,5,0,0,1-5-5V5A5,5,0,0,1,5,0Z"/><text class="v" transform="translate(47 26)"><tspan x="-22.778" y="0">EDIT</tspan></text></g></g><g class="u" transform="translate(1263.285 1334)"><path class="g" d="M5.836,0H103.88c3.223,0,5.836,2.239,5.836,5V32c0,2.761-2.613,5-5.836,5H5.836C2.613,37,0,34.761,0,32V5C0,2.239,2.613,0,5.836,0Z"/><text class="v" transform="translate(55 26)"><tspan x="-39.448" y="0">DELETE</tspan></text></g><g class="w" transform="translate(1155 1334)"><path class="g" d="M5,0H89a5,5,0,0,1,5,5V32a5,5,0,0,1-5,5H5a5,5,0,0,1-5-5V5A5,5,0,0,1,5,0Z"/><text class="v" transform="translate(47 26)"><tspan x="-22.778" y="0">EDIT</tspan></text></g><g class="x" transform="translate(52 337.049)"><image width="477.09" height="268.363" transform="translate(885.867 701.509)" xlink:href="Edit%20-%20Basic%20settings-image3.png"/></g><g class="l" transform="translate(1415 1062)"><rect class="aj" width="245" height="323.612" rx="5"/><rect class="b" x="1" y="1" width="243" height="321.612" rx="4"/></g><g class="l" transform="translate(867 1565)"><rect class="aj" width="245" height="323.612" rx="5"/><rect class="b" x="1" y="1" width="243" height="321.612" rx="4"/></g><g class="w" transform="translate(1491 1260)"><path class="g" d="M5,0H89a5,5,0,0,1,5,5V32a5,5,0,0,1-5,5H5a5,5,0,0,1-5-5V5A5,5,0,0,1,5,0Z"/><text class="v" transform="translate(47 26)"><tspan x="-29.912" y="0">+ ADD</tspan></text></g><g class="w" transform="translate(943 1763)"><path class="g" d="M5,0H89a5,5,0,0,1,5,5V32a5,5,0,0,1-5,5H5a5,5,0,0,1-5-5V5A5,5,0,0,1,5,0Z"/><text class="v" transform="translate(47 26)"><tspan x="-29.912" y="0">+ ADD</tspan></text></g><g class="l" transform="translate(1448 1158)"><rect class="aj" width="178" height="38" rx="5"/><rect class="b" x="1" y="1" width="176" height="36" rx="4"/></g><g class="l" transform="translate(900 1661)"><rect class="aj" width="178" height="38" rx="5"/><rect class="b" x="1" y="1" width="176" height="36" rx="4"/></g><text class="f" transform="translate(1458 1184.125)"><tspan x="0" y="0">Anges (Nurse)</tspan></text><text class="f" transform="translate(910 1687.125)"><tspan x="0" y="0">Anges (Nurse)</tspan></text><text class="f" transform="translate(1448 1154.125)"><tspan x="0" y="0">Choose one</tspan></text><text class="f" transform="translate(900 1657.125)"><tspan x="0" y="0">Choose one</tspan></text><text class="f" transform="translate(1522 1236.125)"><tspan x="0" y="0">OR</tspan></text><text class="f" transform="translate(974 1739.125)"><tspan x="0" y="0">OR</tspan></text><path class="g" d="M4.827,4.936,9.616,0V9.616H0Z" transform="translate(1608.121 1169.078) rotate(45)"/><path class="g" d="M4.827,4.936,9.616,0V9.616H0Z" transform="translate(1060.121 1672.078) rotate(45)"/><line class="t" y2="37" transform="translate(1593.5 1158.5)"/><line class="t" y2="37" transform="translate(1045.5 1661.5)"/><g class="l" transform="translate(1448 1158)"><rect class="aj" width="178" height="38" rx="5"/><rect class="b" x="1" y="1" width="176" height="36" rx="4"/></g><g class="l" transform="translate(900 1661)"><rect class="aj" width="178" height="38" rx="5"/><rect class="b" x="1" y="1" width="176" height="36" rx="4"/></g><text class="f" transform="translate(1458 1184.125)"><tspan x="0" y="0">Anges (Nurse)</tspan></text><text class="f" transform="translate(910 1687.125)"><tspan x="0" y="0">Emergency wa...</tspan></text><text class="f" transform="translate(900 1657.125)"><tspan x="0" y="0">Choose one</tspan></text><path class="g" d="M4.827,4.936,9.616,0V9.616H0Z" transform="translate(1608.121 1169.078) rotate(45)"/><path class="g" d="M4.827,4.936,9.616,0V9.616H0Z" transform="translate(1060.121 1672.078) rotate(45)"/><line class="t" y2="37" transform="translate(1593.5 1158.5)"/><line class="t" y2="37" transform="translate(1045.5 1661.5)"/><g class="y" transform="translate(-64 -103.316)"><rect class="z" width="411.177" height="230.975" transform="translate(573.954 1642.439)"/></g><g class="a" transform="translate(153 485)"><rect class="aj" width="381" height="840" rx="5"/><rect class="b" x="0.5" y="0.5" width="380" height="839" rx="4.5"/></g><g transform="translate(0 19)"><line class="aa" y1="20" x2="39" transform="translate(397 1086)"/><line class="aa" y1="20" x2="39" transform="translate(397 746)"/><g transform="translate(102 199)"><g class="l" transform="translate(273 495)"><rect class="aj" width="141" height="60" rx="5"/><rect class="b" x="1" y="1" width="139" height="58" rx="4"/></g><text class="f" transform="translate(344 531)"><tspan x="-43.018" y="0">Supervisor</tspan></text></g><g transform="translate(102 539)"><g class="l" transform="translate(273 495)"><rect class="aj" width="141" height="60" rx="5"/><rect class="b" x="1" y="1" width="139" height="58" rx="4"/></g><text class="f" transform="translate(344 531)"><tspan x="-43.018" y="0">Supervisor</tspan></text></g><g transform="translate(98 195)"><g class="l" transform="translate(273 495)"><rect class="aj" width="141" height="60" rx="5"/><rect class="b" x="1" y="1" width="139" height="58" rx="4"/></g><text class="f" transform="translate(344 531)"><tspan x="-43.018" y="0">Supervisor</tspan></text></g><g transform="translate(98 535)"><g class="l" transform="translate(273 495)"><rect class="aj" width="141" height="60" rx="5"/><rect class="b" x="1" y="1" width="139" height="58" rx="4"/></g><text class="f" transform="translate(344 531)"><tspan x="-43.018" y="0">Supervisor</tspan></text></g><path class="aa" d="M0,0V244.167" transform="translate(343.5 606.5)"/><path class="aa" d="M0,0V194.47" transform="translate(343.5 953.5)"/><g transform="translate(0 11)"><g class="l" transform="translate(273 495)"><rect class="aj" width="141" height="60" rx="5"/><rect class="b" x="1" y="1" width="139" height="58" rx="4"/></g><text class="f" transform="translate(344 531)"><tspan x="-47.03" y="0">Introduction</tspan></text></g><g transform="translate(0 111)"><g class="l" transform="translate(273 495)"><rect class="aj" width="141" height="60" rx="5"/><rect class="b" x="1" y="1" width="139" height="58" rx="4"/></g><text class="f" transform="translate(344 531)"><tspan x="-28.02" y="0">Patient</tspan></text></g><g transform="translate(0 271)"><g class="l" transform="translate(273 495)"><rect class="aj" width="141" height="60" rx="5"/><rect class="b" x="1" y="1" width="139" height="58" rx="4"/></g><text class="f" transform="translate(344 521)"><tspan x="-40.025" y="0">Generate </tspan><tspan x="-43.027" y="21">hypothesis</tspan></text></g><g transform="translate(0 611)"><g class="l" transform="translate(273 495)"><rect class="aj" width="141" height="60" rx="5"/><rect class="b" x="1" y="1" width="139" height="58" rx="4"/></g><text class="f" transform="translate(344 521)"><tspan x="-40.025" y="0">Generate </tspan><tspan x="-43.027" y="21">hypothesis</tspan></text></g><g transform="translate(0 351)"><g class="l" transform="translate(273 495)"><rect class="aj" width="141" height="60" rx="5"/><rect class="b" x="1" y="1" width="139" height="58" rx="4"/></g><text class="f" transform="translate(344 531)"><tspan x="-57.032" y="0">Text highligths</tspan></text></g><g transform="translate(0 711)"><g class="l" transform="translate(273 495)"><rect class="aj" width="141" height="60" rx="5"/><rect class="b" x="1" y="1" width="139" height="58" rx="4"/></g><text class="f" transform="translate(344 531)"><tspan x="-39.524" y="0">Feedback</tspan></text></g><g transform="translate(0 451)"><g class="l" transform="translate(273 495)"><rect class="aj" width="141" height="60" rx="5"/><rect class="b" x="1" y="1" width="139" height="58" rx="4"/></g><text class="f" transform="translate(344 531)"><tspan x="-19.006" y="0">EKG</tspan></text></g><g transform="translate(-93 191)"><g class="l" transform="translate(273 495)"><rect class="aj" width="141" height="60" rx="5"/><rect class="b" x="1" y="1" width="139" height="58" rx="4"/></g><text class="f" transform="translate(344 531)"><tspan x="-52.277" y="0">+ information</tspan></text></g><g transform="translate(-93 531)"><g class="l" transform="translate(273 495)"><rect class="aj" width="141" height="60" rx="5"/><rect class="b" x="1" y="1" width="139" height="58" rx="4"/></g><text class="f" transform="translate(344 531)"><tspan x="-52.277" y="0">+ information</tspan></text></g><g transform="translate(94 191)"><g class="l" transform="translate(273 495)"><rect class="aj" width="141" height="60" rx="5"/><rect class="b" x="1" y="1" width="139" height="58" rx="4"/></g><text class="f" transform="translate(344 531)"><tspan x="-43.018" y="0">Supervisor</tspan></text></g><g transform="translate(94 531)"><g class="l" transform="translate(273 495)"><rect class="aj" width="141" height="60" rx="5"/><rect class="b" x="1" y="1" width="139" height="58" rx="4"/></g><text class="f" transform="translate(344 531)"><tspan x="-43.018" y="0">Supervisor</tspan></text></g><line class="aa" x1="39" y2="20" transform="translate(251 666)"/><line class="aa" x1="39" y2="20" transform="translate(251 1006)"/><line class="aa" x1="39" y1="20" transform="translate(251 746)"/><line class="aa" x1="39" y1="20" transform="translate(251 1086)"/><line class="aa" x2="39" y2="20" transform="translate(397 666)"/><line class="aa" x2="39" y2="20" transform="translate(397 1006)"/><line class="aa" x2="46" transform="translate(321.5 716.5)"/><line class="aa" x2="46" transform="translate(321.5 1055.5)"/><line class="aa" x2="381" transform="translate(153 586)"/><line class="aa" x2="381" transform="translate(153 926)"/><line class="aa" x2="381" transform="translate(153 1186)"/><text class="m" transform="translate(169 623)"><tspan x="0" y="0">CYCLE 1</tspan></text><text class="m" transform="translate(169 524)"><tspan x="0" y="0">START</tspan></text><text class="m" transform="translate(169 962)"><tspan x="0" y="0">CYCLE 2</tspan></text><text class="m" transform="translate(169 1222)"><tspan x="0" y="0">FINAL</tspan></text></g><g class="ab" transform="translate(254.75 1338.75)"><path class="ac" d="M30,17H10A7,7,0,0,1,10,3H30a7,7,0,0,1,0,14Z" transform="translate(3.25 1.25)"/><g class="am" transform="matrix(1, 0, 0, 1, -254.75, -1338.75)"><path class="ad" d="M10,0A10,10,0,1,1,0,10,10,10,0,0,1,10,0Z" transform="translate(258 1340)"/></g></g><text class="f" transform="translate(200 1356)"><tspan x="-46.521" y="0">Thumbnails</tspan></text><text class="f" transform="translate(471 1355)"><tspan x="-38.004" y="0">Maximize</tspan></text><g class="ae" transform="translate(510 1336)"><rect class="b" width="24" height="24"/><path class="af" d="M7,14H5v5h5V17H7V14ZM5,10H7V7h3V5H5v5Zm12,7H14v2h5V14H17v3ZM14,5V7h3v3h2V5Z"/></g><g class="a" transform="translate(153 377)"><rect class="aj" width="1614" height="60" rx="5"/><rect class="b" x="0.5" y="0.5" width="1613" height="59" rx="4.5"/></g><g class="a" transform="translate(1330 377)"><rect class="aj" width="240" height="60"/><rect class="b" x="0.5" y="0.5" width="239" height="59"/></g><text class="f" transform="translate(1353 413)"><tspan x="0" y="0">Preview mode</tspan></text><g transform="translate(280 -3)"><g class="a" transform="translate(1393 390)"><rect class="aj" width="80" height="40" rx="5"/><rect class="b" x="0.5" y="0.5" width="79" height="39" rx="4.5"/></g><g class="ae" transform="translate(1401 398)"><rect class="b" width="24" height="24"/><path class="af" d="M20,11H7.8l5.6-5.6L12,4,4,12l8,8,1.4-1.4L7.8,13H20V11Z"/></g><g class="ae" transform="translate(1441 398)"><rect class="b" width="24" height="24"/><path class="af" d="M12,4,10.6,5.4,16.2,11H4v2H16.2l-5.6,5.6L12,20l8-8Z"/></g><line class="aa" y2="39" transform="translate(1433.5 390.5)"/></g><g transform="translate(-468)"><g class="p" transform="translate(632 387)"><rect class="aj" width="148" height="40" rx="5"/><rect class="b" x="0.5" y="0.5" width="147" height="39" rx="4.5"/></g><text class="v" transform="translate(665 396)"><tspan x="0" y="18">SETTINGS</tspan></text><g class="ae" transform="translate(641 395)"><path class="d" d="M9.568,12.123A2.625,2.625,0,1,1,12.193,9.5,2.625,2.625,0,0,1,9.568,12.123Zm5.572-1.893a5.13,5.13,0,0,0,0-1.464l1.585-1.24a.374.374,0,0,0,.089-.479l-1.5-2.6a.375.375,0,0,0-.459-.163l-1.867.752A5.605,5.605,0,0,0,11.719,4.3l-.281-1.987A.376.376,0,0,0,11.068,2h-3a.375.375,0,0,0-.37.316L7.416,4.3a5.624,5.624,0,0,0-1.268.738L4.282,4.286a.375.375,0,0,0-.459.163l-1.5,2.6a.374.374,0,0,0,.089.479L4,8.766A5.129,5.129,0,0,0,4,10.23L2.411,11.47a.376.376,0,0,0-.089.479l1.5,2.6a.375.375,0,0,0,.459.163l1.867-.752a5.607,5.607,0,0,0,1.268.737L7.7,16.682a.375.375,0,0,0,.37.316h3a.376.376,0,0,0,.371-.316l.281-1.987a5.622,5.622,0,0,0,1.267-.738l1.868.753a.375.375,0,0,0,.459-.163l1.5-2.6a.376.376,0,0,0-.089-.479Z" transform="translate(2.727 3.002)"/><rect class="b" width="24" height="24"/></g></g><g class="ag" transform="translate(1495 396)"><path class="ah" d="M37,10a6.957,6.957,0,0,1-7,7H10a6.957,6.957,0,0,1-7-7H3a6.957,6.957,0,0,1,7-7H30a6.957,6.957,0,0,1,7,7Z" transform="translate(-3 1)"/><g class="al" transform="matrix(1, 0, 0, 1, -1495, -396)"><path class="ai" d="M10,0A10,10,0,1,1,0,10,10,10,0,0,1,10,0Z" transform="translate(1512 397)"/></g></g></g></svg>