<svg xmlns="http://www.w3.org/2000/svg" xmlns:xlink="http://www.w3.org/1999/xlink" width="1920" height="1387" viewBox="0 0 1920 1387"><defs><style>.a,.e,.i,.s,.u,.w{fill:#fff;}.a{stroke:#707070;}.b,.k,.y{fill:none;}.c{clip-path:url(#f);}.d{clip-path:url(#a);}.f,.g,.n{fill:gray;}.f{font-size:56px;}.f,.l,.m{font-family:Arial-BoldMT, Arial;}.f,.l,.m,.s,.w{font-weight:700;}.g,.w{font-size:18px;}.g,.i,.j,.n{font-family:ArialMT, Arial;}.h,.j,.l{fill:#a6a6a6;}.i,.j{font-size:14px;}.l,.m,.s,.u,.x{font-size:20px;}.m{fill:#848484;}.n{font-size:32px;}.o{clip-path:url(#b);}.p{fill-rule:evenodd;opacity:0.54;}.q{clip-path:url(#d);}.r{fill:#0d4a71;}.s,.w{font-family:SegoeUI-Bold, Segoe UI;}.t{fill:#ba2027;}.u,.v,.x{font-family:SegoeUI, Segoe UI;}.v{fill:#346e93;font-size:28px;}.x{font-weight:400;}.y{stroke:#fff;}.aa,.z{stroke:none;}.aa{fill:#707070;}.ab{fill:#f2f2f2;}</style><clipPath id="a"><rect class="a" width="1614" height="712" transform="translate(153 367)"/></clipPath><clipPath id="b"><rect class="b" width="24" height="24"/></clipPath><clipPath id="d"><rect class="a" width="447.545" height="624.397" transform="translate(1151 744)"/></clipPath><clipPath id="f"><rect width="1920" height="1387"/></clipPath></defs><g id="e" class="c"><rect class="ab" width="1920" height="1387"/><g class="d" transform="translate(0 191)"><image width="2029" height="1141" transform="translate(8 105)" xlink:href="Editing%20-%20preview%20play%20mode%202-image.png"/></g><rect class="e" width="1920" height="100"/><rect class="e" width="1614" height="88" transform="translate(153 377)"/><text class="f" transform="translate(153 286)"><tspan x="0" y="0">Preview case</tspan></text><text class="g" transform="translate(153 334)"><tspan x="0" y="0">Here&apos;s how your case will appear to students.</tspan></text><rect class="h" width="153" height="27" rx="5" transform="translate(428 144)"/><rect class="h" width="70" height="27" rx="5" transform="translate(153 144)"/><text class="i" transform="translate(166 150)"><tspan x="1" y="13" xml:space="preserve">HOME      </tspan></text><text class="j" transform="translate(231 150)"><tspan x="0" y="13">&gt;</tspan></text><text class="j" transform="translate(411 150)"><tspan x="0" y="13">&gt;</tspan></text><rect class="h" width="153" height="27" rx="5" transform="translate(248 144)"/><text class="i" transform="translate(256 150)"><tspan x="1.344" y="13" xml:space="preserve">CREATE NEW CASE    </tspan></text><text class="i" transform="translate(436 150)"><tspan x="15.21" y="13">PREVIEW CASE</tspan></text><g class="k" transform="translate(427 403)"><path class="z" d="M5.691,0h95.617C104.452,0,107,2.239,107,5V32c0,2.761-2.548,5-5.691,5H5.691C2.548,37,0,34.761,0,32V5C0,2.239,2.548,0,5.691,0Z"/><path class="aa" d="M 5.691490173339844 1 C 3.104591369628906 1 1.000007629394531 2.794384002685547 1.000007629394531 5 L 1.000007629394531 32 C 1.000007629394531 34.20561599731445 3.104591369628906 36 5.691490173339844 36 L 101.3085174560547 36 C 103.8954162597656 36 106 34.20561599731445 106 32 L 106 5 C 106 2.794384002685547 103.8954162597656 1 101.3085174560547 1 L 5.691490173339844 1 M 5.691490173339844 0 L 101.3085174560547 0 C 104.4518356323242 0 107 2.238571166992188 107 5 L 107 32 C 107 34.76142883300781 104.4518356323242 37 101.3085174560547 37 L 5.691490173339844 37 C 2.548164367675781 37 7.62939453125e-06 34.76142883300781 7.62939453125e-06 32 L 7.62939453125e-06 5 C 7.62939453125e-06 2.238571166992188 2.548164367675781 0 5.691490173339844 0 Z"/></g><text class="l" transform="translate(481 429)"><tspan x="-25.752" y="0">PLAY</tspan></text><path class="h" d="M5.691,0h95.617C104.452,0,107,2.239,107,5V32c0,2.761-2.548,5-5.691,5H5.691C2.548,37,0,34.761,0,32V5C0,2.239,2.548,0,5.691,0Z" transform="translate(564 403)"/><text class="m" transform="translate(618 429)"><tspan x="-22.778" y="0">EDIT</tspan></text><text class="n" transform="translate(175 432)"><tspan x="0" y="0">Preview mode</tspan></text><g class="o" transform="translate(880 410)"><rect class="b" width="24" height="24"/><path class="p" d="M12,4,10.6,5.4,16.2,11H4v2H16.2l-5.6,5.6L12,20l8-8Z"/></g><g class="o" transform="translate(748 410)"><rect class="b" width="24" height="24"/><path class="p" d="M20,11H7.8l5.6-5.6L12,4,4,12l8,8,1.4-1.4L7.8,13H20V11Z"/></g><g class="q" transform="translate(98 -160.398)"><image width="1732.432" height="974.493" transform="translate(188.237 589.705)" xlink:href="Editing%20-%20preview%20play%20mode%202-image2.png"/></g><rect class="r" width="212" height="47" rx="23.5" transform="translate(1396.045 1174)"/><text class="s" transform="translate(1431.045 1206)"><tspan x="0" y="0">PATIENT Jakob</tspan></text><g class="a" transform="translate(463 1113)"><rect class="z" width="718" height="144" rx="12"/><rect class="b" x="0.5" y="0.5" width="717" height="143" rx="11.5"/></g><rect class="t" width="212" height="59" rx="29.5" transform="translate(479 1176)"/><rect class="t" width="212" height="59" rx="29.5" transform="translate(706 1176)"/><rect class="t" width="212" height="59" rx="29.5" transform="translate(935 1176)"/><text class="u" transform="translate(492.5 1212)"><tspan x="0" y="0">Generate hypothesis</tspan></text><text class="u" transform="translate(735 1212)"><tspan x="0" y="0">More information</tspan></text><text class="u" transform="translate(964 1212)"><tspan x="0" y="0">Call the supervisor</tspan></text><text class="v" transform="translate(481 1124)"><tspan x="0" y="30">What do you want to do?</tspan></text><text class="u" transform="translate(500 669)"><tspan x="40.123" y="22">&quot;Doctor, I am feeling chest pain since yesterday. The </tspan><tspan x="28.092" y="49">pain is continuous and is located just in the middle of </tspan><tspan x="49.234" y="76">my chest, worsening when I breathe and when I lay </tspan><tspan x="5.396" y="103">down on my bed. I suffer from arterial hypertension and </tspan><tspan x="25.006" y="130">smoke 20 cigarettes every day. My father had a “heart </tspan><tspan x="61.949" y="157">attack” at my age and I am very worried about it.&quot; </tspan></text><text class="w" transform="translate(500 860)"><tspan x="0" y="19">PHYSICAL EXAMINATION </tspan><tspan class="x"><tspan x="0" y="46">Cardiac and pulmonary auscultation are normal; chest </tspan><tspan x="0" y="73">pain does not worse with palpation of the thorax; there </tspan><tspan x="0" y="100">is no jugular stasis nor lower limb edema.</tspan></tspan></text><line class="y" y2="170" transform="translate(1017 669)"/></g></svg>