<svg xmlns="http://www.w3.org/2000/svg" xmlns:xlink="http://www.w3.org/1999/xlink" width="448" height="329" viewBox="0 0 448 329"><defs><style>.a,.i{fill:none;}.b{clip-path:url(#d);}.c,.h{fill:#a6a6a6;}.c,.e{stroke:#707070;}.d,.e,.g,.k{fill:#fff;}.f{fill:gray;font-size:18px;font-family:ArialMT, Arial;}.g,.i{stroke:#a6a6a6;}.g{stroke-width:2px;}.j{clip-path:url(#a);}.k{font-size:20px;font-family:Arial-BoldMT, Arial;font-weight:700;}.l{clip-path:url(#b);}.m{stroke:none;}</style><clipPath id="a"><rect class="a" width="94" height="37"/></clipPath><clipPath id="b"><rect class="a" width="107" height="38"/></clipPath><clipPath id="d"><rect width="448" height="329"/></clipPath></defs><g id="c" class="b"><g transform="translate(-810 -475)"><g class="c" transform="translate(1167 523)"><rect class="m" width="40" height="40" rx="5"/><rect class="a" x="0.5" y="0.5" width="39" height="39" rx="4.5"/></g><path class="d" d="M22.786,4.811,21.3,3.322a1.106,1.106,0,0,0-1.566,0L9.777,13.277l3.055,3.055,9.954-9.954A1.106,1.106,0,0,0,22.786,4.811ZM7.555,15.221a3.328,3.328,0,0,0-3.333,3.333A2.254,2.254,0,0,1,2,20.776,5.748,5.748,0,0,0,6.444,23a4.443,4.443,0,0,0,4.444-4.444A3.328,3.328,0,0,0,7.555,15.221Z" transform="translate(1174 530.002)"/></g><g class="e" transform="translate(73 48)"><rect class="m" width="284" height="250" rx="5"/><rect class="a" x="0.5" y="0.5" width="283" height="249" rx="4.5"/></g><text class="f" transform="translate(109 95.125)"><tspan x="0" y="0">Choose character</tspan></text><text class="f" transform="translate(109 165.125)"><tspan x="0" y="0">Position</tspan></text><g transform="translate(-874 -452)"><g class="g" transform="translate(983 551)"><rect class="m" width="213" height="38" rx="5"/><rect class="a" x="1" y="1" width="211" height="36" rx="4"/></g><text class="f" transform="translate(993 577.125)"><tspan x="0" y="0">Anges (Nurse)</tspan></text><path class="h" d="M4.827,4.936,9.616,0V9.616H0Z" transform="translate(1179.122 562.078) rotate(45)"/><line class="i" y2="37" transform="translate(1164.5 551.5)"/></g><g transform="translate(-874 -382)"><g class="g" transform="translate(983 551)"><rect class="m" width="213" height="38" rx="5"/><rect class="a" x="1" y="1" width="211" height="36" rx="4"/></g><text class="f" transform="translate(993 577.125)"><tspan x="0" y="0">Left</tspan></text><path class="h" d="M4.827,4.936,9.616,0V9.616H0Z" transform="translate(1179.122 562.078) rotate(45)"/><line class="i" y2="37" transform="translate(1164.5 551.5)"/></g><g class="j" transform="translate(228 228)"><path class="h" d="M5,0H89a5,5,0,0,1,5,5V32a5,5,0,0,1-5,5H5a5,5,0,0,1-5-5V5A5,5,0,0,1,5,0Z"/><text class="k" transform="translate(47 26)"><tspan x="-26.489" y="0">SAVE</tspan></text></g><g class="l" transform="translate(109 228)"><g class="g"><rect class="m" width="107" height="38" rx="5"/><rect class="a" x="1" y="1" width="105" height="36" rx="4"/></g><text class="f" transform="translate(15 26.124)"><tspan x="0" y="0">CANCEL</tspan></text></g></g></svg>