<svg xmlns="http://www.w3.org/2000/svg" xmlns:xlink="http://www.w3.org/1999/xlink" width="466" height="238" viewBox="0 0 466 238"><defs><style>.a{fill:none;}.b{clip-path:url(#d);}.c,.j{fill:#a6a6a6;}.c,.e{stroke:#707070;}.d,.e,.g,.k{fill:#fff;}.f,.h{fill:gray;font-size:18px;}.f,.k{font-family:Arial-BoldMT, Arial;font-weight:700;}.g{stroke:#a6a6a6;stroke-width:2px;}.h{font-family:ArialMT, Arial;}.i{clip-path:url(#a);}.k{font-size:20px;}.l{clip-path:url(#b);}.m{stroke:none;}</style><clipPath id="a"><rect class="a" width="94" height="37"/></clipPath><clipPath id="b"><rect class="a" width="107" height="38"/></clipPath><clipPath id="d"><rect width="466" height="238"/></clipPath></defs><g id="c" class="b"><g transform="translate(-752 -333)"><g class="c" transform="translate(1167 523)"><rect class="m" width="40" height="40" rx="5"/><rect class="a" x="0.5" y="0.5" width="39" height="39" rx="4.5"/></g><path class="d" d="M22.786,4.811,21.3,3.322a1.106,1.106,0,0,0-1.566,0L9.777,13.277l3.055,3.055,9.954-9.954A1.106,1.106,0,0,0,22.786,4.811ZM7.555,15.221a3.328,3.328,0,0,0-3.333,3.333A2.254,2.254,0,0,1,2,20.776,5.748,5.748,0,0,0,6.444,23a4.443,4.443,0,0,0,4.444-4.444A3.328,3.328,0,0,0,7.555,15.221Z" transform="translate(1174 530.002)"/></g><g class="e" transform="translate(20 23)"><rect class="m" width="395" height="207" rx="5"/><rect class="a" x="0.5" y="0.5" width="394" height="206" rx="4.5"/></g><g transform="translate(-794 -533)"><text class="f" transform="translate(848 584)"><tspan x="0" y="16">Label</tspan></text><g class="g" transform="translate(848 616)"><rect class="m" width="322" height="54" rx="5"/><rect class="a" x="1" y="1" width="320" height="52" rx="4"/></g><text class="h" transform="translate(863 634)"><tspan x="0" y="16">Ok. I would like to see him. </tspan></text></g><g class="i" transform="translate(282 158)"><path class="j" d="M5,0H89a5,5,0,0,1,5,5V32a5,5,0,0,1-5,5H5a5,5,0,0,1-5-5V5A5,5,0,0,1,5,0Z"/><text class="k" transform="translate(47 26)"><tspan x="-26.489" y="0">SAVE</tspan></text></g><g class="l" transform="translate(163 158)"><g class="g"><rect class="m" width="107" height="38" rx="5"/><rect class="a" x="1" y="1" width="105" height="36" rx="4"/></g><text class="h" transform="translate(15 26.124)"><tspan x="0" y="0">CANCEL</tspan></text></g></g></svg>