<svg xmlns="http://www.w3.org/2000/svg" xmlns:xlink="http://www.w3.org/1999/xlink" width="1920" height="1387" viewBox="0 0 1920 1387"><defs><style>.a,.e,.g,.j,.m,.n,.v,.x{fill:#fff;}.a,.i{stroke:#707070;}.ad,.b,.i,.z{fill:none;}.c{clip-path:url(#m);}.d{clip-path:url(#a);}.ag,.f,.h,.l{fill:#a6a6a6;}.g,.h{font-size:14px;}.g,.h,.k,.m{font-family:ArialMT, Arial;}.j{stroke:#a6a6a6;}.j,.l{stroke-width:2px;}.aa,.k,.o{fill:gray;}.k,.m,.o{font-size:18px;}.l{stroke:gray;}.aa,.ab,.o{font-family:Arial-BoldMT, Arial;}.aa,.ab,.o,.y{font-weight:700;}.p{clip-path:url(#b);}.q{fill:rgba(34,31,31,0.26);}.q,.t{fill-rule:evenodd;}.r{fill:#f1f1f1;stroke:rgba(0,0,0,0);stroke-width:0.5px;}.s{clip-path:url(#e);}.t{opacity:0.54;}.u{fill:#346e93;}.ab,.u,.v{font-size:20px;}.u,.v{font-family:SegoeUI, Segoe UI;}.w{letter-spacing:-0.025em;}.x{stroke:#0d4a71;}.y{fill:#0d4a71;font-size:15px;font-family:SegoeUI-Bold, Segoe UI;}.z{stroke:#fff;}.aa{font-size:56px;}.ab,.ac{fill:#707070;}.ad{stroke:#00ffe5;stroke-width:5px;}.ae{fill:#6f6f6f;}.af,.ag{stroke:none;}.ah{fill:#f2f2f2;}.ai{filter:url(#j);}.aj{filter:url(#c);}</style><clipPath id="a"><rect class="a" width="1203" height="640" transform="translate(427 383)"/></clipPath><clipPath id="b"><rect class="b" width="40.25" height="26.5"/></clipPath><filter id="c" x="254.75" y="1338.75" width="26.5" height="26.5" filterUnits="userSpaceOnUse"><feOffset dy="2" input="SourceAlpha"/><feGaussianBlur stdDeviation="1" result="d"/><feFlood flood-opacity="0.239"/><feComposite operator="in" in2="d"/><feComposite in="SourceGraphic"/></filter><clipPath id="e"><rect class="b" width="24" height="24"/></clipPath><filter id="j" x="1491.75" y="395.75" width="26.5" height="26.5" filterUnits="userSpaceOnUse"><feOffset dy="2" input="SourceAlpha"/><feGaussianBlur stdDeviation="1" result="k"/><feFlood flood-opacity="0.239"/><feComposite operator="in" in2="k"/><feComposite in="SourceGraphic"/></filter><clipPath id="m"><rect width="1920" height="1387"/></clipPath></defs><g id="l" class="c"><rect class="ah" width="1920" height="1387"/><g class="d" transform="translate(137 99)"><image width="2029" height="1141" transform="translate(8 105)" xlink:href="Edit%20-%20Check%20hypotesis%201-image.png"/></g><rect class="e" width="1920" height="100"/><rect class="f" width="153" height="27" rx="5" transform="translate(366 144)"/><rect class="f" width="70" height="27" rx="5" transform="translate(153 144)"/><text class="g" transform="translate(166 150)"><tspan x="1" y="13" xml:space="preserve">HOME      </tspan></text><text class="h" transform="translate(231 150)"><tspan x="0" y="13">&gt;</tspan></text><text class="h" transform="translate(349 150)"><tspan x="0" y="13">&gt;</tspan></text><rect class="f" width="90" height="27" rx="5" transform="translate(248 144)"/><text class="g" transform="translate(256 150)"><tspan x="11" y="13">DRAFTS</tspan></text><text class="g" transform="translate(374 150)"><tspan x="15.21" y="13">PREVIEW CASE</tspan></text><g class="a" transform="translate(153 485)"><rect class="af" width="381" height="840" rx="5"/><rect class="b" x="0.5" y="0.5" width="380" height="839" rx="4.5"/></g><g transform="translate(0 19)"><line class="i" y1="20" x2="39" transform="translate(397 1086)"/><line class="i" y1="20" x2="39" transform="translate(397 746)"/><g transform="translate(102 199)"><g class="j" transform="translate(273 495)"><rect class="af" width="141" height="60" rx="5"/><rect class="b" x="1" y="1" width="139" height="58" rx="4"/></g><text class="k" transform="translate(344 531)"><tspan x="-43.018" y="0">Supervisor</tspan></text></g><g transform="translate(102 539)"><g class="j" transform="translate(273 495)"><rect class="af" width="141" height="60" rx="5"/><rect class="b" x="1" y="1" width="139" height="58" rx="4"/></g><text class="k" transform="translate(344 531)"><tspan x="-43.018" y="0">Supervisor</tspan></text></g><g transform="translate(98 195)"><g class="j" transform="translate(273 495)"><rect class="af" width="141" height="60" rx="5"/><rect class="b" x="1" y="1" width="139" height="58" rx="4"/></g><text class="k" transform="translate(344 531)"><tspan x="-43.018" y="0">Supervisor</tspan></text></g><g transform="translate(98 535)"><g class="j" transform="translate(273 495)"><rect class="af" width="141" height="60" rx="5"/><rect class="b" x="1" y="1" width="139" height="58" rx="4"/></g><text class="k" transform="translate(344 531)"><tspan x="-43.018" y="0">Supervisor</tspan></text></g><path class="i" d="M0,0V244.167" transform="translate(343.5 606.5)"/><path class="i" d="M0,0V194.47" transform="translate(343.5 953.5)"/><g transform="translate(0 11)"><g class="l" transform="translate(273 495)"><rect class="af" width="141" height="60" rx="5"/><rect class="b" x="1" y="1" width="139" height="58" rx="4"/></g><text class="m" transform="translate(344 531)"><tspan x="-47.03" y="0">Introduction</tspan></text></g><g transform="translate(0 111)"><g class="j" transform="translate(273 495)"><rect class="af" width="141" height="60" rx="5"/><rect class="b" x="1" y="1" width="139" height="58" rx="4"/></g><text class="k" transform="translate(344 531)"><tspan x="-28.02" y="0">Patient</tspan></text></g><g transform="translate(0 271)"><g class="n" transform="translate(273 495)"><path class="af" d="M 136 59 L 5 59 C 2.794399976730347 59 1 57.20560073852539 1 55 L 1 5 C 1 2.794399976730347 2.794399976730347 1 5 1 L 136 1 C 138.2055969238281 1 140 2.794399976730347 140 5 L 140 55 C 140 57.20560073852539 138.2055969238281 59 136 59 Z"/><path class="ag" d="M 5 2 C 3.345794677734375 2 2 3.345798492431641 2 5 L 2 55 C 2 56.65420150756836 3.345794677734375 58 5 58 L 136 58 C 137.6542053222656 58 139 56.65420150756836 139 55 L 139 5 C 139 3.345798492431641 137.6542053222656 2 136 2 L 5 2 M 5 0 L 136 0 C 138.7614135742188 0 141 2.238578796386719 141 5 L 141 55 C 141 57.76142120361328 138.7614135742188 60 136 60 L 5 60 C 2.238555908203125 60 0 57.76142120361328 0 55 L 0 5 C 0 2.238578796386719 2.238555908203125 0 5 0 Z"/></g><text class="k" transform="translate(344 521)"><tspan x="-40.025" y="0">Generate </tspan><tspan x="-43.027" y="21">hypothesis</tspan></text></g><g transform="translate(0 611)"><g class="j" transform="translate(273 495)"><rect class="af" width="141" height="60" rx="5"/><rect class="b" x="1" y="1" width="139" height="58" rx="4"/></g><text class="k" transform="translate(344 521)"><tspan x="-40.025" y="0">Generate </tspan><tspan x="-43.027" y="21">hypothesis</tspan></text></g><g transform="translate(0 351)"><g class="l" transform="translate(273 495)"><rect class="af" width="141" height="60" rx="5"/><rect class="b" x="1" y="1" width="139" height="58" rx="4"/></g><text class="m" transform="translate(343.5 521)"><tspan x="-28.011" y="0">Check </tspan><tspan x="-43.027" y="21">hypothesis</tspan></text></g><g transform="translate(0 711)"><g class="j" transform="translate(273 495)"><rect class="af" width="141" height="60" rx="5"/><rect class="b" x="1" y="1" width="139" height="58" rx="4"/></g><text class="k" transform="translate(344 531)"><tspan x="-39.524" y="0">Feedback</tspan></text></g><g transform="translate(0 451)"><g class="j" transform="translate(273 495)"><rect class="af" width="141" height="60" rx="5"/><rect class="b" x="1" y="1" width="139" height="58" rx="4"/></g><text class="k" transform="translate(344 531)"><tspan x="-19.006" y="0">EKG</tspan></text></g><g transform="translate(-93 191)"><g class="j" transform="translate(273 495)"><rect class="af" width="141" height="60" rx="5"/><rect class="b" x="1" y="1" width="139" height="58" rx="4"/></g><text class="k" transform="translate(344 531)"><tspan x="-52.277" y="0">+ information</tspan></text></g><g transform="translate(-93 531)"><g class="j" transform="translate(273 495)"><rect class="af" width="141" height="60" rx="5"/><rect class="b" x="1" y="1" width="139" height="58" rx="4"/></g><text class="k" transform="translate(344 531)"><tspan x="-52.277" y="0">+ information</tspan></text></g><g transform="translate(94 191)"><g class="n" transform="translate(273 495)"><path class="af" d="M 136 59 L 5 59 C 2.794399976730347 59 1 57.20560073852539 1 55 L 1 5 C 1 2.794399976730347 2.794399976730347 1 5 1 L 136 1 C 138.2055969238281 1 140 2.794399976730347 140 5 L 140 55 C 140 57.20560073852539 138.2055969238281 59 136 59 Z"/><path class="ag" d="M 5 2 C 3.345794677734375 2 2 3.345798492431641 2 5 L 2 55 C 2 56.65420150756836 3.345794677734375 58 5 58 L 136 58 C 137.6542053222656 58 139 56.65420150756836 139 55 L 139 5 C 139 3.345798492431641 137.6542053222656 2 136 2 L 5 2 M 5 0 L 136 0 C 138.7614135742188 0 141 2.238578796386719 141 5 L 141 55 C 141 57.76142120361328 138.7614135742188 60 136 60 L 5 60 C 2.238555908203125 60 0 57.76142120361328 0 55 L 0 5 C 0 2.238578796386719 2.238555908203125 0 5 0 Z"/></g><text class="k" transform="translate(344 531)"><tspan x="-43.018" y="0">Supervisor</tspan></text></g><g transform="translate(94 531)"><g class="j" transform="translate(273 495)"><rect class="af" width="141" height="60" rx="5"/><rect class="b" x="1" y="1" width="139" height="58" rx="4"/></g><text class="k" transform="translate(344 531)"><tspan x="-43.018" y="0">Supervisor</tspan></text></g><line class="i" x1="39" y2="20" transform="translate(251 666)"/><line class="i" x1="39" y2="20" transform="translate(251 1006)"/><line class="i" x1="39" y1="20" transform="translate(251 746)"/><line class="i" x1="39" y1="20" transform="translate(251 1086)"/><line class="i" x2="39" y2="20" transform="translate(397 666)"/><line class="i" x2="39" y2="20" transform="translate(397 1006)"/><line class="i" x2="46" transform="translate(321.5 716.5)"/><line class="i" x2="46" transform="translate(321.5 1055.5)"/><line class="i" x2="381" transform="translate(153 586)"/><line class="i" x2="381" transform="translate(153 926)"/><line class="i" x2="381" transform="translate(153 1186)"/><text class="o" transform="translate(169 623)"><tspan x="0" y="0">CYCLE 1</tspan></text><text class="o" transform="translate(169 524)"><tspan x="0" y="0">START</tspan></text><text class="o" transform="translate(169 962)"><tspan x="0" y="0">CYCLE 2</tspan></text><text class="o" transform="translate(169 1222)"><tspan x="0" y="0">FINAL</tspan></text><g transform="translate(0 11)"><g class="n" transform="translate(273 495)"><path class="af" d="M 136 59 L 5 59 C 2.794399976730347 59 1 57.20560073852539 1 55 L 1 5 C 1 2.794399976730347 2.794399976730347 1 5 1 L 136 1 C 138.2055969238281 1 140 2.794399976730347 140 5 L 140 55 C 140 57.20560073852539 138.2055969238281 59 136 59 Z"/><path class="ag" d="M 5 2 C 3.345794677734375 2 2 3.345798492431641 2 5 L 2 55 C 2 56.65420150756836 3.345794677734375 58 5 58 L 136 58 C 137.6542053222656 58 139 56.65420150756836 139 55 L 139 5 C 139 3.345798492431641 137.6542053222656 2 136 2 L 5 2 M 5 0 L 136 0 C 138.7614135742188 0 141 2.238578796386719 141 5 L 141 55 C 141 57.76142120361328 138.7614135742188 60 136 60 L 5 60 C 2.238555908203125 60 0 57.76142120361328 0 55 L 0 5 C 0 2.238578796386719 2.238555908203125 0 5 0 Z"/></g><text class="k" transform="translate(344 531)"><tspan x="-47.03" y="0">Introduction</tspan></text></g></g><g class="p" transform="translate(254.75 1338.75)"><path class="q" d="M30,17H10A7,7,0,0,1,10,3H30a7,7,0,0,1,0,14Z" transform="translate(3.25 1.25)"/><g class="aj" transform="matrix(1, 0, 0, 1, -254.75, -1338.75)"><path class="r" d="M10,0A10,10,0,1,1,0,10,10,10,0,0,1,10,0Z" transform="translate(258 1340)"/></g></g><text class="k" transform="translate(200 1356)"><tspan x="-46.521" y="0">Thumbnails</tspan></text><text class="k" transform="translate(471 1355)"><tspan x="-38.004" y="0">Maximize</tspan></text><g class="s" transform="translate(510 1336)"><rect class="b" width="24" height="24"/><path class="t" d="M7,14H5v5h5V17H7V14ZM5,10H7V7h3V5H5v5Zm12,7H14v2h5V14H17v3ZM14,5V7h3v3h2V5Z"/></g><g class="a" transform="translate(640 545)"><rect class="af" width="690" height="108" rx="12"/><rect class="b" x="0.5" y="0.5" width="689" height="107" rx="11.5"/></g><text class="u" transform="translate(658 557)"><tspan x="0" y="22">Let&apos;s check out your hypotesis. Highlight in green the findings that </tspan><tspan x="0" y="49">corroborate your hypotesis; in blue those that are neutral; and in red </tspan><tspan x="0" y="76">the ones speaking against your hypotesis. </tspan></text><text class="v" transform="translate(640 672)"><tspan x="0" y="22" xml:space="preserve">                        Doctor, we have a man,  51 years old  , who entered the </tspan><tspan x="0" y="49" xml:space="preserve">emergency department reporting  chest pain . His vital signs are    </tspan><tspan x="0" y="76" xml:space="preserve">  ABP144x92mmHG  ;  HR 78 bpm  ;  RR 21 rpm  ;  Temperature 37 ºC  ; </tspan><tspan x="0" y="103" xml:space="preserve">  O2 Sat 98%  .</tspan><tspan x="0" y="130"></tspan><tspan x="0" y="157" xml:space="preserve">                         Doctor, I am feeling chest pain since yesterday. </tspan><tspan x="0" y="184" xml:space="preserve">The  pain is continuous  and  is located just in the middle of my chest  ,   </tspan><tspan x="0" y="211" xml:space="preserve"> worsening when I breathe  and  when I lay down on my bed  . I suffer from </tspan><tspan x="0" y="238" xml:space="preserve"> arterial hypertension  and  smoke 20 cigarettes every day  . </tspan><tspan x="0" y="265" xml:space="preserve"> My father had a “heart attack”   at my age and I am very worried about it.</tspan><tspan x="0" y="292"></tspan><tspan x="0" y="319" xml:space="preserve">                                       Cardiac and pulmonary auscultation are normal  ; </tspan><tspan class="w" y="319"></tspan><tspan class="w" x="0" y="346" xml:space="preserve"> chest pain does not worse with palpation of the thorax  ;  there is no jugular stasi</tspan><tspan y="346">s </tspan><tspan x="0" y="373" xml:space="preserve"> nor lower limb edema  .</tspan></text><g transform="translate(159 255)"><g class="x" transform="translate(481 420)"><rect class="af" width="123" height="25" rx="12.5"/><rect class="b" x="0.5" y="0.5" width="122" height="24" rx="12"/></g><text class="y" transform="translate(493 438)"><tspan x="0" y="0">NURSE Agnes </tspan></text></g><g transform="translate(187 219)"><g class="x" transform="translate(453 591)"><rect class="af" width="131" height="25" rx="12.5"/><rect class="b" x="0.5" y="0.5" width="130" height="24" rx="12"/></g><text class="y" transform="translate(462 609)"><tspan x="0" y="0">PATIENT Jakob</tspan></text></g><g transform="translate(187 382)"><g class="x" transform="translate(453 591)"><rect class="af" width="203" height="25" rx="12.5"/><rect class="b" x="0.5" y="0.5" width="202" height="24" rx="12"/></g><text class="y" transform="translate(462 609)"><tspan x="0" y="0">PHYSICAL EXAMINATION</tspan></text></g><g class="z" transform="translate(981 675)"><rect class="af" width="124" height="25" rx="12.5"/><rect class="b" x="0.5" y="0.5" width="123" height="24" rx="12"/></g><g class="z" transform="translate(939 704)"><rect class="af" width="102" height="25" rx="12.5"/><rect class="b" x="0.5" y="0.5" width="101" height="24" rx="12"/></g><g class="z" transform="translate(640 729)"><rect class="af" width="182" height="25" rx="12.5"/><rect class="b" x="0.5" y="0.5" width="181" height="24" rx="12"/></g><g class="z" transform="translate(640 756)"><rect class="af" width="123" height="25" rx="12.5"/><rect class="b" x="0.5" y="0.5" width="122" height="24" rx="12"/></g><g class="z" transform="translate(677 837)"><rect class="af" width="175" height="25" rx="12.5"/><rect class="b" x="0.5" y="0.5" width="174" height="24" rx="12"/></g><g class="z" transform="translate(640 864)"><rect class="af" width="243" height="25" rx="12.5"/><rect class="b" x="0.5" y="0.5" width="242" height="24" rx="12"/></g><g class="z" transform="translate(640 891)"><rect class="af" width="194" height="25" rx="12.5"/><rect class="b" x="0.5" y="0.5" width="193" height="24" rx="12"/></g><g class="z" transform="translate(640 918)"><rect class="af" width="281" height="25" rx="12.5"/><rect class="b" x="0.5" y="0.5" width="280" height="24" rx="12"/></g><g class="z" transform="translate(845 972)"><rect class="af" width="436" height="25" rx="12.5"/><rect class="b" x="0.5" y="0.5" width="435" height="24" rx="12"/></g><g class="z" transform="translate(638 1000)"><rect class="af" width="470" height="25" rx="12.5"/><rect class="b" x="0.5" y="0.5" width="469" height="24" rx="12"/></g><g class="z" transform="translate(638 1027)"><rect class="af" width="211" height="25" rx="12.5"/><rect class="b" x="0.5" y="0.5" width="210" height="24" rx="12"/></g><g class="z" transform="translate(1116 1000)"><rect class="af" width="214" height="25" rx="12.5"/><rect class="b" x="0.5" y="0.5" width="213" height="24" rx="12"/></g><g class="z" transform="translate(876 891)"><rect class="af" width="281" height="25" rx="12.5"/><rect class="b" x="0.5" y="0.5" width="280" height="24" rx="12"/></g><g class="z" transform="translate(924 864)"><rect class="af" width="258" height="25" rx="12.5"/><rect class="b" x="0.5" y="0.5" width="257" height="24" rx="12"/></g><g class="z" transform="translate(891 837)"><rect class="af" width="365" height="25" rx="12.5"/><rect class="b" x="0.5" y="0.5" width="364" height="24" rx="12"/></g><g class="z" transform="translate(831 729)"><rect class="af" width="117" height="25" rx="12.5"/><rect class="b" x="0.5" y="0.5" width="116" height="24" rx="12"/></g><g class="z" transform="translate(957 729)"><rect class="af" width="109" height="25" rx="12.5"/><rect class="b" x="0.5" y="0.5" width="108" height="24" rx="12"/></g><g class="z" transform="translate(1075 729)"><rect class="af" width="183" height="25" rx="12.5"/><rect class="b" x="0.5" y="0.5" width="182" height="24" rx="12"/></g><text class="aa" transform="translate(153 286)"><tspan x="0" y="0">Edit case</tspan></text><text class="k" transform="translate(153 318)"><tspan x="0" y="16">Here&apos;s how your case will appear to students. You can also edit them. </tspan></text><g class="a" transform="translate(153 377)"><rect class="af" width="1614" height="60" rx="5"/><rect class="b" x="0.5" y="0.5" width="1613" height="59" rx="4.5"/></g><g class="a" transform="translate(1330 377)"><rect class="af" width="240" height="60"/><rect class="b" x="0.5" y="0.5" width="239" height="59"/></g><text class="k" transform="translate(1353 413)"><tspan x="0" y="0">Preview mode</tspan></text><g transform="translate(280 -3)"><g class="a" transform="translate(1393 390)"><rect class="af" width="80" height="40" rx="5"/><rect class="b" x="0.5" y="0.5" width="79" height="39" rx="4.5"/></g><g class="s" transform="translate(1401 398)"><rect class="b" width="24" height="24"/><path class="t" d="M20,11H7.8l5.6-5.6L12,4,4,12l8,8,1.4-1.4L7.8,13H20V11Z"/></g><g class="s" transform="translate(1441 398)"><rect class="b" width="24" height="24"/><path class="t" d="M12,4,10.6,5.4,16.2,11H4v2H16.2l-5.6,5.6L12,20l8-8Z"/></g><line class="i" y2="39" transform="translate(1433.5 390.5)"/></g><g transform="translate(-468)"><g class="a" transform="translate(632 387)"><rect class="af" width="148" height="40" rx="5"/><rect class="b" x="0.5" y="0.5" width="147" height="39" rx="4.5"/></g><text class="ab" transform="translate(665 396)"><tspan x="0" y="18">SETTINGS</tspan></text><g class="s" transform="translate(641 395)"><path class="ac" d="M9.568,12.123A2.625,2.625,0,1,1,12.193,9.5,2.625,2.625,0,0,1,9.568,12.123Zm5.572-1.893a5.13,5.13,0,0,0,0-1.464l1.585-1.24a.374.374,0,0,0,.089-.479l-1.5-2.6a.375.375,0,0,0-.459-.163l-1.867.752A5.605,5.605,0,0,0,11.719,4.3l-.281-1.987A.376.376,0,0,0,11.068,2h-3a.375.375,0,0,0-.37.316L7.416,4.3a5.624,5.624,0,0,0-1.268.738L4.282,4.286a.375.375,0,0,0-.459.163l-1.5,2.6a.374.374,0,0,0,.089.479L4,8.766A5.129,5.129,0,0,0,4,10.23L2.411,11.47a.376.376,0,0,0-.089.479l1.5,2.6a.375.375,0,0,0,.459.163l1.867-.752a5.607,5.607,0,0,0,1.268.737L7.7,16.682a.375.375,0,0,0,.37.316h3a.376.376,0,0,0,.371-.316l.281-1.987a5.622,5.622,0,0,0,1.267-.738l1.868.753a.375.375,0,0,0,.459-.163l1.5-2.6a.376.376,0,0,0-.089-.479Z" transform="translate(2.727 3.002)"/><rect class="b" width="24" height="24"/></g></g><g class="p" transform="translate(1491.75 395.75)"><path class="q" d="M30,17H10A7,7,0,0,1,10,3H30a7,7,0,0,1,0,14Z" transform="translate(3.25 1.25)"/><g class="ai" transform="matrix(1, 0, 0, 1, -1491.75, -395.75)"><path class="r" d="M10,0A10,10,0,1,1,0,10,10,10,0,0,1,10,0Z" transform="translate(1495 397)"/></g></g><g class="ad" transform="translate(564 483.5)"><rect class="af" width="1203" height="635"/><rect class="b" x="2.5" y="2.5" width="1198" height="630"/></g><g class="ad" transform="translate(618 659.5)"><rect class="af" width="725" height="144"/><rect class="b" x="2.5" y="2.5" width="720" height="139"/></g><g class="ad" transform="translate(618 804.5)"><rect class="af" width="725" height="151"/><rect class="b" x="2.5" y="2.5" width="720" height="146"/></g><g class="ad" transform="translate(618 955.5)"><rect class="af" width="725" height="116"/><rect class="b" x="2.5" y="2.5" width="720" height="111"/></g><g transform="translate(555 -34)"><g class="a" transform="translate(1167 523)"><rect class="af" width="40" height="40" rx="5"/><rect class="b" x="0.5" y="0.5" width="39" height="39" rx="4.5"/></g><path class="ae" d="M22.786,4.811,21.3,3.322a1.106,1.106,0,0,0-1.566,0L9.777,13.277l3.055,3.055,9.954-9.954A1.106,1.106,0,0,0,22.786,4.811ZM7.555,15.221a3.328,3.328,0,0,0-3.333,3.333A2.254,2.254,0,0,1,2,20.776,5.748,5.748,0,0,0,6.444,23a4.443,4.443,0,0,0,4.444-4.444A3.328,3.328,0,0,0,7.555,15.221Z" transform="translate(1174 530.002)"/></g><g transform="translate(114 -21)"><g class="a" transform="translate(1167 523)"><rect class="af" width="40" height="40" rx="5"/><rect class="b" x="0.5" y="0.5" width="39" height="39" rx="4.5"/></g><path class="ae" d="M22.786,4.811,21.3,3.322a1.106,1.106,0,0,0-1.566,0L9.777,13.277l3.055,3.055,9.954-9.954A1.106,1.106,0,0,0,22.786,4.811ZM7.555,15.221a3.328,3.328,0,0,0-3.333,3.333A2.254,2.254,0,0,1,2,20.776,5.748,5.748,0,0,0,6.444,23a4.443,4.443,0,0,0,4.444-4.444A3.328,3.328,0,0,0,7.555,15.221Z" transform="translate(1174 530.002)"/></g><g transform="translate(131 142)"><g class="a" transform="translate(1167 523)"><rect class="af" width="40" height="40" rx="5"/><rect class="b" x="0.5" y="0.5" width="39" height="39" rx="4.5"/></g><path class="ae" d="M22.786,4.811,21.3,3.322a1.106,1.106,0,0,0-1.566,0L9.777,13.277l3.055,3.055,9.954-9.954A1.106,1.106,0,0,0,22.786,4.811ZM7.555,15.221a3.328,3.328,0,0,0-3.333,3.333A2.254,2.254,0,0,1,2,20.776,5.748,5.748,0,0,0,6.444,23a4.443,4.443,0,0,0,4.444-4.444A3.328,3.328,0,0,0,7.555,15.221Z" transform="translate(1174 530.002)"/></g><g transform="translate(131 287)"><g class="a" transform="translate(1167 523)"><rect class="af" width="40" height="40" rx="5"/><rect class="b" x="0.5" y="0.5" width="39" height="39" rx="4.5"/></g><path class="ae" d="M22.786,4.811,21.3,3.322a1.106,1.106,0,0,0-1.566,0L9.777,13.277l3.055,3.055,9.954-9.954A1.106,1.106,0,0,0,22.786,4.811ZM7.555,15.221a3.328,3.328,0,0,0-3.333,3.333A2.254,2.254,0,0,1,2,20.776,5.748,5.748,0,0,0,6.444,23a4.443,4.443,0,0,0,4.444-4.444A3.328,3.328,0,0,0,7.555,15.221Z" transform="translate(1174 530.002)"/></g><g transform="translate(131 438)"><g class="a" transform="translate(1167 523)"><rect class="af" width="40" height="40" rx="5"/><rect class="b" x="0.5" y="0.5" width="39" height="39" rx="4.5"/></g><path class="ae" d="M22.786,4.811,21.3,3.322a1.106,1.106,0,0,0-1.566,0L9.777,13.277l3.055,3.055,9.954-9.954A1.106,1.106,0,0,0,22.786,4.811ZM7.555,15.221a3.328,3.328,0,0,0-3.333,3.333A2.254,2.254,0,0,1,2,20.776,5.748,5.748,0,0,0,6.444,23a4.443,4.443,0,0,0,4.444-4.444A3.328,3.328,0,0,0,7.555,15.221Z" transform="translate(1174 530.002)"/></g></g></svg>