<svg xmlns="http://www.w3.org/2000/svg" xmlns:xlink="http://www.w3.org/1999/xlink" width="1920" height="1387" viewBox="0 0 1920 1387"><defs><style>.a,.f,.g,.k,.o{fill:#fff;}.a{stroke:#707070;}.b,.p,.q{fill:none;}.c{clip-path:url(#f);}.d{clip-path:url(#a);}.e{fill:#ba2027;}.f,.o,.r,.s{font-size:20px;}.f{font-family:SegoeUI, Segoe UI;}.h,.i,.t{fill:gray;}.h{font-size:56px;}.h,.r,.s{font-family:Arial-BoldMT, Arial;}.h,.o,.r,.s{font-weight:700;}.i{font-size:18px;}.i,.k,.l,.t{font-family:ArialMT, Arial;}.j,.l,.r{fill:#a6a6a6;}.k,.l{font-size:14px;}.m{clip-path:url(#b);}.n{fill:#0d4a71;}.o{font-family:SegoeUI-Bold, Segoe UI;}.p{stroke:#fff;}.s{fill:#848484;}.t{font-size:32px;}.u{clip-path:url(#c);}.v{fill-rule:evenodd;opacity:0.54;}.w,.x{stroke:none;}.x{fill:#707070;}.y{fill:#f2f2f2;}</style><clipPath id="a"><rect class="a" width="1614" height="712" transform="translate(153 367)"/></clipPath><clipPath id="b"><rect class="a" width="655" height="597.711" transform="translate(-14462 -12492)"/></clipPath><clipPath id="c"><rect class="b" width="24" height="24"/></clipPath><clipPath id="f"><rect width="1920" height="1387"/></clipPath></defs><g id="e" class="c"><rect class="y" width="1920" height="1387"/><g class="d" transform="translate(0 179)"><image width="2029" height="1141" transform="translate(8 105)" xlink:href="Editing%20-%20preview%20play%20mode-image.png"/></g><rect class="e" width="381" height="59" rx="29.5" transform="translate(1112 1180)"/><text class="f" transform="translate(1181 1218)"><tspan x="0" y="0">Ok. I would like to see him. </tspan></text><text class="f" transform="translate(838 702.5)"><tspan x="0" y="22">Doctor, we have a man, 51 years old, who </tspan><tspan x="0" y="49">entered the emergency department </tspan><tspan x="0" y="76">reporting chest pain. His vital signs are </tspan><tspan x="0" y="103">ABP 144x92 mmHG; HR 78 bpm; RR 21 </tspan><tspan x="0" y="130">rpm; Temperature 37 ºC; O2 Sat 98%.</tspan><tspan x="0" y="157"></tspan></text><rect class="g" width="1920" height="100"/><rect class="g" width="1614" height="88" transform="translate(153 377)"/><text class="h" transform="translate(153 286)"><tspan x="0" y="0">Preview case</tspan></text><text class="i" transform="translate(153 334)"><tspan x="0" y="0">Here&apos;s how your case will appear to students.</tspan></text><rect class="j" width="153" height="27" rx="5" transform="translate(428 144)"/><rect class="j" width="70" height="27" rx="5" transform="translate(153 144)"/><text class="k" transform="translate(166 150)"><tspan x="1" y="13" xml:space="preserve">HOME      </tspan></text><text class="l" transform="translate(231 150)"><tspan x="0" y="13">&gt;</tspan></text><text class="l" transform="translate(411 150)"><tspan x="0" y="13">&gt;</tspan></text><rect class="j" width="153" height="27" rx="5" transform="translate(248 144)"/><text class="k" transform="translate(256 150)"><tspan x="1.344" y="13" xml:space="preserve">CREATE NEW CASE    </tspan></text><text class="k" transform="translate(436 150)"><tspan x="15.21" y="13">PREVIEW CASE</tspan></text><g class="m" transform="translate(14752 13108.166)"><image width="1833.235" height="1031.195" transform="translate(-14618.591 -12718.29)" xlink:href="Editing%20-%20preview%20play%20mode-image2.png"/></g><rect class="n" width="244" height="47" rx="23.5" transform="translate(496 1190)"/><text class="o" transform="translate(551 1222)"><tspan x="0" y="0">NURSE Agnes </tspan></text><line class="p" y2="149" transform="translate(822 698)"/><g class="q" transform="translate(427 403)"><path class="w" d="M5.691,0h95.617C104.452,0,107,2.239,107,5V32c0,2.761-2.548,5-5.691,5H5.691C2.548,37,0,34.761,0,32V5C0,2.239,2.548,0,5.691,0Z"/><path class="x" d="M 5.691490173339844 1 C 3.104591369628906 1 1.000007629394531 2.794384002685547 1.000007629394531 5 L 1.000007629394531 32 C 1.000007629394531 34.20561599731445 3.104591369628906 36 5.691490173339844 36 L 101.3085174560547 36 C 103.8954162597656 36 106 34.20561599731445 106 32 L 106 5 C 106 2.794384002685547 103.8954162597656 1 101.3085174560547 1 L 5.691490173339844 1 M 5.691490173339844 0 L 101.3085174560547 0 C 104.4518356323242 0 107 2.238571166992188 107 5 L 107 32 C 107 34.76142883300781 104.4518356323242 37 101.3085174560547 37 L 5.691490173339844 37 C 2.548164367675781 37 7.62939453125e-06 34.76142883300781 7.62939453125e-06 32 L 7.62939453125e-06 5 C 7.62939453125e-06 2.238571166992188 2.548164367675781 0 5.691490173339844 0 Z"/></g><text class="r" transform="translate(481 429)"><tspan x="-25.752" y="0">PLAY</tspan></text><path class="j" d="M5.691,0h95.617C104.452,0,107,2.239,107,5V32c0,2.761-2.548,5-5.691,5H5.691C2.548,37,0,34.761,0,32V5C0,2.239,2.548,0,5.691,0Z" transform="translate(564 403)"/><text class="s" transform="translate(618 429)"><tspan x="-22.778" y="0">EDIT</tspan></text><text class="t" transform="translate(175 432)"><tspan x="0" y="0">Preview mode</tspan></text><g class="u" transform="translate(880 410)"><rect class="b" width="24" height="24"/><path class="v" d="M12,4,10.6,5.4,16.2,11H4v2H16.2l-5.6,5.6L12,20l8-8Z"/></g><g class="u" transform="translate(748 410)"><rect class="b" width="24" height="24"/><path class="v" d="M20,11H7.8l5.6-5.6L12,4,4,12l8,8,1.4-1.4L7.8,13H20V11Z"/></g></g></svg>