<svg xmlns="http://www.w3.org/2000/svg" xmlns:xlink="http://www.w3.org/1999/xlink" width="1920" height="1387" viewBox="0 0 1920 1387"><defs><style>.a,.e,.l,.n,.p,.s,.u{fill:#fff;}.a,.r{stroke:#707070;}.b,.i,.j,.r{fill:none;}.c{clip-path:url(#n);}.d{clip-path:url(#a);}.f,.g,.v{fill:gray;}.f{font-size:56px;}.ad,.f,.v{font-family:Arial-BoldMT, Arial;}.ad,.f,.n,.v{font-weight:700;}.g,.u,.v{font-size:18px;}.g,.p,.q,.u{font-family:ArialMT, Arial;}.h{clip-path:url(#b);}.i{stroke:#fff;}.j{stroke:#00ffe5;stroke-width:5px;}.k{fill:#ba2027;}.ad,.l,.n{font-size:20px;}.l{font-family:SegoeUI, Segoe UI;}.m{fill:#0d4a71;}.n{font-family:SegoeUI-Bold, Segoe UI;}.o,.q,.t{fill:#a6a6a6;}.p,.q{font-size:14px;}.s{stroke:#a6a6a6;}.s,.t{stroke-width:2px;}.t{stroke:gray;}.w{clip-path:url(#c);}.x{fill:rgba(34,31,31,0.26);}.aa,.x{fill-rule:evenodd;}.y{fill:#f1f1f1;stroke:rgba(0,0,0,0);stroke-width:0.5px;}.z{clip-path:url(#f);}.aa{opacity:0.54;}.ab,.ad{fill:#707070;}.ac{fill:#6f6f6f;}.ae{stroke:none;}.af{fill:#f2f2f2;}.ag{filter:url(#k);}.ah{filter:url(#d);}</style><clipPath id="a"><rect class="a" width="1203" height="712" transform="translate(427 367)"/></clipPath><clipPath id="b"><rect class="a" width="655" height="597.711" transform="translate(-14462 -12492)"/></clipPath><clipPath id="c"><rect class="b" width="40.25" height="26.5"/></clipPath><filter id="d" x="254.75" y="1338.75" width="26.5" height="26.5" filterUnits="userSpaceOnUse"><feOffset dy="2" input="SourceAlpha"/><feGaussianBlur stdDeviation="1" result="e"/><feFlood flood-opacity="0.239"/><feComposite operator="in" in2="e"/><feComposite in="SourceGraphic"/></filter><clipPath id="f"><rect class="b" width="24" height="24"/></clipPath><filter id="k" x="1491.75" y="395.75" width="26.5" height="26.5" filterUnits="userSpaceOnUse"><feOffset dy="2" input="SourceAlpha"/><feGaussianBlur stdDeviation="1" result="l"/><feFlood flood-opacity="0.239"/><feComposite operator="in" in2="l"/><feComposite in="SourceGraphic"/></filter><clipPath id="n"><rect width="1920" height="1387"/></clipPath></defs><g id="m" class="c"><rect class="af" width="1920" height="1387"/><g class="d" transform="translate(137 99)"><image width="2029" height="1141" transform="translate(8 105)" xlink:href="Edit%20-%20Introduction-image.png"/></g><rect class="e" width="1920" height="100"/><text class="f" transform="translate(153 286)"><tspan x="0" y="0">Edit case</tspan></text><text class="g" transform="translate(153 318)"><tspan x="0" y="16">Here&apos;s how your case will appear to students. You can also edit them. </tspan></text><g class="h" transform="translate(15026 13010.166)"><image width="1833.235" height="1031.195" transform="translate(-14618.591 -12718.29)" xlink:href="Edit%20-%20Introduction-image2.png"/></g><line class="i" y2="141" transform="translate(1016 673)"/><g class="j" transform="translate(575 510.5)"><rect class="ae" width="644" height="649"/><rect class="b" x="2.5" y="2.5" width="639" height="644"/></g><g class="j" transform="translate(1235 1067.5)"><rect class="ae" width="411" height="92"/><rect class="b" x="2.5" y="2.5" width="406" height="87"/></g><g class="j" transform="translate(563 482.5)"><rect class="ae" width="1204" height="633"/><rect class="b" x="2.5" y="2.5" width="1199" height="628"/></g><rect class="k" width="381" height="59" rx="29.5" transform="translate(1249 1085)"/><text class="l" transform="translate(1318 1123)"><tspan x="0" y="0">Ok. I would like to see him. </tspan></text><rect class="m" width="244" height="47" rx="23.5" transform="translate(772 1092)"/><text class="n" transform="translate(827 1124)"><tspan x="0" y="0">NURSE Agnes </tspan></text><rect class="o" width="153" height="27" rx="5" transform="translate(366 144)"/><rect class="o" width="70" height="27" rx="5" transform="translate(153 144)"/><text class="p" transform="translate(166 150)"><tspan x="1" y="13" xml:space="preserve">HOME      </tspan></text><text class="q" transform="translate(231 150)"><tspan x="0" y="13">&gt;</tspan></text><text class="q" transform="translate(349 150)"><tspan x="0" y="13">&gt;</tspan></text><rect class="o" width="90" height="27" rx="5" transform="translate(248 144)"/><text class="p" transform="translate(256 150)"><tspan x="11" y="13">DRAFTS</tspan></text><text class="p" transform="translate(374 150)"><tspan x="31.675" y="13">EDIT CASE</tspan></text><g class="j" transform="translate(1000 649.5)"><rect class="ae" width="441" height="183"/><rect class="b" x="2.5" y="2.5" width="436" height="178"/></g><text class="l" transform="translate(1032 672.5)"><tspan x="0" y="22">Doctor, we have a man, 51 years old, who </tspan><tspan x="0" y="49">entered the emergency department </tspan><tspan x="0" y="76">reporting chest pain. His vital signs are </tspan><tspan x="0" y="103">ABP 144x92 mmHG; HR 78 bpm; RR 21 </tspan><tspan x="0" y="130">rpm; Temperature 37 ºC; O2 Sat 98%.</tspan><tspan x="0" y="157"></tspan></text><g class="a" transform="translate(153 485)"><rect class="ae" width="381" height="840" rx="5"/><rect class="b" x="0.5" y="0.5" width="380" height="839" rx="4.5"/></g><g transform="translate(0 -15)"><line class="r" y1="20" x2="39" transform="translate(397 1155)"/><line class="r" y1="20" x2="39" transform="translate(397 784)"/><g transform="translate(102 237)"><g class="s" transform="translate(273 495)"><rect class="ae" width="141" height="60" rx="5"/><rect class="b" x="1" y="1" width="139" height="58" rx="4"/></g><text class="g" transform="translate(344 531)"><tspan x="-43.018" y="0">Supervisor</tspan></text></g><g transform="translate(102 608)"><g class="s" transform="translate(273 495)"><rect class="ae" width="141" height="60" rx="5"/><rect class="b" x="1" y="1" width="139" height="58" rx="4"/></g><text class="g" transform="translate(344 531)"><tspan x="-43.018" y="0">Supervisor</tspan></text></g><g transform="translate(98 233)"><g class="s" transform="translate(273 495)"><rect class="ae" width="141" height="60" rx="5"/><rect class="b" x="1" y="1" width="139" height="58" rx="4"/></g><text class="g" transform="translate(344 531)"><tspan x="-43.018" y="0">Supervisor</tspan></text></g><g transform="translate(98 604)"><g class="s" transform="translate(273 495)"><rect class="ae" width="141" height="60" rx="5"/><rect class="b" x="1" y="1" width="139" height="58" rx="4"/></g><text class="g" transform="translate(344 531)"><tspan x="-43.018" y="0">Supervisor</tspan></text></g><path class="r" d="M0,0V244.167" transform="translate(343.5 644.5)"/><path class="r" d="M0,0V244.167" transform="translate(343.5 1022.5)"/><g transform="translate(0 29)"><g class="t" transform="translate(273 495)"><rect class="ae" width="141" height="60" rx="5"/><rect class="b" x="1" y="1" width="139" height="58" rx="4"/></g><text class="u" transform="translate(344 531)"><tspan x="-47.03" y="0">Introduction</tspan></text></g><g transform="translate(0 149)"><g class="s" transform="translate(273 495)"><rect class="ae" width="141" height="60" rx="5"/><rect class="b" x="1" y="1" width="139" height="58" rx="4"/></g><text class="g" transform="translate(344 531)"><tspan x="-28.02" y="0">Patient</tspan></text></g><g transform="translate(0 309)"><g class="s" transform="translate(273 495)"><rect class="ae" width="141" height="60" rx="5"/><rect class="b" x="1" y="1" width="139" height="58" rx="4"/></g><text class="g" transform="translate(344 521)"><tspan x="-40.025" y="0">Generate </tspan><tspan x="-43.027" y="21">hypothesis</tspan></text></g><g transform="translate(0 680)"><g class="s" transform="translate(273 495)"><rect class="ae" width="141" height="60" rx="5"/><rect class="b" x="1" y="1" width="139" height="58" rx="4"/></g><text class="g" transform="translate(344 521)"><tspan x="-40.025" y="0">Generate </tspan><tspan x="-43.027" y="21">hypothesis</tspan></text></g><g transform="translate(0 389)"><g class="s" transform="translate(273 495)"><rect class="ae" width="141" height="60" rx="5"/><rect class="b" x="1" y="1" width="139" height="58" rx="4"/></g><text class="g" transform="translate(344 531)"><tspan x="-57.032" y="0">Text highligths</tspan></text></g><g transform="translate(0 760)"><g class="s" transform="translate(273 495)"><rect class="ae" width="141" height="60" rx="5"/><rect class="b" x="1" y="1" width="139" height="58" rx="4"/></g><text class="g" transform="translate(344 531)"><tspan x="-39.524" y="0">Feedback</tspan></text></g><g transform="translate(0 520)"><g class="s" transform="translate(273 495)"><rect class="ae" width="141" height="60" rx="5"/><rect class="b" x="1" y="1" width="139" height="58" rx="4"/></g><text class="g" transform="translate(344 531)"><tspan x="-19.006" y="0">EKG</tspan></text></g><g transform="translate(-93 229)"><g class="s" transform="translate(273 495)"><rect class="ae" width="141" height="60" rx="5"/><rect class="b" x="1" y="1" width="139" height="58" rx="4"/></g><text class="g" transform="translate(344 531)"><tspan x="-52.277" y="0">+ information</tspan></text></g><g transform="translate(-93 600)"><g class="s" transform="translate(273 495)"><rect class="ae" width="141" height="60" rx="5"/><rect class="b" x="1" y="1" width="139" height="58" rx="4"/></g><text class="g" transform="translate(344 531)"><tspan x="-52.277" y="0">+ information</tspan></text></g><g transform="translate(94 229)"><g class="s" transform="translate(273 495)"><rect class="ae" width="141" height="60" rx="5"/><rect class="b" x="1" y="1" width="139" height="58" rx="4"/></g><text class="g" transform="translate(344 531)"><tspan x="-43.018" y="0">Supervisor</tspan></text></g><g transform="translate(94 600)"><g class="s" transform="translate(273 495)"><rect class="ae" width="141" height="60" rx="5"/><rect class="b" x="1" y="1" width="139" height="58" rx="4"/></g><text class="g" transform="translate(344 531)"><tspan x="-43.018" y="0">Supervisor</tspan></text></g><line class="r" x1="39" y2="20" transform="translate(251 704)"/><line class="r" x1="39" y2="20" transform="translate(251 1075)"/><line class="r" x1="39" y1="20" transform="translate(251 784)"/><line class="r" x1="39" y1="20" transform="translate(251 1155)"/><line class="r" x2="39" y2="20" transform="translate(397 704)"/><line class="r" x2="39" y2="20" transform="translate(397 1075)"/><line class="r" x2="46" transform="translate(321.5 754.5)"/><line class="r" x2="46" transform="translate(321.5 1124.5)"/><line class="r" x2="381" transform="translate(153 605)"/><line class="r" x2="381" transform="translate(153 965)"/><text class="v" transform="translate(169 630)"><tspan x="0" y="0">CYCLE 1</tspan></text><text class="v" transform="translate(169 999)"><tspan x="0" y="0">CYCLE 2</tspan></text><text class="v" transform="translate(169 558)"><tspan x="0" y="0">START</tspan></text></g><g class="w" transform="translate(254.75 1338.75)"><path class="x" d="M30,17H10A7,7,0,0,1,10,3H30a7,7,0,0,1,0,14Z" transform="translate(3.25 1.25)"/><g class="ah" transform="matrix(1, 0, 0, 1, -254.75, -1338.75)"><path class="y" d="M10,0A10,10,0,1,1,0,10,10,10,0,0,1,10,0Z" transform="translate(258 1340)"/></g></g><text class="g" transform="translate(200 1356)"><tspan x="-46.521" y="0">Thumbnails</tspan></text><text class="g" transform="translate(471 1355)"><tspan x="-38.004" y="0">Maximize</tspan></text><g class="z" transform="translate(510 1336)"><rect class="b" width="24" height="24"/><path class="aa" d="M7,14H5v5h5V17H7V14ZM5,10H7V7h3V5H5v5Zm12,7H14v2h5V14H17v3ZM14,5V7h3v3h2V5Z"/></g><g transform="translate(2 -4)"><g class="a" transform="translate(1167 523)"><rect class="ae" width="40" height="40" rx="5"/><rect class="b" x="0.5" y="0.5" width="39" height="39" rx="4.5"/></g><path class="ab" d="M22.786,4.811,21.3,3.322a1.106,1.106,0,0,0-1.566,0L9.777,13.277l3.055,3.055,9.954-9.954A1.106,1.106,0,0,0,22.786,4.811ZM7.555,15.221a3.328,3.328,0,0,0-3.333,3.333A2.254,2.254,0,0,1,2,20.776,5.748,5.748,0,0,0,6.444,23a4.443,4.443,0,0,0,4.444-4.444A3.328,3.328,0,0,0,7.555,15.221Z" transform="translate(1174 530.002)"/></g><g transform="translate(222 139.5)"><g class="a" transform="translate(1167 523)"><rect class="ae" width="40" height="40" rx="5"/><rect class="b" x="0.5" y="0.5" width="39" height="39" rx="4.5"/></g><path class="ab" d="M22.786,4.811,21.3,3.322a1.106,1.106,0,0,0-1.566,0L9.777,13.277l3.055,3.055,9.954-9.954A1.106,1.106,0,0,0,22.786,4.811ZM7.555,15.221a3.328,3.328,0,0,0-3.333,3.333A2.254,2.254,0,0,1,2,20.776,5.748,5.748,0,0,0,6.444,23a4.443,4.443,0,0,0,4.444-4.444A3.328,3.328,0,0,0,7.555,15.221Z" transform="translate(1174 530.002)"/></g><g transform="translate(551 -32.5)"><g class="a" transform="translate(1167 523)"><rect class="ae" width="40" height="40" rx="5"/><rect class="b" x="0.5" y="0.5" width="39" height="39" rx="4.5"/></g><path class="ac" d="M22.786,4.811,21.3,3.322a1.106,1.106,0,0,0-1.566,0L9.777,13.277l3.055,3.055,9.954-9.954A1.106,1.106,0,0,0,22.786,4.811ZM7.555,15.221a3.328,3.328,0,0,0-3.333,3.333A2.254,2.254,0,0,1,2,20.776,5.748,5.748,0,0,0,6.444,23a4.443,4.443,0,0,0,4.444-4.444A3.328,3.328,0,0,0,7.555,15.221Z" transform="translate(1174 530.002)"/></g><g transform="translate(429 554.5)"><g class="a" transform="translate(1167 523)"><rect class="ae" width="40" height="40" rx="5"/><rect class="b" x="0.5" y="0.5" width="39" height="39" rx="4.5"/></g><path class="ab" d="M22.786,4.811,21.3,3.322a1.106,1.106,0,0,0-1.566,0L9.777,13.277l3.055,3.055,9.954-9.954A1.106,1.106,0,0,0,22.786,4.811ZM7.555,15.221a3.328,3.328,0,0,0-3.333,3.333A2.254,2.254,0,0,1,2,20.776,5.748,5.748,0,0,0,6.444,23a4.443,4.443,0,0,0,4.444-4.444A3.328,3.328,0,0,0,7.555,15.221Z" transform="translate(1174 530.002)"/></g><g class="a" transform="translate(153 377)"><rect class="ae" width="1614" height="60" rx="5"/><rect class="b" x="0.5" y="0.5" width="1613" height="59" rx="4.5"/></g><g class="a" transform="translate(1330 377)"><rect class="ae" width="240" height="60"/><rect class="b" x="0.5" y="0.5" width="239" height="59"/></g><text class="g" transform="translate(1353 413)"><tspan x="0" y="0">Preview mode</tspan></text><g transform="translate(280 -3)"><g class="a" transform="translate(1393 390)"><rect class="ae" width="80" height="40" rx="5"/><rect class="b" x="0.5" y="0.5" width="79" height="39" rx="4.5"/></g><g class="z" transform="translate(1401 398)"><rect class="b" width="24" height="24"/><path class="aa" d="M20,11H7.8l5.6-5.6L12,4,4,12l8,8,1.4-1.4L7.8,13H20V11Z"/></g><g class="z" transform="translate(1441 398)"><rect class="b" width="24" height="24"/><path class="aa" d="M12,4,10.6,5.4,16.2,11H4v2H16.2l-5.6,5.6L12,20l8-8Z"/></g><line class="r" y2="39" transform="translate(1433.5 390.5)"/></g><g transform="translate(-468)"><g class="a" transform="translate(632 387)"><rect class="ae" width="148" height="40" rx="5"/><rect class="b" x="0.5" y="0.5" width="147" height="39" rx="4.5"/></g><text class="ad" transform="translate(665 396)"><tspan x="0" y="18">SETTINGS</tspan></text><g class="z" transform="translate(641 395)"><path class="ab" d="M9.568,12.123A2.625,2.625,0,1,1,12.193,9.5,2.625,2.625,0,0,1,9.568,12.123Zm5.572-1.893a5.13,5.13,0,0,0,0-1.464l1.585-1.24a.374.374,0,0,0,.089-.479l-1.5-2.6a.375.375,0,0,0-.459-.163l-1.867.752A5.605,5.605,0,0,0,11.719,4.3l-.281-1.987A.376.376,0,0,0,11.068,2h-3a.375.375,0,0,0-.37.316L7.416,4.3a5.624,5.624,0,0,0-1.268.738L4.282,4.286a.375.375,0,0,0-.459.163l-1.5,2.6a.374.374,0,0,0,.089.479L4,8.766A5.129,5.129,0,0,0,4,10.23L2.411,11.47a.376.376,0,0,0-.089.479l1.5,2.6a.375.375,0,0,0,.459.163l1.867-.752a5.607,5.607,0,0,0,1.268.737L7.7,16.682a.375.375,0,0,0,.37.316h3a.376.376,0,0,0,.371-.316l.281-1.987a5.622,5.622,0,0,0,1.267-.738l1.868.753a.375.375,0,0,0,.459-.163l1.5-2.6a.376.376,0,0,0-.089-.479Z" transform="translate(2.727 3.002)"/><rect class="b" width="24" height="24"/></g></g><g class="w" transform="translate(1491.75 395.75)"><path class="x" d="M30,17H10A7,7,0,0,1,10,3H30a7,7,0,0,1,0,14Z" transform="translate(3.25 1.25)"/><g class="ag" transform="matrix(1, 0, 0, 1, -1491.75, -395.75)"><path class="y" d="M10,0A10,10,0,1,1,0,10,10,10,0,0,1,10,0Z" transform="translate(1495 397)"/></g></g></g></svg>