<svg xmlns="http://www.w3.org/2000/svg" xmlns:xlink="http://www.w3.org/1999/xlink" width="848" height="752" viewBox="0 0 848 752"><defs><style>.a,.l{fill:none;}.b{clip-path:url(#l);}.c,.f,.i,.k{fill:#fff;}.c,.h{stroke:#707070;}.d,.e{fill:gray;font-size:18px;}.d{font-family:ArialMT, Arial;}.e,.k{font-family:Arial-BoldMT, Arial;font-weight:700;}.f{stroke:#a6a6a6;stroke-width:2px;}.g{clip-path:url(#a);}.h,.j{fill:#a6a6a6;}.k{font-size:20px;}.l{stroke:rgba(0,0,0,0.12);fill-rule:evenodd;}.m{clip-path:url(#b);}.n{fill:#747474;}.o{stroke:none;}</style><clipPath id="a"><rect class="a" width="107" height="38"/></clipPath><clipPath id="b"><rect class="a" width="18" height="18"/></clipPath><clipPath id="l"><rect width="848" height="752"/></clipPath></defs><g id="k" class="b"><g class="c"><rect class="o" width="808" height="732" rx="5"/><rect class="a" x="0.5" y="0.5" width="807" height="731" rx="4.5"/></g><text class="d" transform="translate(30 78)"><tspan x="0" y="16">Choose itens to add to description</tspan></text><text class="e" transform="translate(30 38)"><tspan x="0" y="16">SHARED AREA: CHEST PAIN</tspan></text><g class="f" transform="translate(30 114)"><rect class="o" width="753" height="554" rx="5"/><rect class="a" x="1" y="1" width="751" height="552" rx="4"/></g><text class="d" transform="translate(85 134)"><tspan x="0" y="16">Likelihood Ratio </tspan><tspan x="0" y="66">Clinical History Myocardial Infarction </tspan><tspan x="0" y="116">Physical Examination Myocardial Infarction </tspan><tspan x="0" y="166">Clinical History Aortic Dissection </tspan><tspan x="0" y="216">Physical Examination Aortic Dissection </tspan><tspan x="0" y="266">Pulmonary Embolism Wells Criteria </tspan><tspan x="0" y="316">Other item</tspan><tspan x="0" y="366">Other item</tspan><tspan x="0" y="416">Other item</tspan></text><g class="g" transform="translate(492 677)"><g class="f"><rect class="o" width="107" height="38" rx="5"/><rect class="a" x="1" y="1" width="105" height="36" rx="4"/></g><text class="d" transform="translate(15 26.124)"><tspan x="0" y="0">CANCEL</tspan></text></g><g transform="translate(-359 -523)"><g class="h" transform="translate(1167 523)"><rect class="o" width="40" height="40" rx="5"/><rect class="a" x="0.5" y="0.5" width="39" height="39" rx="4.5"/></g><path class="i" d="M22.786,4.811,21.3,3.322a1.106,1.106,0,0,0-1.566,0L9.777,13.277l3.055,3.055,9.954-9.954A1.106,1.106,0,0,0,22.786,4.811ZM7.555,15.221a3.328,3.328,0,0,0-3.333,3.333A2.254,2.254,0,0,1,2,20.776,5.748,5.748,0,0,0,6.444,23a4.443,4.443,0,0,0,4.444-4.444A3.328,3.328,0,0,0,7.555,15.221Z" transform="translate(1174 530.002)"/></g><path class="j" d="M-37.724,0H128.482a5,5,0,0,1,5,5V32a5,5,0,0,1-5,5H-37.724a5,5,0,0,1-5-5V5A5,5,0,0,1-37.724,0Z" transform="translate(650 677)"/><text class="k" transform="translate(697 703)"><tspan x="-77.783" y="0">ADD SELECTED</tspan></text><path class="l" d="M543.5,15V767.5" transform="translate(798 -375.5) rotate(90)"/><path class="l" d="M543.5,15V767.5" transform="translate(798 -275.5) rotate(90)"/><path class="l" d="M543.5,15V767.5" transform="translate(798 -75.5) rotate(90)"/><path class="l" d="M543.5,15V767.5" transform="translate(798 -175.5) rotate(90)"/><path class="l" d="M543.5,15V767.5" transform="translate(798 24.5) rotate(90)"/><path class="l" d="M543.5,15V767.5" transform="translate(798 -325.5) rotate(90)"/><path class="l" d="M543.5,15V767.5" transform="translate(798 -225.5) rotate(90)"/><path class="l" d="M543.5,15V767.5" transform="translate(798 -25.5) rotate(90)"/><path class="l" d="M543.5,15V767.5" transform="translate(798 -125.5) rotate(90)"/><path class="l" d="M543.5,15V767.5" transform="translate(798 74.5) rotate(90)"/><path class="j" d="M-37.724,0H78.715a5,5,0,0,1,5,5V32a5,5,0,0,1-5,5H-37.724a5,5,0,0,1-5-5V5A5,5,0,0,1-37.724,0Z" transform="translate(128 576)"/><text class="k" transform="translate(148 602)"><tspan x="-48.33" y="0">ADD ITEM</tspan></text><g class="m" transform="translate(49 434)"><path class="n" d="M22-623v14H8v-14Zm0-2H8a2.006,2.006,0,0,0-2,2v14a2.006,2.006,0,0,0,2,2H22a2.006,2.006,0,0,0,2-2v-14A2.006,2.006,0,0,0,22-625Z" transform="translate(-6 625)"/></g><g class="m" transform="translate(49 484)"><path class="n" d="M22-623v14H8v-14Zm0-2H8a2.006,2.006,0,0,0-2,2v14a2.006,2.006,0,0,0,2,2H22a2.006,2.006,0,0,0,2-2v-14A2.006,2.006,0,0,0,22-625Z" transform="translate(-6 625)"/></g><g class="m" transform="translate(49 534)"><path class="n" d="M22-623v14H8v-14Zm0-2H8a2.006,2.006,0,0,0-2,2v14a2.006,2.006,0,0,0,2,2H22a2.006,2.006,0,0,0,2-2v-14A2.006,2.006,0,0,0,22-625Z" transform="translate(-6 625)"/></g><g class="m" transform="translate(49 134)"><path class="n" d="M211-681H197a2,2,0,0,0-2,2v14a2,2,0,0,0,2,2h14a2,2,0,0,0,2-2v-14A2,2,0,0,0,211-681Zm-9,14-5-5,1.41-1.41,3.59,3.58,7.59-7.59L211-676Z" transform="translate(-195 681)"/></g><g class="m" transform="translate(49 184)"><path class="n" d="M211-681H197a2,2,0,0,0-2,2v14a2,2,0,0,0,2,2h14a2,2,0,0,0,2-2v-14A2,2,0,0,0,211-681Zm-9,14-5-5,1.41-1.41,3.59,3.58,7.59-7.59L211-676Z" transform="translate(-195 681)"/></g><g class="m" transform="translate(49 234)"><path class="n" d="M211-681H197a2,2,0,0,0-2,2v14a2,2,0,0,0,2,2h14a2,2,0,0,0,2-2v-14A2,2,0,0,0,211-681Zm-9,14-5-5,1.41-1.41,3.59,3.58,7.59-7.59L211-676Z" transform="translate(-195 681)"/></g><g class="m" transform="translate(49 284)"><path class="n" d="M211-681H197a2,2,0,0,0-2,2v14a2,2,0,0,0,2,2h14a2,2,0,0,0,2-2v-14A2,2,0,0,0,211-681Zm-9,14-5-5,1.41-1.41,3.59,3.58,7.59-7.59L211-676Z" transform="translate(-195 681)"/></g><g class="m" transform="translate(49 334)"><path class="n" d="M211-681H197a2,2,0,0,0-2,2v14a2,2,0,0,0,2,2h14a2,2,0,0,0,2-2v-14A2,2,0,0,0,211-681Zm-9,14-5-5,1.41-1.41,3.59,3.58,7.59-7.59L211-676Z" transform="translate(-195 681)"/></g><g class="m" transform="translate(49 384)"><path class="n" d="M211-681H197a2,2,0,0,0-2,2v14a2,2,0,0,0,2,2h14a2,2,0,0,0,2-2v-14A2,2,0,0,0,211-681Zm-9,14-5-5,1.41-1.41,3.59,3.58,7.59-7.59L211-676Z" transform="translate(-195 681)"/></g></g></svg>