<svg xmlns="http://www.w3.org/2000/svg" xmlns:xlink="http://www.w3.org/1999/xlink" width="1920" height="1387" viewBox="0 0 1920 1387"><defs><style>.a,.ac,.ae,.ah,.e,.f,.l,.p,.r{fill:#fff;}.a,.w{stroke:#707070;}.b,.g,.n,.w{fill:none;}.c{clip-path:url(#n);}.d{clip-path:url(#a);}.ae,.ag,.f,.j{font-size:18px;}.f,.r,.s{font-family:SegoeUI, Segoe UI;}.g{stroke:#ba2027;stroke-width:3px;}.h{clip-path:url(#b);}.ag,.aj,.i,.j{fill:gray;}.i{font-size:56px;}.ag,.i,.x{font-family:Arial-BoldMT, Arial;}.ag,.i,.p,.x{font-weight:700;}.ae,.j,.l,.m{font-family:ArialMT, Arial;}.ad,.af,.ak,.k,.m{fill:#a6a6a6;}.l,.m{font-size:14px;}.n{stroke:#00ffe5;stroke-width:5px;}.o{fill:#0d4a71;}.p,.r,.x{font-size:20px;}.p{font-family:SegoeUI-Bold, Segoe UI;}.q{fill:#ba2027;}.s{fill:#346e93;font-size:28px;}.t{fill:#6f6f6f;}.u{clip-path:url(#c);}.aa,.v{fill-rule:evenodd;}.v{opacity:0.54;}.x,.y{fill:#707070;}.z{clip-path:url(#f);}.aa{fill:rgba(34,31,31,0.26);}.ab{fill:#f1f1f1;stroke:rgba(0,0,0,0);stroke-width:0.5px;}.ac{stroke:#a6a6a6;}.ac,.ad{stroke-width:2px;}.ad{stroke:gray;}.ai,.aj,.ak{stroke:none;}.al{fill:#f2f2f2;}.am{filter:url(#j);}.an{filter:url(#g);}</style><clipPath id="a"><rect class="a" width="1340" height="712" transform="translate(427 367)"/></clipPath><clipPath id="b"><rect class="a" width="360" height="477" transform="translate(1407 648)"/></clipPath><clipPath id="c"><rect class="b" width="24" height="24"/></clipPath><clipPath id="f"><rect class="b" width="40.25" height="26.5"/></clipPath><filter id="g" x="1491.75" y="395.75" width="26.5" height="26.5" filterUnits="userSpaceOnUse"><feOffset dy="2" input="SourceAlpha"/><feGaussianBlur stdDeviation="1" result="h"/><feFlood flood-opacity="0.239"/><feComposite operator="in" in2="h"/><feComposite in="SourceGraphic"/></filter><filter id="j" x="254.75" y="1338.75" width="26.5" height="26.5" filterUnits="userSpaceOnUse"><feOffset dy="2" input="SourceAlpha"/><feGaussianBlur stdDeviation="1" result="k"/><feFlood flood-opacity="0.239"/><feComposite operator="in" in2="k"/><feComposite in="SourceGraphic"/></filter><clipPath id="n"><rect width="1920" height="1387"/></clipPath></defs><g id="m" class="c"><rect class="al" width="1920" height="1387"/><g class="d" transform="translate(137 99)"><image width="2029" height="1141" transform="translate(8 105)" xlink:href="Edit%20-%20Supervisor%201-image.png"/></g><rect class="e" width="1920" height="100"/><text class="f" transform="translate(595 537)"><tspan x="0" y="19">Hi! I am glad that you called me. Chest pain is an important complaint at the emergency department </tspan><tspan x="0" y="38">and we have to exclude the fatal causes: myocardial infarction (MI), acute aortic dissection (AAD), </tspan><tspan x="0" y="57">pulmonary embolism PE), hypertensive pneumothorax (HP), and Boerhaave Syndrome (BS).</tspan><tspan x="0" y="76">The best way to find out what is happening with your patient, my young padawan, is to gather as </tspan><tspan x="0" y="95">much information as possible through history taking and physical examination. We need to search </tspan><tspan x="0" y="114">for the signs and symptoms that can guide our clinical reasoning process by changing the pre-test </tspan><tspan x="0" y="133">probabilities of each disease.</tspan><tspan x="0" y="152"></tspan><tspan x="0" y="171" xml:space="preserve">Do you know the concept of Likelihood ratio (LR)?      Likelihood Ratio</tspan><tspan x="0" y="190"></tspan><tspan x="0" y="209" xml:space="preserve">Clinical History Myocardial Infarction       Physical Examination Myocardial Infarction                   </tspan><tspan x="0" y="228"></tspan><tspan x="0" y="247" xml:space="preserve">  Clinical History Aortic Dissection               Physical Examination Aortic Dissection  </tspan><tspan x="0" y="266"> </tspan><tspan x="0" y="285">Pulmonary Embolism Wells Criteria</tspan><tspan x="0" y="304"></tspan><tspan x="0" y="323">Hypertensive pneumothorax is more common in tall and thin young adults (primary pneumothorax) </tspan><tspan x="0" y="342">or in patients with chronic pulmonary diseases or chest trauma (secondary pneumothorax). On </tspan><tspan x="0" y="361">physical examination, we expect asymmetry in lung auscultation and the trachea may be dislocated </tspan><tspan x="0" y="380">to the contralateral side of the pneumothorax.</tspan><tspan x="0" y="399"></tspan><tspan x="0" y="418">Boerhaave Syndrome is more common in patients who presented vomiting before the chest pain </tspan><tspan x="0" y="437">started, were submitted to endoscopic procedures or had chest trauma.</tspan></text><g class="g" transform="translate(1007 685)"><rect class="ai" width="154" height="34" rx="17"/><rect class="b" x="1.5" y="1.5" width="151" height="31" rx="15.5"/></g><g class="g" transform="translate(585 724)"><rect class="ai" width="310" height="34" rx="17"/><rect class="b" x="1.5" y="1.5" width="307" height="31" rx="15.5"/></g><g class="g" transform="translate(585 762)"><rect class="ai" width="310" height="34" rx="17"/><rect class="b" x="1.5" y="1.5" width="307" height="31" rx="15.5"/></g><g class="g" transform="translate(585 800)"><rect class="ai" width="310" height="34" rx="17"/><rect class="b" x="1.5" y="1.5" width="307" height="31" rx="15.5"/></g><g class="g" transform="translate(904 724)"><rect class="ai" width="369" height="34" rx="17"/><rect class="b" x="1.5" y="1.5" width="366" height="31" rx="15.5"/></g><g class="g" transform="translate(904 762)"><rect class="ai" width="369" height="34" rx="17"/><rect class="b" x="1.5" y="1.5" width="366" height="31" rx="15.5"/></g><g class="h"><image width="1394" height="784" transform="translate(653 491.5)" xlink:href="Edit%20-%20Supervisor%201-image2.png"/></g><text class="i" transform="translate(153 286)"><tspan x="0" y="0">Edit case</tspan></text><text class="j" transform="translate(153 318)"><tspan x="0" y="16">Here&apos;s how your case will appear to students. You can also edit them. </tspan></text><rect class="k" width="153" height="27" rx="5" transform="translate(366 144)"/><rect class="k" width="70" height="27" rx="5" transform="translate(153 144)"/><text class="l" transform="translate(166 150)"><tspan x="1" y="13" xml:space="preserve">HOME      </tspan></text><text class="m" transform="translate(231 150)"><tspan x="0" y="13">&gt;</tspan></text><text class="m" transform="translate(349 150)"><tspan x="0" y="13">&gt;</tspan></text><rect class="k" width="90" height="27" rx="5" transform="translate(248 144)"/><text class="l" transform="translate(256 150)"><tspan x="11" y="13">DRAFTS</tspan></text><text class="l" transform="translate(374 150)"><tspan x="31.675" y="13">EDIT CASE</tspan></text><g class="n" transform="translate(581 523.5)"><rect class="ai" width="826" height="479"/><rect class="b" x="2.5" y="2.5" width="821" height="474"/></g><g class="n" transform="translate(1407 646.5)"><rect class="ai" width="360" height="493"/><rect class="b" x="2.5" y="2.5" width="355" height="488"/></g><g class="n" transform="translate(564 485.5)"><rect class="ai" width="1203" height="629"/><rect class="b" x="2.5" y="2.5" width="1198" height="624"/></g><g transform="translate(8506 13041)"><rect class="o" width="238" height="47" rx="23.5" transform="translate(-7051 -11955)"/><text class="p" transform="translate(-7016 -11923)"><tspan x="0" y="0">SUPERVISOR Harry</tspan></text></g><g transform="translate(156 40)"><g class="a" transform="translate(437 980)"><rect class="ai" width="430" height="177" rx="12"/><rect class="b" x="0.5" y="0.5" width="429" height="176" rx="11.5"/></g><rect class="q" width="314" height="59" rx="29.5" transform="translate(453 1076)"/><text class="r" transform="translate(491 1114)"><tspan x="0" y="0">I got it! Generate hypothesis</tspan></text><text class="s" transform="translate(455 988)"><tspan x="0" y="30">How does this information can </tspan><tspan x="0" y="67">help you to solve your case?</tspan></text></g><g class="n" transform="translate(602 1030.5)"><rect class="ai" width="413" height="78"/><rect class="b" x="2.5" y="2.5" width="408" height="73"/></g><g transform="translate(189 11.5)"><g class="a" transform="translate(1167 523)"><rect class="ai" width="40" height="40" rx="5"/><rect class="b" x="0.5" y="0.5" width="39" height="39" rx="4.5"/></g><path class="t" d="M22.786,4.811,21.3,3.322a1.106,1.106,0,0,0-1.566,0L9.777,13.277l3.055,3.055,9.954-9.954A1.106,1.106,0,0,0,22.786,4.811ZM7.555,15.221a3.328,3.328,0,0,0-3.333,3.333A2.254,2.254,0,0,1,2,20.776,5.748,5.748,0,0,0,6.444,23a4.443,4.443,0,0,0,4.444-4.444A3.328,3.328,0,0,0,7.555,15.221Z" transform="translate(1174 530.002)"/></g><g transform="translate(550 -25.5)"><g class="a" transform="translate(1167 523)"><rect class="ai" width="40" height="40" rx="5"/><rect class="b" x="0.5" y="0.5" width="39" height="39" rx="4.5"/></g><path class="t" d="M22.786,4.811,21.3,3.322a1.106,1.106,0,0,0-1.566,0L9.777,13.277l3.055,3.055,9.954-9.954A1.106,1.106,0,0,0,22.786,4.811ZM7.555,15.221a3.328,3.328,0,0,0-3.333,3.333A2.254,2.254,0,0,1,2,20.776,5.748,5.748,0,0,0,6.444,23a4.443,4.443,0,0,0,4.444-4.444A3.328,3.328,0,0,0,7.555,15.221Z" transform="translate(1174 530.002)"/></g><g transform="translate(545 139.5)"><g class="a" transform="translate(1167 523)"><rect class="ai" width="40" height="40" rx="5"/><rect class="b" x="0.5" y="0.5" width="39" height="39" rx="4.5"/></g><path class="t" d="M22.786,4.811,21.3,3.322a1.106,1.106,0,0,0-1.566,0L9.777,13.277l3.055,3.055,9.954-9.954A1.106,1.106,0,0,0,22.786,4.811ZM7.555,15.221a3.328,3.328,0,0,0-3.333,3.333A2.254,2.254,0,0,1,2,20.776,5.748,5.748,0,0,0,6.444,23a4.443,4.443,0,0,0,4.444-4.444A3.328,3.328,0,0,0,7.555,15.221Z" transform="translate(1174 530.002)"/></g><g transform="translate(-200 515.5)"><g class="a" transform="translate(1167 523)"><rect class="ai" width="40" height="40" rx="5"/><rect class="b" x="0.5" y="0.5" width="39" height="39" rx="4.5"/></g><path class="t" d="M22.786,4.811,21.3,3.322a1.106,1.106,0,0,0-1.566,0L9.777,13.277l3.055,3.055,9.954-9.954A1.106,1.106,0,0,0,22.786,4.811ZM7.555,15.221a3.328,3.328,0,0,0-3.333,3.333A2.254,2.254,0,0,1,2,20.776,5.748,5.748,0,0,0,6.444,23a4.443,4.443,0,0,0,4.444-4.444A3.328,3.328,0,0,0,7.555,15.221Z" transform="translate(1174 530.002)"/></g><g class="a" transform="translate(153 377)"><rect class="ai" width="1614" height="60" rx="5"/><rect class="b" x="0.5" y="0.5" width="1613" height="59" rx="4.5"/></g><g class="a" transform="translate(1330 377)"><rect class="ai" width="240" height="60"/><rect class="b" x="0.5" y="0.5" width="239" height="59"/></g><text class="j" transform="translate(1353 413)"><tspan x="0" y="0">Preview mode</tspan></text><g transform="translate(280 -3)"><g class="a" transform="translate(1393 390)"><rect class="ai" width="80" height="40" rx="5"/><rect class="b" x="0.5" y="0.5" width="79" height="39" rx="4.5"/></g><g class="u" transform="translate(1401 398)"><rect class="b" width="24" height="24"/><path class="v" d="M20,11H7.8l5.6-5.6L12,4,4,12l8,8,1.4-1.4L7.8,13H20V11Z"/></g><g class="u" transform="translate(1441 398)"><rect class="b" width="24" height="24"/><path class="v" d="M12,4,10.6,5.4,16.2,11H4v2H16.2l-5.6,5.6L12,20l8-8Z"/></g><line class="w" y2="39" transform="translate(1433.5 390.5)"/></g><g transform="translate(-468)"><g class="a" transform="translate(632 387)"><rect class="ai" width="148" height="40" rx="5"/><rect class="b" x="0.5" y="0.5" width="147" height="39" rx="4.5"/></g><text class="x" transform="translate(665 396)"><tspan x="0" y="18">SETTINGS</tspan></text><g class="u" transform="translate(641 395)"><path class="y" d="M9.568,12.123A2.625,2.625,0,1,1,12.193,9.5,2.625,2.625,0,0,1,9.568,12.123Zm5.572-1.893a5.13,5.13,0,0,0,0-1.464l1.585-1.24a.374.374,0,0,0,.089-.479l-1.5-2.6a.375.375,0,0,0-.459-.163l-1.867.752A5.605,5.605,0,0,0,11.719,4.3l-.281-1.987A.376.376,0,0,0,11.068,2h-3a.375.375,0,0,0-.37.316L7.416,4.3a5.624,5.624,0,0,0-1.268.738L4.282,4.286a.375.375,0,0,0-.459.163l-1.5,2.6a.374.374,0,0,0,.089.479L4,8.766A5.129,5.129,0,0,0,4,10.23L2.411,11.47a.376.376,0,0,0-.089.479l1.5,2.6a.375.375,0,0,0,.459.163l1.867-.752a5.607,5.607,0,0,0,1.268.737L7.7,16.682a.375.375,0,0,0,.37.316h3a.376.376,0,0,0,.371-.316l.281-1.987a5.622,5.622,0,0,0,1.267-.738l1.868.753a.375.375,0,0,0,.459-.163l1.5-2.6a.376.376,0,0,0-.089-.479Z" transform="translate(2.727 3.002)"/><rect class="b" width="24" height="24"/></g></g><g class="z" transform="translate(1491.75 395.75)"><path class="aa" d="M30,17H10A7,7,0,0,1,10,3H30a7,7,0,0,1,0,14Z" transform="translate(3.25 1.25)"/><g class="an" transform="matrix(1, 0, 0, 1, -1491.75, -395.75)"><path class="ab" d="M10,0A10,10,0,1,1,0,10,10,10,0,0,1,10,0Z" transform="translate(1495 397)"/></g></g><g class="a" transform="translate(153 485)"><rect class="ai" width="381" height="840" rx="5"/><rect class="b" x="0.5" y="0.5" width="380" height="839" rx="4.5"/></g><g transform="translate(0 19)"><line class="w" y1="20" x2="39" transform="translate(397 1086)"/><line class="w" y1="20" x2="39" transform="translate(397 746)"/><g transform="translate(102 199)"><g class="ac" transform="translate(273 495)"><rect class="ai" width="141" height="60" rx="5"/><rect class="b" x="1" y="1" width="139" height="58" rx="4"/></g><text class="j" transform="translate(344 531)"><tspan x="-43.018" y="0">Supervisor</tspan></text></g><g transform="translate(102 539)"><g class="ac" transform="translate(273 495)"><rect class="ai" width="141" height="60" rx="5"/><rect class="b" x="1" y="1" width="139" height="58" rx="4"/></g><text class="j" transform="translate(344 531)"><tspan x="-43.018" y="0">Supervisor</tspan></text></g><g transform="translate(98 195)"><g class="ac" transform="translate(273 495)"><rect class="ai" width="141" height="60" rx="5"/><rect class="b" x="1" y="1" width="139" height="58" rx="4"/></g><text class="j" transform="translate(344 531)"><tspan x="-43.018" y="0">Supervisor</tspan></text></g><g transform="translate(98 535)"><g class="ac" transform="translate(273 495)"><rect class="ai" width="141" height="60" rx="5"/><rect class="b" x="1" y="1" width="139" height="58" rx="4"/></g><text class="j" transform="translate(344 531)"><tspan x="-43.018" y="0">Supervisor</tspan></text></g><path class="w" d="M0,0V244.167" transform="translate(343.5 606.5)"/><path class="w" d="M0,0V194.47" transform="translate(343.5 953.5)"/><g transform="translate(0 11)"><g class="ad" transform="translate(273 495)"><rect class="ai" width="141" height="60" rx="5"/><rect class="b" x="1" y="1" width="139" height="58" rx="4"/></g><text class="ae" transform="translate(344 531)"><tspan x="-47.03" y="0">Introduction</tspan></text></g><g transform="translate(0 111)"><g class="ac" transform="translate(273 495)"><rect class="ai" width="141" height="60" rx="5"/><rect class="b" x="1" y="1" width="139" height="58" rx="4"/></g><text class="j" transform="translate(344 531)"><tspan x="-28.02" y="0">Patient</tspan></text></g><g transform="translate(0 271)"><g class="ac" transform="translate(273 495)"><rect class="ai" width="141" height="60" rx="5"/><rect class="b" x="1" y="1" width="139" height="58" rx="4"/></g><text class="j" transform="translate(344 521)"><tspan x="-40.025" y="0">Generate </tspan><tspan x="-43.027" y="21">hypothesis</tspan></text></g><g transform="translate(0 611)"><g class="ac" transform="translate(273 495)"><rect class="ai" width="141" height="60" rx="5"/><rect class="b" x="1" y="1" width="139" height="58" rx="4"/></g><text class="j" transform="translate(344 521)"><tspan x="-40.025" y="0">Generate </tspan><tspan x="-43.027" y="21">hypothesis</tspan></text></g><g transform="translate(0 351)"><g class="ac" transform="translate(273 495)"><rect class="ai" width="141" height="60" rx="5"/><rect class="b" x="1" y="1" width="139" height="58" rx="4"/></g><text class="j" transform="translate(344 531)"><tspan x="-57.032" y="0">Text highligths</tspan></text></g><g transform="translate(0 711)"><g class="ac" transform="translate(273 495)"><rect class="ai" width="141" height="60" rx="5"/><rect class="b" x="1" y="1" width="139" height="58" rx="4"/></g><text class="j" transform="translate(344 531)"><tspan x="-39.524" y="0">Feedback</tspan></text></g><g transform="translate(0 451)"><g class="ac" transform="translate(273 495)"><rect class="ai" width="141" height="60" rx="5"/><rect class="b" x="1" y="1" width="139" height="58" rx="4"/></g><text class="j" transform="translate(344 531)"><tspan x="-19.006" y="0">EKG</tspan></text></g><g transform="translate(-93 191)"><g class="ac" transform="translate(273 495)"><rect class="ai" width="141" height="60" rx="5"/><rect class="b" x="1" y="1" width="139" height="58" rx="4"/></g><text class="j" transform="translate(344 531)"><tspan x="-52.277" y="0">+ information</tspan></text></g><g transform="translate(-93 531)"><g class="ac" transform="translate(273 495)"><rect class="ai" width="141" height="60" rx="5"/><rect class="b" x="1" y="1" width="139" height="58" rx="4"/></g><text class="j" transform="translate(344 531)"><tspan x="-52.277" y="0">+ information</tspan></text></g><g transform="translate(94 191)"><g class="af" transform="translate(273 495)"><path class="ai" d="M 136 59 L 5 59 C 2.794399976730347 59 1 57.20560073852539 1 55 L 1 5 C 1 2.794399976730347 2.794399976730347 1 5 1 L 136 1 C 138.2055969238281 1 140 2.794399976730347 140 5 L 140 55 C 140 57.20560073852539 138.2055969238281 59 136 59 Z"/><path class="aj" d="M 5 2 C 3.345794677734375 2 2 3.345798492431641 2 5 L 2 55 C 2 56.65420150756836 3.345794677734375 58 5 58 L 136 58 C 137.6542053222656 58 139 56.65420150756836 139 55 L 139 5 C 139 3.345798492431641 137.6542053222656 2 136 2 L 5 2 M 5 0 L 136 0 C 138.7614135742188 0 141 2.238578796386719 141 5 L 141 55 C 141 57.76142120361328 138.7614135742188 60 136 60 L 5 60 C 2.238555908203125 60 0 57.76142120361328 0 55 L 0 5 C 0 2.238578796386719 2.238555908203125 0 5 0 Z"/></g><text class="ae" transform="translate(344 531)"><tspan x="-43.018" y="0">Supervisor</tspan></text></g><g transform="translate(94 531)"><g class="ac" transform="translate(273 495)"><rect class="ai" width="141" height="60" rx="5"/><rect class="b" x="1" y="1" width="139" height="58" rx="4"/></g><text class="j" transform="translate(344 531)"><tspan x="-43.018" y="0">Supervisor</tspan></text></g><line class="w" x1="39" y2="20" transform="translate(251 666)"/><line class="w" x1="39" y2="20" transform="translate(251 1006)"/><line class="w" x1="39" y1="20" transform="translate(251 746)"/><line class="w" x1="39" y1="20" transform="translate(251 1086)"/><line class="w" x2="39" y2="20" transform="translate(397 666)"/><line class="w" x2="39" y2="20" transform="translate(397 1006)"/><line class="w" x2="46" transform="translate(321.5 716.5)"/><line class="w" x2="46" transform="translate(321.5 1055.5)"/><line class="w" x2="381" transform="translate(153 586)"/><line class="w" x2="381" transform="translate(153 926)"/><line class="w" x2="381" transform="translate(153 1186)"/><text class="ag" transform="translate(169 623)"><tspan x="0" y="0">CYCLE 1</tspan></text><text class="ag" transform="translate(169 524)"><tspan x="0" y="0">START</tspan></text><text class="ag" transform="translate(169 962)"><tspan x="0" y="0">CYCLE 2</tspan></text><text class="ag" transform="translate(169 1222)"><tspan x="0" y="0">FINAL</tspan></text><g transform="translate(0 11)"><g class="ah" transform="translate(273 495)"><path class="ai" d="M 136 59 L 5 59 C 2.794399976730347 59 1 57.20560073852539 1 55 L 1 5 C 1 2.794399976730347 2.794399976730347 1 5 1 L 136 1 C 138.2055969238281 1 140 2.794399976730347 140 5 L 140 55 C 140 57.20560073852539 138.2055969238281 59 136 59 Z"/><path class="ak" d="M 5 2 C 3.345794677734375 2 2 3.345798492431641 2 5 L 2 55 C 2 56.65420150756836 3.345794677734375 58 5 58 L 136 58 C 137.6542053222656 58 139 56.65420150756836 139 55 L 139 5 C 139 3.345798492431641 137.6542053222656 2 136 2 L 5 2 M 5 0 L 136 0 C 138.7614135742188 0 141 2.238578796386719 141 5 L 141 55 C 141 57.76142120361328 138.7614135742188 60 136 60 L 5 60 C 2.238555908203125 60 0 57.76142120361328 0 55 L 0 5 C 0 2.238578796386719 2.238555908203125 0 5 0 Z"/></g><text class="j" transform="translate(344 531)"><tspan x="-47.03" y="0">Introduction</tspan></text></g></g><g class="z" transform="translate(254.75 1338.75)"><path class="aa" d="M30,17H10A7,7,0,0,1,10,3H30a7,7,0,0,1,0,14Z" transform="translate(3.25 1.25)"/><g class="am" transform="matrix(1, 0, 0, 1, -254.75, -1338.75)"><path class="ab" d="M10,0A10,10,0,1,1,0,10,10,10,0,0,1,10,0Z" transform="translate(258 1340)"/></g></g><text class="j" transform="translate(200 1356)"><tspan x="-46.521" y="0">Thumbnails</tspan></text><text class="j" transform="translate(471 1355)"><tspan x="-38.004" y="0">Maximize</tspan></text><g class="u" transform="translate(510 1336)"><rect class="b" width="24" height="24"/><path class="v" d="M7,14H5v5h5V17H7V14ZM5,10H7V7h3V5H5v5Zm12,7H14v2h5V14H17v3ZM14,5V7h3v3h2V5Z"/></g></g></svg>