<svg xmlns="http://www.w3.org/2000/svg" xmlns:xlink="http://www.w3.org/1999/xlink" width="653" height="498" viewBox="0 0 653 498"><defs><style>.a,.l{fill:none;}.b{clip-path:url(#q);}.c,.s{fill:#a6a6a6;}.c,.e{stroke:#707070;}.d,.e,.g,.t{fill:#fff;}.f,.h{fill:gray;font-size:18px;}.f,.t{font-family:Arial-BoldMT, Arial;font-weight:700;}.g{stroke:#a6a6a6;stroke-width:2px;}.h{font-family:ArialMT, Arial;}.i{clip-path:url(#a);}.j{fill:rgba(97,97,97,0.38);}.j,.k,.l,.o,.p{fill-rule:evenodd;}.k{fill:rgba(0,0,0,0.54);}.l{stroke:rgba(0,0,0,0.12);}.m{clip-path:url(#e);}.n,.o{opacity:0.54;}.p{opacity:0.38;}.q{font-size:16px;font-family:Roboto-Medium, Roboto;font-weight:500;opacity:0.87;}.r{clip-path:url(#n);}.t{font-size:20px;}.u{clip-path:url(#o);}.v{stroke:none;}.w{filter:url(#j);}</style><clipPath id="a"><rect class="a" width="24" height="24"/></clipPath><clipPath id="e"><rect class="a" width="47" height="24"/></clipPath><filter id="j" x="57.923" y="70" width="119.673" height="62" filterUnits="userSpaceOnUse"><feOffset dy="2" input="SourceAlpha"/><feGaussianBlur stdDeviation="1" result="k"/><feFlood flood-opacity="0.239"/><feComposite operator="in" in2="k"/><feComposite in="SourceGraphic"/></filter><clipPath id="n"><rect class="a" width="94" height="37"/></clipPath><clipPath id="o"><rect class="a" width="107" height="38"/></clipPath><clipPath id="q"><rect width="653" height="498"/></clipPath></defs><g id="p" class="b"><g transform="translate(-563 -348)"><g class="c" transform="translate(1167 523)"><rect class="v" width="40" height="40" rx="5"/><rect class="a" x="0.5" y="0.5" width="39" height="39" rx="4.5"/></g><path class="d" d="M22.786,4.811,21.3,3.322a1.106,1.106,0,0,0-1.566,0L9.777,13.277l3.055,3.055,9.954-9.954A1.106,1.106,0,0,0,22.786,4.811ZM7.555,15.221a3.328,3.328,0,0,0-3.333,3.333A2.254,2.254,0,0,1,2,20.776,5.748,5.748,0,0,0,6.444,23a4.443,4.443,0,0,0,4.444-4.444A3.328,3.328,0,0,0,7.555,15.221Z" transform="translate(1174 530.002)"/></g><g class="e" transform="translate(18 12)"><rect class="v" width="586" height="460" rx="5"/><rect class="a" x="0.5" y="0.5" width="585" height="459" rx="4.5"/></g><g transform="translate(-796 -544)"><text class="f" transform="translate(848 584)"><tspan x="0" y="16">Description</tspan></text><g class="g" transform="translate(848 616)"><rect class="v" width="518" height="328" rx="5"/><rect class="a" x="1" y="1" width="516" height="326" rx="4"/></g><text class="h" transform="translate(863 686)"><tspan x="0" y="16">Doctor, we have a man, 51 years old, who entered the </tspan><tspan x="0" y="37">emergency department reporting chest pain. His vital signs </tspan><tspan x="0" y="58">are ABP 144x92 mmHG; HR 78 bpm; RR 21 rpm; </tspan><tspan x="0" y="79">Temperature 37 ºC; O2 Sat 98%.</tspan><tspan x="0" y="100"></tspan><tspan x="0" y="121"></tspan></text><g transform="translate(-943.404 -477)"><rect class="a" width="502.404" height="56" transform="translate(1800 1092)"/><g class="i" transform="translate(2269.404 1108)"><rect class="a" width="24" height="24"/><path class="j" d="M3,21H21V19H3v2Zm0-4H21V15H3v2Zm0-4H21V11H3v2ZM3,9H21V7H3V9ZM3,3V5H21V3Z"/></g><g class="i" transform="translate(2236.404 1108)"><rect class="a" width="24" height="24"/><path class="j" d="M3,21H21V19H3v2Zm6-4H21V15H9v2ZM3,13H21V11H3v2ZM9,9H21V7H9V9ZM3,3V5H21V3Z"/></g><g class="i" transform="translate(2203.404 1108)"><rect class="a" width="24" height="24"/><path class="k" d="M7,15v2H17V15ZM3,21H21V19H3v2Zm0-8H21V11H3v2ZM7,7V9H17V7ZM3,3V5H21V3Z"/></g><g class="i" transform="translate(2168.786 1108)"><path class="j" d="M15,15H3v2H15V15Zm0-8H3V9H15V7ZM3,13H21V11H3v2Zm0,8H21V19H3v2ZM3,3V5H21V3Z"/><rect class="a" width="24" height="24"/></g><path class="l" d="M543.5,15V43" transform="translate(1609.296 1092)"/><g class="m" transform="translate(2095.936 1108)"><rect class="n" width="24" height="4" transform="translate(0 20)"/><rect class="a" width="24" height="24"/><path class="o" d="M16.5,8.9,7.6,0,6.2,1.4,8.6,3.8,3.5,8.9a1.45,1.45,0,0,0,0,2.1L9,16.5a1.5,1.5,0,0,0,1.1.4,1.5,1.5,0,0,0,1.1-.4L16.7,11a1.684,1.684,0,0,0-.2-2.1ZM5.1,10,9.9,5.2,14.7,10Zm13.8,1.5s-2,2.2-2,3.5a2,2,0,1,0,4,0c0-1.3-2-3.5-2-3.5Z"/><g class="i" transform="translate(23)"><rect class="a" width="24" height="24"/><path class="o" d="M7,10l5,5,5-5Z"/></g></g><g class="i" transform="translate(2056.122 1108)"><rect class="a" width="24" height="24"/><path class="p" d="M11.9,17a6.018,6.018,0,0,0,6-6V3H15.4v8a3.5,3.5,0,0,1-7,0V3H5.9v8a6.018,6.018,0,0,0,6,6Zm-7,2v2h14V19Z" transform="translate(0.1)"/></g><g class="i" transform="translate(2022.627 1108)"><rect class="a" width="24" height="24"/><path class="p" d="M10,4V7h2.2L8.7,15H6v3h8V15H11.7l3.5-8H18V4Z"/></g><g class="i" transform="translate(1994.208 1108)"><rect class="a" width="24" height="24"/><path class="o" d="M15.5,10.8A3.718,3.718,0,0,0,17.2,8a3.889,3.889,0,0,0-4-4H7V18h7a3.714,3.714,0,0,0,3.7-3.8,3.755,3.755,0,0,0-2.2-3.4ZM9.9,6.5h3a1.5,1.5,0,0,1,0,3h-3v-3Zm3.5,9H9.9v-3h3.5A1.538,1.538,0,0,1,14.9,14a1.473,1.473,0,0,1-1.5,1.5Z"/></g><path class="l" d="M302.5,15V43" transform="translate(1682.937 1092)"/><text class="q" transform="translate(1925.162 1125)"><tspan x="0" y="0">11</tspan></text><g class="w" transform="matrix(1, 0, 0, 1, 1739.4, 1021)"><path class="a" d="M1.236,0h111.2c.682,0,1.236.9,1.236,2V54c0,1.1-.553,2-1.236,2H1.236C.553,56,0,55.1,0,54V2C0,.9.553,0,1.236,0Z" transform="translate(60.92 71)"/></g><path class="l" d="M302.5,15V43" transform="translate(1606.865 1092)"/><text class="q" transform="translate(1807 1126)"><tspan x="0" y="0">Roboto</tspan></text><g class="i" transform="translate(1875.454 1108)"><rect class="a" width="24" height="24"/><path class="o" d="M7,10l5,5,5-5Z"/></g><g class="i" transform="translate(1951.578 1108)"><rect class="a" width="24" height="24"/><path class="o" d="M7,10l5,5,5-5Z"/></g></g><g transform="translate(566 589)"><g transform="translate(705 54)"><path class="d" d="M0,16V0L11.6,11.6H4.8l-.4.1Z"/><path class="d" d="M9.1,16.7,5.5,18.2.8,7.1,4.5,5.6Z"/><rect width="2" height="8" transform="translate(2.825 9.391) rotate(-22.773)"/><path d="M1,2.4V13.6l3-2.9.4-.1H9.2Z"/></g></g><path class="l" d="M543.5,15V517.5" transform="translate(1374 125.5) rotate(90)"/></g><g class="r" transform="translate(474 411)"><path class="s" d="M5,0H89a5,5,0,0,1,5,5V32a5,5,0,0,1-5,5H5a5,5,0,0,1-5-5V5A5,5,0,0,1,5,0Z"/><text class="t" transform="translate(47 26)"><tspan x="-26.489" y="0">SAVE</tspan></text></g><g class="u" transform="translate(355 411)"><g class="g"><rect class="v" width="107" height="38" rx="5"/><rect class="a" x="1" y="1" width="105" height="36" rx="4"/></g><text class="h" transform="translate(15 26.124)"><tspan x="0" y="0">CANCEL</tspan></text></g></g></svg>