<svg xmlns="http://www.w3.org/2000/svg" xmlns:xlink="http://www.w3.org/1999/xlink" width="1920" height="1080" viewBox="0 0 1920 1080"><defs><style>.a{clip-path:url(#b);}.b,.e,.g{fill:#fff;}.b{stroke:#a6a6a6;stroke-width:2px;}.c,.d{fill:gray;}.c{font-size:56px;font-family:Arial-BoldMT, Arial;font-weight:700;}.d{font-size:18px;}.d,.g{font-family:ArialMT, Arial;}.f{fill:#a6a6a6;}.g{font-size:14px;}.h{stroke:none;}.i{fill:none;}.j{fill:#f2f2f2;}</style><clipPath id="b"><rect width="1920" height="1080"/></clipPath></defs><g id="a" class="a"><rect class="j" width="1920" height="1080"/><g transform="translate(548)"><g class="b" transform="translate(153 543)"><rect class="h" width="518" height="348" rx="5"/><rect class="i" x="1" y="1" width="516" height="346" rx="4"/></g><g transform="translate(7 -23)"><text class="c" transform="translate(240 747)"><tspan x="0" y="0">CASES LIST</tspan></text><text class="d" transform="translate(240 764)"><tspan x="0" y="16">See the published cases list. You also </tspan><tspan x="0" y="37">can edit them.</tspan></text></g></g><text class="c" transform="translate(153 497)"><tspan x="0" y="0">What would you like to do today?</tspan></text><g transform="translate(-548)"><g class="b" transform="translate(701 543)"><rect class="h" width="518" height="348" rx="5"/><rect class="i" x="1" y="1" width="516" height="346" rx="4"/></g><g transform="translate(555 -23)"><text class="c" transform="translate(240 747)"><tspan x="0" y="0">CREATE</tspan></text><text class="d" transform="translate(240 780)"><tspan x="0" y="0">Create a new case.</tspan></text></g></g><g class="b" transform="translate(1249 543)"><rect class="h" width="518" height="348" rx="5"/><rect class="i" x="1" y="1" width="516" height="346" rx="4"/></g><g transform="translate(1103 -23)"><text class="c" transform="translate(240 747)"><tspan x="0" y="0">DRAFTS</tspan></text><text class="d" transform="translate(240 780)"><tspan x="0" y="0">Continue editing a case.</tspan></text></g><rect class="e" width="1920" height="100"/><text class="c" transform="translate(154 286)"><tspan x="0" y="0">Hello &lt;supervisor name&gt;!</tspan></text><text class="d" transform="translate(153 334)"><tspan x="0" y="0">Welcome back!</tspan></text><rect class="f" width="70" height="27" rx="5" transform="translate(153 144)"/><text class="g" transform="translate(166 150)"><tspan x="1" y="13" xml:space="preserve">HOME      </tspan></text></g></svg>