<svg xmlns="http://www.w3.org/2000/svg" xmlns:xlink="http://www.w3.org/1999/xlink" width="1920" height="1422" viewBox="0 0 1920 1422"><defs><style>.a,.af,.g,.h,.l,.p,.s{fill:#fff;}.a,.r{stroke:#707070;}.b,.q,.r{fill:none;}.c,.k,.m{fill:#a6a6a6;}.c{stroke:gray;}.c,.s{stroke-width:2px;}.d{clip-path:url(#ac);}.e{clip-path:url(#a);}.f{fill:#ba2027;}.g,.p,.w{font-size:20px;}.af,.ag,.g{font-family:SegoeUI, Segoe UI;}.i,.j,.t{fill:gray;}.i{font-size:56px;}.i,.t,.w{font-family:Arial-BoldMT, Arial;}.i,.p,.t,.w{font-weight:700;}.j,.t{font-size:18px;}.j,.l,.m{font-family:ArialMT, Arial;}.l,.m{font-size:14px;}.n{clip-path:url(#b);}.o{fill:#0d4a71;}.p{font-family:SegoeUI-Bold, Segoe UI;}.q{stroke:#fff;}.s{stroke:#a6a6a6;}.u{clip-path:url(#c);}.v,.z{fill-rule:evenodd;}.v{opacity:0.54;}.w,.x{fill:#707070;}.y{clip-path:url(#g);}.aa,.z{fill:#009688;}.z{opacity:0.5;}.ab{clip-path:url(#m);}.ac{clip-path:url(#x);}.ad{clip-path:url(#y);}.ae{clip-path:url(#aa);}.af{font-size:3px;}.ag{fill:#346e93;font-size:4px;}.ah{stroke:none;}.ai{fill:#f2f2f2;}.aj{filter:url(#k);}.ak{filter:url(#h);}</style><clipPath id="a"><rect class="a" width="1614" height="712" transform="translate(153 367)"/></clipPath><clipPath id="b"><rect class="a" width="655" height="597.711" transform="translate(-14462 -12492)"/></clipPath><clipPath id="c"><rect class="b" width="24" height="24"/></clipPath><clipPath id="g"><rect class="b" width="40" height="26"/></clipPath><filter id="h" x="1509" y="396" width="26" height="26" filterUnits="userSpaceOnUse"><feOffset dy="2" input="SourceAlpha"/><feGaussianBlur stdDeviation="1" result="i"/><feFlood flood-opacity="0.239"/><feComposite operator="in" in2="i"/><feComposite in="SourceGraphic"/></filter><filter id="k" x="272" y="1339" width="26" height="26" filterUnits="userSpaceOnUse"><feOffset dy="2" input="SourceAlpha"/><feGaussianBlur stdDeviation="1" result="l"/><feFlood flood-opacity="0.239"/><feComposite operator="in" in2="l"/><feComposite in="SourceGraphic"/></filter><clipPath id="m"><rect class="c" width="141" height="60" rx="5" transform="translate(273 525)"/></clipPath><clipPath id="x"><rect class="a" width="58.699" height="53.565" transform="translate(-14462 -12492)"/></clipPath><clipPath id="y"><rect class="a" width="40.879" height="57.033" transform="translate(1151 744)"/></clipPath><clipPath id="aa"><rect class="a" width="43.799" height="58.033" transform="translate(1407 648)"/></clipPath><clipPath id="ac"><rect width="1920" height="1422"/></clipPath><image id="ad" width="2029" height="1141" xlink:href="Preview%20-%20Introduction%20-%201-image.png"/><image id="ae" width="1833.235" height="1031.195" xlink:href="Preview%20-%20Introduction%20-%201-image2.png"/><image id="af" width="158.241" height="89.01" xlink:href="Preview%20-%20Introduction%20-%201-image3.png"/></defs><g id="ab" class="d"><rect class="ai" width="1920" height="1422"/><g class="a" transform="translate(153 377)"><rect class="ah" width="1614" height="60" rx="5"/><rect class="b" x="0.5" y="0.5" width="1613" height="59" rx="4.5"/></g><g class="e" transform="translate(137 99)"><use transform="translate(8 105)" xlink:href="#ad"/></g><rect class="f" width="381" height="59" rx="29.5" transform="translate(1249 1085)"/><text class="g" transform="translate(1318 1123)"><tspan x="0" y="0">Ok. I would like to see him. </tspan></text><g class="a" transform="translate(1330 377)"><rect class="ah" width="240" height="60"/><rect class="b" x="0.5" y="0.5" width="239" height="59"/></g><text class="g" transform="translate(1032 672.5)"><tspan x="0" y="22">Doctor, we have a man, 51 years old, who </tspan><tspan x="0" y="49">entered the emergency department </tspan><tspan x="0" y="76">reporting chest pain. His vital signs are </tspan><tspan x="0" y="103">ABP 144x92 mmHG; HR 78 bpm; RR 21 </tspan><tspan x="0" y="130">rpm; Temperature 37 ºC; O2 Sat 98%.</tspan><tspan x="0" y="157"></tspan></text><rect class="h" width="1920" height="100"/><g class="a" transform="translate(153 485)"><rect class="ah" width="381" height="840" rx="5"/><rect class="b" x="0.5" y="0.5" width="380" height="839" rx="4.5"/></g><text class="i" transform="translate(153 286)"><tspan x="0" y="0">Preview case</tspan></text><text class="j" transform="translate(153 318)"><tspan x="0" y="16">Here&apos;s how your case will appear to students. You can also edit them. </tspan></text><rect class="k" width="153" height="27" rx="5" transform="translate(366 144)"/><rect class="k" width="70" height="27" rx="5" transform="translate(153 144)"/><text class="l" transform="translate(166 150)"><tspan x="1" y="13" xml:space="preserve">HOME      </tspan></text><text class="m" transform="translate(231 150)"><tspan x="0" y="13">&gt;</tspan></text><text class="m" transform="translate(349 150)"><tspan x="0" y="13">&gt;</tspan></text><rect class="k" width="90" height="27" rx="5" transform="translate(248 144)"/><text class="l" transform="translate(256 150)"><tspan x="11" y="13">DRAFTS</tspan></text><text class="l" transform="translate(374 150)"><tspan x="15.21" y="13">PREVIEW CASE</tspan></text><g class="n" transform="translate(15026 13010.166)"><use transform="translate(-14618.591 -12718.29)" xlink:href="#ae"/></g><rect class="o" width="244" height="47" rx="23.5" transform="translate(772 1092)"/><text class="p" transform="translate(827 1124)"><tspan x="0" y="0">NURSE Agnes </tspan></text><line class="q" y2="141" transform="translate(1016 673)"/><text class="j" transform="translate(1353 413)"><tspan x="0" y="0">Preview mode</tspan></text><g transform="translate(0 19)"><line class="r" y1="20" x2="39" transform="translate(397 1086)"/><line class="r" y1="20" x2="39" transform="translate(397 746)"/><g transform="translate(102 199)"><g class="s" transform="translate(273 495)"><rect class="ah" width="141" height="60" rx="5"/><rect class="b" x="1" y="1" width="139" height="58" rx="4"/></g><text class="j" transform="translate(344 531)"><tspan x="-43.018" y="0">Supervisor</tspan></text></g><g transform="translate(102 539)"><g class="s" transform="translate(273 495)"><rect class="ah" width="141" height="60" rx="5"/><rect class="b" x="1" y="1" width="139" height="58" rx="4"/></g><text class="j" transform="translate(344 531)"><tspan x="-43.018" y="0">Supervisor</tspan></text></g><g transform="translate(98 195)"><g class="s" transform="translate(273 495)"><rect class="ah" width="141" height="60" rx="5"/><rect class="b" x="1" y="1" width="139" height="58" rx="4"/></g><text class="j" transform="translate(344 531)"><tspan x="-43.018" y="0">Supervisor</tspan></text></g><g transform="translate(98 535)"><g class="s" transform="translate(273 495)"><rect class="ah" width="141" height="60" rx="5"/><rect class="b" x="1" y="1" width="139" height="58" rx="4"/></g><text class="j" transform="translate(344 531)"><tspan x="-43.018" y="0">Supervisor</tspan></text></g><path class="r" d="M0,0V244.167" transform="translate(343.5 606.5)"/><path class="r" d="M0,0V194.47" transform="translate(343.5 953.5)"/><g transform="translate(0 11)"><g class="c" transform="translate(273 495)"><rect class="ah" width="141" height="60" rx="5"/><rect class="b" x="1" y="1" width="139" height="58" rx="4"/></g></g><g transform="translate(0 111)"><g class="s" transform="translate(273 495)"><rect class="ah" width="141" height="60" rx="5"/><rect class="b" x="1" y="1" width="139" height="58" rx="4"/></g></g><g transform="translate(0 271)"><g class="s" transform="translate(273 495)"><rect class="ah" width="141" height="60" rx="5"/><rect class="b" x="1" y="1" width="139" height="58" rx="4"/></g></g><g transform="translate(0 611)"><g class="s" transform="translate(273 495)"><rect class="ah" width="141" height="60" rx="5"/><rect class="b" x="1" y="1" width="139" height="58" rx="4"/></g></g><g transform="translate(0 351)"><g class="s" transform="translate(273 495)"><rect class="ah" width="141" height="60" rx="5"/><rect class="b" x="1" y="1" width="139" height="58" rx="4"/></g></g><g transform="translate(0 711)"><g class="s" transform="translate(273 495)"><rect class="ah" width="141" height="60" rx="5"/><rect class="b" x="1" y="1" width="139" height="58" rx="4"/></g></g><g transform="translate(0 451)"><g class="s" transform="translate(273 495)"><rect class="ah" width="141" height="60" rx="5"/><rect class="b" x="1" y="1" width="139" height="58" rx="4"/></g></g><g transform="translate(-93 191)"><g class="s" transform="translate(273 495)"><rect class="ah" width="141" height="60" rx="5"/><rect class="b" x="1" y="1" width="139" height="58" rx="4"/></g></g><g transform="translate(-93 531)"><g class="s" transform="translate(273 495)"><rect class="ah" width="141" height="60" rx="5"/><rect class="b" x="1" y="1" width="139" height="58" rx="4"/></g></g><g transform="translate(94 191)"><g class="s" transform="translate(273 495)"><rect class="ah" width="141" height="60" rx="5"/><rect class="b" x="1" y="1" width="139" height="58" rx="4"/></g></g><g transform="translate(94 531)"><g class="s" transform="translate(273 495)"><rect class="ah" width="141" height="60" rx="5"/><rect class="b" x="1" y="1" width="139" height="58" rx="4"/></g></g><line class="r" x1="39" y2="20" transform="translate(251 666)"/><line class="r" x1="39" y2="20" transform="translate(251 1006)"/><line class="r" x1="39" y1="20" transform="translate(251 746)"/><line class="r" x1="39" y1="20" transform="translate(251 1086)"/><line class="r" x2="39" y2="20" transform="translate(397 666)"/><line class="r" x2="39" y2="20" transform="translate(397 1006)"/><line class="r" x2="46" transform="translate(321.5 716.5)"/><line class="r" x2="46" transform="translate(321.5 1055.5)"/><line class="r" x2="381" transform="translate(153 586)"/><line class="r" x2="381" transform="translate(153 926)"/><line class="r" x2="381" transform="translate(153 1186)"/><text class="t" transform="translate(169 623)"><tspan x="0" y="0">CYCLE 1</tspan></text><text class="t" transform="translate(169 524)"><tspan x="0" y="0">START</tspan></text><text class="t" transform="translate(169 962)"><tspan x="0" y="0">CYCLE 2</tspan></text><text class="t" transform="translate(169 1222)"><tspan x="0" y="0">FINAL</tspan></text></g><text class="j" transform="translate(471 1355)"><tspan x="-38.004" y="0">Maximize</tspan></text><g class="u" transform="translate(510 1336)"><rect class="b" width="24" height="24"/><path class="v" d="M7,14H5v5h5V17H7V14ZM5,10H7V7h3V5H5v5Zm12,7H14v2h5V14H17v3ZM14,5V7h3v3h2V5Z"/></g><g transform="translate(280 -3)"><g class="a" transform="translate(1393 390)"><rect class="ah" width="80" height="40" rx="5"/><rect class="b" x="0.5" y="0.5" width="79" height="39" rx="4.5"/></g><g class="u" transform="translate(1401 398)"><rect class="b" width="24" height="24"/><path class="v" d="M20,11H7.8l5.6-5.6L12,4,4,12l8,8,1.4-1.4L7.8,13H20V11Z"/></g><g class="u" transform="translate(1441 398)"><rect class="b" width="24" height="24"/><path class="v" d="M12,4,10.6,5.4,16.2,11H4v2H16.2l-5.6,5.6L12,20l8-8Z"/></g><line class="r" y2="39" transform="translate(1433.5 390.5)"/></g><g transform="translate(-468)"><g class="a" transform="translate(632 387)"><rect class="ah" width="148" height="40" rx="5"/><rect class="b" x="0.5" y="0.5" width="147" height="39" rx="4.5"/></g><text class="w" transform="translate(665 396)"><tspan x="0" y="18">SETTINGS</tspan></text><g class="u" transform="translate(641 395)"><path class="x" d="M9.568,12.123A2.625,2.625,0,1,1,12.193,9.5,2.625,2.625,0,0,1,9.568,12.123Zm5.572-1.893a5.13,5.13,0,0,0,0-1.464l1.585-1.24a.374.374,0,0,0,.089-.479l-1.5-2.6a.375.375,0,0,0-.459-.163l-1.867.752A5.605,5.605,0,0,0,11.719,4.3l-.281-1.987A.376.376,0,0,0,11.068,2h-3a.375.375,0,0,0-.37.316L7.416,4.3a5.624,5.624,0,0,0-1.268.738L4.282,4.286a.375.375,0,0,0-.459.163l-1.5,2.6a.374.374,0,0,0,.089.479L4,8.766A5.129,5.129,0,0,0,4,10.23L2.411,11.47a.376.376,0,0,0-.089.479l1.5,2.6a.375.375,0,0,0,.459.163l1.867-.752a5.607,5.607,0,0,0,1.268.737L7.7,16.682a.375.375,0,0,0,.37.316h3a.376.376,0,0,0,.371-.316l.281-1.987a5.622,5.622,0,0,0,1.267-.738l1.868.753a.375.375,0,0,0,.459-.163l1.5-2.6a.376.376,0,0,0-.089-.479Z" transform="translate(2.727 3.002)"/><rect class="b" width="24" height="24"/></g></g><g class="y" transform="translate(1495 396)"><path class="z" d="M37,10a6.957,6.957,0,0,1-7,7H10a6.957,6.957,0,0,1-7-7H3a6.957,6.957,0,0,1,7-7H30a6.957,6.957,0,0,1,7,7Z" transform="translate(-3 1)"/><g class="ak" transform="matrix(1, 0, 0, 1, -1495, -396)"><path class="aa" d="M10,0A10,10,0,1,1,0,10,10,10,0,0,1,10,0Z" transform="translate(1512 397)"/></g></g><text class="j" transform="translate(200 1356)"><tspan x="-46.521" y="0">Thumbnails</tspan></text><g class="y" transform="translate(258 1339)"><path class="z" d="M37,10a6.957,6.957,0,0,1-7,7H10a6.957,6.957,0,0,1-7-7H3a6.957,6.957,0,0,1,7-7H30a6.957,6.957,0,0,1,7,7Z" transform="translate(-3 1)"/><g class="aj" transform="matrix(1, 0, 0, 1, -258, -1339)"><path class="aa" d="M10,0A10,10,0,1,1,0,10,10,10,0,0,1,10,0Z" transform="translate(275 1340)"/></g></g><g class="ab"><use transform="translate(224.743 483.235) scale(0.117 0.117)" xlink:href="#ad"/></g><g class="ab" transform="translate(0 99)"><use transform="translate(224.743 483.235) scale(0.117 0.117)" xlink:href="#ad"/></g><g class="ab" transform="translate(-94 179)"><use transform="translate(224.743 483.235) scale(0.117 0.117)" xlink:href="#ad"/></g><g class="ab" transform="translate(94 180)"><use transform="translate(224.743 483.235) scale(0.117 0.117)" xlink:href="#ad"/></g><g class="ab" transform="translate(0 260)"><use transform="translate(224.743 483.235) scale(0.117 0.117)" xlink:href="#ad"/></g><g class="ab" transform="translate(0 340)"><use transform="translate(224.743 483.235) scale(0.117 0.117)" xlink:href="#ad"/></g><g class="ab" transform="translate(0 439)"><use transform="translate(224.743 483.235) scale(0.117 0.117)" xlink:href="#ad"/></g><g class="ab" transform="translate(-94 520)"><use transform="translate(224.743 483.235) scale(0.117 0.117)" xlink:href="#ad"/></g><g class="ab" transform="translate(94 520)"><use transform="translate(224.743 483.235) scale(0.117 0.117)" xlink:href="#ad"/></g><g class="ab" transform="translate(0 601)"><use transform="translate(224.743 483.235) scale(0.117 0.117)" xlink:href="#ad"/></g><g class="ab" transform="translate(0 700)"><use transform="translate(224.743 483.235) scale(0.117 0.117)" xlink:href="#ad"/></g><g class="ac" transform="translate(14752 13023.313)"><use transform="translate(-14476.033 -12512.279) scale(0.09 0.09)" xlink:href="#ae"/></g><g class="ad" transform="translate(-789 -116.033)"><use transform="translate(1063.061 729.907)" xlink:href="#af"/></g><g class="ad" transform="translate(-888 -37.033)"><use transform="translate(1063.061 729.907)" xlink:href="#af"/></g><g class="ae" transform="translate(-954 59.967)"><image width="169.571" height="95.384" transform="translate(1315.266 628.96)" xlink:href="Preview%20-%20Introduction%20-%201-image4.png"/></g><g class="a" transform="translate(293 800.417)"><rect class="ah" width="100.275" height="25.566" rx="4"/><rect class="b" x="0.5" y="0.5" width="99.275" height="24.566" rx="3.5"/></g><rect class="f" width="32.456" height="9.032" rx="4.516" transform="translate(355.921 821.468)"/><text class="af" transform="translate(359.748 826.917)"><tspan x="0" y="0">Submit hypothesis</tspan></text><text class="ag" transform="translate(295.756 809.01)"><tspan x="0" y="0">What is your main diagnostic hypothesis? </tspan></text><line class="r" y2="8.573" transform="translate(297.516 814.119)"/></g></svg>