<svg xmlns="http://www.w3.org/2000/svg" xmlns:xlink="http://www.w3.org/1999/xlink" width="1920" height="1422" viewBox="0 0 1920 1422"><defs><style>.a,.ag,.g,.j,.l,.p,.s,.t{fill:#fff;}.a,.r{stroke:#707070;}.b,.k,.r{fill:none;}.c,.o,.q{fill:#a6a6a6;}.c{stroke:gray;}.c,.s{stroke-width:2px;}.d{clip-path:url(#ac);}.e{clip-path:url(#a);}.f{fill:#ba2027;}.g,.j,.x{font-size:20px;}.ag,.ah,.g{font-family:SegoeUI, Segoe UI;}.h{clip-path:url(#b);}.i{fill:#0d4a71;}.j{font-family:SegoeUI-Bold, Segoe UI;}.j,.m,.u,.x{font-weight:700;}.k{stroke:#fff;}.m,.n,.u{fill:gray;}.m{font-size:56px;}.m,.u,.x{font-family:Arial-BoldMT, Arial;}.n,.t,.u{font-size:18px;}.n,.p,.q,.t{font-family:ArialMT, Arial;}.p,.q{font-size:14px;}.s{stroke:#a6a6a6;}.v{clip-path:url(#c);}.aa,.w{fill-rule:evenodd;}.w{opacity:0.54;}.x,.y{fill:#707070;}.z{clip-path:url(#g);}.aa,.ab{fill:#009688;}.aa{opacity:0.5;}.ac{clip-path:url(#j);}.ad{clip-path:url(#t);}.ae{clip-path:url(#u);}.af{clip-path:url(#w);}.ag{font-size:3px;}.ah{fill:#346e93;font-size:4px;}.ai{stroke:none;}.aj{fill:#f2f2f2;}.ak{filter:url(#z);}.al{filter:url(#h);}</style><clipPath id="a"><rect class="a" width="1614" height="712" transform="translate(153 367)"/></clipPath><clipPath id="b"><rect class="a" width="655" height="597.711" transform="translate(-14462 -12492)"/></clipPath><clipPath id="c"><rect class="b" width="24" height="24"/></clipPath><clipPath id="g"><rect class="b" width="40" height="26"/></clipPath><filter id="h" x="1509" y="396" width="26" height="26" filterUnits="userSpaceOnUse"><feOffset dy="2" input="SourceAlpha"/><feGaussianBlur stdDeviation="1" result="i"/><feFlood flood-opacity="0.239"/><feComposite operator="in" in2="i"/><feComposite in="SourceGraphic"/></filter><clipPath id="j"><rect class="c" width="141" height="60" rx="5" transform="translate(273 525)"/></clipPath><clipPath id="t"><rect class="a" width="58.699" height="53.565" transform="translate(-14462 -12492)"/></clipPath><clipPath id="u"><rect class="a" width="40.879" height="57.033" transform="translate(1151 744)"/></clipPath><clipPath id="w"><rect class="a" width="43.799" height="58.033" transform="translate(1407 648)"/></clipPath><filter id="z" x="272" y="1339" width="26" height="26" filterUnits="userSpaceOnUse"><feOffset dy="2" input="SourceAlpha"/><feGaussianBlur stdDeviation="1" result="aa"/><feFlood flood-opacity="0.239"/><feComposite operator="in" in2="aa"/><feComposite in="SourceGraphic"/></filter><clipPath id="ac"><rect width="1920" height="1422"/></clipPath><image id="ad" width="2029" height="1141" xlink:href="Preview%20-%20Expanded%20mode%20-%201-image.png"/><image id="ae" width="1833.235" height="1031.195" xlink:href="Preview%20-%20Expanded%20mode%20-%201-image2.png"/><image id="af" width="158.241" height="89.01" xlink:href="Preview%20-%20Expanded%20mode%20-%201-image3.png"/></defs><g id="ab" class="d"><rect class="aj" width="1920" height="1422"/><g class="e" transform="translate(1540 99)"><use transform="translate(8 105)" xlink:href="#ad"/></g><rect class="f" width="381" height="59" rx="29.5" transform="translate(2652 1085)"/><text class="g" transform="translate(2721 1123)"><tspan x="0" y="0">Ok. I would like to see him. </tspan></text><text class="g" transform="translate(2435 672.5)"><tspan x="0" y="22">Doctor, we have a man, 51 years old, who </tspan><tspan x="0" y="49">entered the emergency department </tspan><tspan x="0" y="76">reporting chest pain. His vital signs are </tspan><tspan x="0" y="103">ABP 144x92 mmHG; HR 78 bpm; RR 21 </tspan><tspan x="0" y="130">rpm; Temperature 37 ºC; O2 Sat 98%.</tspan><tspan x="0" y="157"></tspan></text><g class="h" transform="translate(16429 13010.166)"><use transform="translate(-14618.591 -12718.29)" xlink:href="#ae"/></g><rect class="i" width="244" height="47" rx="23.5" transform="translate(2175 1092)"/><text class="j" transform="translate(2230 1124)"><tspan x="0" y="0">NURSE Agnes </tspan></text><line class="k" y2="141" transform="translate(2419 673)"/><rect class="l" width="1920" height="100"/><g class="a" transform="translate(153 485)"><rect class="ai" width="1614" height="840" rx="5"/><rect class="b" x="0.5" y="0.5" width="1613" height="839" rx="4.5"/></g><text class="m" transform="translate(153 286)"><tspan x="0" y="0">Preview case</tspan></text><text class="n" transform="translate(153 318)"><tspan x="0" y="16">Here&apos;s how your case will appear to students. You can also edit them. </tspan></text><rect class="o" width="153" height="27" rx="5" transform="translate(366 144)"/><rect class="o" width="70" height="27" rx="5" transform="translate(153 144)"/><text class="p" transform="translate(166 150)"><tspan x="1" y="13" xml:space="preserve">HOME      </tspan></text><text class="q" transform="translate(231 150)"><tspan x="0" y="13">&gt;</tspan></text><text class="q" transform="translate(349 150)"><tspan x="0" y="13">&gt;</tspan></text><rect class="o" width="90" height="27" rx="5" transform="translate(248 144)"/><text class="p" transform="translate(256 150)"><tspan x="11" y="13">DRAFTS</tspan></text><text class="p" transform="translate(374 150)"><tspan x="15.21" y="13">PREVIEW CASE</tspan></text><g transform="translate(0 -15)"><line class="r" y1="20" x2="39" transform="translate(1207 711)"/><line class="r" y1="20" x2="39" transform="translate(798 709)"/><g transform="translate(503 162)"><g class="s" transform="translate(273 495)"><rect class="ai" width="141" height="60" rx="5"/><rect class="b" x="1" y="1" width="139" height="58" rx="4"/></g><text class="n" transform="translate(344 531)"><tspan x="-43.018" y="0">Supervisor</tspan></text></g><g transform="translate(912 164)"><g class="s" transform="translate(273 495)"><rect class="ai" width="141" height="60" rx="5"/><rect class="b" x="1" y="1" width="139" height="58" rx="4"/></g><text class="n" transform="translate(344 531)"><tspan x="-43.018" y="0">Supervisor</tspan></text></g><g transform="translate(499 158)"><g class="s" transform="translate(273 495)"><rect class="ai" width="141" height="60" rx="5"/><rect class="b" x="1" y="1" width="139" height="58" rx="4"/></g><text class="n" transform="translate(344 531)"><tspan x="-43.018" y="0">Supervisor</tspan></text></g><g transform="translate(908 160)"><g class="s" transform="translate(273 495)"><rect class="ai" width="141" height="60" rx="5"/><rect class="b" x="1" y="1" width="139" height="58" rx="4"/></g><text class="n" transform="translate(344 531)"><tspan x="-43.018" y="0">Supervisor</tspan></text></g><path class="r" d="M0,0V244.167" transform="translate(744.5 569.5)"/><path class="r" d="M0,0V197.895" transform="translate(1153.5 578.5)"/><g transform="translate(0 76)"><g class="c" transform="translate(273 495)"><rect class="ai" width="141" height="60" rx="5"/><rect class="b" x="1" y="1" width="139" height="58" rx="4"/></g><text class="t" transform="translate(344 531)"><tspan x="-47.03" y="0">Introduction</tspan></text></g><g transform="translate(401 74)"><g class="s" transform="translate(273 495)"><rect class="ai" width="141" height="60" rx="5"/><rect class="b" x="1" y="1" width="139" height="58" rx="4"/></g><text class="n" transform="translate(344 531)"><tspan x="-28.02" y="0">Patient</tspan></text></g><g transform="translate(401 234)"><g class="s" transform="translate(273 495)"><rect class="ai" width="141" height="60" rx="5"/><rect class="b" x="1" y="1" width="139" height="58" rx="4"/></g><text class="n" transform="translate(344 521)"><tspan x="-40.025" y="0">Generate </tspan><tspan x="-43.027" y="21">hypothesis</tspan></text></g><g transform="translate(810 236)"><g class="s" transform="translate(273 495)"><rect class="ai" width="141" height="60" rx="5"/><rect class="b" x="1" y="1" width="139" height="58" rx="4"/></g><text class="n" transform="translate(344 521)"><tspan x="-40.025" y="0">Generate </tspan><tspan x="-43.027" y="21">hypothesis</tspan></text></g><g transform="translate(401 314)"><g class="s" transform="translate(273 495)"><rect class="ai" width="141" height="60" rx="5"/><rect class="b" x="1" y="1" width="139" height="58" rx="4"/></g><text class="n" transform="translate(344 531)"><tspan x="-57.032" y="0">Text highligths</tspan></text></g><g transform="translate(1129 74)"><g class="s" transform="translate(273 495)"><rect class="ai" width="141" height="60" rx="5"/><rect class="b" x="1" y="1" width="139" height="58" rx="4"/></g><text class="n" transform="translate(344 531)"><tspan x="-39.524" y="0">Feedback</tspan></text></g><g transform="translate(810 76)"><g class="s" transform="translate(273 495)"><rect class="ai" width="141" height="60" rx="5"/><rect class="b" x="1" y="1" width="139" height="58" rx="4"/></g><text class="n" transform="translate(344 531)"><tspan x="-19.006" y="0">EKG</tspan></text></g><g transform="translate(308 154)"><g class="s" transform="translate(273 495)"><rect class="ai" width="141" height="60" rx="5"/><rect class="b" x="1" y="1" width="139" height="58" rx="4"/></g><text class="n" transform="translate(344 531)"><tspan x="-52.277" y="0">+ information</tspan></text></g><g transform="translate(717 156)"><g class="s" transform="translate(273 495)"><rect class="ai" width="141" height="60" rx="5"/><rect class="b" x="1" y="1" width="139" height="58" rx="4"/></g><text class="n" transform="translate(344 531)"><tspan x="-52.277" y="0">+ information</tspan></text></g><g transform="translate(495 154)"><g class="s" transform="translate(273 495)"><rect class="ai" width="141" height="60" rx="5"/><rect class="b" x="1" y="1" width="139" height="58" rx="4"/></g><text class="n" transform="translate(344 531)"><tspan x="-43.018" y="0">Supervisor</tspan></text></g><g transform="translate(904 156)"><g class="s" transform="translate(273 495)"><rect class="ai" width="141" height="60" rx="5"/><rect class="b" x="1" y="1" width="139" height="58" rx="4"/></g><text class="n" transform="translate(344 531)"><tspan x="-43.018" y="0">Supervisor</tspan></text></g><line class="r" x1="39" y2="20" transform="translate(652 629)"/><line class="r" x1="39" y2="20" transform="translate(1061 631)"/><line class="r" x1="39" y1="20" transform="translate(652 709)"/><line class="r" x1="39" y1="20" transform="translate(1061 711)"/><line class="r" x2="39" y2="20" transform="translate(798 629)"/><line class="r" x2="39" y2="20" transform="translate(1207 631)"/><line class="r" x2="46" transform="translate(722.5 679.5)"/><line class="r" x2="46" transform="translate(1131.5 680.5)"/><line class="r" x2="837.349" transform="translate(549 502.5) rotate(90)"/><line class="r" x2="837.349" transform="translate(958.5 500.5) rotate(90)"/><line class="r" x2="837.349" transform="translate(1367.5 500.5) rotate(90)"/><text class="u" transform="translate(570 555)"><tspan x="0" y="0">CYCLE 1</tspan></text><text class="u" transform="translate(184 555)"><tspan x="0" y="0">START</tspan></text><text class="u" transform="translate(979 555)"><tspan x="0" y="0">CYCLE 2</tspan></text><text class="u" transform="translate(1386 555)"><tspan x="0" y="0">FINAL CYCLE</tspan></text></g><text class="n" transform="translate(471 1355)"><tspan x="-35.503" y="0">Minimize</tspan></text><g class="v" transform="translate(510 1336)"><rect class="b" width="24" height="24"/><path class="w" d="M5,16H8v3h2V14H5v2ZM8,8H5v2h5V5H8V8Zm6,11h2V16h3V14H14v5ZM16,8V5H14v5h5V8Z"/></g><g class="a" transform="translate(153 377)"><rect class="ai" width="1614" height="60" rx="5"/><rect class="b" x="0.5" y="0.5" width="1613" height="59" rx="4.5"/></g><g class="a" transform="translate(1330 377)"><rect class="ai" width="240" height="60"/><rect class="b" x="0.5" y="0.5" width="239" height="59"/></g><text class="n" transform="translate(1353 413)"><tspan x="0" y="0">Preview mode</tspan></text><g transform="translate(280 -3)"><g class="a" transform="translate(1393 390)"><rect class="ai" width="80" height="40" rx="5"/><rect class="b" x="0.5" y="0.5" width="79" height="39" rx="4.5"/></g><g class="v" transform="translate(1401 398)"><rect class="b" width="24" height="24"/><path class="w" d="M20,11H7.8l5.6-5.6L12,4,4,12l8,8,1.4-1.4L7.8,13H20V11Z"/></g><g class="v" transform="translate(1441 398)"><rect class="b" width="24" height="24"/><path class="w" d="M12,4,10.6,5.4,16.2,11H4v2H16.2l-5.6,5.6L12,20l8-8Z"/></g><line class="r" y2="39" transform="translate(1433.5 390.5)"/></g><g transform="translate(-468)"><g class="a" transform="translate(632 387)"><rect class="ai" width="148" height="40" rx="5"/><rect class="b" x="0.5" y="0.5" width="147" height="39" rx="4.5"/></g><text class="x" transform="translate(665 396)"><tspan x="0" y="18">SETTINGS</tspan></text><g class="v" transform="translate(641 395)"><path class="y" d="M9.568,12.123A2.625,2.625,0,1,1,12.193,9.5,2.625,2.625,0,0,1,9.568,12.123Zm5.572-1.893a5.13,5.13,0,0,0,0-1.464l1.585-1.24a.374.374,0,0,0,.089-.479l-1.5-2.6a.375.375,0,0,0-.459-.163l-1.867.752A5.605,5.605,0,0,0,11.719,4.3l-.281-1.987A.376.376,0,0,0,11.068,2h-3a.375.375,0,0,0-.37.316L7.416,4.3a5.624,5.624,0,0,0-1.268.738L4.282,4.286a.375.375,0,0,0-.459.163l-1.5,2.6a.374.374,0,0,0,.089.479L4,8.766A5.129,5.129,0,0,0,4,10.23L2.411,11.47a.376.376,0,0,0-.089.479l1.5,2.6a.375.375,0,0,0,.459.163l1.867-.752a5.607,5.607,0,0,0,1.268.737L7.7,16.682a.375.375,0,0,0,.37.316h3a.376.376,0,0,0,.371-.316l.281-1.987a5.622,5.622,0,0,0,1.267-.738l1.868.753a.375.375,0,0,0,.459-.163l1.5-2.6a.376.376,0,0,0-.089-.479Z" transform="translate(2.727 3.002)"/><rect class="b" width="24" height="24"/></g></g><g class="z" transform="translate(1495 396)"><path class="aa" d="M37,10a6.957,6.957,0,0,1-7,7H10a6.957,6.957,0,0,1-7-7H3a6.957,6.957,0,0,1,7-7H30a6.957,6.957,0,0,1,7,7Z" transform="translate(-3 1)"/><g class="al" transform="matrix(1, 0, 0, 1, -1495, -396)"><path class="ab" d="M10,0A10,10,0,1,1,0,10,10,10,0,0,1,10,0Z" transform="translate(1512 397)"/></g></g><g class="ac" transform="translate(400 28)"><use transform="translate(224.743 483.235) scale(0.117 0.117)" xlink:href="#ad"/></g><g class="ac" transform="translate(309 110)"><use transform="translate(224.743 483.235) scale(0.117 0.117)" xlink:href="#ad"/></g><g class="ac" transform="translate(497 109)"><use transform="translate(224.743 483.235) scale(0.117 0.117)" xlink:href="#ad"/></g><g class="ac" transform="translate(400 270)"><use transform="translate(224.743 483.235) scale(0.117 0.117)" xlink:href="#ad"/></g><g class="ac" transform="translate(810 30)"><use transform="translate(224.743 483.235) scale(0.117 0.117)" xlink:href="#ad"/></g><g class="ac" transform="translate(716 111)"><use transform="translate(224.743 483.235) scale(0.117 0.117)" xlink:href="#ad"/></g><g class="ac" transform="translate(904 111)"><use transform="translate(224.743 483.235) scale(0.117 0.117)" xlink:href="#ad"/></g><g class="ac" transform="translate(810 192)"><use transform="translate(224.743 483.235) scale(0.117 0.117)" xlink:href="#ad"/></g><g class="ac" transform="translate(1129 30)"><use transform="translate(224.743 483.235) scale(0.117 0.117)" xlink:href="#ad"/></g><g transform="translate(-1220 101)"><g class="ac" transform="translate(1220 -70)"><use transform="translate(224.743 483.235) scale(0.117 0.117)" xlink:href="#ad"/></g><g class="ad" transform="translate(15972 12953.313)"><use transform="translate(-14476.033 -12512.279) scale(0.09 0.09)" xlink:href="#ae"/></g></g><g class="ae" transform="translate(-389 -187.033)"><use transform="translate(1063.061 729.907)" xlink:href="#af"/></g><g class="ae" transform="translate(-485 -106.033)"><use transform="translate(1063.061 729.907)" xlink:href="#af"/></g><g class="af" transform="translate(-551 -11.033)"><image width="169.571" height="95.384" transform="translate(1315.266 628.96)" xlink:href="Preview%20-%20Expanded%20mode%20-%201-image4.png"/></g><g transform="translate(-1020 -135)"><g class="ac" transform="translate(1421 325)"><use transform="translate(224.743 483.235) scale(0.117 0.117)" xlink:href="#ad"/></g><g transform="translate(1421 65)"><g class="a" transform="translate(293 800.417)"><rect class="ai" width="100.275" height="25.566" rx="4"/><rect class="b" x="0.5" y="0.5" width="99.275" height="24.566" rx="3.5"/></g><rect class="f" width="32.456" height="9.032" rx="4.516" transform="translate(355.921 821.468)"/><text class="ag" transform="translate(359.748 826.917)"><tspan x="0" y="0">Submit hypothesis</tspan></text><text class="ah" transform="translate(295.756 809.01)"><tspan x="0" y="0">What is your main diagnostic hypothesis? </tspan></text><line class="r" y2="8.573" transform="translate(297.516 814.119)"/></g></g><text class="n" transform="translate(200 1356)"><tspan x="-46.521" y="0">Thumbnails</tspan></text><g class="z" transform="translate(258 1339)"><path class="aa" d="M37,10a6.957,6.957,0,0,1-7,7H10a6.957,6.957,0,0,1-7-7H3a6.957,6.957,0,0,1,7-7H30a6.957,6.957,0,0,1,7,7Z" transform="translate(-3 1)"/><g class="ak" transform="matrix(1, 0, 0, 1, -258, -1339)"><path class="ab" d="M10,0A10,10,0,1,1,0,10,10,10,0,0,1,10,0Z" transform="translate(275 1340)"/></g></g></g></svg>