<svg xmlns="http://www.w3.org/2000/svg" xmlns:xlink="http://www.w3.org/1999/xlink" width="1920" height="1387" viewBox="0 0 1920 1387"><defs><style>.a,.e,.i,.l,.p,.r,.s{fill:#fff;}.a,.n,.o{stroke:#707070;}.b,.n,.o{fill:none;}.c{clip-path:url(#m);}.d{clip-path:url(#a);}.f,.g,.t{fill:gray;}.f{font-size:56px;}.f,.t,.z{font-family:Arial-BoldMT, Arial;font-weight:700;}.g,.r,.t{font-size:18px;}.g,.i,.j,.r{font-family:ArialMT, Arial;}.ah,.h,.j,.q{fill:#a6a6a6;}.i,.j{font-size:14px;}.k{fill:#ba2027;}.l,.z{font-size:20px;}.l,.m{font-family:SegoeUI, Segoe UI;}.m{fill:#346e93;font-size:28px;}.n,.p,.q{stroke-width:2px;}.p{stroke:#a6a6a6;}.q{stroke:gray;}.u{clip-path:url(#b);}.v{fill:rgba(34,31,31,0.26);}.ac,.v,.y{fill-rule:evenodd;}.w{fill:#f1f1f1;stroke:rgba(0,0,0,0);stroke-width:0.5px;}.x{clip-path:url(#e);}.y{opacity:0.54;}.aa,.z{fill:#707070;}.ab{clip-path:url(#i);}.ac,.ad{fill:#009688;}.ac{opacity:0.5;}.ae,.af{fill:#008265;}.ae{opacity:0.16;}.ag,.ah{stroke:none;}.ai{fill:#f2f2f2;}.aj{filter:url(#j);}.ak{filter:url(#c);}</style><clipPath id="a"><rect class="a" width="1614" height="712" transform="translate(153 367)"/></clipPath><clipPath id="b"><rect class="b" width="40.25" height="26.5"/></clipPath><filter id="c" x="254.75" y="1338.75" width="26.5" height="26.5" filterUnits="userSpaceOnUse"><feOffset dy="2" input="SourceAlpha"/><feGaussianBlur stdDeviation="1" result="d"/><feFlood flood-opacity="0.239"/><feComposite operator="in" in2="d"/><feComposite in="SourceGraphic"/></filter><clipPath id="e"><rect class="b" width="24" height="24"/></clipPath><clipPath id="i"><rect class="b" width="40" height="26"/></clipPath><filter id="j" x="1509" y="396" width="26" height="26" filterUnits="userSpaceOnUse"><feOffset dy="2" input="SourceAlpha"/><feGaussianBlur stdDeviation="1" result="k"/><feFlood flood-opacity="0.239"/><feComposite operator="in" in2="k"/><feComposite in="SourceGraphic"/></filter><clipPath id="m"><rect width="1920" height="1387"/></clipPath></defs><g id="l" class="c"><rect class="ai" width="1920" height="1387"/><g class="d" transform="translate(137 99)"><image width="2029" height="1141" transform="translate(8 105)" xlink:href="Preview%20-%20Generate%20hypothesis%201-image.png"/></g><rect class="e" width="1920" height="100"/><text class="f" transform="translate(153 286)"><tspan x="0" y="0">Preview case</tspan></text><text class="g" transform="translate(153 318)"><tspan x="0" y="16">Here&apos;s how your case will appear to students. You can also edit them. </tspan></text><rect class="h" width="153" height="27" rx="5" transform="translate(366 144)"/><rect class="h" width="70" height="27" rx="5" transform="translate(153 144)"/><text class="i" transform="translate(166 150)"><tspan x="1" y="13" xml:space="preserve">HOME      </tspan></text><text class="j" transform="translate(231 150)"><tspan x="0" y="13">&gt;</tspan></text><text class="j" transform="translate(349 150)"><tspan x="0" y="13">&gt;</tspan></text><rect class="h" width="90" height="27" rx="5" transform="translate(248 144)"/><text class="i" transform="translate(256 150)"><tspan x="11" y="13">DRAFTS</tspan></text><text class="i" transform="translate(374 150)"><tspan x="15.21" y="13">PREVIEW CASE</tspan></text><g class="a" transform="translate(838 545)"><rect class="ag" width="381" height="458" rx="12"/><rect class="b" x="0.5" y="0.5" width="380" height="457" rx="11.5"/></g><rect class="k" width="212" height="59" rx="29.5" transform="translate(919 973.5)"/><text class="l" transform="translate(944 1011.5)"><tspan x="0" y="0">Submit hypothesis</tspan></text><text class="m" transform="translate(856 581)"><tspan x="0" y="30">What is your main </tspan><tspan x="0" y="67">diagnostic hypothesis? </tspan></text><text class="m" transform="translate(856 764)"><tspan x="0" y="30">How sure are you about </tspan><tspan x="0" y="67">this diagnostic hypothesis?</tspan></text><text class="g" transform="translate(1155 881)"><tspan x="0" y="0">22%</tspan></text><line class="n" y2="56" transform="translate(867.5 672.5)"/><line class="o" x1="41" transform="translate(1153.5 892.5)"/><g class="a" transform="translate(153 377)"><rect class="ag" width="1614" height="60" rx="5"/><rect class="b" x="0.5" y="0.5" width="1613" height="59" rx="4.5"/></g><g class="a" transform="translate(1330 377)"><rect class="ag" width="240" height="60"/><rect class="b" x="0.5" y="0.5" width="239" height="59"/></g><g class="a" transform="translate(153 485)"><rect class="ag" width="381" height="840" rx="5"/><rect class="b" x="0.5" y="0.5" width="380" height="839" rx="4.5"/></g><text class="g" transform="translate(1353 413)"><tspan x="0" y="0">Preview mode</tspan></text><g transform="translate(0 19)"><line class="o" y1="20" x2="39" transform="translate(397 1086)"/><line class="o" y1="20" x2="39" transform="translate(397 746)"/><g transform="translate(102 199)"><g class="p" transform="translate(273 495)"><rect class="ag" width="141" height="60" rx="5"/><rect class="b" x="1" y="1" width="139" height="58" rx="4"/></g><text class="g" transform="translate(344 531)"><tspan x="-43.018" y="0">Supervisor</tspan></text></g><g transform="translate(102 539)"><g class="p" transform="translate(273 495)"><rect class="ag" width="141" height="60" rx="5"/><rect class="b" x="1" y="1" width="139" height="58" rx="4"/></g><text class="g" transform="translate(344 531)"><tspan x="-43.018" y="0">Supervisor</tspan></text></g><g transform="translate(98 195)"><g class="p" transform="translate(273 495)"><rect class="ag" width="141" height="60" rx="5"/><rect class="b" x="1" y="1" width="139" height="58" rx="4"/></g><text class="g" transform="translate(344 531)"><tspan x="-43.018" y="0">Supervisor</tspan></text></g><g transform="translate(98 535)"><g class="p" transform="translate(273 495)"><rect class="ag" width="141" height="60" rx="5"/><rect class="b" x="1" y="1" width="139" height="58" rx="4"/></g><text class="g" transform="translate(344 531)"><tspan x="-43.018" y="0">Supervisor</tspan></text></g><path class="o" d="M0,0V244.167" transform="translate(343.5 606.5)"/><path class="o" d="M0,0V194.47" transform="translate(343.5 953.5)"/><g transform="translate(0 11)"><g class="q" transform="translate(273 495)"><rect class="ag" width="141" height="60" rx="5"/><rect class="b" x="1" y="1" width="139" height="58" rx="4"/></g><text class="r" transform="translate(344 531)"><tspan x="-47.03" y="0">Introduction</tspan></text></g><g transform="translate(0 111)"><g class="p" transform="translate(273 495)"><rect class="ag" width="141" height="60" rx="5"/><rect class="b" x="1" y="1" width="139" height="58" rx="4"/></g><text class="g" transform="translate(344 531)"><tspan x="-28.02" y="0">Patient</tspan></text></g><g transform="translate(0 271)"><g class="q" transform="translate(273 495)"><rect class="ag" width="141" height="60" rx="5"/><rect class="b" x="1" y="1" width="139" height="58" rx="4"/></g><text class="r" transform="translate(344 521)"><tspan x="-40.025" y="0">Generate </tspan><tspan x="-43.027" y="21">hypothesis</tspan></text></g><g transform="translate(0 611)"><g class="p" transform="translate(273 495)"><rect class="ag" width="141" height="60" rx="5"/><rect class="b" x="1" y="1" width="139" height="58" rx="4"/></g><text class="g" transform="translate(344 521)"><tspan x="-40.025" y="0">Generate </tspan><tspan x="-43.027" y="21">hypothesis</tspan></text></g><g transform="translate(0 351)"><g class="p" transform="translate(273 495)"><rect class="ag" width="141" height="60" rx="5"/><rect class="b" x="1" y="1" width="139" height="58" rx="4"/></g><text class="g" transform="translate(344 531)"><tspan x="-57.032" y="0">Text highligths</tspan></text></g><g transform="translate(0 711)"><g class="p" transform="translate(273 495)"><rect class="ag" width="141" height="60" rx="5"/><rect class="b" x="1" y="1" width="139" height="58" rx="4"/></g><text class="g" transform="translate(344 531)"><tspan x="-39.524" y="0">Feedback</tspan></text></g><g transform="translate(0 451)"><g class="p" transform="translate(273 495)"><rect class="ag" width="141" height="60" rx="5"/><rect class="b" x="1" y="1" width="139" height="58" rx="4"/></g><text class="g" transform="translate(344 531)"><tspan x="-19.006" y="0">EKG</tspan></text></g><g transform="translate(-93 191)"><g class="p" transform="translate(273 495)"><rect class="ag" width="141" height="60" rx="5"/><rect class="b" x="1" y="1" width="139" height="58" rx="4"/></g><text class="g" transform="translate(344 531)"><tspan x="-52.277" y="0">+ information</tspan></text></g><g transform="translate(-93 531)"><g class="p" transform="translate(273 495)"><rect class="ag" width="141" height="60" rx="5"/><rect class="b" x="1" y="1" width="139" height="58" rx="4"/></g><text class="g" transform="translate(344 531)"><tspan x="-52.277" y="0">+ information</tspan></text></g><g transform="translate(94 191)"><g class="s" transform="translate(273 495)"><path class="ag" d="M 136 59 L 5 59 C 2.794399976730347 59 1 57.20560073852539 1 55 L 1 5 C 1 2.794399976730347 2.794399976730347 1 5 1 L 136 1 C 138.2055969238281 1 140 2.794399976730347 140 5 L 140 55 C 140 57.20560073852539 138.2055969238281 59 136 59 Z"/><path class="ah" d="M 5 2 C 3.345794677734375 2 2 3.345798492431641 2 5 L 2 55 C 2 56.65420150756836 3.345794677734375 58 5 58 L 136 58 C 137.6542053222656 58 139 56.65420150756836 139 55 L 139 5 C 139 3.345798492431641 137.6542053222656 2 136 2 L 5 2 M 5 0 L 136 0 C 138.7614135742188 0 141 2.238578796386719 141 5 L 141 55 C 141 57.76142120361328 138.7614135742188 60 136 60 L 5 60 C 2.238555908203125 60 0 57.76142120361328 0 55 L 0 5 C 0 2.238578796386719 2.238555908203125 0 5 0 Z"/></g><text class="g" transform="translate(344 531)"><tspan x="-43.018" y="0">Supervisor</tspan></text></g><g transform="translate(94 531)"><g class="p" transform="translate(273 495)"><rect class="ag" width="141" height="60" rx="5"/><rect class="b" x="1" y="1" width="139" height="58" rx="4"/></g><text class="g" transform="translate(344 531)"><tspan x="-43.018" y="0">Supervisor</tspan></text></g><line class="o" x1="39" y2="20" transform="translate(251 666)"/><line class="o" x1="39" y2="20" transform="translate(251 1006)"/><line class="o" x1="39" y1="20" transform="translate(251 746)"/><line class="o" x1="39" y1="20" transform="translate(251 1086)"/><line class="o" x2="39" y2="20" transform="translate(397 666)"/><line class="o" x2="39" y2="20" transform="translate(397 1006)"/><line class="o" x2="46" transform="translate(321.5 716.5)"/><line class="o" x2="46" transform="translate(321.5 1055.5)"/><line class="o" x2="381" transform="translate(153 586)"/><line class="o" x2="381" transform="translate(153 926)"/><line class="o" x2="381" transform="translate(153 1186)"/><text class="t" transform="translate(169 623)"><tspan x="0" y="0">CYCLE 1</tspan></text><text class="t" transform="translate(169 524)"><tspan x="0" y="0">START</tspan></text><text class="t" transform="translate(169 962)"><tspan x="0" y="0">CYCLE 2</tspan></text><text class="t" transform="translate(169 1222)"><tspan x="0" y="0">FINAL</tspan></text><g transform="translate(0 11)"><g class="s" transform="translate(273 495)"><path class="ag" d="M 136 59 L 5 59 C 2.794399976730347 59 1 57.20560073852539 1 55 L 1 5 C 1 2.794399976730347 2.794399976730347 1 5 1 L 136 1 C 138.2055969238281 1 140 2.794399976730347 140 5 L 140 55 C 140 57.20560073852539 138.2055969238281 59 136 59 Z"/><path class="ah" d="M 5 2 C 3.345794677734375 2 2 3.345798492431641 2 5 L 2 55 C 2 56.65420150756836 3.345794677734375 58 5 58 L 136 58 C 137.6542053222656 58 139 56.65420150756836 139 55 L 139 5 C 139 3.345798492431641 137.6542053222656 2 136 2 L 5 2 M 5 0 L 136 0 C 138.7614135742188 0 141 2.238578796386719 141 5 L 141 55 C 141 57.76142120361328 138.7614135742188 60 136 60 L 5 60 C 2.238555908203125 60 0 57.76142120361328 0 55 L 0 5 C 0 2.238578796386719 2.238555908203125 0 5 0 Z"/></g><text class="g" transform="translate(344 531)"><tspan x="-47.03" y="0">Introduction</tspan></text></g></g><g class="u" transform="translate(254.75 1338.75)"><path class="v" d="M30,17H10A7,7,0,0,1,10,3H30a7,7,0,0,1,0,14Z" transform="translate(3.25 1.25)"/><g class="ak" transform="matrix(1, 0, 0, 1, -254.75, -1338.75)"><path class="w" d="M10,0A10,10,0,1,1,0,10,10,10,0,0,1,10,0Z" transform="translate(258 1340)"/></g></g><text class="g" transform="translate(200 1356)"><tspan x="-46.521" y="0">Thumbnails</tspan></text><text class="g" transform="translate(471 1355)"><tspan x="-38.004" y="0">Maximize</tspan></text><g class="x" transform="translate(510 1336)"><rect class="b" width="24" height="24"/><path class="y" d="M7,14H5v5h5V17H7V14ZM5,10H7V7h3V5H5v5Zm12,7H14v2h5V14H17v3ZM14,5V7h3v3h2V5Z"/></g><g transform="translate(280 -3)"><g class="a" transform="translate(1393 390)"><rect class="ag" width="80" height="40" rx="5"/><rect class="b" x="0.5" y="0.5" width="79" height="39" rx="4.5"/></g><g class="x" transform="translate(1401 398)"><rect class="b" width="24" height="24"/><path class="y" d="M20,11H7.8l5.6-5.6L12,4,4,12l8,8,1.4-1.4L7.8,13H20V11Z"/></g><g class="x" transform="translate(1441 398)"><rect class="b" width="24" height="24"/><path class="y" d="M12,4,10.6,5.4,16.2,11H4v2H16.2l-5.6,5.6L12,20l8-8Z"/></g><line class="o" y2="39" transform="translate(1433.5 390.5)"/></g><g transform="translate(-468)"><g class="a" transform="translate(632 387)"><rect class="ag" width="148" height="40" rx="5"/><rect class="b" x="0.5" y="0.5" width="147" height="39" rx="4.5"/></g><text class="z" transform="translate(665 396)"><tspan x="0" y="18">SETTINGS</tspan></text><g class="x" transform="translate(641 395)"><path class="aa" d="M9.568,12.123A2.625,2.625,0,1,1,12.193,9.5,2.625,2.625,0,0,1,9.568,12.123Zm5.572-1.893a5.13,5.13,0,0,0,0-1.464l1.585-1.24a.374.374,0,0,0,.089-.479l-1.5-2.6a.375.375,0,0,0-.459-.163l-1.867.752A5.605,5.605,0,0,0,11.719,4.3l-.281-1.987A.376.376,0,0,0,11.068,2h-3a.375.375,0,0,0-.37.316L7.416,4.3a5.624,5.624,0,0,0-1.268.738L4.282,4.286a.375.375,0,0,0-.459.163l-1.5,2.6a.374.374,0,0,0,.089.479L4,8.766A5.129,5.129,0,0,0,4,10.23L2.411,11.47a.376.376,0,0,0-.089.479l1.5,2.6a.375.375,0,0,0,.459.163l1.867-.752a5.607,5.607,0,0,0,1.268.737L7.7,16.682a.375.375,0,0,0,.37.316h3a.376.376,0,0,0,.371-.316l.281-1.987a5.622,5.622,0,0,0,1.267-.738l1.868.753a.375.375,0,0,0,.459-.163l1.5-2.6a.376.376,0,0,0-.089-.479Z" transform="translate(2.727 3.002)"/><rect class="b" width="24" height="24"/></g></g><g class="ab" transform="translate(1495 396)"><path class="ac" d="M37,10a6.957,6.957,0,0,1-7,7H10a6.957,6.957,0,0,1-7-7H3a6.957,6.957,0,0,1,7-7H30a6.957,6.957,0,0,1,7,7Z" transform="translate(-3 1)"/><g class="aj" transform="matrix(1, 0, 0, 1, -1495, -396)"><path class="ad" d="M10,0A10,10,0,1,1,0,10,10,10,0,0,1,10,0Z" transform="translate(1512 397)"/></g></g><g transform="translate(776 291)"><rect class="b" width="142" height="48" transform="translate(80 564)"/><g transform="translate(0 206)"><rect class="ae" width="276.521" height="2" rx="1" transform="translate(80 381)"/><rect class="af" width="62" height="2" rx="1" transform="translate(80 381)"/></g><circle class="af" cx="6" cy="6" r="6" transform="translate(132 582)"/></g></g></svg>