<svg xmlns="http://www.w3.org/2000/svg" xmlns:xlink="http://www.w3.org/1999/xlink" width="1920" height="1387" viewBox="0 0 1920 1387"><defs><style>.a,.ab,.ad,.ag,.e,.j,.l,.n,.r{fill:#fff;}.a,.v{stroke:#707070;}.b,.p,.v{fill:none;}.c{clip-path:url(#n);}.d{clip-path:url(#a);}.ae,.al,.f,.g{fill:gray;}.f{font-size:56px;}.ae,.f,.w{font-family:Arial-BoldMT, Arial;}.ae,.f,.j,.n,.w{font-weight:700;}.ad,.ae,.g,.n{font-size:18px;}.ad,.g,.r,.s{font-family:ArialMT, Arial;}.h{clip-path:url(#b);}.i{fill:#0d4a71;}.j,.l,.o,.w{font-size:20px;}.j,.n{font-family:SegoeUI-Bold, Segoe UI;}.k{fill:#ba2027;}.l,.m,.o{font-family:SegoeUI, Segoe UI;}.m{fill:#346e93;font-size:28px;}.o{font-weight:400;}.p{stroke:#fff;}.ac,.af,.am,.q,.s{fill:#a6a6a6;}.r,.s{font-size:14px;}.t{clip-path:url(#c);}.ai,.u,.z{fill-rule:evenodd;}.u{opacity:0.54;}.w,.x{fill:#707070;}.y{clip-path:url(#f);}.aa,.z{fill:#009688;}.z{opacity:0.5;}.ab{stroke:#a6a6a6;}.ab,.ac{stroke-width:2px;}.ac{stroke:gray;}.ah{clip-path:url(#i);}.ai{fill:rgba(34,31,31,0.26);}.aj{fill:#f1f1f1;stroke:rgba(0,0,0,0);stroke-width:0.5px;}.ak,.al,.am{stroke:none;}.an{fill:#f2f2f2;}.ao{filter:url(#j);}.ap{filter:url(#g);}</style><clipPath id="a"><rect class="a" width="1614" height="712" transform="translate(153 367)"/></clipPath><clipPath id="b"><rect class="a" width="447.545" height="624.397" transform="translate(1151 744)"/></clipPath><clipPath id="c"><rect class="b" width="24" height="24"/></clipPath><clipPath id="f"><rect class="b" width="40" height="26"/></clipPath><filter id="g" x="1509" y="396" width="26" height="26" filterUnits="userSpaceOnUse"><feOffset dy="2" input="SourceAlpha"/><feGaussianBlur stdDeviation="1" result="h"/><feFlood flood-opacity="0.239"/><feComposite operator="in" in2="h"/><feComposite in="SourceGraphic"/></filter><clipPath id="i"><rect class="b" width="40.25" height="26.5"/></clipPath><filter id="j" x="254.75" y="1338.75" width="26.5" height="26.5" filterUnits="userSpaceOnUse"><feOffset dy="2" input="SourceAlpha"/><feGaussianBlur stdDeviation="1" result="k"/><feFlood flood-opacity="0.239"/><feComposite operator="in" in2="k"/><feComposite in="SourceGraphic"/></filter><clipPath id="n"><rect width="1920" height="1387"/></clipPath></defs><g id="m" class="c"><rect class="an" width="1920" height="1387"/><g class="d" transform="translate(137 99)"><image width="2029" height="1141" transform="translate(8 105)" xlink:href="Preview%20-%20Patient-image.png"/></g><rect class="e" width="1920" height="100"/><text class="f" transform="translate(153 286)"><tspan x="0" y="0">Preview case</tspan></text><text class="g" transform="translate(153 318)"><tspan x="0" y="16">Here&apos;s how your case will appear to students. You can also edit them. </tspan></text><g class="h" transform="translate(168 -253.398)"><image width="1732.432" height="974.493" transform="translate(188.237 589.705)" xlink:href="Preview%20-%20Patient-image2.png"/></g><g transform="translate(-61 -17)"><rect class="i" width="212" height="47" rx="23.5" transform="translate(1528.045 1105)"/><text class="j" transform="translate(1563.045 1137)"><tspan x="0" y="0">PATIENT Jakob</tspan></text></g><g class="a" transform="translate(616 1034)"><rect class="ak" width="718" height="144" rx="12"/><rect class="b" x="0.5" y="0.5" width="717" height="143" rx="11.5"/></g><rect class="k" width="212" height="59" rx="29.5" transform="translate(632 1097)"/><rect class="k" width="212" height="59" rx="29.5" transform="translate(859 1097)"/><rect class="k" width="212" height="59" rx="29.5" transform="translate(1088 1097)"/><text class="l" transform="translate(645.5 1133)"><tspan x="0" y="0">Generate hypothesis</tspan></text><text class="l" transform="translate(888 1133)"><tspan x="0" y="0">More information</tspan></text><text class="l" transform="translate(1117 1133)"><tspan x="0" y="0">Call the supervisor</tspan></text><text class="m" transform="translate(634 1045)"><tspan x="0" y="30">What do you want to do?</tspan></text><text class="l" transform="translate(701 608)"><tspan x="40.123" y="22">&quot;Doctor, I am feeling chest pain since yesterday. The </tspan><tspan x="28.092" y="49">pain is continuous and is located just in the middle of </tspan><tspan x="49.234" y="76">my chest, worsening when I breathe and when I lay </tspan><tspan x="5.396" y="103">down on my bed. I suffer from arterial hypertension and </tspan><tspan x="25.006" y="130">smoke 20 cigarettes every day. My father had a “heart </tspan><tspan x="61.949" y="157">attack” at my age and I am very worried about it.&quot; </tspan></text><text class="n" transform="translate(701 799)"><tspan x="0" y="19">PHYSICAL EXAMINATION </tspan><tspan class="o"><tspan x="0" y="46">Cardiac and pulmonary auscultation are normal; chest </tspan><tspan x="0" y="73">pain does not worse with palpation of the thorax; there </tspan><tspan x="0" y="100">is no jugular stasis nor lower limb edema.</tspan></tspan></text><line class="p" y2="170" transform="translate(1218 608)"/><rect class="q" width="153" height="27" rx="5" transform="translate(366 144)"/><rect class="q" width="70" height="27" rx="5" transform="translate(153 144)"/><text class="r" transform="translate(166 150)"><tspan x="1" y="13" xml:space="preserve">HOME      </tspan></text><text class="s" transform="translate(231 150)"><tspan x="0" y="13">&gt;</tspan></text><text class="s" transform="translate(349 150)"><tspan x="0" y="13">&gt;</tspan></text><rect class="q" width="90" height="27" rx="5" transform="translate(248 144)"/><text class="r" transform="translate(256 150)"><tspan x="11" y="13">DRAFTS</tspan></text><text class="r" transform="translate(374 150)"><tspan x="15.21" y="13">PREVIEW CASE</tspan></text><g class="a" transform="translate(153 377)"><rect class="ak" width="1614" height="60" rx="5"/><rect class="b" x="0.5" y="0.5" width="1613" height="59" rx="4.5"/></g><g class="a" transform="translate(1330 377)"><rect class="ak" width="240" height="60"/><rect class="b" x="0.5" y="0.5" width="239" height="59"/></g><text class="g" transform="translate(1353 413)"><tspan x="0" y="0">Preview mode</tspan></text><g transform="translate(280 -3)"><g class="a" transform="translate(1393 390)"><rect class="ak" width="80" height="40" rx="5"/><rect class="b" x="0.5" y="0.5" width="79" height="39" rx="4.5"/></g><g class="t" transform="translate(1401 398)"><rect class="b" width="24" height="24"/><path class="u" d="M20,11H7.8l5.6-5.6L12,4,4,12l8,8,1.4-1.4L7.8,13H20V11Z"/></g><g class="t" transform="translate(1441 398)"><rect class="b" width="24" height="24"/><path class="u" d="M12,4,10.6,5.4,16.2,11H4v2H16.2l-5.6,5.6L12,20l8-8Z"/></g><line class="v" y2="39" transform="translate(1433.5 390.5)"/></g><g transform="translate(-468)"><g class="a" transform="translate(632 387)"><rect class="ak" width="148" height="40" rx="5"/><rect class="b" x="0.5" y="0.5" width="147" height="39" rx="4.5"/></g><text class="w" transform="translate(665 396)"><tspan x="0" y="18">SETTINGS</tspan></text><g class="t" transform="translate(641 395)"><path class="x" d="M9.568,12.123A2.625,2.625,0,1,1,12.193,9.5,2.625,2.625,0,0,1,9.568,12.123Zm5.572-1.893a5.13,5.13,0,0,0,0-1.464l1.585-1.24a.374.374,0,0,0,.089-.479l-1.5-2.6a.375.375,0,0,0-.459-.163l-1.867.752A5.605,5.605,0,0,0,11.719,4.3l-.281-1.987A.376.376,0,0,0,11.068,2h-3a.375.375,0,0,0-.37.316L7.416,4.3a5.624,5.624,0,0,0-1.268.738L4.282,4.286a.375.375,0,0,0-.459.163l-1.5,2.6a.374.374,0,0,0,.089.479L4,8.766A5.129,5.129,0,0,0,4,10.23L2.411,11.47a.376.376,0,0,0-.089.479l1.5,2.6a.375.375,0,0,0,.459.163l1.867-.752a5.607,5.607,0,0,0,1.268.737L7.7,16.682a.375.375,0,0,0,.37.316h3a.376.376,0,0,0,.371-.316l.281-1.987a5.622,5.622,0,0,0,1.267-.738l1.868.753a.375.375,0,0,0,.459-.163l1.5-2.6a.376.376,0,0,0-.089-.479Z" transform="translate(2.727 3.002)"/><rect class="b" width="24" height="24"/></g></g><g class="y" transform="translate(1495 396)"><path class="z" d="M37,10a6.957,6.957,0,0,1-7,7H10a6.957,6.957,0,0,1-7-7H3a6.957,6.957,0,0,1,7-7H30a6.957,6.957,0,0,1,7,7Z" transform="translate(-3 1)"/><g class="ap" transform="matrix(1, 0, 0, 1, -1495, -396)"><path class="aa" d="M10,0A10,10,0,1,1,0,10,10,10,0,0,1,10,0Z" transform="translate(1512 397)"/></g></g><g class="a" transform="translate(153 485)"><rect class="ak" width="381" height="840" rx="5"/><rect class="b" x="0.5" y="0.5" width="380" height="839" rx="4.5"/></g><g transform="translate(0 19)"><line class="v" y1="20" x2="39" transform="translate(397 1086)"/><line class="v" y1="20" x2="39" transform="translate(397 746)"/><g transform="translate(102 199)"><g class="ab" transform="translate(273 495)"><rect class="ak" width="141" height="60" rx="5"/><rect class="b" x="1" y="1" width="139" height="58" rx="4"/></g><text class="g" transform="translate(344 531)"><tspan x="-43.018" y="0">Supervisor</tspan></text></g><g transform="translate(102 539)"><g class="ab" transform="translate(273 495)"><rect class="ak" width="141" height="60" rx="5"/><rect class="b" x="1" y="1" width="139" height="58" rx="4"/></g><text class="g" transform="translate(344 531)"><tspan x="-43.018" y="0">Supervisor</tspan></text></g><g transform="translate(98 195)"><g class="ab" transform="translate(273 495)"><rect class="ak" width="141" height="60" rx="5"/><rect class="b" x="1" y="1" width="139" height="58" rx="4"/></g><text class="g" transform="translate(344 531)"><tspan x="-43.018" y="0">Supervisor</tspan></text></g><g transform="translate(98 535)"><g class="ab" transform="translate(273 495)"><rect class="ak" width="141" height="60" rx="5"/><rect class="b" x="1" y="1" width="139" height="58" rx="4"/></g><text class="g" transform="translate(344 531)"><tspan x="-43.018" y="0">Supervisor</tspan></text></g><path class="v" d="M0,0V244.167" transform="translate(343.5 606.5)"/><path class="v" d="M0,0V194.47" transform="translate(343.5 953.5)"/><g transform="translate(0 11)"><g class="ac" transform="translate(273 495)"><rect class="ak" width="141" height="60" rx="5"/><rect class="b" x="1" y="1" width="139" height="58" rx="4"/></g><text class="ad" transform="translate(344 531)"><tspan x="-47.03" y="0">Introduction</tspan></text></g><g transform="translate(0 111)"><g class="ab" transform="translate(273 495)"><rect class="ak" width="141" height="60" rx="5"/><rect class="b" x="1" y="1" width="139" height="58" rx="4"/></g><text class="g" transform="translate(344 531)"><tspan x="-28.02" y="0">Patient</tspan></text></g><g transform="translate(0 271)"><g class="ab" transform="translate(273 495)"><rect class="ak" width="141" height="60" rx="5"/><rect class="b" x="1" y="1" width="139" height="58" rx="4"/></g><text class="g" transform="translate(344 521)"><tspan x="-40.025" y="0">Generate </tspan><tspan x="-43.027" y="21">hypothesis</tspan></text></g><g transform="translate(0 611)"><g class="ab" transform="translate(273 495)"><rect class="ak" width="141" height="60" rx="5"/><rect class="b" x="1" y="1" width="139" height="58" rx="4"/></g><text class="g" transform="translate(344 521)"><tspan x="-40.025" y="0">Generate </tspan><tspan x="-43.027" y="21">hypothesis</tspan></text></g><g transform="translate(0 351)"><g class="ab" transform="translate(273 495)"><rect class="ak" width="141" height="60" rx="5"/><rect class="b" x="1" y="1" width="139" height="58" rx="4"/></g><text class="g" transform="translate(344 531)"><tspan x="-57.032" y="0">Text highligths</tspan></text></g><g transform="translate(0 711)"><g class="ab" transform="translate(273 495)"><rect class="ak" width="141" height="60" rx="5"/><rect class="b" x="1" y="1" width="139" height="58" rx="4"/></g><text class="g" transform="translate(344 531)"><tspan x="-39.524" y="0">Feedback</tspan></text></g><g transform="translate(0 451)"><g class="ab" transform="translate(273 495)"><rect class="ak" width="141" height="60" rx="5"/><rect class="b" x="1" y="1" width="139" height="58" rx="4"/></g><text class="g" transform="translate(344 531)"><tspan x="-19.006" y="0">EKG</tspan></text></g><g transform="translate(-93 191)"><g class="ab" transform="translate(273 495)"><rect class="ak" width="141" height="60" rx="5"/><rect class="b" x="1" y="1" width="139" height="58" rx="4"/></g><text class="g" transform="translate(344 531)"><tspan x="-52.277" y="0">+ information</tspan></text></g><g transform="translate(-93 531)"><g class="ab" transform="translate(273 495)"><rect class="ak" width="141" height="60" rx="5"/><rect class="b" x="1" y="1" width="139" height="58" rx="4"/></g><text class="g" transform="translate(344 531)"><tspan x="-52.277" y="0">+ information</tspan></text></g><g transform="translate(94 191)"><g class="ab" transform="translate(273 495)"><rect class="ak" width="141" height="60" rx="5"/><rect class="b" x="1" y="1" width="139" height="58" rx="4"/></g><text class="g" transform="translate(344 531)"><tspan x="-43.018" y="0">Supervisor</tspan></text></g><g transform="translate(94 531)"><g class="ab" transform="translate(273 495)"><rect class="ak" width="141" height="60" rx="5"/><rect class="b" x="1" y="1" width="139" height="58" rx="4"/></g><text class="g" transform="translate(344 531)"><tspan x="-43.018" y="0">Supervisor</tspan></text></g><line class="v" x1="39" y2="20" transform="translate(251 666)"/><line class="v" x1="39" y2="20" transform="translate(251 1006)"/><line class="v" x1="39" y1="20" transform="translate(251 746)"/><line class="v" x1="39" y1="20" transform="translate(251 1086)"/><line class="v" x2="39" y2="20" transform="translate(397 666)"/><line class="v" x2="39" y2="20" transform="translate(397 1006)"/><line class="v" x2="46" transform="translate(321.5 716.5)"/><line class="v" x2="46" transform="translate(321.5 1055.5)"/><line class="v" x2="381" transform="translate(153 586)"/><line class="v" x2="381" transform="translate(153 926)"/><line class="v" x2="381" transform="translate(153 1186)"/><text class="ae" transform="translate(169 623)"><tspan x="0" y="0">CYCLE 1</tspan></text><text class="ae" transform="translate(169 524)"><tspan x="0" y="0">START</tspan></text><text class="ae" transform="translate(169 962)"><tspan x="0" y="0">CYCLE 2</tspan></text><text class="ae" transform="translate(169 1222)"><tspan x="0" y="0">FINAL</tspan></text><g transform="translate(0 111)"><g class="af" transform="translate(273 495)"><path class="ak" d="M 136 59 L 5 59 C 2.794399976730347 59 1 57.20560073852539 1 55 L 1 5 C 1 2.794399976730347 2.794399976730347 1 5 1 L 136 1 C 138.2055969238281 1 140 2.794399976730347 140 5 L 140 55 C 140 57.20560073852539 138.2055969238281 59 136 59 Z"/><path class="al" d="M 5 2 C 3.345794677734375 2 2 3.345798492431641 2 5 L 2 55 C 2 56.65420150756836 3.345794677734375 58 5 58 L 136 58 C 137.6542053222656 58 139 56.65420150756836 139 55 L 139 5 C 139 3.345798492431641 137.6542053222656 2 136 2 L 5 2 M 5 0 L 136 0 C 138.7614135742188 0 141 2.238578796386719 141 5 L 141 55 C 141 57.76142120361328 138.7614135742188 60 136 60 L 5 60 C 2.238555908203125 60 0 57.76142120361328 0 55 L 0 5 C 0 2.238578796386719 2.238555908203125 0 5 0 Z"/></g><text class="ad" transform="translate(344 531)"><tspan x="-28.02" y="0">Patient</tspan></text></g><g transform="translate(0 11)"><g class="ag" transform="translate(273 495)"><path class="ak" d="M 136 59 L 5 59 C 2.794399976730347 59 1 57.20560073852539 1 55 L 1 5 C 1 2.794399976730347 2.794399976730347 1 5 1 L 136 1 C 138.2055969238281 1 140 2.794399976730347 140 5 L 140 55 C 140 57.20560073852539 138.2055969238281 59 136 59 Z"/><path class="am" d="M 5 2 C 3.345794677734375 2 2 3.345798492431641 2 5 L 2 55 C 2 56.65420150756836 3.345794677734375 58 5 58 L 136 58 C 137.6542053222656 58 139 56.65420150756836 139 55 L 139 5 C 139 3.345798492431641 137.6542053222656 2 136 2 L 5 2 M 5 0 L 136 0 C 138.7614135742188 0 141 2.238578796386719 141 5 L 141 55 C 141 57.76142120361328 138.7614135742188 60 136 60 L 5 60 C 2.238555908203125 60 0 57.76142120361328 0 55 L 0 5 C 0 2.238578796386719 2.238555908203125 0 5 0 Z"/></g><text class="g" transform="translate(344 531)"><tspan x="-47.03" y="0">Introduction</tspan></text></g></g><g class="ah" transform="translate(254.75 1338.75)"><path class="ai" d="M30,17H10A7,7,0,0,1,10,3H30a7,7,0,0,1,0,14Z" transform="translate(3.25 1.25)"/><g class="ao" transform="matrix(1, 0, 0, 1, -254.75, -1338.75)"><path class="aj" d="M10,0A10,10,0,1,1,0,10,10,10,0,0,1,10,0Z" transform="translate(258 1340)"/></g></g><text class="g" transform="translate(200 1356)"><tspan x="-46.521" y="0">Thumbnails</tspan></text><text class="g" transform="translate(471 1355)"><tspan x="-38.004" y="0">Maximize</tspan></text><g class="t" transform="translate(510 1336)"><rect class="b" width="24" height="24"/><path class="u" d="M7,14H5v5h5V17H7V14ZM5,10H7V7h3V5H5v5Zm12,7H14v2h5V14H17v3ZM14,5V7h3v3h2V5Z"/></g></g></svg>