<svg xmlns="http://www.w3.org/2000/svg" xmlns:xlink="http://www.w3.org/1999/xlink" width="1920" height="1422" viewBox="0 0 1920 1422"><defs><style>.a,.f,.g,.k,.o,.r,.t{fill:#fff;}.a,.q{stroke:#707070;}.b,.p,.q{fill:none;}.c{clip-path:url(#n);}.d{clip-path:url(#a);}.e{fill:#ba2027;}.aa,.f,.o{font-size:20px;}.f{font-family:SegoeUI, Segoe UI;}.h,.i,.u{fill:gray;}.h{font-size:56px;}.aa,.h,.u{font-family:Arial-BoldMT, Arial;}.aa,.h,.o,.u{font-weight:700;}.i,.t,.u{font-size:18px;}.i,.k,.l,.t{font-family:ArialMT, Arial;}.j,.l,.s{fill:#a6a6a6;}.k,.l{font-size:14px;}.m{clip-path:url(#b);}.n{fill:#0d4a71;}.o{font-family:SegoeUI-Bold, Segoe UI;}.p{stroke:#fff;}.r{stroke:#a6a6a6;}.r,.s{stroke-width:2px;}.s{stroke:gray;}.v{clip-path:url(#c);}.w{fill:rgba(34,31,31,0.26);}.ad,.w,.z{fill-rule:evenodd;}.x{fill:#f1f1f1;stroke:rgba(0,0,0,0);stroke-width:0.5px;}.y{clip-path:url(#f);}.z{opacity:0.54;}.aa,.ab{fill:#707070;}.ac{clip-path:url(#j);}.ad,.ae{fill:#009688;}.ad{opacity:0.5;}.af{stroke:none;}.ag{fill:#f2f2f2;}.ah{filter:url(#k);}.ai{filter:url(#d);}</style><clipPath id="a"><rect class="a" width="1614" height="712" transform="translate(153 367)"/></clipPath><clipPath id="b"><rect class="a" width="655" height="597.711" transform="translate(-14462 -12492)"/></clipPath><clipPath id="c"><rect class="b" width="40.25" height="26.5"/></clipPath><filter id="d" x="254.75" y="1338.75" width="26.5" height="26.5" filterUnits="userSpaceOnUse"><feOffset dy="2" input="SourceAlpha"/><feGaussianBlur stdDeviation="1" result="e"/><feFlood flood-opacity="0.239"/><feComposite operator="in" in2="e"/><feComposite in="SourceGraphic"/></filter><clipPath id="f"><rect class="b" width="24" height="24"/></clipPath><clipPath id="j"><rect class="b" width="40" height="26"/></clipPath><filter id="k" x="1509" y="396" width="26" height="26" filterUnits="userSpaceOnUse"><feOffset dy="2" input="SourceAlpha"/><feGaussianBlur stdDeviation="1" result="l"/><feFlood flood-opacity="0.239"/><feComposite operator="in" in2="l"/><feComposite in="SourceGraphic"/></filter><clipPath id="n"><rect width="1920" height="1422"/></clipPath></defs><g id="m" class="c"><rect class="ag" width="1920" height="1422"/><g class="d" transform="translate(137 99)"><image width="2029" height="1141" transform="translate(8 105)" xlink:href="Preview%20-%20Introduction-image.png"/></g><rect class="e" width="381" height="59" rx="29.5" transform="translate(1249 1085)"/><text class="f" transform="translate(1318 1123)"><tspan x="0" y="0">Ok. I would like to see him. </tspan></text><text class="f" transform="translate(1032 672.5)"><tspan x="0" y="22">Doctor, we have a man, 51 years old, who </tspan><tspan x="0" y="49">entered the emergency department </tspan><tspan x="0" y="76">reporting chest pain. His vital signs are </tspan><tspan x="0" y="103">ABP 144x92 mmHG; HR 78 bpm; RR 21 </tspan><tspan x="0" y="130">rpm; Temperature 37 ºC; O2 Sat 98%.</tspan><tspan x="0" y="157"></tspan></text><rect class="g" width="1920" height="100"/><text class="h" transform="translate(153 286)"><tspan x="0" y="0">Preview case</tspan></text><text class="i" transform="translate(153 318)"><tspan x="0" y="16">Here&apos;s how your case will appear to students. You can also edit them. </tspan></text><rect class="j" width="153" height="27" rx="5" transform="translate(366 144)"/><rect class="j" width="70" height="27" rx="5" transform="translate(153 144)"/><text class="k" transform="translate(166 150)"><tspan x="1" y="13" xml:space="preserve">HOME      </tspan></text><text class="l" transform="translate(231 150)"><tspan x="0" y="13">&gt;</tspan></text><text class="l" transform="translate(349 150)"><tspan x="0" y="13">&gt;</tspan></text><rect class="j" width="90" height="27" rx="5" transform="translate(248 144)"/><text class="k" transform="translate(256 150)"><tspan x="11" y="13">DRAFTS</tspan></text><text class="k" transform="translate(374 150)"><tspan x="15.21" y="13">PREVIEW CASE</tspan></text><g class="m" transform="translate(15026 13010.166)"><image width="1833.235" height="1031.195" transform="translate(-14618.591 -12718.29)" xlink:href="Preview%20-%20Introduction-image2.png"/></g><rect class="n" width="244" height="47" rx="23.5" transform="translate(772 1092)"/><text class="o" transform="translate(827 1124)"><tspan x="0" y="0">NURSE Agnes </tspan></text><line class="p" y2="141" transform="translate(1016 673)"/><g class="a" transform="translate(153 485)"><rect class="af" width="381" height="840" rx="5"/><rect class="b" x="0.5" y="0.5" width="380" height="839" rx="4.5"/></g><g transform="translate(0 19)"><line class="q" y1="20" x2="39" transform="translate(397 1086)"/><line class="q" y1="20" x2="39" transform="translate(397 746)"/><g transform="translate(102 199)"><g class="r" transform="translate(273 495)"><rect class="af" width="141" height="60" rx="5"/><rect class="b" x="1" y="1" width="139" height="58" rx="4"/></g><text class="i" transform="translate(344 531)"><tspan x="-43.018" y="0">Supervisor</tspan></text></g><g transform="translate(102 539)"><g class="r" transform="translate(273 495)"><rect class="af" width="141" height="60" rx="5"/><rect class="b" x="1" y="1" width="139" height="58" rx="4"/></g><text class="i" transform="translate(344 531)"><tspan x="-43.018" y="0">Supervisor</tspan></text></g><g transform="translate(98 195)"><g class="r" transform="translate(273 495)"><rect class="af" width="141" height="60" rx="5"/><rect class="b" x="1" y="1" width="139" height="58" rx="4"/></g><text class="i" transform="translate(344 531)"><tspan x="-43.018" y="0">Supervisor</tspan></text></g><g transform="translate(98 535)"><g class="r" transform="translate(273 495)"><rect class="af" width="141" height="60" rx="5"/><rect class="b" x="1" y="1" width="139" height="58" rx="4"/></g><text class="i" transform="translate(344 531)"><tspan x="-43.018" y="0">Supervisor</tspan></text></g><path class="q" d="M0,0V244.167" transform="translate(343.5 606.5)"/><path class="q" d="M0,0V194.47" transform="translate(343.5 953.5)"/><g transform="translate(0 11)"><g class="s" transform="translate(273 495)"><rect class="af" width="141" height="60" rx="5"/><rect class="b" x="1" y="1" width="139" height="58" rx="4"/></g><text class="t" transform="translate(344 531)"><tspan x="-47.03" y="0">Introduction</tspan></text></g><g transform="translate(0 111)"><g class="r" transform="translate(273 495)"><rect class="af" width="141" height="60" rx="5"/><rect class="b" x="1" y="1" width="139" height="58" rx="4"/></g><text class="i" transform="translate(344 531)"><tspan x="-28.02" y="0">Patient</tspan></text></g><g transform="translate(0 271)"><g class="r" transform="translate(273 495)"><rect class="af" width="141" height="60" rx="5"/><rect class="b" x="1" y="1" width="139" height="58" rx="4"/></g><text class="i" transform="translate(344 521)"><tspan x="-40.025" y="0">Generate </tspan><tspan x="-43.027" y="21">hypothesis</tspan></text></g><g transform="translate(0 611)"><g class="r" transform="translate(273 495)"><rect class="af" width="141" height="60" rx="5"/><rect class="b" x="1" y="1" width="139" height="58" rx="4"/></g><text class="i" transform="translate(344 521)"><tspan x="-40.025" y="0">Generate </tspan><tspan x="-43.027" y="21">hypothesis</tspan></text></g><g transform="translate(0 351)"><g class="r" transform="translate(273 495)"><rect class="af" width="141" height="60" rx="5"/><rect class="b" x="1" y="1" width="139" height="58" rx="4"/></g><text class="i" transform="translate(287 504)"><tspan x="31.49" y="16">Check </tspan><tspan x="13.973" y="37">hypothesis</tspan></text></g><g transform="translate(0 711)"><g class="r" transform="translate(273 495)"><rect class="af" width="141" height="60" rx="5"/><rect class="b" x="1" y="1" width="139" height="58" rx="4"/></g><text class="i" transform="translate(344 531)"><tspan x="-39.524" y="0">Feedback</tspan></text></g><g transform="translate(0 451)"><g class="r" transform="translate(273 495)"><rect class="af" width="141" height="60" rx="5"/><rect class="b" x="1" y="1" width="139" height="58" rx="4"/></g><text class="i" transform="translate(344 531)"><tspan x="-19.006" y="0">EKG</tspan></text></g><g transform="translate(-93 191)"><g class="r" transform="translate(273 495)"><rect class="af" width="141" height="60" rx="5"/><rect class="b" x="1" y="1" width="139" height="58" rx="4"/></g><text class="i" transform="translate(344 531)"><tspan x="-52.277" y="0">+ information</tspan></text></g><g transform="translate(-93 531)"><g class="r" transform="translate(273 495)"><rect class="af" width="141" height="60" rx="5"/><rect class="b" x="1" y="1" width="139" height="58" rx="4"/></g><text class="i" transform="translate(344 531)"><tspan x="-52.277" y="0">+ information</tspan></text></g><g transform="translate(94 191)"><g class="r" transform="translate(273 495)"><rect class="af" width="141" height="60" rx="5"/><rect class="b" x="1" y="1" width="139" height="58" rx="4"/></g><text class="i" transform="translate(344 531)"><tspan x="-43.018" y="0">Supervisor</tspan></text></g><g transform="translate(94 531)"><g class="r" transform="translate(273 495)"><rect class="af" width="141" height="60" rx="5"/><rect class="b" x="1" y="1" width="139" height="58" rx="4"/></g><text class="i" transform="translate(344 531)"><tspan x="-43.018" y="0">Supervisor</tspan></text></g><line class="q" x1="39" y2="20" transform="translate(251 666)"/><line class="q" x1="39" y2="20" transform="translate(251 1006)"/><line class="q" x1="39" y1="20" transform="translate(251 746)"/><line class="q" x1="39" y1="20" transform="translate(251 1086)"/><line class="q" x2="39" y2="20" transform="translate(397 666)"/><line class="q" x2="39" y2="20" transform="translate(397 1006)"/><line class="q" x2="46" transform="translate(321.5 716.5)"/><line class="q" x2="46" transform="translate(321.5 1055.5)"/><line class="q" x2="381" transform="translate(153 586)"/><line class="q" x2="381" transform="translate(153 926)"/><line class="q" x2="381" transform="translate(153 1186)"/><text class="u" transform="translate(169 623)"><tspan x="0" y="0">CYCLE 1</tspan></text><text class="u" transform="translate(169 524)"><tspan x="0" y="0">START</tspan></text><text class="u" transform="translate(169 962)"><tspan x="0" y="0">CYCLE 2</tspan></text><text class="u" transform="translate(169 1222)"><tspan x="0" y="0">FINAL</tspan></text></g><g class="v" transform="translate(254.75 1338.75)"><path class="w" d="M30,17H10A7,7,0,0,1,10,3H30a7,7,0,0,1,0,14Z" transform="translate(3.25 1.25)"/><g class="ai" transform="matrix(1, 0, 0, 1, -254.75, -1338.75)"><path class="x" d="M10,0A10,10,0,1,1,0,10,10,10,0,0,1,10,0Z" transform="translate(258 1340)"/></g></g><text class="i" transform="translate(200 1356)"><tspan x="-46.521" y="0">Thumbnails</tspan></text><text class="i" transform="translate(471 1355)"><tspan x="-38.004" y="0">Maximize</tspan></text><g class="y" transform="translate(510 1336)"><rect class="b" width="24" height="24"/><path class="z" d="M7,14H5v5h5V17H7V14ZM5,10H7V7h3V5H5v5Zm12,7H14v2h5V14H17v3ZM14,5V7h3v3h2V5Z"/></g><g class="a" transform="translate(153 377)"><rect class="af" width="1614" height="60" rx="5"/><rect class="b" x="0.5" y="0.5" width="1613" height="59" rx="4.5"/></g><g class="a" transform="translate(1330 377)"><rect class="af" width="240" height="60"/><rect class="b" x="0.5" y="0.5" width="239" height="59"/></g><text class="i" transform="translate(1353 413)"><tspan x="0" y="0">Preview mode</tspan></text><g transform="translate(280 -3)"><g class="a" transform="translate(1393 390)"><rect class="af" width="80" height="40" rx="5"/><rect class="b" x="0.5" y="0.5" width="79" height="39" rx="4.5"/></g><g class="y" transform="translate(1401 398)"><rect class="b" width="24" height="24"/><path class="z" d="M20,11H7.8l5.6-5.6L12,4,4,12l8,8,1.4-1.4L7.8,13H20V11Z"/></g><g class="y" transform="translate(1441 398)"><rect class="b" width="24" height="24"/><path class="z" d="M12,4,10.6,5.4,16.2,11H4v2H16.2l-5.6,5.6L12,20l8-8Z"/></g><line class="q" y2="39" transform="translate(1433.5 390.5)"/></g><g transform="translate(-468)"><g class="a" transform="translate(632 387)"><rect class="af" width="148" height="40" rx="5"/><rect class="b" x="0.5" y="0.5" width="147" height="39" rx="4.5"/></g><text class="aa" transform="translate(665 396)"><tspan x="0" y="18">SETTINGS</tspan></text><g class="y" transform="translate(641 395)"><path class="ab" d="M9.568,12.123A2.625,2.625,0,1,1,12.193,9.5,2.625,2.625,0,0,1,9.568,12.123Zm5.572-1.893a5.13,5.13,0,0,0,0-1.464l1.585-1.24a.374.374,0,0,0,.089-.479l-1.5-2.6a.375.375,0,0,0-.459-.163l-1.867.752A5.605,5.605,0,0,0,11.719,4.3l-.281-1.987A.376.376,0,0,0,11.068,2h-3a.375.375,0,0,0-.37.316L7.416,4.3a5.624,5.624,0,0,0-1.268.738L4.282,4.286a.375.375,0,0,0-.459.163l-1.5,2.6a.374.374,0,0,0,.089.479L4,8.766A5.129,5.129,0,0,0,4,10.23L2.411,11.47a.376.376,0,0,0-.089.479l1.5,2.6a.375.375,0,0,0,.459.163l1.867-.752a5.607,5.607,0,0,0,1.268.737L7.7,16.682a.375.375,0,0,0,.37.316h3a.376.376,0,0,0,.371-.316l.281-1.987a5.622,5.622,0,0,0,1.267-.738l1.868.753a.375.375,0,0,0,.459-.163l1.5-2.6a.376.376,0,0,0-.089-.479Z" transform="translate(2.727 3.002)"/><rect class="b" width="24" height="24"/></g></g><g class="ac" transform="translate(1495 396)"><path class="ad" d="M37,10a6.957,6.957,0,0,1-7,7H10a6.957,6.957,0,0,1-7-7H3a6.957,6.957,0,0,1,7-7H30a6.957,6.957,0,0,1,7,7Z" transform="translate(-3 1)"/><g class="ah" transform="matrix(1, 0, 0, 1, -1495, -396)"><path class="ae" d="M10,0A10,10,0,1,1,0,10,10,10,0,0,1,10,0Z" transform="translate(1512 397)"/></g></g></g></svg>