<svg xmlns="http://www.w3.org/2000/svg" xmlns:xlink="http://www.w3.org/1999/xlink" width="1920" height="2053" viewBox="0 0 1920 2053"><defs><style>.a,.g,.k{fill:none;}.b{clip-path:url(#h);}.c,.h,.n{fill:#fff;}.d,.e,.f,.i{fill:gray;}.d{font-size:56px;}.d,.f,.i,.n{font-family:Arial-BoldMT, Arial;font-weight:700;}.e,.f{font-size:18px;}.e{font-family:ArialMT, Arial;}.g{stroke:gray;stroke-width:4px;}.h{stroke:#a6a6a6;stroke-width:2px;}.i{font-size:24px;}.j{fill:#e6e6e6;stroke:#999;}.k{stroke:#707070;}.l{clip-path:url(#a);}.m{fill:#a6a6a6;}.n{font-size:20px;}.o{clip-path:url(#d);}.p{fill-rule:evenodd;opacity:0.54;}.q{stroke:none;}.r{fill:#f2f2f2;}</style><clipPath id="a"><rect class="a" width="94" height="37"/></clipPath><clipPath id="d"><rect class="a" width="24" height="24"/></clipPath><clipPath id="h"><rect width="1920" height="2053"/></clipPath></defs><g id="g" class="b"><rect class="r" width="1920" height="2053"/><rect class="c" width="1920" height="100"/><text class="d" transform="translate(154 222)"><tspan x="0" y="0">Hello &lt;player name&gt;,</tspan></text><text class="e" transform="translate(153 270)"><tspan x="0" y="0">Join this pleasurable medical-course-game. </tspan></text><text class="f" transform="translate(169.5 388.124)"><tspan x="0" y="0">FLOW</tspan></text><text class="f" transform="translate(280 388.124)"><tspan x="0" y="0">CASES</tspan></text><text class="f" transform="translate(395 388.124)"><tspan x="0" y="0">SAVED</tspan></text><path class="g" d="M0,27.9H85" transform="translate(383 368.977)"/><g class="h" transform="translate(153 482)"><rect class="q" width="381" height="440" rx="5"/><rect class="a" x="1" y="1" width="379" height="438" rx="4"/></g><text class="i" transform="translate(169 747.124)"><tspan x="0" y="22">Challenge 2</tspan></text><g class="j" transform="translate(153 507.828)"><rect class="q" width="381" height="222.58"/><rect class="a" x="0.5" y="0.5" width="380" height="221.58"/></g><line class="k" x2="380" y2="221.58" transform="translate(153.5 508.328)"/><line class="k" x1="380" y2="221.58" transform="translate(153.5 508.328)"/><text class="e" transform="translate(168 779)"><tspan x="0" y="16">Man, 51 years old, present to an </tspan><tspan x="0" y="37">emergency department complaining of </tspan><tspan x="0" y="58">chest pain.</tspan></text><g class="l" transform="translate(420 865)"><path class="m" d="M5,0H89a5,5,0,0,1,5,5V32a5,5,0,0,1-5,5H5a5,5,0,0,1-5-5V5A5,5,0,0,1,5,0Z"/><text class="n" transform="translate(47 26)"><tspan x="-25.752" y="0">PLAY</tspan></text></g><g transform="translate(411)"><g class="h" transform="translate(153 482)"><rect class="q" width="381" height="440" rx="5"/><rect class="a" x="1" y="1" width="379" height="438" rx="4"/></g><text class="i" transform="translate(169 747.124)"><tspan x="0" y="22">Challenge 4</tspan></text><g class="j" transform="translate(153 507.828)"><rect class="q" width="381" height="222.58"/><rect class="a" x="0.5" y="0.5" width="380" height="221.58"/></g><line class="k" x2="380" y2="221.58" transform="translate(153.5 508.328)"/><line class="k" x1="380" y2="221.58" transform="translate(153.5 508.328)"/><text class="e" transform="translate(168 779)"><tspan x="0" y="16">Man, 51 years old, present to an </tspan><tspan x="0" y="37">emergency department complaining of </tspan><tspan x="0" y="58">chest pain.</tspan></text><g class="l" transform="translate(420 865)"><path class="m" d="M5,0H89a5,5,0,0,1,5,5V32a5,5,0,0,1-5,5H5a5,5,0,0,1-5-5V5A5,5,0,0,1,5,0Z"/><text class="n" transform="translate(47 26)"><tspan x="-25.752" y="0">PLAY</tspan></text></g></g><g transform="translate(822)"><g class="h" transform="translate(153 482)"><rect class="q" width="381" height="440" rx="5"/><rect class="a" x="1" y="1" width="379" height="438" rx="4"/></g><text class="i" transform="translate(169 747.124)"><tspan x="0" y="22">Challenge 12</tspan></text><g class="j" transform="translate(153 507.828)"><rect class="q" width="381" height="222.58"/><rect class="a" x="0.5" y="0.5" width="380" height="221.58"/></g><line class="k" x2="380" y2="221.58" transform="translate(153.5 508.328)"/><line class="k" x1="380" y2="221.58" transform="translate(153.5 508.328)"/><text class="e" transform="translate(168 779)"><tspan x="0" y="16">Man, 51 years old, present to an </tspan><tspan x="0" y="37">emergency department complaining of </tspan><tspan x="0" y="58">chest pain.</tspan></text><g class="l" transform="translate(420 865)"><path class="m" d="M5,0H89a5,5,0,0,1,5,5V32a5,5,0,0,1-5,5H5a5,5,0,0,1-5-5V5A5,5,0,0,1,5,0Z"/><text class="n" transform="translate(47 26)"><tspan x="-25.752" y="0">PLAY</tspan></text></g></g><g class="o" transform="translate(311 747)"><rect class="a" width="24" height="24"/><path class="p" d="M12,8A4.932,4.932,0,0,0,7.5,5,4.413,4.413,0,0,0,3,9.5c0,3.529,3.793,6.258,9,11.5,5.207-5.242,9-7.971,9-11.5A4.413,4.413,0,0,0,16.5,5,4.93,4.93,0,0,0,12,8Z"/></g><g class="o" transform="translate(731 747)"><rect class="a" width="24" height="24"/><path class="p" d="M12,8A4.932,4.932,0,0,0,7.5,5,4.413,4.413,0,0,0,3,9.5c0,3.529,3.793,6.258,9,11.5,5.207-5.242,9-7.971,9-11.5A4.413,4.413,0,0,0,16.5,5,4.93,4.93,0,0,0,12,8Z"/></g><g class="o" transform="translate(1155 747)"><rect class="a" width="24" height="24"/><path class="p" d="M12,8A4.932,4.932,0,0,0,7.5,5,4.413,4.413,0,0,0,3,9.5c0,3.529,3.793,6.258,9,11.5,5.207-5.242,9-7.971,9-11.5A4.413,4.413,0,0,0,16.5,5,4.93,4.93,0,0,0,12,8Z"/></g></g></svg>