<svg xmlns="http://www.w3.org/2000/svg" xmlns:xlink="http://www.w3.org/1999/xlink" width="1920" height="2053" viewBox="0 0 1920 2053"><defs><style>.a,.g,.l{fill:none;}.b{clip-path:url(#r);}.c,.i,.o{fill:#fff;}.d,.e,.f,.j{fill:gray;}.d{font-size:56px;}.d,.f,.j,.o{font-family:Arial-BoldMT, Arial;font-weight:700;}.e,.f{font-size:18px;}.e{font-family:ArialMT, Arial;}.g{stroke:gray;stroke-width:4px;}.h{clip-path:url(#a);}.i{stroke:#a6a6a6;stroke-width:2px;}.j{font-size:24px;}.k{fill:#e6e6e6;stroke:#999;}.l{stroke:#707070;}.m{clip-path:url(#b);}.n{fill:#a6a6a6;}.o{font-size:20px;}.p{clip-path:url(#n);}.q{fill-rule:evenodd;opacity:0.54;}.r{stroke:none;}.s{fill:#f2f2f2;}</style><clipPath id="a"><rect class="a" width="1643" height="1397"/></clipPath><clipPath id="b"><rect class="a" width="94" height="37"/></clipPath><clipPath id="n"><rect class="a" width="24" height="24"/></clipPath><clipPath id="r"><rect width="1920" height="2053"/></clipPath></defs><g id="q" class="b"><rect class="s" width="1920" height="2053"/><rect class="c" width="1920" height="100"/><text class="d" transform="translate(154 222)"><tspan x="0" y="0">Hello &lt;player name&gt;,</tspan></text><text class="e" transform="translate(153 270)"><tspan x="0" y="0">Join this pleasurable medical-course-game. </tspan></text><text class="f" transform="translate(169.5 388.124)"><tspan x="0" y="0">FLOW</tspan></text><text class="f" transform="translate(280 388.124)"><tspan x="0" y="0">CASES</tspan></text><text class="f" transform="translate(395 388.124)"><tspan x="0" y="0">SAVED</tspan></text><path class="g" d="M0,27.9H85" transform="translate(268 368.977)"/><g class="h" transform="translate(153 482)"><g transform="translate(-153 -482)"><g class="i" transform="translate(153 482)"><rect class="r" width="381" height="440" rx="5"/><rect class="a" x="1" y="1" width="379" height="438" rx="4"/></g><text class="j" transform="translate(169 747.124)"><tspan x="0" y="22">Challenge 1</tspan></text><g class="k" transform="translate(153 507.828)"><rect class="r" width="381" height="222.58"/><rect class="a" x="0.5" y="0.5" width="380" height="221.58"/></g><line class="l" x2="380" y2="221.58" transform="translate(153.5 508.328)"/><line class="l" x1="380" y2="221.58" transform="translate(153.5 508.328)"/><text class="e" transform="translate(168 779)"><tspan x="0" y="16">Man, 51 years old, present to an </tspan><tspan x="0" y="37">emergency department complaining of </tspan><tspan x="0" y="58">chest pain.</tspan></text><g class="m" transform="translate(420 865)"><path class="n" d="M5,0H89a5,5,0,0,1,5,5V32a5,5,0,0,1-5,5H5a5,5,0,0,1-5-5V5A5,5,0,0,1,5,0Z"/><text class="o" transform="translate(47 26)"><tspan x="-25.752" y="0">PLAY</tspan></text></g></g><g transform="translate(258 -482)"><g class="i" transform="translate(153 482)"><rect class="r" width="381" height="440" rx="5"/><rect class="a" x="1" y="1" width="379" height="438" rx="4"/></g><text class="j" transform="translate(169 747.124)"><tspan x="0" y="22">Challenge 2</tspan></text><g class="k" transform="translate(153 507.828)"><rect class="r" width="381" height="222.58"/><rect class="a" x="0.5" y="0.5" width="380" height="221.58"/></g><line class="l" x2="380" y2="221.58" transform="translate(153.5 508.328)"/><line class="l" x1="380" y2="221.58" transform="translate(153.5 508.328)"/><text class="e" transform="translate(168 779)"><tspan x="0" y="16">Man, 51 years old, present to an </tspan><tspan x="0" y="37">emergency department complaining of </tspan><tspan x="0" y="58">chest pain.</tspan></text><g class="m" transform="translate(420 865)"><path class="n" d="M5,0H89a5,5,0,0,1,5,5V32a5,5,0,0,1-5,5H5a5,5,0,0,1-5-5V5A5,5,0,0,1,5,0Z"/><text class="o" transform="translate(47 26)"><tspan x="-25.752" y="0">PLAY</tspan></text></g></g><g transform="translate(669 -482)"><g class="i" transform="translate(153 482)"><rect class="r" width="381" height="440" rx="5"/><rect class="a" x="1" y="1" width="379" height="438" rx="4"/></g><text class="j" transform="translate(169 747.124)"><tspan x="0" y="22">Challenge 3</tspan></text><g class="k" transform="translate(153 507.828)"><rect class="r" width="381" height="222.58"/><rect class="a" x="0.5" y="0.5" width="380" height="221.58"/></g><line class="l" x2="380" y2="221.58" transform="translate(153.5 508.328)"/><line class="l" x1="380" y2="221.58" transform="translate(153.5 508.328)"/><text class="e" transform="translate(168 779)"><tspan x="0" y="16">Man, 51 years old, present to an </tspan><tspan x="0" y="37">emergency department complaining of </tspan><tspan x="0" y="58">chest pain.</tspan></text><g class="m" transform="translate(420 865)"><path class="n" d="M5,0H89a5,5,0,0,1,5,5V32a5,5,0,0,1-5,5H5a5,5,0,0,1-5-5V5A5,5,0,0,1,5,0Z"/><text class="o" transform="translate(47 26)"><tspan x="-25.752" y="0">PLAY</tspan></text></g></g><g transform="translate(1080 -482)"><g class="i" transform="translate(153 482)"><rect class="r" width="381" height="440" rx="5"/><rect class="a" x="1" y="1" width="379" height="438" rx="4"/></g><text class="j" transform="translate(169 747.124)"><tspan x="0" y="22">Challenge 4</tspan></text><g class="k" transform="translate(153 507.828)"><rect class="r" width="381" height="222.58"/><rect class="a" x="0.5" y="0.5" width="380" height="221.58"/></g><line class="l" x2="380" y2="221.58" transform="translate(153.5 508.328)"/><line class="l" x1="380" y2="221.58" transform="translate(153.5 508.328)"/><text class="e" transform="translate(168 779)"><tspan x="0" y="16">Man, 51 years old, present to an </tspan><tspan x="0" y="37">emergency department complaining of </tspan><tspan x="0" y="58">chest pain.</tspan></text><g class="m" transform="translate(420 865)"><path class="n" d="M5,0H89a5,5,0,0,1,5,5V32a5,5,0,0,1-5,5H5a5,5,0,0,1-5-5V5A5,5,0,0,1,5,0Z"/><text class="o" transform="translate(47 26)"><tspan x="-25.752" y="0">PLAY</tspan></text></g></g><g transform="translate(-153 -12)"><g class="i" transform="translate(153 482)"><rect class="r" width="381" height="440" rx="5"/><rect class="a" x="1" y="1" width="379" height="438" rx="4"/></g><text class="j" transform="translate(169 747.124)"><tspan x="0" y="22">Challenge 5</tspan></text><g class="k" transform="translate(153 507.828)"><rect class="r" width="381" height="222.58"/><rect class="a" x="0.5" y="0.5" width="380" height="221.58"/></g><line class="l" x2="380" y2="221.58" transform="translate(153.5 508.328)"/><line class="l" x1="380" y2="221.58" transform="translate(153.5 508.328)"/><text class="e" transform="translate(168 779)"><tspan x="0" y="16">Man, 51 years old, present to an </tspan><tspan x="0" y="37">emergency department complaining of </tspan><tspan x="0" y="58">chest pain.</tspan></text><g class="m" transform="translate(420 865)"><path class="n" d="M5,0H89a5,5,0,0,1,5,5V32a5,5,0,0,1-5,5H5a5,5,0,0,1-5-5V5A5,5,0,0,1,5,0Z"/><text class="o" transform="translate(47 26)"><tspan x="-25.752" y="0">PLAY</tspan></text></g></g><g transform="translate(258 -12)"><g class="i" transform="translate(153 482)"><rect class="r" width="381" height="440" rx="5"/><rect class="a" x="1" y="1" width="379" height="438" rx="4"/></g><text class="j" transform="translate(169 747.124)"><tspan x="0" y="22">Challenge 6</tspan></text><g class="k" transform="translate(153 507.828)"><rect class="r" width="381" height="222.58"/><rect class="a" x="0.5" y="0.5" width="380" height="221.58"/></g><line class="l" x2="380" y2="221.58" transform="translate(153.5 508.328)"/><line class="l" x1="380" y2="221.58" transform="translate(153.5 508.328)"/><text class="e" transform="translate(168 779)"><tspan x="0" y="16">Man, 51 years old, present to an </tspan><tspan x="0" y="37">emergency department complaining of </tspan><tspan x="0" y="58">chest pain.</tspan></text><g class="m" transform="translate(420 865)"><path class="n" d="M5,0H89a5,5,0,0,1,5,5V32a5,5,0,0,1-5,5H5a5,5,0,0,1-5-5V5A5,5,0,0,1,5,0Z"/><text class="o" transform="translate(47 26)"><tspan x="-25.752" y="0">PLAY</tspan></text></g></g><g transform="translate(669 -12)"><g class="i" transform="translate(153 482)"><rect class="r" width="381" height="440" rx="5"/><rect class="a" x="1" y="1" width="379" height="438" rx="4"/></g><text class="j" transform="translate(169 747.124)"><tspan x="0" y="22">Challenge 7</tspan></text><g class="k" transform="translate(153 507.828)"><rect class="r" width="381" height="222.58"/><rect class="a" x="0.5" y="0.5" width="380" height="221.58"/></g><line class="l" x2="380" y2="221.58" transform="translate(153.5 508.328)"/><line class="l" x1="380" y2="221.58" transform="translate(153.5 508.328)"/><text class="e" transform="translate(168 779)"><tspan x="0" y="16">Man, 51 years old, present to an </tspan><tspan x="0" y="37">emergency department complaining of </tspan><tspan x="0" y="58">chest pain.</tspan></text><g class="m" transform="translate(420 865)"><path class="n" d="M5,0H89a5,5,0,0,1,5,5V32a5,5,0,0,1-5,5H5a5,5,0,0,1-5-5V5A5,5,0,0,1,5,0Z"/><text class="o" transform="translate(47 26)"><tspan x="-25.752" y="0">PLAY</tspan></text></g></g><g transform="translate(1080 -12)"><g class="i" transform="translate(153 482)"><rect class="r" width="381" height="440" rx="5"/><rect class="a" x="1" y="1" width="379" height="438" rx="4"/></g><text class="j" transform="translate(169 747.124)"><tspan x="0" y="22">Challenge 8</tspan></text><g class="k" transform="translate(153 507.828)"><rect class="r" width="381" height="222.58"/><rect class="a" x="0.5" y="0.5" width="380" height="221.58"/></g><line class="l" x2="380" y2="221.58" transform="translate(153.5 508.328)"/><line class="l" x1="380" y2="221.58" transform="translate(153.5 508.328)"/><text class="e" transform="translate(168 779)"><tspan x="0" y="16">Man, 51 years old, present to an </tspan><tspan x="0" y="37">emergency department complaining of </tspan><tspan x="0" y="58">chest pain.</tspan></text><g class="m" transform="translate(420 865)"><path class="n" d="M5,0H89a5,5,0,0,1,5,5V32a5,5,0,0,1-5,5H5a5,5,0,0,1-5-5V5A5,5,0,0,1,5,0Z"/><text class="o" transform="translate(47 26)"><tspan x="-25.752" y="0">PLAY</tspan></text></g></g><g transform="translate(-153 458)"><g class="i" transform="translate(153 482)"><rect class="r" width="381" height="440" rx="5"/><rect class="a" x="1" y="1" width="379" height="438" rx="4"/></g><text class="j" transform="translate(169 747.124)"><tspan x="0" y="22">Challenge 9</tspan></text><g class="k" transform="translate(153 507.828)"><rect class="r" width="381" height="222.58"/><rect class="a" x="0.5" y="0.5" width="380" height="221.58"/></g><line class="l" x2="380" y2="221.58" transform="translate(153.5 508.328)"/><line class="l" x1="380" y2="221.58" transform="translate(153.5 508.328)"/><text class="e" transform="translate(168 779)"><tspan x="0" y="16">Man, 51 years old, present to an </tspan><tspan x="0" y="37">emergency department complaining of </tspan><tspan x="0" y="58">chest pain.</tspan></text><g class="m" transform="translate(420 865)"><path class="n" d="M5,0H89a5,5,0,0,1,5,5V32a5,5,0,0,1-5,5H5a5,5,0,0,1-5-5V5A5,5,0,0,1,5,0Z"/><text class="o" transform="translate(47 26)"><tspan x="-25.752" y="0">PLAY</tspan></text></g></g><g transform="translate(258 458)"><g class="i" transform="translate(153 482)"><rect class="r" width="381" height="440" rx="5"/><rect class="a" x="1" y="1" width="379" height="438" rx="4"/></g><text class="j" transform="translate(169 747.124)"><tspan x="0" y="22">Challenge 10</tspan></text><g class="k" transform="translate(153 507.828)"><rect class="r" width="381" height="222.58"/><rect class="a" x="0.5" y="0.5" width="380" height="221.58"/></g><line class="l" x2="380" y2="221.58" transform="translate(153.5 508.328)"/><line class="l" x1="380" y2="221.58" transform="translate(153.5 508.328)"/><text class="e" transform="translate(168 779)"><tspan x="0" y="16">Man, 51 years old, present to an </tspan><tspan x="0" y="37">emergency department complaining of </tspan><tspan x="0" y="58">chest pain.</tspan></text><g class="m" transform="translate(420 865)"><path class="n" d="M5,0H89a5,5,0,0,1,5,5V32a5,5,0,0,1-5,5H5a5,5,0,0,1-5-5V5A5,5,0,0,1,5,0Z"/><text class="o" transform="translate(47 26)"><tspan x="-25.752" y="0">PLAY</tspan></text></g></g><g transform="translate(669 458)"><g class="i" transform="translate(153 482)"><rect class="r" width="381" height="440" rx="5"/><rect class="a" x="1" y="1" width="379" height="438" rx="4"/></g><text class="j" transform="translate(169 747.124)"><tspan x="0" y="22">Challenge 11</tspan></text><g class="k" transform="translate(153 507.828)"><rect class="r" width="381" height="222.58"/><rect class="a" x="0.5" y="0.5" width="380" height="221.58"/></g><line class="l" x2="380" y2="221.58" transform="translate(153.5 508.328)"/><line class="l" x1="380" y2="221.58" transform="translate(153.5 508.328)"/><text class="e" transform="translate(168 779)"><tspan x="0" y="16">Man, 51 years old, present to an </tspan><tspan x="0" y="37">emergency department complaining of </tspan><tspan x="0" y="58">chest pain.</tspan></text><g class="m" transform="translate(420 865)"><path class="n" d="M5,0H89a5,5,0,0,1,5,5V32a5,5,0,0,1-5,5H5a5,5,0,0,1-5-5V5A5,5,0,0,1,5,0Z"/><text class="o" transform="translate(47 26)"><tspan x="-25.752" y="0">PLAY</tspan></text></g></g><g transform="translate(1080 458)"><g class="i" transform="translate(153 482)"><rect class="r" width="381" height="440" rx="5"/><rect class="a" x="1" y="1" width="379" height="438" rx="4"/></g><text class="j" transform="translate(169 747.124)"><tspan x="0" y="22">Challenge 12</tspan></text><g class="k" transform="translate(153 507.828)"><rect class="r" width="381" height="222.58"/><rect class="a" x="0.5" y="0.5" width="380" height="221.58"/></g><line class="l" x2="380" y2="221.58" transform="translate(153.5 508.328)"/><line class="l" x1="380" y2="221.58" transform="translate(153.5 508.328)"/><text class="e" transform="translate(168 779)"><tspan x="0" y="16">Man, 51 years old, present to an </tspan><tspan x="0" y="37">emergency department complaining of </tspan><tspan x="0" y="58">chest pain.</tspan></text><g class="m" transform="translate(420 865)"><path class="n" d="M5,0H89a5,5,0,0,1,5,5V32a5,5,0,0,1-5,5H5a5,5,0,0,1-5-5V5A5,5,0,0,1,5,0Z"/><text class="o" transform="translate(47 26)"><tspan x="-25.752" y="0">PLAY</tspan></text></g></g></g><text class="e" transform="translate(884 1930)"><tspan x="0" y="0">More cases soon...</tspan></text><g class="p" transform="translate(722 748)"><rect class="a" width="24" height="24"/><path class="q" d="M12,8A4.932,4.932,0,0,0,7.5,5,4.413,4.413,0,0,0,3,9.5c0,3.529,3.793,6.258,9,11.5,5.207-5.242,9-7.971,9-11.5A4.413,4.413,0,0,0,16.5,5,4.93,4.93,0,0,0,12,8Z"/></g><g class="p" transform="translate(1548 748)"><rect class="a" width="24" height="24"/><path class="q" d="M12,8A4.932,4.932,0,0,0,7.5,5,4.413,4.413,0,0,0,3,9.5c0,3.529,3.793,6.258,9,11.5,5.207-5.242,9-7.971,9-11.5A4.413,4.413,0,0,0,16.5,5,4.93,4.93,0,0,0,12,8Z"/></g><g class="p" transform="translate(1554 1688)"><rect class="a" width="24" height="24"/><path class="q" d="M12,8A4.932,4.932,0,0,0,7.5,5,4.413,4.413,0,0,0,3,9.5c0,3.529,3.793,6.258,9,11.5,5.207-5.242,9-7.971,9-11.5A4.413,4.413,0,0,0,16.5,5,4.93,4.93,0,0,0,12,8Z"/></g></g></svg>