<svg xmlns="http://www.w3.org/2000/svg" xmlns:xlink="http://www.w3.org/1999/xlink" width="1920" height="1316" viewBox="0 0 1920 1316"><defs><style>.a,.i,.l{fill:none;}.b{clip-path:url(#c);}.c,.d,.o{fill:#fff;}.c{stroke:#a6a6a6;stroke-width:2px;}.e,.f,.g,.h{fill:gray;}.e{font-size:56px;}.e,.g,.h,.o{font-family:Arial-BoldMT, Arial;font-weight:700;}.f,.g{font-size:18px;}.f{font-family:ArialMT, Arial;}.h{font-size:24px;}.i{stroke:gray;stroke-width:4px;}.j{fill:#999;}.k{fill:#e6e6e6;stroke:#999;}.l{stroke:#707070;}.m{clip-path:url(#a);}.n{fill:#a6a6a6;}.o{font-size:20px;}.p{stroke:none;}.q{fill:#f2f2f2;}</style><clipPath id="a"><rect class="a" width="94" height="37"/></clipPath><clipPath id="c"><rect width="1920" height="1316"/></clipPath></defs><g id="b" class="b"><rect class="q" width="1920" height="1316"/><g class="c" transform="translate(564 482)"><rect class="p" width="381" height="308" rx="5"/><rect class="a" x="1" y="1" width="379" height="306" rx="4"/></g><g class="c" transform="translate(975 482)"><rect class="p" width="381" height="308" rx="5"/><rect class="a" x="1" y="1" width="379" height="306" rx="4"/></g><g class="c" transform="translate(1386 482)"><rect class="p" width="381" height="308" rx="5"/><rect class="a" x="1" y="1" width="379" height="306" rx="4"/></g><rect class="d" width="1920" height="100"/><text class="e" transform="translate(154 222)"><tspan x="0" y="0">Hello &lt;player name&gt;,</tspan></text><text class="f" transform="translate(153 270)"><tspan x="0" y="0">Join this pleasurable medical-course-game. </tspan></text><text class="g" transform="translate(169.5 388.124)"><tspan x="0" y="0">FLOW</tspan></text><text class="h" transform="translate(580 747.124)"><tspan x="0" y="22">Challenge 2</tspan></text><text class="h" transform="translate(991 747.124)"><tspan x="0" y="22">Challenge 3</tspan></text><text class="h" transform="translate(1402 747.124)"><tspan x="0" y="22">Challenge 4</tspan></text><text class="g" transform="translate(280 388.124)"><tspan x="0" y="0">CASES</tspan></text><text class="g" transform="translate(395 388.124)"><tspan x="0" y="0">SAVED</tspan></text><path class="i" d="M0,27.9H85" transform="translate(153 369.101)"/><path class="j" d="M1970.876-36.281c.244,0,.479,0,.714,0,.928.009,1.861-.029,2.785.04,1.087.082,1.507.579,1.56,1.677.01.208.011.417.011.625q0,11.83,0,23.66a7.036,7.036,0,0,1-.063,1.019,1.279,1.279,0,0,1-1.192,1.179,4.47,4.47,0,0,1-.651.052q-17.319,0-34.638,0a3.718,3.718,0,0,1-.453-.028,1.415,1.415,0,0,1-1.447-1.562c-.018-.34-.012-.682-.012-1.024q0-11.56,0-23.12a8.281,8.281,0,0,1,.045-1.134,1.35,1.35,0,0,1,1.37-1.333c.991-.077,1.987-.088,2.981-.121.3-.01.6,0,.946,0,0-.162,0-.272,0-.381,0-2.36-.053-4.722.025-7.08a13.827,13.827,0,0,1,5.611-10.973,12.342,12.342,0,0,1,5.8-2.307,15.278,15.278,0,0,1,8.093.895,13.961,13.961,0,0,1,8.094,9.507,16.416,16.416,0,0,1,.213,3.17c.055,2.359.122,4.718.185,7.077A1.515,1.515,0,0,0,1970.876-36.281Zm-22.3-.086h16.808a.8.8,0,0,0,.02-.125c-.029-2.718.009-5.44-.107-8.154a7.177,7.177,0,0,0-3.765-6.115,9.168,9.168,0,0,0-6.945-.966,7.092,7.092,0,0,0-5.577,5.026,12.489,12.489,0,0,0-.473,3.595c-.021,1.7.024,3.41.038,5.115C1948.578-37.454,1948.574-36.917,1948.574-36.367Zm12.274,21.791c-.027-.139-.047-.25-.069-.359q-.8-3.879-1.61-7.758a.406.406,0,0,1,.131-.422,3.448,3.448,0,0,0,1.047-2.387,3.579,3.579,0,0,0-2.56-3.557,3.581,3.581,0,0,0-4.082,1.6,3.537,3.537,0,0,0,.539,4.341.433.433,0,0,1,.13.449q-.675,3.224-1.342,6.45c-.112.542-.22,1.085-.333,1.646Z" transform="translate(-1202.488 668.279)"/><path class="j" d="M1970.876-36.281c.244,0,.479,0,.714,0,.928.009,1.861-.029,2.785.04,1.087.082,1.507.579,1.56,1.677.01.208.011.417.011.625q0,11.83,0,23.66a7.036,7.036,0,0,1-.063,1.019,1.279,1.279,0,0,1-1.192,1.179,4.47,4.47,0,0,1-.651.052q-17.319,0-34.638,0a3.718,3.718,0,0,1-.453-.028,1.415,1.415,0,0,1-1.447-1.562c-.018-.34-.012-.682-.012-1.024q0-11.56,0-23.12a8.281,8.281,0,0,1,.045-1.134,1.35,1.35,0,0,1,1.37-1.333c.991-.077,1.987-.088,2.981-.121.3-.01.6,0,.946,0,0-.162,0-.272,0-.381,0-2.36-.053-4.722.025-7.08a13.827,13.827,0,0,1,5.611-10.973,12.342,12.342,0,0,1,5.8-2.307,15.278,15.278,0,0,1,8.093.895,13.961,13.961,0,0,1,8.094,9.507,16.416,16.416,0,0,1,.213,3.17c.055,2.359.122,4.718.185,7.077A1.515,1.515,0,0,0,1970.876-36.281Zm-22.3-.086h16.808a.8.8,0,0,0,.02-.125c-.029-2.718.009-5.44-.107-8.154a7.177,7.177,0,0,0-3.765-6.115,9.168,9.168,0,0,0-6.945-.966,7.092,7.092,0,0,0-5.577,5.026,12.489,12.489,0,0,0-.473,3.595c-.021,1.7.024,3.41.038,5.115C1948.578-37.454,1948.574-36.917,1948.574-36.367Zm12.274,21.791c-.027-.139-.047-.25-.069-.359q-.8-3.879-1.61-7.758a.406.406,0,0,1,.131-.422,3.448,3.448,0,0,0,1.047-2.387,3.579,3.579,0,0,0-2.56-3.557,3.581,3.581,0,0,0-4.082,1.6,3.537,3.537,0,0,0,.539,4.341.433.433,0,0,1,.13.449q-.675,3.224-1.342,6.45c-.112.542-.22,1.085-.333,1.646Z" transform="translate(-791.488 668.279)"/><path class="j" d="M1970.876-36.281c.244,0,.479,0,.714,0,.928.009,1.861-.029,2.785.04,1.087.082,1.507.579,1.56,1.677.01.208.011.417.011.625q0,11.83,0,23.66a7.036,7.036,0,0,1-.063,1.019,1.279,1.279,0,0,1-1.192,1.179,4.47,4.47,0,0,1-.651.052q-17.319,0-34.638,0a3.718,3.718,0,0,1-.453-.028,1.415,1.415,0,0,1-1.447-1.562c-.018-.34-.012-.682-.012-1.024q0-11.56,0-23.12a8.281,8.281,0,0,1,.045-1.134,1.35,1.35,0,0,1,1.37-1.333c.991-.077,1.987-.088,2.981-.121.3-.01.6,0,.946,0,0-.162,0-.272,0-.381,0-2.36-.053-4.722.025-7.08a13.827,13.827,0,0,1,5.611-10.973,12.342,12.342,0,0,1,5.8-2.307,15.278,15.278,0,0,1,8.093.895,13.961,13.961,0,0,1,8.094,9.507,16.416,16.416,0,0,1,.213,3.17c.055,2.359.122,4.718.185,7.077A1.515,1.515,0,0,0,1970.876-36.281Zm-22.3-.086h16.808a.8.8,0,0,0,.02-.125c-.029-2.718.009-5.44-.107-8.154a7.177,7.177,0,0,0-3.765-6.115,9.168,9.168,0,0,0-6.945-.966,7.092,7.092,0,0,0-5.577,5.026,12.489,12.489,0,0,0-.473,3.595c-.021,1.7.024,3.41.038,5.115C1948.578-37.454,1948.574-36.917,1948.574-36.367Zm12.274,21.791c-.027-.139-.047-.25-.069-.359q-.8-3.879-1.61-7.758a.406.406,0,0,1,.131-.422,3.448,3.448,0,0,0,1.047-2.387,3.579,3.579,0,0,0-2.56-3.557,3.581,3.581,0,0,0-4.082,1.6,3.537,3.537,0,0,0,.539,4.341.433.433,0,0,1,.13.449q-.675,3.224-1.342,6.45c-.112.542-.22,1.085-.333,1.646Z" transform="translate(-380.486 668.279)"/><g class="c" transform="translate(153 482)"><rect class="p" width="381" height="440" rx="5"/><rect class="a" x="1" y="1" width="379" height="438" rx="4"/></g><text class="h" transform="translate(169 747.124)"><tspan x="0" y="22">Challenge 1</tspan></text><g class="k" transform="translate(153 507.828)"><rect class="p" width="381" height="222.58"/><rect class="a" x="0.5" y="0.5" width="380" height="221.58"/></g><line class="l" x2="380" y2="221.58" transform="translate(153.5 508.328)"/><line class="l" x1="380" y2="221.58" transform="translate(153.5 508.328)"/><text class="f" transform="translate(168 779)"><tspan x="0" y="16">Man, 51 years old, present to an </tspan><tspan x="0" y="37">emergency department complaining of </tspan><tspan x="0" y="58">chest pain.</tspan></text><g class="m" transform="translate(418 865)"><path class="n" d="M5,0H89a5,5,0,0,1,5,5V32a5,5,0,0,1-5,5H5a5,5,0,0,1-5-5V5A5,5,0,0,1,5,0Z"/><text class="o" transform="translate(47 26)"><tspan x="-25.752" y="0">PLAY</tspan></text></g></g></svg>